<?xml version="1.0" encoding="iso-8859-1"?>
<!-- Generator: Adobe Illustrator 21.1.0, SVG Export Plug-In . SVG Version: 6.00 Build 0)  -->
<svg version="1.1" id="Layer_1" xmlns="http://www.w3.org/2000/svg" xmlns:xlink="http://www.w3.org/1999/xlink" x="0px" y="0px"
	 viewBox="0 0 231 231" style="enable-background:new 0 0 231 231;" xml:space="preserve">
<path style="fill:#5C3087;" d="M198,118.272c-0.118,0.874-0.74,1.379-1.278,1.917c-10.106,10.005-20.211,20.009-30.334,29.997
	c-0.891,0.874-1.984,2.035-2.522-0.219c-1.513-6.255-6.205-10.307-10.173-14.831c-4.809-5.482-10.341-10.223-15.705-15.15
	c-1.513-1.396-1.564-2.169-0.067-3.615c10.173-9.937,20.278-19.942,30.367-29.981c1.48-1.463,2.236-1.917,2.842,0.656
	c1.244,5.28,5.128,8.929,8.559,12.762c5.078,5.683,10.728,10.778,16.327,15.94C196.806,116.489,197.781,117.128,198,118.272z
	 M189.929,118.423c-0.286-1.278-1.278-1.883-2.068-2.623c-6.272-5.885-12.645-11.686-17.655-18.698
	c-2.085-2.909-3.027-2.186-4.96-0.151c-6.154,6.457-12.392,12.83-18.765,19.051c-1.816,1.782-1.715,2.674,0.05,4.355
	c6.759,6.457,13.67,12.813,19.068,20.531c0.841,1.211,1.379,1.059,2.253,0.151c7.012-7.163,14.04-14.293,21.052-21.456
	C189.29,119.247,189.61,118.81,189.929,118.423z"/>
<path style="fill:#FCFCFC;" d="M172.879,118.423c0-0.874-0.151-1.782,0.034-2.623c0.605-2.674-0.572-3.212-2.976-2.926
	c-1.833,0.219-3.733,0.118-5.582-0.034c-1.513-0.118-2.321,0.219-2.119,1.917c0.101,0.858,0.017,1.749,0.017,2.623
	c0,1.866-0.689,4.187,0.168,5.465c1.127,1.665,3.598,0.336,5.482,0.404C172.862,123.451,172.862,123.417,172.879,118.423z"/>
<path style="fill:#B41A8A;" d="M172.879,118.423c-0.017,4.994-0.017,5.028-4.96,4.843c-1.883-0.067-4.372,1.261-5.482-0.404
	c-0.858-1.278-0.168-3.615-0.168-5.465c0-0.874,0.084-1.766-0.017-2.623c-0.202-1.698,0.589-2.035,2.119-1.917
	c1.85,0.135,3.75,0.235,5.583,0.034c2.404-0.286,3.582,0.252,2.976,2.926C172.728,116.624,172.879,117.549,172.879,118.423z"/>
<g>
	<path style="fill:#5D5D5D;" d="M124.688,89.62c0-2.22-0.017-4.422,0.017-6.642c0-0.622-0.185-0.874-0.807-0.841
		c-0.723,0.034-1.463,0.067-2.186,0c-0.874-0.084-1.076,0.252-1.076,1.093c0.034,7.365,0,14.73,0.034,22.094
		c0.017,1.833-1.227,2.741-2.758,2.724c-3.413-0.034-6.827,0-10.257-0.017c-0.286,0-0.572-0.034-0.992-0.05
		c0.185-0.252,0.269-0.403,0.387-0.504c1.564-1.547,3.01-3.245,4.725-4.59c1.345-1.042,1.833-2.035,1.513-3.716
		c-0.572-3.077-1.9-5.549-4.658-7.129c-2.27-1.295-4.708-1.766-7.314-1.328c-2.875,0.488-5.246,1.732-6.877,4.254
		c-1.177,1.833-1.446,3.884-1.665,5.969c-0.034,0.252,0.219,0.605,0.437,0.807c1.648,1.547,3.313,3.06,4.96,4.607
		c0.488,0.454,0.874,1.009,1.412,1.648h-14.04v-3.363c0-4.338-0.017-8.676,0.017-13.031c0-0.706-0.219-0.958-0.908-0.908
		c-0.673,0.05-1.345,0.017-2.018,0.017c-1.11,0-1.127,0.017-1.127,1.127c0,7.415,0,14.847,0,22.263c0,2.573-1.278,4.372-3.75,5.229
		c-0.387,0.135-0.757,0.303-1.177,0.488c0.942,1.211,1.816,2.354,2.724,3.514c4.893-2.203,6.726-6.07,6.221-11.266h1.16
		c4.036,0,8.071-0.034,12.107,0.017c1.379,0.017,2.657-0.219,3.851-0.908c0.454-0.252,0.79-0.151,1.244,0.017
		c0.874,0.353,1.782,0.807,2.674,0.841c3.884,0.084,7.785,0.084,11.686,0c0.975-0.017,2.001-0.286,2.909-0.656
		c2.539-1.059,3.565-3.228,3.598-5.818C124.739,100.28,124.688,94.95,124.688,89.62z M103.72,105.358
		c-0.168,0.168-0.353,0.336-0.589,0.538c-0.891-0.942-1.732-1.866-2.606-2.758c-0.992-1.009-2.001-2.001-3.01-2.993
		c-0.656-0.639-0.757-1.278-0.32-2.135c0.689-1.328,1.682-2.371,3.111-2.892c2.522-0.908,4.96-0.874,7.062,0.975
		c0.74,0.639,1.227,1.597,1.765,2.455c0.387,0.622,0.118,1.143-0.403,1.648C107.033,101.894,105.385,103.643,103.72,105.358z"/>
	<path style="fill:#5D5D5D;" d="M57.867,112.101c-0.084,1.261-0.135,2.388-0.269,3.481c-0.353,3.06-1.917,5.347-4.54,6.928
		c-1.463,0.874-1.48,0.874-2.573-0.437c-0.572-0.673-1.11-1.379-1.732-2.169c0.656-0.32,1.278-0.605,1.883-0.891
		c2.287-1.059,3.094-2.926,3.094-5.347c-0.017-7.281,0-14.561-0.034-21.842c0-0.824,0.185-1.194,1.059-1.093
		c0.689,0.067,1.396,0.05,2.102,0c0.706-0.05,0.908,0.219,0.908,0.908c-0.034,4.506-0.017,9.013-0.017,13.519
		c0,0.925,0,1.833,0,2.825c0.336,0.017,0.605,0.05,0.874,0.05c2.304,0,4.59,0,6.894,0c1.665,0,2.64-0.992,2.64-2.674
		c0-4.557,0.017-9.13-0.017-13.687c0-0.723,0.185-1.026,0.942-0.975c0.807,0.05,1.631,0.034,2.438,0
		c0.504-0.017,0.689,0.202,0.689,0.706c-0.017,4.725,0.118,9.467-0.05,14.192c-0.101,3.01-1.85,5.65-5.128,6.121
		c-1.782,0.252-3.598,0.269-5.414,0.336C60.389,112.134,59.128,112.101,57.867,112.101z"/>
	<path style="fill:#5D5D5D;" d="M130.893,114.337c0-0.488,0-0.773,0-1.042c0-9.988,0-19.993,0-29.981c0-1.143,0-1.143,1.16-1.143
		c0.673,0,1.345,0.034,2.018-0.017c0.656-0.05,0.891,0.185,0.874,0.858c-0.034,2.22-0.017,4.422-0.017,6.642
		c0,7.062-0.017,14.108,0.017,21.17c0,0.925-0.202,1.48-1.11,1.866C132.877,113.076,132.002,113.698,130.893,114.337z"/>
	<path style="fill:#5D5D5D;" d="M78.364,133.624c-1.295-0.437-2.489-0.992-3.75-1.227c-2.287-0.42-4.489-0.235-6.255,1.648
		c-2.472,2.64-2.186,7.365,1.177,9.332c2.051,1.194,4.17,0.925,6.306,0.42c0.235-0.05,0.538-0.454,0.555-0.706
		c0.067-0.858,0.034-1.732,0.034-2.741c-0.807,0-1.547-0.034-2.287,0.017c-0.891,0.05-0.723-0.555-0.74-1.076
		c-0.017-0.538-0.034-1.009,0.757-0.975c1.312,0.05,2.64,0.017,3.951,0c0.504,0,0.706,0.185,0.706,0.689
		c-0.017,1.765,0.017,3.531-0.034,5.297c0,0.269-0.219,0.689-0.437,0.79c-3.531,1.429-7.096,1.9-10.492-0.235
		c-2.539-1.581-3.699-4.103-3.464-7.029c0.269-3.38,2.018-5.851,5.28-7.045c2.892-1.059,5.7-0.572,8.424,0.689
		c0.219,0.101,0.303,0.572,0.353,0.891c0.067,0.353,0.017,0.723,0,1.093C78.431,133.489,78.38,133.573,78.364,133.624z"/>
	<path style="fill:#5D5D5D;" d="M36.512,146.066c1.009-2.388,1.951-4.607,2.892-6.827c1.143-2.724,2.287-5.448,3.43-8.172
		c0.235-0.538,0.538-0.858,1.244-0.858c0.706,0.017,0.858,0.37,1.093,0.891c1.379,3.127,2.791,6.238,4.187,9.366
		c0.807,1.799,1.597,3.598,2.472,5.566c-0.757,0-1.463,0.151-2.035-0.05c-0.387-0.135-0.656-0.757-0.874-1.211
		c-0.454-0.958-0.807-1.95-1.278-2.892c-0.118-0.235-0.471-0.488-0.723-0.488c-1.85-0.034-3.699-0.05-5.549,0
		c-0.269,0-0.639,0.286-0.757,0.555c-0.504,1.076-0.975,2.186-1.396,3.296c-0.252,0.689-0.673,0.958-1.379,0.841
		C37.437,146.016,37.033,146.066,36.512,146.066z M46.449,139.29c-0.824-1.833-1.581-3.497-2.337-5.179
		c-0.084,0-0.185,0.017-0.269,0.017c-0.689,1.681-1.379,3.38-2.102,5.162C43.372,139.29,44.802,139.29,46.449,139.29z"/>
	<path style="fill:#5D5D5D;" d="M83.66,136.751c0.774-0.387,1.379-0.79,2.051-1.026c1.967-0.706,3.851,0.37,4.355,2.388
		c0.622,2.455,0.202,4.96,0.286,7.432c0,0.168-0.303,0.403-0.504,0.488c-0.185,0.084-0.437,0-0.656,0.034
		c-0.757,0.101-1.042-0.168-1.009-0.975c0.05-1.866,0.017-3.75,0.017-5.633c0-1.379-0.824-2.337-1.967-2.32
		c-1.429,0.017-2.556,1.076-2.556,2.388c0,1.9-0.034,3.817,0.017,5.717c0.017,0.824-0.437,0.824-1.009,0.807
		c-0.538-0.017-1.059,0.084-1.042-0.773c0.034-4.708,0.034-9.416,0-14.108c0-0.858,0.504-0.757,1.042-0.773
		c0.572-0.017,1.042-0.017,1.009,0.807C83.627,133.035,83.66,134.851,83.66,136.751z"/>
	<path style="fill:#5D5D5D;" d="M121.813,144.553c-0.219,0.42-0.32,1.026-0.656,1.211c-1.362,0.773-2.085,0.639-2.976-0.252
		c-0.958,0.252-1.85,0.605-2.758,0.706c-1.11,0.118-2.169-0.673-2.472-1.631c-0.336-1.042,0.05-2.421,1.026-2.976
		c1.059-0.605,2.203-1.026,3.329-1.513c0.37-0.151,0.942-0.151,0.79-0.74c-0.135-0.555-0.286-1.261-0.689-1.564
		c-0.723-0.572-1.665-0.404-2.472-0.017c-0.639,0.303-1.211,0.74-1.866,1.16c0-0.572-0.135-1.211,0.034-1.715
		c0.168-0.471,0.622-0.908,1.059-1.177c1.497-0.908,3.733-0.757,4.994,0.454c0.504,0.488,0.874,1.328,0.925,2.051
		c0.135,1.614,0.05,3.245,0.05,4.859c0,1.463,0.067,1.513,1.362,1.009C121.611,144.452,121.712,144.503,121.813,144.553z
		 M118.114,140.871c-1.009,0.504-1.866,0.841-2.64,1.345c-0.605,0.387-0.639,1.042-0.42,1.698c0.303,0.958,1.076,0.824,1.799,0.773
		c0.639-0.034,1.177-0.353,1.244-1.009C118.181,142.855,118.114,141.98,118.114,140.871z"/>
	<path style="fill:#5D5D5D;" d="M99.567,145.041c-0.353,0.219-0.605,0.37-0.858,0.521c-2.573,1.648-5.532,0.151-5.633-2.909
		c-0.067-2.035,0.017-4.086-0.034-6.137c-0.017-0.891,0.572-0.689,1.076-0.723c0.555-0.034,0.992-0.017,0.958,0.757
		c-0.05,1.715-0.034,3.413,0,5.128c0,0.521,0,1.11,0.235,1.547c0.252,0.471,0.706,0.958,1.177,1.143
		c1.48,0.605,3.111-0.555,3.111-2.135c0-1.883,0.05-3.75-0.017-5.633c-0.034-0.992,0.589-0.807,1.16-0.824
		c0.605-0.017,1.076-0.05,1.076,0.824c-0.05,2.808-0.05,5.599,0,8.407c0.017,0.807-0.202,1.11-1.026,1.059
		C100.122,146.033,99.466,146.117,99.567,145.041z"/>
	<path style="fill:#5D5D5D;" d="M55.412,138.298c0,2.304-0.034,4.59,0.017,6.894c0.017,0.942-0.504,0.874-1.11,0.874
		c-0.622,0-1.127,0.067-1.11-0.874c0.05-4.658,0.05-9.299,0-13.956c-0.017-0.975,0.572-0.807,1.16-0.824
		c0.589-0.017,1.093-0.067,1.076,0.824C55.378,133.59,55.412,135.944,55.412,138.298z"/>
	<path style="fill:#5D5D5D;" d="M136.189,136.499c-0.387,0.757-0.673,1.328-0.992,1.917c-0.219-0.118-0.387-0.202-0.538-0.303
		c-0.757-0.572-1.581-0.874-2.472-0.336c-0.925,0.555-1.429,1.429-1.463,2.489c-0.05,1.648-0.05,3.312,0,4.96
		c0.034,0.874-0.437,0.874-1.059,0.841c-0.572-0.034-1.194,0.185-1.177-0.807c0.05-2.892,0.034-5.767,0-8.66
		c0-0.555,0.135-0.824,0.757-0.807c1.463,0.05,1.53-0.151,1.463,1.362c0,0.135,0.034,0.252,0.084,0.471
		c1.009-0.858,1.665-2.236,3.111-2.102C134.693,135.591,135.416,136.146,136.189,136.499z"/>
	<path style="fill:#5D5D5D;" d="M106.915,137.508c0.807-0.656,1.497-1.328,2.304-1.85c0.673-0.437,2.455,0.168,2.825,0.858
		c0.067,0.135,0.067,0.387,0,0.538c-0.219,0.437-0.504,0.858-0.807,1.345c-0.202-0.135-0.387-0.235-0.555-0.353
		c-1.345-1.009-2.707-0.639-3.497,1.026c-0.219,0.454-0.286,1.026-0.303,1.53c-0.034,1.446-0.017,2.909-0.017,4.372
		c0,1.093,0,1.093-1.127,1.093c-0.168,0-0.37,0.067-0.488-0.017c-0.219-0.135-0.538-0.353-0.538-0.538
		c-0.034-3.044-0.034-6.104,0-9.147c0-0.185,0.336-0.42,0.555-0.538c0.151-0.084,0.387,0,0.572-0.017
		c0.79-0.118,1.16,0.185,1.042,1.009C106.831,137.037,106.898,137.289,106.915,137.508z"/>
	<path style="fill:#5D5D5D;" d="M123.494,140.887c0-1.396,0.017-2.808-0.017-4.204c-0.017-0.639,0.151-0.908,0.841-0.891
		c1.362,0.017,1.362-0.017,1.362,1.379c0,2.657-0.034,5.33,0.017,7.987c0.017,0.858-0.37,0.975-1.059,0.942
		c-0.639-0.034-1.227,0.101-1.177-0.908C123.561,143.746,123.494,142.317,123.494,140.887z"/>
	<path style="fill:#5D5D5D;" d="M63.735,123.367c-1.379-0.034-2.371-1.11-2.337-2.505c0.034-1.278,1.211-2.404,2.455-2.371
		c1.278,0.034,2.438,1.227,2.438,2.522C66.291,122.24,65.047,123.4,63.735,123.367z"/>
	<path style="fill:#5D5D5D;" d="M105.519,83.112c0.034,1.48-1.127,2.354-2.371,2.404c-1.278,0.067-2.522-1.244-2.505-2.522
		c0-1.11,1.312-2.404,2.455-2.337C104.561,80.758,105.587,81.767,105.519,83.112z"/>
	<path style="fill:#5D5D5D;" d="M70.141,123.367c-1.463-0.034-2.32-1.009-2.304-2.657c0.017-1.177,1.16-2.27,2.354-2.236
		c1.345,0.05,2.421,1.177,2.371,2.522C72.512,122.341,71.453,123.383,70.141,123.367z"/>
	<path style="fill:#5D5D5D;" d="M124.554,133.792c-0.622,0.017-1.227-0.538-1.227-1.11c0-0.656,0.555-1.227,1.211-1.244
		c0.706-0.017,1.244,0.488,1.261,1.16C125.815,133.254,125.277,133.775,124.554,133.792z"/>
</g>
<g>
</g>
<g>
</g>
<g>
</g>
<g>
</g>
<g>
</g>
<g>
</g>
<g>
</g>
<g>
</g>
<g>
</g>
<g>
</g>
<g>
</g>
<g>
</g>
<g>
</g>
<g>
</g>
<g>
</g>
</svg>
