<?xml version="1.0" encoding="iso-8859-1"?>
<!-- Generator: Adobe Illustrator 21.1.0, SVG Export Plug-In . SVG Version: 6.00 Build 0)  -->
<svg version="1.1" id="Layer_1" xmlns="http://www.w3.org/2000/svg" xmlns:xlink="http://www.w3.org/1999/xlink" x="0px" y="0px"
	 viewBox="0 0 231 231" style="enable-background:new 0 0 231 231;" xml:space="preserve">
<g>
	<path style="fill:#3D276D;" d="M82.501,112.242c3.6,1.912,4.588,3.69,4.022,6.949c-0.539,3.061-3.277,5.539-6.868,6.006
		c-3.914,0.503-7.855,0.135-11.787,0.233c-0.727,0.018-0.844-0.368-0.844-0.988c0.009-7.756,0.018-15.522,0-23.278
		c0-0.709,0.162-1.068,0.952-1.041c3.824,0.108,7.658-0.233,11.473,0.242c4.641,0.583,7.11,3.492,6.545,7.541
		C85.697,109.988,84.324,111.191,82.501,112.242z M73.183,117.673c0,0.736,0.018,1.463-0.009,2.199
		c-0.018,0.566,0.162,0.898,0.79,0.88c1.409-0.045,2.837,0.054,4.219-0.144c1.76-0.251,2.523-1.409,2.415-3.259
		c-0.09-1.535-0.907-2.316-2.675-2.487c-0.619-0.063-1.257-0.036-1.885-0.036C73.183,114.809,73.183,114.809,73.183,117.673z
		 M73.156,107.591c0,0.736,0.009,1.463,0,2.2c-0.009,0.548,0.135,0.898,0.79,0.88c1.356-0.054,2.72,0.108,4.067-0.242
		c1.203-0.314,1.876-1.05,1.957-2.325c0.153-2.208-0.682-3.16-2.954-3.322C73.156,104.512,73.156,104.512,73.156,107.591z"/>
	<path style="fill:#3D276D;" d="M175.274,108.839c0.763-0.458,1.239-0.781,1.742-1.041c3.349-1.724,7.038-0.575,8.645,2.819
		c1.553,3.277,1.589,6.679,0.35,10.082c-1.418,3.905-6.518,7.083-11.06,3.322c-0.637,1.158-3.708,1.984-4.947,1.347
		c-0.431-0.224-0.341-0.601-0.341-0.952c0-7.963,0.009-15.935-0.018-23.898c0-0.808,0.251-1.059,1.068-1.095
		c4.561-0.206,4.561-0.233,4.561,4.363C175.274,105.392,175.274,107.008,175.274,108.839z M175.274,116.632c0,0.79,0,1.571,0,2.361
		c0.009,1.715,0.61,2.343,2.298,2.46c1.607,0.108,2.604-0.709,3.07-2.155c0.61-1.885,0.62-3.824,0.135-5.746
		c-0.431-1.706-1.356-2.361-2.927-2.172c-1.733,0.206-2.577,1.149-2.577,2.891C175.265,115.052,175.265,115.842,175.274,116.632z"/>
	<path style="fill:#3F296E;" d="M150.577,107.304c-1.894,2.568-3.546,4.902-5.315,7.146c-0.494,0.629-0.619,0.862-0.144,1.616
		c1.778,2.774,3.402,5.656,5.099,8.484c0.458,0.763,0.108,0.907-0.575,0.871c-0.054,0-0.108,0-0.162,0
		c-6.311-0.081-4.695,0.7-7.451-4.246c-0.539-0.96-1.05-1.93-1.562-2.909c-0.359-0.682-0.96-0.808-1.607-0.646
		c-0.664,0.162-0.386,0.772-0.395,1.194c-0.027,1.831-0.045,3.672,0,5.503c0.018,0.799-0.224,1.077-1.059,1.122
		c-4.596,0.269-4.596,0.287-4.596-4.327c0-6.76,0.027-13.529-0.027-20.289c-0.009-1.104,0.305-1.409,1.4-1.409
		c4.255,0,4.255-0.036,4.255,4.202c0,2.936-0.018,5.871,0.018,8.807c0.009,0.467-0.341,1.149,0.35,1.365
		c0.691,0.215,1.176-0.233,1.544-0.808c0.808-1.23,1.724-2.388,2.424-3.672c0.862-1.598,2.092-2.19,3.86-2.02
		C147.839,107.403,149.033,107.304,150.577,107.304z"/>
	<path style="fill:#3D276D;" d="M114.218,116.425c-0.045,5.602-3.833,9.381-9.31,9.283c-5.521-0.09-9.193-3.914-9.121-9.498
		c0.072-5.521,3.762-9.175,9.256-9.175C110.591,107.053,114.263,110.805,114.218,116.425z M108.509,116.515
		c-0.117-0.907-0.144-1.804-0.35-2.666c-0.413-1.724-1.427-2.505-3.097-2.514c-1.715-0.009-2.684,0.691-3.151,2.442
		c-0.485,1.795-0.467,3.618,0.063,5.404c0.44,1.481,1.445,2.235,3.007,2.253c1.616,0.018,2.639-0.691,3.106-2.316
		C108.311,118.266,108.365,117.368,108.509,116.515z"/>
	<path style="fill:#3D276D;" d="M158.809,107.035c5.548-0.009,9.229,3.744,9.193,9.373c-0.036,5.548-3.69,9.265-9.139,9.301
		c-5.512,0.036-9.265-3.735-9.292-9.319C149.553,110.796,153.252,107.044,158.809,107.035z M162.203,116.102
		c-0.054-0.655-0.027-1.535-0.296-2.406c-0.476-1.535-1.409-2.361-3.07-2.37c-1.643-0.009-2.684,0.745-3.115,2.298
		c-0.521,1.903-0.539,3.815,0.081,5.71c0.458,1.418,1.481,2.083,2.954,2.101c1.481,0.027,2.487-0.646,3.025-2.02
		C162.167,118.418,162.203,117.377,162.203,116.102z"/>
	<path style="fill:#3D276D;" d="M121.346,116.344c0.09,0.691,0.117,1.49,0.305,2.244c0.718,2.81,3.151,3.708,5.584,2.11
		c1.58-1.041,3.429-0.314,3.995,1.544c0.171,0.557-0.242,0.772-0.53,1.023c-2.666,2.307-5.745,2.972-9.103,2.056
		c-3.214-0.871-4.929-3.232-5.692-6.338c-0.431-1.751-0.395-3.546,0.009-5.306c1.778-7.694,10.899-7.99,14.723-4.525
		c0.548,0.494,0.575,0.799,0.153,1.409c-1.517,2.172-1.643,2.235-4.013,1.14c-2.424-1.122-4.614-0.072-5.189,2.514
		C121.454,114.872,121.436,115.563,121.346,116.344z"/>
	<path style="fill:#3F296E;" d="M94.055,112.475c0,3.878-0.036,7.748,0.027,11.626c0.018,1.041-0.287,1.409-1.32,1.338
		c-1.041-0.072-2.101-0.072-3.142,0c-1.005,0.072-1.221-0.341-1.212-1.275c0.036-7.801,0.036-15.603,0-23.404
		c-0.009-1.032,0.269-1.418,1.311-1.338c1.041,0.081,2.101,0.081,3.142,0c1.005-0.072,1.23,0.341,1.221,1.275
		C94.028,104.62,94.055,108.552,94.055,112.475z"/>
	<path style="fill:#3F296E;" d="M188.578,116.326c0-2.621,0.027-5.234-0.018-7.855c-0.018-0.871,0.215-1.239,1.14-1.185
		c1.149,0.072,2.307,0.054,3.456,0c0.835-0.036,1.068,0.296,1.068,1.095c-0.027,5.342-0.027,10.683,0,16.016
		c0,0.745-0.251,0.97-0.988,1.023c-4.659,0.35-4.659,0.368-4.659-4.246C188.578,119.567,188.578,117.942,188.578,116.326z"/>
	<path style="fill:#3F296E;" d="M191.424,99.368c1.804,0.009,3.411,1.517,3.429,3.214c0.018,1.67-1.616,3.241-3.403,3.268
		c-1.795,0.027-3.367-1.472-3.375-3.232C188.066,100.849,189.602,99.359,191.424,99.368z"/>
	<path style="fill:#6ACFFA;" d="M42.579,130.556c-0.09-0.844-0.233-1.688,0.072-2.523c2.469,0.009,4.938,0.027,7.397,0.027
		c0.754,0,1.481,0.027,1.912,0.79c-1.427,0.898-2.9,1.724-4.48,2.334c-0.305-0.646-0.889-0.61-1.472-0.61
		C44.868,130.574,43.728,130.565,42.579,130.556z"/>
	<path style="fill:#51C4F2;" d="M55.084,124.604c0,0.736-0.009,1.463-0.009,2.2c-2.505,0-5.018,0.108-7.514-0.045
		c-1.293-0.081-2.559,0.341-3.842,0.054c1.58-1.014,3.268-1.84,4.973-2.612c0.314,0.467,0.79,0.709,1.311,0.7
		C51.7,124.873,53.414,125.124,55.084,124.604z"/>
	<path style="fill:#6ACFFA;" d="M42.579,112.287c-0.117-0.727-0.162-1.454,0.018-2.182c2.46,0,4.92,0.009,7.379,0.009
		c0.628,0,1.284-0.099,1.616,0.646c-1.374,0.943-2.873,1.616-4.399,2.262c-0.242-0.655-0.79-0.718-1.383-0.709
		C44.733,112.314,43.656,112.296,42.579,112.287z"/>
	<path style="fill:#36ABEA;" d="M48.917,105.051c-0.153-0.943-0.198-1.885-0.009-2.828c2.056,0.009,4.112,0.009,6.167,0.018
		c0,0.835,0,1.679,0,2.514C53.037,105.221,50.973,105.051,48.917,105.051z"/>
	<path style="fill:#5ECAF6;" d="M43.71,126.803c1.284,0.287,2.541-0.135,3.842-0.054c2.496,0.162,5.009,0.045,7.514,0.045
		c-0.548,1.418-2.002,1.463-3.106,2.047c-0.431-0.763-1.158-0.79-1.912-0.79c-2.469-0.009-4.938-0.018-7.397-0.027
		C42.597,127.27,43.01,126.911,43.71,126.803z"/>
	<path style="fill:#36ABEA;" d="M48.899,123.006c-0.144-0.835-0.18-1.679,0.009-2.514c2.056,0.009,4.112,0.009,6.167,0.018
		c0,0.619,0.009,1.248,0.009,1.867c-0.44,0.494-0.97,0.682-1.652,0.664C51.924,122.979,50.416,123.015,48.899,123.006z"/>
	<path style="fill:#51C4F2;" d="M45.577,107.547c1.077-0.61,2.146-1.212,3.223-1.822c2.047,1.068,4.174,0.521,6.284,0.296
		c0,0.628-0.009,1.257-0.009,1.885C51.906,107.807,48.719,108.166,45.577,107.547z"/>
	<path style="fill:#5ECAF6;" d="M51.592,110.752c-0.332-0.745-0.996-0.646-1.616-0.646c-2.46,0-4.92-0.009-7.379-0.009
		c0-0.108-0.009-0.224-0.009-0.332c0.063-0.099,0.135-0.198,0.206-0.296c0.682-0.027,1.122-0.664,1.876-0.646
		c2.343,0.072,4.686-0.009,7.029,0.054c0.664,0.018,1.499-0.009,1.769,0.907C52.939,110.285,52.283,110.563,51.592,110.752z"/>
	<path style="fill:#58C7F4;" d="M53.468,109.782c-0.269-0.916-1.104-0.889-1.769-0.907c-2.343-0.063-4.686,0.018-7.029-0.054
		c-0.754-0.018-1.194,0.619-1.876,0.646c0-0.171-0.009-0.341-0.009-0.503c0.88-0.575,1.787-1.095,2.792-1.418
		c3.151,0.619,6.329,0.26,9.498,0.359c0.036,0.099,0.045,0.198,0.009,0.296c-0.386,0.206-0.341,0.584-0.359,0.925
		C54.393,109.522,53.971,109.719,53.468,109.782z"/>
	<path style="fill:#2087E4;" d="M48.935,119.217c0.476-1.149,1.742-1.185,2.594-1.795c0.422-0.296,0.907-0.53,1.383-0.718
		c0.709-0.269,1.472-1.239,2.047-0.763c0.539,0.449,0.278,1.553,0.063,2.37c-0.413,0.206-0.278,0.593-0.305,0.934
		C52.786,119.235,50.856,119.226,48.935,119.217z"/>
	<path style="fill:#49BAEE;" d="M48.899,123.006c1.508,0.009,3.025-0.018,4.534,0.036c0.682,0.027,1.212-0.17,1.652-0.664
		c0.269,0.745,0.26,1.481-0.009,2.226c-1.67,0.521-3.384,0.269-5.072,0.287c-0.53,0.009-0.996-0.233-1.311-0.7
		C48.764,123.796,48.836,123.401,48.899,123.006z"/>
	<path style="fill:#2087E4;" d="M36.33,102.537c-0.413-1.365-0.009-2.253,1.374-2.819c1.302-0.53,2.505-1.293,3.771-1.921
		c0.314-0.153,0.736-0.691,1.023-0.054c0.206,0.44,0.063,0.916-0.458,1.185c-1.068,0.548-2.083,1.221-3.205,1.652
		c-0.988,0.377-1.4,0.96-1.374,1.957C37.084,102.537,36.707,102.537,36.33,102.537z"/>
	<path style="fill:#2087E4;" d="M48.935,100.957c0.233-0.996,1.284-0.916,1.894-1.409c0.44-0.35,0.988-0.575,1.517-0.799
		c0.889-0.377,1.957-1.517,2.577-1.041c0.682,0.521,0.242,1.939,0.144,2.963C53.028,100.912,50.937,100.095,48.935,100.957z"/>
	<path style="fill:#2596E6;" d="M48.935,100.957c2.011-0.862,4.094-0.045,6.132-0.296c0,0.53,0.009,1.05,0.009,1.58
		c-2.056-0.009-4.112-0.009-6.167-0.018C48.791,101.801,48.746,101.37,48.935,100.957z"/>
	<path style="fill:#85D9FD;" d="M42.579,112.287c1.077,0.009,2.155,0.027,3.232,0.027c0.593,0,1.14,0.054,1.383,0.709
		c-1.023,0.88-2.244,1.374-3.483,1.822c-0.054-0.781-0.664-0.601-1.14-0.655C42.462,113.552,42.408,112.915,42.579,112.287z"/>
	<path style="fill:#85D9FD;" d="M42.579,130.556c1.14,0.009,2.289,0.027,3.429,0.027c0.584,0,1.167-0.036,1.472,0.61
		c-1.14,0.359-1.939,1.374-3.142,1.607c-0.503-0.584-1.185-0.224-1.778-0.341C42.462,131.821,42.408,131.184,42.579,130.556z"/>
	<path style="fill:#2596E6;" d="M48.935,119.217c1.93,0.009,3.851,0.018,5.781,0.027l0.027,0.027
		c0.108,0.099,0.215,0.197,0.323,0.296c0,0.314,0.009,0.628,0.009,0.952c-2.056-0.009-4.112-0.009-6.167-0.018
		C48.791,120.07,48.746,119.639,48.935,119.217z"/>
	<path style="fill:#49BAEE;" d="M55.084,106.02c-2.11,0.224-4.237,0.772-6.284-0.296c0.036-0.224,0.081-0.449,0.117-0.673
		c2.056,0.009,4.121,0.18,6.159-0.287C55.075,105.177,55.084,105.598,55.084,106.02z"/>
	<path style="fill:#49BAEE;" d="M36.294,112.61c-0.135-1.365-0.198-2.729,0.018-4.094c0.395,0,0.781,0,1.176,0
		c0.269,1.356,0.224,2.72,0.009,4.076C37.102,112.601,36.698,112.61,36.294,112.61z"/>
	<path style="fill:#6ACFFA;" d="M37.506,116.398c0.287,1.347,0.18,2.702,0.054,4.058c-0.422,0-0.853,0.009-1.284,0.009
		c-0.09-1.356-0.189-2.711,0.036-4.067C36.707,116.398,37.102,116.398,37.506,116.398z"/>
	<path style="fill:#58C7F4;" d="M37.506,116.398c-0.395,0-0.799,0-1.194,0c-0.171-1.257-0.189-2.523-0.018-3.788
		c0.404,0,0.799-0.009,1.203-0.009C37.758,113.867,37.731,115.132,37.506,116.398z"/>
	<path style="fill:#36ABEA;" d="M37.488,108.525c-0.395,0-0.781,0-1.176,0c-0.162-1.158-0.189-2.307,0-3.465
		c0.386,0,0.772,0,1.158,0C37.758,106.209,37.686,107.367,37.488,108.525z"/>
	<path style="fill:#94D7F8;" d="M36.268,120.465c0.431,0,0.853-0.009,1.284-0.009c0.26,0.754,0.126,1.535,0.117,2.307
		c-0.009,0.709-0.566,1.059-1.131,1.041c-0.566-0.018-0.35-0.646-0.35-1.014C36.178,122.009,36.241,121.237,36.268,120.465z"/>
	<path style="fill:#2596E6;" d="M37.48,105.06c-0.386,0-0.772,0-1.158,0c-0.135-0.844-0.18-1.679,0.018-2.523
		c0.377,0,0.754,0,1.131,0C37.749,103.381,37.659,104.216,37.48,105.06z"/>
	<path style="fill:#94D7F8;" d="M42.57,132.459c0.593,0.117,1.275-0.242,1.778,0.341c-0.458,0.431-1.005,0.871-1.607,0.736
		C42.264,133.428,42.516,132.845,42.57,132.459z"/>
	<path style="fill:#94D7F8;" d="M42.57,114.19c0.476,0.054,1.086-0.126,1.14,0.655c-0.278,0.305-0.628,0.637-1.005,0.431
		C42.291,115.052,42.498,114.567,42.57,114.19z"/>
	<path style="fill:#49BAEE;" d="M54.716,119.244c0.027-0.332-0.108-0.727,0.305-0.934c0.386,0.305,0.368,0.61,0,0.925
		c-0.09,0.027-0.18,0.036-0.278,0.027L54.716,119.244z"/>
	<path style="fill:#5ECAF6;" d="M54.725,109.136c0.018-0.35-0.027-0.718,0.359-0.925C55.389,108.678,55.201,108.965,54.725,109.136z
		"/>
	<path style="fill:#6ACFFA;" d="M42.785,108.965c0,0.171,0.009,0.341,0.009,0.503c-0.063,0.099-0.135,0.197-0.198,0.296
		C42.471,109.459,42.39,109.154,42.785,108.965z"/>
	<path style="fill:#2087E4;" d="M54.743,119.271c0.09,0.009,0.189-0.009,0.278-0.027c0.018,0.108,0.036,0.215,0.045,0.323
		C54.959,119.46,54.851,119.361,54.743,119.271z"/>
</g>
</svg>
