<?xml version="1.0" encoding="iso-8859-1"?>
<!-- Generator: Adobe Illustrator 21.1.0, SVG Export Plug-In . SVG Version: 6.00 Build 0)  -->
<svg version="1.1" id="Layer_1" xmlns="http://www.w3.org/2000/svg" xmlns:xlink="http://www.w3.org/1999/xlink" x="0px" y="0px"
	 viewBox="0 0 231 231" style="enable-background:new 0 0 231 231;" xml:space="preserve">
<g>
	<path style="fill:#333333;" d="M75.177,132.798c2.394,0,4.335-0.949,5.845-2.825l3.106,3.214c-2.48,2.782-5.371,4.163-8.735,4.163
		c-3.343,0-6.104-1.057-8.282-3.171c-2.178-2.114-3.257-4.788-3.257-8.002c0-3.214,1.1-5.91,3.322-8.067
		c2.2-2.157,4.918-3.235,8.11-3.235c3.559,0,6.557,1.359,8.951,4.076l-3.02,3.429c-1.531-1.898-3.451-2.869-5.716-2.869
		c-1.833,0-3.386,0.604-4.68,1.79c-1.294,1.186-1.941,2.804-1.941,4.81c0,2.006,0.604,3.645,1.833,4.875
		C71.942,132.173,73.43,132.798,75.177,132.798"/>
	<path style="fill:#333333;" d="M111.823,122.553c0,3.494-1.38,5.737-4.141,6.751l5.5,7.786h-5.975l-4.831-6.945h-3.343v6.945
		h-4.853v-21.763h8.239c3.386,0,5.78,0.582,7.225,1.704C111.089,118.196,111.823,120.029,111.823,122.553 M105.977,125.141
		c0.604-0.539,0.906-1.402,0.906-2.567s-0.302-1.984-0.927-2.416s-1.704-0.647-3.257-0.647h-3.667v6.449h3.537
		C104.23,125.939,105.374,125.68,105.977,125.141"/>
	<polygon style="fill:#333333;" points="138.697,115.327 138.697,119.663 127.87,119.663 127.87,124.149 137.597,124.149 
		137.597,128.269 127.87,128.269 127.87,132.798 139.042,132.798 139.042,137.09 123.017,137.09 123.017,115.327 	"/>
	<polygon style="fill:#333333;" points="157.613,129.175 163.156,115.327 168.397,115.327 159.662,137.09 155.564,137.09 
		146.807,115.327 152.07,115.327 	"/>
	<path style="fill:#333333;" d="M38.877,156.869c0.431,0,0.776-0.065,1.078-0.216c0.302-0.151,0.625-0.367,0.949-0.669l0.798,0.798
		c-0.776,0.841-1.704,1.273-2.804,1.273s-2.006-0.345-2.718-1.057c-0.733-0.712-1.078-1.596-1.078-2.674s0.367-1.984,1.1-2.696
		c0.733-0.712,1.661-1.078,2.782-1.078c1.122,0,2.071,0.41,2.825,1.251l-0.776,0.841c-0.345-0.324-0.669-0.561-0.971-0.69
		s-0.669-0.194-1.078-0.194c-0.733,0-1.359,0.237-1.855,0.712c-0.496,0.475-0.755,1.078-0.755,1.812
		c0,0.733,0.237,1.359,0.733,1.855C37.626,156.631,38.209,156.869,38.877,156.869"/>
	<path style="fill:#333333;" d="M49.64,156.976c-0.733,0.712-1.639,1.078-2.718,1.078s-1.984-0.345-2.718-1.078
		c-0.733-0.712-1.1-1.618-1.1-2.675c0-1.057,0.367-1.963,1.1-2.674c0.733-0.712,1.639-1.078,2.718-1.078s1.984,0.367,2.718,1.078
		s1.1,1.618,1.1,2.674C50.74,155.38,50.374,156.265,49.64,156.976 M48.734,152.447c-0.496-0.518-1.1-0.755-1.812-0.755
		c-0.712,0-1.316,0.259-1.812,0.755c-0.496,0.518-0.733,1.122-0.733,1.855c0,0.733,0.237,1.359,0.733,1.855
		c0.496,0.518,1.1,0.776,1.812,0.776c0.712,0,1.337-0.259,1.812-0.776c0.496-0.518,0.733-1.122,0.733-1.855
		C49.468,153.569,49.23,152.965,48.734,152.447"/>
	<polygon style="fill:#333333;" points="58.225,150.743 59.454,150.743 59.454,157.99 58.117,157.99 54.019,152.684 54.019,157.99 
		52.789,157.99 52.789,150.743 54.019,150.743 58.225,156.157 	"/>
	<polygon style="fill:#333333;" points="64.717,151.865 64.717,157.99 63.487,157.99 63.487,151.865 61.309,151.865 61.309,150.743 
		66.917,150.743 66.917,151.865 	"/>
	<rect x="68.772" y="150.743" style="fill:#333333;" width="1.229" height="7.247"/>
	<polygon style="fill:#333333;" points="77.96,150.743 79.168,150.743 79.168,157.99 77.852,157.99 73.732,152.684 73.732,157.99 
		72.525,157.99 72.525,150.743 73.732,150.743 77.96,156.157 	"/>
	<polygon style="fill:#333333;" points="86.803,150.743 86.803,151.886 82.921,151.886 82.921,153.806 86.415,153.806 
		86.415,154.884 82.921,154.884 82.921,156.825 86.932,156.825 86.932,157.99 81.713,157.99 81.713,150.743 	"/>
	<polygon style="fill:#333333;" points="94.438,150.743 95.668,150.743 95.668,157.99 94.33,157.99 90.232,152.684 90.232,157.99 
		89.003,157.99 89.003,150.743 90.232,150.743 94.438,156.157 	"/>
	<polygon style="fill:#333333;" points="100.93,151.865 100.93,157.99 99.701,157.99 99.701,151.865 97.501,151.865 97.501,150.743 
		103.13,150.743 103.13,151.865 	"/>
	<path style="fill:#333333;" d="M105.438,156.329l-0.733,1.639h-1.316l3.192-7.247h1.316l3.192,7.269h-1.316l-0.733-1.639h-3.602
		V156.329z M108.566,155.208l-1.316-2.976l-1.316,2.976H108.566z"/>
	<polygon style="fill:#333333;" points="112.621,157.99 112.621,150.743 113.85,150.743 113.85,156.825 117.15,156.825 
		117.15,157.99 	"/>
	<path style="fill:#333333;" d="M128.15,153.094c0,1.208-0.518,1.941-1.575,2.265l1.898,2.631h-1.553l-1.725-2.437h-1.596v2.437
		h-1.229v-7.247h2.696c1.1,0,1.898,0.194,2.373,0.561C127.913,151.671,128.15,152.275,128.15,153.094 M126.532,154.108
		c0.259-0.216,0.367-0.561,0.367-1.035c0-0.475-0.129-0.798-0.388-0.971c-0.259-0.173-0.712-0.259-1.359-0.259h-1.553v2.588h1.531
		C125.799,154.431,126.274,154.324,126.532,154.108"/>
	<polygon style="fill:#333333;" points="135.526,150.743 135.526,151.886 131.666,151.886 131.666,153.806 135.138,153.806 
		135.138,154.884 131.666,154.884 131.666,156.825 135.656,156.825 135.656,157.99 130.436,157.99 130.436,150.743 	"/>
	<path style="fill:#333333;" d="M138.762,156.329l-0.733,1.639h-1.316l3.192-7.247h1.316l3.192,7.247h-1.316l-0.733-1.639
		L138.762,156.329L138.762,156.329z M141.889,155.208l-1.316-2.976l-1.316,2.976H141.889z"/>
	<polygon style="fill:#333333;" points="145.944,157.99 145.944,150.743 147.174,150.743 147.174,156.825 150.474,156.825 
		150.474,157.99 	"/>
	<polygon style="fill:#333333;" points="160.783,150.743 160.783,151.886 156.923,151.886 156.923,153.806 160.395,153.806 
		160.395,154.884 156.923,154.884 156.923,156.825 160.913,156.825 160.913,157.99 155.693,157.99 155.693,150.743 	"/>
	<path style="fill:#333333;" d="M165.183,151.692c-0.345,0-0.647,0.065-0.884,0.216c-0.237,0.151-0.345,0.367-0.345,0.669
		c0,0.302,0.108,0.518,0.345,0.669c0.237,0.151,0.712,0.324,1.467,0.496c0.733,0.173,1.294,0.431,1.682,0.755
		c0.367,0.324,0.561,0.798,0.561,1.445c0,0.625-0.237,1.143-0.712,1.531c-0.475,0.388-1.1,0.582-1.876,0.582
		c-1.143,0-2.135-0.388-3.02-1.165l0.776-0.927c0.733,0.647,1.488,0.949,2.286,0.949c0.388,0,0.712-0.086,0.927-0.259
		c0.237-0.173,0.345-0.388,0.345-0.669s-0.108-0.496-0.324-0.647c-0.216-0.151-0.582-0.302-1.122-0.431s-0.927-0.237-1.208-0.345
		c-0.28-0.108-0.518-0.237-0.733-0.431c-0.431-0.324-0.647-0.82-0.647-1.488s0.237-1.186,0.733-1.553s1.078-0.539,1.812-0.539
		c0.453,0,0.927,0.086,1.38,0.216c0.453,0.151,0.841,0.367,1.186,0.647l-0.647,0.927c-0.216-0.194-0.496-0.345-0.863-0.475
		C165.895,151.757,165.55,151.692,165.183,151.692"/>
	<polygon style="fill:#333333;" points="172.775,151.865 172.775,157.99 171.568,157.99 171.568,151.865 169.368,151.865 
		169.368,150.743 174.975,150.743 174.975,151.865 	"/>
	<path style="fill:#333333;" d="M177.283,156.329l-0.733,1.639h-1.316l3.192-7.247h1.316l3.192,7.247h-1.316l-0.733-1.639
		L177.283,156.329L177.283,156.329z M180.411,155.208l-1.316-2.976l-1.316,2.976H180.411z"/>
	<polygon style="fill:#333333;" points="186.644,151.865 186.644,157.99 185.415,157.99 185.415,151.865 183.215,151.865 
		183.215,150.743 188.823,150.743 188.823,151.865 	"/>
	<polygon style="fill:#333333;" points="195.768,150.743 195.768,151.886 191.907,151.886 191.907,153.806 195.379,153.806 
		195.379,154.884 191.907,154.884 191.907,156.825 195.897,156.825 195.897,157.99 190.677,157.99 190.677,150.743 	"/>
	<polygon style="fill:#333333;" points="88.421,170.435 87.04,170.435 84.128,163.167 85.509,163.167 87.73,168.602 89.974,163.167 
		91.332,163.167 	"/>
	<path style="fill:#333333;" d="M93.511,168.775l-0.733,1.639h-1.316l3.192-7.247h1.316l3.192,7.247h-1.294l-0.733-1.639H93.511z
		 M96.638,167.653l-1.316-2.976l-1.316,2.976H96.638z"/>
	<polygon style="fill:#333333;" points="100.693,170.435 100.693,163.167 101.901,163.167 101.901,169.271 105.223,169.271 
		105.223,170.435 	"/>
	<path style="fill:#333333;" d="M108.523,168.775c0.324,0.388,0.776,0.582,1.337,0.582s1.014-0.194,1.359-0.582
		c0.324-0.388,0.496-0.906,0.496-1.575v-4.012h1.229v4.055c0,1.035-0.28,1.855-0.863,2.416c-0.582,0.561-1.316,0.841-2.2,0.841
		c-0.906,0-1.639-0.28-2.2-0.841c-0.582-0.561-0.863-1.359-0.863-2.416v-4.055h1.229v4.012
		C108.026,167.847,108.199,168.386,108.523,168.775"/>
	<path style="fill:#333333;" d="M116.223,168.775l-0.733,1.639h-1.316l3.192-7.247h1.316l3.192,7.247h-1.316l-0.733-1.639H116.223z
		 M119.372,167.653l-1.316-2.976l-1.316,2.976H119.372z"/>
	<polygon style="fill:#333333;" points="125.583,164.288 125.583,170.435 124.354,170.435 124.354,164.288 122.154,164.288 
		122.154,163.167 127.783,163.167 127.783,164.288 	"/>
	<rect x="129.638" y="163.167" style="fill:#333333;" width="1.229" height="7.247"/>
	<path style="fill:#333333;" d="M139.452,169.422c-0.733,0.712-1.639,1.078-2.718,1.078s-1.984-0.345-2.718-1.078
		c-0.733-0.712-1.1-1.618-1.1-2.675c0-1.057,0.367-1.963,1.1-2.674s1.639-1.078,2.718-1.078s1.984,0.367,2.718,1.078
		c0.733,0.712,1.1,1.618,1.1,2.674C140.552,167.825,140.185,168.71,139.452,169.422 M138.546,164.892
		c-0.496-0.518-1.1-0.755-1.812-0.755s-1.316,0.259-1.812,0.755c-0.496,0.518-0.733,1.122-0.733,1.855
		c0,0.733,0.237,1.359,0.733,1.855c0.496,0.518,1.1,0.776,1.812,0.776s1.337-0.259,1.812-0.776c0.496-0.518,0.733-1.122,0.733-1.855
		C139.279,166.014,139.042,165.41,138.546,164.892"/>
	<polygon style="fill:#333333;" points="148.036,163.167 149.266,163.167 149.266,170.435 147.95,170.435 143.83,165.129 
		143.83,170.435 142.623,170.435 142.623,163.167 143.83,163.167 148.036,168.602 	"/>
	<polygon style="fill:#BE1E2D;" points="151.789,80.602 151.272,80.3 148.015,78.424 148.015,78.424 144.197,76.224 139.754,73.678 
		135.936,71.478 131.493,68.912 119.415,61.945 117.797,61.018 116.934,60.522 116.913,60.5 111.154,63.822 109.083,65.008 
		93.726,73.894 90.189,75.943 86.372,78.143 83.374,79.869 82.101,80.602 81.928,80.71 81.928,104.565 86.372,104.565 86.372,82.91 
		90.189,80.71 90.189,82.327 94.632,82.327 94.632,78.143 98.45,75.943 98.45,104.565 102.893,104.565 102.893,73.376 
		106.711,71.176 106.711,82.327 111.154,82.327 111.154,68.61 114.972,66.41 114.972,104.565 119.415,104.565 119.415,66.69 
		123.232,68.89 123.232,104.565 127.675,104.565 127.675,71.457 131.493,73.678 131.493,96.369 135.936,96.369 135.936,76.245 
		139.754,78.445 139.754,104.565 144.197,104.565 144.197,81.012 148.015,83.212 148.015,104.565 152.458,104.565 152.458,80.99 	
		"/>
	<rect x="90.189" y="90.739" style="fill:#BE202E;" width="4.4" height="13.804"/>
	<rect x="106.711" y="90.782" style="fill:#BE202E;" width="4.4" height="13.804"/>
</g>
</svg>
