<?xml version="1.0" encoding="iso-8859-1"?>
<!-- Generator: Adobe Illustrator 21.1.0, SVG Export Plug-In . SVG Version: 6.00 Build 0)  -->
<svg version="1.1" id="Layer_1" xmlns="http://www.w3.org/2000/svg" xmlns:xlink="http://www.w3.org/1999/xlink" x="0px" y="0px"
	 viewBox="0 0 231 231" style="enable-background:new 0 0 231 231;" xml:space="preserve">
<g>
	<g>
		<path style="fill:#06CA77;" d="M39.706,96.917c0.121,0.249,0.388,0.3,0.596,0.421c4.956,2.864,9.909,5.728,14.876,8.574
			c0.402,0.23,0.56,0.476,0.56,0.951c-0.018,5.82-0.018,11.639,0,17.459c0,0.457-0.161,0.68-0.538,0.896
			c-5.004,2.868-10.004,5.747-14.99,8.647c-0.494,0.285-0.845,0.304-1.346,0.011c-4.964-2.89-9.946-5.754-14.928-8.622
			c-0.183-0.106-0.34-0.318-0.604-0.234c0-6.277,0-12.554,0-18.831c0.102-0.044,0.212-0.077,0.307-0.132
			c5.11-2.941,10.22-5.893,15.33-8.845c0.128-0.073,0.318-0.092,0.322-0.3C39.431,96.917,39.567,96.917,39.706,96.917z
			 M43.393,126.158c2.403-1.386,4.7-2.711,7.005-4.027c0.285-0.161,0.241-0.402,0.241-0.647c0-3.936-0.007-7.868,0.011-11.804
			c0-0.399-0.139-0.6-0.476-0.79c-2.923-1.668-5.831-3.362-8.75-5.03c-0.644-0.369-1.258-1.064-1.957-0.988
			c-0.684,0.077-1.31,0.677-1.964,1.046c-0.058,0.033-0.117,0.073-0.176,0.106c-0.157,0.084-0.223,0.208-0.219,0.388
			c0.007,0.439,0.004,0.878,0.004,1.408c0.739-0.424,1.375-0.768,1.99-1.149c0.278-0.172,0.494-0.208,0.797-0.033
			c2.967,1.727,5.94,3.438,8.914,5.143c0.263,0.15,0.391,0.318,0.391,0.64c-0.011,3.435-0.007,6.869-0.007,10.3
			c0,0.208,0.007,0.406-0.216,0.53c-0.388,0.216-0.768,0.443-1.244,0.717c0-0.355,0-0.578,0-0.801c0-3.208-0.011-6.412,0.011-9.62
			c0.004-0.512-0.124-0.812-0.593-1.072c-1.928-1.068-3.907-2.07-5.71-3.325c-1.434-0.999-2.623-1.042-3.899,0.084
			c-0.051,0.044-0.117,0.073-0.176,0.102c-0.179,0.088-0.271,0.212-0.263,0.428c0.015,0.421,0.004,0.845,0.004,1.386
			c0.702-0.399,1.321-0.721,1.906-1.094c0.348-0.223,0.618-0.238,0.984-0.022c1.917,1.13,3.848,2.242,5.787,3.336
			c0.362,0.205,0.494,0.435,0.494,0.856c-0.018,3.16-0.011,6.321-0.011,9.485c0,1.28-0.033,1.324-1.412,1.811
			c0-0.263,0-0.505,0-0.743c0-3.23-0.007-6.46,0.011-9.69c0.004-0.417-0.117-0.662-0.483-0.863
			c-0.999-0.545-1.968-1.134-2.963-1.686c-0.651-0.358-1.269-1.053-1.961-0.984c-0.68,0.069-1.302,0.688-1.961,1.042
			c-0.296,0.161-0.406,0.358-0.399,0.699c0.022,1.138,0.004,2.275,0.011,3.413c0.004,0.746-0.22,1.646,0.117,2.198
			c0.355,0.582,1.258,0.827,1.913,1.233c0.256,0.157,0.476,0.23,0.739,0.022c0.538-0.432,0.677-0.194,0.615,0.373
			c-0.015,0.135,0,0.274-0.004,0.41c-0.011,0.772-0.764,1.189-1.445,0.801c-0.966-0.552-1.917-1.134-2.897-1.657
			c-0.402-0.216-0.516-0.472-0.512-0.914c0.018-3.775,0.011-7.55,0.007-11.325c0-0.241,0.066-0.494-0.062-0.724
			c-0.216-0.048-0.348,0.102-0.498,0.19c-2.048,1.178-4.089,2.37-6.149,3.526c-0.413,0.234-0.549,0.494-0.545,0.962
			c0.018,3.844,0.022,7.685,0,11.529c-0.004,0.472,0.146,0.728,0.552,0.958c3.04,1.73,6.105,3.427,9.079,5.267
			c1.119,0.691,1.92,0.702,3.032,0.004c0.801-0.501,0.925-1.032,0.878-1.811c-0.022-0.377-0.154-0.355-0.413-0.201
			c-0.545,0.325-1.105,0.629-1.646,0.966c-0.241,0.15-0.432,0.154-0.684,0.007c-2.985-1.734-5.977-3.46-8.973-5.179
			c-0.241-0.139-0.355-0.289-0.355-0.585c0.011-3.457,0.007-6.913,0.004-10.37c0-0.208,0-0.399,0.227-0.519
			c0.391-0.208,0.768-0.435,1.233-0.706c0,0.355,0,0.578,0,0.801c0,3.252,0.011,6.504-0.011,9.755
			c-0.004,0.45,0.139,0.691,0.527,0.907c1.939,1.09,3.947,2.096,5.768,3.361c1.401,0.973,2.564,1.064,3.83-0.047
			c0.066-0.059,0.154-0.099,0.234-0.139c0.187-0.092,0.256-0.238,0.252-0.439c-0.007-0.424-0.004-0.849-0.004-1.375
			c-0.735,0.421-1.39,0.776-2.023,1.163c-0.267,0.161-0.468,0.168-0.742,0.007c-2.001-1.167-4.009-2.323-6.021-3.475
			c-0.267-0.154-0.38-0.326-0.38-0.644c0.011-3.435,0.007-6.869,0.007-10.3c0-0.205-0.015-0.406,0.212-0.53
			c0.388-0.212,0.768-0.443,1.24-0.713c0,0.348,0,0.571,0,0.79c0,3.252,0.011,6.504-0.011,9.755
			c-0.004,0.446,0.132,0.691,0.527,0.904c0.98,0.527,2.019,0.999,2.879,1.683c1.379,1.101,2.597,1.028,3.899-0.062
			c0.267-0.227,0.432-0.391,0.428-0.757c-0.018-1.456-0.077-2.915,0.015-4.364c0.062-0.973-0.208-1.566-1.127-1.935
			c-0.717-0.289-1.321-1.101-2.162-0.201c-0.146-0.446-0.084-0.808-0.084-1.163c0-0.706,0.739-1.141,1.342-0.797
			c0.969,0.549,1.92,1.13,2.904,1.65c0.443,0.234,0.578,0.516,0.574,1.013C43.382,118.019,43.393,122.021,43.393,126.158z
			 M41.86,128.711c-0.658,0.38-1.277,0.713-1.869,1.086c-0.326,0.205-0.582,0.201-0.922,0.004c-3.848-2.239-7.703-4.463-11.57-6.672
			c-0.384-0.22-0.523-0.457-0.523-0.907c0.018-4.411,0.022-8.819,0-13.23c-0.004-0.497,0.143-0.768,0.578-1.013
			c2.531-1.43,5.044-2.89,7.561-4.346c0.245-0.143,0.56-0.216,0.538-0.614c-0.022-0.421-0.004-0.841-0.004-1.302
			c-0.146,0.051-0.212,0.062-0.267,0.095c-3.168,1.825-6.332,3.658-9.51,5.465c-0.358,0.205-0.355,0.464-0.355,0.786
			c0.004,5,0.007,10.001-0.011,15.005c0,0.454,0.15,0.677,0.534,0.896c4.1,2.345,8.212,4.675,12.265,7.1
			c0.929,0.556,1.562,0.505,2.484,0.004c0.988-0.538,1.335-1.171,1.119-2.206C41.908,128.839,41.897,128.817,41.86,128.711z
			 M37.211,102.422c0.596-0.344,1.196-0.655,1.759-1.024c0.391-0.26,0.695-0.245,1.105-0.007c3.826,2.231,7.663,4.444,11.511,6.639
			c0.395,0.227,0.512,0.476,0.512,0.914c-0.015,4.411-0.018,8.823,0.004,13.234c0.004,0.472-0.15,0.724-0.556,0.955
			c-2.568,1.456-5.125,2.941-7.678,4.422c-0.201,0.117-0.486,0.168-0.479,0.505c0.011,0.439,0.004,0.882,0.004,1.39
			c0.183-0.08,0.263-0.11,0.34-0.154c3.131-1.8,6.259-3.61,9.397-5.395c0.377-0.216,0.395-0.49,0.395-0.845
			c-0.004-4.978-0.011-9.96,0.007-14.939c0-0.464-0.132-0.724-0.545-0.962c-4.082-2.334-8.172-4.656-12.21-7.063
			c-0.914-0.545-1.558-0.563-2.491-0.022C37.321,100.637,36.849,101.226,37.211,102.422z"/>
		<path style="fill:#09CB79;" d="M40.5,115.568c0,0.479-0.534,1.075-0.969,1.083c-0.435,0.004-0.929-0.582-0.929-1.101
			c0.004-0.494,0.468-1.028,0.911-1.035C39.962,114.5,40.5,115.074,40.5,115.568z"/>
	</g>
	<g>
		<path style="fill:#282449;" d="M76.376,121.483c0.15,0,0.282,0.062,0.395,0.186l1.086,1.196c-0.83,0.98-1.833,1.741-3.014,2.29
			c-1.182,0.549-2.612,0.819-4.287,0.819c-1.449,0-2.769-0.256-3.954-0.772c-1.185-0.512-2.198-1.233-3.036-2.162
			c-0.838-0.925-1.489-2.037-1.95-3.332c-0.461-1.295-0.691-2.721-0.691-4.276c0-1.555,0.241-2.981,0.721-4.276
			c0.479-1.295,1.156-2.411,2.027-3.34c0.87-0.933,1.913-1.653,3.127-2.169c1.214-0.512,2.557-0.772,4.027-0.772
			c1.441,0,2.711,0.234,3.815,0.706c1.101,0.472,2.07,1.108,2.912,1.917l-0.904,1.28c-0.055,0.095-0.128,0.176-0.219,0.238
			c-0.092,0.062-0.208,0.095-0.358,0.095c-0.168,0-0.377-0.095-0.622-0.282c-0.245-0.186-0.563-0.395-0.962-0.625
			c-0.395-0.23-0.889-0.439-1.481-0.626c-0.593-0.186-1.324-0.282-2.191-0.282c-1.046,0-2.001,0.187-2.868,0.556
			c-0.867,0.369-1.613,0.903-2.239,1.606c-0.625,0.702-1.112,1.555-1.463,2.564c-0.347,1.01-0.523,2.147-0.523,3.413
			c0,1.288,0.183,2.433,0.545,3.442c0.362,1.01,0.856,1.862,1.481,2.557c0.626,0.695,1.364,1.225,2.217,1.591
			c0.852,0.366,1.774,0.549,2.762,0.549c0.604,0,1.145-0.037,1.631-0.11c0.486-0.073,0.933-0.187,1.342-0.34
			c0.41-0.154,0.79-0.347,1.145-0.582c0.355-0.234,0.702-0.516,1.053-0.841C76.057,121.552,76.215,121.483,76.376,121.483z"/>
		<path style="fill:#282449;" d="M82.748,114.079c0.454-0.999,1.006-1.778,1.668-2.341c0.658-0.563,1.463-0.841,2.414-0.841
			c0.3,0,0.592,0.033,0.871,0.102c0.278,0.066,0.523,0.172,0.742,0.318l-0.183,1.917c-0.055,0.241-0.198,0.358-0.424,0.358
			c-0.132,0-0.326-0.029-0.578-0.088c-0.256-0.058-0.541-0.088-0.863-0.088c-0.454,0-0.856,0.066-1.207,0.201
			c-0.355,0.135-0.669,0.333-0.947,0.596c-0.278,0.263-0.527,0.589-0.75,0.98c-0.223,0.388-0.421,0.834-0.6,1.331v9.218h-2.528
			v-14.588h1.441c0.274,0,0.461,0.051,0.563,0.157c0.102,0.106,0.176,0.289,0.212,0.549L82.748,114.079z"/>
		<path style="fill:#282449;" d="M102.99,111.157l-7.981,18.893c-0.084,0.19-0.19,0.344-0.318,0.461
			c-0.128,0.117-0.322,0.172-0.585,0.172H92.24l2.612-5.79l-5.904-13.739h2.176c0.216,0,0.388,0.055,0.516,0.164
			c0.128,0.11,0.216,0.234,0.26,0.366l3.83,9.189c0.15,0.402,0.278,0.827,0.38,1.266c0.132-0.45,0.274-0.878,0.424-1.28l3.716-9.174
			c0.055-0.154,0.154-0.282,0.289-0.38c0.135-0.102,0.289-0.15,0.461-0.15h1.99L102.99,111.157L102.99,111.157z"/>
		<path style="fill:#282449;" d="M107.606,113.417c0.604-0.757,1.299-1.368,2.092-1.829c0.79-0.461,1.694-0.691,2.71-0.691
			c0.83,0,1.577,0.161,2.246,0.483c0.669,0.322,1.24,0.797,1.708,1.427c0.472,0.629,0.834,1.408,1.086,2.341
			c0.256,0.933,0.38,2.001,0.38,3.212c0,1.075-0.143,2.078-0.424,3.003c-0.282,0.925-0.691,1.727-1.222,2.403
			c-0.53,0.677-1.182,1.211-1.95,1.598c-0.768,0.388-1.631,0.582-2.593,0.582c-0.874,0-1.628-0.15-2.253-0.454
			c-0.626-0.304-1.178-0.721-1.661-1.258v6.452h-2.528v-19.529h1.511c0.358,0,0.578,0.179,0.666,0.534L107.606,113.417z
			 M107.734,122.229c0.461,0.633,0.966,1.079,1.511,1.339c0.545,0.26,1.16,0.388,1.836,0.388c1.339,0,2.363-0.486,3.08-1.456
			c0.717-0.969,1.072-2.352,1.072-4.148c0-0.951-0.084-1.767-0.249-2.447c-0.164-0.68-0.402-1.24-0.713-1.679
			c-0.311-0.435-0.691-0.757-1.145-0.958c-0.454-0.201-0.966-0.304-1.54-0.304c-0.819,0-1.536,0.194-2.155,0.574
			c-0.618,0.384-1.185,0.925-1.701,1.628v7.063L107.734,122.229L107.734,122.229z"/>
		<path style="fill:#282449;" d="M125.252,125.975c-1.13,0-1.997-0.322-2.604-0.966c-0.607-0.644-0.911-1.569-0.911-2.78V113.3
			h-1.723c-0.15,0-0.278-0.044-0.38-0.135c-0.102-0.092-0.154-0.234-0.154-0.424v-1.024l2.345-0.304l0.578-4.506
			c0.029-0.143,0.092-0.26,0.19-0.351c0.099-0.092,0.227-0.135,0.388-0.135h1.273v5.026h4.137v1.858h-4.141v8.757
			c0,0.614,0.146,1.072,0.439,1.368c0.293,0.296,0.669,0.446,1.13,0.446c0.263,0,0.49-0.037,0.684-0.11
			c0.194-0.073,0.358-0.15,0.501-0.238c0.143-0.088,0.26-0.165,0.358-0.238c0.099-0.073,0.186-0.11,0.26-0.11
			c0.132,0,0.249,0.08,0.355,0.245l0.735,1.225c-0.432,0.413-0.955,0.735-1.569,0.973
			C126.532,125.858,125.899,125.975,125.252,125.975z"/>
		<path style="fill:#282449;" d="M136.946,110.926c1.046,0,1.986,0.179,2.824,0.534c0.838,0.355,1.555,0.86,2.147,1.511
			c0.593,0.655,1.046,1.441,1.364,2.37c0.315,0.925,0.472,1.961,0.472,3.102c0,1.152-0.157,2.187-0.472,3.109
			c-0.314,0.922-0.768,1.708-1.364,2.363c-0.592,0.655-1.309,1.156-2.147,1.503c-0.838,0.351-1.781,0.527-2.824,0.527
			c-1.053,0-2.005-0.176-2.846-0.527c-0.841-0.351-1.562-0.852-2.155-1.503c-0.592-0.651-1.046-1.441-1.364-2.363
			c-0.315-0.922-0.472-1.957-0.472-3.109c0-1.141,0.157-2.176,0.472-3.102c0.315-0.926,0.768-1.716,1.364-2.37
			c0.592-0.651,1.31-1.156,2.155-1.511C134.945,111.102,135.892,110.926,136.946,110.926z M136.946,123.945
			c1.412,0,2.465-0.483,3.164-1.449c0.695-0.966,1.046-2.312,1.046-4.038c0-1.737-0.347-3.091-1.046-4.06
			c-0.699-0.969-1.752-1.456-3.164-1.456c-0.717,0-1.339,0.124-1.873,0.373c-0.53,0.249-0.973,0.611-1.328,1.079
			c-0.355,0.472-0.618,1.05-0.79,1.734c-0.176,0.688-0.26,1.463-0.26,2.326c0,1.727,0.351,3.076,1.053,4.038
			C134.448,123.462,135.516,123.945,136.946,123.945z"/>
		<path style="fill:#282449;" d="M158.092,108.706c-0.113,0.201-0.234,0.348-0.358,0.439c-0.128,0.091-0.285,0.135-0.472,0.135
			c-0.198,0-0.413-0.073-0.644-0.223c-0.23-0.15-0.505-0.315-0.827-0.498c-0.322-0.183-0.695-0.347-1.123-0.498
			c-0.428-0.15-0.936-0.223-1.518-0.223c-0.527,0-0.988,0.066-1.383,0.194c-0.395,0.128-0.728,0.311-0.995,0.541
			c-0.267,0.23-0.468,0.505-0.6,0.827c-0.132,0.322-0.198,0.673-0.198,1.057c0,0.49,0.135,0.896,0.402,1.225
			c0.267,0.326,0.625,0.604,1.068,0.834c0.443,0.23,0.947,0.435,1.511,0.618c0.563,0.183,1.145,0.377,1.737,0.582
			c0.592,0.205,1.174,0.446,1.737,0.721c0.563,0.274,1.068,0.618,1.511,1.035c0.443,0.417,0.797,0.929,1.068,1.533
			c0.267,0.604,0.402,1.339,0.402,2.202c0,0.94-0.157,1.822-0.472,2.641c-0.315,0.819-0.776,1.536-1.383,2.147
			c-0.607,0.611-1.35,1.09-2.224,1.441c-0.874,0.351-1.88,0.527-3.011,0.527c-0.651,0-1.291-0.066-1.92-0.194
			c-0.633-0.128-1.236-0.315-1.814-0.556c-0.578-0.241-1.123-0.527-1.631-0.863c-0.508-0.337-0.962-0.71-1.357-1.123l1.116-1.858
			c0.095-0.135,0.216-0.249,0.366-0.34c0.15-0.092,0.311-0.135,0.479-0.135c0.234,0,0.49,0.099,0.764,0.296
			c0.274,0.198,0.596,0.417,0.973,0.655c0.377,0.241,0.816,0.457,1.321,0.655c0.505,0.198,1.108,0.296,1.814,0.296
			c1.083,0,1.92-0.26,2.513-0.786c0.593-0.523,0.889-1.273,0.889-2.253c0-0.549-0.135-0.995-0.402-1.339
			c-0.267-0.344-0.625-0.636-1.068-0.87s-0.947-0.435-1.511-0.596c-0.563-0.165-1.141-0.34-1.723-0.534
			c-0.585-0.19-1.16-0.421-1.723-0.691c-0.563-0.267-1.068-0.618-1.511-1.05c-0.443-0.432-0.797-0.973-1.068-1.621
			c-0.267-0.647-0.402-1.449-0.402-2.399c0-0.757,0.15-1.496,0.446-2.217c0.296-0.721,0.728-1.357,1.291-1.917
			c0.563-0.556,1.262-1.002,2.092-1.339c0.83-0.337,1.781-0.505,2.853-0.505c1.207,0,2.315,0.194,3.332,0.574
			c1.017,0.384,1.884,0.922,2.601,1.613L158.092,108.706z"/>
		<path style="fill:#282449;" d="M168.532,110.74c1.072,0,2.052,0.179,2.93,0.534c0.882,0.355,1.635,0.86,2.261,1.511
			c0.625,0.655,1.108,1.449,1.449,2.392c0.34,0.94,0.508,1.993,0.508,3.153c0,1.171-0.168,2.228-0.508,3.168
			c-0.34,0.94-0.823,1.741-1.449,2.403c-0.626,0.662-1.379,1.171-2.261,1.525c-0.881,0.355-1.858,0.534-2.93,0.534
			c-1.083,0-2.067-0.179-2.952-0.534c-0.885-0.355-1.642-0.863-2.268-1.525c-0.626-0.662-1.112-1.463-1.456-2.403
			c-0.344-0.94-0.516-1.997-0.516-3.168c0-1.163,0.172-2.213,0.516-3.153c0.344-0.94,0.83-1.737,1.456-2.392
			c0.625-0.651,1.383-1.156,2.268-1.511C166.465,110.915,167.449,110.74,168.532,110.74z M168.532,123.224
			c1.207,0,2.096-0.413,2.677-1.24c0.578-0.827,0.871-2.034,0.871-3.628c0-1.595-0.289-2.809-0.871-3.643
			c-0.578-0.834-1.47-1.255-2.677-1.255c-1.225,0-2.133,0.421-2.718,1.258c-0.589,0.841-0.882,2.052-0.882,3.636
			c0,1.584,0.293,2.791,0.882,3.621C166.403,122.807,167.306,123.224,168.532,123.224z"/>
		<path style="fill:#282449;" d="M190.837,110.97v14.774h-2.133c-0.461,0-0.753-0.216-0.874-0.647l-0.241-1.182
			c-0.592,0.615-1.247,1.112-1.964,1.489c-0.717,0.38-1.558,0.571-2.528,0.571c-0.79,0-1.489-0.135-2.096-0.41
			c-0.607-0.274-1.119-0.658-1.533-1.16c-0.413-0.497-0.728-1.094-0.94-1.778c-0.212-0.688-0.318-1.441-0.318-2.268v-9.39h3.49
			v9.386c0,0.903,0.205,1.602,0.614,2.096c0.41,0.494,1.024,0.742,1.844,0.742c0.604,0,1.167-0.135,1.694-0.41
			c0.527-0.274,1.028-0.651,1.496-1.13V110.97L190.837,110.97L190.837,110.97z"/>
		<path style="fill:#282449;" d="M197.772,104.346V116.6h0.651c0.234,0,0.421-0.029,0.56-0.095c0.135-0.062,0.274-0.19,0.417-0.38
			l3.603-4.536c0.15-0.201,0.318-0.355,0.501-0.461c0.183-0.106,0.421-0.157,0.713-0.157h3.193l-4.506,5.487
			c-0.322,0.432-0.669,0.764-1.046,0.995c0.198,0.143,0.373,0.311,0.53,0.505c0.154,0.194,0.304,0.399,0.446,0.618l4.832,7.173
			h-3.149c-0.274,0-0.508-0.044-0.706-0.135c-0.198-0.091-0.362-0.256-0.494-0.497l-3.702-5.6c-0.132-0.22-0.267-0.366-0.41-0.432
			c-0.143-0.066-0.355-0.102-0.636-0.102h-0.797v6.767h-3.49V104.35h3.49L197.772,104.346L197.772,104.346z"/>
	</g>
</g>
</svg>
