<?xml version="1.0" encoding="iso-8859-1"?>
<!-- Generator: Adobe Illustrator 21.1.0, SVG Export Plug-In . SVG Version: 6.00 Build 0)  -->
<svg version="1.1" id="Layer_1" xmlns="http://www.w3.org/2000/svg" xmlns:xlink="http://www.w3.org/1999/xlink" x="0px" y="0px"
	 viewBox="0 0 231 231" style="enable-background:new 0 0 231 231;" xml:space="preserve">
<g>
	<path style="fill:#193783;" d="M173.412,173.333c-38.61,0-77.221,0-115.831,0c0-9.006,0-18.013,0-27.019
		c0-6.03,0.013-12.065,0.019-18.095c0.651-0.013,1.302-0.07,1.953-0.032c10.093,0.67,20.124,1.871,30.091,3.603
		c16.148,2.806,31.93,6.984,47.326,12.622c0.613,0.221,1.213,0.468,1.833,0.676c0.265,0.088,0.613,0.411,0.815-0.006
		c0.183-0.367-0.303-0.373-0.468-0.563c-0.038-0.044-0.095-0.063-0.139-0.095c-4.171-2.781-8.596-5.138-13.007-7.515
		c-0.253-0.139-0.499-0.297-0.847-0.506c0.373-0.145,0.6-0.246,0.834-0.329c6.927-2.471,13.879-4.854,20.895-7.047
		c8.722-2.724,17.456-5.41,26.469-7.022c0.019,0.48,0.051,0.961,0.051,1.441C173.419,140.083,173.412,156.705,173.412,173.333z
		 M95.003,163.821c-0.221-0.398-0.373-0.657-0.512-0.923c-2.326-4.462-4.658-8.924-6.965-13.399
		c-0.228-0.449-0.493-0.619-0.986-0.588c-0.613,0.038-0.43,0.537-0.474,0.828c-0.392,2.749-0.733,5.499-1.106,8.248
		c-0.386,2.831-0.739,5.669-1.201,8.488c-0.246,1.511-0.335,1.485,1.264,1.397c0.348-0.019,0.506-0.076,0.487-0.474
		c-0.095-2.307,0.417-4.563,0.676-6.839c0.196-1.757,0.474-3.501,0.727-5.334c0.354,0.221,0.423,0.506,0.544,0.739
		c1.934,3.71,3.862,7.426,5.783,11.143c0.215,0.417,0.405,0.727,0.992,0.727c0.594,0,0.771-0.329,0.986-0.739
		c1.902-3.571,3.811-7.136,5.72-10.7c0.12-0.221,0.158-0.525,0.556-0.638c0.253,3.95,1.371,7.755,1.144,11.692
		c-0.019,0.379,0.183,0.411,0.468,0.404c0.935-0.006,1.871-0.019,2.806,0.006c0.518,0.013,0.55-0.158,0.373-0.6
		c-0.196-0.493-0.341-1.024-0.417-1.548c-0.752-5.322-1.479-10.65-2.225-15.978c-0.044-0.297,0.082-0.727-0.411-0.815
		c-0.487-0.088-0.613,0.259-0.784,0.6c-1.586,3.065-3.179,6.124-4.778,9.183C96.817,160.371,95.939,162.039,95.003,163.821z
		 M146.874,148.855c0.436,1.1,0.531,2.155,0.525,3.242c-0.013,4.222-0.006,8.444-0.006,12.666c0,0.853-0.019,1.706-0.329,2.509
		c-0.158,0.405-0.063,0.556,0.386,0.544c0.847-0.025,1.7-0.032,2.547,0c0.632,0.025,0.992-0.044,0.657-0.815
		c-0.152-0.354-0.202-0.771-0.209-1.163c-0.025-2.098-0.006-4.197-0.032-6.289c-0.006-0.619,0.272-0.569,0.676-0.379
		c0.581,0.272,0.992,0.739,1.397,1.22c2.067,2.452,4.254,4.778,6.624,6.94c0.221,0.202,0.404,0.518,0.746,0.525
		c1.112,0.019,2.231,0.006,3.419,0.006c-2.933-3.021-5.77-5.954-8.614-8.886c0.171-0.145,0.442-0.057,0.683-0.101
		c2.105-0.411,3.938-1.226,4.614-3.476c0.853-2.825-0.683-5.265-3.773-6.036C153.143,148.609,150.046,148.944,146.874,148.855z
		 M126.371,167.866c-1.213-1.15-1.883-2.376-2.465-3.672c-2.187-4.873-4.393-9.739-6.592-14.606
		c-0.133-0.297-0.171-0.645-0.638-0.67c-0.518-0.032-0.588,0.348-0.733,0.67c-2.162,4.854-4.323,9.702-6.478,14.555
		c-0.556,1.251-1.087,2.509-2.048,3.723c0.619,0,1.018-0.051,1.397,0.013c0.752,0.126,1.093-0.196,1.371-0.879
		c0.752-1.833,1.593-3.622,2.376-5.442c0.202-0.468,0.436-0.695,0.992-0.683c1.643,0.044,3.287,0.038,4.93,0
		c0.544-0.013,0.796,0.183,1.005,0.664c0.828,1.921,1.713,3.817,2.547,5.732c0.183,0.417,0.379,0.619,0.872,0.6
		C123.975,167.835,125.05,167.866,126.371,167.866z M145.964,167.866c-1.074-1.055-1.751-2.117-2.275-3.28
		c-2.237-4.98-4.475-9.954-6.718-14.922c-0.152-0.329-0.196-0.777-0.771-0.746c-0.531,0.025-0.537,0.455-0.67,0.758
		c-1.909,4.26-3.786,8.532-5.701,12.786c-0.815,1.814-1.485,3.691-2.762,5.41c0.563,0,0.961-0.044,1.346,0.013
		c0.739,0.107,1.1-0.183,1.378-0.872c0.758-1.858,1.631-3.666,2.414-5.511c0.202-0.474,0.449-0.613,0.942-0.607
		c1.669,0.025,3.343,0.025,5.018,0c0.468-0.006,0.702,0.152,0.891,0.575c0.847,1.947,1.725,3.874,2.585,5.808
		c0.158,0.348,0.291,0.626,0.777,0.613C143.518,167.835,144.617,167.866,145.964,167.866z M82.135,165.964
		c-0.777,0.234-1.479,0.563-2.256,0.569c-2.408,0-4.816-0.013-7.224,0.013c-0.474,0.006-0.632-0.12-0.619-0.613
		c0.032-1.302,0.006-2.604,0.013-3.912c0.006-0.961-0.335-2.256,0.152-2.781c0.556-0.594,1.864-0.158,2.844-0.177
		c1.504-0.025,3.002-0.044,4.506,0.006c0.879,0.032,0.771-0.657,0.828-1.1c0.082-0.613-0.493-0.291-0.733-0.291
		c-2.294-0.032-4.588-0.032-6.889-0.006c-0.531,0.006-0.739-0.101-0.727-0.689c0.038-2.041,0.038-4.083,0-6.118
		c-0.013-0.588,0.196-0.695,0.727-0.689c2.067,0.025,4.14,0.013,6.206,0.013c0.657,0,1.296,0.076,1.921,0.291
		c0.228,0.076,0.563,0.367,0.676,0.158c0.228-0.423,0.088-0.935,0.038-1.409c-0.038-0.341-0.291-0.291-0.506-0.291
		c-3.994,0-7.995,0-11.989-0.006c-0.423,0-0.569,0.101-0.398,0.544c0.253,0.638,0.297,1.315,0.297,2.004
		c-0.006,4.62-0.006,9.24,0,13.86c0,0.626,0,1.27-0.253,1.839c-0.322,0.721,0.032,0.721,0.575,0.714
		c3.653-0.013,7.313-0.006,10.966-0.006c1.681,0,1.681,0,1.902-1.656C82.205,166.16,82.173,166.103,82.135,165.964z"/>
	<path style="fill:#FDFDFD;" d="M57.6,79.585c0-0.196,0.006-0.398,0.006-0.594c3.268,3.046,6.548,6.093,9.809,9.145
		c11.25,10.523,22.487,21.046,33.737,31.576c1.037,0.967,2.073,1.928,3.293,3.059c-0.101-0.392-0.133-0.525-0.177-0.651
		C97.146,101.409,90.017,80.698,82.9,59.986c-0.259-0.752-0.708-1.466-0.651-2.313c0.569,0,1.131,0,1.7,0
		c0.019,0.082,0.025,0.171,0.057,0.246c9.278,20.212,18.563,40.418,27.853,60.63c0.082,0.177,0.082,0.449,0.404,0.493
		c0.025-0.088,0.057-0.158,0.057-0.234c0.36-7.692,0.708-15.377,1.068-23.069c0.436-9.297,0.885-18.6,1.334-27.898
		c0.164-3.388,0.348-6.782,0.525-10.169c0.512,0,1.018,0,1.529,0c0.006,0.537-0.013,1.074,0.013,1.612
		c0.506,10.713,1.018,21.426,1.529,32.145c0.341,7.123,0.676,14.246,1.024,21.375c0.101,2.098,0.209,4.203,0.316,6.301
		c0.24-0.171,0.335-0.36,0.423-0.556c9.164-20.048,18.329-40.096,27.487-60.143c0.101-0.221,0.404-0.423,0.164-0.727
		c0.398,0,0.796,0,1.188,0c-0.07,0.246-0.12,0.493-0.202,0.733c-7.262,20.901-14.518,41.802-21.78,62.703
		c-0.095,0.272-0.259,0.531-0.171,0.834c0.253,0.013,0.348-0.152,0.468-0.259c2.768-2.598,5.53-5.189,8.292-7.793
		c10.308-9.702,20.61-19.409,30.919-29.111c2.307-2.168,4.633-4.323,6.952-6.478c0,0.758,0,1.517,0,2.275
		c-0.158,0.158-0.329,0.31-0.48,0.474c-13.222,14.992-26.438,29.983-39.653,44.975c-0.19,0.215-0.36,0.436-0.537,0.657
		c0.866-0.095,1.618-0.322,2.37-0.55c12.546-3.742,25.275-6.586,38.301-8.039c-0.013,1.308-0.025,2.617-0.038,3.919
		c-9.019,1.612-17.747,4.291-26.469,7.022c-7.015,2.193-13.974,4.576-20.895,7.047c-0.234,0.082-0.461,0.183-0.834,0.329
		c0.348,0.209,0.594,0.367,0.847,0.506c4.412,2.376,8.829,4.734,13.007,7.515c0.044,0.032,0.107,0.051,0.139,0.095
		c0.164,0.19,0.645,0.196,0.468,0.563c-0.202,0.411-0.55,0.095-0.815,0.006c-0.619-0.209-1.22-0.449-1.833-0.676
		c-15.396-5.638-31.171-9.815-47.326-12.622c-9.967-1.732-19.997-2.933-30.091-3.603c-0.645-0.044-1.302,0.019-1.953,0.032
		c-0.006-3.223-0.006-6.447-0.013-9.664c0.708,0.019,1.422-0.025,2.117,0.057c2.92,0.354,5.84,0.714,8.754,1.125
		c8.387,1.169,16.66,2.876,24.782,5.271c1.947,0.575,3.893,1.15,5.84,1.725c0.032,0.032,0.063,0.07,0.095,0.101
		c0.082-0.082,0.038-0.133-0.044-0.171c-0.133-0.183-0.253-0.373-0.398-0.537c-11.73-13.317-23.467-26.615-35.197-39.906
		C61.569,84.003,59.579,81.804,57.6,79.585z M126.788,122.019c-0.019-0.019-0.038-0.038-0.057-0.051
		c-0.019,0.032-0.038,0.063-0.051,0.101c0,0.013,0.032,0.032,0.051,0.051C126.75,122.089,126.769,122.051,126.788,122.019z"/>
	<path style="fill:#DBB02E;" d="M82.249,57.673c-0.051,0.847,0.392,1.555,0.651,2.313c7.117,20.711,14.246,41.423,21.369,62.128
		c0.044,0.126,0.07,0.265,0.177,0.651c-1.22-1.131-2.256-2.092-3.293-3.059c-11.244-10.517-22.487-21.046-33.737-31.57
		c-3.268-3.053-6.541-6.099-9.809-9.145c-0.006-7.104-0.013-14.214-0.019-21.318C65.804,57.673,74.027,57.673,82.249,57.673z"/>
	<path style="fill:#DBB02E;" d="M173.393,78.302c-2.32,2.162-4.645,4.31-6.952,6.478c-10.308,9.702-20.617,19.409-30.919,29.111
		c-2.762,2.598-5.53,5.195-8.292,7.793c-0.12,0.114-0.215,0.272-0.468,0.259c-0.088-0.303,0.076-0.563,0.171-0.834
		c7.262-20.901,14.524-41.802,21.78-62.703c0.082-0.24,0.139-0.487,0.202-0.733c8.166,0,16.331,0,24.491,0
		C173.406,64.549,173.4,71.426,173.393,78.302z"/>
	<path style="fill:#DBB02E;" d="M115.247,57.673c-0.177,3.388-0.36,6.782-0.525,10.169c-0.449,9.297-0.897,18.6-1.334,27.898
		c-0.36,7.685-0.714,15.377-1.068,23.069c-0.006,0.076-0.038,0.145-0.057,0.234c-0.316-0.044-0.322-0.31-0.404-0.493
		c-9.291-20.212-18.575-40.418-27.853-60.63c-0.032-0.076-0.038-0.164-0.057-0.246C94.378,57.673,104.812,57.673,115.247,57.673z"/>
	<path style="fill:#DBB02E;" d="M147.733,57.673c0.24,0.303-0.063,0.506-0.164,0.727c-9.158,20.048-18.322,40.096-27.487,60.143
		c-0.088,0.196-0.19,0.386-0.423,0.556c-0.107-2.098-0.215-4.203-0.316-6.301c-0.341-7.123-0.683-14.246-1.024-21.375
		c-0.512-10.713-1.024-21.426-1.529-32.145c-0.025-0.537-0.013-1.074-0.013-1.612C127.098,57.673,137.412,57.673,147.733,57.673z"/>
	<path style="fill:#FAFAFA;" d="M95.003,163.821c0.935-1.782,1.808-3.445,2.68-5.113c1.593-3.059,3.192-6.118,4.778-9.183
		c0.177-0.335,0.303-0.689,0.784-0.6c0.493,0.088,0.367,0.518,0.411,0.815c0.746,5.328,1.473,10.656,2.225,15.978
		c0.076,0.525,0.221,1.055,0.417,1.548c0.171,0.442,0.145,0.613-0.373,0.6c-0.935-0.025-1.871-0.013-2.806-0.006
		c-0.284,0-0.493-0.025-0.468-0.405c0.228-3.944-0.891-7.742-1.144-11.692c-0.398,0.114-0.436,0.417-0.556,0.638
		c-1.909,3.565-3.817,7.129-5.72,10.7c-0.215,0.411-0.392,0.739-0.986,0.739c-0.588,0-0.777-0.316-0.992-0.727
		c-1.921-3.716-3.849-7.433-5.783-11.143c-0.12-0.234-0.19-0.518-0.544-0.739c-0.253,1.833-0.531,3.584-0.727,5.334
		c-0.259,2.275-0.771,4.532-0.676,6.839c0.019,0.398-0.145,0.455-0.487,0.474c-1.605,0.088-1.517,0.114-1.264-1.397
		c0.461-2.819,0.815-5.657,1.201-8.488c0.373-2.749,0.714-5.505,1.106-8.248c0.038-0.291-0.139-0.79,0.474-0.828
		c0.493-0.032,0.752,0.139,0.986,0.588c2.307,4.475,4.639,8.937,6.965,13.399C94.631,163.164,94.782,163.423,95.003,163.821z"/>
	<path style="fill:#FAFAFA;" d="M146.874,148.855c3.179,0.088,6.276-0.246,9.31,0.506c3.091,0.771,4.626,3.217,3.773,6.036
		c-0.676,2.244-2.509,3.065-4.614,3.476c-0.24,0.044-0.512-0.044-0.683,0.101c2.844,2.933,5.682,5.865,8.614,8.886
		c-1.188,0-2.301,0.013-3.419-0.006c-0.341-0.006-0.518-0.322-0.746-0.525c-2.37-2.162-4.557-4.494-6.624-6.94
		c-0.404-0.48-0.815-0.948-1.397-1.22c-0.404-0.19-0.683-0.24-0.676,0.379c0.025,2.098,0.006,4.197,0.032,6.289
		c0.006,0.392,0.051,0.809,0.209,1.163c0.335,0.765-0.025,0.841-0.657,0.815c-0.847-0.032-1.7-0.025-2.547,0
		c-0.449,0.013-0.544-0.139-0.386-0.544c0.31-0.809,0.329-1.656,0.329-2.509c-0.006-4.222-0.013-8.444,0.006-12.666
		C147.398,151.01,147.303,149.955,146.874,148.855z M150.426,153.968c0,1.163,0.032,2.326-0.013,3.482
		c-0.019,0.544,0.196,0.721,0.67,0.708c0.847-0.019,1.7-0.006,2.547-0.082c1.871-0.171,2.996-1.201,3.324-2.958
		c0.36-1.902-0.379-3.552-1.985-4.374c-1.22-0.626-2.534-0.746-3.881-0.746c-0.512,0-0.695,0.12-0.676,0.657
		C150.457,151.756,150.426,152.862,150.426,153.968z"/>
	<path style="fill:#FAFAFA;" d="M126.371,167.866c-1.321,0-2.395-0.025-3.463,0.013c-0.487,0.019-0.689-0.183-0.872-0.6
		c-0.834-1.915-1.719-3.811-2.547-5.732c-0.209-0.48-0.461-0.676-1.005-0.664c-1.643,0.038-3.287,0.044-4.93,0
		c-0.556-0.013-0.79,0.215-0.992,0.683c-0.784,1.82-1.624,3.609-2.376,5.442c-0.278,0.676-0.619,0.999-1.371,0.879
		c-0.379-0.063-0.777-0.013-1.397-0.013c0.967-1.213,1.498-2.478,2.048-3.723c2.155-4.854,4.317-9.702,6.478-14.556
		c0.145-0.322,0.215-0.702,0.733-0.67c0.468,0.025,0.506,0.379,0.638,0.67c2.199,4.867,4.405,9.733,6.592,14.606
		C124.487,165.49,125.164,166.716,126.371,167.866z M116.006,153.861c-0.879,1.991-1.681,3.811-2.522,5.726
		c1.612,0,3.084-0.006,4.557,0.006c0.379,0,0.518-0.076,0.329-0.487C117.592,157.406,116.834,155.706,116.006,153.861z"/>
	<path style="fill:#FAFAFA;" d="M145.964,167.866c-1.346,0-2.446-0.025-3.546,0.013c-0.487,0.019-0.626-0.259-0.777-0.613
		c-0.86-1.934-1.744-3.868-2.585-5.808c-0.183-0.43-0.417-0.588-0.891-0.575c-1.669,0.032-3.343,0.032-5.018,0
		c-0.493-0.006-0.746,0.139-0.942,0.607c-0.784,1.846-1.65,3.659-2.414,5.511c-0.284,0.689-0.645,0.986-1.378,0.872
		c-0.386-0.057-0.784-0.013-1.346-0.013c1.27-1.719,1.947-3.603,2.762-5.41c1.915-4.26,3.792-8.526,5.701-12.786
		c0.133-0.303,0.145-0.727,0.67-0.758c0.575-0.032,0.619,0.417,0.771,0.746c2.25,4.974,4.487,9.948,6.718,14.922
		C144.213,165.749,144.895,166.811,145.964,167.866z M133.077,159.587c1.283,0,2.446,0,3.603,0c1.511,0,1.511,0,0.872-1.397
		c-0.632-1.397-1.264-2.8-1.953-4.317C134.739,155.826,133.936,157.634,133.077,159.587z"/>
	<path style="fill:#F9F9F9;" d="M82.135,165.964c0.038,0.139,0.063,0.196,0.057,0.246c-0.221,1.656-0.221,1.656-1.902,1.656
		c-3.653,0-7.313-0.006-10.966,0.006c-0.544,0-0.897,0.006-0.575-0.714c0.253-0.569,0.259-1.207,0.253-1.839
		c-0.006-4.62-0.006-9.24,0-13.86c0-0.683-0.044-1.365-0.297-2.004c-0.171-0.436-0.025-0.544,0.398-0.544
		c3.994,0.006,7.995,0.006,11.989,0.006c0.215,0,0.468-0.051,0.506,0.291c0.051,0.474,0.19,0.986-0.038,1.409
		c-0.114,0.215-0.455-0.082-0.676-0.158c-0.626-0.215-1.264-0.291-1.921-0.291c-2.067,0-4.14,0.019-6.206-0.013
		c-0.525-0.006-0.733,0.101-0.727,0.689c0.038,2.041,0.038,4.083,0,6.118c-0.013,0.588,0.202,0.695,0.727,0.689
		c2.294-0.025,4.588-0.025,6.889,0.006c0.24,0.006,0.815-0.322,0.733,0.291c-0.057,0.442,0.051,1.125-0.828,1.1
		c-1.498-0.051-3.002-0.032-4.506-0.006c-0.98,0.019-2.294-0.417-2.844,0.177c-0.487,0.525-0.145,1.827-0.152,2.781
		c-0.013,1.302,0.019,2.61-0.013,3.912c-0.013,0.493,0.145,0.613,0.619,0.613c2.408-0.025,4.816-0.013,7.224-0.013
		C80.663,166.526,81.364,166.198,82.135,165.964z"/>
	<path style="fill:#DBB02E;" d="M173.4,118.094c-13.026,1.454-25.755,4.298-38.301,8.039c-0.752,0.228-1.504,0.449-2.37,0.55
		c0.177-0.221,0.348-0.449,0.537-0.657c13.216-14.992,26.431-29.983,39.653-44.975c0.145-0.171,0.316-0.316,0.48-0.474
		c0.006,5.233,0.019,10.466,0.019,15.699C173.412,103.552,173.406,110.82,173.4,118.094z"/>
	<path style="fill:#DBB02E;" d="M99.086,126.734c-1.947-0.575-3.893-1.15-5.84-1.725c-8.128-2.395-16.395-4.102-24.782-5.271
		c-2.914-0.404-5.834-0.771-8.754-1.125c-0.702-0.082-1.409-0.044-2.117-0.057c0.006-12.988,0.006-25.982,0.013-38.971
		c1.978,2.212,3.975,4.418,5.941,6.649c11.724,13.291,23.461,26.589,35.191,39.887c0.145,0.164,0.265,0.36,0.398,0.537
		C99.118,126.684,99.099,126.709,99.086,126.734z"/>
	<path style="fill:#4D4D4F;" d="M126.788,122.019c-0.019,0.038-0.038,0.07-0.057,0.101c-0.019-0.019-0.051-0.038-0.051-0.051
		c0.006-0.038,0.032-0.07,0.051-0.101C126.75,121.981,126.769,122,126.788,122.019z"/>
	<path style="fill:#4D4D4F;" d="M99.137,126.658c0.082,0.038,0.126,0.088,0.044,0.171c-0.032-0.032-0.063-0.07-0.095-0.101
		C99.099,126.709,99.118,126.684,99.137,126.658z"/>
	<path style="fill:#193783;" d="M150.426,153.968c0-1.106,0.032-2.212-0.013-3.318c-0.019-0.537,0.164-0.657,0.676-0.657
		c1.346,0,2.661,0.12,3.881,0.746c1.605,0.828,2.345,2.478,1.985,4.374c-0.335,1.757-1.454,2.787-3.324,2.958
		c-0.841,0.076-1.694,0.063-2.547,0.082c-0.48,0.013-0.695-0.164-0.67-0.708C150.457,156.288,150.426,155.125,150.426,153.968z"/>
	<path style="fill:#193783;" d="M116.006,153.861c0.828,1.846,1.586,3.552,2.364,5.239c0.19,0.411,0.051,0.487-0.329,0.487
		c-1.473-0.006-2.945-0.006-4.557-0.006C114.324,157.672,115.127,155.852,116.006,153.861z"/>
	<path style="fill:#193783;" d="M133.077,159.587c0.866-1.953,1.662-3.754,2.528-5.714c0.683,1.517,1.315,2.92,1.953,4.317
		c0.638,1.403,0.638,1.397-0.872,1.397C135.523,159.587,134.36,159.587,133.077,159.587z"/>
</g>
</svg>
