<?xml version="1.0" encoding="iso-8859-1"?>
<!-- Generator: Adobe Illustrator 21.1.0, SVG Export Plug-In . SVG Version: 6.00 Build 0)  -->
<svg version="1.1" id="Layer_1" xmlns="http://www.w3.org/2000/svg" xmlns:xlink="http://www.w3.org/1999/xlink" x="0px" y="0px"
	 viewBox="0 0 231 231" style="enable-background:new 0 0 231 231;" xml:space="preserve">
<g>
	<g id="logo">
		<path style="fill:#B6DBD1;" d="M183.771,100.111l-0.05-12.235c0,0-0.199-1.787-2.606-0.869l-12.235,7.123l-10.349,5.882
			c-0.695,0.397-1.191,1.067-1.315,1.861c-0.05,0.248-0.074,0.546-0.074,0.869c0,1.663,0.174,26.058,0.174,26.058
			s0.199,2.283,1.812,1.663c1.564-0.596,11.739-6.577,11.739-6.577l12.036-6.899c0,0,1.042-0.447,0.993-1.663
			C183.871,114.182,183.771,100.111,183.771,100.111z M160.294,126.417l-0.124-23.701l20.598-11.987l0.074,23.576L160.294,126.417z"
			/>
		<path style="fill:#B6DBD1;" d="M191.688,105.074l-0.05-12.235c0,0-0.199-1.787-2.606-0.868l-12.235,7.122l-10.349,5.882
			c-0.695,0.397-1.191,1.067-1.315,1.861c-0.05,0.248-0.074,0.546-0.074,0.869c0,1.663,0.174,26.058,0.174,26.058
			s0.099,2.407,1.812,1.663c1.539-0.67,11.739-6.577,11.739-6.577l12.036-6.899c0,0,1.042-0.447,0.993-1.663
			C191.763,119.146,191.688,105.074,191.688,105.074z M168.186,131.381l-0.124-23.701l20.598-11.987l0.074,23.576L168.186,131.381z"
			/>
		<path style="fill:#B6DBD1;" d="M199.63,109.293l-0.05-12.235c0,0-0.199-1.787-2.606-0.869l-12.235,7.123l-10.349,5.882
			c-0.695,0.397-1.191,1.067-1.315,1.861c-0.05,0.248-0.074,0.546-0.074,0.869c0,1.663,0.174,26.058,0.174,26.058
			s0.05,2.333,1.812,1.663c1.563-0.596,11.739-6.577,11.739-6.577l12.036-6.899c0,0,1.042-0.447,0.993-1.663
			C199.704,123.365,199.63,109.293,199.63,109.293z M176.128,135.6l-0.124-23.701l20.598-11.987l0.074,23.576L176.128,135.6z"/>
		<path style="fill:#B6DBD1;" d="M207.323,113.76l-0.05-12.235c0,0-0.199-1.787-2.606-0.869l-12.235,7.123l-10.349,5.882
			c-0.695,0.397-1.191,1.067-1.315,1.861c-0.05,0.248-0.074,0.546-0.074,0.869c0,1.663,0.174,26.058,0.174,26.058
			s0.099,2.407,1.812,1.663c1.539-0.67,11.739-6.577,11.739-6.577l12.036-6.899c0,0,1.042-0.447,0.993-1.663
			C207.397,127.832,207.323,113.76,207.323,113.76z M183.821,140.067l-0.124-23.701l20.598-11.987l0.074,23.576L183.821,140.067z"/>
	</g>
	<g id="text">
		<g id="_x31_st">
			<path style="fill:#9A989A;" d="M144.411,101.898c-0.05-0.372-0.67-1.042-0.993-1.241c-0.323-0.198-1.415-0.298-2.01,0.074
				c-0.521,0.323-0.918,1.216-1.241,2.01c-0.323,0.794-0.174,0.496-0.248,0.695c-0.074,0.198-1.167,0.124-1.167,0.124l-0.819-0.273
				l0.05,0.074l0.025-2.804l-1.266,0.025l-0.074,2.929c0,0-1.439,0.05-1.737,0.025c-0.298-0.025-0.596-0.174-0.596-0.174
				l0.025-2.755l-0.099-0.025l-1.142-0.025l0.025,2.879l-3.996-0.025c0,0,0,0,0-0.273c0-0.273-0.174-0.844-0.546-1.613
				c-0.372-0.769-1.439-1.563-1.439-1.563l-0.819,0.943c0.273,0.223,1.266,1.216,1.638,1.812c0.372,0.596-0.347,0.868-0.347,0.868
				l-2.507-0.025l0.05,1.117c0,0,2.382,0.025,2.829-0.074c0.447-0.099,0.72-0.447,0.844-0.298c0.124,0.149,0.869,0.397,0.869,0.397
				l1.663,0.025c0,0,2.109,0.025,2.333-0.074c0.223-0.099,0.273-0.422,0.273-0.422l0.174,0.124c0,0,0.323,0.273,0.72,0.372
				c0.397,0.099,2.085-0.025,2.333-0.099c0.248-0.074,0.397-0.323,0.397-0.323s0.149,0.099,0.521,0.298
				c0.372,0.199,1.067,0.124,1.489,0.149c0.422,0.025,0.645-0.199,0.645-0.199l0.372-0.546l0.099,0.099
				c0.099,0.099,0.372,0.298,0.496,0.372l0.571,0.174c0.223,0.099,0.447,0.124,0.695,0.099l0.645-0.074l0.819-0.372l0.496-0.794
				l0.074-0.869C144.535,102.593,144.436,102.27,144.411,101.898z M143.369,103.288c-0.149,0.347-0.571,0.323-1.241,0.323
				s-1.092-0.372-1.092-0.372s0.472-0.869,0.67-1.191c0.074-0.124,0.223-0.248,0.372-0.273c0.67-0.199,0.745-0.05,1.117,0.273
				C143.642,102.419,143.518,102.94,143.369,103.288z"/>
			<circle style="fill:#9A989A;" cx="132.97" cy="98.895" r="0.695"/>
			<circle style="fill:#9A989A;" cx="134.484" cy="98.87" r="0.695"/>
			<circle style="fill:#9A989A;" cx="137.313" cy="98.92" r="0.695"/>
			<path style="fill:#9A989A;" d="M123.962,100.781l-0.248,1.191l-0.62-0.199c0,0-0.571-0.074-0.769-0.05
				c-0.199,0.025-0.472,0.248-0.447,0.496c0.025,0.248,0.223,0.496,0.397,0.62c0.174,0.124,0.794,0.621,0.869,0.794
				c0,0,0.397,0.422,0.397,0.993c0,0.496-0.223,0.943-0.62,1.29c-0.397,0.348-0.571,0.546-1.191,0.72
				c-0.62,0.174-1.489,0.248-2.035,0.199s-1.688-0.248-2.333-1.142c-0.645-0.893-0.571-1.34-0.596-1.812
				c-0.05-0.471,0.645-1.886,0.645-1.886l1.018,0.596l0.05,0.025c0,0-0.323,0.67-0.447,1.067c-0.074,0.273,0,0.993,0.199,1.216
				c0.223,0.248,0.62,0.62,1.067,0.695c0.447,0.074,1.241,0.124,1.663,0.025c0.422-0.099,0.819-0.199,1.042-0.472
				c0.223-0.273,0.447-0.471-0.05-0.993c-0.496-0.546-0.993-0.968-1.117-1.241c-0.174-0.323-0.298-1.439,0.471-2.01
				C121.902,100.458,123.366,100.359,123.962,100.781z"/>
		</g>
		<g id="_x32_nd">
			<path style="fill:#9A989A;" d="M111.156,97.207"/>
			<polygon style="fill:#9A989A;" points="111.156,97.207 112.372,97.182 112.372,104.702 111.181,104.702 			"/>
			<path style="fill:#9A989A;" d="M108.128,97.182l1.117,0.025v7.52h-2.879c0,0-0.422,0.05-0.72-0.199
				c-0.298-0.248-0.298-0.248-0.298-0.248s-0.397,0.323-0.521,0.347c-0.124,0.025-1.762,0.025-1.762,0.025s-0.621-0.273-0.695-0.323
				c-0.074-0.05-0.174,0.174-0.397,0.273c-0.223,0.099-1.762,0.074-1.762,0.074s-0.621-0.223-0.67-0.273
				c-0.05-0.05-0.397,0.174-0.397,0.174l-0.348,0.149l-4.343,0.025c0,0-0.968-0.074-0.993-1.166c-0.025-1.067,0-6.254,0-6.254h1.117
				v5.708c0,0,0,0.496,0.273,0.496c0.273,0.025,3.4,0,3.4,0s0.273-0.074,0.298-0.273c0.025-0.199,0-1.762,0-1.762h1.241v1.737
				c0,0,0.074,0.248,0.521,0.248c0.447,0,0.943,0,0.943,0s0.099,0,0.149-0.149c0.074-0.124,0-2.258,0-2.258h1.191l-0.025,2.035
				c0,0,0,0.372,0.744,0.372c0.745,0,0.968-0.025,0.968-0.025v-2.904h1.216v2.656c0,0,0.05,0.298,0.72,0.298s1.861,0,1.861,0
				L108.128,97.182"/>
			<circle style="fill:#9A989A;" cx="101.453" cy="98.92" r="0.695"/>
			<circle style="fill:#9A989A;" cx="102.867" cy="98.895" r="0.695"/>
			<circle style="fill:#9A989A;" cx="102.123" cy="97.53" r="0.695"/>
			<path style="fill:#9A989A;" d="M90.359,100.533h1.266v3.772c0,0-0.149,2.606-2.829,2.556v-1.191c0,0,0.869,0.025,1.167-0.248
				s0.422-0.447,0.447-1.018C90.409,103.809,90.359,100.533,90.359,100.533z"/>
			<path style="fill:#9A989A;" d="M87.282,100.831c-0.372-0.397-1.067-0.447-1.464-0.447c-0.397,0-1.042,0.223-1.39,0.496
				c-0.347,0.273-0.67,0.943-0.745,1.638s0.323,0.968,0.323,0.968s-1.787,0.05-2.06,0.05c-0.223,0-0.223-0.298-0.223-0.298v-3.524
				h-1.266l-0.025,0.621l-0.198,0.05c-1.291,0.074-2.184,0.918-2.482,1.266c-0.298,0.348-0.397,0.769-0.323,1.39
				c0.074,0.571,0.72,0.993,1.092,1.191c0.149,0.074,0.323,0.124,0.496,0.124h0.496c0.422,0,1.117-0.298,1.117-0.298
				c0.323,0.695,0.943,0.645,0.943,0.645l6.328,0.05c0,0,0-1.985,0-2.581C87.902,101.575,87.629,101.203,87.282,100.831z
				 M80.482,102.965c0,0-0.521,0.323-0.869,0.348c-0.347,0.025-0.645-0.099-0.844-0.248c-0.199-0.149-0.298-0.596,0-0.943
				c0.298-0.372,0.918-0.695,1.737-0.769L80.482,102.965z M85.917,103.511c-0.298,0-0.596-0.099-0.794-0.273
				c-0.124-0.124-0.223-0.273-0.273-0.447c-0.099-0.546,0.223-1.017,0.496-1.141c0.745-0.273,1.167,0.223,1.167,0.223
				c0.198,0.347,0.223,0.62,0.223,1.017v0.62H85.917L85.917,103.511z"/>
			<circle style="fill:#9A989A;" cx="86.513" cy="98.895" r="0.695"/>
			<circle style="fill:#9A989A;" cx="84.999" cy="98.895" r="0.695"/>
			<circle style="fill:#9A989A;" cx="81.003" cy="98.696" r="0.695"/>
			<circle style="fill:#9A989A;" cx="79.539" cy="98.647" r="0.695"/>
		</g>
		<g id="_x33_rd">
			<path style="fill:#9A989A;" d="M139.87,118.997h-5.063v-1.191l2.109-0.025l0.025-4.269l1.241-0.025l-0.025,4.269l1.34,0.025
				v-6.353h1.315v5.931c0,0-0.025,0.323,0.397,0.372c0.422,0.05,2.085,0.025,2.085,0.025l0.025-6.254h1.191v7.495l-2.358-0.05
				c0,0-1.167,0.074-1.613-0.447C140.515,118.525,140.143,118.997,139.87,118.997"/>
			<path style="fill:#9A989A;" d="M131.705,114.902l0.025,3.053c0,0,0.025-0.025-0.769-0.025c-0.794,0-0.893-0.348-0.893-0.348
				l-0.025-2.159h-1.241c0,0,0.025,2.06,0.025,2.234c0,0.174-0.298,0.248-0.298,0.248s-0.05,0.025-0.67,0.025
				c-0.62,0-0.769-0.323-0.769-0.323v-1.762h-1.241c0,0,0,1.762,0,1.911s-0.223,0.099-0.223,0.099s-3.301,0.025-4.07,0.025
				c-0.769,0-0.745-0.323-0.745-0.323l0.025-2.631l-1.216-0.025v2.904l-0.149,0.074c0,0-1.315,0.05-1.737-0.025
				c-0.422-0.074-0.496-0.323-0.496-0.323v-2.556h-1.166c0,0-0.025,1.39,0,2.234c0.025,0.844-0.248,0.72-0.248,0.72
				s-1.018-0.05-1.489-0.025c-0.471,0.025-0.645-0.298-0.645-0.298s0,0,0-0.745s-0.521-1.315-0.943-1.712
				c-0.422-0.397-1.464-0.298-1.712-0.223c-0.248,0.074-0.521,0.248-0.943,0.596c-0.422,0.347-0.745,1.563-0.893,1.96
				c-0.149,0.397-0.447,0.372-0.447,0.372s-0.695,0-0.918,0c-0.223,0-0.248-0.447-0.248-0.447v-5.807h-1.167c0,0-0.025,5.46,0,6.353
				c0.025,0.893,0.943,1.067,0.943,1.067l1.39,0.05c0.199,0,0.422-0.05,0.596-0.149l0.074-0.05c0.348-0.198,0.521-0.397,0.521-0.397
				c0.124,0.124,0.794,0.571,1.216,0.571c0.273,0.025,0.695,0,0.943,0c0.149,0,0.298-0.05,0.447-0.099
				c0.05-0.025,0.099-0.05,0.149-0.074c0.273-0.124,0.546-0.397,0.546-0.397l0.149,0.074c0.422,0.397,0.918,0.496,0.918,0.496
				s2.109-0.025,2.333-0.099c0.223-0.074,0.447-0.372,0.447-0.372l0.099,0.074c0.298,0.298,0.918,0.372,0.918,0.372
				s1.985-0.025,2.134-0.05c0.149-0.025,0.397-0.422,0.397-0.422s0,0,0.199,0.223c0.198,0.223,0.67,0.273,0.67,0.273
				s4.492,0,4.814,0c0.323,0,0.645-0.447,0.645-0.447c0.372,0.323,0.819,0.422,0.819,0.422s0.968,0,1.34-0.025
				c0.372-0.025,0.67-0.347,0.67-0.347c0.248,0.248,0.893,0.347,0.893,0.347h2.358l0.025-0.05l0.025-4.095L131.705,114.902z
				 M112.496,117.533c-0.174,0.447-1.439,0.645-2.234-0.025c0,0,0.199-0.869,0.571-1.216c0.347-0.323,0.72-0.372,0.918-0.348
				c0.198,0.025,0.62,0.248,0.744,0.695C112.645,117.086,112.595,117.285,112.496,117.533z"/>
			<circle style="fill:#9A989A;" cx="116.641" cy="111.924" r="0.695"/>
			<circle style="fill:#9A989A;" cx="120.959" cy="113.264" r="0.695"/>
			<circle style="fill:#9A989A;" cx="119.544" cy="113.19" r="0.695"/>
			<circle style="fill:#9A989A;" cx="117.36" cy="113.289" r="0.695"/>
			<circle style="fill:#9A989A;" cx="115.921" cy="113.215" r="0.695"/>
			<path style="fill:#9A989A;" d="M103.264,114.902l0.025,4.045c0,0,0.05,1.018-1.514,1.042l0.025,1.191c0,0,0.67-0.074,1.017-0.199
				c0.348-0.099,1.514-0.67,1.712-1.688c0.223-1.29,0.124-4.393,0.124-4.393H103.264z"/>
		</g>
		<g id="_x34_th">
			<polygon style="fill:#9A989A;" points="96.067,111.577 97.283,111.577 97.333,119.071 96.092,119.096 			"/>
			<polygon style="fill:#9A989A;" points="92.99,111.577 94.255,111.577 94.255,118.997 87.53,118.997 87.505,117.855 
				89.788,117.855 89.788,113.512 90.98,113.512 90.98,117.781 93.015,117.831 			"/>
			<path style="fill:#9A989A;" d="M91.277,111.204v0.596h-0.596c0,0-0.323,0.124-0.273,0.347c0.05,0.223,0.124,0.323,0.273,0.323
				c0.149,0,0.62,0,0.62,0l0.025,0.72h-1.911v-0.769h0.422c0,0-0.149-0.348-0.149-0.521c0.025-0.199,0.099-0.496,0.422-0.621
				C90.409,111.13,91.277,111.204,91.277,111.204z"/>
			<path style="fill:#9A989A;" d="M82.492,114.902l0.05,1.067c0,0,0.571-0.323,1.067-0.273c0.496,0.05,0.844,0.149,1.067,0.496
				c0.199,0.348,0.199,1.092,0.273,1.266c0.099,0.248,0.273,0.472,0.273,0.472l-4.144-0.099c0,0-0.472-0.025-0.472-0.199
				c0-0.174,0-2.73,0-2.73l-1.166-0.025l-0.05,2.779c0,0-0.05,0.223-0.298,0.223s-1.737,0-1.737,0s-0.323-0.099-0.298-0.323
				c0-0.223,0-2.68,0-2.68l-1.142,0.025l-0.025,2.779c0,0-0.074,0.149-0.174,0.174c-0.124,0.025-3.971,0.025-3.971,0.025
				s-0.223-0.124-0.223-0.372c0-0.248,0-2.606,0-2.606h-1.936c0,0-1.613,0.223-1.712,1.514v2.432c0,0-0.323,0.893-1.241,1.067
				c-0.918,0.199-1.886,0.025-1.886,0.025s-1.117-0.347-1.241-1.166c-0.124-0.968,0.025-1.241,0.248-1.539
				c0.223-0.273,0.223-0.273,0.223-0.273l-0.943-0.571c0,0-0.397,0.248-0.62,0.993c0,0-0.298,1.563,0.248,2.358
				c0.447,0.67,0.993,1.042,1.712,1.291c0.745,0.273,1.985,0.174,2.308,0.099c0.323-0.074,1.167-0.273,1.563-0.794
				c0.422-0.521,0.621-0.819,0.67-1.216c0.05-0.372,0.025-2.333,0.025-2.333s0.149-0.62,0.447-0.695
				c0.298-0.074,0.918-0.074,0.918-0.074v1.712c0,0.05,0,0.099,0.025,0.174c0.05,0.174,0.174,0.596,0.521,0.844
				c0.174,0.124,0.223,0.198,0.447,0.223c0.174,0.025,3.201,0.025,4.293,0.025c0.298,0,0.596-0.074,0.869-0.198
				c0.074-0.025,0.124-0.074,0.149-0.099c0.124-0.124,0.124-0.124,0.124-0.124s0.248,0.372,0.893,0.372
				c0.67,0.025,1.961,0.05,1.961,0.05s0.422-0.074,0.62-0.372c0.199-0.298,0-0.05,0-0.05s0.248,0.397,0.645,0.397h5.633h0.074
				l-0.025-1.092c0,0-0.372,0.099-0.496-0.422c-0.124-0.521-0.099-1.39-0.248-1.638c-0.124-0.223-0.62-0.943-1.017-1.067
				C84.13,114.629,83.609,114.53,82.492,114.902z"/>
			<circle style="fill:#9A989A;" cx="65.07" cy="122.322" r="0.695"/>
			<circle style="fill:#9A989A;" cx="66.51" cy="122.347" r="0.695"/>
			<circle style="fill:#9A989A;" cx="76.387" cy="120.411" r="0.695"/>
			<circle style="fill:#9A989A;" cx="79.986" cy="113.264" r="0.695"/>
			<circle style="fill:#9A989A;" cx="84.229" cy="120.387" r="0.695"/>
		</g>
		<g id="_x35_TH">
			<polygon style="fill:#9A989A;" points="56.533,111.725 57.675,111.725 57.675,119.121 56.558,119.121 			"/>
			<path style="fill:#9A989A;" d="M53.431,111.701l0.025,6.279h-1.762c0,0-0.571-0.025-0.645-0.223s0.099-0.794-0.099-1.29
				c-0.199-0.496-0.62-1.191-1.092-1.365c-0.472-0.174-0.893-0.273-1.39-0.099c-0.496,0.174-1.117,0.72-1.29,1.092
				c0,0-0.323,0.372-0.447,0.819c-0.124,0.447-0.05,0.745-0.174,0.819c-0.099,0.074-0.273,0.174-0.869,0.199
				c-0.596,0-1.018,0.025-1.142-0.099c-0.124-0.124-0.124-0.124-0.124-0.124v-2.73h-1.191l0.025,2.829c0,0,0,0.149-0.124,0.149
				c-0.099,0.025-1.663,0.025-1.663,0.025s-0.124,0.124-0.124-0.769s0-5.485,0-5.485h-1.266v6.204c0,0,0.025,1.117,1.018,1.117
				h2.308c0,0,0.372-0.074,0.521-0.223c0.149-0.149,0.149-0.149,0.149-0.149s0.447,0.447,0.918,0.447s1.191,0.025,1.191,0.025
				s0.372-0.025,0.695-0.323c0.323-0.298,0.323-0.298,0.323-0.298s0.198,0.199,0.546,0.397c0.347,0.198,0.72,0.248,1.191,0.223
				c0.472-0.025,1.017-0.074,1.291-0.323c0.273-0.248,0.273-0.248,0.273-0.248s0.347,0.298,0.571,0.372s0.298,0.149,0.596,0.174
				c0.298,0.025,2.904,0,2.904,0v-7.396L53.431,111.701z M49.957,117.409c-0.074,0.223-0.174,0.521-0.546,0.596
				c-0.372,0.074-0.993,0.248-1.812-0.372c0,0,0.05-0.645,0.298-0.918c0.248-0.273,0.521-0.496,0.844-0.571
				c0.372-0.099,0.869,0.149,0.993,0.447C49.882,116.863,50.031,117.185,49.957,117.409z"/>
			<path style="fill:#9A989A;" d="M44.472,120.362c0.099,0.471-0.323,0.893-0.794,0.794c-0.273-0.05-0.496-0.273-0.546-0.546
				c-0.099-0.471,0.323-0.893,0.794-0.794C44.224,119.865,44.422,120.089,44.472,120.362z"/>
			<path style="fill:#9A989A;" d="M25.065,115.076l0.025,3.946c0,0-0.025,0.596-0.447,0.819c-0.422,0.223-0.596,0.273-1.092,0.323
				l0.025,1.142c0,0,0.968-0.025,1.514-0.397c0.546-0.372,0.993-0.695,1.067-1.464c0.074-0.769,0.025-0.248,0.025-0.248l5.36-0.025
				c0,0,0.348-0.124,0.521-0.347l0.074-0.05c0,0,0.298,0.298,0.72,0.323c0.422,0.025,1.464,0,1.464,0s0.372,0,0.521-0.174
				c0.149-0.174,0.198-0.174,0.198-0.174s0.397,0.372,0.769,0.397c0.372,0.025,2.432-0.025,2.432-0.025l0.025-4.07h-1.191v2.879
				l-1.117,0.025c0,0-0.496,0.05-0.571-0.199c-0.074-0.248-0.025-2.258-0.025-2.258h-1.216v2.308c0,0-0.124,0.174-0.745,0.149
				s-0.893-0.025-0.943-0.199s-0.05-1.812-0.05-1.812h-1.117v1.961h-4.963v-2.829L25.065,115.076L25.065,115.076z"/>
			<path style="fill:#9A989A;" d="M35.414,111.899c0.099,0.471-0.323,0.893-0.794,0.794c-0.273-0.05-0.496-0.273-0.546-0.546
				c-0.099-0.471,0.323-0.893,0.794-0.794C35.141,111.403,35.364,111.626,35.414,111.899z"/>
			<path style="fill:#9A989A;" d="M34.719,113.239c0.099,0.471-0.323,0.893-0.794,0.794c-0.273-0.05-0.496-0.273-0.546-0.546
				c-0.099-0.472,0.323-0.893,0.794-0.794C34.446,112.743,34.669,112.966,34.719,113.239z"/>
			<path style="fill:#9A989A;" d="M36.158,113.215c0.099,0.471-0.323,0.893-0.794,0.794c-0.273-0.05-0.496-0.273-0.546-0.546
				c-0.099-0.472,0.323-0.893,0.794-0.794C35.885,112.718,36.109,112.941,36.158,113.215z"/>
		</g>
		<path style="fill:#9A989A;" d="M28.961,128.08l-0.794,0.918c0,0-0.521-0.471-0.893-0.521s-0.62-0.199-0.993-0.025
			c-0.372,0.174-0.496,0.298-0.596,0.496c-0.099,0.199,0.025,0.472,0.149,0.571c0.124,0.099,0.323,0.347,0.819,0.496
			c0.496,0.149,1.092,0.223,1.365,0.422c0.298,0.199,0.819,0.645,0.943,0.893c0.074,0.149,0.298,0.943,0.223,1.34
			c-0.074,0.397-0.174,0.769-0.472,0.993c-0.323,0.223-0.745,0.521-1.042,0.62c-0.298,0.099-1.117,0.199-1.489,0.174
			c-0.372-0.025-1.092-0.174-1.489-0.372c-0.298-0.149-0.869-0.67-0.869-0.67l0.819-0.943c0,0,0.62,0.422,0.943,0.571
			c0.323,0.124,1.042,0.273,1.291,0.174c0.273-0.099,0.67-0.397,0.695-0.596c0.025-0.198,0.124-0.72-0.496-0.943
			c-0.62-0.223-1.563-0.447-1.563-0.447s-1.29-0.546-1.39-1.315c-0.099-0.819-0.025-1.266,0.248-1.688
			c0.273-0.422,0.745-0.745,1.439-0.943c0.695-0.198,1.911,0.05,2.209,0.223C28.316,127.608,28.961,128.08,28.961,128.08z"/>
		<polygon style="fill:#9A989A;" points="31.567,127.36 31.567,134.309 33.081,134.309 33.081,131.356 36.357,131.381 
			36.307,134.359 37.771,134.334 37.771,127.36 36.282,127.36 36.282,130.041 33.031,130.041 33.031,127.335 		"/>
		<path style="fill:#9A989A;" d="M44.1,127.385h-1.812l-2.556,6.924l1.712,0.025l0.372-1.588h2.606l0.496,1.638l1.688-0.05
			L44.1,127.385z M42.139,131.579l1.017-2.854l0.943,2.829L42.139,131.579z"/>
		<path style="fill:#9A989A;" d="M52.488,131.579c0,0,1.017-0.745,1.092-1.39c0.074-0.67,0-1.142,0-1.142s-0.199-1.663-1.588-1.688
			s-3.474,0-3.474,0v6.949h1.539v-2.606h0.993l1.216,2.631l1.688-0.05L52.488,131.579z M51.247,130.587l-1.241,0.025v-2.06
			l1.291,0.025c0.174,0,0.347,0.025,0.472,0.149c0.794,0.745,0.298,1.464-0.025,1.663C51.545,130.512,51.421,130.587,51.247,130.587
			z"/>
		<path style="fill:#9A989A;" d="M58.692,127.385h1.663v4.542c0,0.596-0.223,2.085-1.067,2.407c-0.72,0.273-1.439,0.422-2.333,0.074
			c-0.893-0.347-1.365-0.819-1.365-0.819l0.893-0.869c0,0,0.596,0.521,0.794,0.546c0.199,0.025,1.042,0.198,1.34-0.372
			C58.841,132.398,58.692,127.385,58.692,127.385z"/>
		<path style="fill:#9A989A;" d="M66.535,127.36h-1.812l-2.556,6.924l1.712,0.025l0.372-1.588h2.606l0.496,1.638l1.688-0.05
			L66.535,127.36z M64.599,131.554l1.018-2.854l0.943,2.829L64.599,131.554z"/>
		<polygon style="fill:#9A989A;" points="70.977,127.385 70.977,134.334 72.516,134.334 72.516,131.381 75.767,131.406 
			75.742,134.359 77.181,134.359 77.181,127.385 75.692,127.385 75.692,130.065 72.466,130.065 72.466,127.36 		"/>
		<polygon style="fill:#9A989A;" points="82.715,127.385 82.715,134.359 84.304,134.359 84.279,131.629 86.661,131.629 
			86.661,130.363 84.229,130.363 84.229,128.7 87.381,128.7 87.381,127.385 		"/>
		<path style="fill:#9A989A;" d="M95.149,128.576c-0.645-0.794-0.893-1.067-2.159-1.142c-1.266-0.074-3.45-0.05-3.45-0.05
			l0.025,6.949h3.375c0,0,1.241-0.149,1.787-0.645c0.521-0.496,0.943-0.893,1.067-1.638c0.099-0.596,0-1.96,0-1.96
			S95.695,129.222,95.149,128.576z M94.181,131.827c-0.05,0.298-0.248,0.521-0.471,0.695c-0.422,0.323-0.943,0.496-1.464,0.496
			h-1.166v-4.343c0,0,0.844,0,1.712,0c0.323,0,0.62,0.198,0.844,0.422c0.447,0.471,0.67,1.117,0.67,1.762
			C94.28,131.182,94.255,131.505,94.181,131.827z"/>
		<polygon style="fill:#9A989A;" points="98.152,127.36 99.69,127.385 99.69,134.359 98.152,134.359 		"/>
		<polygon style="fill:#9A989A;" points="105.225,127.286 105.225,134.26 106.813,134.26 106.788,131.554 109.171,131.53 
			109.171,130.264 106.739,130.264 106.739,128.601 109.89,128.601 109.89,127.286 		"/>
		<path style="fill:#9A989A;" d="M125.277,131.604c0,0,1.017-0.745,1.092-1.39c0.074-0.67,0-1.142,0-1.142s-0.198-1.663-1.588-1.688
			c-1.39-0.025-3.475,0-3.475,0v6.949h1.539v-2.606h0.993l1.216,2.631l1.688-0.05L125.277,131.604z M124.011,130.611l-1.241,0.025
			v-2.06l1.291,0.025c0.174,0,0.347,0.025,0.471,0.149c0.794,0.745,0.298,1.464-0.025,1.663
			C124.334,130.512,124.185,130.611,124.011,130.611z"/>
		<path style="fill:#9A989A;" d="M115.4,127.162c-2.035,0-3.673,1.638-3.673,3.673c0,2.035,1.638,3.673,3.673,3.673
			s3.673-1.638,3.673-3.673C119.073,128.8,117.435,127.162,115.4,127.162z M115.375,133.068c-1.142,0-2.085-1.018-2.085-2.283
			s0.918-2.283,2.085-2.283c1.166,0,2.085,1.018,2.085,2.283S116.517,133.068,115.375,133.068z"/>
		<path style="fill:#9A989A;" d="M133.095,127.36h1.588v4.864c0,0-0.075,0.546-0.348,0.918c-0.248,0.372-0.893,0.968-1.439,1.191
			c-0.596,0.248-2.333,0.05-2.333,0.05s-1.688-0.745-1.737-2.085c-0.074-1.539-0.025-4.914-0.025-4.914h1.489v4.442
			c0,0,0.099,0.769,0.422,0.943c0.298,0.149,0.67,0.372,1.117,0.323c0.372-0.05,0.645-0.074,1.042-0.546
			c0.199-0.248,0.223-0.397,0.223-0.397V127.36z"/>
		<polygon style="fill:#9A989A;" points="137.338,127.41 137.041,134.26 138.554,134.284 138.604,129.594 140.242,132.423 
			141.086,132.423 142.575,129.643 142.748,134.359 144.287,134.359 144.014,127.335 142.55,127.36 140.738,130.636 138.877,127.41 
					"/>
	</g>
</g>
</svg>
