<?xml version="1.0" encoding="iso-8859-1"?>
<!-- Generator: Adobe Illustrator 21.1.0, SVG Export Plug-In . SVG Version: 6.00 Build 0)  -->
<svg version="1.1" id="Layer_1" xmlns="http://www.w3.org/2000/svg" xmlns:xlink="http://www.w3.org/1999/xlink" x="0px" y="0px"
	 viewBox="0 0 231 231" style="enable-background:new 0 0 231 231;" xml:space="preserve">
<g>
	<path d="M83.151,90.627v6.249h0.444c0.601,0.021,1.2-0.081,1.759-0.302c0.479-0.222,0.883-0.577,1.164-1.024
		c0.348-0.597,0.556-1.265,0.609-1.954h0.42v7.73h-0.42c-0.149-1.463-0.562-2.443-1.239-2.898c-0.67-0.463-1.467-0.706-2.281-0.695
		h-0.444v4.663c0,0.786,0.044,1.284,0.14,1.481c0.117,0.225,0.303,0.407,0.531,0.52c0.338,0.16,0.71,0.236,1.083,0.222h0.538v0.386
		h-8.521v-0.389h0.542c0.394,0.019,0.786-0.063,1.139-0.238c0.223-0.117,0.396-0.311,0.486-0.546
		c0.087-0.189,0.133-0.666,0.133-1.437V92.361c0-0.797-0.047-1.293-0.133-1.49c-0.119-0.226-0.309-0.406-0.539-0.515
		c-0.337-0.165-0.711-0.241-1.086-0.222h-0.542v-0.395h13.73v4.386h-0.489c-0.113-1.026-0.391-1.79-0.855-2.285
		c-0.546-0.541-1.243-0.906-1.999-1.046c-0.482-0.113-1.366-0.169-2.665-0.169L83.151,90.627z"/>
	<path d="M100.39,104.617v0.386h-8.505v-0.386h0.544c0.391,0.018,0.78-0.063,1.13-0.238c0.224-0.115,0.397-0.31,0.484-0.546
		c0.093-0.189,0.142-0.666,0.142-1.437V92.361c0-0.797-0.049-1.293-0.142-1.49c-0.116-0.226-0.303-0.407-0.533-0.515
		c-0.336-0.164-0.708-0.24-1.082-0.222h-0.544v-0.395h8.505v0.398h-0.542c-0.391-0.019-0.779,0.064-1.128,0.24
		c-0.226,0.115-0.403,0.309-0.498,0.544c-0.082,0.182-0.131,0.666-0.131,1.441v10.035c0,0.786,0.049,1.284,0.138,1.481
		c0.121,0.224,0.309,0.406,0.537,0.52c0.338,0.159,0.708,0.235,1.082,0.222L100.39,104.617z"/>
	<path d="M107.469,98.037v4.308c0,0.826,0.055,1.346,0.16,1.554c0.131,0.231,0.338,0.41,0.586,0.506
		c0.276,0.135,0.793,0.195,1.554,0.195v0.386h-8.405v-0.371c0.764,0,1.279-0.06,1.554-0.195c0.243-0.103,0.444-0.283,0.573-0.513
		c0.109-0.206,0.169-0.726,0.169-1.554v-9.966c0-0.819-0.06-1.332-0.169-1.554c-0.128-0.233-0.331-0.415-0.577-0.515
		c-0.28-0.124-0.793-0.187-1.554-0.187v-0.393h7.57c1.97,0,3.417,0.136,4.326,0.393c0.873,0.222,1.655,0.713,2.234,1.403
		c0.577,0.673,0.886,1.536,0.866,2.423c0.023,1.081-0.455,2.113-1.295,2.793c-0.548,0.469-1.319,0.813-2.307,1.044l3.884,5.169
		c0.323,0.445,0.688,0.858,1.09,1.233c0.335,0.237,0.732,0.37,1.141,0.384V105h-5.108l-5.232-6.955L107.469,98.037z M107.469,90.591
		v6.6h0.693c1.11,0,1.934-0.093,2.485-0.284c0.538-0.179,0.997-0.539,1.299-1.019c0.339-0.584,0.503-1.253,0.473-1.928
		c0-1.15-0.289-1.999-0.862-2.549c-0.573-0.551-1.51-0.819-2.8-0.819L107.469,90.591L107.469,90.591z"/>
	<path d="M125.361,90.627v6.218h0.326c1.028,0,1.777-0.311,2.243-0.917c0.466-0.606,0.764-1.506,0.888-2.687h0.426v7.979h-0.431
		c-0.06-0.743-0.265-1.466-0.604-2.129c-0.23-0.477-0.609-0.867-1.079-1.11c-0.565-0.22-1.171-0.318-1.777-0.286v4.284
		c0,0.838,0.038,1.352,0.115,1.541c0.083,0.195,0.23,0.356,0.417,0.455c0.319,0.141,0.667,0.203,1.015,0.18h0.968
		c1.518,0,2.733-0.329,3.646-0.988c0.913-0.659,1.571-1.66,1.972-3.005h0.444l-0.719,4.839h-14.068v-0.382h0.539
		c0.395,0.019,0.789-0.063,1.144-0.238c0.219-0.118,0.389-0.312,0.475-0.546c0.096-0.189,0.138-0.666,0.138-1.437V92.361
		c0.016-0.432-0.006-0.864-0.064-1.293c-0.074-0.252-0.23-0.472-0.444-0.624c-0.379-0.224-0.815-0.331-1.254-0.309h-0.54v-0.398
		h13.632v4.481h-0.426c-0.23-1.085-0.557-1.867-0.982-2.345c-0.483-0.514-1.104-0.878-1.788-1.05c-0.444-0.129-1.299-0.2-2.527-0.2
		L125.361,90.627z"/>
	<path d="M145.4,96.045l4.463,6.244c0.737,1.05,1.27,1.69,1.581,1.914c0.335,0.233,0.724,0.375,1.13,0.413v0.386h-7.93v-0.386
		c0.63-0.044,1.044-0.14,1.221-0.275c0.169-0.11,0.273-0.298,0.275-0.5c0.004-0.125-0.025-0.249-0.082-0.36
		c-0.25-0.446-0.532-0.872-0.844-1.277l-2.358-3.269l-2.496,2.807c-0.735,0.868-1.11,1.466-1.11,1.777
		c0.01,0.234,0.113,0.454,0.286,0.611c0.24,0.213,0.534,0.355,0.851,0.409c0.34,0.061,0.686,0.084,1.03,0.069v0.386h-6.24v-0.377
		c0.592-0.061,1.164-0.246,1.679-0.544c0.53-0.352,1.277-1.08,2.241-2.183l3.231-3.669l-4.144-5.723
		c-0.679-0.953-1.066-1.472-1.159-1.581c-0.176-0.217-0.392-0.397-0.637-0.531c-0.27-0.129-0.561-0.211-0.859-0.24v-0.409h8.057
		v0.398h-0.402c-0.469,0-0.795,0.069-0.975,0.204c-0.173,0.121-0.275,0.32-0.273,0.531c-0.004,0.148,0.023,0.295,0.08,0.431
		l0.826,1.186l2.027,2.838l1.697-1.928c0.888-1.021,1.319-1.732,1.319-2.147c-0.001-0.202-0.066-0.399-0.186-0.562
		c-0.139-0.183-0.325-0.325-0.537-0.411c-0.346-0.112-0.709-0.16-1.073-0.142v-0.397h5.978v0.398
		c-0.383-0.006-0.764,0.048-1.13,0.16c-0.344,0.131-0.661,0.326-0.933,0.575c-0.204,0.182-0.726,0.748-1.554,1.701L145.4,96.045z"/>
	<path d="M72.803,165.92l-0.187,0.156c-0.115-0.154-0.268-0.276-0.444-0.353c-0.201-0.06-0.415-0.067-0.62-0.02
		c-0.38,0.096-0.751,0.222-1.11,0.377l-7.059,2.665l-0.167-0.2l3.065-5.161l-5.63,2.067l-0.151-0.18l3.975-6.711
		c0.298-0.502,0.466-0.804,0.511-0.908c0.07-0.16,0.09-0.337,0.058-0.508c-0.054-0.203-0.156-0.391-0.298-0.546l0.187-0.153
		l2.09,2.52l-0.186,0.153l-0.1-0.12c-0.111-0.154-0.273-0.263-0.457-0.307c-0.144-0.031-0.294,0.006-0.406,0.1
		c-0.244,0.27-0.454,0.568-0.626,0.888l-2.709,4.51l4.186-1.566l0.406-0.666l0.322-0.539c0.102-0.192,0.185-0.393,0.246-0.602
		c0.029-0.095,0.038-0.194,0.029-0.293c-0.008-0.123-0.034-0.244-0.078-0.36c-0.059-0.118-0.134-0.228-0.222-0.326l0.184-0.153
		l2.199,2.649l-0.184,0.156l-0.151-0.182c-0.11-0.158-0.275-0.269-0.462-0.311c-0.161-0.021-0.324,0.03-0.444,0.14
		c-0.28,0.287-0.517,0.613-0.706,0.966l-2.605,4.359l4.823-1.814c0.371-0.115,0.724-0.282,1.048-0.495
		c0.077-0.066,0.131-0.154,0.155-0.253c0.026-0.099,0.023-0.203-0.011-0.3c-0.082-0.203-0.199-0.391-0.344-0.555l0.186-0.153
		L72.803,165.92z"/>
	<path d="M74.446,167.71l-2.29,2.638l1.47,1.272c0.382,0.331,0.686,0.493,0.915,0.491c0.302,0,0.626-0.189,0.977-0.553l0.182,0.16
		l-2.014,2.327l-0.184-0.16c0.166-0.229,0.302-0.479,0.404-0.744c0.041-0.176,0.021-0.36-0.055-0.524
		c-0.13-0.248-0.313-0.465-0.535-0.635l-1.47-1.275l-1.908,2.205c-0.168,0.171-0.312,0.363-0.429,0.573
		c-0.031,0.088-0.031,0.185,0,0.273c0.076,0.151,0.188,0.282,0.324,0.382l1.135,0.982c0.267,0.25,0.565,0.464,0.888,0.635
		c0.242,0.099,0.504,0.139,0.764,0.115c0.491-0.055,0.971-0.183,1.424-0.38l0.198,0.171l-2.027,1.177l-5.134-4.457l0.158-0.182
		l0.237,0.204c0.157,0.136,0.344,0.23,0.546,0.275c0.141,0.038,0.292,0.02,0.42-0.051c0.232-0.169,0.439-0.371,0.615-0.597
		l3.751-4.35c0.369-0.424,0.551-0.722,0.551-0.888c-0.033-0.286-0.185-0.544-0.42-0.711l-0.237-0.204l0.158-0.182l5.154,4.461
		l-1.195,1.521l-0.193-0.167c0.182-0.284,0.317-0.595,0.4-0.922c0.027-0.215-0.012-0.432-0.113-0.624
		c-0.173-0.258-0.386-0.487-0.631-0.677L74.446,167.71z"/>
	<path d="M86.475,175.429l-1.554,2.629l-0.206-0.125c0.209-0.446,0.33-0.927,0.355-1.419c0.001-0.407-0.109-0.806-0.32-1.155
		c-0.203-0.353-0.493-0.648-0.842-0.857c-0.348-0.225-0.771-0.304-1.177-0.222c-0.358,0.062-0.672,0.274-0.862,0.584
		c-0.139,0.234-0.187,0.51-0.136,0.777c0.065,0.417,0.394,1.119,0.986,2.105c0.354,0.556,0.667,1.138,0.935,1.741
		c0.135,0.342,0.194,0.71,0.171,1.077c-0.022,0.351-0.127,0.692-0.307,0.995c-0.336,0.571-0.903,0.969-1.554,1.09
		c-0.724,0.146-1.476,0.003-2.096-0.4c-0.209-0.123-0.408-0.264-0.593-0.422c-0.212-0.198-0.412-0.41-0.597-0.633
		c-0.173-0.217-0.371-0.414-0.588-0.586c-0.079-0.055-0.178-0.073-0.271-0.049c-0.133,0.059-0.246,0.155-0.326,0.276l-0.209-0.122
		l1.554-2.607l0.206,0.122c-0.195,0.463-0.309,0.957-0.335,1.459c0.014,0.4,0.136,0.788,0.353,1.124
		c0.234,0.385,0.562,0.705,0.953,0.93c0.391,0.264,0.868,0.367,1.332,0.289c0.387-0.065,0.725-0.296,0.926-0.633
		c0.116-0.203,0.178-0.432,0.182-0.666c0.005-0.281-0.051-0.56-0.162-0.817c-0.232-0.488-0.489-0.964-0.77-1.426
		c-0.329-0.545-0.619-1.111-0.868-1.697c-0.14-0.346-0.207-0.717-0.198-1.09c0.015-0.35,0.118-0.689,0.3-0.988
		c0.316-0.541,0.851-0.919,1.466-1.037c0.672-0.143,1.372-0.015,1.95,0.357c0.44,0.273,0.818,0.635,1.11,1.062
		c0.096,0.154,0.217,0.291,0.358,0.404c0.086,0.056,0.191,0.075,0.291,0.053c0.142-0.052,0.265-0.143,0.358-0.262L86.475,175.429z"
		/>
	<path d="M89.509,177.676l-1.399,3.204l1.777,0.777c0.464,0.202,0.802,0.267,1.019,0.195c0.286-0.093,0.544-0.366,0.768-0.817
		l0.222,0.095l-1.233,2.822l-0.222-0.098c0.089-0.27,0.144-0.549,0.164-0.833c-0.019-0.181-0.097-0.35-0.222-0.482
		c-0.199-0.196-0.438-0.347-0.7-0.444l-1.777-0.777l-1.166,2.665c-0.109,0.215-0.188,0.442-0.238,0.677
		c-0.002,0.093,0.029,0.184,0.087,0.258c0.119,0.119,0.265,0.21,0.424,0.267l1.375,0.599c0.33,0.16,0.681,0.275,1.041,0.342
		c0.26,0.023,0.521-0.018,0.762-0.118c0.452-0.199,0.873-0.464,1.248-0.786l0.238,0.104l-1.586,1.728l-6.236-2.718l0.096-0.222
		l0.286,0.124c0.19,0.084,0.399,0.117,0.606,0.098c0.147-0.003,0.286-0.066,0.386-0.173c0.172-0.23,0.31-0.484,0.411-0.753
		l2.299-5.267c0.223-0.514,0.309-0.853,0.258-1.017c-0.116-0.263-0.339-0.464-0.613-0.553l-0.286-0.124l0.098-0.222l6.247,2.727
		l-0.686,1.814l-0.222-0.102c0.088-0.323,0.123-0.658,0.104-0.992c-0.038-0.213-0.14-0.409-0.293-0.562
		c-0.242-0.194-0.513-0.349-0.804-0.457L89.509,177.676z"/>
	<path d="M100.516,190.218l-2.274-0.64l-1.763-4.797c-0.222-0.051-0.391-0.095-0.524-0.136c-0.055-0.013-0.113-0.031-0.175-0.051
		l-0.193-0.064l-0.695,2.472c-0.149,0.535-0.184,0.888-0.104,1.048c0.13,0.248,0.365,0.423,0.64,0.477l0.331,0.093l-0.064,0.222
		l-3.649-1.026l0.067-0.222l0.32,0.091c0.294,0.112,0.625,0.061,0.87-0.136c0.124-0.104,0.255-0.4,0.391-0.888l1.554-5.501
		c0.148-0.536,0.183-0.884,0.104-1.046c-0.135-0.249-0.373-0.425-0.651-0.482l-0.322-0.091l0.067-0.222l3.109,0.87
		c0.679,0.164,1.333,0.42,1.943,0.762c0.391,0.25,0.7,0.61,0.888,1.035c0.2,0.436,0.233,0.931,0.093,1.39
		c-0.131,0.505-0.448,0.94-0.888,1.219c-0.444,0.289-1.055,0.413-1.814,0.371l1.059,2.94c0.157,0.508,0.401,0.985,0.724,1.408
		c0.287,0.299,0.64,0.527,1.031,0.666L100.516,190.218z M95.7,184.143l0.204,0.06c0.06,0.02,0.107,0.036,0.144,0.045
		c0.813,0.228,1.475,0.224,1.985-0.011c0.495-0.216,0.863-0.647,0.997-1.17c0.154-0.477,0.105-0.997-0.135-1.437
		c-0.258-0.44-0.685-0.754-1.181-0.87c-0.334-0.083-0.675-0.136-1.019-0.158L95.7,184.143z"/>
	<path d="M110.736,182.735l-0.033,0.24c-0.262-0.005-0.52,0.063-0.746,0.195c-0.31,0.238-0.565,0.542-0.746,0.888l-4.122,7.013
		l-0.238-0.033l-2.201-8.032c-0.058-0.262-0.143-0.517-0.253-0.762c-0.087-0.149-0.207-0.276-0.351-0.371
		c-0.19-0.114-0.398-0.194-0.615-0.235l0.033-0.24l3.589,0.522l-0.036,0.237c-0.276-0.037-0.557-0.005-0.817,0.096
		c-0.13,0.075-0.217,0.206-0.235,0.355c-0.012,0.356,0.04,0.711,0.153,1.048l1.492,5.452l2.774-4.77
		c0.2-0.306,0.35-0.642,0.444-0.995c0.013-0.142-0.037-0.283-0.136-0.386c-0.164-0.164-0.371-0.278-0.597-0.331l-0.107-0.036
		l0.033-0.24L110.736,182.735z"/>
	<path d="M113.225,183.183l0.058,3.495l1.943-0.031c0.503-0.009,0.839-0.091,1.006-0.247c0.222-0.202,0.344-0.557,0.362-1.062h0.24
		l0.051,3.078h-0.242c-0.03-0.282-0.096-0.56-0.195-0.826c-0.088-0.157-0.225-0.281-0.391-0.351
		c-0.263-0.098-0.544-0.138-0.824-0.118l-1.943,0.031l0.047,2.916c-0.01,0.239,0.012,0.479,0.064,0.713
		c0.037,0.086,0.103,0.157,0.187,0.2c0.158,0.06,0.327,0.083,0.495,0.067l1.501-0.024c0.366,0.008,0.732-0.033,1.088-0.122
		c0.246-0.086,0.467-0.231,0.644-0.422c0.33-0.368,0.602-0.783,0.809-1.232h0.262l-0.726,2.221l-6.815,0.111v-0.242h0.313
		c0.207-0.002,0.411-0.057,0.591-0.16c0.131-0.064,0.232-0.179,0.278-0.318c0.061-0.28,0.082-0.568,0.062-0.855l-0.093-5.745
		c0-0.562-0.071-0.906-0.186-1.035c-0.215-0.191-0.501-0.281-0.786-0.249h-0.313v-0.24l6.815-0.111l0.129,1.937h-0.255
		c-0.052-0.333-0.16-0.655-0.317-0.953c-0.122-0.179-0.296-0.316-0.5-0.391c-0.3-0.075-0.611-0.103-0.919-0.082L113.225,183.183z"/>
	<path d="M128.785,181.102l0.462,2.023l-0.244,0.044c-0.069-0.261-0.181-0.51-0.331-0.735c-0.16-0.208-0.379-0.362-0.629-0.444
		c-0.294-0.08-0.604-0.086-0.901-0.02l-1.226,0.222l1.19,6.662c0.098,0.535,0.222,0.859,0.353,0.97
		c0.235,0.158,0.526,0.208,0.799,0.136l0.302-0.055l0.042,0.237l-3.691,0.666l-0.042-0.237l0.307-0.055
		c0.307-0.022,0.581-0.201,0.724-0.473c0.069-0.153,0.062-0.475-0.027-0.964l-1.19-6.662l-1.046,0.187
		c-0.294,0.039-0.581,0.122-0.851,0.247c-0.22,0.133-0.391,0.333-0.489,0.571c-0.125,0.314-0.164,0.655-0.113,0.988l-0.244,0.042
		l-0.264-2.059L128.785,181.102z"/>
	<path d="M133.162,179.524c1.076-0.358,2.254-0.244,3.242,0.313c1.074,0.568,1.874,1.545,2.221,2.709
		c0.423,1.167,0.363,2.455-0.167,3.578c-1.002,2.124-3.537,3.033-5.661,2.031c-0.058-0.027-0.114-0.055-0.171-0.085
		c-1.057-0.566-1.797-1.501-2.221-2.807c-0.447-1.221-0.34-2.577,0.293-3.713C131.226,180.579,132.109,179.853,133.162,179.524z
		 M133.193,180.015c-0.711,0.208-1.281,0.741-1.537,1.437c-0.338,0.888-0.287,1.999,0.151,3.331
		c0.444,1.372,1.083,2.335,1.916,2.887c0.606,0.412,1.374,0.508,2.063,0.258c0.762-0.233,1.373-0.808,1.652-1.554
		c0.314-0.783,0.252-1.839-0.184-3.167c-0.471-1.438-1.105-2.417-1.903-2.938C134.713,179.845,133.912,179.751,133.193,180.015z"/>
	<path d="M145.489,173.879l1.486,2.665l-0.211,0.118c-0.28-0.405-0.636-0.752-1.048-1.021c-0.351-0.206-0.752-0.311-1.159-0.302
		c-0.407-0.003-0.807,0.099-1.164,0.295c-0.368,0.189-0.648,0.514-0.779,0.906c-0.126,0.341-0.1,0.72,0.071,1.041
		c0.133,0.237,0.348,0.417,0.604,0.506c0.394,0.148,1.166,0.217,2.316,0.207c0.659-0.027,1.319-0.004,1.974,0.069
		c0.364,0.054,0.711,0.188,1.017,0.393c0.293,0.195,0.535,0.457,0.706,0.764c0.324,0.578,0.382,1.268,0.16,1.892
		c-0.237,0.7-0.74,1.279-1.399,1.612c-0.213,0.119-0.436,0.219-0.666,0.3c-0.279,0.083-0.562,0.15-0.848,0.2
		c-0.275,0.039-0.545,0.11-0.804,0.211c-0.088,0.045-0.153,0.126-0.177,0.222c-0.016,0.145,0.009,0.291,0.073,0.422l-0.211,0.115
		l-1.472-2.649l0.211-0.118c0.3,0.402,0.67,0.749,1.09,1.024c0.353,0.19,0.75,0.28,1.15,0.26c0.451-0.01,0.892-0.132,1.283-0.355
		c0.421-0.205,0.749-0.563,0.915-1.001c0.137-0.364,0.107-0.77-0.08-1.11c-0.115-0.201-0.28-0.369-0.477-0.489
		c-0.24-0.145-0.509-0.238-0.788-0.271c-0.539-0.044-1.079-0.062-1.619-0.051c-0.636,0.011-1.272-0.023-1.903-0.102
		c-0.369-0.053-0.723-0.181-1.041-0.375c-0.295-0.189-0.538-0.451-0.704-0.76c-0.305-0.542-0.363-1.188-0.16-1.777
		c0.214-0.652,0.678-1.192,1.29-1.503c0.457-0.243,0.959-0.387,1.475-0.424c0.181-0.005,0.36-0.042,0.529-0.109
		c0.091-0.046,0.16-0.126,0.193-0.222c0.026-0.149,0.01-0.303-0.047-0.444L145.489,173.879z"/>
	<path d="M154.836,174.749l-2.738,2.056l0.358,1.477c0.048,0.265,0.144,0.519,0.284,0.748c0.088,0.112,0.224,0.174,0.366,0.169
		c0.286-0.044,0.556-0.161,0.784-0.34l0.146,0.193l-2.221,1.67l-0.144-0.193c0.193-0.171,0.339-0.389,0.422-0.633
		c0.052-0.296-0.006-0.782-0.173-1.459l-1.881-7.69l0.184-0.138l6.884,4.037c0.554,0.324,0.964,0.497,1.23,0.517
		c0.307,0.007,0.606-0.088,0.853-0.271l0.146,0.193l-2.791,2.094l-0.144-0.193c0.206-0.141,0.367-0.338,0.464-0.568
		c0.044-0.138,0.017-0.289-0.071-0.404c-0.215-0.233-0.47-0.425-0.753-0.568L154.836,174.749z M154.392,174.474l-3.344-1.959
		l0.913,3.775L154.392,174.474z"/>
	<path d="M159.348,162.684l0.169,0.175c-0.164,0.204-0.268,0.449-0.302,0.708c-0.003,0.39,0.079,0.775,0.24,1.13l3.022,7.55
		l-0.173,0.169l-7.686-3.169c-0.243-0.114-0.497-0.203-0.757-0.267c-0.171-0.021-0.345-0.003-0.508,0.053
		c-0.207,0.079-0.398,0.194-0.564,0.34l-0.167-0.173l2.596-2.514l0.167,0.173c-0.199,0.195-0.346,0.437-0.426,0.704
		c-0.02,0.149,0.031,0.299,0.138,0.404c0.274,0.228,0.587,0.404,0.924,0.522l5.216,2.159l-2.063-5.13
		c-0.118-0.348-0.291-0.675-0.511-0.968c-0.105-0.097-0.247-0.144-0.389-0.129c-0.23,0.029-0.448,0.122-0.628,0.269l-0.093,0.064
		l-0.169-0.173L159.348,162.684z"/>
	<path d="M161.236,160.948l2.76,2.143l1.192-1.537c0.31-0.397,0.458-0.709,0.444-0.937c-0.019-0.296-0.22-0.611-0.602-0.946
		l0.147-0.191l2.443,1.885l-0.149,0.191c-0.239-0.152-0.497-0.274-0.766-0.362c-0.177-0.03-0.36-0.001-0.52,0.082
		c-0.24,0.145-0.447,0.34-0.606,0.571l-1.192,1.534l2.303,1.777c0.18,0.158,0.381,0.292,0.597,0.398
		c0.09,0.024,0.185,0.017,0.271-0.02c0.146-0.086,0.271-0.204,0.364-0.346l0.919-1.186c0.236-0.28,0.432-0.59,0.584-0.924
		c0.086-0.246,0.113-0.508,0.076-0.766c-0.078-0.487-0.228-0.96-0.444-1.403l0.16-0.206l1.283,1.963l-4.177,5.385l-0.191-0.149
		l0.191-0.246c0.129-0.163,0.213-0.357,0.247-0.562c0.03-0.143,0.004-0.292-0.073-0.415c-0.182-0.223-0.394-0.42-0.631-0.584
		l-4.566-3.52c-0.444-0.344-0.751-0.511-0.924-0.502c-0.283,0.049-0.533,0.216-0.686,0.46l-0.191,0.247l-0.191-0.149l4.179-5.385
		l1.59,1.11l-0.155,0.202c-0.294-0.167-0.613-0.284-0.944-0.349c-0.216-0.016-0.431,0.034-0.617,0.144
		c-0.247,0.187-0.463,0.412-0.639,0.666L161.236,160.948z"/>
	<path d="M109.137,82.597l-0.027-0.042L109.137,82.597z"/>
	<path d="M98.793,65.369c-3.178-5.552-2.403-9.28,0.162-13.686c0.373-0.651,1.568-2.054,1.232-1.999
		c-0.818,0.242-1.618,0.539-2.396,0.888c-6.489,2.887-11.627,9.06-11.627,16.519c0,4.184-0.222,7.97-2.632,10.681
		c-3.082,3.451-6.091,6.027-6.577,8.996h20.559C103.317,80.425,103.146,72.957,98.793,65.369z"/>
	<path d="M108.289,81.522c0.278,0.375,0.564,0.737,0.848,1.084l-0.027-0.042l-0.02-0.033l0.02,0.033l0.027,0.042
		c0.12,0.175,0.091-0.937,0.144-1.408c0.326-3.229,0.808-6.833,5.301-12.835c6.218-8.314,4.921-19.986-4.332-28.409
		c-0.164-0.16-0.571-0.722-0.513-0.469c0.058,0.253,0.078,0.444,0.116,0.666c1.068,6.7-2.443,9.258-5.412,14.192
		c-4.408,7.357-2.352,12.72-0.875,17.623C104.616,75.385,106.211,78.612,108.289,81.522z"/>
	<path d="M109.11,82.555l-0.02-0.033L109.11,82.555z"/>
	<path d="M139.873,71.327c-4.397-5.263-5.39-10.375-2.842-16.157c0.158-0.338,0.666-1.11,0.491-1.024
		c-0.176,0.087-0.624,0.391-0.922,0.588c-7.526,4.932-9.824,10.193-10.59,15.798c-0.693,5.036,1.332,7.623,1.277,11.474
		c-0.018,1.026-0.768,0.988-1.592,0.158c-2.512-2.512-2.323-9.489-1.599-16.575c0.189-1.825-0.524-4.748-1.128-4.828
		c-0.34,2.252-0.802,3.136-1.581,4.512c-0.968,1.705-3.795,5.294-7.488,11.308c-2.596,4.232-2.647,8.745-2.236,10.204h40.913
		C150.272,78.129,143.566,75.748,139.873,71.327z"/>
	<path d="M132.269,107.948c2.618,8.918,2.734,18.083-0.486,25.458c-0.522,1.181-1.688,1.641-1.21-0.155
		c2.314-9.002,2.017-17.51-2.107-25.302H76.946c-0.011,0.275-0.013,0.546-0.013,0.822c-0.124,16.5,11.527,27.225,25.455,36.432
		c1.999,1.332,10.659,7.159,9.802,12.751c24.92-10.848,39.259-31.635,40.369-50.005L132.269,107.948L132.269,107.948z
		 M120.478,138.55c-0.577,4.244-2.607,6.964-4.315,10.395c-1.255,2.501,1.999-7.166-4.295-15.593
		c-4.313-5.774-8.831-10.122-2.54-16.526c0.289-0.289,1.068-1.308,0.915-0.87c0,0.309-0.031,0.62-0.031,0.955
		c-0.008,0.313,0.018,0.626,0.078,0.933c0.42,1.93,0.842,3.846,3.375,6.184c5.681,5.239,7.748,7.621,6.813,14.517L120.478,138.55
		L120.478,138.55z"/>
	<polygon points="114.746,160.901 116.62,166.675 122.692,166.675 117.78,170.241 119.656,176.015 114.746,172.446 109.834,176.015 
		111.711,170.241 106.801,166.675 112.87,166.675 	"/>
	<polygon points="143.777,149.341 145.653,155.112 151.722,155.112 146.812,158.681 148.687,164.454 143.777,160.886 
		138.867,164.454 140.741,158.681 135.831,155.112 141.9,155.112 	"/>
	<polygon points="158.293,130.268 160.168,136.039 166.237,136.039 161.327,139.608 163.203,145.381 158.293,141.813 
		153.381,145.381 155.258,139.608 150.348,136.039 156.417,136.039 	"/>
	<polygon points="86.315,149.341 84.439,155.112 78.37,155.112 83.28,158.681 81.406,164.454 86.315,160.886 91.225,164.454 
		89.351,158.681 94.261,155.112 88.192,155.112 	"/>
	<polygon points="71.199,130.268 69.323,136.039 63.254,136.039 68.164,139.608 66.287,145.381 71.199,141.813 76.109,145.381 
		74.233,139.608 79.145,136.039 73.074,136.039 	"/>
</g>
<g>
</g>
<g>
</g>
<g>
</g>
<g>
</g>
<g>
</g>
<g>
</g>
<g>
</g>
<g>
</g>
<g>
</g>
<g>
</g>
<g>
</g>
<g>
</g>
<g>
</g>
<g>
</g>
<g>
</g>
</svg>
