<?xml version="1.0" encoding="iso-8859-1"?>
<!-- Generator: Adobe Illustrator 21.1.0, SVG Export Plug-In . SVG Version: 6.00 Build 0)  -->
<svg version="1.1" id="Layer_1" xmlns="http://www.w3.org/2000/svg" xmlns:xlink="http://www.w3.org/1999/xlink" x="0px" y="0px"
	 viewBox="0 0 231 231" style="enable-background:new 0 0 231 231;" xml:space="preserve">
<g>
	<path style="fill:#25241F;" d="M115.519,47.927c-8.702,7.384-17.192,28.653-17.192,28.653
		c-6.231-6.654-20.778-16.596-20.778-16.596c-8.327,19.528-2.423,44.614-2.423,44.614c-8.702-0.779-24.624,1.798-24.624,1.798
		c8.913,18.769,24.038,27.442,24.038,27.442c-8.432,5.298-13.971,19.442-13.971,19.442s19.548,5.288,39.345-6.981
		c0,0,31.826,0.298,32.009,0.404c19.548,11.307,38.643,7.25,38.643,7.25s-5.663-14.798-14.076-20.115
		c0,0,15.096-8.673,24.009-27.442c0,0-15.923-2.577-24.624-1.798c0,0,5.904-25.086-2.413-44.604c0,0-14.557,9.913-20.817,16.567
		C132.682,76.59,124.221,55.321,115.519,47.927"/>
	<path style="fill:#DA0D15;" d="M161.894,154.985c-1.043,0-2.158-0.027-3.338-0.092c-6.608-0.365-16.605-2.029-26.739-7.875
		c-1.271-0.086-21.201-0.293-31.813-0.393c-10.261,6.334-20.439,7.896-27.178,8.09c-7.325,0.21-12.293-1.108-12.343-1.122
		l-0.35-0.095l0.132-0.338c0.014-0.036,1.422-3.607,3.845-7.779c2.169-3.733,5.606-8.704,9.818-11.535
		c-1.15-0.718-4.386-2.856-8.286-6.453c-4.487-4.138-10.808-11.116-15.435-20.859l-0.186-0.392l0.428-0.069
		c0.157-0.025,15.534-2.49,24.264-1.837c-0.336-1.573-1.456-7.256-1.823-14.607c-0.399-7.983,0.034-19.629,4.36-29.774l0.156-0.365
		l0.327,0.224c0.143,0.098,14.122,9.678,20.484,16.276c1.313-3.174,9.148-21.571,17.092-28.312l0.211-0.179l0.211,0.179
		c4.536,3.854,8.979,11.468,11.907,17.177c1.665,3.246,3.018,6.212,3.859,8.129c0.491,1.119,0.855,1.987,1.075,2.518
		c0.076,0.183,0.139,0.336,0.191,0.464c6.391-6.597,20.373-16.144,20.516-16.242l0.327-0.223l0.155,0.364
		c4.321,10.14,4.751,21.783,4.351,29.766c-0.368,7.35-1.489,13.034-1.825,14.606c8.731-0.652,24.107,1.812,24.264,1.837l0.428,0.069
		l-0.186,0.392c-4.627,9.742-10.939,16.72-15.42,20.859c-3.896,3.598-7.127,5.736-8.274,6.454c4.207,2.852,7.673,8,9.867,11.881
		c2.451,4.335,3.89,8.07,3.904,8.107l0.136,0.355l-0.372,0.079C170.593,154.279,167.197,154.985,161.894,154.985z M99.823,145.973
		l0.094,0.001c0.08,0.001,8.048,0.076,15.936,0.162c16.044,0.176,16.115,0.217,16.232,0.285c10.042,5.809,19.957,7.46,26.507,7.822
		c5.949,0.329,10.26-0.315,11.524-0.537c-0.936-2.3-6.306-14.856-13.801-19.593l-0.456-0.288l0.468-0.269
		c0.038-0.022,3.811-2.211,8.619-6.654c4.373-4.041,10.51-10.817,15.07-20.252c-2.602-0.401-16.347-2.423-24.113-1.728l-0.449,0.04
		l0.103-0.439c0.015-0.063,1.476-6.353,1.905-14.938c0.39-7.814-0.02-19.163-4.146-29.098c-2.195,1.514-14.791,10.296-20.435,16.295
		l-0.237-0.223l-0.31,0.098c-0.068-0.196-8.243-20.797-16.815-28.302C107.05,55.769,98.714,76.49,98.63,76.701l-0.19,0.475
		l-0.35-0.374c-5.618-5.999-18.202-14.804-20.396-16.323c-4.131,9.94-4.544,21.291-4.154,29.105
		c0.428,8.586,1.889,14.877,1.903,14.939l0.103,0.439l-0.449-0.04c-7.767-0.696-21.511,1.327-24.113,1.728
		c4.564,9.443,10.715,16.223,15.099,20.266c4.813,4.438,8.58,6.618,8.618,6.639l0.47,0.27l-0.459,0.288
		c-7.515,4.722-12.786,16.746-13.7,18.939c1.255,0.29,5.7,1.19,11.82,1.011c6.67-0.195,16.754-1.748,26.91-8.042L99.823,145.973z"/>
	<path style="fill:#3FA235;" d="M120.942,116.088l-5.259-10.529l-5.346,10.529C110.337,116.088,115.519,114.05,120.942,116.088"/>
	<path style="fill:#FFFFFF;" d="M109.66,116.703l6.025-11.867l5.919,11.848l-0.776-0.292c-5.236-1.969-10.321-0.022-10.372-0.002
		L109.66,116.703z M115.68,106.283l-4.695,9.247c1.562-0.46,5.287-1.264,9.311-0.008L115.68,106.283z"/>
	<path style="fill:#DA0D15;" d="M105.712,130.511c0,5.558,4.481,10.048,10.048,10.048c5.558,0,10.048-4.481,10.048-10.048
		c0-5.529-4.49-10.048-10.048-10.048S105.712,124.953,105.712,130.511"/>
	<path style="fill:#FFFFFF;" d="M115.76,140.884c-5.72,0-10.373-4.653-10.373-10.373c0-5.72,4.653-10.373,10.373-10.373
		s10.373,4.653,10.373,10.373C126.133,136.231,121.479,140.884,115.76,140.884z M115.76,120.788c-5.361,0-9.722,4.362-9.722,9.723
		c0,5.361,4.362,9.722,9.722,9.722c5.361,0,9.723-4.362,9.723-9.722C125.482,125.15,121.121,120.788,115.76,120.788z"/>
	<path style="fill:#DA0D15;" d="M131.124,131.453l2.5,9.48c0,0,11.625-3.625,16.624-6.904c0,0-14.259-7.577-16.971-8.865
		L131.124,131.453z"/>
	<path style="fill:#FFFFFF;" d="M133.397,141.346l-2.612-9.905l2.304-6.726l0.329,0.156c2.687,1.277,16.841,8.796,16.984,8.872
		l0.485,0.258l-0.46,0.301c-4.981,3.266-16.23,6.794-16.706,6.942L133.397,141.346z M131.464,131.465l2.388,9.055
		c1.849-0.593,11.12-3.634,15.749-6.465c-2.439-1.294-13.168-6.981-16.134-8.437L131.464,131.465z"/>
	<path style="fill:#3FA235;" d="M132.355,112.223l-7.759,2.202c0,0,4.673,10.365,4.779,11.654
		C129.403,126.049,132.413,114.185,132.355,112.223"/>
	<path style="fill:#FFFFFF;" d="M129.108,126.808l-0.058-0.702c-0.074-0.904-2.882-7.401-4.751-11.546l-0.155-0.344l8.524-2.419
		l0.012,0.417c0.025,0.848-0.468,3.451-1.466,7.736c-0.425,1.825-0.833,3.481-1.038,4.306c-0.49,1.971-0.49,1.971-0.571,2.052
		L129.108,126.808z M125.047,114.635c0.744,1.657,3.366,7.54,4.311,10.22c0.706-2.797,2.442-9.958,2.652-12.195L125.047,114.635z"/>
	<path style="fill:#DA0D15;" d="M135.903,111.31c0,0,7.442-1.558,14.153-2.336c0,0-4.298,9.557-8.779,15.576l-7.096-3.413
		C134.182,121.165,135.903,113.002,135.903,111.31"/>
	<path style="fill:#FFFFFF;" d="M141.379,124.959l-9.079-4.367l1.628,0.188c0.31-1.46,1.651-8.018,1.651-9.47v-0.264l0.259-0.054
		c0.074-0.016,7.534-1.57,14.182-2.341l0.569-0.066l-0.235,0.523c-0.043,0.096-4.364,9.659-8.814,15.637L141.379,124.959z
		 M134.554,120.954l6.622,3.185c3.754-5.118,7.388-12.723,8.342-14.775c-5.78,0.704-11.993,1.945-13.299,2.212
		c-0.055,0.866-0.341,2.659-0.854,5.341c-0.227,1.185-0.447,2.278-0.592,2.986c-0.081,0.395-0.149,0.72-0.196,0.947
		C134.568,120.887,134.561,120.921,134.554,120.954z"/>
	<path style="fill:#3FA235;" d="M153.999,108.54c0,0,13.827-0.163,20.836,0.856c0,0-11.952,17.192-21.105,22.124l-9.452-5.481
		C144.278,126.049,151.509,117.079,153.999,108.54"/>
	<path style="fill:#FFFFFF;" d="M153.724,131.893l-9.609-5.572l0.141-0.301l-0.224-0.193c0.07-0.083,7.212-9.002,9.655-17.378
		l0.067-0.231l0.241-0.003c0.139-0.002,13.933-0.152,20.887,0.859l0.521,0.076l-0.3,0.432c-0.49,0.705-12.101,17.312-21.218,22.225
		L153.724,131.893z M144.775,125.952l8.959,5.195c8.15-4.505,18.609-18.818,20.525-21.502c-6.524-0.855-18.199-0.796-20.017-0.782
		c-1.318,4.374-3.851,8.82-5.761,11.803c-1.102,1.72-2.114,3.143-2.77,4.033C145.26,125.313,144.971,125.704,144.775,125.952z"/>
	<path style="fill:#DA0D15;" d="M132.567,108.387l-9.269,2.577l-5.211-9.644c0,0,6.846-10.202,12.759-16.25
		C130.855,85.07,133.884,98.521,132.567,108.387"/>
	<path style="fill:#FFFFFF;" d="M123.135,111.347l-5.428-10.045l0.109-0.163c0.069-0.102,6.93-10.296,12.797-16.296l0.244-0.25
		l0.232,0.261c0.042,0.048,0.106,0.12,0.536,2.419c0.241,1.291,0.594,3.331,0.903,5.722c0.543,4.208,1.047,10.302,0.362,15.435
		l-0.028,0.213L123.135,111.347z M118.466,101.338l4.994,9.242l8.811-2.45c1.075-8.504-1.066-19.74-1.616-22.396
		C125.337,91.309,119.347,100.042,118.466,101.338z"/>
	<path style="fill:#3FA235;" d="M151.393,105.185c0,0-13.942,1.663-14.932,2.125c0,0,0.51-18.23-2.817-26.268
		c0,0,15.471-13.913,18.076-15.115C151.72,65.926,157.922,86.628,151.393,105.185"/>
	<path style="fill:#FFFFFF;" d="M136.121,107.827l0.015-0.526c0.005-0.182,0.469-18.253-2.793-26.135l-0.088-0.213l0.171-0.154
		c0.633-0.569,15.537-13.96,18.158-15.168l0.246-0.113l0.156,0.221c0.068,0.096,1.622,5.466,2.343,12.827
		c0.673,6.871,0.764,17.085-2.629,26.728l-0.067,0.191l-0.201,0.024c-5.584,0.666-14.142,1.774-14.833,2.097L136.121,107.827z
		 M134.031,81.131c2.978,7.494,2.822,22.883,2.766,25.748c2.434-0.551,12.401-1.758,14.357-1.993
		c3.279-9.457,3.19-19.461,2.533-26.208c-0.61-6.269-1.803-10.939-2.168-12.272C148.391,68.287,135.657,79.673,134.031,81.131z"/>
	<path style="fill:#DA0D15;" d="M100.183,131.53l-2.5,9.48c0,0-11.625-3.625-16.624-6.904c0,0,14.259-7.577,16.971-8.865
		L100.183,131.53z"/>
	<path style="fill:#FFFFFF;" d="M97.911,141.422l-0.325-0.101c-0.476-0.149-11.725-3.676-16.706-6.942l-0.46-0.301l0.485-0.258
		c0.143-0.076,14.297-7.595,16.984-8.872l0.329-0.157l2.304,6.726L97.911,141.422z M81.706,134.132
		c4.63,2.831,13.901,5.873,15.749,6.465l2.388-9.055l-2.003-5.848C94.875,127.151,84.146,132.837,81.706,134.132z"/>
	<path style="fill:#3FA235;" d="M98.952,112.271l7.759,2.202c0,0-4.673,10.365-4.779,11.654
		C101.904,126.136,98.866,114.233,98.952,112.271"/>
	<path style="fill:#FFFFFF;" d="M102.209,126.741l-0.472-0.355c-0.113-0.085-0.113-0.085-0.614-2.083
		c-0.205-0.815-0.612-2.459-1.044-4.308c-1.001-4.284-1.489-6.888-1.452-7.74l0.018-0.411l8.518,2.417l-0.155,0.344
		c-1.869,4.146-4.677,10.642-4.751,11.546L102.209,126.741z M99.292,112.706c0.189,2.24,1.941,9.424,2.654,12.208
		c0.942-2.675,3.57-8.571,4.315-10.23L99.292,112.706z"/>
	<path style="fill:#DA0D15;" d="M95.404,111.386c0,0-7.413-1.558-14.153-2.308c0,0,4.327,9.538,8.779,15.576l7.086-3.413
		C97.126,121.223,95.404,113.079,95.404,111.386"/>
	<path style="fill:#FFFFFF;" d="M89.928,125.066l-0.16-0.217c-4.421-5.997-8.77-15.539-8.813-15.635l-0.236-0.521l0.569,0.063
		c6.678,0.743,14.11,2.297,14.184,2.313l0.258,0.054v0.264c0,1.379,1.191,7.247,1.582,9.176c0.147,0.722,0.147,0.722,0.094,0.826
		l-0.05,0.099L89.928,125.066z M81.79,109.468c0.959,2.047,4.611,9.641,8.342,14.777l6.616-3.187c-0.02-0.1-0.046-0.227-0.074-0.366
		c-0.374-1.841-1.47-7.243-1.585-9.038C93.786,111.387,87.591,110.149,81.79,109.468z"/>
	<path style="fill:#3FA235;" d="M77.28,108.627c0,0-13.827-0.163-20.836,0.856c0,0,11.952,17.192,21.105,22.124l9.452-5.481
		C87.03,126.136,79.799,117.165,77.28,108.627"/>
	<path style="fill:#FFFFFF;" d="M77.555,131.98l-0.16-0.086c-9.117-4.913-20.728-21.521-21.218-22.225l-0.3-0.432l0.521-0.076
		c6.954-1.011,20.748-0.861,20.887-0.859l0.24,0.003l0.068,0.23c2.164,7.334,7.877,15.076,9.577,17.275
		c0.117,0.151,0.238,0.308,0.097,0.505l-0.041,0.057L77.555,131.98z M57.019,109.732c1.917,2.684,12.376,16.998,20.525,21.502
		l8.973-5.203c-1.848-2.409-7.292-9.894-9.48-17.08C75.221,108.935,63.544,108.877,57.019,109.732z"/>
	<path style="fill:#DA0D15;" d="M98.731,108.81l9.269,2.577l5.211-9.644c0,0-6.683-11.067-12.567-17.105
		C100.616,84.637,97.414,98.954,98.731,108.81"/>
	<path style="fill:#FFFFFF;" d="M108.163,111.769l-9.726-2.704l-0.028-0.213c-0.686-5.131-0.134-11.449,0.449-15.846
		c0.334-2.518,0.71-4.663,0.967-6.019c0.461-2.435,0.538-2.523,0.575-2.565l0.232-0.266l0.247,0.253
		c5.843,5.996,12.545,17.053,12.612,17.164l0.096,0.159L108.163,111.769z M99.026,108.554l8.811,2.449l4.999-9.251
		c-0.821-1.34-6.702-10.831-12.007-16.452C100.253,88.002,97.925,99.844,99.026,108.554z"/>
	<path style="fill:#3FA235;" d="M79.905,105.271c0,0,13.942,1.663,14.932,2.125c0,0-0.51-18.23,2.817-26.268
		c0,0-15.471-13.913-18.076-15.115C79.588,66.003,73.386,86.714,79.905,105.271"/>
	<path style="fill:#FFFFFF;" d="M95.177,107.914l-0.477-0.222c-0.692-0.322-9.25-1.431-14.833-2.097l-0.201-0.024l-0.067-0.191
		c-6.22-17.705-0.962-37.251-0.342-39.422l0.008-0.027l0.298,0.082l0.153-0.294c2.62,1.209,17.525,14.599,18.158,15.168l0.171,0.154
		l-0.088,0.213c-3.262,7.882-2.798,25.953-2.793,26.135L95.177,107.914z M80.145,104.972c1.957,0.235,11.922,1.442,14.356,1.993
		c-0.057-2.864-0.213-18.254,2.765-25.748c-1.626-1.458-14.356-12.84-17.485-14.724C78.856,69.884,74.351,88.239,80.145,104.972z"/>
	<path style="fill:#3FA235;" d="M115.702,97.56c-1.577-2.635-13.769-17.538-13.769-17.538s2.336-12.221,13.778-26.538h0.058
		c11.442,14.336,13.778,26.538,13.778,26.538S117.346,94.925,115.76,97.56H115.702z"/>
	<path style="fill:#FFFFFF;" d="M115.943,97.885h-0.426l-0.095-0.158c-1.547-2.584-13.62-17.35-13.741-17.499l-0.096-0.118
		l0.028-0.149c0.024-0.123,2.483-12.464,13.844-26.68l0.098-0.122h0.371l0.098,0.122c11.361,14.234,13.82,26.557,13.844,26.679
		l0.029,0.15l-0.096,0.118c-0.122,0.149-12.205,14.915-13.761,17.5L115.943,97.885z M102.284,79.937
		c1.189,1.455,11.25,13.783,13.448,17.066c2.206-3.282,12.275-15.61,13.466-17.066c-0.31-1.416-3.057-12.822-13.457-25.966
		C105.34,67.098,102.594,78.52,102.284,79.937z"/>
	<path style="fill:#3FA235;" d="M153.682,135.751c0,0,9.827,8.865,11.894,15.201c0,0-13.721,1.769-30.48-6.336
		C135.096,144.635,147.364,139.991,153.682,135.751"/>
	<path style="fill:#FFFFFF;" d="M162.061,151.439c-1.455,0-3.309-0.068-5.475-0.292c-5.06-0.523-12.913-2.027-21.599-6.222
		c-0.014-0.006-0.028-0.013-0.044-0.021l0.15-0.296l-0.091-0.303c0.104-0.034,12.175-4.58,18.498-8.824l0.211-0.142l0.189,0.17
		c0.404,0.364,9.915,8.996,11.985,15.342l0.122,0.373l-0.389,0.05C165.596,151.278,164.302,151.439,162.061,151.439z
		 M135.931,144.654c14.601,6.857,26.861,6.217,29.201,6.016c-2.097-5.671-10.152-13.276-11.483-14.507
		c-3.285,2.164-8.042,4.402-11.489,5.911c-2.022,0.885-3.791,1.608-4.918,2.059C136.664,144.365,136.242,144.533,135.931,144.654z"
		/>
	<path style="fill:#3FA235;" d="M77.732,135.751c0,0-9.827,8.865-11.894,15.201c0,0,13.721,1.769,30.48-6.336
		C96.318,144.635,84.02,139.991,77.732,135.751"/>
	<path style="fill:#FFFFFF;" d="M69.352,151.439c-2.241,0-3.535-0.161-3.556-0.164l-0.389-0.05l0.122-0.373
		c2.07-6.346,11.581-14.978,11.985-15.342l0.189-0.17l0.211,0.142c6.284,4.237,18.392,8.789,18.497,8.823l-0.096,0.293l0.155,0.306
		c-0.016,0.008-0.03,0.016-0.045,0.022c-8.687,4.195-16.539,5.699-21.599,6.222C72.662,151.371,70.807,151.439,69.352,151.439z
		 M66.281,150.67c1.056,0.093,4.135,0.281,8.503-0.173c4.875-0.506,12.37-1.933,20.697-5.843c-0.312-0.121-0.734-0.29-1.313-0.521
		c-1.13-0.451-2.902-1.174-4.925-2.059c-3.451-1.51-8.208-3.747-11.479-5.911C76.432,137.395,68.378,145.001,66.281,150.67z"/>
	<path style="fill:#1D1D1B;" d="M64.55,168.327c-0.24,0-0.481-0.029-0.721-0.077c-0.24-0.058-0.452-0.106-0.644-0.192
		c-0.212-0.077-0.375-0.163-0.538-0.269c-0.163-0.106-0.298-0.192-0.433-0.298c-0.163,0.029-0.327,0.077-0.481,0.135
		c-0.163,0.058-0.327,0.163-0.433,0.298c-0.106,0.135-0.24,0.298-0.327,0.51c-0.077,0.212-0.135,0.481-0.135,0.779
		c0,0.212,0,0.452,0.058,0.721c0.029,0.269,0.077,0.538,0.135,0.837c0.058,0.298,0.135,0.615,0.24,0.913
		c0.106,0.327,0.212,0.644,0.346,0.971l-1.529,0.5c-0.106-0.327-0.212-0.644-0.327-1.019c-0.106-0.346-0.192-0.721-0.269-1.077
		c-0.077-0.346-0.135-0.673-0.192-0.99c-0.058-0.327-0.077-0.587-0.077-0.808c0-0.346,0.058-0.644,0.106-0.942
		c0.077-0.269,0.163-0.51,0.269-0.721s0.24-0.404,0.404-0.567c0.163-0.163,0.327-0.298,0.452-0.404
		c0.163-0.106,0.327-0.212,0.481-0.298c0.163-0.077,0.327-0.163,0.452-0.212c0.135-0.452,0.269-0.856,0.433-1.183
		c0.163-0.327,0.346-0.616,0.51-0.856c0.192-0.24,0.375-0.433,0.567-0.587c0.192-0.154,0.375-0.269,0.567-0.346
		c0.192-0.077,0.375-0.135,0.538-0.192c0.192-0.029,0.327-0.058,0.481-0.058c0.327,0,0.615,0.058,0.885,0.135
		c0.269,0.077,0.481,0.212,0.702,0.346c0.212,0.135,0.375,0.298,0.51,0.51c0.163,0.192,0.269,0.375,0.375,0.587
		c0.106,0.212,0.163,0.404,0.212,0.615c0.058,0.212,0.077,0.404,0.077,0.587c0,0.298-0.058,0.587-0.135,0.837
		c0.212,0.106,0.452,0.192,0.721,0.24c0.269,0.058,0.538,0.077,0.808,0.077h0.058c0.135,0,0.212,0,0.269,0.029
		c0.077,0,0.106,0.058,0.135,0.077c0.029,0.029,0.058,0.077,0.058,0.135c0,0.058,0,0.135,0,0.212v0.452c0,0.106,0,0.192-0.029,0.269
		c0,0.058-0.029,0.106-0.077,0.135c-0.029,0.029-0.077,0.058-0.135,0.058c-0.077,0-0.163,0.029-0.24,0.029h-0.058
		c-0.481,0-0.913-0.058-1.231-0.192c-0.327-0.135-0.615-0.298-0.856-0.51c-0.212,0.24-0.51,0.404-0.836,0.538
		C65.405,168.27,65.001,168.327,64.55,168.327 M65.751,165.769c0-0.135-0.029-0.298-0.077-0.452
		c-0.058-0.163-0.135-0.327-0.24-0.481c-0.106-0.163-0.24-0.269-0.404-0.375c-0.163-0.106-0.346-0.163-0.567-0.163
		c-0.212,0-0.404,0.058-0.567,0.192c-0.192,0.135-0.327,0.298-0.481,0.481c-0.135,0.212-0.24,0.433-0.346,0.702
		c-0.106,0.269-0.192,0.538-0.24,0.808c0.058,0.058,0.135,0.106,0.269,0.163c0.106,0.058,0.24,0.106,0.404,0.135
		c0.135,0.058,0.298,0.077,0.452,0.106c0.163,0.029,0.298,0.058,0.433,0.058c0.212,0,0.404-0.029,0.567-0.058
		c0.163-0.029,0.327-0.077,0.433-0.192c0.106-0.077,0.212-0.212,0.269-0.346C65.732,166.202,65.751,166.01,65.751,165.769"/>
	<path style="fill:#1D1D1B;" d="M70.915,166.875c0.106,0,0.212,0,0.298,0.029c0.058,0,0.106,0.058,0.135,0.077
		c0.029,0.029,0.058,0.077,0.058,0.135c0,0.058,0,0.135,0,0.212v0.452c0,0.106,0,0.192,0,0.269
		c-0.029,0.058-0.058,0.106-0.077,0.135c-0.029,0.029-0.077,0.058-0.163,0.058c-0.058,0-0.135,0-0.24,0h-2.404
		c-0.106,0-0.192,0-0.24,0c-0.058,0-0.106-0.029-0.135-0.058c-0.029-0.029-0.058-0.077-0.077-0.135
		c-0.029-0.058-0.029-0.163-0.029-0.269v-0.452c0-0.077,0-0.163,0-0.212c0-0.048,0.029-0.106,0.058-0.135
		c0.029-0.029,0.077-0.077,0.135-0.077c0.058-0.029,0.163-0.029,0.269-0.029H70.915z"/>
	<path style="fill:#1D1D1B;" d="M73.059,166.875c0.135,0,0.212,0,0.298,0.029c0.058,0,0.135,0.058,0.135,0.077
		c0.029,0.029,0.058,0.077,0.058,0.135c0,0.058,0,0.135,0,0.212v0.452c0,0.106,0,0.192-0.029,0.269
		c-0.029,0.058-0.029,0.106-0.077,0.135c-0.058,0.029-0.106,0.058-0.163,0.058c-0.058,0-0.135,0-0.24,0h-2.394
		c-0.106,0-0.192,0-0.24,0s-0.106-0.029-0.163-0.058c-0.029-0.029-0.058-0.077-0.077-0.135c0-0.058-0.029-0.163-0.029-0.269v-0.452
		c0-0.077,0-0.163,0.029-0.212c0-0.058,0.029-0.106,0.058-0.135c0.029-0.029,0.077-0.077,0.135-0.077
		c0.058-0.029,0.163-0.029,0.269-0.029H73.059z"/>
	<path style="fill:#1D1D1B;" d="M75.232,166.875c0.135,0,0.212,0,0.298,0.029c0.058,0,0.106,0.058,0.135,0.077
		c0.029,0.029,0.058,0.077,0.058,0.135c0,0.058,0,0.135,0,0.212v0.452c0,0.106,0,0.192-0.029,0.269
		c-0.029,0.058-0.058,0.106-0.077,0.135c-0.029,0.029-0.077,0.058-0.163,0.058c-0.058,0-0.163,0-0.24,0h-2.394
		c-0.106,0-0.192,0-0.24,0c-0.058,0-0.106-0.029-0.135-0.058c-0.029-0.029-0.058-0.077-0.077-0.135c0-0.058-0.029-0.163-0.029-0.269
		v-0.452c0-0.077,0-0.163,0-0.212c0-0.048,0.029-0.106,0.058-0.135c0.029-0.029,0.077-0.077,0.135-0.077
		c0.058-0.029,0.163-0.029,0.269-0.029H75.232z"/>
	<path style="fill:#1D1D1B;" d="M77.386,166.875c0.135,0,0.212,0,0.298,0.029c0.058,0,0.106,0.058,0.135,0.077
		c0.029,0.029,0.058,0.077,0.058,0.135c0,0.058,0,0.135,0,0.212v0.452c0,0.106,0,0.192-0.029,0.269
		c-0.029,0.058-0.058,0.106-0.077,0.135c-0.029,0.029-0.077,0.058-0.163,0.058c-0.058,0-0.163,0-0.24,0h-2.404
		c-0.106,0-0.192,0-0.24,0c-0.058,0-0.106-0.029-0.135-0.058c-0.029-0.029-0.058-0.077-0.077-0.135
		c-0.029-0.058-0.029-0.163-0.029-0.269v-0.452c0-0.077,0-0.163,0-0.212c0-0.048,0.029-0.106,0.058-0.135
		c0.029-0.029,0.077-0.077,0.135-0.077c0.058-0.029,0.163-0.029,0.269-0.029H77.386z"/>
	<path style="fill:#1D1D1B;" d="M79.559,166.875c0.135,0,0.212,0,0.298,0.029c0.058,0,0.106,0.058,0.135,0.077
		c0.029,0.029,0.058,0.077,0.058,0.135c0,0.058,0,0.135,0,0.212v0.452c0,0.106,0,0.192-0.029,0.269c0,0.058-0.029,0.106-0.058,0.135
		c-0.058,0.029-0.106,0.058-0.163,0.058c-0.058,0-0.163,0-0.24,0h-2.394c-0.106,0-0.192,0-0.24,0c-0.058,0-0.106-0.029-0.135-0.058
		c-0.029-0.029-0.058-0.077-0.077-0.135c-0.029-0.058-0.029-0.163-0.029-0.269v-0.452c0-0.077,0-0.163,0-0.212
		c0-0.048,0.029-0.106,0.058-0.135c0.029-0.029,0.077-0.077,0.135-0.077c0.058-0.029,0.163-0.029,0.269-0.029H79.559z"/>
	<path style="fill:#1D1D1B;" d="M81.732,166.875c0.106,0,0.212,0,0.269,0.029c0.058,0,0.135,0.058,0.135,0.077
		c0.029,0.029,0.058,0.077,0.058,0.135c0,0.058,0,0.135,0,0.212v0.452c0,0.106,0,0.192-0.029,0.269c0,0.058-0.029,0.106-0.077,0.135
		c-0.029,0.029-0.077,0.058-0.163,0.058c-0.058,0-0.135,0-0.24,0H79.27c-0.106,0-0.192,0-0.24,0c-0.058,0-0.106-0.029-0.163-0.058
		c-0.029-0.029-0.058-0.077-0.077-0.135c-0.029-0.058-0.029-0.163-0.029-0.269v-0.452v-0.212c0.029-0.058,0.029-0.106,0.058-0.135
		c0.029-0.029,0.077-0.077,0.163-0.077c0.058-0.029,0.163-0.029,0.269-0.029H81.732z"/>
	<path style="fill:#1D1D1B;" d="M83.886,166.875c0.135,0,0.212,0,0.298,0.029c0.058,0,0.135,0.058,0.135,0.077
		c0.029,0.029,0.058,0.077,0.058,0.135c0,0.058,0,0.135,0,0.212v0.452c0,0.106,0,0.192-0.029,0.269
		c-0.029,0.058-0.029,0.106-0.077,0.135c-0.029,0.029-0.077,0.058-0.163,0.058c-0.058,0-0.135,0-0.24,0h-2.394
		c-0.106,0-0.192,0-0.24,0c-0.058,0-0.106-0.029-0.163-0.058c-0.029-0.029-0.058-0.077-0.077-0.135c0-0.058-0.029-0.163-0.029-0.269
		v-0.452c0-0.077,0-0.163,0-0.212c0-0.048,0.029-0.106,0.058-0.135c0.029-0.029,0.077-0.077,0.163-0.077
		c0.058-0.029,0.163-0.029,0.269-0.029H83.886z"/>
	<path style="fill:#1D1D1B;" d="M86.972,166.173c0,0.077,0,0.163,0,0.212c0,0.077-0.029,0.135-0.029,0.212
		c0.212,0.077,0.433,0.134,0.673,0.192c0.24,0.058,0.481,0.058,0.75,0.058h0.058c0.135,0,0.212,0,0.298,0.029
		c0.077,0.029,0.106,0.058,0.135,0.077c0.029,0.029,0.058,0.077,0.058,0.135c0,0.058,0,0.135,0,0.212v0.433c0,0.106,0,0.192,0,0.269
		c0,0.058-0.058,0.106-0.077,0.135c-0.029,0.029-0.077,0.058-0.163,0.058c-0.058,0-0.135,0-0.24,0h-0.058
		c-0.433,0-0.779-0.058-1.077-0.135c-0.298-0.106-0.567-0.212-0.779-0.375c-0.135,0.163-0.327,0.298-0.538,0.375
		c-0.212,0.077-0.481,0.135-0.808,0.135h-1.288c-0.106,0-0.192,0-0.24,0c-0.058,0-0.135-0.029-0.163-0.058
		c-0.029-0.029-0.077-0.077-0.077-0.135c0-0.058,0-0.163,0-0.269v-0.433c0-0.077,0-0.163,0-0.212c0-0.058,0.029-0.106,0.058-0.135
		c0.029-0.029,0.077-0.058,0.135-0.077c0.058,0,0.163-0.029,0.269-0.029h0.721c0.135,0,0.269-0.029,0.346-0.058
		c0.106-0.029,0.192-0.077,0.24-0.163c0.058-0.077,0.106-0.163,0.135-0.298c0.029-0.106,0.058-0.269,0.058-0.433v-6.817h1.635
		L86.972,166.173L86.972,166.173z"/>
	<path style="fill:#1D1D1B;" d="M90.597,166.875c0.106,0,0.212,0,0.269,0.029c0.058,0,0.135,0.058,0.135,0.077
		c0.029,0.029,0.058,0.077,0.058,0.135c0,0.058,0,0.135,0,0.212v0.452c0,0.106,0,0.192-0.029,0.269c0,0.058-0.029,0.106-0.077,0.135
		c-0.029,0.029-0.077,0.058-0.163,0.058c-0.058,0-0.163,0-0.24,0h-2.394c-0.106,0-0.192,0-0.24,0c-0.058,0-0.106-0.029-0.163-0.058
		c-0.029-0.029-0.058-0.077-0.058-0.135c-0.029-0.058-0.029-0.163-0.029-0.269v-0.452c0-0.077,0-0.163,0-0.212
		c0-0.048,0.029-0.106,0.058-0.135c0.029-0.029,0.077-0.077,0.163-0.077c0.058-0.029,0.163-0.029,0.269-0.029H90.597z"/>
	<path style="fill:#1D1D1B;" d="M92.741,166.875c0.106,0,0.212,0,0.269,0.029c0.058,0,0.106,0.058,0.135,0.077
		c0.029,0.029,0.058,0.077,0.058,0.135c0,0.058,0,0.135,0,0.212v0.452c0,0.106,0,0.192-0.029,0.269c0,0.058-0.058,0.106-0.077,0.135
		c-0.029,0.029-0.077,0.058-0.163,0.058c-0.058,0-0.135,0-0.24,0H90.28c-0.106,0-0.192,0-0.24,0c-0.048,0-0.106-0.029-0.163-0.058
		c-0.029-0.029-0.058-0.077-0.077-0.135c-0.029-0.058-0.029-0.163-0.029-0.269v-0.452c0-0.077,0-0.163,0-0.212
		c0-0.048,0.029-0.106,0.058-0.135c0.029-0.029,0.077-0.077,0.135-0.077c0.058-0.029,0.163-0.029,0.298-0.029H92.741z"/>
	<path style="fill:#1D1D1B;" d="M94.924,166.875c0.106,0,0.212,0,0.269,0.029c0.058,0,0.135,0.058,0.135,0.077
		c0.029,0.029,0.058,0.077,0.058,0.135c0,0.058,0,0.135,0,0.212v0.452c0,0.106,0,0.192-0.029,0.269c0,0.058-0.058,0.106-0.077,0.135
		c-0.029,0.029-0.106,0.058-0.163,0.058s-0.163,0-0.24,0h-2.413c-0.106,0-0.192,0-0.24,0c-0.058,0-0.106-0.029-0.135-0.058
		c-0.029-0.029-0.058-0.077-0.077-0.135c-0.029-0.058-0.029-0.163-0.029-0.269v-0.452c0-0.077,0-0.163,0-0.212
		c0-0.048,0.029-0.106,0.058-0.135c0.029-0.029,0.077-0.077,0.163-0.077c0.058-0.029,0.163-0.029,0.269-0.029H94.924z"/>
	<path style="fill:#1D1D1B;" d="M97.068,166.875c0.135,0,0.212,0,0.269,0.029c0.058,0,0.135,0.058,0.135,0.077
		c0.029,0.029,0.058,0.077,0.058,0.135c0,0.058,0,0.135,0,0.212v0.452c0,0.106,0,0.192,0,0.269
		c-0.029,0.058-0.029,0.106-0.077,0.135c-0.029,0.029-0.077,0.058-0.163,0.058c-0.058,0-0.163,0-0.24,0h-2.394
		c-0.106,0-0.192,0-0.24,0c-0.058,0-0.106-0.029-0.135-0.058c-0.029-0.029-0.058-0.077-0.077-0.135c0-0.058-0.029-0.163-0.029-0.269
		v-0.452c0-0.077,0-0.163,0-0.212c0-0.048,0.029-0.106,0.058-0.135c0.029-0.029,0.077-0.077,0.163-0.077
		c0.058-0.029,0.163-0.029,0.269-0.029H97.068z"/>
	<path style="fill:#1D1D1B;" d="M99.241,166.875c0.135,0,0.212,0,0.298,0.029c0.058,0,0.106,0.058,0.135,0.077
		c0.029,0.029,0.058,0.077,0.058,0.135c0,0.058,0,0.135,0,0.212v0.452c0,0.106,0,0.192,0,0.269
		c-0.029,0.058-0.058,0.106-0.077,0.135c-0.029,0.029-0.077,0.058-0.163,0.058c-0.058,0-0.135,0-0.24,0h-2.413
		c-0.106,0-0.192,0-0.24,0c-0.058,0-0.106-0.029-0.135-0.058c-0.029-0.029-0.058-0.077-0.077-0.135c0-0.058-0.029-0.163-0.029-0.269
		v-0.452c0-0.077,0-0.163,0-0.212c0-0.048,0.029-0.106,0.058-0.135c0.029-0.029,0.077-0.077,0.163-0.077
		c0.058-0.029,0.163-0.029,0.269-0.029H99.241z"/>
	<path style="fill:#1D1D1B;" d="M101.424,166.875c0.106,0,0.212,0,0.269,0.029c0.058,0,0.106,0.058,0.135,0.077
		c0.029,0.029,0.058,0.077,0.058,0.135c0,0.058,0,0.135,0,0.212v0.452c0,0.106,0,0.192-0.029,0.269c0,0.058-0.029,0.106-0.077,0.135
		c-0.029,0.029-0.077,0.058-0.163,0.058c-0.058,0-0.135,0-0.24,0h-2.413c-0.106,0-0.192,0-0.24,0c-0.058,0-0.106-0.029-0.163-0.058
		c-0.029-0.029-0.058-0.077-0.077-0.135c0-0.058-0.029-0.163-0.029-0.269v-0.452c0-0.077,0-0.163,0-0.212
		c0-0.048,0.029-0.106,0.058-0.135c0.029-0.029,0.077-0.077,0.163-0.077c0.058-0.029,0.163-0.029,0.269-0.029H101.424z"/>
	<path style="fill:#1D1D1B;" d="M109.289,167.76c0,0.106,0,0.192-0.029,0.269c0,0.058-0.029,0.106-0.077,0.135
		c-0.029,0.029-0.077,0.058-0.135,0.058c-0.058,0-0.163,0.029-0.24,0.029h-0.971c-0.327,0-0.615-0.029-0.885-0.077
		c-0.298-0.058-0.567-0.106-0.808-0.192c-0.24-0.058-0.452-0.135-0.644-0.212s-0.346-0.163-0.481-0.212
		c-0.192,0.077-0.375,0.163-0.587,0.269c-0.212,0.077-0.433,0.163-0.673,0.212c-0.24,0.058-0.481,0.106-0.75,0.163
		c-0.269,0.058-0.538,0.058-0.808,0.058h-0.837c-0.106,0-0.192,0-0.24-0.029c-0.077,0-0.106-0.029-0.163-0.058
		c-0.029-0.029-0.058-0.077-0.077-0.135c0-0.058-0.029-0.163-0.029-0.269v-0.433c0-0.077,0-0.163,0-0.212
		c0-0.058,0.029-0.106,0.058-0.135c0.029-0.029,0.077-0.058,0.163-0.077c0.058-0.029,0.163-0.029,0.269-0.029h0.913
		c0.346,0,0.644-0.029,0.913-0.058c0.298-0.058,0.481-0.077,0.644-0.135c-0.135-0.106-0.24-0.212-0.375-0.346
		c-0.134-0.135-0.24-0.269-0.346-0.404c-0.135-0.135-0.212-0.269-0.327-0.404c-0.106-0.135-0.192-0.24-0.269-0.346
		c-0.106-0.163-0.212-0.269-0.269-0.375c-0.077-0.077-0.135-0.163-0.163-0.192c0.029-0.077,0.058-0.192,0.077-0.327
		c0.058-0.135,0.077-0.24,0.135-0.346c0.058-0.106,0.106-0.212,0.163-0.327c0.077-0.077,0.135-0.163,0.192-0.192
		c0.135-0.077,0.327-0.163,0.51-0.24c0.192-0.077,0.433-0.163,0.673-0.212c0.241-0.058,0.51-0.135,0.808-0.192
		c0.298-0.058,0.587-0.058,0.913-0.058c0.269,0,0.51,0.029,0.779,0.077c0.269,0.058,0.51,0.135,0.721,0.24s0.404,0.24,0.538,0.433
		c0.135,0.163,0.212,0.375,0.212,0.615c0,0.135-0.029,0.269-0.058,0.452c-0.058,0.192-0.106,0.375-0.212,0.587
		c-0.106,0.212-0.24,0.452-0.433,0.721c-0.163,0.269-0.433,0.538-0.702,0.836c0.106,0.029,0.212,0.058,0.346,0.077
		c0.135,0.029,0.269,0.058,0.433,0.077c0.163,0.029,0.327,0.029,0.481,0.058c0.163,0.029,0.327,0.029,0.481,0.029h0.644
		c0.135,0,0.212,0,0.298,0.029c0.058,0.029,0.106,0.058,0.134,0.077c0.029,0.029,0.058,0.077,0.058,0.135c0,0.058,0,0.135,0,0.212
		L109.289,167.76L109.289,167.76z M105.125,166.116c0.212-0.163,0.375-0.298,0.51-0.452c0.135-0.135,0.269-0.298,0.346-0.433
		c0.077-0.135,0.135-0.24,0.192-0.375c0.029-0.106,0.058-0.212,0.058-0.269c0-0.106-0.029-0.192-0.077-0.269
		c-0.058-0.077-0.135-0.163-0.24-0.212c-0.106-0.058-0.212-0.106-0.346-0.135c-0.135-0.029-0.298-0.058-0.452-0.058
		c-0.106,0-0.212,0-0.346,0.029c-0.135,0.029-0.269,0.058-0.404,0.077c-0.135,0.029-0.269,0.077-0.404,0.135
		c-0.135,0.058-0.269,0.106-0.375,0.163c0.058,0.106,0.163,0.241,0.269,0.404c0.106,0.163,0.24,0.327,0.404,0.51
		c0.135,0.163,0.298,0.346,0.452,0.481C104.827,165.875,104.991,166.01,105.125,166.116"/>
	<path style="fill:#1D1D1B;" d="M108.721,168.27c-0.106,0-0.192,0-0.24,0c-0.058,0-0.106-0.029-0.163-0.058
		c-0.029-0.029-0.077-0.077-0.077-0.135c-0.029-0.058-0.029-0.163-0.029-0.269v-0.423c0-0.077,0-0.163,0-0.212
		c0-0.058,0.029-0.106,0.058-0.135c0.029-0.029,0.077-0.058,0.135-0.077c0.077,0,0.163-0.029,0.298-0.029h1.5v-7.731h1.635v9.134
		L108.721,168.27L108.721,168.27z"/>
	<rect x="113.558" y="159.135" style="fill:#1D1D1B;" width="1.663" height="9.135"/>
	<path style="fill:#1D1D1B;" d="M122.154,168.27c-0.404,0-0.779-0.058-1.106-0.192c-0.327-0.135-0.587-0.298-0.808-0.51
		c-0.221-0.212-0.375-0.452-0.51-0.75c-0.135-0.298-0.192-0.587-0.192-0.913c0-0.346,0.058-0.673,0.135-0.99
		c0.077-0.298,0.192-0.567,0.327-0.808s0.298-0.452,0.481-0.644c0.192-0.192,0.375-0.327,0.567-0.452
		c0.212-0.135,0.404-0.212,0.615-0.269c0.212-0.058,0.433-0.106,0.616-0.106c0.327,0,0.615,0.077,0.971,0.212
		c0.327,0.135,0.587,0.327,0.856,0.615c0.269,0.269,0.452,0.616,0.615,1.019c0.163,0.404,0.24,0.885,0.24,1.423
		c0,0.298-0.077,0.587-0.192,0.885c-0.135,0.298-0.298,0.538-0.51,0.75c-0.212,0.212-0.481,0.404-0.808,0.538
		c-0.298,0.135-0.644,0.192-1.019,0.192H122.154L122.154,168.27z M120.461,160.674c0-0.106,0.029-0.212,0.058-0.327
		c0.058-0.106,0.106-0.192,0.192-0.269c0.077-0.077,0.163-0.135,0.269-0.163c0.106-0.058,0.212-0.058,0.327-0.058
		c0.115,0,0.212,0.029,0.327,0.058c0.106,0.058,0.192,0.106,0.269,0.163c0.077,0.077,0.135,0.163,0.163,0.269
		c0.058,0.106,0.058,0.212,0.058,0.327c0,0.106-0.029,0.212-0.058,0.327c-0.058,0.106-0.106,0.192-0.163,0.269
		c-0.077,0.077-0.163,0.135-0.269,0.163c-0.106,0.058-0.212,0.058-0.327,0.058c-0.106,0-0.212-0.029-0.327-0.058
		c-0.077-0.058-0.192-0.106-0.269-0.163c-0.077-0.077-0.135-0.163-0.192-0.269C120.49,160.885,120.461,160.779,120.461,160.674
		 M121.077,165.693c0,0.404,0.106,0.702,0.327,0.885c0.212,0.192,0.51,0.298,0.856,0.298h0.135c0.163,0,0.327-0.029,0.433-0.106
		c0.135-0.077,0.24-0.163,0.327-0.269c0.077-0.106,0.135-0.24,0.192-0.375c0.058-0.135,0.058-0.298,0.058-0.452
		c0-0.298-0.029-0.538-0.106-0.779c-0.058-0.212-0.163-0.404-0.269-0.567c-0.106-0.163-0.212-0.269-0.346-0.346
		c-0.135-0.077-0.269-0.106-0.375-0.106c-0.163,0-0.298,0.029-0.452,0.106c-0.135,0.077-0.269,0.192-0.375,0.327
		c-0.106,0.163-0.212,0.346-0.269,0.567C121.134,165.125,121.077,165.366,121.077,165.693 M122.365,160.674
		c0-0.106,0-0.212,0.058-0.327c0.029-0.106,0.106-0.192,0.192-0.269c0.058-0.077,0.163-0.135,0.269-0.163
		c0.077-0.058,0.212-0.058,0.298-0.058c0.135,0,0.212,0.029,0.327,0.058c0.106,0.058,0.192,0.106,0.269,0.163
		c0.077,0.077,0.135,0.163,0.192,0.269s0.058,0.212,0.058,0.327c0,0.106-0.029,0.212-0.058,0.327
		c-0.058,0.106-0.106,0.192-0.192,0.269c-0.077,0.077-0.163,0.135-0.269,0.163c-0.077,0.058-0.192,0.058-0.327,0.058
		c-0.106,0-0.212-0.029-0.298-0.058c-0.106-0.058-0.192-0.106-0.269-0.163c-0.077-0.077-0.135-0.163-0.192-0.269
		C122.365,160.885,122.365,160.779,122.365,160.674"/>
	<path style="fill:#1D1D1B;" d="M125.509,169.481c0.375-0.077,0.673-0.163,0.913-0.269c0.212-0.106,0.404-0.24,0.538-0.404
		c0.135-0.163,0.212-0.346,0.24-0.567c0.058-0.212,0.077-0.481,0.077-0.779v-4.375h1.635v3.817h1.288c0.106,0,0.212,0,0.269,0.029
		c0.058,0,0.106,0.058,0.135,0.077c0.029,0.029,0.058,0.077,0.058,0.135c0,0.058,0,0.135,0,0.212v0.452c0,0.106,0,0.192-0.029,0.269
		c0,0.058-0.029,0.106-0.077,0.135c-0.029,0.029-0.077,0.058-0.163,0.058c-0.058,0-0.163,0-0.24,0h-1.365
		c-0.058,0.404-0.163,0.75-0.327,1.048c-0.163,0.298-0.346,0.538-0.615,0.75c-0.24,0.212-0.567,0.375-0.913,0.51
		s-0.75,0.24-1.231,0.298L125.509,169.481z"/>
	<path style="fill:#1D1D1B;" d="M132.355,166.875c0.106,0,0.212,0,0.298,0.029c0.058,0,0.106,0.058,0.135,0.077
		c0.029,0.029,0.058,0.077,0.058,0.135c0,0.058,0,0.135,0,0.212v0.452c0,0.106,0,0.192-0.029,0.269c0,0.058-0.029,0.106-0.058,0.135
		c-0.058,0.029-0.106,0.058-0.163,0.058c-0.058,0-0.163,0-0.241,0h-2.394c-0.106,0-0.192,0-0.24,0c-0.058,0-0.106-0.029-0.135-0.058
		c-0.029-0.029-0.058-0.077-0.077-0.135c0-0.058-0.029-0.163-0.029-0.269v-0.452c0-0.077,0-0.163,0-0.212
		c0-0.048,0.029-0.106,0.058-0.135c0.029-0.029,0.077-0.077,0.135-0.077c0.058-0.029,0.163-0.029,0.269-0.029H132.355z"/>
	<path style="fill:#1D1D1B;" d="M134.528,166.875c0.106,0,0.212,0,0.269,0.029c0.077,0,0.135,0.058,0.135,0.077
		c0.029,0.029,0.058,0.077,0.058,0.135c0,0.058,0,0.135,0,0.212v0.452c0,0.106,0,0.192-0.029,0.269c0,0.058-0.029,0.106-0.077,0.135
		c-0.029,0.029-0.077,0.058-0.163,0.058c-0.058,0-0.163,0-0.24,0h-2.394c-0.106,0-0.192,0-0.24,0c-0.058,0-0.106-0.029-0.135-0.058
		c-0.029-0.029-0.058-0.077-0.077-0.135c0-0.058-0.029-0.163-0.029-0.269v-0.452c0-0.077,0-0.163,0-0.212
		c0-0.048,0.029-0.106,0.058-0.135c0.029-0.029,0.077-0.077,0.135-0.077c0.058-0.029,0.163-0.029,0.269-0.029H134.528z"/>
	<path style="fill:#1D1D1B;" d="M136.682,166.875c0.106,0,0.212,0,0.269,0.029c0.058,0,0.106,0.058,0.135,0.077
		c0.029,0.019,0.058,0.077,0.058,0.135c0,0.058,0,0.135,0,0.212v0.452c0,0.106,0,0.192-0.029,0.269c0,0.058-0.029,0.106-0.077,0.135
		c-0.029,0.029-0.077,0.058-0.163,0.058c-0.058,0-0.163,0-0.24,0h-2.394c-0.106,0-0.192,0-0.24,0c-0.048,0-0.106-0.029-0.163-0.058
		c-0.029-0.029-0.058-0.077-0.077-0.135c-0.029-0.058-0.029-0.163-0.029-0.269v-0.452c0-0.077,0-0.163,0.029-0.212
		c0-0.058,0.029-0.106,0.058-0.135c0.029-0.029,0.077-0.077,0.163-0.077c0.058-0.029,0.163-0.029,0.269-0.029H136.682z"/>
	<path style="fill:#1D1D1B;" d="M138.855,166.875c0.135,0,0.212,0,0.298,0.029c0.058,0,0.106,0.058,0.135,0.077
		c0.029,0.029,0.058,0.077,0.058,0.135c0,0.058,0,0.135,0,0.212v0.452c0,0.106,0,0.192-0.029,0.269
		c-0.029,0.058-0.058,0.106-0.077,0.135c-0.058,0.029-0.106,0.058-0.163,0.058s-0.163,0-0.269,0h-2.394c-0.106,0-0.192,0-0.241,0
		c-0.058,0-0.106-0.029-0.135-0.058c-0.029-0.029-0.058-0.077-0.077-0.135c0-0.058-0.029-0.163-0.029-0.269v-0.452
		c0-0.077,0-0.163,0-0.212c0-0.048,0.029-0.106,0.058-0.135c0.029-0.029,0.077-0.077,0.135-0.077
		c0.058-0.029,0.163-0.029,0.269-0.029H138.855z"/>
	<path style="fill:#1D1D1B;" d="M140.999,166.875c0.135,0,0.212,0,0.298,0.029c0.058,0,0.106,0.058,0.135,0.077
		c0.029,0.029,0.058,0.077,0.058,0.135c0,0.058,0,0.135,0,0.212v0.452c0,0.106,0,0.192-0.029,0.269c0,0.058-0.029,0.106-0.077,0.135
		c-0.029,0.029-0.077,0.058-0.163,0.058c-0.058,0-0.163,0-0.24,0h-2.394c-0.106,0-0.192,0-0.24,0c-0.048,0-0.106-0.029-0.135-0.058
		c-0.029-0.029-0.058-0.077-0.077-0.135c0-0.058-0.029-0.163-0.029-0.269v-0.452c0-0.077,0-0.163,0-0.212
		c0-0.048,0.029-0.106,0.058-0.135c0.029-0.029,0.077-0.077,0.135-0.077c0.058-0.029,0.163-0.029,0.269-0.029H140.999z"/>
	<path style="fill:#1D1D1B;" d="M143.182,166.875c0.135,0,0.212,0,0.269,0.029c0.058,0,0.135,0.058,0.135,0.077
		c0.029,0.029,0.058,0.077,0.058,0.135c0,0.058,0,0.135,0,0.212v0.452c0,0.106,0,0.192-0.029,0.269c0,0.058-0.029,0.106-0.058,0.135
		c-0.058,0.029-0.106,0.058-0.163,0.058c-0.058,0-0.163,0-0.24,0h-2.394c-0.106,0-0.192,0-0.24,0c-0.048,0-0.106-0.029-0.135-0.058
		c-0.029-0.029-0.058-0.077-0.077-0.135c0-0.058-0.029-0.163-0.029-0.269v-0.452c0-0.077,0-0.163,0-0.212
		c0-0.048,0.029-0.106,0.058-0.135c0.029-0.029,0.077-0.077,0.135-0.077c0.058-0.029,0.163-0.029,0.269-0.029H143.182z"/>
	<path style="fill:#1D1D1B;" d="M145.355,166.875c0.106,0,0.212,0,0.269,0.029c0.058,0,0.135,0.058,0.135,0.077
		c0.029,0.029,0.058,0.077,0.058,0.135c0,0.058,0,0.135,0,0.212v0.452c0,0.106,0,0.192-0.029,0.269c0,0.058-0.029,0.106-0.077,0.135
		c-0.029,0.029-0.077,0.058-0.163,0.058c-0.058,0-0.163,0-0.24,0h-2.413c-0.106,0-0.192,0-0.24,0c-0.058,0-0.106-0.029-0.163-0.058
		c-0.029-0.029-0.058-0.077-0.077-0.135c-0.029-0.058-0.029-0.163-0.029-0.269v-0.452c0-0.077,0-0.163,0.029-0.212
		c0-0.058,0.029-0.106,0.058-0.135c0.029-0.029,0.077-0.077,0.163-0.077c0.058-0.029,0.163-0.029,0.269-0.029H145.355z"/>
	<path style="fill:#1D1D1B;" d="M147.499,166.875c0.135,0,0.212,0,0.298,0.029c0.058,0,0.106,0.058,0.135,0.077
		c0.029,0.029,0.058,0.077,0.058,0.135c0,0.058,0,0.135,0,0.212v0.452c0,0.106,0,0.192-0.029,0.269
		c-0.029,0.058-0.029,0.106-0.077,0.135c-0.058,0.029-0.106,0.058-0.163,0.058c-0.058,0-0.135,0-0.241,0h-2.394
		c-0.106,0-0.192,0-0.24,0c-0.048,0-0.106-0.029-0.163-0.058c-0.029-0.029-0.058-0.077-0.077-0.135c0-0.058-0.029-0.163-0.029-0.269
		v-0.452c0-0.077,0-0.163,0.029-0.212c0-0.058,0.029-0.106,0.058-0.135c0.029-0.029,0.077-0.077,0.163-0.077
		c0.058-0.029,0.163-0.029,0.269-0.029H147.499z"/>
	<path style="fill:#1D1D1B;" d="M147.451,168.27c-0.106,0-0.192,0-0.24,0c-0.077,0-0.106-0.029-0.163-0.058
		c-0.058-0.029-0.058-0.077-0.077-0.135c0-0.058,0-0.163,0-0.269v-0.452v-0.24c0-0.058,0.029-0.106,0.058-0.135
		c0.029-0.029,0.077-0.058,0.135-0.077c0.077-0.029,0.163-0.029,0.298-0.029h1.635v-3.817h1.635v5.211L147.451,168.27
		L147.451,168.27z M147.903,170.067c0-0.106,0.029-0.212,0.058-0.327c0.058-0.106,0.106-0.192,0.192-0.269
		c0.087-0.077,0.163-0.135,0.269-0.163c0.077-0.058,0.212-0.058,0.327-0.058c0.106,0,0.212,0.029,0.327,0.058
		c0.106,0.058,0.192,0.106,0.269,0.163c0.077,0.077,0.135,0.163,0.163,0.269c0.058,0.106,0.058,0.212,0.058,0.327
		c0,0.106-0.029,0.212-0.058,0.327c-0.029,0.106-0.106,0.192-0.163,0.269c-0.077,0.077-0.163,0.135-0.269,0.192
		c-0.106,0.058-0.192,0.058-0.327,0.058c-0.106,0-0.212-0.029-0.327-0.058c-0.106-0.058-0.192-0.106-0.269-0.192
		c-0.077-0.077-0.135-0.163-0.192-0.269C147.903,170.308,147.903,170.202,147.903,170.067 M149.787,170.067
		c0-0.106,0.029-0.212,0.058-0.327c0.058-0.106,0.106-0.192,0.192-0.269c0.077-0.077,0.163-0.135,0.24-0.163
		c0.106-0.058,0.212-0.058,0.327-0.058c0.116,0,0.212,0.029,0.327,0.058c0.106,0.058,0.192,0.106,0.269,0.163
		c0.077,0.077,0.135,0.163,0.192,0.269c0.029,0.106,0.058,0.212,0.058,0.327c0,0.106-0.029,0.212-0.058,0.327
		c-0.058,0.106-0.106,0.192-0.192,0.269c-0.077,0.077-0.163,0.135-0.269,0.192c-0.077,0.058-0.212,0.058-0.327,0.058
		c-0.135,0-0.212-0.029-0.327-0.058c-0.106-0.058-0.192-0.106-0.24-0.192c-0.077-0.077-0.135-0.163-0.192-0.269
		C149.816,170.308,149.787,170.202,149.787,170.067"/>
	<path style="fill:#1D1D1B;" d="M151.528,169.481c0.375-0.077,0.673-0.163,0.885-0.269c0.212-0.106,0.404-0.24,0.538-0.404
		c0.135-0.163,0.212-0.346,0.24-0.587c0.058-0.212,0.058-0.481,0.058-0.779v-4.384h1.663v3.817h1.288c0.106,0,0.192,0,0.269,0.029
		c0.058,0.029,0.106,0.058,0.163,0.077c0.029,0.029,0.058,0.077,0.058,0.135c0,0.058,0,0.135,0,0.212v0.433
		c0,0.106,0,0.192-0.029,0.269c0,0.058-0.029,0.106-0.077,0.135c-0.029,0.029-0.077,0.058-0.163,0.058c-0.058,0-0.135,0-0.24,0
		h-1.365c-0.058,0.404-0.192,0.75-0.346,1.048c-0.135,0.298-0.346,0.538-0.615,0.75c-0.24,0.212-0.567,0.375-0.913,0.51
		c-0.346,0.135-0.75,0.24-1.231,0.298L151.528,169.481z M153.249,160.674c0-0.106,0.029-0.212,0.077-0.327
		c0.029-0.106,0.106-0.192,0.163-0.269c0.077-0.077,0.163-0.135,0.269-0.163c0.077-0.058,0.192-0.058,0.298-0.058
		c0.106,0,0.212,0.029,0.327,0.058c0.106,0.058,0.192,0.106,0.269,0.163c0.077,0.077,0.135,0.163,0.192,0.269
		c0.058,0.106,0.058,0.212,0.058,0.327c0,0.106-0.029,0.212-0.058,0.327c-0.029,0.106-0.106,0.192-0.192,0.269
		c-0.077,0.077-0.163,0.135-0.269,0.163c-0.077,0.058-0.212,0.058-0.327,0.058c-0.106,0-0.212-0.029-0.298-0.058
		c-0.106-0.058-0.192-0.106-0.269-0.163c-0.058-0.077-0.135-0.163-0.163-0.269C153.278,160.885,153.249,160.779,153.249,160.674"/>
	<path style="fill:#1D1D1B;" d="M158.355,166.875c0.135,0,0.212,0,0.298,0.029c0.058,0,0.106,0.058,0.135,0.077
		c0.029,0.029,0.058,0.077,0.058,0.135c0,0.058,0,0.135,0,0.212v0.452c0,0.106,0,0.192,0,0.269
		c-0.029,0.058-0.058,0.106-0.077,0.135c-0.029,0.029-0.077,0.058-0.163,0.058c-0.058,0-0.135,0-0.24,0h-2.394
		c-0.106,0-0.192,0-0.24,0c-0.058,0-0.106-0.029-0.135-0.058c-0.029-0.029-0.058-0.077-0.077-0.135c0-0.058-0.029-0.163-0.029-0.269
		v-0.452c0-0.077,0-0.163,0-0.212c0-0.048,0.029-0.106,0.058-0.135c0.029-0.029,0.077-0.077,0.135-0.077
		c0.058-0.029,0.163-0.029,0.269-0.029H158.355z"/>
	<path style="fill:#1D1D1B;" d="M160.528,166.875c0.135,0,0.212,0,0.269,0.029c0.058,0,0.135,0.058,0.135,0.077
		c0.058,0.029,0.058,0.077,0.058,0.135c0,0.058,0,0.135,0,0.212v0.452c0,0.106,0,0.192-0.029,0.269c0,0.058-0.029,0.106-0.077,0.135
		c-0.029,0.029-0.077,0.058-0.163,0.058c-0.058,0-0.135,0-0.24,0h-2.365c-0.106,0-0.192,0-0.24,0c-0.048,0-0.106-0.029-0.135-0.058
		c-0.029-0.029-0.058-0.077-0.077-0.135c0-0.058-0.029-0.163-0.029-0.269v-0.452c0-0.077,0-0.163,0-0.212
		c0-0.048,0.029-0.106,0.058-0.135c0.029-0.029,0.077-0.077,0.135-0.077c0.058-0.029,0.163-0.029,0.269-0.029H160.528z"/>
	<path style="fill:#1D1D1B;" d="M162.672,166.875c0.135,0,0.212,0,0.298,0.029c0.058,0,0.135,0.058,0.135,0.077
		c0.029,0.029,0.058,0.077,0.058,0.135c0,0.058,0,0.135,0,0.212v0.452c0,0.106,0,0.192-0.029,0.269
		c-0.029,0.058-0.029,0.106-0.077,0.135c-0.029,0.029-0.077,0.058-0.163,0.058c-0.058,0-0.135,0-0.24,0h-2.394
		c-0.106,0-0.192,0-0.24,0c-0.058,0-0.106-0.029-0.163-0.058c-0.029-0.029-0.058-0.077-0.077-0.135c0-0.058-0.029-0.163-0.029-0.269
		v-0.452c0-0.077,0-0.163,0.029-0.212c0-0.058,0.029-0.106,0.058-0.135c0.029-0.029,0.077-0.077,0.163-0.077
		c0.058-0.029,0.163-0.029,0.269-0.029H162.672z"/>
	<path style="fill:#1D1D1B;" d="M164.854,166.875c0.135,0,0.212,0,0.298,0.029c0.058,0,0.106,0.058,0.135,0.077
		c0.029,0.029,0.058,0.077,0.058,0.135c0,0.058,0,0.135,0,0.212v0.452c0,0.106,0,0.192-0.029,0.269
		c-0.029,0.058-0.058,0.106-0.077,0.135c-0.029,0.029-0.106,0.058-0.163,0.058c-0.058,0-0.163,0-0.24,0h-2.394
		c-0.106,0-0.192,0-0.269,0c-0.058,0-0.106-0.029-0.135-0.058c-0.029-0.029-0.058-0.077-0.077-0.135
		c0-0.058-0.029-0.163-0.029-0.269v-0.452c0-0.077,0-0.163,0-0.212c0-0.048,0.029-0.106,0.058-0.135
		c0.029-0.029,0.077-0.077,0.163-0.077c0.058-0.029,0.163-0.029,0.298-0.029H164.854z"/>
	<path style="fill:#1D1D1B;" d="M167.027,166.875c0.106,0,0.212,0,0.269,0.029c0.077,0,0.135,0.058,0.163,0.077
		c0.029,0.029,0.058,0.077,0.058,0.135c0,0.058,0,0.135,0,0.212v0.452c0,0.106,0,0.192-0.029,0.269c0,0.058-0.058,0.106-0.077,0.135
		c-0.029,0.029-0.106,0.058-0.163,0.058c-0.058,0-0.163,0-0.24,0h-2.413c-0.106,0-0.192,0-0.24,0c-0.048,0-0.106-0.029-0.135-0.058
		c-0.029-0.029-0.058-0.077-0.077-0.135c-0.029-0.058-0.029-0.163-0.029-0.269v-0.452c0-0.077,0-0.163,0-0.212
		c0-0.048,0.029-0.106,0.058-0.135c0.029-0.029,0.077-0.077,0.135-0.077c0.058-0.029,0.163-0.029,0.298-0.029H167.027z"/>
	<path style="fill:#1D1D1B;" d="M169.172,166.875c0.135,0,0.212,0,0.269,0.029c0.058,0,0.135,0.058,0.135,0.077
		c0.029,0.029,0.058,0.077,0.058,0.135c0,0.058,0,0.135,0,0.212v0.452c0,0.106,0,0.192-0.029,0.269c0,0.058-0.029,0.106-0.058,0.135
		c-0.029,0.029-0.106,0.058-0.163,0.058s-0.163,0-0.24,0h-2.394c-0.106,0-0.192,0-0.24,0c-0.058,0-0.106-0.029-0.134-0.058
		c-0.029-0.029-0.058-0.077-0.077-0.135c-0.029-0.058-0.029-0.163-0.029-0.269v-0.452c0-0.077,0-0.163,0.029-0.212
		c0-0.058,0.029-0.106,0.058-0.135c0.029-0.029,0.077-0.077,0.163-0.077c0.058-0.029,0.163-0.029,0.269-0.029H169.172z"/>
	<path style="fill:#1D1D1B;" d="M170.085,163.029c0.298-0.077,0.587-0.163,0.885-0.24c0.298-0.077,0.615-0.106,0.99-0.106
		c0.375,0,0.702,0.058,0.99,0.163c0.269,0.106,0.538,0.269,0.721,0.452c0.212,0.192,0.375,0.433,0.481,0.702
		c0.135,0.269,0.212,0.567,0.269,0.885c0.058,0.269,0.077,0.51,0.135,0.75c0.058,0.24,0.106,0.452,0.163,0.644
		c0.077,0.192,0.163,0.327,0.269,0.433c0.106,0.106,0.241,0.163,0.404,0.163v1.394h-6.259c-0.106,0-0.192,0-0.24,0
		c-0.048,0-0.106-0.029-0.163-0.058c-0.029-0.029-0.058-0.077-0.077-0.135c0-0.058-0.029-0.163-0.029-0.269v-0.452
		c0-0.077,0-0.163,0-0.212c0-0.058,0.029-0.106,0.058-0.135c0.029-0.029,0.077-0.058,0.163-0.077
		c0.058-0.029,0.163-0.029,0.298-0.029h4.163c-0.077-0.134-0.135-0.298-0.192-0.433c-0.029-0.135-0.058-0.298-0.077-0.452
		c-0.029-0.24-0.077-0.481-0.135-0.702c-0.058-0.24-0.135-0.452-0.212-0.644c-0.106-0.192-0.212-0.346-0.404-0.452
		c-0.163-0.135-0.375-0.192-0.644-0.192c-0.163,0-0.404,0.029-0.673,0.058c-0.269,0.058-0.587,0.135-0.885,0.24L170.085,163.029
		L170.085,163.029z M171.566,170.067c0-0.106,0.029-0.212,0.077-0.327c0.029-0.106,0.077-0.192,0.163-0.269
		c0.087-0.077,0.163-0.135,0.269-0.163c0.077-0.058,0.212-0.058,0.327-0.058c0.116,0,0.212,0.029,0.327,0.058
		c0.106,0.058,0.192,0.106,0.269,0.163c0.077,0.077,0.135,0.163,0.163,0.269c0.058,0.106,0.077,0.212,0.077,0.327
		c0,0.106-0.029,0.212-0.077,0.327c-0.058,0.106-0.077,0.192-0.163,0.269c-0.077,0.077-0.163,0.135-0.269,0.192
		c-0.106,0.058-0.212,0.058-0.327,0.058c-0.115,0-0.212-0.029-0.327-0.058c-0.106-0.058-0.192-0.106-0.269-0.192
		c-0.077-0.077-0.135-0.163-0.163-0.269C171.595,170.308,171.566,170.202,171.566,170.067"/>
	<path style="fill:#1D1D1B;" d="M61.646,177.538l-1.231,0.029c-0.481,0.029-0.673,0.058-0.808,0.24
		c-0.077,0.135-0.135,0.212-0.135,0.298c0,0.077-0.029,0.106-0.077,0.106c-0.058,0-0.077-0.058-0.077-0.135
		c0-0.135,0.163-0.885,0.192-0.971c0.029-0.106,0.058-0.163,0.077-0.163c0.077,0,0.163,0.077,0.346,0.106
		c0.24,0.029,0.567,0.058,0.836,0.058h3.279c0.269,0,0.452-0.029,0.567-0.058c0.135-0.029,0.192-0.058,0.212-0.058
		c0.058,0,0.058,0.058,0.058,0.192c0,0.163-0.029,0.75-0.029,0.971c0,0.077-0.029,0.135-0.077,0.135
		c-0.058,0-0.077-0.029-0.077-0.163v-0.077c-0.029-0.212-0.24-0.452-0.99-0.452l-1.048-0.029v3.413c0,0.75,0,1.423,0.029,1.769
		c0.029,0.24,0.077,0.404,0.327,0.452c0.106,0.029,0.298,0.029,0.433,0.029c0.106,0,0.135,0.029,0.135,0.058
		c0,0.058-0.058,0.077-0.163,0.077c-0.538,0-1.077-0.029-1.317-0.029c-0.192,0-0.702,0.029-1.048,0.029
		c-0.106,0-0.163-0.029-0.163-0.077c0-0.029,0.029-0.058,0.135-0.058c0.135,0,0.212-0.029,0.298-0.029
		c0.163-0.029,0.212-0.212,0.24-0.452c0.058-0.346,0.058-0.99,0.058-1.769L61.646,177.538L61.646,177.538z"/>
	<path style="fill:#1D1D1B;" d="M73.117,179.711c0.029,0,0.058,0,0.058-0.058v-0.192c0-1.26,0-1.5-0.029-1.769
		c-0.029-0.298-0.077-0.404-0.346-0.481c-0.058-0.029-0.212-0.029-0.327-0.029c-0.077,0-0.135-0.029-0.135-0.077
		c0-0.058,0.058-0.077,0.163-0.077c0.452,0,0.971,0.029,1.211,0.029c0.212,0,0.721-0.029,1.048-0.029
		c0.106,0,0.192,0.029,0.192,0.077c0,0.058-0.058,0.077-0.135,0.077c-0.077,0-0.135,0-0.24,0.029
		c-0.212,0.058-0.298,0.192-0.298,0.481c-0.029,0.269-0.029,0.51-0.029,1.769v1.481c0,0.75,0,1.423,0.058,1.769
		c0.029,0.24,0.077,0.404,0.327,0.452c0.106,0.029,0.298,0.029,0.433,0.029c0.077,0,0.135,0.029,0.135,0.058
		c0,0.058-0.058,0.077-0.163,0.077c-0.538,0-1.048-0.029-1.288-0.029c-0.192,0-0.721,0.029-1.048,0.029
		c-0.135,0-0.163-0.029-0.163-0.077c0-0.029,0.029-0.058,0.135-0.058c0.135,0,0.24-0.029,0.298-0.029
		c0.163-0.029,0.212-0.212,0.24-0.452c0.058-0.346,0.058-0.99,0.058-1.769v-0.721c0-0.029-0.029-0.058-0.058-0.058H70.04
		c-0.029,0-0.058,0-0.058,0.058v0.721c0,0.75,0,1.423,0.058,1.769c0.029,0.24,0.077,0.404,0.327,0.452
		c0.135,0.029,0.298,0.029,0.433,0.029c0.077,0,0.135,0.029,0.135,0.058c0,0.058-0.058,0.077-0.163,0.077
		c-0.538,0-1.077-0.029-1.288-0.029c-0.192,0-0.721,0.029-1.048,0.029c-0.106,0-0.163-0.029-0.163-0.077
		c0-0.029,0.029-0.058,0.135-0.058c0.135,0,0.212-0.029,0.298-0.029c0.163-0.029,0.212-0.212,0.24-0.452
		c0.029-0.346,0.029-0.99,0.029-1.769v-1.481c0-1.26,0-1.5,0-1.769c-0.029-0.298-0.077-0.404-0.346-0.481
		c-0.058-0.029-0.212-0.029-0.327-0.029c-0.106,0-0.135-0.029-0.135-0.077c0-0.058,0.058-0.077,0.192-0.077
		c0.452,0,0.971,0.029,1.211,0.029c0.192,0,0.721-0.029,1.048-0.029c0.106,0,0.163,0.029,0.163,0.077
		c0,0.058-0.058,0.077-0.163,0.077c-0.058,0-0.135,0-0.24,0.029c-0.212,0.058-0.298,0.192-0.327,0.481
		c-0.029,0.269-0.029,0.51-0.029,1.769v0.192c0,0.058,0.029,0.058,0.058,0.058H73.117L73.117,179.711z"/>
	<path style="fill:#1D1D1B;" d="M79.347,179.49c0-1.26,0-1.5-0.029-1.769c0-0.298-0.077-0.404-0.346-0.481
		c-0.058-0.029-0.212-0.029-0.327-0.029c-0.077,0-0.135-0.029-0.135-0.077c0-0.058,0.058-0.077,0.192-0.077c0.212,0,0.452,0,0.673,0
		s0.404,0.029,0.51,0.029c0.269,0,1.933,0,2.096,0c0.163-0.029,0.298-0.029,0.346-0.058c0.058,0,0.106-0.029,0.135-0.029
		c0.058,0,0.058,0.029,0.058,0.077c0,0.058-0.058,0.163-0.058,0.538c0,0.077-0.029,0.452-0.058,0.538
		c0,0.029-0.029,0.077-0.077,0.077c-0.058,0-0.077-0.058-0.077-0.106c0-0.058,0-0.192-0.058-0.298
		c-0.058-0.163-0.135-0.24-0.567-0.298c-0.135,0-1.019-0.029-1.183-0.029c-0.029,0-0.058,0.029-0.058,0.077v2.096
		c0,0.058,0,0.077,0.058,0.077c0.192,0,1.154,0,1.346,0c0.192-0.029,0.327-0.058,0.404-0.135c0.058-0.058,0.106-0.106,0.135-0.106
		c0.029,0,0.058,0.029,0.058,0.058c0,0.058-0.029,0.192-0.058,0.615c0,0.163-0.029,0.481-0.029,0.567c0,0.077,0,0.163-0.077,0.163
		c-0.058,0-0.058-0.029-0.058-0.077c-0.029-0.077-0.029-0.192-0.058-0.298c-0.058-0.163-0.163-0.298-0.452-0.327
		c-0.163,0-0.99-0.029-1.183-0.029c-0.029,0-0.058,0.029-0.058,0.077v0.673c0,0.298,0,1.048,0,1.288
		c0.029,0.567,0.163,0.702,0.99,0.702c0.212,0,0.567,0,0.779-0.106s0.327-0.269,0.375-0.615c0.029-0.077,0.029-0.135,0.077-0.135
		c0.077,0,0.077,0.058,0.077,0.163c0,0.192-0.077,0.75-0.106,0.913c-0.058,0.212-0.135,0.212-0.452,0.212
		c-0.615,0-1.077-0.029-1.452-0.029c-0.346-0.029-0.615-0.029-0.856-0.029c-0.077,0-0.269,0-0.481,0
		c-0.192,0-0.404,0.029-0.567,0.029c-0.106,0-0.163-0.029-0.163-0.077c0-0.029,0.029-0.058,0.135-0.058
		c0.135,0,0.212-0.029,0.298-0.029c0.163-0.029,0.212-0.212,0.24-0.452c0.058-0.346,0.058-0.99,0.058-1.769v-1.452L79.347,179.49
		L79.347,179.49z"/>
	<path style="fill:#1D1D1B;" d="M92.962,180.942c0,0.808,0,1.423,0.058,1.769c0.029,0.24,0.077,0.433,0.327,0.452
		c0.106,0.029,0.298,0.029,0.404,0.029c0.106,0,0.135,0.029,0.135,0.058c0,0.058-0.058,0.077-0.192,0.077
		c-0.538,0-1.048-0.029-1.26-0.029s-0.721,0.029-1.048,0.029c-0.106,0-0.192-0.029-0.192-0.077c0-0.029,0.029-0.058,0.135-0.058
		c0.135,0,0.212-0.029,0.298-0.029c0.163-0.029,0.212-0.212,0.24-0.452c0.058-0.346,0.058-0.971,0.058-1.769v-1.481
		c0-1.26,0-1.5-0.029-1.769c0-0.298-0.077-0.404-0.346-0.481c-0.077-0.029-0.212-0.029-0.327-0.029
		c-0.077,0-0.135-0.029-0.135-0.058c0-0.058,0.058-0.077,0.192-0.077c0.212,0,0.452,0,0.673,0c0.212,0,0.404,0.029,0.538,0.029
		c0.327,0,2.01,0,2.202,0c0.163,0,0.269,0,0.346-0.029c0.058-0.029,0.077-0.058,0.135-0.058c0.029,0,0.077,0.029,0.077,0.077
		c0,0.058-0.058,0.163-0.077,0.375c0,0.077-0.029,0.567-0.058,0.673c0,0.077-0.029,0.135-0.077,0.135
		c-0.058,0-0.077-0.058-0.077-0.135c0-0.058,0-0.192-0.058-0.327c-0.058-0.106-0.24-0.24-0.567-0.24l-1.288-0.029
		c-0.058,0-0.077,0.029-0.077,0.106v2.067c0,0.058,0,0.077,0.058,0.077h1.077c0.135,0,0.269,0,0.375,0
		c0.163,0,0.269-0.058,0.346-0.163c0.058-0.058,0.058-0.077,0.106-0.077c0.029,0,0.058,0.029,0.058,0.077
		c0,0.048-0.058,0.269-0.058,0.51c-0.029,0.163-0.029,0.567-0.029,0.615c0,0.077,0,0.163-0.077,0.163
		c-0.058,0-0.058-0.058-0.058-0.106c0-0.058-0.029-0.163-0.058-0.269c-0.058-0.106-0.163-0.269-0.433-0.298
		c-0.212-0.029-1.106-0.029-1.231-0.029c-0.058,0-0.058,0.029-0.058,0.077L92.962,180.942L92.962,180.942z"/>
	<path style="fill:#1D1D1B;" d="M100.558,180.942c0,1.077,0,1.635,0.163,1.798c0.134,0.135,0.346,0.192,1.019,0.192
		c0.433,0,0.75,0,0.971-0.24c0.106-0.106,0.212-0.346,0.212-0.51c0-0.077,0.029-0.135,0.077-0.135c0.058,0,0.058,0.058,0.058,0.135
		c0,0.077-0.058,0.721-0.135,0.971c-0.058,0.192-0.106,0.212-0.51,0.212c-0.615,0-1.048-0.029-1.394-0.029
		c-0.375-0.029-0.673-0.029-1.019-0.029c-0.106,0-0.269,0-0.481,0c-0.192,0-0.404,0.029-0.567,0.029
		c-0.106,0-0.163-0.029-0.163-0.077c0-0.029,0.058-0.058,0.135-0.058c0.135,0,0.212-0.029,0.298-0.029
		c0.163-0.029,0.212-0.212,0.24-0.452c0.029-0.346,0.029-1.019,0.029-1.769v-1.481c0-1.26,0-1.5-0.029-1.769
		c0-0.298-0.077-0.404-0.346-0.481c-0.077-0.029-0.163-0.029-0.269-0.029c-0.106,0-0.135-0.029-0.135-0.077
		c0-0.048,0.058-0.077,0.192-0.077c0.404,0,0.913,0.029,1.154,0.029c0.192,0,0.808-0.029,1.125-0.029
		c0.135,0,0.192,0.029,0.192,0.077c0,0.058-0.058,0.077-0.163,0.077c-0.077,0-0.212,0-0.327,0.029
		c-0.24,0.058-0.298,0.192-0.327,0.481c0,0.269,0,0.481,0,1.769L100.558,180.942L100.558,180.942z"/>
	<path style="fill:#1D1D1B;" d="M107.462,181.182c-0.058,0-0.058,0-0.077,0.058l-0.452,1.183c-0.077,0.212-0.135,0.404-0.135,0.51
		c0,0.135,0.077,0.269,0.327,0.269h0.135c0.077,0,0.135,0.029,0.135,0.058c0,0.058-0.058,0.077-0.135,0.077
		c-0.269,0-0.616-0.029-0.885-0.029c-0.077,0-0.567,0.029-0.99,0.029c-0.106,0-0.163-0.029-0.163-0.077
		c0-0.058,0.029-0.058,0.106-0.058c0.077,0,0.192,0,0.269-0.029c0.375-0.058,0.538-0.327,0.702-0.75l2.096-5.211
		c0.106-0.24,0.163-0.327,0.24-0.327c0.077,0,0.135,0.077,0.212,0.269c0.192,0.452,1.529,3.865,2.067,5.125
		c0.327,0.75,0.567,0.856,0.75,0.913c0.135,0.029,0.24,0.029,0.346,0.029c0.077,0,0.106,0,0.106,0.058
		c0,0.058-0.077,0.077-0.375,0.077s-0.885,0-1.558-0.029c-0.163,0-0.24,0-0.24-0.058s0.029-0.058,0.135-0.077
		c0.058-0.029,0.106-0.077,0.077-0.192l-0.673-1.769c-0.029-0.058-0.029-0.058-0.077-0.058L107.462,181.182L107.462,181.182z
		 M109.154,180.779c0.058,0,0.058-0.029,0.058-0.058l-0.75-2.038c0-0.029,0-0.077-0.058-0.077c-0.029,0-0.058,0.058-0.058,0.077
		l-0.779,2.038c0,0.029,0,0.058,0.029,0.058H109.154z"/>
	<path style="fill:#1D1D1B;" d="M120.404,182.798c0,0.212,0,0.24-0.106,0.298c-0.538,0.298-1.365,0.375-2.01,0.375
		c-2.038,0-3.836-0.971-3.836-3.25c0-1.346,0.673-2.26,1.452-2.711c0.808-0.481,1.558-0.538,2.231-0.538
		c0.567,0,1.317,0.106,1.481,0.135c0.163,0.029,0.452,0.077,0.644,0.077c0.106,0,0.135,0.058,0.135,0.106
		c0,0.106-0.058,0.327-0.058,1.365c0,0.135-0.029,0.192-0.106,0.192c-0.058,0-0.077-0.058-0.077-0.106
		c-0.029-0.192-0.058-0.452-0.269-0.702c-0.24-0.269-0.913-0.644-1.856-0.644c-0.452,0-1.048,0.029-1.635,0.51
		c-0.481,0.404-0.779,1.019-0.779,2.038c0,1.798,1.154,3.144,2.904,3.144c0.212,0,0.51,0,0.702-0.077
		c0.135-0.058,0.163-0.163,0.163-0.327v-0.808c0-0.433,0-0.721-0.029-0.99c0-0.269-0.077-0.404-0.346-0.481
		c-0.077-0.029-0.212-0.029-0.327-0.029c-0.058,0-0.106-0.029-0.106-0.077c0-0.058,0.058-0.077,0.163-0.077
		c0.433,0,0.971,0.029,1.211,0.029c0.269,0,0.702-0.029,0.971-0.029c0.106,0,0.163,0.029,0.163,0.077
		c0,0.058-0.058,0.077-0.106,0.077c-0.058,0-0.135,0-0.212,0.029c-0.212,0.029-0.327,0.192-0.327,0.481c0,0.24,0,0.587,0,0.99
		L120.404,182.798L120.404,182.798z"/>
	<path style="fill:#1D1D1B;" d="M130.048,179.49c0-1.26,0-1.5-0.029-1.769c0-0.298-0.077-0.433-0.269-0.452
		c-0.077-0.029-0.192-0.029-0.298-0.029c-0.077,0-0.135-0.029-0.135-0.077c0-0.058,0.058-0.058,0.192-0.058
		c0.327,0,0.837,0.029,1.077,0.029c0.212,0,0.702-0.029,1.019-0.029c0.106,0,0.192,0.029,0.192,0.058
		c0,0.058-0.058,0.077-0.135,0.077c-0.077,0-0.135,0-0.24,0.029c-0.212,0.058-0.298,0.192-0.298,0.481
		c-0.029,0.269-0.029,0.51-0.029,1.769V181c0,0.808,0,1.481,0.029,1.827c0.029,0.212,0.077,0.375,0.346,0.404
		c0.106,0.029,0.298,0.029,0.433,0.029c0.106,0,0.135,0.029,0.135,0.058c0,0.058-0.058,0.077-0.163,0.077
		c-0.567,0-1.077-0.029-1.288-0.029c-0.192,0-0.721,0.029-1.048,0.029c-0.106,0-0.163-0.029-0.163-0.077
		c0-0.029,0.029-0.058,0.135-0.058c0.135,0,0.212-0.029,0.298-0.029c0.163-0.029,0.212-0.192,0.24-0.404
		c0.058-0.346,0.058-0.99,0.058-1.827L130.048,179.49L130.048,179.49z"/>
	<path style="fill:#1D1D1B;" d="M135.769,183.25c-0.135-0.058-0.163-0.106-0.163-0.298c0-0.452,0.029-0.971,0.058-1.106
		c0-0.135,0.029-0.212,0.106-0.212c0.077,0,0.077,0.077,0.077,0.135c0,0.106,0.029,0.269,0.077,0.433
		c0.192,0.615,0.673,0.836,1.183,0.836c0.75,0,1.125-0.51,1.125-0.942c0-0.404-0.135-0.779-0.837-1.346l-0.375-0.298
		c-0.913-0.721-1.231-1.288-1.231-1.99c0-0.913,0.779-1.586,1.933-1.586c0.538,0,0.885,0.077,1.106,0.135
		c0.077,0.029,0.106,0.058,0.106,0.106c0,0.106-0.029,0.346-0.029,0.99c0,0.192-0.029,0.24-0.077,0.24
		c-0.048,0-0.077-0.058-0.077-0.163c0-0.077-0.058-0.327-0.212-0.538c-0.135-0.163-0.375-0.404-0.913-0.404
		c-0.615,0-0.99,0.346-0.99,0.856c0,0.375,0.192,0.673,0.885,1.212l0.24,0.192c1.019,0.75,1.365,1.317,1.365,2.125
		c0,0.481-0.192,1.048-0.779,1.452c-0.404,0.269-0.885,0.346-1.317,0.346C136.49,183.471,136.115,183.413,135.769,183.25"/>
	<path style="fill:#1D1D1B;" d="M144.518,180.942c0,1.077,0,1.635,0.192,1.798c0.135,0.135,0.346,0.192,1.019,0.192
		c0.452,0,0.779,0,0.971-0.24c0.106-0.106,0.212-0.346,0.212-0.51c0-0.077,0.029-0.135,0.077-0.135c0.058,0,0.077,0.058,0.077,0.135
		c0,0.077-0.058,0.721-0.135,0.971c-0.058,0.192-0.077,0.212-0.538,0.212c-0.587,0-1.019-0.029-1.394-0.029
		c-0.375-0.029-0.673-0.029-1.019-0.029c-0.077,0-0.269,0-0.481,0c-0.192,0-0.404,0.029-0.567,0.029
		c-0.106,0-0.163-0.029-0.163-0.077c0-0.029,0.029-0.058,0.135-0.058c0.135,0,0.212-0.029,0.298-0.029
		c0.163-0.029,0.212-0.212,0.24-0.452c0.029-0.346,0.029-1.019,0.029-1.769v-1.481c0-1.26,0-1.5-0.029-1.769
		c-0.029-0.298-0.077-0.404-0.346-0.481c-0.077-0.029-0.163-0.029-0.269-0.029s-0.135-0.029-0.135-0.077
		c0-0.048,0.058-0.077,0.192-0.077c0.404,0,0.913,0.029,1.154,0.029c0.192,0,0.808-0.029,1.125-0.029
		c0.135,0,0.192,0.029,0.192,0.077c0,0.058-0.058,0.077-0.163,0.077c-0.077,0-0.212,0-0.327,0.029
		c-0.212,0.058-0.298,0.192-0.298,0.481c-0.029,0.269-0.029,0.481-0.029,1.769L144.518,180.942L144.518,180.942z"/>
	<path style="fill:#1D1D1B;" d="M151.422,181.182c-0.058,0-0.058,0-0.058,0.058l-0.452,1.183c-0.077,0.212-0.134,0.404-0.134,0.51
		c0,0.135,0.077,0.269,0.346,0.269h0.135c0.106,0,0.135,0.029,0.135,0.058c0,0.058-0.058,0.077-0.135,0.077
		c-0.269,0-0.615-0.029-0.885-0.029c-0.077,0-0.538,0.029-0.99,0.029c-0.106,0-0.163-0.029-0.163-0.077
		c0-0.058,0.029-0.058,0.106-0.058c0.077,0,0.192,0,0.269-0.029c0.375-0.058,0.538-0.327,0.702-0.75l2.096-5.211
		c0.106-0.24,0.163-0.327,0.24-0.327s0.135,0.077,0.212,0.269c0.212,0.452,1.529,3.865,2.067,5.125
		c0.327,0.75,0.567,0.856,0.721,0.913c0.135,0.029,0.24,0.029,0.346,0.029c0.077,0,0.106,0,0.106,0.058
		c0,0.058-0.077,0.077-0.375,0.077c-0.298,0-0.913,0-1.586-0.029c-0.135,0-0.241,0-0.241-0.058s0.058-0.058,0.106-0.077
		c0.048-0.019,0.135-0.077,0.077-0.192l-0.673-1.769c-0.029-0.058-0.029-0.058-0.077-0.058L151.422,181.182L151.422,181.182z
		 M153.114,180.779c0.058,0,0.058-0.029,0.058-0.058l-0.75-2.038c0-0.029-0.029-0.077-0.058-0.077s-0.058,0.058-0.058,0.077
		l-0.779,2.038c0,0.029,0,0.058,0.029,0.058H153.114z"/>
	<path style="fill:#1D1D1B;" d="M159.806,182.231c0,0.644,0.135,0.856,0.298,0.913c0.135,0.058,0.298,0.058,0.433,0.058
		c0.077,0,0.135,0.029,0.135,0.058c0,0.077-0.077,0.077-0.192,0.077c-0.538,0-0.885-0.029-1.048-0.029
		c-0.077,0-0.452,0.029-0.885,0.029c-0.106,0-0.192,0-0.192-0.077c0-0.058,0.058-0.058,0.135-0.058c0.106,0,0.269,0,0.375-0.029
		c0.212-0.077,0.24-0.327,0.269-1.019l0.077-4.913c0-0.163,0.029-0.298,0.106-0.298c0.106,0,0.163,0.106,0.327,0.269
		c0.106,0.106,1.365,1.452,2.577,2.663c0.567,0.567,1.692,1.769,1.856,1.904h0.029l-0.077-3.731c-0.029-0.51-0.077-0.673-0.298-0.75
		c-0.135-0.058-0.327-0.058-0.452-0.058c-0.077,0-0.135-0.029-0.135-0.077c0-0.058,0.077-0.077,0.212-0.077
		c0.433,0,0.837,0.029,0.99,0.029c0.106,0,0.404-0.029,0.836-0.029c0.106,0,0.192,0,0.192,0.077c0,0.058-0.058,0.077-0.163,0.077
		c-0.077,0-0.163,0-0.24,0.029c-0.24,0.077-0.298,0.24-0.298,0.702l-0.077,5.259c0,0.192-0.029,0.269-0.106,0.269
		c-0.106,0-0.192-0.106-0.298-0.192c-0.538-0.51-1.586-1.586-2.442-2.442c-0.913-0.885-1.827-1.933-1.99-2.096h-0.029
		L159.806,182.231z"/>
	<path style="fill:#1D1D1B;" d="M169.633,179.49c0-1.26,0-1.5-0.029-1.769c-0.029-0.298-0.077-0.404-0.346-0.481
		c-0.077-0.029-0.212-0.029-0.327-0.029c-0.077,0-0.135-0.029-0.135-0.077c0-0.058,0.058-0.077,0.192-0.077
		c0.433,0,0.971,0.029,1.212,0.029c0.269,0,0.779-0.029,1.288-0.029c1.048,0,2.413,0,3.327,0.942
		c0.433,0.433,0.808,1.125,0.808,2.125c0,1.048-0.433,1.856-0.913,2.307c-0.375,0.404-1.231,0.99-2.788,0.99
		c-0.298,0-0.644-0.029-0.942-0.058c-0.327-0.029-0.615-0.058-0.808-0.058c-0.077,0-0.269,0-0.481,0
		c-0.192,0-0.404,0.029-0.567,0.029c-0.106,0-0.163-0.029-0.163-0.077c0-0.058,0.029-0.077,0.135-0.077c0.135,0,0.212,0,0.298-0.029
		c0.163-0.029,0.212-0.212,0.24-0.452c0.058-0.346,0.058-0.99,0.058-1.769L169.633,179.49L169.633,179.49z M170.652,180.404
		c0,0.885,0,1.529,0.029,1.692c0,0.212,0.029,0.538,0.077,0.644c0.106,0.163,0.433,0.327,1.106,0.327
		c0.856,0,1.423-0.163,1.904-0.615c0.538-0.452,0.702-1.211,0.702-2.067c0-1.048-0.452-1.75-0.808-2.096
		c-0.75-0.721-1.721-0.837-2.365-0.837c-0.163,0-0.481,0.029-0.538,0.058c-0.077,0.029-0.106,0.077-0.106,0.163
		c0,0.298,0,1.019,0,1.663V180.404L170.652,180.404z"/>
	<polygon style="fill:#1D1D1B;" points="99.914,161.827 99.51,161.154 102.712,159.193 103.135,159.895 	"/>
</g>
</svg>
