<?xml version="1.0" encoding="iso-8859-1"?>
<!-- Generator: Adobe Illustrator 21.1.0, SVG Export Plug-In . SVG Version: 6.00 Build 0)  -->
<svg version="1.1" id="Layer_1" xmlns="http://www.w3.org/2000/svg" xmlns:xlink="http://www.w3.org/1999/xlink" x="0px" y="0px"
	 viewBox="0 0 231 231" style="enable-background:new 0 0 231 231;" xml:space="preserve">
<g>
	<g>
		<path style="fill:#0D5C97;" d="M59.219,111.705c0-12.043,0-24.094,0-36.137c0-2.348-0.079-4.697,0.055-7.038
			c0.293-5.282,4.215-9.386,9.481-9.426c15.19-0.127,30.38-0.047,46.519-0.047C91.149,71.528,79.217,80.202,59.219,111.705z"/>
		<path style="fill:#0D5C97;" d="M125.752,171.96c25.66-15.206,34.168-28.395,45.42-48.085c0.909,0.799,0.569,1.629,0.569,2.333
			c0.024,11.632,0.047,23.271,0.008,34.903c-0.024,6.974-3.843,10.809-10.77,10.833C149.237,171.983,137.495,171.96,125.752,171.96z
			"/>
		<path style="fill:#0D5C97;" d="M79.818,147.043c5.393,2.586,10.944,3.78,16.882,2.72c6.571-1.17,9.979-4.784,10.454-11.505
			c0.19-2.72,0.648-5.464,0.198-8.738c-1.953,1.914-3.266,3.685-5.227,4.784c-7.346,4.112-16.811,1.819-21.627-5.33
			c-5.567-8.247-5.504-22.67,0.134-30.918c5.67-8.295,17.926-9.615,25.28-2.696c0.459,0.435,0.775,1.012,1.123,1.463
			c0.095-1.993,0.055-4.539,1.4-4.365c4.167,0.522,4.294,0.024,4.333,0.356c0.285,2.372,0.285,1.866,0.285,2.546
			c0.008,13.197,0.008,26.387,0,39.584c-0.008,13-6.484,19.634-19.492,19.911c-3.021,0.063-6.018-0.324-8.975-0.981
			C79.438,152.737,79.431,152.753,79.818,147.043z M107.834,113.113c-0.079-3.155-0.372-6.247-1.281-9.275
			c-1.463-4.871-4.594-7.947-9.71-8.39c-5.243-0.451-9.916,1.083-12.454,6.049c-3.875,7.567-4.191,15.459-0.648,23.232
			c2.396,5.25,7.314,7.963,12.027,7.235c5.875-0.909,10.232-5.061,11.197-10.881C107.399,118.45,107.549,115.77,107.834,113.113z"/>
	</g>
	<g>
		<path style="fill:#0D5C97;" d="M141.836,83.618l0.008,13.205h10.683v7.931l-11.268,0.087l0.071,21.247
			c0,5.306,0.894,6.919,5.709,8.058c2.254,0.53,4.428-1.249,5.543-1.51l0.166,8.896c-1.716,0.617-4.634,0.838-8.058,0.838
			c-4.128,0-8.121-1.74-10.24-3.859c-2.522-2.301-3.282-6.737-3.282-11.774v-21.983h-8.904v-7.939h8.904V87.24L141.836,83.618z"/>
	</g>
	<rect x="113.353" y="78.526" style="fill:#0D5C97;" width="7.836" height="10.746"/>
	<path style="fill:#0D5C97;" d="M157.453,79.188c-2.589,0-4.695-2.106-4.695-4.695s2.106-4.695,4.695-4.695
		c2.589,0,4.695,2.106,4.695,4.695S160.042,79.188,157.453,79.188z M157.453,70.237c-2.347,0-4.256,1.909-4.256,4.256
		c0,2.347,1.909,4.256,4.256,4.256s4.256-1.909,4.256-4.256C161.709,72.146,159.799,70.237,157.453,70.237z"/>
	<g style="enable-background:new    ;">
		<path style="fill:#0D5C97;" d="M156.171,76.507v-4.807h2.131c0.429,0,0.754,0.043,0.978,0.129c0.223,0.086,0.4,0.239,0.534,0.458
			c0.133,0.218,0.2,0.46,0.2,0.725c0,0.341-0.11,0.628-0.331,0.862c-0.222,0.234-0.563,0.382-1.023,0.446
			c0.168,0.081,0.296,0.161,0.384,0.239c0.186,0.17,0.361,0.384,0.527,0.64l0.837,1.308h-0.801l-0.636-1
			c-0.186-0.289-0.339-0.509-0.459-0.663c-0.12-0.153-0.228-0.26-0.323-0.321c-0.095-0.061-0.191-0.104-0.29-0.128
			c-0.072-0.015-0.19-0.023-0.354-0.023h-0.737v2.135H156.171z M156.807,73.822h1.367c0.291,0,0.519-0.03,0.682-0.09
			c0.164-0.06,0.289-0.156,0.374-0.289s0.128-0.276,0.128-0.431c0-0.228-0.082-0.415-0.247-0.561
			c-0.165-0.146-0.426-0.22-0.782-0.22h-1.521V73.822z"/>
	</g>
</g>
</svg>
