<?xml version="1.0" encoding="iso-8859-1"?>
<!-- Generator: Adobe Illustrator 21.1.0, SVG Export Plug-In . SVG Version: 6.00 Build 0)  -->
<svg version="1.1" id="Layer_1" xmlns="http://www.w3.org/2000/svg" xmlns:xlink="http://www.w3.org/1999/xlink" x="0px" y="0px"
	 viewBox="0 0 231 231" style="enable-background:new 0 0 231 231;" xml:space="preserve">
<g>
	<polygon style="fill:#C12237;" points="92.883,114.319 62.413,114.319 115.559,60.937 168.469,114.319 137.29,114.319 
		115.205,91.998 	"/>
	<rect x="42.69" y="141.364" style="fill:#1F4492;" width="145.62" height="1.063"/>
	<rect x="42.69" y="159.198" style="fill:#1F4492;" width="145.62" height="1.063"/>
	<path style="fill:#1F4492;" d="M53.792,124.712c-0.118-0.354-0.118-0.591-0.354-0.827c-0.118-0.236-0.354-0.472-0.591-0.709
		c-0.236-0.118-0.472-0.236-0.827-0.236c-0.827,0-1.299,0.472-1.653,1.299c-0.354,0.827-0.472,2.362-0.472,4.37
		c0,0.945,0,1.772,0.118,2.598s0.118,1.417,0.354,2.008c0.118,0.591,0.354,0.945,0.709,1.299c0.236,0.236,0.709,0.472,1.181,0.472
		c0.236,0,0.354,0,0.591-0.118c0.236-0.118,0.472-0.236,0.709-0.472c0.236-0.236,0.354-0.472,0.472-0.827
		c0.118-0.354,0.236-0.709,0.236-1.181v-1.653h-2.126v-2.362h5.196v8.621h-2.362v-1.535l0,0c-0.354,0.591-0.827,1.063-1.417,1.299
		c-0.591,0.236-1.181,0.354-2.008,0.354c-0.945,0-1.772-0.118-2.362-0.472c-0.591-0.354-1.063-0.827-1.417-1.653
		c-0.354-0.709-0.591-1.653-0.709-2.716c-0.118-1.063-0.236-2.244-0.236-3.661c0-1.299,0.118-2.48,0.236-3.543
		c0.118-1.063,0.472-1.89,0.945-2.598s0.945-1.181,1.653-1.535c0.709-0.354,1.535-0.472,2.598-0.472
		c1.772,0,3.071,0.472,3.779,1.299c0.827,0.827,1.181,2.126,1.181,3.779h-3.071C53.91,125.302,53.91,125.066,53.792,124.712"/>
	<path style="fill:#1F4492;" d="M59.106,125.539c0.118-1.063,0.354-1.89,0.709-2.598s0.945-1.299,1.653-1.772
		c0.709-0.354,1.653-0.591,2.953-0.591c1.181,0,2.126,0.236,2.953,0.591c0.709,0.354,1.299,0.945,1.653,1.772
		c0.354,0.709,0.591,1.653,0.709,2.598c0.118,1.063,0.118,2.126,0.118,3.307c0,1.181,0,2.362-0.118,3.425
		c-0.118,1.063-0.354,1.89-0.709,2.598c-0.354,0.709-0.945,1.299-1.653,1.653c-0.709,0.354-1.653,0.591-2.953,0.591
		c-1.181,0-2.126-0.236-2.953-0.591c-0.709-0.354-1.299-0.945-1.653-1.653s-0.591-1.653-0.709-2.598
		c-0.118-1.063-0.118-2.126-0.118-3.425C58.988,127.665,58.988,126.602,59.106,125.539 M62.295,131.68
		c0,0.709,0.118,1.417,0.354,1.89c0.118,0.472,0.354,0.827,0.709,1.063c0.236,0.236,0.709,0.354,1.181,0.354
		s0.827-0.118,1.181-0.354c0.236-0.236,0.472-0.591,0.709-1.063c0.118-0.472,0.236-1.063,0.354-1.89
		c0-0.709,0.118-1.653,0.118-2.716c0-1.063,0-2.008-0.118-2.716c0-0.709-0.118-1.417-0.354-1.89
		c-0.118-0.472-0.354-0.827-0.709-1.063c-0.236-0.236-0.709-0.354-1.181-0.354s-0.827,0.118-1.181,0.354
		c-0.236,0.236-0.472,0.591-0.709,1.063c-0.118,0.472-0.236,1.063-0.354,1.89c0,0.709-0.118,1.653-0.118,2.716
		C62.177,130.027,62.177,130.853,62.295,131.68"/>
	<polygon style="fill:#1F4492;" points="71.743,120.933 75.05,120.933 75.05,134.278 80.719,134.278 80.719,136.995 71.743,136.995 
			"/>
	<path style="fill:#1F4492;" d="M87.687,120.933c1.181,0,2.008,0.236,2.716,0.591c0.709,0.354,1.181,0.945,1.653,1.535
		c0.354,0.709,0.591,1.535,0.827,2.48c0.118,0.945,0.236,2.008,0.236,3.189c0,1.417-0.118,2.598-0.236,3.661
		c-0.118,1.063-0.472,1.89-0.945,2.598c-0.472,0.709-0.945,1.181-1.653,1.535c-0.709,0.354-1.653,0.472-2.716,0.472h-5.196v-16.062
		H87.687z M86.978,134.514c0.591,0,1.063-0.118,1.417-0.236c0.354-0.236,0.591-0.472,0.827-0.945
		c0.236-0.472,0.354-1.063,0.354-1.772c0-0.709,0.118-1.653,0.118-2.716c0-0.945,0-1.772-0.118-2.362
		c-0.118-0.709-0.236-1.299-0.354-1.772c-0.236-0.472-0.472-0.827-0.827-1.063c-0.354-0.236-0.827-0.354-1.417-0.354h-1.417v11.338
		h1.417V134.514z"/>
	<polygon style="fill:#1F4492;" points="104.103,123.531 98.316,123.531 98.316,127.31 103.749,127.31 103.749,130.027 
		98.316,130.027 98.316,134.278 104.339,134.278 104.339,136.995 95.127,136.995 95.127,120.933 104.103,120.933 	"/>
	<polygon style="fill:#1F4492;" points="113.551,131.916 113.551,131.916 113.551,120.933 116.622,120.933 116.622,136.995 
		112.843,136.995 108.945,125.657 108.945,125.657 108.945,136.995 105.875,136.995 105.875,120.933 109.654,120.933 	"/>
	<path style="fill:#1F4492;" d="M126.779,132.389c0,0.354,0,0.709,0.118,1.063c0.118,0.354,0.118,0.59,0.354,0.827
		c0.118,0.236,0.354,0.354,0.709,0.472c0.236,0.118,0.591,0.236,1.063,0.236s0.945-0.118,1.299-0.472
		c0.354-0.354,0.591-0.827,0.591-1.535c0-0.354,0-0.709-0.118-0.945c-0.118-0.236-0.236-0.472-0.472-0.709
		c-0.236-0.236-0.472-0.354-0.945-0.591c-0.354-0.118-0.827-0.354-1.417-0.472c-0.709-0.236-1.299-0.472-1.89-0.827
		c-0.472-0.236-0.945-0.591-1.299-0.945c-0.354-0.354-0.591-0.827-0.827-1.299c-0.118-0.472-0.236-1.063-0.236-1.772
		c0-1.535,0.472-2.716,1.299-3.543c0.827-0.827,2.126-1.181,3.661-1.181c0.709,0,1.417,0.118,2.008,0.236
		c0.591,0.118,1.181,0.354,1.535,0.709c0.472,0.354,0.827,0.827,1.063,1.299c0.236,0.591,0.354,1.181,0.354,2.008v0.472h-3.071
		c0-0.709-0.118-1.299-0.354-1.772c-0.236-0.354-0.709-0.591-1.299-0.591c-0.354,0-0.709,0-0.945,0.118
		c-0.236,0.118-0.472,0.236-0.591,0.472c-0.118,0.118-0.236,0.354-0.236,0.591c0,0.236-0.118,0.472-0.118,0.709
		c0,0.472,0.118,0.945,0.354,1.299c0.236,0.354,0.709,0.591,1.299,0.945l2.48,1.063c0.59,0.236,1.063,0.59,1.535,0.827
		c0.354,0.236,0.709,0.591,0.945,0.945c0.236,0.354,0.354,0.709,0.472,1.063c0.118,0.354,0.118,0.827,0.118,1.299
		c0,1.653-0.472,2.953-1.417,3.661c-0.945,0.827-2.362,1.181-4.134,1.181s-3.189-0.354-3.897-1.181
		c-0.827-0.827-1.181-1.89-1.181-3.425v-0.709h3.189L126.779,132.389L126.779,132.389z"/>
	<path style="fill:#1F4492;" d="M142.959,120.933l4.252,16.062h-3.425l-0.709-3.425h-4.252l-0.709,3.425h-3.425l4.37-16.062H142.959
		z M142.604,130.853l-1.535-7.204l0,0l-1.535,7.204H142.604z"/>
	<polygon style="fill:#1F4492;" points="156.068,131.916 156.068,131.916 156.068,120.933 159.021,120.933 159.021,136.995 
		155.359,136.995 151.344,125.657 151.344,125.657 151.344,136.995 148.391,136.995 148.391,120.933 152.171,120.933 	"/>
	<path style="fill:#1F4492;" d="M166.697,120.933c1.181,0,2.008,0.236,2.716,0.591c0.709,0.354,1.181,0.945,1.653,1.535
		c0.354,0.709,0.591,1.535,0.827,2.48c0.118,0.945,0.236,2.008,0.236,3.189c0,1.417-0.118,2.598-0.236,3.661
		s-0.472,1.89-0.945,2.598c-0.472,0.709-0.945,1.181-1.653,1.535c-0.709,0.354-1.653,0.472-2.716,0.472h-5.078v-16.062H166.697z
		 M166.107,134.514c0.591,0,1.063-0.118,1.417-0.236c0.354-0.236,0.591-0.472,0.827-0.945c0.236-0.472,0.354-1.063,0.354-1.772
		c0.118-0.709,0.118-1.653,0.118-2.716c0-0.945,0-1.772-0.118-2.362c-0.118-0.709-0.236-1.299-0.354-1.772
		c-0.236-0.472-0.472-0.827-0.827-1.063c-0.354-0.236-0.827-0.354-1.417-0.354h-1.417v11.338h1.417V134.514z"/>
	<path style="fill:#1F4492;" d="M176.854,132.389c0,0.354,0,0.709,0.118,1.063c0.118,0.354,0.118,0.59,0.354,0.827
		c0.118,0.236,0.354,0.354,0.709,0.472c0.236,0.118,0.59,0.236,1.063,0.236s0.945-0.118,1.299-0.472
		c0.354-0.354,0.591-0.827,0.591-1.535c0-0.354,0-0.709-0.118-0.945c-0.118-0.236-0.236-0.472-0.472-0.709
		c-0.236-0.236-0.472-0.354-0.945-0.591c-0.354-0.118-0.827-0.354-1.417-0.472c-0.709-0.236-1.299-0.472-1.89-0.827
		c-0.472-0.236-0.945-0.591-1.299-0.945c-0.354-0.354-0.591-0.827-0.827-1.299c-0.118-0.472-0.236-1.063-0.236-1.772
		c0-1.535,0.472-2.716,1.299-3.543c0.827-0.827,2.126-1.181,3.661-1.181c0.709,0,1.417,0.118,2.008,0.236
		c0.591,0.118,1.181,0.354,1.535,0.709c0.472,0.354,0.827,0.827,1.063,1.299c0.236,0.591,0.354,1.181,0.354,2.008v0.472h-3.071
		c0-0.709-0.118-1.299-0.354-1.772c-0.236-0.354-0.709-0.591-1.299-0.591c-0.354,0-0.709,0-0.945,0.118
		c-0.236,0.118-0.472,0.236-0.59,0.472c-0.118,0.118-0.236,0.354-0.236,0.591c0,0.236-0.118,0.472-0.118,0.709
		c0,0.472,0.118,0.945,0.354,1.299c0.236,0.354,0.709,0.591,1.299,0.945l2.48,1.063c0.591,0.236,1.063,0.59,1.535,0.827
		c0.354,0.236,0.709,0.591,0.945,0.945c0.236,0.354,0.354,0.709,0.472,1.063s0.118,0.827,0.118,1.299
		c0,1.653-0.472,2.953-1.417,3.661c-0.945,0.827-2.362,1.181-4.134,1.181s-3.189-0.354-3.897-1.181
		c-0.827-0.827-1.181-1.89-1.181-3.425v-0.709h3.189L176.854,132.389L176.854,132.389z"/>
	<path style="fill:#1F4492;" d="M100.796,164.985h2.008c0.354,0,0.709,0.118,0.945,0.236c0.236,0.118,0.472,0.354,0.709,0.472
		c0.118,0.236,0.354,0.472,0.354,0.827c0.118,0.354,0.118,0.59,0.118,0.945s0,0.709-0.118,0.945
		c-0.118,0.354-0.236,0.591-0.354,0.827c-0.118,0.236-0.354,0.354-0.709,0.472c-0.236,0.118-0.591,0.236-0.945,0.236h-2.008V164.985
		z M101.741,169.236h0.827c0.354,0,0.591,0,0.827-0.118c0.236-0.118,0.354-0.236,0.472-0.354c0.118-0.118,0.236-0.354,0.236-0.591
		s0.118-0.472,0.118-0.709c0-0.236,0-0.472-0.118-0.709c-0.118-0.236-0.118-0.354-0.236-0.591c-0.118-0.118-0.236-0.236-0.472-0.354
		c-0.236-0.118-0.472-0.118-0.827-0.118h-0.827C101.741,165.693,101.741,169.236,101.741,169.236z"/>
	<path style="fill:#1F4492;" d="M108.001,164.985h0.827v2.834c0,0.118,0,0.354,0,0.472s0.118,0.354,0.118,0.472
		c0.118,0.118,0.236,0.236,0.354,0.354c0.236,0.118,0.472,0.118,0.709,0.118s0.472,0,0.709-0.118
		c0.118-0.118,0.236-0.236,0.354-0.354c0.118-0.118,0.118-0.236,0.118-0.472c0-0.118,0-0.354,0-0.472v-2.834h0.827v3.189
		c0,0.354,0,0.591-0.118,0.827c-0.118,0.236-0.236,0.472-0.354,0.59c-0.118,0.118-0.354,0.236-0.591,0.354
		c-0.236,0.118-0.472,0.118-0.827,0.118c-0.354,0-0.591,0-0.827-0.118s-0.472-0.236-0.591-0.354
		c-0.118-0.118-0.354-0.354-0.354-0.59c-0.118-0.236-0.118-0.472-0.118-0.827v-3.189H108.001z"/>
	<path style="fill:#1F4492;" d="M115.205,164.985h2.362c0.472,0,0.827,0.118,1.063,0.354c0.236,0.236,0.354,0.472,0.354,0.945
		c0,0.236-0.118,0.472-0.236,0.59c-0.118,0.236-0.354,0.354-0.472,0.354l0,0c0.354,0.118,0.591,0.236,0.709,0.472
		c0.118,0.236,0.236,0.472,0.236,0.827c0,0.236,0,0.354-0.118,0.59c-0.118,0.118-0.236,0.354-0.354,0.472s-0.354,0.236-0.591,0.236
		c-0.236,0.118-0.472,0.118-0.827,0.118h-2.244v-4.96H115.205z M116.15,166.992h1.417c0.236,0,0.354-0.118,0.472-0.118
		c0.118-0.118,0.236-0.236,0.236-0.472s-0.118-0.472-0.236-0.472c-0.118-0.236-0.236-0.236-0.472-0.236h-1.417
		C116.15,165.693,116.15,166.992,116.15,166.992z M116.15,169.236h1.535c0.236,0,0.472-0.118,0.591-0.236
		c0.118-0.118,0.236-0.354,0.236-0.591s-0.118-0.472-0.236-0.591c-0.118-0.118-0.354-0.236-0.591-0.236h-1.535V169.236z"/>
	<path style="fill:#1F4492;" d="M123.708,164.985h0.945l1.89,4.96h-0.945l-0.472-1.299h-2.008l-0.472,1.299H121.7L123.708,164.985z
		 M123.354,167.937h1.535l-0.709-2.126l0,0L123.354,167.937z"/>
	<rect x="129.141" y="164.985" style="fill:#1F4492;" width="0.827" height="4.96"/>
	<polygon style="fill:#1F4492;" points="46.588,146.797 48.005,146.797 48.005,149.986 51.548,149.986 51.548,146.797 
		52.847,146.797 52.847,154.592 51.548,154.592 51.548,151.167 48.005,151.167 48.005,154.592 46.588,154.592 	"/>
	<path style="fill:#1F4492;" d="M59.579,146.679c0.591,0,1.063,0.118,1.535,0.354s0.827,0.472,1.181,0.827
		c0.354,0.354,0.591,0.827,0.709,1.299c0.118,0.472,0.236,1.063,0.236,1.535c0,0.59-0.118,1.063-0.236,1.535
		s-0.472,0.945-0.709,1.299c-0.354,0.354-0.709,0.709-1.181,0.827c-0.472,0.236-0.945,0.354-1.535,0.354s-1.063-0.118-1.535-0.354
		c-0.472-0.236-0.827-0.472-1.181-0.827s-0.591-0.827-0.709-1.299s-0.236-1.063-0.236-1.535c0-0.591,0.118-1.063,0.236-1.535
		c0.118-0.472,0.472-0.945,0.709-1.299c0.354-0.354,0.709-0.709,1.181-0.827C58.516,146.797,58.988,146.679,59.579,146.679
		 M59.579,147.742c-0.472,0-0.827,0.118-1.063,0.236c-0.354,0.118-0.591,0.354-0.709,0.709c-0.236,0.236-0.354,0.59-0.472,0.945
		c-0.118,0.354-0.118,0.709-0.118,1.063s0,0.709,0.118,1.063c0.118,0.354,0.236,0.709,0.472,0.945
		c0.236,0.236,0.472,0.472,0.709,0.709c0.354,0.118,0.709,0.236,1.063,0.236c0.472,0,0.827-0.118,1.063-0.236
		c0.354-0.118,0.591-0.354,0.709-0.709c0.236-0.236,0.354-0.591,0.472-0.945c0.118-0.354,0.118-0.709,0.118-1.063
		s0-0.709-0.118-1.063c-0.118-0.354-0.236-0.709-0.472-0.945c-0.236-0.236-0.472-0.472-0.709-0.709
		C60.405,147.86,60.051,147.742,59.579,147.742"/>
	<polygon style="fill:#1F4492;" points="65.602,146.797 71.861,146.797 71.861,147.978 69.381,147.978 69.381,154.592 
		67.964,154.592 67.964,147.978 65.602,147.978 	"/>
	<polygon style="fill:#1F4492;" points="74.46,146.797 80.128,146.797 80.128,147.978 75.877,147.978 75.877,150.104 
		79.774,150.104 79.774,151.167 75.877,151.167 75.877,153.411 80.128,153.411 80.128,154.592 74.46,154.592 	"/>
	<polygon style="fill:#1F4492;" points="83.081,146.797 84.498,146.797 84.498,153.411 88.396,153.411 88.396,154.592 
		83.081,154.592 	"/>
	<path style="fill:#1F4492;" d="M97.962,146.797h1.417l2.953,7.795h-1.417l-0.709-2.008h-3.071l-0.709,2.008h-1.417L97.962,146.797z
		 M97.489,151.521h2.362l-1.181-3.307l0,0L97.489,151.521z"/>
	<path style="fill:#1F4492;" d="M104.93,146.797h3.425c0.591,0,0.945,0.118,1.299,0.236c0.354,0.118,0.591,0.354,0.827,0.591
		s0.354,0.472,0.354,0.827c0.118,0.236,0.118,0.591,0.118,0.827c0,0.236,0,0.472-0.118,0.827c-0.118,0.236-0.236,0.59-0.354,0.827
		c-0.236,0.236-0.472,0.472-0.827,0.591s-0.827,0.236-1.299,0.236h-2.126v2.953h-1.417v-7.913H104.93z M106.229,150.576h2.008
		c0.118,0,0.354,0,0.472-0.118c0.118,0,0.354-0.118,0.472-0.236s0.236-0.236,0.354-0.354s0.118-0.354,0.118-0.591
		c0-0.236,0-0.472-0.118-0.59c-0.118-0.118-0.118-0.354-0.236-0.354c-0.118-0.118-0.236-0.118-0.472-0.236c-0.118,0-0.354,0-0.472,0
		h-2.008v2.48H106.229z"/>
	<path style="fill:#1F4492;" d="M116.031,146.797h1.417l2.953,7.795h-1.417l-0.709-2.008h-3.071l-0.709,2.008h-1.417
		L116.031,146.797z M115.559,151.521h2.362l-1.181-3.307l0,0L115.559,151.521z"/>
	<path style="fill:#1F4492;" d="M122.881,146.797h3.661c0.827,0,1.535,0.236,1.89,0.59c0.472,0.354,0.591,0.945,0.591,1.535
		c0,0.354,0,0.709-0.118,0.945s-0.236,0.472-0.354,0.591c-0.118,0.118-0.236,0.236-0.472,0.354
		c-0.118,0.118-0.236,0.118-0.354,0.118l0,0c0.118,0,0.236,0,0.354,0.118c0.118,0,0.236,0.118,0.354,0.236
		c0.118,0.118,0.236,0.236,0.236,0.472c0.118,0.236,0.118,0.472,0.118,0.709c0,0.472,0,0.827,0.118,1.299
		c0.118,0.354,0.118,0.59,0.354,0.827h-1.417c-0.118-0.118-0.118-0.354-0.236-0.591c0-0.236,0-0.354,0-0.59
		c0-0.354,0-0.709-0.118-0.945c0-0.236-0.118-0.472-0.236-0.591c-0.118-0.118-0.236-0.354-0.472-0.354
		c-0.236-0.118-0.472-0.118-0.827-0.118h-2.008v3.189h-1.417v-7.795H122.881z M124.299,150.34h2.244
		c0.472,0,0.709-0.118,0.945-0.354c0.236-0.236,0.354-0.472,0.354-0.945c0-0.236,0-0.472-0.118-0.591s-0.118-0.236-0.354-0.354
		c-0.118,0-0.236-0.118-0.354-0.118s-0.354,0-0.472,0h-2.244V150.34z"/>
	<polygon style="fill:#1F4492;" points="131.621,146.797 137.88,146.797 137.88,147.978 135.4,147.978 135.4,154.592 
		134.101,154.592 134.101,147.978 131.621,147.978 	"/>
	<polygon style="fill:#1F4492;" points="140.479,146.797 142.368,146.797 144.612,152.938 144.612,152.938 146.738,146.797 
		148.628,146.797 148.628,154.592 147.328,154.592 147.328,148.569 147.21,148.569 145.085,154.592 144.022,154.592 
		141.778,148.569 141.778,148.569 141.778,154.592 140.479,154.592 	"/>
	<polygon style="fill:#1F4492;" points="151.934,146.797 157.603,146.797 157.603,147.978 153.352,147.978 153.352,150.104 
		157.249,150.104 157.249,151.167 153.352,151.167 153.352,153.411 157.603,153.411 157.603,154.592 151.934,154.592 	"/>
	<polygon style="fill:#1F4492;" points="160.556,146.797 161.973,146.797 165.516,152.584 165.516,152.584 165.516,146.797 
		166.815,146.797 166.815,154.592 165.398,154.592 161.855,148.923 161.855,148.923 161.855,154.592 160.556,154.592 	"/>
	<polygon style="fill:#1F4492;" points="169.414,146.797 175.673,146.797 175.673,147.978 173.311,147.978 173.311,154.592 
		171.894,154.592 171.894,147.978 169.414,147.978 	"/>
	<path style="fill:#1F4492;" d="M179.216,151.994c0,0.354,0,0.59,0.118,0.709c0.118,0.236,0.236,0.354,0.472,0.472
		c0.236,0.118,0.354,0.236,0.59,0.236c0.236,0.118,0.472,0.118,0.827,0.118s0.59,0,0.709-0.118c0.236-0.118,0.354-0.118,0.472-0.236
		s0.236-0.236,0.236-0.354s0.118-0.236,0.118-0.472c0-0.354-0.118-0.472-0.236-0.709c-0.118-0.118-0.236-0.236-0.472-0.354
		s-0.591-0.236-0.945-0.236c-0.354-0.118-0.827-0.236-1.299-0.354c-0.354-0.118-0.59-0.236-0.827-0.354s-0.354-0.354-0.472-0.472
		s-0.236-0.354-0.236-0.59c0-0.236-0.118-0.354-0.118-0.591c0-0.354,0.118-0.709,0.236-1.063c0.118-0.236,0.354-0.472,0.591-0.709
		s0.591-0.354,0.945-0.472s0.709-0.118,1.063-0.118s0.827,0,1.181,0.118s0.709,0.236,0.945,0.472s0.472,0.472,0.591,0.827
		c0.118,0.354,0.236,0.709,0.236,1.063h-1.417c0-0.472-0.236-0.827-0.472-1.063c-0.354-0.236-0.709-0.354-1.181-0.354
		c-0.118,0-0.354,0-0.472,0c-0.118,0-0.354,0.118-0.472,0.118c-0.118,0.118-0.236,0.236-0.354,0.354s-0.118,0.236-0.118,0.472
		s0.118,0.472,0.236,0.591c0.118,0.118,0.354,0.236,0.709,0.354c0,0,0.118,0,0.354,0.118c0.236,0,0.472,0.118,0.709,0.236
		c0.236,0.118,0.472,0.118,0.709,0.236c0.236,0.118,0.354,0.118,0.472,0.118c0.236,0.118,0.472,0.236,0.709,0.354
		s0.354,0.354,0.472,0.472c0.118,0.236,0.236,0.354,0.236,0.591c0.118,0.236,0.118,0.354,0.118,0.591
		c0,0.472-0.118,0.827-0.236,1.063c-0.236,0.354-0.354,0.591-0.709,0.709c-0.236,0.236-0.59,0.354-0.945,0.472
		c-0.354,0.118-0.709,0.118-1.181,0.118s-0.827,0-1.299-0.118c-0.354-0.118-0.709-0.236-1.063-0.472
		c-0.236-0.236-0.472-0.472-0.709-0.827c-0.118-0.354-0.236-0.827-0.236-1.299h1.417V151.994z"/>
</g>
</svg>
