<svg width="260" height="91" viewBox="0 0 260 91" fill="none" xmlns="http://www.w3.org/2000/svg">
<path d="M45.3893 91C70.4571 91 90.7785 70.629 90.7785 45.5C90.7785 20.371 70.4571 0 45.3893 0C20.3215 0 0 20.371 0 45.5C0 70.629 20.3215 91 45.3893 91Z" fill="#C3996C"/>
<path d="M35.1017 50.5134L39.5311 61.3513C39.8168 61.1603 40.1026 60.9694 40.3884 60.7784C40.436 60.7306 40.5312 60.6829 40.5789 60.6352L35.5303 49.3198L35.1017 50.5134Z" fill="#231F20"/>
<path d="M33.2442 55.0967L36.6734 63.4519C37.0068 63.1654 37.3878 62.9267 37.7212 62.6403L33.7681 53.8076L33.2442 55.0967Z" fill="#231F20"/>
<path d="M31.3867 59.6803L33.911 65.8392C34.2444 65.505 34.6254 65.2185 34.9588 64.8843L31.9583 58.2002L31.3867 59.6803Z" fill="#231F20"/>
<path d="M29.5292 64.2156L31.2915 68.4648C31.6249 68.0828 31.9582 67.7486 32.3393 67.3667L30.196 62.5923L29.5292 64.2156Z" fill="#231F20"/>
<path d="M27.6718 68.7992L28.7196 71.3774C29.053 70.9955 29.3864 70.5658 29.7674 70.1361L28.3862 67.0327L27.6718 68.7992Z" fill="#231F20"/>
<path d="M25.8143 73.3824L26.2905 74.5283C26.6239 74.0986 26.9573 73.6689 27.3384 73.1437L26.5763 71.4727L25.8143 73.3824Z" fill="#231F20"/>
<path d="M23.9568 77.9184C23.9568 77.9184 24.3378 77.3455 24.957 76.3906L24.7665 75.9609L23.9568 77.9184Z" fill="#231F20"/>
<path d="M36.8639 46.1208L42.8174 59.3936C42.9126 59.3459 43.0079 59.2981 43.1031 59.2504L37.2925 45.1182L36.8639 46.1208Z" fill="#231F20"/>
<path d="M38.6738 41.6804L45.9132 57.8179C46.0084 57.7701 46.1037 57.7224 46.199 57.6746L39.15 40.4868L38.6738 41.6804Z" fill="#231F20"/>
<path d="M40.4836 37.2403L49.1043 56.4811C49.1995 56.4333 49.2948 56.3856 49.39 56.3378L41.0075 35.9512L40.4836 37.2403Z" fill="#231F20"/>
<path d="M42.2935 32.8L52.3429 55.3352C52.4382 55.2874 52.5334 55.2874 52.6287 55.2397L42.865 31.3677L42.2935 32.8Z" fill="#231F20"/>
<path d="M44.1033 28.408L55.7245 54.4284C55.8198 54.4284 55.915 54.3807 56.0103 54.3329L44.7225 26.7847L44.1033 28.408Z" fill="#231F20"/>
<path d="M45.9132 23.9677L59.2014 53.7122C59.2966 53.7122 59.3919 53.6645 59.4871 53.6645L46.6276 22.2012L45.9132 23.9677Z" fill="#231F20"/>
<path d="M47.723 19.5275L62.821 53.2825C62.9163 53.2825 63.0115 53.2825 63.1068 53.2825L48.4851 17.6655L47.723 19.5275Z" fill="#231F20"/>
<path d="M66.7742 53.1869L50.295 13.0342L49.4853 15.0394L66.536 53.1391C66.7265 53.1869 66.7742 53.1869 66.7742 53.1869Z" fill="#231F20"/>
<path d="M136.263 56.099H132.596L128.214 47.4096H110.496L106.305 56.099H102.638L106.877 47.4096H103.447L104.924 44.5449H108.258L118.688 23.1079H119.689L136.263 56.099ZM126.737 44.4972L119.26 29.1714L111.878 44.4972H126.737Z" fill="#363636"/>
<path d="M170.793 53.3298V56.0512H143.645V55.1919L164.078 25.8771H142.836V23.1079H169.412V24.0628L148.98 53.3298H170.793Z" fill="#363636"/>
<path d="M182.414 51.9934C178.652 48.89 176.794 44.7363 176.794 39.5322C176.794 34.3759 178.747 30.2699 182.653 27.1665C186.51 24.1587 191.226 22.6309 196.798 22.6309C203.561 22.6309 209.086 24.7316 213.372 28.9808L211.229 31.7022C207.705 27.644 202.942 25.6387 196.893 25.6387C192.321 25.6387 188.415 26.8801 185.224 29.4105C183.605 30.6996 182.367 32.1797 181.557 33.8507C180.747 35.5217 180.319 37.3837 180.319 39.4845C180.366 43.7814 181.938 47.219 185.082 49.7494C188.273 52.3276 192.13 53.6167 196.655 53.6167C202.609 53.6167 207.276 51.8502 210.658 48.3171L212.896 50.7521C210.991 52.5663 208.562 54.0464 205.514 55.0968C202.799 56.0516 199.846 56.5291 196.798 56.5291C190.892 56.5768 186.082 55.049 182.414 51.9934Z" fill="#363636"/>
<path d="M229.328 54.3805C226.232 52.9004 223.851 50.8952 222.088 48.2693C220.326 45.6911 219.469 42.731 219.469 39.4844C219.469 36.2855 220.326 33.3731 222.041 30.795C223.755 28.2168 226.184 26.2115 229.28 24.7792C232.376 23.3469 235.853 22.583 239.711 22.583C243.616 22.583 247.093 23.2992 250.189 24.7315C253.284 26.1638 255.666 28.1691 257.428 30.7472C259.143 33.3254 260 36.2378 260 39.4844C260 42.7787 259.143 45.6911 257.38 48.2693C255.618 50.8474 253.237 52.9004 250.141 54.3327C247.045 55.7651 243.568 56.529 239.711 56.529C235.853 56.5767 232.424 55.8128 229.328 54.3805ZM225.184 46.7892C226.613 48.9377 228.566 50.561 231.09 51.7546C233.614 52.9482 236.472 53.5688 239.711 53.5688C242.949 53.5688 245.855 52.9482 248.426 51.7546C250.998 50.561 252.999 48.8899 254.428 46.7415C255.856 44.593 256.571 42.158 256.523 39.4366C256.476 36.763 255.761 34.3758 254.285 32.275C252.856 30.1743 250.855 28.551 248.331 27.3574C245.807 26.1638 242.949 25.5909 239.711 25.5909C236.519 25.5909 233.662 26.1638 231.138 27.3574C228.613 28.551 226.661 30.1743 225.232 32.275C223.803 34.3758 223.088 36.763 223.041 39.4366C223.041 42.2535 223.755 44.6885 225.184 46.7892Z" fill="#363636"/>
<path d="M124.975 68.5126V74.2896H124.308V71.6159H120.927V74.2419H120.26V68.4648H120.927V70.9953H124.308V68.4648H124.975V68.5126Z" fill="#363636"/>
<path d="M129.833 71.3771C129.833 69.7538 131.167 68.417 132.786 68.417C134.406 68.417 135.739 69.7538 135.739 71.3771C135.739 73.0004 134.406 74.385 132.786 74.385C131.167 74.3372 129.833 73.0004 129.833 71.3771ZM135.025 71.3771C135.025 70.088 133.977 68.9899 132.739 68.9899C131.5 68.9899 130.452 70.088 130.452 71.3771C130.452 72.6662 131.5 73.7643 132.739 73.7643C133.977 73.7643 135.025 72.6662 135.025 71.3771Z" fill="#363636"/>
<path d="M144.265 73.6212V74.2419H140.454V68.4648H141.121V73.6212H144.265Z" fill="#363636"/>
<path d="M148.932 68.5122H149.599V74.2892H148.932V68.5122Z" fill="#363636"/>
<path d="M154.79 68.5122H156.743C158.553 68.5122 159.839 69.7058 159.839 71.3768C159.839 73.0479 158.553 74.2415 156.743 74.2415H154.79V68.5122ZM156.743 73.6686C158.172 73.6686 159.172 72.7137 159.172 71.3768C159.172 70.04 158.172 69.0851 156.743 69.0851H155.457V73.6686H156.743Z" fill="#363636"/>
<path d="M168.459 72.9528H165.268L164.697 74.2419H163.982L166.507 68.4648H167.221L169.745 74.2419H169.031L168.459 72.9528ZM168.174 72.3321L166.84 69.3242L165.507 72.3321H168.174Z" fill="#363636"/>
<path d="M175.937 71.902L173.603 68.5122H174.413L176.27 71.2814L178.128 68.5122H178.938L176.651 71.902V74.2415H175.985V71.902H175.937Z" fill="#363636"/>
<path d="M194.369 68.5126V74.2896H193.702V71.6159H190.321V74.2419H189.654V68.4648H190.321V70.9953H193.702V68.4648H194.369V68.5126Z" fill="#363636"/>
<path d="M199.227 71.3771C199.227 69.7538 200.561 68.417 202.18 68.417C203.799 68.417 205.133 69.7538 205.133 71.3771C205.133 73.0004 203.799 74.385 202.18 74.385C200.561 74.3372 199.227 73.0004 199.227 71.3771ZM204.418 71.3771C204.418 70.088 203.371 68.9899 202.132 68.9899C200.894 68.9899 199.846 70.088 199.846 71.3771C199.846 72.6662 200.894 73.7643 202.132 73.7643C203.418 73.7643 204.418 72.6662 204.418 71.3771Z" fill="#363636"/>
<path d="M210.086 68.5122H210.753L212.896 72.5227L215.039 68.5122H215.706V74.2892H215.039V69.9445L212.896 73.955L210.753 69.9445V74.2892H210.086V68.5122Z" fill="#363636"/>
<path d="M221.517 69.1329V71.0426H224.613V71.6633H221.517V73.6686H224.994V74.2892H220.85V68.5122H224.994V69.1329H221.517Z" fill="#363636"/>
<path d="M229.566 73.43L229.995 72.9048C230.471 73.3823 231.09 73.7165 231.9 73.7165C232.805 73.7165 233.233 73.239 233.233 72.7139C233.233 72.0932 232.709 71.8545 231.709 71.6157C230.566 71.3293 229.804 70.9951 229.804 69.9924C229.804 69.0853 230.614 68.3691 231.709 68.3691C232.566 68.3691 233.186 68.7033 233.709 69.1808L233.328 69.706C232.852 69.2285 232.281 68.9898 231.661 68.9898C230.947 68.9898 230.423 69.4673 230.423 69.9924C230.423 70.5654 230.995 70.8041 231.947 71.0428C233.043 71.2815 233.805 71.7112 233.805 72.7139C233.805 73.621 233.138 74.3849 231.804 74.3849C230.899 74.3372 230.137 74.0029 229.566 73.43Z" fill="#363636"/>
</svg>
