<?xml version="1.0" encoding="iso-8859-1"?>
<!-- Generator: Adobe Illustrator 21.1.0, SVG Export Plug-In . SVG Version: 6.00 Build 0)  -->
<svg version="1.1" id="Layer_1" xmlns="http://www.w3.org/2000/svg" xmlns:xlink="http://www.w3.org/1999/xlink" x="0px" y="0px"
	 viewBox="0 0 231 231" style="enable-background:new 0 0 231 231;" xml:space="preserve">
<g>
	<polygon style="fill:#B20932;" points="77.72,100.473 100.152,100.473 115.5,85.713 130.848,99.88 153.28,99.88 116.088,62.693 	
		"/>
	<g>
		<path style="fill:#085795;" d="M56.886,118.156v3.002c0,2.323-0.56,4.149-1.685,5.472c-1.119,1.328-2.657,1.99-4.602,1.99
			c-2.182,0-3.867-0.82-5.054-2.459c-1.187-1.639-1.781-3.98-1.781-7.016c0-3.064,0.594-5.387,1.775-6.976s2.917-2.38,5.195-2.38
			c2.555,0,4.404,1.362,5.551,4.087l-3.872,1.594c-0.322-0.571-0.622-0.989-0.899-1.255c-0.277-0.266-0.656-0.396-1.142-0.396
			c-0.82,0-1.408,0.43-1.747,1.295c-0.345,0.865-0.514,2.256-0.514,4.189c0,1.798,0.192,3.115,0.582,3.963s1.006,1.266,1.854,1.266
			c1.357,0,2.058-0.967,2.103-2.906h-1.888v-3.471H56.886z"/>
		<path style="fill:#085795;" d="M64.331,128.62c-2.165,0-3.81-0.831-4.946-2.487c-1.136-1.656-1.702-4.048-1.702-7.179
			c0-2.889,0.571-5.133,1.707-6.75c1.142-1.611,2.725-2.42,4.766-2.42c2.171,0,3.833,0.808,4.98,2.425
			c1.148,1.617,1.724,3.929,1.724,6.931s-0.565,5.331-1.696,6.987C68.034,127.795,66.423,128.62,64.331,128.62z M64.184,113.854
			c-1.464,0-2.199,1.719-2.199,5.161c0,2.216,0.187,3.697,0.554,4.438c0.373,0.741,0.91,1.114,1.617,1.114
			c0.758,0,1.34-0.373,1.747-1.114s0.611-2.193,0.611-4.359C66.519,115.601,65.738,113.854,64.184,113.854z"/>
		<path style="fill:#085795;" d="M72.505,110.287h4.059v13.754h3.217v4.144h-7.276V110.287z"/>
		<path style="fill:#085795;" d="M81.155,110.287h3.793c2.629,0,4.624,0.746,5.992,2.244c1.368,1.498,2.052,3.686,2.052,6.563
			c0,2.182-0.339,3.94-1.012,5.28c-0.673,1.34-1.617,2.312-2.827,2.906c-1.21,0.599-2.55,0.899-4.014,0.899h-3.98v-17.892H81.155z
			 M85.219,114.092v10.266c1.232-0.107,2.103-0.543,2.612-1.306s0.763-2.024,0.763-3.771c0-1.035-0.09-1.916-0.266-2.634
			c-0.181-0.718-0.447-1.272-0.797-1.662c-0.35-0.39-0.695-0.627-1.035-0.718C86.163,114.176,85.734,114.12,85.219,114.092z"/>
		<path style="fill:#085795;" d="M94.355,110.287h8.214v3.805h-4.155v3.296h3.607v3.714h-3.607v3.256h4.183v3.822h-8.242V110.287z"
			/>
		<path style="fill:#085795;" d="M104.428,110.287h4.099l5.161,10.323l-0.147-1.928v-8.389h4.059v17.892h-4.166l-5.054-10.159
			l0.107,2.227v7.937h-4.059L104.428,110.287L104.428,110.287z"/>
		<path style="fill:#085795;" d="M125.43,127.846v-4.166c1.289,0.752,2.369,1.125,3.245,1.125c0.509,0,0.91-0.141,1.204-0.424
			c0.294-0.283,0.441-0.656,0.441-1.119c0-0.356-0.119-0.69-0.356-1.006c-0.237-0.311-0.644-0.69-1.227-1.142
			c-1.402-1.074-2.42-2.069-3.047-2.996c-0.627-0.927-0.944-1.956-0.944-3.087c0-1.543,0.486-2.804,1.459-3.782
			c0.972-0.972,2.233-1.459,3.782-1.459c1.142,0,2.278,0.243,3.403,0.735v4.008c-1.204-0.661-2.182-0.989-2.934-0.989
			c-0.503,0-0.893,0.124-1.187,0.367c-0.288,0.243-0.435,0.582-0.435,1.012c0,0.752,0.673,1.594,2.024,2.533
			c0.803,0.554,1.617,1.334,2.448,2.34c0.825,1.006,1.238,2.171,1.238,3.494c0,1.543-0.543,2.827-1.622,3.838
			s-2.453,1.521-4.115,1.521C127.674,128.648,126.549,128.383,125.43,127.846z"/>
		<path style="fill:#085795;" d="M148.596,128.179h-4.223l-0.684-2.991h-4.291l-0.712,2.991h-4.144l4.743-17.892h4.556
			L148.596,128.179z M142.915,121.972c-0.611-2.663-1.063-5.195-1.368-7.598h-0.051c-0.322,2.476-0.774,5.009-1.351,7.598H142.915z"
			/>
		<path style="fill:#085795;" d="M149.275,110.287h4.099l5.161,10.323l-0.147-1.928v-8.389h4.059v17.892h-4.166l-5.054-10.159
			l0.107,2.227v7.937h-4.059V110.287z"/>
		<path style="fill:#085795;" d="M164.928,110.287h3.793c2.629,0,4.624,0.746,5.992,2.244c1.368,1.498,2.052,3.686,2.052,6.563
			c0,2.182-0.339,3.94-1.012,5.28c-0.673,1.34-1.617,2.312-2.827,2.906c-1.21,0.599-2.55,0.899-4.014,0.899h-3.98v-17.892H164.928z
			 M168.987,114.092v10.266c1.232-0.107,2.103-0.543,2.612-1.306c0.509-0.763,0.763-2.024,0.763-3.771
			c0-1.035-0.09-1.916-0.266-2.634c-0.181-0.718-0.447-1.272-0.797-1.662s-0.695-0.627-1.035-0.718
			C169.931,114.176,169.507,114.12,168.987,114.092z"/>
		<path style="fill:#085795;" d="M178.122,127.846v-4.166c1.289,0.752,2.369,1.125,3.245,1.125c0.509,0,0.91-0.141,1.204-0.424
			c0.294-0.283,0.441-0.656,0.441-1.119c0-0.356-0.119-0.69-0.356-1.006c-0.237-0.311-0.644-0.69-1.227-1.142
			c-1.402-1.074-2.42-2.069-3.047-2.996c-0.628-0.927-0.944-1.956-0.944-3.087c0-1.543,0.486-2.804,1.458-3.782
			c0.972-0.972,2.233-1.459,3.782-1.459c1.142,0,2.278,0.243,3.403,0.735v4.008c-1.204-0.661-2.182-0.989-2.934-0.989
			c-0.503,0-0.893,0.124-1.187,0.367c-0.288,0.243-0.435,0.582-0.435,1.012c0,0.752,0.673,1.594,2.024,2.533
			c0.803,0.554,1.617,1.334,2.448,2.34c0.825,1.006,1.238,2.171,1.238,3.494c0,1.543-0.543,2.827-1.622,3.838
			s-2.453,1.521-4.115,1.521C180.367,128.648,179.242,128.383,178.122,127.846z"/>
	</g>
	<g>
		<path style="fill:#085795;" d="M44.531,139.525h2.357v7.982h1.866v2.403h-4.229v-10.385H44.531z"/>
		<path style="fill:#085795;" d="M71.965,149.91h-2.453l-0.396-1.736h-2.493l-0.413,1.736h-2.403l2.753-10.39h2.646L71.965,149.91z
			 M68.664,146.309c-0.35-1.543-0.616-3.019-0.791-4.415h-0.034c-0.187,1.436-0.447,2.906-0.786,4.415H68.664z"/>
		<path style="fill:#085795;" d="M87.297,139.525h2.42v7.315c0,0.345,0.09,0.616,0.271,0.814s0.424,0.3,0.729,0.3
			c0.317,0,0.565-0.107,0.752-0.317c0.187-0.215,0.277-0.503,0.277-0.882v-7.23h2.403v6.818c0,0.927-0.124,1.673-0.367,2.233
			c-0.243,0.56-0.605,0.972-1.08,1.232c-0.475,0.26-1.136,0.396-1.99,0.396c-1.255,0-2.143-0.322-2.651-0.967
			c-0.514-0.644-0.769-1.73-0.769-3.262v-6.45H87.297z"/>
		<path style="fill:#085795;" d="M110.633,139.525h2.38l2.996,5.992l-0.085-1.119v-4.873h2.357v10.39h-2.42l-2.934-5.896
			l0.062,1.295v4.607h-2.357L110.633,139.525L110.633,139.525z"/>
		<path style="fill:#085795;" d="M134.856,139.525h2.205c1.526,0,2.685,0.435,3.477,1.306c0.791,0.871,1.193,2.137,1.193,3.81
			c0,1.266-0.198,2.29-0.588,3.064c-0.39,0.78-0.938,1.34-1.639,1.69c-0.701,0.345-1.481,0.52-2.329,0.52h-2.312v-10.39H134.856z
			 M137.214,141.735v5.958c0.718-0.062,1.221-0.317,1.515-0.758c0.294-0.441,0.441-1.176,0.441-2.193
			c0-0.599-0.051-1.114-0.158-1.532c-0.102-0.418-0.26-0.741-0.464-0.967c-0.204-0.226-0.407-0.362-0.599-0.418
			C137.762,141.78,137.519,141.747,137.214,141.735z"/>
		<path style="fill:#085795;" d="M157.661,139.525h2.747c1.108,0,1.984,0.283,2.629,0.854c0.644,0.571,0.967,1.345,0.967,2.329
			c0,0.503-0.124,0.989-0.367,1.458c-0.243,0.469-0.599,0.825-1.068,1.063l1.882,4.686h-2.493l-1.905-4.732h-0.04v4.732h-2.352
			V139.525z M160.018,141.532v2.465c1.04-0.023,1.566-0.384,1.566-1.097c0-0.481-0.119-0.825-0.362-1.035
			C160.979,141.656,160.578,141.549,160.018,141.532z"/>
		<path style="fill:#085795;" d="M178.549,139.525h2.646c0.588,1.492,1.012,2.646,1.278,3.454h0.034
			c0.266-0.831,0.684-1.984,1.261-3.454h2.708l-2.787,5.687v4.698h-2.391v-4.698L178.549,139.525z"/>
	</g>
	<rect x="44.794" y="131.927" style="fill:#004E90;" width="141.413" height="1.018"/>
	<rect x="44.794" y="155.828" style="fill:#004E90;" width="141.413" height="1.018"/>
</g>
</svg>
