<?xml version="1.0" encoding="iso-8859-1"?>
<!-- Generator: Adobe Illustrator 21.1.0, SVG Export Plug-In . SVG Version: 6.00 Build 0)  -->
<svg version="1.1" id="Layer_1" xmlns="http://www.w3.org/2000/svg" xmlns:xlink="http://www.w3.org/1999/xlink" x="0px" y="0px"
	 viewBox="0 0 231 231" style="enable-background:new 0 0 231 231;" xml:space="preserve">
<g>
	<path style="display:none;" d="M221.3,221c-70.667,0-141.333,0-212,0c0-70.667,0-141.333,0-212c70.667,0,141.333,0,212,0
		C221.3,79.667,221.3,150.333,221.3,221z M134.804,112.856c-0.024,0.118-0.024,0.236-0.047,0.353
		c0.424,0.306,0.801,0.707,1.248,0.919c1.272,0.589,1.602,1.46,1.602,2.874c-0.094,7.42-0.024,14.816-0.071,22.236
		c0,0.966,0.236,1.437,1.248,1.555c1.602,0.188,3.156,0.636,4.758,0.707c4.216,0.212,7.915-1.013,10.2-4.805
		c2.167-3.557,2.073-7.349,0.118-11c-1.955-3.675-6.077-4.758-9.681-2.685c-0.707,0.4-1.343,0.895-2.167,1.46
		c0-2.332,0-4.523,0-6.713c0-2.214,0-4.428,0-6.878C139.492,111.584,137.16,112.22,134.804,112.856z M103.004,140.723
		c0.024-0.118,0.047-0.212,0.071-0.33c-0.353-0.188-0.683-0.448-1.06-0.542c-1.013-0.236-1.296-0.824-1.272-1.861
		c0.071-3.251,0.024-6.525,0.024-9.776c0-2.356,0.141-2.52,2.473-2.921c0.306-0.047,0.612-0.094,0.942-0.118
		c2.803-0.188,4.193,1.06,4.24,3.887c0.024,3.109-0.024,6.195,0.024,9.304c0,0.754-0.259,1.131-0.966,1.343
		c-0.471,0.141-0.895,0.448-1.484,0.73c1.296,0.636,8.668,0.542,9.422-0.118c-0.448-0.188-0.824-0.424-1.201-0.471
		c-1.201-0.165-1.413-0.895-1.366-1.979c0.071-2.238,0.047-4.476,0.024-6.713c-0.024-1.531,0.024-3.062-0.118-4.593
		c-0.33-3.062-2.568-4.923-5.606-4.523c-1.39,0.188-2.732,0.848-4.028,1.46c-0.754,0.353-1.366,0.989-2.285,1.672
		c0-4.852,0-9.469,0-14.298c-2.544,0.707-4.852,1.343-7.161,1.979c-0.024,0.118-0.047,0.236-0.047,0.33
		c0.589,0.424,1.131,0.895,1.767,1.225c0.872,0.471,1.131,1.084,1.131,2.073c-0.047,7.137-0.047,14.298,0,21.436
		c0,1.013-0.212,1.625-1.272,1.837c-0.495,0.094-0.919,0.4-1.39,0.612c0.047,0.094,0.094,0.212,0.141,0.306
		C96.95,140.723,99.989,140.723,103.004,140.723z M38.179,132.29c-0.118,0.118-0.236,0.212-0.353,0.33
		c0.118,2.544,0.236,5.088,0.4,7.632c0.024,0.4,0.236,0.777,0.377,1.154c0.377-0.165,0.872-0.236,1.107-0.518
		c0.636-0.754,1.225-0.636,2.049-0.33c2.803,1.036,5.653,1.39,8.504,0.212c3.109-1.296,4.97-3.604,5.3-7.02
		c0.306-3.416-1.366-5.677-4.287-7.161c-0.518-0.259-1.06-0.495-1.602-0.73c-1.672-0.754-3.416-1.39-4.994-2.332
		c-2.096-1.225-2.685-3.934-1.484-5.842c1.107-1.767,3.651-2.191,5.771-0.895c0.212,0.118,0.424,0.236,0.565,0.424
		c1.225,1.555,2.426,3.133,3.651,4.688c0.212,0.259,0.565,0.424,0.848,0.636c0.118-0.33,0.353-0.66,0.33-0.966
		c-0.141-1.955-0.306-3.91-0.518-5.865c-0.047-0.4-0.236-0.777-0.353-1.154c-0.377,0.165-0.848,0.236-1.107,0.518
		c-0.612,0.636-1.154,0.683-1.955,0.283c-1.743-0.872-3.604-0.966-5.512-0.612c-3.345,0.636-5.889,3.204-6.36,6.431
		c-0.495,3.392,1.084,6.219,4.405,7.797c1.178,0.565,2.426,0.919,3.58,1.484c1.272,0.612,2.615,1.178,3.675,2.049
		c2.403,2.026,1.508,6.195-1.484,7.208c-2.356,0.777-4.523,0.165-6.148-1.578c-1.343-1.437-2.285-3.251-3.439-4.852
		C38.862,132.879,38.485,132.596,38.179,132.29z M55.893,66.735c0,0.589,0.024,0.989,0,1.366c-0.259,3.368-2.191,5.889-5.064,6.643
		c-3.251,0.872-6.643-0.259-8.292-3.18c-2.874-5.064-2.944-10.364-0.141-15.476c1.413-2.568,3.84-3.722,6.808-3.604
		c3.156,0.118,5.017,1.932,6.054,4.758c0.094,0.259,0.212,0.495,0.283,0.777c0.4,1.46,1.319,0.424,2.002,0.4
		c0.801-0.024,0.636-0.612,0.471-1.131c-1.201-3.769-3.416-6.501-7.538-7.043c-4.287-0.565-7.962,0.707-10.223,4.546
		c-3.321,5.63-3.251,11.542-0.424,17.337c3.274,6.666,12.932,6.831,15.994,1.437c0.024-0.024,0.141-0.024,0.33-0.047
		c0,1.036,0,2.073,0,3.133c0.801,0,1.484,0,2.261,0c0-3.84,0-7.608,0-11.377c0-0.188-0.071-0.377-0.141-0.683
		c-2.662,0-5.324-0.024-7.985,0.024c-0.212,0-0.518,0.4-0.589,0.66c-0.094,0.424-0.024,0.895-0.024,1.484
		C51.841,66.735,53.82,66.735,55.893,66.735z M58.72,129.934c0.024,7.491,2.944,10.977,8.15,11.542
		c4.122,0.448,7.962-1.672,9.634-5.3c1.814-3.981,1.06-9.375-1.837-11.919c-3.133-2.756-6.808-2.992-10.459-1.413
		C60.392,124.493,58.767,127.72,58.72,129.934z M162.505,146.211c-0.73-0.612-1.201-1.131-1.767-1.46
		c-1.013-0.589-2.096-0.636-3.109,0.047c-0.824,0.565-1.107,1.413-0.895,2.379c0.259,1.178,1.131,1.743,2.238,1.955
		c1.814,0.33,3.321-0.33,4.334-1.743c0.989-1.39,1.932-2.874,2.591-4.452c2.403-5.748,4.664-11.566,7.043-17.337
		c0.259-0.612,0.872-1.107,1.437-1.555c0.471-0.4,1.084-0.636,1.625-0.942c-0.047-0.118-0.094-0.236-0.118-0.353
		c-2.285,0-4.57,0-6.855,0c-0.047,0.094-0.094,0.188-0.141,0.283c0.777,0.495,1.531,1.013,2.332,1.531
		c-1.272,3.722-2.544,7.373-3.792,11.024c-0.094,0-0.212-0.024-0.306-0.024c-1.39-3.769-2.78-7.538-4.169-11.33
		c0.942-0.4,1.767-0.754,2.591-1.107c-0.047-0.165-0.071-0.33-0.118-0.495c-3.274-0.047-6.525-0.094-9.823,0.259
		c0.377,0.424,0.754,0.707,1.178,0.801c1.013,0.212,1.437,0.919,1.814,1.79c2.049,5.017,4.122,10.011,6.172,15.005
		c0.141,0.353,0.33,0.824,0.188,1.107C164.178,143.149,163.353,144.633,162.505,146.211z M116.949,96.156
		c25.958,0,51.893,0,77.851,0c0.353,0,0.707,0.047,1.06-0.024c0.212-0.047,0.377-0.283,0.542-0.424
		c-0.188-0.165-0.33-0.424-0.542-0.448c-0.377-0.071-0.777-0.024-1.178-0.024c-51.657,0-103.315,0-154.972,0
		c-0.306,0-0.636-0.071-0.942,0.024c-0.4,0.094-0.754,0.306-1.131,0.471c0.377,0.165,0.754,0.33,1.131,0.448
		c0.141,0.047,0.306,0,0.471,0C65.15,96.156,91.038,96.156,116.949,96.156z M121.048,130.429c2.473,0,4.499,0,6.525,0
		c2.049,0,4.122,0,6.172,0c0.118-7.75-6.195-9.422-10.529-8.009c-3.957,1.272-6.737,5.324-6.619,9.728
		c0.094,3.628,1.319,6.713,4.805,8.409c4.287,2.073,8.504,0.707,12.013-2.403c0.094-0.071,0.047-0.259,0.118-0.612
		c-0.565,0.141-0.989,0.259-1.437,0.33c-1.814,0.306-3.604,0.777-5.418,0.824c-2.144,0.047-3.816-1.06-4.523-3.133
		C121.636,133.986,121.448,132.313,121.048,130.429z M183.493,134.881c-0.118,0.094-0.236,0.188-0.353,0.283c0,0.707,0,1.39,0,2.096
		c0,3.58,0,3.58,3.58,4.099c2.544,0.377,4.994,0.236,7.232-1.248c2.992-1.979,3.722-7.067-0.188-9.21
		c-1.296-0.707-2.709-1.201-4.028-1.884c-0.824-0.424-1.696-0.895-2.332-1.531c-1.319-1.343-0.707-3.463,1.084-4.052
		c1.343-0.424,2.52,0,3.416,0.989c0.824,0.872,1.46,1.932,2.238,2.874c0.165,0.212,0.542,0.424,0.73,0.353
		c0.212-0.071,0.424-0.448,0.424-0.707c0.024-0.777-0.047-1.555-0.071-2.356c-0.024-2.002,0-2.026-2.002-2.356
		c-2.638-0.424-5.253-0.565-7.585,1.084c-3.227,2.308-3.133,6.643,0.212,8.739c0.966,0.589,2.026,1.013,3.039,1.508
		c0.942,0.471,1.932,0.872,2.827,1.437c1.131,0.73,1.484,1.932,1.084,3.204c-0.4,1.272-1.343,1.932-2.732,1.979
		c-1.319,0.047-2.403-0.471-3.251-1.39c-0.872-0.989-1.578-2.12-2.403-3.18C184.176,135.328,183.8,135.116,183.493,134.881z
		 M92.286,122.632c-1.508,0-2.897,0-4.311,0c-1.696,0-1.696,0-1.696-1.72c0-1.154,0-2.285,0-3.439c-0.094,0-0.212,0-0.306-0.024
		c-2.356,2.379-4.688,4.782-7.326,7.444c0.919,0,1.531,0.047,2.144,0c0.895-0.094,1.131,0.283,1.107,1.154
		c-0.047,1.955-0.024,3.934,0,5.889c0.024,2.144-0.024,4.311,0.165,6.454c0.165,1.79,1.225,2.685,3.015,2.921
		c2.426,0.283,4.664-0.353,6.808-1.413c0.259-0.118,0.424-0.424,0.848-0.872c-0.966,0-1.578-0.024-2.191,0
		c-3.156,0.141-4.24-0.872-4.24-3.981c0-2.944,0.047-5.889-0.024-8.833c-0.024-1.036,0.259-1.39,1.319-1.319
		c1.555,0.094,3.109,0.024,4.711,0.024C92.286,124.069,92.286,123.456,92.286,122.632z M75.844,76.628c0.848,0,1.578,0,2.379,0
		c0-6.172,0-12.272,0-18.397c-0.801,0-1.531,0-2.356,0c0,0.542,0,0.989,0,1.46c0,3.651,0,7.302-0.024,10.953
		c0,0.448-0.047,1.036-0.33,1.296c-1.672,1.602-3.557,2.85-5.983,2.944c-2.308,0.094-3.651-0.966-3.698-3.251
		c-0.118-4.004-0.071-8.009-0.094-11.99c0-0.448,0-0.919,0-1.39c-0.872,0-1.602,0-2.379,0c0,4.923-0.118,9.799,0.047,14.628
		c0.071,2.049,1.413,3.439,3.486,3.934c2.332,0.565,4.523,0.118,6.548-1.131c0.777-0.471,1.508-1.06,2.426-1.696
		C75.844,74.956,75.844,75.756,75.844,76.628z M98.905,58.137c-1.296,0-2.544,0-4.099,0c0.212-1.508,0.118-2.992,0.636-4.216
		c0.66-1.555,2.45-0.942,3.698-1.225c0-0.707,0-1.319,0-1.932c-1.837-0.118-3.58-0.212-5.064,0.895
		c-2.191,1.649-1.366,4.146-1.672,6.454c-1.013,0-2.026,0-3.086,0c0,0.754,0,1.366,0,2.096c0.66,0,1.248,0.071,1.814-0.024
		c1.107-0.141,1.39,0.306,1.39,1.366c-0.047,4.593-0.024,9.163-0.024,13.756c0,0.424,0,0.824,0,1.272c0.895,0,1.625,0,2.473,0
		c0-5.465,0-10.859,0-16.23c0.236-0.071,0.33-0.141,0.448-0.141c0.66-0.024,1.343-0.024,2.002-0.024
		C99.212,60.21,99.212,60.21,98.905,58.137z M83.429,50.764c0,8.645,0,17.219,0,25.84c0.801,0,1.555,0,2.332,0
		c0-8.668,0-17.219,0-25.84C84.96,50.764,84.23,50.764,83.429,50.764z M149.573,156.387c0,3.039,0,5.96,0.024,8.88
		c0,0.165,0.306,0.353,0.471,0.518c0.165-0.212,0.495-0.4,0.495-0.612c0.047-1.154,0.024-2.332,0.024-3.463
		c2.096-0.33,2.096-0.33,2.992,1.319c0.4,0.73,0.73,1.484,1.201,2.144c0.212,0.306,0.683,0.471,1.036,0.683
		c0.094-0.094,0.165-0.188,0.259-0.306c-0.707-1.319-1.413-2.662-2.096-3.981c0.188-0.118,0.259-0.212,0.377-0.259
		c1.437-0.73,1.932-1.625,1.672-2.992c-0.212-1.178-1.06-1.861-2.568-1.955C152.235,156.34,151.034,156.387,149.573,156.387z
		 M119.328,165.668c0.141,0.071,0.259,0.165,0.4,0.236c0.165-0.283,0.424-0.542,0.471-0.848c0.071-0.589,0.024-1.178,0.024-1.767
		c0-1.578,0-3.156,0-4.735c0.471,0.188,0.66,0.424,0.824,0.66c1.296,1.932,2.568,3.863,3.863,5.748
		c0.236,0.353,0.683,0.542,1.036,0.824c0.141-0.4,0.377-0.801,0.4-1.201c0.047-2.308,0.047-4.64,0-6.949
		c0-0.424-0.306-0.824-0.471-1.248c-0.165,0.424-0.424,0.824-0.448,1.248c-0.071,0.895-0.024,1.814-0.024,2.709
		c0,0.989,0,2.002,0,2.992c-0.471-0.188-0.683-0.448-0.872-0.73c-1.248-1.861-2.473-3.722-3.745-5.559
		c-0.259-0.377-0.801-0.565-1.437-1.013C119.328,159.567,119.328,162.606,119.328,165.668z M84.324,163.242
		c-0.094,0.047-0.212,0.094-0.306,0.141c-0.236-0.33-0.495-0.66-0.707-1.013c-1.201-1.79-2.356-3.604-3.604-5.371
		c-0.212-0.306-0.754-0.424-1.131-0.612c-0.118,0.377-0.353,0.73-0.377,1.107c-0.024,2.497-0.024,5.017,0,7.514
		c0,0.259,0.283,0.518,0.448,0.777c0.165-0.259,0.471-0.495,0.471-0.754c0.047-1.767,0.024-3.533,0.024-5.3
		c0-0.424,0.047-0.848,0.071-1.272c0.872,0.872,1.484,1.79,2.096,2.685c0.942,1.39,1.861,2.803,2.827,4.193
		c0.141,0.212,0.471,0.377,0.754,0.424c0.094,0.024,0.377-0.377,0.377-0.565c0.024-2.732,0.024-5.488,0-8.221
		c0-0.188-0.283-0.377-0.424-0.565c-0.165,0.165-0.424,0.33-0.471,0.518c-0.094,0.283-0.024,0.612-0.024,0.942
		C84.324,159.661,84.324,161.452,84.324,163.242z M43.385,158.554c0.094-0.024,0.188-0.047,0.283-0.071
		c0.212,0.306,0.448,0.589,0.66,0.895c1.343,1.979,2.662,3.957,4.028,5.936c0.165,0.236,0.542,0.33,0.824,0.471
		c0.118-0.236,0.306-0.448,0.306-0.683c0.024-2.662,0.024-5.324,0-7.985c0-0.236-0.283-0.471-0.424-0.707
		c-0.165,0.236-0.495,0.471-0.495,0.73c-0.047,1.767-0.024,3.533-0.024,5.3c0,0.306-0.047,0.612-0.118,1.201
		c-0.377-0.495-0.565-0.73-0.73-0.989c-1.248-1.861-2.473-3.722-3.745-5.559c-0.259-0.377-0.801-0.565-1.413-0.989
		c0,3.51,0,6.596,0,9.658c0.094,0.047,0.188,0.094,0.283,0.141c0.188-0.236,0.495-0.448,0.542-0.73
		c0.094-0.4,0.024-0.848,0.024-1.296C43.385,162.111,43.385,160.321,43.385,158.554z M68.707,156.434
		c0,2.874-0.024,5.677,0.024,8.504c0,0.283,0.306,0.565,0.471,0.872c0.165-0.306,0.471-0.589,0.495-0.895
		c0.071-1.084,0.024-2.144,0.024-3.204c2.12-0.259,2.12-0.259,3.015,1.39c0.4,0.73,0.73,1.484,1.201,2.144
		c0.236,0.306,0.707,0.448,1.06,0.66c0.071-0.094,0.141-0.188,0.236-0.283c-0.707-1.319-1.413-2.662-2.144-4.028
		c0.259-0.141,0.448-0.212,0.612-0.306c1.178-0.612,1.672-1.578,1.484-2.78c-0.188-1.178-0.919-1.932-2.238-2.026
		C71.581,156.34,70.215,156.434,68.707,156.434z M184.436,119.264c-1.484,0-2.662-0.024-3.816,0.024
		c-0.283,0.024-0.683,0.259-0.801,0.495c-1.201,2.803-2.332,5.63-3.651,8.786c0.636-0.236,1.131-0.259,1.319-0.518
		C179.772,125.223,182.009,122.373,184.436,119.264z M116.572,161.098c-0.165-0.754-0.259-1.555-0.495-2.285
		c-0.518-1.625-1.861-2.591-3.51-2.638c-1.625-0.047-2.897,0.754-3.58,2.356c-0.754,1.79-0.754,3.58,0.118,5.324
		c0.612,1.248,1.578,2.002,3.039,2.073C114.735,166.068,116.454,164.184,116.572,161.098z M173.082,165.927
		c0.141-0.118,0.283-0.236,0.424-0.33c-1.013-2.827-1.979-5.677-3.015-8.504c-0.118-0.33-0.518-0.542-0.801-0.824
		c-0.259,0.283-0.66,0.518-0.777,0.848c-0.966,2.615-1.884,5.229-2.78,7.868c-0.071,0.236-0.071,0.495-0.094,0.754
		c0.118,0.071,0.236,0.141,0.377,0.212c0.259-0.4,0.565-0.801,0.801-1.225c0.33-0.565,0.518-1.531,0.919-1.625
		c1.036-0.212,2.214-0.236,3.251,0.047c0.424,0.118,0.542,1.201,0.872,1.79C172.422,165.291,172.776,165.597,173.082,165.927z
		 M87.646,165.715c1.107,0.259,1.178-0.495,1.296-1.06c0.259-1.248,0.824-1.837,2.238-1.72c2.026,0.141,2.026,0.024,2.803,2.049
		c0.212,0.565,0.424,1.131,1.296,0.612c-1.013-2.921-2.026-5.795-3.062-8.645c-0.094-0.259-0.471-0.66-0.66-0.612
		c-0.306,0.047-0.683,0.353-0.801,0.636c-0.754,1.979-1.437,3.981-2.12,5.983C88.282,163.831,87.976,164.726,87.646,165.715z
		 M128.632,165.762c1.319,0.141,1.296-0.777,1.46-1.343c0.259-1.084,0.73-1.531,1.932-1.484c2.167,0.118,2.144,0.047,3.086,2.167
		c0.141,0.33,0.589,0.542,0.872,0.801c0.118-0.094,0.212-0.188,0.33-0.283c-1.06-2.992-2.096-5.96-3.156-8.928
		c-0.071-0.188-0.424-0.4-0.636-0.377c-0.259,0.024-0.589,0.259-0.683,0.471C130.776,159.708,129.74,162.653,128.632,165.762z
		 M60.486,165.809c1.814,0,3.439,0.024,5.088-0.024c0.259,0,0.495-0.33,0.73-0.495c-0.259-0.141-0.542-0.424-0.801-0.448
		c-1.06-0.047-2.12,0.024-3.18-0.047c-0.306-0.024-0.824-0.306-0.848-0.495c-0.047-0.966-0.141-2.002,0.165-2.874
		c0.094-0.283,1.366-0.165,2.073-0.212c0.188-0.024,0.424,0.047,0.589-0.024c0.212-0.094,0.377-0.283,0.565-0.448
		c-0.188-0.141-0.4-0.377-0.589-0.377c-0.707-0.047-1.413,0.024-2.12-0.071c-0.259-0.024-0.683-0.33-0.707-0.542
		c-0.071-0.801-0.024-1.602-0.024-2.497c1.484,0,2.78,0.024,4.052-0.024c0.212,0,0.4-0.259,0.589-0.377
		c-0.165-0.165-0.306-0.495-0.471-0.495c-1.696-0.047-3.416-0.024-5.135-0.024C60.486,159.614,60.486,162.629,60.486,165.809z
		 M159.891,157.282c1.319,0,2.591,0.024,3.887-0.024c0.259,0,0.495-0.306,0.73-0.495c-0.236-0.141-0.471-0.4-0.707-0.4
		c-1.366-0.047-2.732,0-4.122-0.024c-0.612,0-0.824,0.236-0.824,0.848c0.024,2.591,0.024,5.182,0,7.75
		c0,0.66,0.236,0.895,0.895,0.872c1.343-0.047,2.662,0.024,4.004-0.024c0.353-0.024,0.683-0.283,1.013-0.448
		c-0.33-0.165-0.66-0.471-0.989-0.495c-1.272-0.047-2.568-0.024-3.887-0.024c0-1.272,0-2.379,0-3.604
		c0.942,0,1.79,0.024,2.638-0.024c0.259-0.024,0.495-0.259,0.73-0.377c-0.259-0.165-0.495-0.448-0.777-0.448
		c-0.848-0.071-1.696-0.024-2.615-0.024C159.891,159.284,159.891,158.366,159.891,157.282z M139.774,164.844
		c0-0.565,0-0.989,0-1.413c0-2.026,0.024-4.075-0.024-6.101c0-0.33-0.33-0.636-0.518-0.966c-0.165,0.283-0.471,0.589-0.471,0.872
		c-0.047,2.591,0,5.159-0.024,7.75c0,0.589,0.212,0.848,0.824,0.824c1.296-0.024,2.591,0.024,3.863-0.024
		c0.306-0.024,0.589-0.306,0.895-0.471c-0.306-0.165-0.589-0.448-0.895-0.471C142.248,164.796,141.07,164.844,139.774,164.844z
		 M192.209,160.58c-0.754-1.248-1.39-2.426-2.12-3.533c-0.236-0.353-0.707-0.542-1.084-0.801c-0.071,0.094-0.141,0.188-0.212,0.283
		c0.047,0.141,0.094,0.283,0.165,0.424c1.531,2.568,3.51,4.97,2.874,8.292c-0.024,0.141,0.283,0.353,0.424,0.542
		c0.165-0.188,0.424-0.353,0.448-0.542c0.071-0.542,0.071-1.107,0.024-1.649c-0.141-1.343,0.236-2.52,1.013-3.628
		c0.754-1.084,1.39-2.261,2.12-3.486c-0.377-0.047-0.73-0.165-0.801-0.071C194.14,157.73,193.245,159.072,192.209,160.58z
		 M184.648,157.282c0.895,0,1.672,0.024,2.426-0.024c0.236-0.024,0.424-0.306,0.66-0.448c-0.212-0.165-0.448-0.448-0.66-0.448
		c-1.884-0.047-3.769-0.047-5.653,0c-0.236,0-0.495,0.33-0.73,0.495c0.259,0.141,0.542,0.377,0.824,0.4
		c0.707,0.047,1.437,0.024,2.191,0.024c0,2.356,0,4.476,0,6.572c0,0.471-0.047,0.942,0.047,1.413
		c0.024,0.188,0.306,0.33,0.495,0.518c0.141-0.165,0.353-0.306,0.4-0.471c0.071-0.306,0.024-0.612,0.024-0.942
		C184.648,162.064,184.648,159.756,184.648,157.282z M54.48,157.282c0,2.426-0.024,4.688,0.024,6.949
		c0.024,0.518-0.495,1.366,0.518,1.484c0.094,0.024,0.448-0.989,0.471-1.531c0.047-2.261,0.024-4.523,0.024-6.925
		c0.895,0,1.625,0.047,2.356-0.024c0.212-0.024,0.424-0.306,0.612-0.471c-0.188-0.141-0.4-0.4-0.589-0.4
		c-1.908-0.024-3.84-0.024-5.748,0c-0.212,0-0.424,0.306-0.636,0.471c0.236,0.141,0.448,0.4,0.683,0.424
		C52.925,157.329,53.655,157.282,54.48,157.282z M98.811,157.282c0,2.473-0.024,4.758,0.024,7.067c0,0.495,0.33,0.966,0.518,1.437
		c0.165-0.495,0.448-0.989,0.471-1.484c0.047-2.308,0.024-4.593,0.024-7.043c0.895,0,1.625,0.047,2.356-0.024
		c0.212-0.024,0.424-0.306,0.612-0.495c-0.212-0.141-0.4-0.4-0.612-0.4c-1.932-0.024-3.84-0.024-5.771,0
		c-0.188,0-0.4,0.259-0.589,0.4c0.212,0.165,0.4,0.471,0.612,0.495C97.209,157.329,97.94,157.282,98.811,157.282z M176.662,164.844
		c0-0.589,0-1.013,0-1.437c0-2.049,0.024-4.075-0.024-6.124c0-0.306-0.283-0.589-0.448-0.895c-0.165,0.306-0.448,0.612-0.448,0.919
		c-0.047,2.308-0.024,4.617-0.024,6.949c0,0.495,0.047,0.989,0.071,1.578c1.602,0,3.109,0.024,4.593-0.024
		c0.306,0,0.589-0.283,0.895-0.448c-0.283-0.165-0.589-0.471-0.872-0.495C179.206,164.796,178.052,164.844,176.662,164.844z
		 M105.901,161.145c0-1.319,0.024-2.662-0.024-3.981c0-0.259-0.283-0.518-0.448-0.777c-0.188,0.236-0.518,0.471-0.518,0.707
		c-0.047,2.662-0.047,5.324,0,7.962c0,0.236,0.33,0.495,0.518,0.73c0.165-0.259,0.448-0.518,0.471-0.777
		C105.925,163.736,105.901,162.441,105.901,161.145z M38.273,161.051c0,1.319-0.024,2.662,0.024,3.981
		c0,0.259,0.306,0.495,0.495,0.754c0.165-0.259,0.471-0.495,0.471-0.754c0.047-2.615,0.047-5.229,0-7.844
		c0-0.259-0.283-0.542-0.424-0.801c-0.188,0.259-0.542,0.518-0.542,0.801C38.226,158.484,38.273,159.756,38.273,161.051z"/>
	<path d="M143.755,109.37c2.332-0.636,4.664-1.272,7.232-1.979c0,2.45,0,4.664,0,6.878c0,2.191,0,4.381,0,6.713
		c0.824-0.565,1.46-1.06,2.167-1.46c3.604-2.073,7.726-0.989,9.681,2.685c1.932,3.628,2.049,7.42-0.118,11
		c-2.285,3.769-5.983,5.017-10.2,4.805c-1.602-0.071-3.18-0.518-4.758-0.707c-1.013-0.118-1.248-0.589-1.248-1.555
		c0.047-7.42-0.024-14.816,0.071-22.236c0.024-1.39-0.33-2.285-1.602-2.874c-0.471-0.212-0.848-0.612-1.248-0.919
		C143.708,109.582,143.732,109.488,143.755,109.37z M150.987,128.403L150.987,128.403c0,1.837,0,3.675,0.024,5.536
		c0,0.353,0.071,0.824,0.283,1.06c2.332,2.615,6.336,1.908,7.538-1.366c0.942-2.591,1.06-5.3,0.377-7.985
		c-0.895-3.439-3.557-4.9-7.02-4.052c-0.848,0.212-1.248,0.565-1.201,1.508C151.034,124.893,150.987,126.66,150.987,128.403z"/>
	<path d="M111.932,137.213c-3.015,0-6.054,0-9.069,0c-0.047-0.094-0.094-0.212-0.141-0.306c0.471-0.212,0.895-0.518,1.39-0.612
		c1.06-0.212,1.272-0.801,1.272-1.837c-0.047-7.137-0.047-14.298,0-21.436c0-0.989-0.236-1.625-1.131-2.073
		c-0.636-0.33-1.178-0.824-1.767-1.225c0.024-0.118,0.047-0.236,0.047-0.33c2.308-0.636,4.617-1.272,7.161-1.979
		c0,4.805,0,9.446,0,14.298c0.919-0.683,1.531-1.319,2.285-1.672c1.296-0.589,2.638-1.272,4.028-1.46
		c3.039-0.4,5.276,1.46,5.606,4.523c0.165,1.508,0.118,3.062,0.118,4.593c0.024,2.238,0.047,4.476-0.024,6.713
		c-0.047,1.084,0.165,1.814,1.366,1.979c0.4,0.047,0.754,0.306,1.201,0.471c-0.754,0.66-8.15,0.754-9.422,0.118
		c0.589-0.306,1.013-0.589,1.484-0.73c0.707-0.212,0.966-0.589,0.966-1.343c-0.047-3.109,0-6.195-0.024-9.304
		c-0.024-2.827-1.413-4.099-4.24-3.887c-0.306,0.024-0.636,0.071-0.942,0.118c-2.332,0.4-2.473,0.589-2.473,2.921
		c0,3.251,0.047,6.525-0.024,9.776c-0.024,1.036,0.259,1.625,1.272,1.861c0.377,0.094,0.707,0.353,1.06,0.542
		C112.002,137.001,111.955,137.095,111.932,137.213z"/>
	<path d="M47.107,128.78c0.33,0.306,0.707,0.589,0.966,0.966c1.154,1.625,2.12,3.416,3.439,4.852
		c1.625,1.743,3.792,2.379,6.148,1.578c2.992-0.989,3.887-5.159,1.484-7.208c-1.06-0.895-2.403-1.437-3.675-2.049
		c-1.154-0.565-2.426-0.942-3.58-1.484c-3.321-1.578-4.9-4.405-4.405-7.797c0.471-3.204,3.015-5.771,6.36-6.431
		c1.908-0.377,3.769-0.259,5.512,0.612c0.801,0.4,1.343,0.353,1.955-0.283c0.259-0.283,0.73-0.353,1.107-0.518
		c0.118,0.377,0.33,0.754,0.353,1.154c0.188,1.955,0.377,3.91,0.518,5.865c0.024,0.306-0.212,0.636-0.33,0.966
		c-0.283-0.212-0.636-0.377-0.848-0.636c-1.225-1.555-2.426-3.133-3.651-4.688c-0.141-0.188-0.353-0.306-0.565-0.424
		c-2.096-1.272-4.664-0.872-5.771,0.895c-1.178,1.908-0.589,4.617,1.484,5.842c1.578,0.919,3.321,1.555,4.994,2.332
		c0.542,0.236,1.084,0.471,1.602,0.73c2.897,1.508,4.593,3.745,4.287,7.161c-0.306,3.439-2.167,5.724-5.3,7.02
		c-2.85,1.178-5.7,0.824-8.504-0.212c-0.824-0.306-1.437-0.424-2.049,0.33c-0.236,0.283-0.73,0.353-1.107,0.518
		c-0.141-0.377-0.353-0.754-0.377-1.154c-0.165-2.544-0.283-5.088-0.4-7.632C46.871,129.016,46.989,128.898,47.107,128.78z"/>
	<path d="M64.82,63.225c-2.073,0-4.052,0-6.195,0c0-0.565-0.071-1.036,0.024-1.484c0.047-0.259,0.377-0.66,0.589-0.66
		c2.662-0.047,5.324-0.024,7.985-0.024c0.071,0.306,0.141,0.495,0.141,0.683c0,3.769,0,7.514,0,11.377c-0.754,0-1.437,0-2.261,0
		c0-1.036,0-2.073,0-3.133c-0.188,0.024-0.306,0-0.33,0.047c-3.062,5.418-12.72,5.229-15.994-1.437
		c-2.85-5.771-2.897-11.707,0.424-17.337c2.261-3.816,5.936-5.112,10.223-4.546c4.122,0.542,6.336,3.274,7.514,7.02
		c0.165,0.518,0.33,1.107-0.471,1.131c-0.66,0.024-1.602,1.06-2.002-0.4c-0.071-0.259-0.188-0.518-0.283-0.777
		c-1.036-2.827-2.897-4.617-6.054-4.758c-2.944-0.118-5.394,1.036-6.808,3.604c-2.803,5.135-2.732,10.412,0.141,15.476
		c1.649,2.921,5.017,4.028,8.292,3.18c2.874-0.754,4.805-3.298,5.064-6.643C64.844,64.214,64.82,63.814,64.82,63.225z"/>
	<path d="M67.647,126.448c0.047-2.238,1.672-5.465,5.488-7.09c3.651-1.578,7.326-1.343,10.459,1.413
		c2.897,2.544,3.651,7.938,1.837,11.919c-1.672,3.651-5.512,5.771-9.634,5.3C70.592,137.425,67.671,133.939,67.647,126.448z
		 M72.123,128.309c0.495,1.979,0.848,4.052,1.531,6.03c0.542,1.508,1.767,2.473,3.533,2.426c1.72-0.047,2.803-1.036,3.345-2.52
		c1.484-3.957,1.531-7.985-0.024-11.919c-0.612-1.578-1.837-2.638-3.698-2.568c-1.79,0.071-2.85,1.178-3.345,2.685
		C72.876,124.281,72.594,126.212,72.123,128.309z"/>
	<path d="M171.433,142.725c0.848-1.578,1.696-3.062,2.45-4.593c0.141-0.283-0.047-0.754-0.188-1.107
		c-2.049-5.017-4.122-10.011-6.172-15.005c-0.353-0.872-0.801-1.578-1.814-1.79c-0.424-0.094-0.824-0.377-1.178-0.801
		c3.298-0.353,6.572-0.306,9.823-0.259c0.047,0.165,0.071,0.33,0.118,0.495c-0.824,0.353-1.649,0.707-2.591,1.107
		c1.413,3.792,2.78,7.561,4.169,11.33c0.094,0,0.212,0.024,0.306,0.024c1.272-3.651,2.52-7.326,3.792-11.024
		c-0.801-0.518-1.578-1.036-2.332-1.531c0.047-0.094,0.094-0.188,0.141-0.283c2.285,0,4.57,0,6.855,0
		c0.047,0.118,0.094,0.236,0.118,0.353c-0.542,0.306-1.154,0.542-1.625,0.942c-0.542,0.448-1.178,0.942-1.437,1.555
		c-2.379,5.771-4.64,11.566-7.043,17.337c-0.66,1.578-1.578,3.062-2.591,4.452c-1.013,1.437-2.52,2.096-4.334,1.743
		c-1.107-0.212-1.979-0.777-2.238-1.955c-0.212-0.966,0.071-1.814,0.895-2.379c1.013-0.707,2.096-0.636,3.109-0.047
		C170.232,141.594,170.679,142.089,171.433,142.725z"/>
	<path d="M125.876,92.646c-25.911,0-51.822,0-77.733,0c-0.165,0-0.33,0.047-0.471,0c-0.377-0.141-0.754-0.306-1.131-0.448
		c0.377-0.165,0.73-0.377,1.131-0.471c0.306-0.071,0.636-0.024,0.942-0.024c51.657,0,103.315,0,154.972,0
		c0.4,0,0.801-0.047,1.178,0.024c0.212,0.047,0.353,0.306,0.542,0.448c-0.188,0.141-0.353,0.377-0.542,0.424
		c-0.33,0.071-0.707,0.024-1.06,0.024C177.793,92.646,151.835,92.646,125.876,92.646z"/>
	<path d="M129.999,126.943c0.4,1.884,0.589,3.557,1.107,5.135c0.707,2.073,2.379,3.18,4.523,3.133
		c1.814-0.047,3.628-0.518,5.418-0.824c0.424-0.071,0.848-0.212,1.437-0.33c-0.071,0.353-0.047,0.542-0.118,0.612
		c-3.51,3.133-7.726,4.476-12.013,2.403c-3.486-1.696-4.711-4.758-4.805-8.409c-0.118-4.405,2.662-8.456,6.619-9.728
		c4.334-1.413,10.647,0.259,10.529,8.009c-2.049,0-4.122,0-6.172,0C134.498,126.943,132.448,126.943,129.999,126.943z
		 M138.29,125.435c-0.353-1.413-0.518-2.756-1.036-3.91c-0.848-1.955-3.039-2.403-4.688-1.06c-1.649,1.319-2.073,3.204-2.285,5.347
		C132.943,125.671,135.44,125.553,138.29,125.435z"/>
	<path d="M101.237,119.122c0,0.824,0,1.437,0,2.261c-1.625,0-3.18,0.071-4.711-0.024c-1.06-0.047-1.343,0.306-1.319,1.319
		c0.071,2.944,0.024,5.889,0.024,8.833c0,3.109,1.107,4.146,4.24,3.981c0.612-0.024,1.225,0,2.191,0
		c-0.424,0.448-0.589,0.73-0.848,0.872c-2.144,1.06-4.381,1.72-6.808,1.413c-1.79-0.212-2.85-1.131-3.015-2.921
		c-0.188-2.144-0.141-4.311-0.165-6.454c-0.024-1.955-0.047-3.934,0-5.889c0.024-0.872-0.212-1.248-1.107-1.154
		c-0.589,0.047-1.201,0-2.144,0c2.615-2.662,4.97-5.064,7.326-7.444c0.094,0,0.212,0,0.306,0.024c0,1.154,0,2.285,0,3.439
		c0,1.72,0,1.72,1.696,1.72C98.316,119.122,99.73,119.122,101.237,119.122z"/>
	<path d="M84.772,73.142c0-0.872,0-1.672,0-2.662c-0.919,0.66-1.649,1.225-2.426,1.696c-2.026,1.248-4.193,1.672-6.548,1.131
		c-2.073-0.495-3.416-1.884-3.486-3.934c-0.165-4.852-0.047-9.705-0.047-14.628c0.777,0,1.508,0,2.379,0c0,0.495,0,0.942,0,1.39
		c0.024,4.004,0,8.009,0.094,11.99c0.071,2.285,1.39,3.368,3.698,3.251c2.426-0.118,4.311-1.343,5.983-2.944
		c0.283-0.259,0.33-0.848,0.33-1.296c0.024-3.651,0.024-7.302,0.024-10.953c0-0.471,0-0.919,0-1.46c0.824,0,1.555,0,2.356,0
		c0,6.148,0,12.225,0,18.397C86.35,73.142,85.62,73.142,84.772,73.142z"/>
	<path d="M107.856,54.651c0.306,2.073,0.306,2.073-1.46,2.073c-0.66,0-1.343,0-2.002,0.024c-0.118,0-0.212,0.071-0.448,0.141
		c0,5.371,0,10.765,0,16.23c-0.848,0-1.578,0-2.473,0c0-0.448,0-0.872,0-1.272c0-4.593-0.024-9.187,0.024-13.756
		c0.024-1.084-0.283-1.508-1.39-1.366c-0.565,0.071-1.154,0.024-1.814,0.024c0-0.73,0-1.343,0-2.096c1.06,0,2.073,0,3.086,0
		c0.283-2.308-0.542-4.805,1.672-6.454c1.484-1.107,3.227-1.036,5.064-0.895c0,0.636,0,1.225,0,1.932
		c-1.248,0.283-3.062-0.33-3.698,1.225c-0.518,1.225-0.424,2.709-0.636,4.216C105.312,54.651,106.561,54.651,107.856,54.651z"/>
	<path d="M92.38,47.278c0.777,0,1.508,0,2.332,0c0,8.598,0,17.172,0,25.84c-0.754,0-1.508,0-2.332,0
		C92.38,64.497,92.38,55.923,92.38,47.278z"/>
	<path d="M158.524,152.901c1.46,0,2.662-0.071,3.863,0.024c1.531,0.094,2.356,0.777,2.568,1.955
		c0.259,1.366-0.236,2.238-1.672,2.992c-0.094,0.047-0.188,0.141-0.377,0.259c0.707,1.319,1.413,2.662,2.096,3.981
		c-0.094,0.094-0.165,0.188-0.259,0.306c-0.353-0.236-0.824-0.377-1.036-0.683c-0.471-0.66-0.801-1.437-1.201-2.144
		c-0.895-1.649-0.895-1.649-2.992-1.319c0,1.131,0.024,2.285-0.024,3.463c0,0.212-0.33,0.4-0.495,0.612
		c-0.165-0.165-0.471-0.353-0.471-0.518C158.501,158.86,158.524,155.916,158.524,152.901z M159.608,157.259
		c1.107-0.071,2.12-0.071,3.109-0.212c0.848-0.118,1.272-0.707,1.272-1.578c0-0.872-0.471-1.46-1.296-1.578
		c-0.989-0.141-2.002-0.141-3.086-0.188C159.608,154.927,159.608,155.963,159.608,157.259z"/>
	<path d="M128.256,162.158c0-3.039,0-6.101,0-9.587c0.636,0.448,1.178,0.636,1.437,1.013c1.296,1.837,2.497,3.698,3.745,5.559
		c0.188,0.283,0.4,0.518,0.872,0.73c0-0.989,0-2.002,0-2.992c0-0.895-0.047-1.814,0.024-2.709c0.024-0.424,0.306-0.824,0.448-1.248
		c0.165,0.424,0.471,0.824,0.471,1.248c0.047,2.308,0.047,4.64,0,6.949c0,0.4-0.259,0.801-0.4,1.201
		c-0.353-0.259-0.801-0.471-1.036-0.824c-1.319-1.908-2.591-3.84-3.863-5.748c-0.165-0.236-0.377-0.471-0.824-0.66
		c0,1.578,0,3.156,0,4.735c0,0.589,0.047,1.178-0.024,1.767c-0.047,0.306-0.306,0.565-0.471,0.848
		C128.515,162.323,128.373,162.252,128.256,162.158z"/>
	<path d="M93.252,159.756c0-1.79,0-3.604,0-5.394c0-0.306-0.047-0.636,0.024-0.942c0.071-0.212,0.306-0.353,0.471-0.518
		c0.141,0.188,0.424,0.377,0.424,0.565c0.024,2.732,0.024,5.488,0,8.221c0,0.212-0.283,0.589-0.377,0.565
		c-0.283-0.047-0.589-0.212-0.754-0.424c-0.966-1.39-1.884-2.803-2.827-4.193c-0.612-0.895-1.225-1.814-2.096-2.685
		c-0.024,0.424-0.071,0.848-0.071,1.272c0,1.767,0.024,3.533-0.024,5.3c0,0.259-0.306,0.518-0.471,0.754
		c-0.165-0.259-0.448-0.518-0.448-0.777c-0.024-2.497-0.047-5.017,0-7.514c0-0.377,0.236-0.73,0.377-1.107
		c0.377,0.212,0.895,0.306,1.131,0.612c1.248,1.767,2.403,3.58,3.604,5.371c0.236,0.353,0.471,0.683,0.707,1.013
		C93.04,159.826,93.158,159.803,93.252,159.756z"/>
	<path d="M52.312,155.044c0,1.767,0,3.557,0,5.324c0,0.424,0.071,0.872-0.024,1.296c-0.071,0.259-0.353,0.495-0.542,0.73
		c-0.094-0.047-0.188-0.094-0.283-0.141c0-3.086,0-6.148,0-9.658c0.612,0.424,1.154,0.612,1.413,0.989
		c1.296,1.814,2.497,3.698,3.745,5.559c0.165,0.259,0.377,0.495,0.73,0.989c0.047-0.565,0.118-0.872,0.118-1.201
		c0-1.767-0.024-3.533,0.024-5.3c0-0.236,0.33-0.471,0.495-0.73c0.141,0.236,0.424,0.471,0.424,0.707
		c0.024,2.662,0.024,5.324,0,7.985c0,0.236-0.212,0.448-0.306,0.683c-0.283-0.165-0.66-0.236-0.824-0.471
		c-1.366-1.955-2.685-3.957-4.028-5.936c-0.212-0.306-0.448-0.589-0.66-0.895C52.501,154.997,52.407,155.021,52.312,155.044z"/>
	<path d="M77.635,152.948c1.508,0,2.874-0.094,4.216,0.024s2.049,0.872,2.238,2.026c0.212,1.201-0.306,2.167-1.484,2.78
		c-0.165,0.094-0.33,0.165-0.612,0.306c0.73,1.366,1.437,2.709,2.144,4.028c-0.071,0.094-0.141,0.188-0.236,0.283
		c-0.353-0.212-0.848-0.353-1.06-0.66c-0.471-0.66-0.824-1.413-1.201-2.144c-0.895-1.649-0.895-1.649-3.015-1.39
		c0,1.06,0.047,2.12-0.024,3.204c-0.024,0.306-0.306,0.589-0.495,0.895c-0.165-0.283-0.471-0.565-0.471-0.872
		C77.611,158.625,77.635,155.822,77.635,152.948z M78.718,157.282c1.154-0.094,2.261-0.047,3.274-0.33
		c0.471-0.118,1.013-0.919,1.036-1.413c0.024-0.518-0.471-1.39-0.919-1.508c-1.084-0.306-2.261-0.259-3.416-0.353
		C78.718,155.021,78.718,156.057,78.718,157.282z"/>
	<path d="M193.363,115.777c-2.426,3.086-4.664,5.96-6.925,8.786c-0.212,0.259-0.683,0.283-1.319,0.518
		c1.296-3.156,2.45-5.983,3.651-8.786c0.094-0.236,0.518-0.495,0.801-0.495C190.701,115.754,191.879,115.777,193.363,115.777z"/>
	<path d="M125.5,157.588c-0.118,3.086-1.837,4.97-4.428,4.829c-1.437-0.071-2.426-0.848-3.039-2.073
		c-0.848-1.743-0.872-3.557-0.118-5.324c0.683-1.602,1.955-2.403,3.58-2.356c1.625,0.047,2.968,1.013,3.51,2.638
		C125.24,156.057,125.335,156.835,125.5,157.588z M124.392,157.636c0.047,0,0.071-0.024,0.118-0.024
		c-0.165-0.707-0.236-1.46-0.495-2.144c-0.448-1.154-1.319-1.837-2.591-1.861c-1.296,0-2.167,0.707-2.568,1.861
		c-0.283,0.824-0.424,1.767-0.377,2.638c0.094,2.12,1.272,3.416,2.944,3.416c1.649,0,2.803-1.343,2.968-3.439
		C124.392,157.942,124.392,157.777,124.392,157.636z"/>
	<path d="M182.009,162.441c-0.306-0.33-0.66-0.636-0.872-1.013c-0.33-0.589-0.448-1.696-0.872-1.79
		c-1.013-0.283-2.191-0.259-3.251-0.047c-0.4,0.094-0.589,1.06-0.919,1.625c-0.236,0.424-0.542,0.824-0.801,1.225
		c-0.118-0.071-0.236-0.141-0.377-0.212c0.024-0.259,0.024-0.518,0.094-0.754c0.919-2.615,1.837-5.253,2.78-7.868
		c0.118-0.33,0.518-0.565,0.777-0.848c0.283,0.283,0.683,0.495,0.801,0.824c1.036,2.827,2.026,5.653,3.015,8.504
		C182.292,162.205,182.151,162.323,182.009,162.441z M180.078,158.413c-0.495-1.46-0.919-2.709-1.343-3.981
		c-0.094,0-0.188,0.024-0.283,0.024c-0.424,1.272-0.848,2.544-1.319,3.934C178.17,158.413,179.018,158.413,180.078,158.413z"/>
	<path d="M96.597,162.205c0.33-0.966,0.636-1.884,0.942-2.78c0.707-2.002,1.39-4.004,2.12-5.983
		c0.118-0.283,0.495-0.589,0.801-0.636c0.188-0.024,0.565,0.353,0.66,0.612c1.036,2.874,2.049,5.748,3.062,8.645
		c-0.848,0.495-1.06-0.047-1.296-0.612c-0.754-2.002-0.777-1.908-2.803-2.049c-1.413-0.094-1.979,0.495-2.238,1.72
		C97.751,161.711,97.704,162.464,96.597,162.205z M100.507,154.479c-0.094,0-0.188,0-0.283,0c-0.424,1.272-0.848,2.52-1.319,3.91
		c1.06,0,1.884,0,2.944,0C101.379,157,100.931,155.751,100.507,154.479z"/>
	<path d="M137.584,162.252c1.107-3.086,2.12-6.054,3.204-8.975c0.071-0.212,0.424-0.448,0.683-0.471
		c0.188-0.024,0.565,0.188,0.636,0.377c1.084,2.968,2.12,5.96,3.156,8.928c-0.118,0.094-0.212,0.188-0.33,0.283
		c-0.306-0.259-0.73-0.471-0.872-0.801c-0.919-2.144-0.919-2.049-3.086-2.167c-1.201-0.071-1.672,0.4-1.932,1.484
		C138.879,161.499,138.879,162.417,137.584,162.252z M142.907,158.389c-0.471-1.39-0.895-2.615-1.319-3.863
		c-0.094,0-0.212,0-0.306,0c-0.424,1.248-0.872,2.52-1.343,3.863C140.976,158.389,141.847,158.389,142.907,158.389z"/>
	<path d="M69.437,162.323c0-3.18,0-6.219,0-9.446c1.72,0,3.416-0.024,5.135,0.024c0.165,0,0.33,0.33,0.471,0.495
		c-0.188,0.141-0.4,0.377-0.589,0.377c-1.296,0.024-2.568,0.024-4.052,0.024c0,0.919-0.047,1.72,0.024,2.497
		c0.024,0.212,0.448,0.495,0.707,0.542c0.707,0.071,1.413,0,2.12,0.071c0.212,0.024,0.4,0.259,0.589,0.377
		c-0.188,0.141-0.353,0.353-0.565,0.448c-0.165,0.071-0.377,0-0.589,0.024c-0.73,0.047-1.979-0.071-2.073,0.212
		c-0.306,0.872-0.212,1.908-0.165,2.874c0,0.188,0.542,0.471,0.848,0.495c1.06,0.071,2.12,0,3.18,0.047
		c0.283,0.024,0.542,0.283,0.801,0.448c-0.236,0.165-0.495,0.495-0.73,0.495C72.876,162.347,71.228,162.323,69.437,162.323z"/>
	<path d="M168.818,153.796c0,1.084,0,2.002,0,3.062c0.919,0,1.767-0.047,2.615,0.024c0.259,0.024,0.518,0.306,0.777,0.448
		c-0.236,0.141-0.495,0.377-0.73,0.377c-0.848,0.047-1.72,0.024-2.638,0.024c0,1.225,0,2.332,0,3.604
		c1.319,0,2.591-0.024,3.887,0.024c0.33,0.024,0.66,0.306,0.989,0.495c-0.33,0.165-0.683,0.448-1.013,0.448
		c-1.319,0.047-2.662,0-4.004,0.024c-0.66,0.024-0.895-0.212-0.895-0.872c0.024-2.591,0.024-5.182,0-7.75
		c0-0.612,0.212-0.848,0.824-0.848c1.366,0.024,2.732-0.024,4.122,0.024c0.236,0,0.471,0.259,0.707,0.4
		c-0.236,0.165-0.495,0.471-0.73,0.495C171.409,153.82,170.137,153.796,168.818,153.796z"/>
	<path d="M148.702,161.334c1.319,0,2.473-0.024,3.628,0.024c0.306,0.024,0.589,0.306,0.895,0.471
		c-0.283,0.165-0.589,0.448-0.895,0.471c-1.296,0.047-2.591,0-3.863,0.024c-0.612,0.024-0.824-0.236-0.824-0.824
		c0.024-2.591,0-5.159,0.024-7.75c0-0.283,0.306-0.589,0.471-0.872c0.188,0.306,0.518,0.636,0.518,0.966
		c0.047,2.026,0.024,4.075,0.024,6.101C148.702,160.344,148.702,160.768,148.702,161.334z"/>
	<path d="M63.407,153.796c-0.824,0-1.555,0.024-2.285-0.024c-0.236-0.024-0.471-0.259-0.683-0.424
		c0.212-0.165,0.424-0.471,0.636-0.471c1.908-0.047,3.84-0.024,5.748,0c0.212,0,0.4,0.259,0.589,0.4
		c-0.212,0.165-0.4,0.471-0.612,0.471c-0.73,0.071-1.46,0.024-2.356,0.024c0,2.403,0.024,4.664-0.024,6.925
		c-0.024,0.542-0.353,1.531-0.471,1.531c-1.013-0.118-0.495-0.966-0.518-1.484C63.384,158.484,63.407,156.222,63.407,153.796z"/>
	<path d="M107.739,153.796c-0.872,0-1.625,0.047-2.332-0.024c-0.212-0.024-0.4-0.306-0.612-0.495c0.188-0.141,0.4-0.4,0.589-0.4
		c1.932-0.024,3.84-0.024,5.771,0c0.212,0,0.4,0.259,0.612,0.4c-0.212,0.165-0.4,0.471-0.612,0.495
		c-0.73,0.071-1.484,0.024-2.356,0.024c0,2.426,0.024,4.735-0.024,7.043c0,0.495-0.306,0.989-0.471,1.484
		c-0.188-0.471-0.495-0.966-0.518-1.437C107.715,158.554,107.739,156.246,107.739,153.796z"/>
	<path d="M185.59,161.334c1.39,0,2.568-0.024,3.722,0.024c0.306,0.024,0.589,0.306,0.872,0.495
		c-0.306,0.165-0.589,0.448-0.895,0.448c-1.484,0.047-2.968,0.024-4.593,0.024c-0.024-0.589-0.071-1.084-0.071-1.578
		c0-2.308-0.024-4.617,0.024-6.949c0-0.306,0.306-0.612,0.448-0.919c0.165,0.306,0.448,0.589,0.448,0.895
		c0.047,2.049,0.024,4.075,0.024,6.124C185.59,160.321,185.59,160.745,185.59,161.334z"/>
	<path d="M114.829,157.659c0,1.296,0.024,2.591-0.024,3.863c0,0.259-0.306,0.518-0.471,0.777c-0.188-0.236-0.495-0.471-0.518-0.73
		c-0.024-2.662-0.024-5.324,0-7.962c0-0.236,0.33-0.471,0.518-0.707c0.165,0.259,0.448,0.518,0.448,0.777
		C114.876,154.997,114.829,156.34,114.829,157.659z"/>
	<path d="M47.201,157.565c0-1.296-0.024-2.591,0.024-3.863c0.024-0.283,0.353-0.542,0.542-0.801
		c0.141,0.259,0.424,0.542,0.424,0.801c0.024,2.615,0.024,5.229,0,7.844c0,0.259-0.306,0.495-0.471,0.754
		c-0.165-0.259-0.471-0.495-0.495-0.754C47.177,160.203,47.201,158.884,47.201,157.565z"/>
</g>
</svg>
