<?xml version="1.0" encoding="iso-8859-1"?>
<!-- Generator: Adobe Illustrator 21.1.0, SVG Export Plug-In . SVG Version: 6.00 Build 0)  -->
<svg version="1.1" id="Layer_1" xmlns="http://www.w3.org/2000/svg" xmlns:xlink="http://www.w3.org/1999/xlink" x="0px" y="0px"
	 viewBox="0 0 231 231" style="enable-background:new 0 0 231 231;" xml:space="preserve">
<g>
	<path style="fill:#F8C107;" d="M171.015,74.501c0,2.022-1.64,3.662-3.662,3.662H65.07c-2.022,0-3.662-1.64-3.662-3.662l0,0
		c0-2.022,1.64-3.662,3.662-3.662h102.283C169.375,70.847,171.015,72.487,171.015,74.501L171.015,74.501z"/>
	<path style="fill:#E6B200;" d="M171.015,74.501L171.015,74.501c0,2.022-1.64,3.662-3.662,3.662H65.07
		c-2.022,0-3.662-1.64-3.662-3.662l0,0H171.015z"/>
	<path style="fill:#F8C107;" d="M160.793,87.314c0,2.022-1.64,3.662-3.662,3.662H75.284c-2.022,0-3.662-1.64-3.662-3.662l0,0
		c0-2.022,1.64-3.662,3.662-3.662h81.848C159.161,83.652,160.793,85.292,160.793,87.314L160.793,87.314z"/>
	<path style="fill:#E6B200;" d="M160.793,87.314L160.793,87.314c0,2.022-1.64,3.662-3.662,3.662H75.284
		c-2.022,0-3.662-1.64-3.662-3.662l0,0H160.793z"/>
	<path style="fill:#F8C107;" d="M156.061,99.018c0,2.022-1.64,3.662-3.662,3.662H80.024c-2.022,0-3.662-1.64-3.662-3.662l0,0
		c0-2.022,1.64-3.662,3.662-3.662h72.382C154.421,95.364,156.061,96.996,156.061,99.018L156.061,99.018z"/>
	<path style="fill:#E6B200;" d="M156.061,99.018L156.061,99.018c0,2.022-1.64,3.662-3.662,3.662H80.024
		c-2.022,0-3.662-1.64-3.662-3.662l0,0H156.061z"/>
	<circle cx="116.365" cy="86.685" r="22.323"/>
	<circle style="fill:#FFFFFF;" cx="116.365" cy="86.685" r="19.028"/>
	<circle style="fill:#F8C107;" cx="116.365" cy="86.685" r="19.028"/>
	<g>
		<rect x="98.153" y="92.818" width="2.801" height="2.801"/>
		<rect x="100.954" y="95.611" width="2.801" height="2.801"/>
		<rect x="103.77" y="92.818" width="2.801" height="2.801"/>
		<rect x="106.57" y="95.611" width="2.801" height="2.801"/>
		<rect x="109.363" y="92.818" width="2.801" height="2.801"/>
		<rect x="112.164" y="95.611" width="2.801" height="2.801"/>
		<rect x="114.965" y="92.818" width="2.801" height="2.801"/>
		<rect x="117.765" y="95.611" width="2.801" height="2.801"/>
		<rect x="120.558" y="92.818" width="2.801" height="2.801"/>
		<rect x="123.359" y="95.611" width="2.801" height="2.801"/>
		<rect x="126.175" y="92.818" width="2.801" height="2.801"/>
		<rect x="128.975" y="95.611" width="2.801" height="2.801"/>
		<rect x="131.768" y="92.818" width="2.801" height="2.801"/>
	</g>
	<g>
		<rect x="98.153" y="74.501" width="2.801" height="2.801"/>
		<rect x="100.954" y="77.302" width="2.801" height="2.801"/>
		<rect x="103.77" y="74.501" width="2.801" height="2.801"/>
		<rect x="106.57" y="77.302" width="2.801" height="2.801"/>
		<rect x="109.363" y="74.501" width="2.801" height="2.801"/>
		<rect x="112.164" y="77.302" width="2.801" height="2.801"/>
		<rect x="114.965" y="74.501" width="2.801" height="2.801"/>
		<rect x="117.765" y="77.302" width="2.801" height="2.801"/>
		<rect x="120.558" y="74.501" width="2.801" height="2.801"/>
		<rect x="123.359" y="77.302" width="2.801" height="2.801"/>
		<rect x="126.175" y="74.501" width="2.801" height="2.801"/>
		<rect x="128.975" y="77.302" width="2.801" height="2.801"/>
		<rect x="131.768" y="74.501" width="2.801" height="2.801"/>
	</g>
	<g>
		<path d="M60.277,126.029v40.609H49.719v-17.058h-3.16v17.058H36v-40.609h10.559v14.52h3.16v-14.52H60.277z"/>
		<path d="M82.772,126.029l6.036,40.609H78.017l-0.569-7.301h-3.774l-0.637,7.301H62.119l5.384-40.609H82.772z M77.171,152.14
			c-0.532-4.598-1.071-10.282-1.61-17.059c-1.078,7.773-1.752,13.464-2.029,17.059H77.171z"/>
		<path d="M101.164,126.029v32.477h6.418v8.132H90.605v-40.609H101.164z"/>
		<path d="M120.701,126.029v40.609h-10.559v-40.609H120.701z"/>
		<path d="M124.939,126.029h17.882v8.125h-7.324v7.698h6.522v7.728h-6.522v17.058h-10.559L124.939,126.029L124.939,126.029z"/>
		<path d="M162.605,126.029l6.035,40.609H157.85l-0.569-7.301h-3.774l-0.637,7.301h-10.918l5.384-40.609H162.605z M157.004,152.14
			c-0.532-4.598-1.071-10.282-1.61-17.059c-1.078,7.773-1.752,13.464-2.029,17.059H157.004z"/>
		<path d="M193.12,126.029l-3.714,17.957L195,166.63h-9.78c-1.168-4.051-2.239-8.979-3.212-14.797
			c-0.262,2.576-0.637,5.302-1.116,8.177l-0.996,6.62h-10.281l3.834-22.645l-3.834-17.957h10.207
			c0.187,1.116,0.554,2.98,1.101,5.594c0.442,1.992,0.801,3.819,1.078,5.497l2.254-11.083h8.866L193.12,126.029L193.12,126.029z"/>
	</g>
</g>
</svg>
