<?xml version="1.0" encoding="iso-8859-1"?>
<!-- Generator: Adobe Illustrator 21.1.0, SVG Export Plug-In . SVG Version: 6.00 Build 0)  -->
<svg version="1.1" id="Layer_1" xmlns="http://www.w3.org/2000/svg" xmlns:xlink="http://www.w3.org/1999/xlink" x="0px" y="0px"
	 viewBox="0 0 231 231" style="enable-background:new 0 0 231 231;" xml:space="preserve">
<g>
	<path style="fill:#FFFFFF;" d="M168.94,182.266H62.042V48.734h106.916v133.532H168.94z M63.205,181.012h104.554V49.915H63.205
		V181.012z"/>
	<g>
		<g>
			<g>
				<path style="fill:#FFFFFF;" d="M103.046,108.832c1.381-1.599,2.761-3.034,4.36-4.36c-1.653-1.381-3.034-2.761-4.36-4.36
					c-1.381,1.653-2.761,3.034-4.36,4.36C100.285,105.78,101.738,107.161,103.046,108.832z"/>
				<path style="fill:#FFFFFF;" d="M138.309,101.983c2.416-1.799,3.743-4.833,3.743-10.228c0-3.743-0.073-23.091-0.073-23.436
					c0-1.254-0.418-0.963-0.963-0.2c-0.273,0.418-1.381,1.998-1.871,2.834c-0.418,0.69-0.545,1.453-0.545,1.799v19.221
					c0,4.487-0.69,8.303-0.963,8.92C137.128,102.256,137.201,102.874,138.309,101.983z"/>
				<path style="fill:#FFFFFF;" d="M99.594,116.717c1.108-1.308,2.216-2.416,3.452-3.525c1.254,1.108,2.344,2.216,3.452,3.525
					c1.381-1.653,2.761-3.034,4.36-4.36c-1.653-1.381-3.034-2.761-4.36-4.36c-1.108,1.308-2.216,2.416-3.452,3.525
					c-1.254-1.108-2.344-2.216-3.452-3.525c-1.381,1.599-2.761,3.034-4.36,4.36C96.887,113.665,98.268,115.046,99.594,116.717z"/>
				<path style="fill:#FFFFFF;" d="M167.777,85.324c-0.145-0.345-1.871-3.452-4.288-3.797c0,0-1.871-0.345-2.562,2.416
					c-0.763,2.761-2.489,7.267-0.273,8.575c3.179,1.871,4.288-0.836,4.778-0.2c0.345,0.418,1.453,1.181-1.726,3.525
					c-1.653,1.254-5.941,2.907-9.683,1.653c-1.944-0.618-1.998-5.051-1.944-7.322c0-0.418,0.073-31.739,0.073-31.957
					c0-0.273-0.073-0.69-0.491-0.2c-0.345,0.491-1.871,2.416-2.489,3.252c-0.418,0.491-0.418,0.763-0.418,1.108
					c0,0,0.763,32.647-0.89,36.935c-1.653,4.288-3.397,4.088-3.252,3.743c0.073-0.345,0.345-1.181,0.418-2.489
					c0.073-1.381-0.836-0.418-1.181,0.345c-1.799,4.633-6.504,7.54-11.555,8.23c0-0.2,0.2-27.306,0.2-27.524
					c0-0.345,0-1.799-0.418-1.308c-0.69,0.69-1.944,2.689-2.416,3.397c-0.491,0.69-0.545,0.963-0.545,1.308
					c0,0-0.2,24.617-0.345,24.617c-0.763,0.2-3.252,0.545-4.833,0.545c-3.67,0-8.157-1.036-7.885-7.685
					c0.073-0.963-0.836-0.345-0.89-0.073c-0.491,2.071-1.108,5.051-1.108,7.739c0,2.761,0.763,5.541,3.67,6.777
					c3.67,1.526,9.411,0.69,11.064,0.418c0.145,3.034,0.963,6.431-9.81,9.683c-22.401,6.922-28.36,0.273-28.414-5.814
					c0-3.67,0.073-19.494,0.073-20.184c0-1.599-0.073-3.179-0.545-4.56c-1.599-4.487-2.634-6.922-2.689-7.122
					c-0.073-0.2-0.491-0.491-0.491,0.418c0,0.073,0.073,28.069-0.345,34.991c-0.763-2.489-2.216-4.705-3.034-3.87
					c-0.836,0.836,2.416,3.525,0.763,10.374c-0.763,3.179-7.957,14.171-20.947,7.122v3.743c1.944,4.487,7.54,5.814,11.954,5.123
					c3.87-0.545,9.411-4.215,11.682-15.697c1.599,6.849,10.919,10.228,22.964,5.941c23.8-8.557,22.346-21.074,22.346-21.074
					c8.157-2.344,11.409-9.956,11.264-10.028c3.87,3.942,6.013-3.525,6.431-4.978c0.145,0.273,6.286,9.538,15.897-3.397
					c0.69-1.036,1.381-2.144,1.871-3.252L167.777,85.324L167.777,85.324z"/>
				<path style="fill:#FFFFFF;" d="M158.094,68.373c1.308,1.108,2.344,2.144,3.452,3.452c1.108-1.308,2.144-2.344,3.452-3.452
					c-1.036-0.836-1.944-1.726-2.761-2.689c0.89-0.963,1.726-1.871,2.761-2.689c-1.308-1.108-2.344-2.144-3.452-3.452
					c-1.108,1.308-2.144,2.344-3.452,3.452c1.036,0.836,1.944,1.726,2.761,2.689C159.947,66.647,159.057,67.538,158.094,68.373z"/>
				<path style="fill:#FFFFFF;" d="M65.639,133.922c0.618,0.491,1.871-3.525,4.088-6.231c3.942-4.905,4.705-1.871,8.575-4.288
					c2.634-1.599,2.834-3.325,3.67-6.359c1.381-3.397-0.073-11.555-4.088-10.101c-1.599,0.545-2.761,5.178-3.034,7.194
					c-0.418,3.107,3.397,2.344,3.797,2.344c0.2-0.073,1.381-0.345,1.181,0.763c-0.418,1.998-5.051,1.381-6.286,1.526
					c-5.051,0.69-6.359,6.086-7.049,8.848C65.294,132.123,65.348,133.795,65.639,133.922z"/>
				<path style="fill:#FFFFFF;" d="M73.451,99.912c1.308,1.108,2.344,2.144,3.452,3.452c1.108-1.308,2.144-2.344,3.452-3.452
					c-1.036-0.836-1.944-1.726-2.761-2.689c0.89-0.963,1.726-1.871,2.761-2.689c-1.308-1.108-2.344-2.144-3.452-3.452
					c-1.108,1.308-2.216,2.344-3.452,3.452c1.036,0.836,1.944,1.726,2.761,2.689C75.377,98.186,74.487,99.077,73.451,99.912z"/>
				<path style="fill:#FFFFFF;" d="M65.984,113.247c1.308,1.108,2.344,2.144,3.452,3.452c1.108-1.308,2.144-2.416,3.452-3.452
					c-1.036-0.836-1.944-1.726-2.761-2.689c0.89-0.963,1.726-1.871,2.761-2.689c-1.308-1.108-2.344-2.144-3.452-3.452
					c-1.108,1.308-2.216,2.344-3.452,3.452c1.036,0.836,1.944,1.726,2.761,2.689C67.91,111.521,67.02,112.43,65.984,113.247z"/>
			</g>
			<path style="fill:#FFFFFF;" d="M136.783,125.983c-1.526,1.799-3.107,3.397-4.905,4.905c1.799,1.526,3.397,3.107,4.905,4.905
				c1.526-1.799,3.107-3.397,4.905-4.905C139.835,129.362,138.309,127.781,136.783,125.983z"/>
		</g>
		<g>
			<path style="fill:#7B6856;" d="M149.991,101.42c-0.418,1.453-2.562,8.993-6.431,4.978c0.145,0.145-3.107,7.739-11.264,10.029
				c0,0,1.453,12.517-22.401,21.02c-12.027,4.288-21.365,0.89-22.964-5.941c-2.289,11.482-7.812,15.079-11.682,15.697
				c-4.433,0.69-10.029-0.618-11.954-5.123v38.933H167.85v-28.487V94.862c-0.491,1.108-1.181,2.216-1.871,3.252
				C156.295,110.976,150.136,101.711,149.991,101.42z M136.783,135.721c-1.526-1.799-3.107-3.397-4.905-4.905
				c1.799-1.526,3.397-3.107,4.905-4.905c1.526,1.799,3.107,3.397,4.905,4.905C139.835,132.414,138.309,133.922,136.783,135.721z"/>
			<path style="fill:#8EB9C9;" d="M63.205,49.915v88.44c13.008,7.122,20.184-3.942,20.947-7.122
				c1.653-6.849-1.599-9.465-0.763-10.374c0.763-0.763,2.216,1.453,3.034,3.87c0.418-6.922,0.345-34.918,0.345-34.991
				c0-0.963,0.418-0.618,0.491-0.418s1.108,2.634,2.689,7.122c0.491,1.381,0.545,2.979,0.545,4.56c0,0.69-0.073,16.46-0.073,20.184
				c0,6.086,6.013,12.717,28.414,5.814c10.719-3.325,9.956-6.704,9.81-9.683c-1.599,0.273-7.394,1.108-11.064-0.418
				c-2.907-1.254-3.67-3.942-3.67-6.777c0-2.689,0.618-5.668,1.108-7.739c0.073-0.273,0.89-0.963,0.89,0.073
				c-0.273,6.704,4.215,7.685,7.885,7.685c1.653,0,4.088-0.345,4.833-0.545c0.073,0,0.345-24.617,0.345-24.617
				c0-0.345,0.073-0.618,0.545-1.308c0.491-0.69,1.726-2.689,2.416-3.397c0.491-0.491,0.418,0.963,0.418,1.308
				c0,0.2-0.2,27.306-0.2,27.524c5.051-0.69,9.756-3.597,11.555-8.23c0.273-0.763,1.254-1.726,1.181-0.345
				c-0.073,1.254-0.273,2.144-0.418,2.489c-0.073,0.345,1.599,0.545,3.252-3.743c1.653-4.288,0.89-36.935,0.89-36.935
				c0-0.345,0-0.618,0.418-1.108c0.618-0.836,2.144-2.761,2.489-3.252c0.345-0.545,0.418-0.073,0.491,0.2
				c0,0.2-0.073,31.539-0.073,31.957c-0.073,2.344,0,6.704,1.944,7.322c3.743,1.254,8.03-0.418,9.683-1.653
				c3.107-2.344,2.071-3.034,1.726-3.525c-0.491-0.618-1.526,2.071-4.778,0.2c-2.216-1.308-0.491-5.814,0.273-8.575
				c0.763-2.761,2.562-2.416,2.562-2.416c2.416,0.273,4.142,3.452,4.288,3.797V49.915H63.205z M73.451,94.444
				c1.308-1.108,2.344-2.144,3.452-3.452c1.108,1.308,2.144,2.344,3.452,3.452c-1.036,0.836-1.944,1.726-2.761,2.689
				c0.89,0.963,1.726,1.871,2.761,2.689c-1.308,1.108-2.344,2.144-3.452,3.452c-1.108-1.308-2.144-2.344-3.452-3.452
				c1.036-0.836,1.944-1.726,2.761-2.689C75.377,96.242,74.487,95.334,73.451,94.444z M65.984,107.797
				c1.308-1.108,2.344-2.144,3.452-3.452c1.108,1.308,2.144,2.344,3.452,3.452c-1.036,0.836-1.944,1.726-2.761,2.689
				c0.89,0.963,1.726,1.871,2.761,2.689c-1.308,1.108-2.344,2.144-3.452,3.452c-1.108-1.308-2.144-2.416-3.452-3.452
				c1.036-0.836,1.944-1.726,2.761-2.689C67.91,109.596,67.02,108.687,65.984,107.797z M81.954,117.062
				c-0.836,3.034-1.036,4.705-3.67,6.359c-3.87,2.416-4.633-0.618-8.575,4.288c-2.216,2.689-3.397,6.704-4.088,6.231
				c-0.273-0.2-0.418-1.799,0.836-6.359c0.763-2.689,1.998-8.157,7.049-8.848c1.254-0.145,5.886,0.545,6.286-1.526
				c0.2-1.036-0.963-0.69-1.181-0.69c-0.418,0-4.215,0.763-3.797-2.344c0.273-1.998,1.453-6.631,3.034-7.194
				C81.881,105.508,83.334,113.665,81.954,117.062z M103.046,100.039c1.381,1.653,2.761,3.034,4.36,4.36
				c-1.653,1.381-3.034,2.761-4.36,4.36c-1.381-1.599-2.761-3.034-4.36-4.36C100.285,103.092,101.738,101.711,103.046,100.039z
				 M106.498,116.717c-1.108-1.308-2.216-2.416-3.452-3.525c-1.254,1.108-2.344,2.216-3.452,3.525
				c-1.381-1.653-2.761-3.034-4.36-4.36c1.653-1.381,3.034-2.761,4.36-4.36c1.108,1.308,2.216,2.416,3.452,3.525
				c1.254-1.108,2.344-2.216,3.452-3.525c1.381,1.599,2.761,3.034,4.36,4.36C109.259,113.665,107.879,115.046,106.498,116.717z
				 M138.309,101.983c-1.181,0.89-1.254,0.2-0.618-1.181c0.273-0.618,0.963-4.433,0.963-8.92V72.661
				c0-0.418,0.073-1.108,0.545-1.799c0.491-0.836,1.599-2.416,1.871-2.834c0.545-0.69,0.963-0.963,0.963,0.2
				c0,0.273,0,19.712,0.073,23.436C142.052,97.133,140.726,100.185,138.309,101.983z M164.998,68.373
				c-1.308,1.108-2.344,2.144-3.452,3.452c-1.108-1.308-2.144-2.344-3.452-3.452c1.036-0.836,1.944-1.726,2.761-2.689
				c-0.89-0.963-1.726-1.871-2.761-2.689c1.308-1.108,2.344-2.144,3.452-3.452c1.108,1.308,2.144,2.344,3.452,3.452
				c-1.036,0.836-1.944,1.726-2.761,2.689C163.072,66.647,163.962,67.538,164.998,68.373z"/>
		</g>
		<path style="fill:#FFFFFF;" d="M122.685,154.96c0,0,2.689,0,2.834,0c0.145,0,0.2-0.073,0.2-0.345c0-0.2-0.145-0.2-0.345-0.273
			c-0.273-0.073-0.618-0.073-0.618-0.073c0.073-0.2,0.073-2.761,0.073-2.761s3.325,0,3.452,0c0.2,0,0.2,0.2,0.2,0.2v2.071
			c0,0.69-0.69,0.491-0.836,0.836c-0.073,0.273,0.073,0.273,0.073,0.273s2.689,0,2.834,0s0.2-0.073,0.2-0.345
			c0-0.2-0.145-0.2-0.345-0.273c-0.273-0.073-0.618-0.073-0.618-0.073c0.073-0.2,0.073-2.761,0.073-2.761v-0.89
			c0-0.2,0-1.726,0-1.726c0-0.545,0.145-0.89,0.345-1.181c0.073-0.073,0.073-0.273-0.2-0.2c-0.2,0.073-1.599,0.073-2.071,0
			c-0.145,0-0.145,0.145-0.145,0.145v0.145c0,0,0,0.2,0.145,0.2c0,0,0.273,0.073,0.491,0.145c0.2,0.073,0.145,0.491,0.145,0.545
			v2.071h-3.452c0,0-0.2,0-0.2-0.2s0-1.726,0-1.726c0-0.545,0.145-0.89,0.345-1.181c0.073-0.073,0.073-0.273-0.2-0.2
			c-0.2,0.073-1.599,0.073-2.071,0c-0.2,0-0.145,0.145-0.145,0.145v0.145c0,0,0,0.2,0.145,0.2c0,0,0.273,0.073,0.491,0.145
			c0.2,0.073,0.145,0.491,0.145,0.545v5.051c0,0.69-0.69,0.491-0.836,0.836C122.467,154.96,122.685,154.96,122.685,154.96z
			 M133.331,155.014c0,0,1.308,0.145,1.998-1.308c0.145-0.2,0.073-0.418,0-0.418c-0.145,0-0.073,0.073-0.345,0.273
			c-0.763,0.763-2.489,0.836-2.761-0.963c0-0.145,0.073-0.2,0.145-0.2c0.145-0.073,1.108-0.2,1.799-0.273
			c0.618-0.073,1.036-0.2,1.036-0.545c-0.145-1.036-1.036-1.599-1.871-1.599c-2.344,0.073-2.489,2.634-2.216,3.452
			C131.606,154.542,132.296,155.014,133.331,155.014z M133.186,150.672c0.418,0,0.763,0.491,0.836,0.836c0,0.073,0,0.145-0.073,0.2
			c-0.073,0-1.254,0.2-1.453,0.2c-0.073,0-0.145,0-0.145-0.073C132.296,151.018,132.714,150.672,133.186,150.672z M145.431,150.945
			h0.273c0,0.418-0.073,1.526-0.073,1.526c0,0.545,0,1.381,0.145,1.799c0.2,0.491,0.618,0.763,1.254,0.69
			c0.836,0,0.89-0.763,0.963-1.108c0.073-0.273-0.2-0.273-0.2-0.073c-0.073,0.418-0.89,0.618-0.89-0.345c0-0.836,0-2.289,0-2.416
			c0-0.145,0.145-0.145,0.145-0.145h0.963c0.273,0,0.273-0.345,0.273-0.491c-0.073-0.345-1.381-0.073-1.381-0.491
			c0-0.418,0-0.963,0.073-1.308c0-0.145-0.418,0-0.763,0.2c-0.345,0.2-0.491,0.618-0.491,1.308c-0.418,0.2-0.618,0.418-0.618,0.618
			C145.159,151.018,145.304,150.945,145.431,150.945z M153.388,155.087c0.963,0,2.634-0.545,2.634-2.761
			c0-2.071-1.726-2.416-2.489-2.344c-2.289,0-2.634,1.944-2.634,2.689C150.972,154.742,152.625,155.087,153.388,155.087z
			 M152.353,152.253c0.073-0.545,0.145-1.871,1.181-1.871c0.545,0,1.308,0.491,1.308,2.144c0,1.998-1.181,1.998-1.181,1.998
			C152.426,154.469,152.28,153.016,152.353,152.253z M113.42,162.972c-0.763-0.418-2.489-1.108-2.489-2.689
			c0-0.491,0.273-1.599,1.998-1.599c1.726,0,1.944,1.526,1.944,2.071c0,0.2,0.073,0.345,0.273,0.345c0.145,0,0.145,0,0.273,0
			c0.273,0,0.345-0.345,0.345-0.345l0.491-2.344c0,0,0.073-0.273-0.2-0.345c-0.145,0-1.599-0.345-2.834-0.273
			c-3.525,0.073-4.088,2.144-4.088,3.252c0,2.071,1.944,3.034,2.761,3.597c0.963,0.618,2.689,1.381,2.689,2.907
			c0,0.618-0.345,1.653-1.998,1.653c-2.144,0-2.416-1.799-2.489-2.489c0-0.345-0.345-0.273-0.345-0.273h-0.145
			c0,0-0.273-0.073-0.345,0.2c-0.145,0.418-0.418,1.254-0.418,1.599c0,1.599,2.634,1.871,3.525,1.871
			c1.254,0,4.015-0.345,4.088-3.325C116.526,164.498,114.183,163.462,113.42,162.972z M125.592,169.258
			c-0.763-0.145-0.763-0.345-0.763-0.491v-4.633c0-1.871-1.036-2.344-2.071-2.344c-2.216,0-3.034,1.799-3.107,1.381
			c-0.145-2.907,0-5.051,0.2-5.541c0.145-0.545-0.763-0.073-1.308,0.273c-1.036,0.618-0.69,3.179-0.763,10.174
			c0,0.2-0.073,0.618-0.145,0.763c-0.145,0.273-0.345,0.418-0.69,0.69c-0.273,0.273,0.145,0.345,0.273,0.345
			c0.545,0,1.381,0,3.525,0c0.273,0,0.618-0.418-0.345-0.545c-0.763-0.145-0.763-0.345-0.69-0.545c0.073-1.036,0-4.487,0-4.487
			c0.836-0.963,1.526-1.108,2.344-1.108c0.69,0,0.89,0.763,0.89,1.599v3.252c0,0.2-0.073,0.618-0.145,0.763
			c-0.145,0.273-0.345,0.418-0.69,0.69c-0.273,0.273,0.145,0.345,0.2,0.345c0.545,0,1.381,0,3.525,0
			C126.282,169.821,126.555,169.403,125.592,169.258z M133.677,169.603c-0.963-0.273-0.89-1.799-0.89-1.799v-3.797
			c0-0.345-0.073-0.618-0.073-0.89c-0.418-2.489-4.978-0.836-5.396-0.145c-0.345,0.618,0,0.963,0.073,1.036
			c0.2,0.145,0.836,0.145,0.963-0.145c0.545-0.89,1.181-1.254,1.998-1.108c0.618,0.073,0.618,1.036,0.618,1.526v0.491
			c0,0.69-3.743,0.2-4.142,3.107c-0.2,1.871,1.108,2.144,2.071,1.998c0.89-0.145,1.653-0.963,1.871-1.308
			c0.2-0.2,0.273-0.145,0.418,0.345c0.2,1.036,2.416,0.89,2.416,0.89S134.367,169.748,133.677,169.603z M130.988,167.677
			c-1.254,1.181-2.344,0.69-2.289-0.2c0.145-0.89,0.69-1.453,2.289-1.653V167.677z M137.546,164.007
			c1.308-1.453,1.653-0.491,2.289-0.491c0.545,0,1.254-0.545,0.963-1.308c-0.273-0.836-1.526-0.89-2.416,0
			c-0.836,0.89-0.89,0.763-0.89,0.545c0.073-0.418,0.073-0.963,0.145-1.308c0.073-0.273-0.2-0.2-0.2-0.2
			c-1.254,0.273-2.979,0.618-2.907,1.036c0,0.073,0.145,0.273,0.618,0.345c0.618,0.073,0.545,0.491,0.545,0.491v4.833
			c0,0.2-0.073,0.618-0.145,0.763c-0.145,0.273-0.345,0.418-0.69,0.69c-0.273,0.273,0.145,0.345,0.273,0.345
			c0.545,0,1.599,0,3.743,0c0.273,0,0.618-0.418-0.345-0.545c-1.036-0.2-0.963-0.273-0.963-0.491L137.546,164.007z M143.505,161.864
			c-1.944,0.418-1.799,1.254-1.799,3.67c0,0-0.073,6.359-0.073,7.394c0,1.653-0.273,2.689-1.036,3.179
			c-1.308,0.89-0.345,1.254,0.963,0.618c1.108-0.491,2.071-1.944,1.998-5.178c-0.073-2.634-0.145-8.502,0.145-9.465
			C143.851,161.736,143.778,161.791,143.505,161.864z M142.67,156.958c-0.545,0.69-1.599,1.599-1.599,1.599
			c0.963,0.836,1.599,1.599,1.599,1.599c0.491-0.618,1.599-1.599,1.599-1.599C143.215,157.721,142.67,156.958,142.67,156.958z
			 M151.663,169.603c-0.963-0.273-0.89-1.799-0.89-1.799v-3.797c0-0.345-0.073-0.618-0.073-0.89
			c-0.418-2.489-4.978-0.836-5.396-0.145c-0.345,0.618,0,0.963,0.073,1.036c0.2,0.145,0.836,0.145,0.963-0.145
			c0.545-0.89,1.181-1.254,1.998-1.108c0.618,0.073,0.618,1.036,0.618,1.526v0.491c0,0.69-3.743,0.2-4.142,3.107
			c-0.2,1.871,1.108,2.144,2.071,1.998c0.89-0.145,1.599-0.963,1.871-1.308c0.2-0.2,0.273-0.145,0.418,0.345
			c0.2,1.036,2.416,0.89,2.416,0.89S152.28,169.748,151.663,169.603z M148.883,167.677c-1.254,1.181-2.344,0.69-2.289-0.2
			c0.145-0.89,0.69-1.453,2.289-1.653V167.677z M161.201,169.258c-0.763-0.145-0.763-0.345-0.763-0.491v-4.633
			c0-1.871-1.036-2.344-2.071-2.344c-2.216,0-3.034,1.799-3.107,1.381c-0.145-2.907,0-5.051,0.2-5.541
			c0.145-0.545-0.763-0.073-1.308,0.273c-1.036,0.618-0.69,3.179-0.763,10.174c0,0.2-0.073,0.618-0.145,0.763
			c-0.145,0.273-0.345,0.418-0.69,0.69c-0.273,0.273,0.145,0.345,0.2,0.345c0.545,0,1.381,0,3.525,0
			c0.273,0,0.618-0.418-0.345-0.545c-0.763-0.145-0.763-0.345-0.69-0.545c0.073-1.036,0-4.487,0-4.487
			c0.836-0.963,1.526-1.108,2.344-1.108c0.69,0,0.836,0.763,0.836,1.599v3.252c0,0.2-0.073,0.618-0.145,0.763
			c-0.145,0.273-0.345,0.418-0.69,0.69c-0.273,0.273,0.145,0.345,0.273,0.345c0.545,0,1.381,0,3.525,0
			C161.891,169.821,162.163,169.403,161.201,169.258z M143.16,150.309c-0.491,0.545-0.545,0.491-0.545,0.345
			c0-0.273,0.073-0.618,0.073-0.836c0.073-0.2-0.145-0.145-0.145-0.145c-0.763,0.2-1.871,0.418-1.799,0.618
			c0,0.073,0.073,0.145,0.418,0.2c0.345,0.073,0.345,0.273,0.345,0.273s0,2.689,0,2.979c0,0.273,0,0.418-0.073,0.491
			c-0.073,0.145-0.2,0.273-0.418,0.418c-0.2,0.145,0.073,0.2,0.145,0.2c0.345,0,0.963,0,2.289,0c0.2,0,0.418-0.2-0.2-0.345
			c-0.618-0.145-0.545-0.145-0.618-0.273v-2.907c0.763-0.89,1.036-0.273,1.381-0.273s0.763-0.345,0.618-0.836
			C144.468,149.764,143.705,149.691,143.16,150.309z M156.713,150.945h0.345c0,0.418,0,2.979,0,2.979c0,0.145,0,0.345-0.073,0.418
			c-0.073,0.145-0.273,0.273-0.418,0.418c-0.2,0.145,0.073,0.2,0.145,0.2c0.345,0,0.963,0,2.289,0c0.2,0,0.418-0.273-0.2-0.345
			c-0.618-0.145-0.618-0.145-0.618-0.273c0,0-0.073-3.107-0.073-3.252c0-0.2,0.2-0.2,0.2-0.2h0.963c0.273,0,0.273-0.345,0.273-0.491
			c-0.073-0.345-1.381-0.073-1.381-0.491v-0.545c0,0,0-0.418,0.073-0.618c0.273-0.69,0.89-0.345,0.963-0.145
			c0.073,0.2,0.545,0.418,0.836,0.145c0.273-0.273,0.145-0.618,0.145-0.618c-0.545-0.836-1.653-0.418-1.799-0.345
			c-1.381,0.69-1.308,2.416-1.308,2.416c-0.418,0.2-0.618,0.418-0.618,0.618C156.422,150.945,156.568,150.945,156.713,150.945z
			 M137.347,155.014c0.545-0.073,0.963-0.618,1.181-0.763c0.145-0.145,0.145-0.073,0.273,0.2c0.145,0.618,1.526,0.545,1.526,0.545
			s0.418-0.073,0-0.145c-0.545-0.145-0.545-1.108-0.545-1.108v-2.344c0-0.2,0-0.418-0.073-0.545
			c-0.273-1.526-3.107-0.491-3.325-0.073c-0.2,0.418,0,0.618,0.073,0.618c0.145,0.073,0.491,0.073,0.545-0.073
			c0.345-0.545,0.69-0.763,1.254-0.69c0.418,0.073,0.345,0.618,0.345,0.89v0.345c0,0.418-2.344,0.145-2.562,1.944
			C135.966,154.887,136.783,155.087,137.347,155.014z M137.274,153.507c0.073-0.545,0.418-0.89,1.381-1.036v1.108
			C137.892,154.397,137.128,154.052,137.274,153.507z"/>
	</g>
</g>
</svg>
