<?xml version="1.0" encoding="iso-8859-1"?>
<!-- Generator: Adobe Illustrator 21.1.0, SVG Export Plug-In . SVG Version: 6.00 Build 0)  -->
<svg version="1.1" id="Layer_1" xmlns="http://www.w3.org/2000/svg" xmlns:xlink="http://www.w3.org/1999/xlink" x="0px" y="0px"
	 viewBox="0 0 231 231" style="enable-background:new 0 0 231 231;" xml:space="preserve">
<g>
	<rect x="16.333" y="114.809" style="fill:#151515;" width="198.333" height="3.377"/>
	<rect x="64.304" y="124.139" style="fill:#151515;" width="101.707" height="3.397"/>
	<rect x="64.221" y="131.381" style="fill:#151515;" width="47.752" height="3.148"/>
	<rect x="118.051" y="131.61" style="fill:#151515;" width="47.752" height="3.148"/>
	<rect x="63.774" y="140.846" style="fill:#151515;" width="21.621" height="3.148"/>
	<rect x="90.569" y="140.618" style="fill:#151515;" width="21.622" height="3.148"/>
	<rect x="117.375" y="140.618" style="fill:#151515;" width="21.621" height="3.148"/>
	<rect x="144.181" y="140.846" style="fill:#151515;" width="21.621" height="3.148"/>
	<g style="enable-background:new    ;">
		<path style="fill:#151515;" d="M66.34,109.001v-8.894h1.174v3.657h4.623v-3.657h1.174v8.894h-1.174v-4.198h-4.624v4.197
			L66.34,109.001L66.34,109.001z"/>
		<path style="fill:#151515;" d="M74.735,105.78c0-1.195,0.333-2.078,0.998-2.649c0.55-0.478,1.226-0.717,2.026-0.717
			c0.883,0,1.61,0.291,2.171,0.873c0.561,0.582,0.842,1.382,0.842,2.41c0,0.831-0.124,1.486-0.374,1.953
			c-0.25,0.478-0.613,0.842-1.091,1.112c-0.478,0.26-0.998,0.395-1.559,0.395c-0.904,0-1.631-0.291-2.192-0.873
			C75.016,107.702,74.735,106.871,74.735,105.78z M75.857,105.78c0,0.821,0.177,1.444,0.54,1.849
			c0.364,0.416,0.81,0.613,1.361,0.613c0.54,0,0.998-0.208,1.351-0.623c0.364-0.416,0.54-1.039,0.54-1.891
			c0-0.8-0.177-1.403-0.54-1.808c-0.364-0.416-0.81-0.613-1.351-0.613c-0.55,0-0.997,0.208-1.361,0.613
			C76.034,104.336,75.857,104.959,75.857,105.78z"/>
		<path style="fill:#151515;" d="M86.278,109.001v-0.945c-0.499,0.727-1.184,1.091-2.047,1.091c-0.384,0-0.738-0.073-1.06-0.218
			c-0.333-0.145-0.572-0.332-0.738-0.551c-0.156-0.218-0.27-0.488-0.333-0.81c-0.042-0.218-0.062-0.55-0.062-1.018v-3.99h1.091
			v3.574c0,0.571,0.021,0.956,0.062,1.153c0.073,0.291,0.218,0.509,0.437,0.676c0.218,0.166,0.499,0.249,0.821,0.249
			c0.333,0,0.634-0.083,0.925-0.249c0.291-0.166,0.488-0.395,0.613-0.686c0.114-0.291,0.177-0.707,0.177-1.257v-3.45h1.091v6.442
			h-0.977L86.278,109.001L86.278,109.001z"/>
		<path style="fill:#151515;" d="M88.523,107.079l1.081-0.166c0.062,0.436,0.229,0.769,0.509,0.997
			c0.28,0.229,0.665,0.343,1.164,0.343c0.499,0,0.873-0.104,1.112-0.301c0.239-0.208,0.364-0.447,0.364-0.717
			c0-0.249-0.104-0.437-0.322-0.582c-0.145-0.093-0.519-0.218-1.112-0.374c-0.8-0.197-1.361-0.374-1.663-0.53
			c-0.312-0.146-0.54-0.353-0.707-0.613c-0.156-0.26-0.239-0.551-0.239-0.862c0-0.291,0.062-0.551,0.197-0.8
			c0.135-0.249,0.312-0.447,0.54-0.613c0.166-0.124,0.405-0.229,0.696-0.322c0.291-0.083,0.603-0.135,0.945-0.135
			c0.509,0,0.945,0.073,1.33,0.218c0.384,0.145,0.665,0.343,0.842,0.592c0.177,0.249,0.312,0.582,0.374,0.998l-1.07,0.145
			c-0.052-0.333-0.187-0.592-0.426-0.779c-0.229-0.187-0.561-0.281-0.987-0.281c-0.499,0-0.862,0.083-1.07,0.249
			c-0.218,0.166-0.322,0.364-0.322,0.582c0,0.146,0.042,0.27,0.135,0.384c0.094,0.114,0.229,0.218,0.416,0.291
			c0.114,0.042,0.426,0.135,0.966,0.281c0.769,0.208,1.309,0.374,1.621,0.509c0.301,0.135,0.54,0.322,0.717,0.571
			c0.177,0.25,0.26,0.561,0.26,0.935c0,0.364-0.104,0.707-0.322,1.029c-0.208,0.322-0.519,0.572-0.914,0.748
			c-0.405,0.177-0.852,0.26-1.361,0.26c-0.842,0-1.475-0.177-1.912-0.52C88.928,108.274,88.647,107.765,88.523,107.079z"/>
		<path style="fill:#151515;" d="M99.588,106.923l1.133,0.135c-0.177,0.655-0.509,1.174-0.987,1.538
			c-0.478,0.364-1.102,0.55-1.849,0.55c-0.945,0-1.694-0.291-2.244-0.873c-0.551-0.582-0.831-1.392-0.831-2.442
			c0-1.081,0.281-1.922,0.842-2.525c0.561-0.603,1.278-0.894,2.171-0.894c0.862,0,1.569,0.291,2.109,0.883
			c0.54,0.592,0.821,1.413,0.821,2.473c0,0.062,0,0.166-0.011,0.291h-4.811c0.042,0.707,0.239,1.247,0.603,1.631
			c0.364,0.374,0.811,0.561,1.351,0.561c0.405,0,0.738-0.104,1.029-0.312C99.193,107.723,99.422,107.391,99.588,106.923z
			 M96.003,105.157h3.595c-0.052-0.54-0.187-0.945-0.416-1.216c-0.343-0.416-0.8-0.634-1.351-0.634
			c-0.499,0-0.925,0.166-1.268,0.499C96.222,104.149,96.035,104.596,96.003,105.157z"/>
		<path style="fill:#151515;" d="M105.136,105.78c0-1.195,0.332-2.078,0.997-2.649c0.55-0.478,1.226-0.717,2.026-0.717
			c0.883,0,1.611,0.291,2.172,0.873c0.561,0.582,0.841,1.382,0.841,2.41c0,0.831-0.124,1.486-0.374,1.953
			c-0.249,0.478-0.613,0.842-1.091,1.112c-0.478,0.26-0.998,0.395-1.559,0.395c-0.904,0-1.631-0.291-2.192-0.873
			C105.406,107.702,105.136,106.871,105.136,105.78z M106.258,105.78c0,0.821,0.177,1.444,0.54,1.849
			c0.364,0.416,0.81,0.613,1.361,0.613c0.54,0,0.997-0.208,1.351-0.623c0.364-0.416,0.54-1.039,0.54-1.891
			c0-0.8-0.177-1.403-0.54-1.808c-0.364-0.416-0.81-0.613-1.351-0.613c-0.551,0-0.998,0.208-1.361,0.613
			C106.435,104.336,106.258,104.959,106.258,105.78z"/>
		<path style="fill:#151515;" d="M112.71,109.001v-5.59h-0.966v-0.852h0.966v-0.686c0-0.436,0.042-0.758,0.114-0.966
			c0.104-0.281,0.291-0.509,0.551-0.686c0.26-0.177,0.634-0.26,1.112-0.26c0.312,0,0.644,0.042,1.018,0.114l-0.166,0.956
			c-0.229-0.042-0.436-0.062-0.644-0.062c-0.333,0-0.572,0.073-0.707,0.208c-0.135,0.146-0.208,0.405-0.208,0.79v0.592h1.257v0.852
			h-1.237v5.59L112.71,109.001L112.71,109.001z"/>
		<path style="fill:#151515;" d="M121.043,109.001l-2.359-8.894h1.205l1.351,5.829c0.145,0.613,0.27,1.215,0.374,1.818
			c0.229-0.945,0.364-1.496,0.405-1.642l1.694-6.005h1.423l1.278,4.499c0.322,1.112,0.55,2.161,0.696,3.148
			c0.114-0.561,0.26-1.205,0.447-1.933l1.392-5.714h1.184l-2.442,8.894h-1.132l-1.87-6.774c-0.156-0.571-0.249-0.914-0.28-1.039
			c-0.094,0.405-0.177,0.758-0.26,1.039l-1.891,6.774L121.043,109.001L121.043,109.001z"/>
		<path style="fill:#151515;" d="M131.09,101.365v-1.257h1.091v1.257H131.09z M131.09,109.001v-6.442h1.091v6.442H131.09z"/>
		<path style="fill:#151515;" d="M133.407,107.079l1.081-0.166c0.062,0.436,0.229,0.769,0.509,0.997
			c0.281,0.229,0.665,0.343,1.164,0.343c0.499,0,0.873-0.104,1.112-0.301c0.239-0.208,0.364-0.447,0.364-0.717
			c0-0.249-0.104-0.437-0.322-0.582c-0.145-0.093-0.519-0.218-1.112-0.374c-0.8-0.197-1.361-0.374-1.662-0.53
			c-0.312-0.146-0.54-0.353-0.707-0.613c-0.156-0.26-0.239-0.551-0.239-0.862c0-0.291,0.062-0.551,0.197-0.8
			c0.135-0.249,0.312-0.447,0.54-0.613c0.166-0.124,0.405-0.229,0.696-0.322c0.291-0.083,0.603-0.135,0.945-0.135
			c0.509,0,0.945,0.073,1.33,0.218c0.384,0.145,0.665,0.343,0.842,0.592c0.177,0.249,0.312,0.582,0.374,0.998l-1.07,0.145
			c-0.052-0.333-0.187-0.592-0.426-0.779c-0.229-0.187-0.561-0.281-0.987-0.281c-0.499,0-0.862,0.083-1.07,0.249
			c-0.218,0.166-0.322,0.364-0.322,0.582c0,0.146,0.042,0.27,0.135,0.384c0.093,0.114,0.229,0.218,0.416,0.291
			c0.114,0.042,0.426,0.135,0.966,0.281c0.769,0.208,1.309,0.374,1.621,0.509c0.301,0.135,0.54,0.322,0.717,0.571
			c0.177,0.25,0.26,0.561,0.26,0.935c0,0.364-0.104,0.707-0.322,1.029c-0.208,0.322-0.519,0.572-0.914,0.748
			c-0.395,0.177-0.852,0.26-1.361,0.26c-0.842,0-1.475-0.177-1.912-0.52C133.812,108.274,133.532,107.765,133.407,107.079z"/>
		<path style="fill:#151515;" d="M144.233,109.001v-0.81c-0.405,0.644-1.008,0.956-1.797,0.956c-0.509,0-0.987-0.145-1.413-0.426
			c-0.426-0.281-0.769-0.675-0.997-1.184c-0.239-0.509-0.353-1.091-0.353-1.745c0-0.644,0.104-1.226,0.322-1.746
			c0.218-0.519,0.54-0.925,0.966-1.205s0.904-0.416,1.434-0.416c0.384,0,0.738,0.083,1.039,0.249
			c0.301,0.166,0.551,0.374,0.738,0.644v-3.19h1.091v8.894h-1.029L144.233,109.001L144.233,109.001z M140.784,105.791
			c0,0.821,0.177,1.444,0.519,1.849c0.343,0.405,0.758,0.613,1.236,0.613c0.478,0,0.883-0.197,1.216-0.582
			c0.332-0.395,0.499-0.987,0.499-1.787c0-0.883-0.166-1.527-0.509-1.943c-0.343-0.416-0.758-0.623-1.257-0.623
			c-0.488,0-0.894,0.197-1.215,0.592C140.951,104.305,140.784,104.928,140.784,105.791z"/>
		<path style="fill:#151515;" d="M146.561,105.78c0-1.195,0.332-2.078,0.997-2.649c0.551-0.478,1.226-0.717,2.026-0.717
			c0.883,0,1.61,0.291,2.171,0.873c0.561,0.582,0.842,1.382,0.842,2.41c0,0.831-0.125,1.486-0.374,1.953
			c-0.249,0.478-0.613,0.842-1.091,1.112c-0.478,0.27-0.998,0.395-1.559,0.395c-0.904,0-1.631-0.291-2.192-0.873
			C146.841,107.702,146.561,106.871,146.561,105.78z M147.683,105.78c0,0.821,0.177,1.444,0.54,1.849
			c0.364,0.416,0.81,0.613,1.361,0.613c0.54,0,0.997-0.208,1.351-0.623c0.364-0.416,0.54-1.039,0.54-1.891
			c0-0.8-0.177-1.403-0.54-1.808c-0.364-0.416-0.81-0.613-1.351-0.613c-0.551,0-0.998,0.208-1.361,0.613
			C147.859,104.336,147.683,104.959,147.683,105.78z"/>
		<path style="fill:#151515;" d="M153.875,109.001v-6.442h0.977v0.904c0.197-0.312,0.468-0.571,0.81-0.758
			c0.332-0.187,0.717-0.291,1.143-0.291c0.478,0,0.873,0.104,1.174,0.301c0.301,0.197,0.519,0.478,0.644,0.831
			c0.509-0.748,1.174-1.132,1.995-1.132c0.644,0,1.132,0.177,1.475,0.53s0.519,0.904,0.519,1.631v4.426h-1.091v-4.062
			c0-0.436-0.031-0.748-0.104-0.945c-0.073-0.187-0.197-0.343-0.384-0.468c-0.187-0.124-0.405-0.177-0.655-0.177
			c-0.457,0-0.831,0.156-1.132,0.457c-0.301,0.301-0.447,0.779-0.447,1.444v3.74h-1.091v-4.187c0-0.488-0.093-0.852-0.27-1.091
			c-0.177-0.239-0.468-0.364-0.873-0.364c-0.312,0-0.592,0.083-0.852,0.239c-0.26,0.166-0.447,0.395-0.571,0.707
			c-0.114,0.312-0.177,0.758-0.177,1.351v3.346h-1.091V109.001z"/>
	</g>
	<path style="fill:#151515;" d="M153.273,90.86l1.299-0.145l-1.371,0.083l-0.031,3.335h-6.65l0.073-3.533l-1.423-0.042v3.47h-6.66
		l-0.291-3.325h-1.008v3.574l-10.203-0.052l-0.042-2.94l-1.288,0.052l-0.042,2.691c-0.01,0.831,0.655,1.569,1.496,1.6
		c0.031,0,0.062,0,0.094,0c0.935,0,6.837-0.01,9.091-0.01c0.571,0,1.112-0.218,1.527-0.592l0.125-0.114l1.039,0.332
		c0.25,0.083,0.519,0.114,0.779,0.114l4.249-0.052c0.54-0.01,1.06-0.156,1.517-0.447l0.332-0.208l0.862,0.468
		c0.447,0.239,0.945,0.364,1.455,0.364h4.447c0.738,0,1.455-0.249,2.036-0.717l0,0c0.249-0.197,0.208-0.499,0.187-0.821l0.01-3.169
		L153.273,90.86z"/>
	<rect x="116.513" y="88.211" style="fill:#151515;" width="1.299" height="7.086"/>
	<path style="fill:#151515;" d="M110.477,88.2l-0.291,5.881h-4.935c-0.353,0-0.675-0.187-0.852-0.478l0,0
		c0-2.608-0.956-3.512-2.702-3.47c-1.413,0.031-2.265,1.465-2.265,1.465l0.821,0.561c0,0,0.831-1.008,1.382-0.904
		c1.361,0.27,1.226,2.826,1.226,2.826l-8.956-0.187c-0.229,0-0.415-0.177-0.436-0.395c-0.052-0.499-0.197-1.382-0.592-2.036
		c-0.582-0.966-2.701-0.623-2.701-0.623l2.359-2.068l-0.478-0.769c0,0-0.582,0.197-2.317,1.933
		c-1.735,1.735-0.966,2.026-0.966,2.026s2.608-0.197,3.283,0.291c0.384,0.27,0.416,0.79,0.364,1.195
		c-0.031,0.312-0.301,0.551-0.623,0.551l-7.948-0.011c-0.27,0-0.478-0.229-0.478-0.499c0.011-0.364-0.135-0.987-0.686-2.026
		c-0.509-0.956-1.777-1.143-2.556-0.811c-0.81,0.343-1.434,1.029-1.746,1.86l-0.519,1.392h-6.276v-4.343l0,0
		c-0.374,0.062-0.738,0.229-1.029,0.468l-0.707,0.592c0,0-2.514,0.104-2.701,2.317c-0.187,2.14,3.668,1.735,3.668,1.735l0,0
		c0.208,0.343,0.582,0.551,0.977,0.54l5.475-0.01c0.571,0,1.091-0.322,1.361-0.821l0,0c1.964,3.117,4.052,0.291,4.052,0.291
		l0.457,0.322c0.332,0.229,0.717,0.353,1.122,0.364l7.502,0.083c0.426,0,0.852-0.125,1.205-0.364l0.322-0.208l0.249,0.218
		c0.27,0.239,0.623,0.364,0.977,0.364h7.605c0.457,0,0.904-0.156,1.268-0.436l0.79-0.623l0,0c0.364,0.655,1.039,1.07,1.787,1.091
		c1.527,0.042,4.062,0.114,4.821,0.114c1.112,0,1.112-1.112,1.112-1.112l0.197-6.276L110.477,88.2L110.477,88.2z M70.184,93.634
		c-0.769,0.384-1.933-0.197-1.995-0.904c-0.062-0.707,2.12-1.226,2.12-1.226l0.26-0.26l-0.125,2.182
		C70.444,93.437,70.964,93.25,70.184,93.634z M80.772,94.372c-0.696,0-1.257-0.561-1.257-1.257c0-0.696,0.561-1.257,1.257-1.257
		c0.696,0,1.257,0.561,1.257,1.257C82.029,93.811,81.458,94.372,80.772,94.372z"/>
	<circle style="fill:#151515;" cx="69.249" cy="87.93" r="0.925"/>
	<circle style="fill:#151515;" cx="71.441" cy="87.93" r="0.925"/>
	<circle style="fill:#151515;" cx="131.069" cy="89.499" r="0.925"/>
	<circle style="fill:#151515;" cx="133.262" cy="89.499" r="0.925"/>
	<circle style="fill:#151515;" cx="140.192" cy="97.385" r="0.925"/>
	<circle style="fill:#151515;" cx="142.384" cy="97.385" r="0.925"/>
	<circle style="fill:#151515;" cx="150.384" cy="97.385" r="0.925"/>
</g>
</svg>
