<?xml version="1.0" encoding="iso-8859-1"?>
<!-- Generator: Adobe Illustrator 21.1.0, SVG Export Plug-In . SVG Version: 6.00 Build 0)  -->
<svg version="1.1" id="Layer_1" xmlns="http://www.w3.org/2000/svg" xmlns:xlink="http://www.w3.org/1999/xlink" x="0px" y="0px"
	 viewBox="0 0 231 231" style="enable-background:new 0 0 231 231;" xml:space="preserve">
<g>
	<g>
		<path style="fill:#30B5E7;" d="M142.19,44.105c2.574,0,5.081,0,7.654,0c7.192,2.705,14.253,4.949,20.654,9.898
			c9.238,7.192,13.593,28.242,5.873,38.14c-3.299,4.223-6.005,8.842-9.106,13.461c11.482,1.848,15.375,6.533,15.111,17.816
			c-0.198,11.152-4.421,21.776-3.299,33.191c2.244,22.831-20.126,31.673-35.501,28.242c-4.685-1.056-8.578-3.431-10.36-7.918
			c-1.122-2.837-2.904-3.167-5.477-3.167c-9.238,0-18.476-0.264-27.714-0.198c-3.497,0.066-7.259-2.837-9.964-1.452
			c-7.06,3.563-14.253,1.122-21.314,1.716c-9.634,0.792-17.024-1.98-21.248-11.086c0-12.01,0-23.953,0-35.963
			c3.035-4.289,4.817-8.644,4.619-14.253c-0.264-7.72-2.111-16.035,3.695-22.963c1.254-1.452,1.188-4.223,0-5.675
			c-5.477-6.731-3.827-14.385-3.233-21.908c0.726-8.776,5.477-13.791,14.121-14.319c11.482-0.726,23.095-1.914,34.445,1.518
			c1.188,0.396,2.111-0.066,3.101-0.528c3.233-1.518,6.467-3.101,9.7-4.619c2.573,0,5.081,0,7.654,0
			C128.398,46.612,135.327,48.526,142.19,44.105z M148.128,112.731c1.584-1.452,2.046-2.046,2.639-2.376
			c8.974-5.081,14.913-12.867,20.126-21.577c1.518-2.573,2.508-4.949,2.904-7.786c2.309-18.212-11.152-28.572-26.856-30.024
			c-3.893-0.33-8.974-0.594-12.405,3.035c-1.584,1.65-2.706,0.33-4.223-0.264c-5.873-2.31-11.878-4.421-18.278-1.452
			c-5.345,2.508-10.492,6.665-16.695,1.914c-0.726-0.528-2.111-0.264-3.233-0.264c-5.081-0.132-10.162-0.528-15.243-0.396
			c-18.872,0.594-17.552,2.31-18.212,17.288c-0.264,3.761,0.264,6.731,2.904,9.766c2.837,3.299,2.837,9.37,0.66,11.614
			c-6.137,6.467-4.025,13.857-3.365,20.588c0.462,4.421-0.264,7.786-2.442,10.822c-2.705,3.827-2.771,7.523-1.65,11.68
			c0.528,2.046,2.442,4.289,1.32,6.203c-2.837,4.817-1.716,9.898-1.782,14.913c-0.132,8.248,2.376,10.36,10.69,10.822
			c4.091,0.198,8.512-1.65,12.273,0.66c2.31,1.452,3.299,1.122,5.543-0.066c2.969-1.584,6.401-4.421,9.898-2.771
			c3.299,1.584,6.533,1.848,9.964,1.914c10.162,0.132,20.324,0.33,30.486,0.264c3.101,0,5.147,0.198,5.081,4.157
			c-0.066,2.903,1.782,5.279,4.487,6.335c13.263,5.213,30.486-2.969,29.958-19.004c-0.132-4.355-0.066-8.71-0.066-13.065
			c0-3.233-1.056-7.259,0.462-9.634c2.969-4.619,2.573-9.37,2.771-14.121c0.264-6.071-2.574-9.04-8.578-9.436
			C161.392,112.071,155.453,112.137,148.128,112.731z"/>
		<path style="fill:#FBFDFE;" d="M47.499,162.814c4.289,9.106,11.68,11.878,21.248,11.086c7.061-0.594,14.253,1.848,21.314-1.716
			c2.706-1.386,6.401,1.518,9.964,1.452c9.238-0.132,18.476,0.132,27.714,0.198c2.508,0,4.289,0.33,5.477,3.167
			c1.848,4.487,5.675,6.862,10.36,7.918c15.375,3.431,37.744-5.411,35.501-28.242c-1.122-11.416,3.101-22.04,3.299-33.191
			c0.198-11.284-3.629-15.969-15.111-17.816c3.101-4.619,5.807-9.238,9.106-13.461c7.72-9.898,3.365-30.948-5.873-38.14
			c-6.401-4.949-13.527-7.192-20.654-9.898c10.162,0,20.324,0.066,30.42-0.066c2.574-0.066,3.431,0.396,3.365,3.299
			c-0.132,45.465-0.132,90.995,0,136.46c0,2.508-0.462,3.101-3.035,3.101c-43.485-0.132-86.97-0.132-130.455,0
			c-2.376,0-2.771-0.594-2.771-2.837C47.565,176.935,47.499,169.875,47.499,162.814z"/>
		<path style="fill:#FBFDFE;" d="M113.882,44.105c-3.233,1.518-6.467,3.035-9.7,4.619c-0.99,0.462-1.848,0.924-3.101,0.528
			c-11.35-3.431-22.963-2.244-34.445-1.518c-8.644,0.528-13.329,5.543-14.121,14.319c-0.66,7.523-2.309,15.177,3.233,21.907
			c1.188,1.518,1.254,4.223,0,5.675c-5.873,6.995-3.959,15.243-3.695,22.963c0.198,5.675-1.584,10.03-4.619,14.253
			c0-26.394,0.066-52.789-0.066-79.184c0-2.969,0.528-3.695,3.563-3.629C71.98,44.171,92.898,44.105,113.882,44.105z"/>
		<path style="fill:#F6F5F5;" d="M142.19,44.105c-6.929,4.421-13.791,2.573-20.72,0C128.398,44.105,135.327,44.105,142.19,44.105z"
			/>
		<path style="fill:#050607;" d="M148.128,112.731c7.325-0.66,13.263-0.726,19.202-0.33c6.005,0.396,8.842,3.365,8.578,9.436
			c-0.198,4.817,0.198,9.568-2.771,14.121c-1.518,2.31-0.462,6.335-0.462,9.634c0,4.355-0.066,8.71,0.066,13.065
			c0.528,16.035-16.695,24.217-29.958,19.004c-2.639-1.056-4.553-3.431-4.487-6.335c0.132-3.959-1.914-4.157-5.081-4.157
			c-10.162,0.066-20.324-0.132-30.486-0.264c-3.431-0.066-6.665-0.33-9.964-1.914c-3.497-1.65-6.929,1.188-9.898,2.771
			c-2.243,1.188-3.233,1.452-5.543,0.066c-3.695-2.309-8.116-0.462-12.274-0.66c-8.314-0.396-10.822-2.573-10.69-10.822
			c0.066-5.015-1.056-10.096,1.781-14.913c1.122-1.914-0.792-4.157-1.32-6.203c-1.122-4.157-1.056-7.852,1.65-11.68
			c2.111-3.035,2.904-6.335,2.442-10.822c-0.726-6.665-2.772-14.121,3.365-20.588c2.178-2.31,2.178-8.314-0.66-11.614
			c-2.639-3.035-3.167-6.071-2.969-9.7c0.66-14.979-0.66-16.695,18.212-17.288c5.081-0.132,10.162,0.198,15.243,0.396
			c1.056,0,2.507-0.264,3.233,0.264c6.269,4.751,11.416,0.594,16.695-1.914c6.401-2.969,12.339-0.858,18.278,1.452
			c1.518,0.594,2.639,1.98,4.223,0.264c3.431-3.629,8.512-3.431,12.405-3.035c15.705,1.452,29.166,11.811,26.857,30.024
			c-0.33,2.837-1.32,5.213-2.904,7.786c-5.213,8.644-11.152,16.497-20.126,21.578C150.108,110.685,149.712,111.279,148.128,112.731z
			 M100.684,76.042c0.198,7.918,3.299,14.715,8.71,20.39c4.949,5.147,11.284,8.446,17.024,12.603
			c6.269,4.553,8.38,4.223,14.847-0.198c6.797-4.619,12.471-10.558,17.948-16.365c10.162-10.822,11.218-21.841-1.518-30.75
			c-7.06-4.949-15.969-4.685-21.907,1.056c-2.244,2.178-3.695,2.046-5.807,0.066c-4.883-4.685-10.492-5.807-16.893-3.233
			C105.633,62.581,100.618,67.332,100.684,76.042z M138.692,135.364c0-4.289-0.066-8.116,0-11.878
			c0.066-1.452-0.132-2.706-1.914-2.507c-4.553,0.594-9.04-0.66-13.527-0.726c-1.32,0-2.309,0.396-1.914,1.782
			c0.726,2.705-1.782,5.939,1.848,8.314c1.254,0.792,1.518,4.025-0.198,4.685c-2.309,0.924-5.477,1.65-7.655-0.198
			c-0.792-0.66-1.386-3.893,0.462-4.751c4.553-1.914,1.848-5.345,1.65-7.852c-0.198-3.167-3.431-1.716-5.345-1.848
			c-3.233-0.264-6.532-0.198-9.766,0c-1.65,0.132-4.223-0.99-4.619,1.452c-0.396,2.507-1.254,5.345,0.462,7.786
			c2.111,2.969,3.233,17.684,0.792,19.796c-2.904,2.639-1.452,5.543-1.122,7.918c0.33,2.705,3.629,1.32,5.543,1.584
			c3.035,0.396,6.137,0.462,9.238,0.33c1.782-0.066,4.619,1.386,5.147-1.122c0.528-2.574,1.584-6.269-0.792-8.116
			c-2.442-1.914-2.178-4.355-1.056-5.411c1.782-1.65,5.279-1.98,7.127-0.858c1.782,1.056,1.584,4.025-0.33,6.071
			c-2.309,2.441-1.32,5.543-0.792,8.116c0.462,2.309,3.431,1.122,5.279,1.32c2.507,0.264,5.081,0.264,7.588,0.132
			c2.903-0.132,7.918-6.334,6.467-8.182C137.109,146.186,139.55,140.313,138.692,135.364z M80.69,111.741c0-0.066,0-0.132,0-0.198
			c3.101,0,6.137,0.132,9.238-0.066c1.518-0.066,4.223,1.452,4.421-1.188c0.198-3.431,1.716-9.106-0.924-10.03
			c-4.421-1.518-3.299-4.223-3.365-6.665c-0.198-5.741,0-11.548,0.066-17.354c0-0.66,0.198-1.914,0.462-1.914
			c6.005-1.32,3.035-6.203,3.827-9.502c0.33-1.518-0.066-2.837-2.178-2.903c-7.588-0.198-15.177-0.792-22.765,0.132
			c-2.508,0.264-3.035,1.782-2.639,3.695c0.528,2.706-2.639,6.599,1.386,7.852c2.837,0.858,2.705,2.111,2.639,4.157
			c-0.066,2.178,0.396,4.421-0.066,6.467c-1.32,5.543,4.157,12.933-4.355,16.563c-0.198,0.066-0.066,0.66-0.132,1.056
			c-1.782,8.116-0.264,9.964,7.984,9.964C76.335,111.675,78.513,111.741,80.69,111.741z M62.148,153.048
			c0,5.939,3.563,9.04,7.786,5.939c2.705-1.98,4.289-1.122,6.005-0.198c4.685,2.573,8.446-0.198,12.339-1.848
			c3.101-1.32,1.188-4.487,1.584-6.863c0.198-1.254,0.264-2.573,0.858-3.629c1.716-2.771,0.66-4.685-1.452-6.599
			c-3.827-3.431-7.918-6.203-12.867-7.852c-1.254-0.396-2.969-1.122-1.98-2.969c0.528-0.99,1.452-2.376,2.904-1.848
			c1.122,0.396,2.111,1.386,3.035,2.244c2.376,2.376,5.477,2.574,8.116,1.716c2.375-0.792,0.99-3.827,1.254-5.807
			c0.528-4.619-2.837-7.325-6.071-4.553c-2.771,2.31-4.421,0.924-6.467,0.33c-3.695-1.056-10.492,0.66-12.142,3.299
			c-3.827,6.335-3.563,10.624,1.188,14.913c3.233,2.904,6.797,5.411,10.888,7.06c1.32,0.528,2.969,1.254,1.914,3.101
			c-1.056,1.782-2.507,1.716-4.091,0.33c-0.924-0.858-1.98-1.65-3.101-2.244C65.909,144.668,62.148,146.78,62.148,153.048z
			 M158.027,120.187c0-0.066,0-0.132,0-0.198c-2.508,0.132-5.081,0.198-7.588,0.396c-1.452,0.132-3.827-0.66-3.827,1.782
			c0.066,2.507-1.65,5.807,1.122,7.39c1.518,0.858,2.111,1.254,2.111,2.903c-0.066,8.182,0,16.299,0.066,24.481
			c0,1.848,0.132,3.365-2.508,3.827c-4.487,0.858-1.254,4.421-1.781,6.664c-0.528,2.178,0.792,3.035,2.969,3.365
			c8.908,1.518,16.299-4.421,16.299-13.329c0-7.786-0.066-15.573,0-23.359c0-1.452-0.858-3.233,1.122-4.355
			c3.629-1.98,2.111-5.609,1.782-8.182c-0.33-2.706-3.563-1.122-5.543-1.452C160.93,119.989,159.478,120.187,158.027,120.187z
			 M118.962,112.533c-6.335-4.289-11.68-7.72-16.431-12.867c-0.528,12.471-0.528,12.471,10.228,12.867
			C114.343,112.599,115.927,112.533,118.962,112.533z"/>
		<path style="fill:#E82327;" d="M100.684,76.042c-0.066-8.776,4.883-13.461,12.472-16.431c6.401-2.508,12.009-1.452,16.893,3.233
			c2.111,1.98,3.563,2.112,5.807-0.066c5.939-5.807,14.847-6.005,21.907-1.056c12.735,8.908,11.68,19.928,1.518,30.75
			c-5.477,5.873-11.152,11.746-17.948,16.365c-6.467,4.421-8.578,4.751-14.847,0.198c-5.741-4.157-12.075-7.457-17.024-12.603
			C103.984,90.757,100.882,84.027,100.684,76.042z M134.139,91.351c3.233-0.264,6.467-0.462,9.238-2.442
			c1.254-0.858,2.111-2.046,1.188-3.629c-0.792-1.386-2.112-1.32-3.299-0.858c-4.883,1.914-9.766,2.046-14.715,0
			c-1.452-0.594-2.969-0.396-3.629,1.254c-0.66,1.716,0.528,2.706,1.782,3.431C127.673,90.955,130.906,91.153,134.139,91.351z
			 M141.2,75.052c-0.33-1.782-0.396-4.553-3.035-4.685c-2.903-0.132-3.035,2.771-3.035,4.751c0,2.046,0.198,4.883,3.101,4.751
			C140.54,79.803,140.936,77.428,141.2,75.052z M125.627,75.25c0.264,2.046,0.264,4.751,3.101,4.619
			c2.309-0.132,2.705-2.507,2.771-4.553c0-2.178-0.198-4.883-2.837-4.949C125.891,70.301,125.891,73.073,125.627,75.25z"/>
		<path style="fill:#F6F5F5;" d="M138.692,135.364c0.792,5.015-1.65,10.822,2.573,15.969c1.518,1.848-3.497,8.05-6.467,8.182
			c-2.508,0.132-5.081,0.132-7.588-0.132c-1.848-0.198-4.751,0.99-5.279-1.32c-0.528-2.574-1.518-5.675,0.792-8.116
			c1.914-1.98,2.178-5.015,0.33-6.071c-1.848-1.056-5.345-0.792-7.127,0.858c-1.188,1.056-1.386,3.497,1.056,5.411
			c2.376,1.848,1.32,5.477,0.792,8.116c-0.528,2.508-3.365,1.056-5.147,1.122c-3.101,0.132-6.203,0.066-9.238-0.33
			c-1.979-0.264-5.213,1.056-5.543-1.584c-0.33-2.442-1.782-5.345,1.122-7.918c2.442-2.178,1.32-16.827-0.792-19.796
			c-1.716-2.507-0.924-5.279-0.462-7.786c0.396-2.376,3.035-1.32,4.619-1.452c3.233-0.198,6.532-0.33,9.766,0
			c1.914,0.132,5.147-1.32,5.345,1.848c0.198,2.508,2.837,5.873-1.65,7.852c-1.848,0.792-1.32,4.091-0.462,4.751
			c2.178,1.782,5.345,1.122,7.655,0.198c1.716-0.726,1.386-3.893,0.198-4.685c-3.629-2.31-1.122-5.609-1.848-8.314
			c-0.33-1.386,0.594-1.782,1.914-1.782c4.553,0.066,8.974,1.254,13.527,0.726c1.716-0.198,1.914,1.056,1.914,2.507
			C138.626,127.248,138.692,131.075,138.692,135.364z"/>
		<path style="fill:#F8F8F8;" d="M80.69,111.741c-2.178,0-4.355,0-6.533,0c-8.248,0-9.766-1.848-7.984-9.964
			c0.066-0.33,0-0.99,0.132-1.056c8.512-3.629,3.101-11.02,4.355-16.563c0.462-2.046,0-4.355,0.066-6.467
			c0.066-2.046,0.198-3.299-2.639-4.157c-4.025-1.254-0.792-5.213-1.386-7.852c-0.396-1.914,0.066-3.431,2.639-3.695
			c7.588-0.858,15.177-0.33,22.765-0.132c2.046,0.066,2.507,1.386,2.178,2.904c-0.726,3.365,2.243,8.248-3.827,9.502
			c-0.264,0.066-0.462,1.254-0.462,1.914c-0.066,5.807-0.33,11.548-0.066,17.354c0.066,2.442-0.99,5.147,3.365,6.665
			c2.639,0.924,1.188,6.599,0.924,10.03c-0.198,2.706-2.904,1.122-4.421,1.188c-3.035,0.198-6.137,0.066-9.238,0.066
			C80.69,111.609,80.69,111.675,80.69,111.741z"/>
		<path style="fill:#F6F5F5;" d="M62.148,153.048c0-6.269,3.761-8.38,9.502-5.345c1.122,0.594,2.111,1.386,3.101,2.244
			c1.518,1.386,3.035,1.452,4.091-0.33c1.056-1.848-0.594-2.574-1.914-3.101c-4.091-1.65-7.655-4.157-10.888-7.061
			c-4.751-4.289-5.015-8.578-1.188-14.913c1.584-2.639,8.446-4.355,12.142-3.299c2.111,0.594,3.695,1.98,6.467-0.33
			c3.299-2.771,6.599-0.066,6.071,4.553c-0.198,1.98,1.122,5.015-1.254,5.807c-2.639,0.858-5.741,0.66-8.116-1.716
			c-0.858-0.858-1.848-1.848-3.035-2.244c-1.452-0.528-2.376,0.858-2.904,1.848c-0.99,1.848,0.726,2.574,1.98,2.969
			c4.883,1.584,9.04,4.421,12.867,7.852c2.111,1.914,3.167,3.827,1.452,6.599c-0.594,0.99-0.66,2.376-0.858,3.629
			c-0.462,2.309,1.518,5.543-1.584,6.862c-3.827,1.584-7.655,4.355-12.339,1.848c-1.716-0.924-3.299-1.781-6.005,0.198
			C65.777,162.088,62.148,158.921,62.148,153.048z"/>
		<path style="fill:#F8F8F8;" d="M158.027,120.187c1.452,0,2.903-0.198,4.355,0.066c1.914,0.33,5.213-1.254,5.543,1.452
			c0.33,2.573,1.782,6.203-1.782,8.182c-1.98,1.056-1.122,2.904-1.122,4.355c-0.066,7.786,0,15.573,0,23.359
			c0,8.908-7.39,14.847-16.299,13.329c-2.243-0.396-3.497-1.188-2.969-3.365c0.528-2.244-2.705-5.807,1.782-6.665
			c2.639-0.528,2.507-1.98,2.507-3.827c-0.066-8.182-0.132-16.299-0.066-24.481c0-1.65-0.594-2.046-2.111-2.904
			c-2.837-1.584-1.122-4.883-1.122-7.39c-0.066-2.441,2.376-1.65,3.827-1.781c2.507-0.264,5.081-0.264,7.588-0.396
			C158.027,120.055,158.027,120.121,158.027,120.187z"/>
		<path style="fill:#30B5E7;" d="M118.962,112.533c-3.035,0-4.619,0.066-6.203,0c-10.756-0.396-10.756-0.396-10.228-12.867
			C107.283,104.812,112.562,108.244,118.962,112.533z"/>
		<path style="fill:#050607;" d="M134.139,91.351c-3.233-0.198-6.467-0.396-9.37-2.178c-1.254-0.792-2.507-1.782-1.782-3.431
			c0.66-1.65,2.178-1.848,3.629-1.254c4.883,2.046,9.766,1.98,14.715,0c1.188-0.462,2.507-0.528,3.299,0.858
			c0.924,1.584,0.066,2.771-1.188,3.629C140.606,90.889,137.373,91.087,134.139,91.351z"/>
		<path style="fill:#050607;" d="M141.2,75.052c-0.264,2.376-0.726,4.751-2.969,4.883c-2.904,0.132-3.101-2.706-3.101-4.751
			c0-2.046,0.132-4.949,3.035-4.751C140.87,70.499,140.87,73.271,141.2,75.052z"/>
		<path style="fill:#050607;" d="M125.627,75.25c0.264-2.111,0.264-4.883,3.035-4.817c2.639,0.066,2.837,2.771,2.837,4.949
			c0,2.046-0.396,4.421-2.771,4.553C125.891,80.001,125.957,77.296,125.627,75.25z"/>
	</g>
</g>
</svg>
