<?xml version="1.0" encoding="iso-8859-1"?>
<!-- Generator: Adobe Illustrator 21.1.0, SVG Export Plug-In . SVG Version: 6.00 Build 0)  -->
<svg version="1.1" id="Layer_1" xmlns="http://www.w3.org/2000/svg" xmlns:xlink="http://www.w3.org/1999/xlink" x="0px" y="0px"
	 viewBox="0 0 231 231" style="enable-background:new 0 0 231 231;" xml:space="preserve">
<g>
	<path style="fill:#283E97;" d="M109.463,67.934c1.083,0.489,2.266,0.347,3.392,0.453c15.685,1.466,30.429,5.892,43.933,14.099
		c4.617,2.811,9.468,4.277,14.885,4.043c2.967-0.127,5.941-0.135,8.887,0.496c2.429,0.517,4.277,1.742,5.594,3.866
		c2.167,3.498,3.144,7.351,3.597,11.387c0.035,0.304-0.149,0.687,0.248,0.899c0,4.192,0,8.391,0,12.584
		c-0.524,1.459-0.396,3.017-0.623,4.518c-1.275,8.554-6.338,13.405-15.77,14.092c-2.167,0.156-2.132,0.156-2.479,2.309
		c-0.545,3.406-2.471,6.012-5.056,8.144c-3.987,3.3-8.533,5.07-13.788,4.681c-0.906-0.071-1.778-0.276-2.932-0.736
		c1.112-0.319,1.94-0.552,2.755-0.8c2.734-0.821,5.396-1.806,7.825-3.335c0.822-0.51,1.579-1.098,2.238-1.82
		c0.637-0.694,1.112-1.48,1.31-2.401c0.205-0.942,0.177-2.047-0.517-2.592c-0.715-0.559-1.544,0.262-2.224,0.687
		c-1.607,1.02-2.415,2.719-3.484,4.433c-1.062-2.663-0.807-5.028,0.602-7.294c0.744-1.19,1.806-2.075,2.889-2.946
		c2.514-2.032,4.313-4.44,4.072-7.917c-0.071-1.055-0.63-1.976-0.744-3.009l-0.021,0.028c3.314,2.613,5.615,5.934,6.756,9.992
		c0.29,1.034,0.566,1.225,1.579,0.892c2.67-0.892,5.254-1.948,7.726-3.279c3.888-2.089,5.559-5.623,6.019-9.744
		c0.701-6.295,0.977-12.626,0.078-18.943c-0.298-2.082-0.963-4.051-1.714-6.019c-1.296-3.392-3.753-4.858-7.258-4.865
		c-2.054-0.007-4.114-0.12-6.161-0.057c-5.523,0.177-10.587-1.204-15.289-4.107c-9.277-5.736-19.261-9.871-29.834-12.548
		c-16.953-4.298-33.998-5.113-51.149-1.232c-0.248,0.057-0.496,0.092-0.744,0.113c-0.12,0.007-0.248-0.035-0.751-0.127
		c1.622-0.404,2.889-0.744,4.164-1.041c1.345-0.312,2.691-0.623,4.043-0.885c4.737-0.913,9.503-1.565,14.326-1.799
		c0.205-0.007,0.425,0.021,0.531-0.227C100.732,67.934,105.101,67.934,109.463,67.934z"/>
	<path style="fill:#263D97;" d="M63.398,163.073c-0.956-0.552-2.082-0.467-3.095-0.821c-0.567-0.198-0.821-0.46-0.687-1.091
		c0.241-1.147,0.474-2.294,0.637-3.456c0.099-0.694,0.368-0.779,0.998-0.588c2.195,0.666,4.419,0.85,6.706,0.474
		c2.748-0.453,4.546-1.99,5.502-4.56c0.772-2.068,0.998-4.242,1.006-6.423c0.021-10.318,0.035-20.628-0.014-30.946
		c-0.007-1.168,0.312-1.508,1.445-1.416c1.253,0.099,2.514,0.071,3.774,0.007c0.814-0.042,1.084,0.198,1.069,1.041
		c-0.05,2.974-0.021,5.955-0.021,8.93c0,7.379,0.014,14.758-0.007,22.136c-0.007,3.073-0.312,6.111-1.48,8.993
		c-1.742,4.305-5.014,6.671-9.517,7.45c-0.262,0.042-0.609-0.106-0.772,0.262C67.095,163.073,65.247,163.073,63.398,163.073z"/>
	<path style="fill:#87C442;" d="M41,92.096c1.572-0.248,3.165-0.305,4.716-0.701c5.672-1.43,8.845-5.127,9.886-10.778
		c0.106-0.574,0.177-1.161,0.248-1.742c0.071-0.574,0.12-1.147,0.205-1.99c0.616,0.744,0.489,1.374,0.524,1.933
		c0.432,6.281,3.81,10.714,9.489,12.392c1.168,0.347,2.358,0.588,3.576,0.666c0.581,0.035,1.168,0.057,1.87,0.482
		c-9.652,0.46-14.786,5.417-15.261,15.218C55.567,97.896,50.765,92.691,41,92.599C41,92.436,41,92.266,41,92.096z"/>
	<path style="fill:#253C96;" d="M105.611,120.393c1.416-2.301,3.031-3.902,5.113-4.992c8.278-4.348,17.272,0.411,18.383,9.687
		c0.347,2.932,0.198,5.863,0.22,8.795c0.035,4.695-0.021,9.39,0.035,14.085c0.014,0.977-0.29,1.218-1.204,1.168
		c-1.338-0.071-2.684-0.071-4.022,0c-0.892,0.05-1.119-0.248-1.112-1.119c0.036-6.246,0.014-12.492,0.021-18.738
		c0-1.99-0.241-3.937-1.013-5.778c-2.032-4.851-8.519-5.991-12.669-2.238c-2.146,1.94-3.151,4.398-3.151,7.266
		c-0.014,6.416-0.036,12.832,0.021,19.24c0.007,1.112-0.262,1.466-1.374,1.374c-1.289-0.106-2.599-0.064-3.895-0.007
		c-0.814,0.036-1.062-0.22-1.055-1.062c0.036-5.531,0.05-11.068,0.014-16.599c-0.036-5.283,0.191-10.565-0.248-15.841
		c-0.078-0.892,0.248-1.062,1.034-1.027c1.168,0.057,2.351,0.057,3.519,0c0.744-0.035,1.048,0.17,1.069,0.956
		C105.335,117.044,105.483,118.538,105.611,120.393z"/>
	<path style="fill:#263D97;" d="M171.107,128.233c-2.266-2.939-4.447-5.573-7.152-7.719c-1.254-0.992-2.564-1.884-4.128-2.323
		c-1.586-0.446-3.052-0.298-4.348,0.85c-0.531,0.467-0.545,0.793-0.057,1.324c1.522,1.671,3.548,2.11,5.644,2.415
		c0.326,0.05,0.651,0.071,1.232,0.127c-1.268,1.452-2.726,2.124-4.369,2.408c-2.245,0.389-4.32-0.177-6.267-1.289
		c-1.353-0.772-2.748-1.416-4.284-1.721c-2.79-0.56-5.219,0.113-7.287,2.075c-0.149,0.142-0.312,0.276-0.482,0.389
		c-0.057,0.042-0.163,0.021-0.241,0.028c0.998-5.516,6.621-11.571,11.847-12.662c2.79-0.581,5.509-0.113,8.087,1.041
		c5.481,2.457,9.524,6.296,11.387,12.152C170.958,126.165,171.128,127.029,171.107,128.233z"/>
	<path style="fill:#253C96;" d="M87.043,131.738c0-5.325,0.014-10.65-0.021-15.983c-0.007-0.843,0.156-1.197,1.083-1.147
		c1.423,0.078,2.854,0.042,4.277,0.007c0.658-0.014,0.97,0.12,0.963,0.885c-0.021,10.905-0.021,21.811,0,32.716
		c0,0.772-0.312,0.899-0.97,0.885c-1.423-0.036-2.854-0.071-4.277,0.014c-0.935,0.05-1.091-0.312-1.084-1.147
		C87.057,142.558,87.043,137.148,87.043,131.738z"/>
	<path style="fill:#273D97;" d="M140.239,129.04c3.534,0.963,5.623,3.93,5.672,7.783c0.021,1.423-0.014,2.854,0.354,4.249
		c0.829,3.08,2.783,5.056,5.913,6.076c-0.793,0.106-1.586,0.269-2.379,0.298c-2.556,0.099-5.106,0.05-7.591-0.701
		c-5.014-1.522-7.86-4.907-8.59-10.056c-0.758-5.389,0.46-10.311,3.817-14.644c0.786-1.013,1.749-1.848,3.151-2.684
		c-1.154,2.769-2.195,5.219-2.79,7.825c-0.453,1.969-0.85,3.937-0.404,5.963c0.312,1.438,1.027,2.535,2.422,3.144
		c0.765,0.333,1.204,0.262,1.445-0.651c0.46-1.707,0.17-3.314-0.404-4.921C140.678,130.208,140.487,129.72,140.239,129.04z"/>
	<path style="fill:#87C442;" d="M74.283,92.627c0.821,2.068,1.069,4.029,2.521,5.439c1.438,1.395,3.314,1.834,5.148,2.401
		c-1.933,0.418-3.739,0.921-5.141,2.316c-1.388,1.381-1.869,3.194-2.372,5.113c-0.708-4.589-3.314-7.004-7.988-7.457
		C71.032,99.942,73.801,97.613,74.283,92.627z"/>
	<path style="fill:#283E97;" d="M164.096,121.781c-0.064-0.014-0.12-0.028-0.184-0.042c0.149-0.191,0.127,0.007,0.163,0.071
		C164.075,121.803,164.096,121.781,164.096,121.781z"/>
</g>
</svg>
