<?xml version="1.0" encoding="iso-8859-1"?>
<!-- Generator: Adobe Illustrator 21.1.0, SVG Export Plug-In . SVG Version: 6.00 Build 0)  -->
<svg version="1.1" id="Layer_1" xmlns="http://www.w3.org/2000/svg" xmlns:xlink="http://www.w3.org/1999/xlink" x="0px" y="0px"
	 viewBox="0 0 231 231" style="enable-background:new 0 0 231 231;" xml:space="preserve">
<g>
	<path style="fill:#00556F;" d="M118.64,103.387c-1.691,0-3.092,1.377-3.092,3.092c0,1.715,1.377,3.092,3.092,3.092
		c1.691,0,3.092-1.377,3.092-3.092C121.732,104.764,120.331,103.387,118.64,103.387"/>
	<path style="fill:#00556F;" d="M187.936,109.57c1.691,0,3.092-1.377,3.092-3.092c0-1.691-1.377-3.092-3.092-3.092
		c-1.691,0-3.092,1.377-3.092,3.092C184.868,108.17,186.245,109.57,187.936,109.57"/>
	<path style="fill:#00556F;" d="M52.556,125.488c0,1.546-0.604,2.995-1.691,4.082c-1.087,1.087-2.536,1.691-4.034,1.691h-4.227
		c-1.497,0-2.947-0.604-4.034-1.691c-1.063-1.063-1.667-2.512-1.667-4.082v-13.647h-3.043v13.647c0,2.367,0.918,4.589,2.56,6.231
		c1.667,1.667,3.889,2.609,6.207,2.609h4.203c2.367,0,4.565-0.918,6.207-2.609c1.667-1.666,2.609-3.889,2.609-6.231v-13.647h-3.092
		V125.488z"/>
	<path style="fill:#00556F;" d="M101.926,120.367c0-2.319-0.918-4.517-2.609-6.207c-1.642-1.642-3.865-2.56-6.232-2.56H80.067
		c-3.092,0-5.555-2.174-5.724-5.048l-0.024-4.203c0-1.497,0.604-2.947,1.691-4.034c1.063-1.063,2.512-1.666,4.082-1.666h8.55v-3.068
		h-8.575c-2.367,0-4.589,0.918-6.232,2.56c-1.666,1.667-2.609,3.889-2.609,6.183v3.816c0,0.072,0,0.169,0,0.241l0.048,1.28h0.097
		c0.749,4.01,4.347,6.956,8.695,6.956h13.019c1.57,0,3.019,0.58,4.082,1.667c1.087,1.087,1.691,2.536,1.691,4.082
		c0,1.522-0.58,2.922-1.691,4.034c-1.087,1.087-2.536,1.691-4.082,1.691H76.758h-0.242H63.111v-23.139h-3.068v26.182h16.449h0.241
		h16.328c2.319,0,4.541-0.918,6.232-2.56C101.008,124.98,101.926,122.758,101.926,120.367"/>
	<path style="fill:#00556F;" d="M102.167,129.497h15.941c4.855,0,8.792-3.937,8.792-8.792c0-4.879-3.937-8.84-8.792-8.84
		c-4.879,0-8.84,3.961-8.84,8.84c0,2.125,0.773,4.154,2.126,5.724h-9.227L102.167,129.497L102.167,129.497z M118.108,114.932
		c3.164,0,5.724,2.584,5.724,5.773c0,3.164-2.56,5.724-5.724,5.724c-3.188,0-5.773-2.56-5.773-5.724
		C112.336,117.517,114.92,114.932,118.108,114.932"/>
	<path style="fill:#00556F;" d="M182.139,111.768c-2.246,0-4.372,0.821-5.99,2.319l-0.266,0.241
		c-1.666,1.667-2.609,3.889-2.609,6.207h0.845h1.401h0.845c0-1.497,0.604-2.947,1.691-4.034c1.063-1.063,2.512-1.667,4.082-1.667
		h14.975v-3.067H182.139L182.139,111.768z"/>
	<path style="fill:#00556F;" d="M194.047,126.309h-33.549v-5.773c0-4.855-3.961-8.792-8.84-8.792c-4.855,0-8.792,3.937-8.792,8.792
		c0,4.879,3.937,8.84,8.792,8.84h5.555c-0.193,0.58-0.507,1.159-0.797,1.449l-5.773,5.483l2.101,2.246l5.773-5.483
		c1.014-0.942,1.642-2.44,1.884-3.72h36.737v-12.608h-3.067v9.565H194.047z M151.633,126.309c-3.164,0-5.724-2.584-5.724-5.773
		c0-3.164,2.56-5.724,5.724-5.724c3.188,0,5.773,2.56,5.773,5.724v5.773H151.633z"/>
	<path style="fill:#00556F;" d="M138.011,127.589v-15.676h-3.068v15.676c0,0.797-0.507,2.053-1.063,2.584l-6.208,6.207l2.15,2.174
		l6.183-6.183C137.165,131.26,138.011,129.231,138.011,127.589"/>
	<path style="fill:#00556F;" d="M44.73,109.57c1.691,0,3.092-1.377,3.092-3.092c0-1.691-1.377-3.092-3.092-3.092
		c-1.691,0-3.092,1.377-3.092,3.092C41.663,108.17,43.04,109.57,44.73,109.57"/>
	<polygon style="fill:#00556F;" points="55.334,157.901 53.812,157.901 50.672,161.428 50.672,157.901 49.537,157.901 
		49.537,166.186 50.672,166.186 50.672,162.708 53.885,166.186 55.43,166.186 51.59,162.08 	"/>
	<polygon style="fill:#00556F;" points="61.662,161.452 58.909,161.452 58.909,157.901 57.773,157.901 57.773,166.186 
		58.909,166.186 58.909,162.587 61.662,162.587 61.662,166.186 62.797,166.186 62.797,157.901 61.662,157.901 	"/>
	<path style="fill:#00556F;" d="M69.971,157.805c-1.135,0-2.125,0.411-2.947,1.232c-0.797,0.821-1.208,1.836-1.208,2.995
		s0.411,2.174,1.208,2.995c0.797,0.821,1.787,1.232,2.947,1.232c1.135,0,2.125-0.411,2.947-1.232
		c0.797-0.821,1.208-1.836,1.208-2.995c0-1.159-0.411-2.174-1.208-2.995C72.096,158.215,71.106,157.805,69.971,157.805
		 M72.966,162.032c0,0.845-0.29,1.57-0.87,2.174c-0.58,0.604-1.304,0.894-2.125,0.894c-0.821,0-1.522-0.29-2.125-0.894
		c-0.58-0.604-0.894-1.328-0.894-2.174c0-0.845,0.29-1.57,0.894-2.174c0.58-0.604,1.304-0.894,2.125-0.894
		c0.821,0,1.546,0.29,2.125,0.894C72.676,160.462,72.966,161.186,72.966,162.032"/>
	<path style="fill:#00556F;" d="M81.492,161.863c0.386-0.411,0.58-0.99,0.556-1.739c-0.024-0.604-0.217-1.111-0.556-1.522
		c-0.411-0.483-0.966-0.725-1.642-0.725h-2.705v8.285h1.135v-3.623h0.362l2.488,3.551l0.048,0.048h1.401l-2.56-3.647
		C80.647,162.442,81.154,162.225,81.492,161.863 M80.912,160.196c0.024,0.411-0.072,0.7-0.241,0.894
		c-0.241,0.266-0.821,0.387-1.715,0.387H78.28v-2.44h1.57c0.338,0,0.604,0.121,0.797,0.362
		C80.816,159.616,80.888,159.882,80.912,160.196"/>
	<polygon style="fill:#00556F;" points="85.211,166.186 86.347,166.186 86.347,162.611 90.26,162.611 90.26,161.452 86.347,161.452 
		86.347,159.037 90.26,159.037 90.26,157.901 85.211,157.901 	"/>
	<path style="fill:#00556F;" d="M96.105,157.901h-0.942l-3.043,8.285h1.232l0.99-2.85h2.512l0.99,2.85H99.1l-3.019-8.212
		L96.105,157.901z M96.515,162.176h-1.739l0.869-2.44L96.515,162.176z"/>
	<polygon style="fill:#00556F;" points="107.408,157.901 105.863,157.901 102.747,161.428 102.747,157.901 101.612,157.901 
		101.612,166.186 102.747,166.186 102.747,162.708 105.959,166.186 107.505,166.186 103.641,162.08 	"/>
	<polygon style="fill:#00556F;" points="115.645,157.901 114.099,157.901 110.959,161.428 110.959,157.901 109.824,157.901 
		109.824,166.186 110.959,166.186 110.959,162.708 114.171,166.186 115.717,166.186 111.877,162.08 	"/>
	<path style="fill:#00556F;" d="M121.297,157.901h-0.942l-3.043,8.285h1.232l1.014-2.85h2.512l0.99,2.85h1.256l-3.019-8.212
		L121.297,157.901L121.297,157.901z M121.683,162.176h-1.739l0.869-2.44L121.683,162.176z"/>
	<polygon style="fill:#00556F;" points="130.934,163.674 130.765,163.384 130.354,162.539 127.794,157.901 126.779,157.901 
		126.779,166.186 127.939,166.186 127.939,160.365 128.156,160.727 128.519,161.524 131.079,166.186 132.093,166.186 
		132.093,157.901 130.934,157.901 	"/>
	<path style="fill:#00556F;" d="M145.498,161.597c0.411-0.411,0.628-0.918,0.628-1.522s-0.217-1.111-0.628-1.546
		c-0.435-0.435-0.942-0.628-1.546-0.628h-2.705v8.285h2.802c0.7,0,1.304-0.241,1.787-0.749c0.483-0.483,0.749-1.087,0.749-1.787
		c0-0.435-0.121-0.87-0.314-1.256C146.03,162.08,145.788,161.814,145.498,161.597 M142.358,162.249h1.642
		c0.387,0,0.7,0.145,0.99,0.411c0.266,0.266,0.411,0.604,0.411,0.99s-0.145,0.7-0.411,0.99c-0.266,0.266-0.604,0.411-0.99,0.411
		h-1.642V162.249z M144.653,160.8c-0.193,0.217-0.435,0.314-0.749,0.314h-1.57v-2.077h1.57c0.29,0,0.532,0.097,0.749,0.314
		c0.217,0.217,0.314,0.459,0.314,0.749C144.967,160.365,144.87,160.606,144.653,160.8"/>
	<polygon style="fill:#00556F;" points="149.411,166.186 154.435,166.186 154.435,165.051 150.546,165.051 150.546,162.587 
		154.435,162.587 154.435,161.452 150.546,161.452 150.546,159.037 154.435,159.037 154.435,157.901 149.411,157.901 	"/>
	<path style="fill:#00556F;" d="M161.222,157.95h-0.942l-3.019,8.285h1.232l0.99-2.85h2.512l0.99,2.85h1.256l-3.019-8.212V157.95z
		 M161.609,162.249h-1.739l0.87-2.44L161.609,162.249z"/>
	<path style="fill:#00556F;" d="M170.038,158.964c0.483,0,0.966,0.121,1.401,0.362c0.435,0.241,0.797,0.58,1.087,0.99l0.072,0.121
		l0.966-0.652l-0.072-0.097c-0.387-0.58-0.894-1.039-1.497-1.377c-0.604-0.338-1.256-0.483-1.956-0.483
		c-1.135,0-2.126,0.411-2.947,1.232c-0.797,0.821-1.208,1.836-1.208,2.995c0,1.159,0.411,2.174,1.208,2.995
		c0.821,0.821,1.812,1.232,2.947,1.232c0.7,0,1.352-0.169,1.956-0.483c0.604-0.338,1.111-0.797,1.497-1.377l0.072-0.097
		l-0.966-0.652l-0.072,0.121c-0.29,0.435-0.652,0.749-1.087,0.99c-0.435,0.241-0.918,0.362-1.401,0.362
		c-0.821,0-1.546-0.29-2.126-0.894c-0.58-0.604-0.894-1.328-0.894-2.174s0.29-1.57,0.894-2.174
		C168.517,159.278,169.217,158.964,170.038,158.964"/>
	<polygon style="fill:#00556F;" points="180.279,161.452 177.526,161.452 177.526,157.901 176.39,157.901 176.39,166.186 
		177.526,166.186 177.526,162.587 180.279,162.587 180.279,166.186 181.415,166.186 181.415,157.901 180.279,157.901 	"/>
	<path style="fill:#00556F;" d="M91.105,71.915c-0.193,0-0.362-0.024-0.507-0.073l-0.024,0.073l0.024-0.073
		c-0.121-0.048-0.241-0.121-0.314-0.193c-0.073-0.073-0.145-0.169-0.193-0.29c-0.048-0.097-0.072-0.217-0.072-0.314
		c0-0.266,0.072-0.459,0.241-0.604c0.169-0.145,0.386-0.217,0.652-0.217c0.121,0,0.241,0,0.386,0.024
		c0.121,0.024,0.193,0.048,0.266,0.048l0.314,0.097l0.217-0.966l-0.266-0.097c-0.121-0.048-0.29-0.073-0.459-0.097
		c-0.169-0.024-0.314-0.024-0.435-0.024c-0.314,0-0.58,0.048-0.821,0.145c-0.241,0.097-0.459,0.217-0.628,0.386
		s-0.314,0.362-0.386,0.58c-0.097,0.217-0.121,0.459-0.121,0.725c0,0.217,0.048,0.459,0.145,0.725
		c0.024,0.048,0.048,0.121,0.073,0.169h-0.628v1.039h3.695v-1.039h-1.159L91.105,71.915L91.105,71.915z"/>
	<path style="fill:#00556F;" d="M120.5,68.606c-0.217-0.242-0.507-0.435-0.845-0.556c-0.676-0.266-1.594-0.266-2.633,0
		c-0.386,0.097-0.797,0.241-1.208,0.435v-3.768h-1.159v7.149h-14.25c-0.072,0-0.145,0-0.241,0c-0.073,0-0.169,0-0.241-0.024
		c-0.097,0-0.169-0.024-0.266-0.048c-0.073,0-0.121-0.024-0.193-0.048l-1.691-0.507l-0.314,1.063l1.497,0.483
		c0.411,0.145,0.7,0.29,0.845,0.411c0.121,0.121,0.169,0.217,0.169,0.314c0,0.266-0.169,0.459-0.531,0.628
		c-0.435,0.193-1.087,0.29-1.908,0.29c-0.411,0-0.773-0.048-1.087-0.097c-0.314-0.073-0.58-0.169-0.797-0.314
		c-0.193-0.121-0.362-0.314-0.483-0.507c-0.121-0.217-0.169-0.483-0.169-0.773c0-0.217,0.024-0.483,0.097-0.749
		c0.072-0.29,0.193-0.604,0.338-0.966l0.121-0.29l-1.063-0.386l-0.121,0.217c-0.193,0.386-0.338,0.773-0.459,1.184
		c-0.097,0.411-0.145,0.749-0.145,1.039c0,0.483,0.097,0.918,0.29,1.28c0.193,0.362,0.459,0.676,0.821,0.894
		c0.338,0.217,0.749,0.386,1.184,0.483c0.459,0.097,0.942,0.145,1.473,0.145c0.628,0,1.159-0.048,1.618-0.169
		c0.459-0.121,0.821-0.266,1.111-0.459c0.29-0.193,0.507-0.435,0.628-0.676c0.145-0.241,0.193-0.507,0.193-0.773
		c0-0.169-0.048-0.338-0.145-0.507h18.067c0.362,0,0.676-0.048,0.942-0.169c0.266-0.121,0.483-0.29,0.652-0.483
		c0.169-0.217,0.29-0.459,0.362-0.725c0.073-0.266,0.097-0.531,0.097-0.845v-0.217c0-0.386-0.048-0.749-0.169-1.063
		C120.886,69.138,120.717,68.848,120.5,68.606 M120.017,70.611c0,0.217-0.024,0.435-0.048,0.604
		c-0.024,0.145-0.073,0.266-0.145,0.362c-0.072,0.073-0.169,0.145-0.314,0.193c-0.169,0.048-0.362,0.073-0.652,0.073h-3.067v-2.174
		c0.362-0.193,0.773-0.362,1.208-0.483c0.483-0.145,0.966-0.217,1.377-0.217c0.556,0,0.966,0.121,1.232,0.386
		C119.896,69.645,120.017,70.055,120.017,70.611"/>
	<path style="fill:#00556F;" d="M140.064,66.143c-0.169,0-0.314,0.073-0.435,0.169c-0.121,0.121-0.193,0.266-0.193,0.435
		s0.072,0.314,0.193,0.435c0.121,0.121,0.266,0.193,0.435,0.193s0.314-0.073,0.435-0.193c0.121-0.121,0.193-0.266,0.193-0.435
		c0-0.169-0.072-0.314-0.169-0.435C140.378,66.215,140.233,66.143,140.064,66.143L140.064,66.143z"/>
	<path style="fill:#00556F;" d="M139.267,66.118c0.169,0,0.314-0.073,0.435-0.193c0.121-0.121,0.193-0.266,0.193-0.435
		s-0.072-0.314-0.169-0.435c-0.121-0.121-0.266-0.169-0.435-0.169l0,0c-0.169,0-0.314,0.073-0.435,0.169
		c-0.121,0.121-0.193,0.266-0.193,0.435c0,0.169,0.073,0.314,0.193,0.435C138.953,66.046,139.098,66.118,139.267,66.118"/>
	<path style="fill:#00556F;" d="M138.494,67.374c0.169,0,0.314-0.073,0.435-0.169c0.121-0.121,0.193-0.266,0.193-0.435
		s-0.073-0.314-0.169-0.435c-0.121-0.121-0.266-0.169-0.435-0.169l0,0c-0.169,0-0.314,0.073-0.435,0.169
		c-0.121,0.121-0.169,0.266-0.169,0.435s0.072,0.314,0.169,0.435C138.18,67.302,138.325,67.374,138.494,67.374"/>
	<path style="fill:#00556F;" d="M141.296,68.896v1.956c0,0.241-0.024,0.435-0.073,0.58c-0.024,0.121-0.072,0.217-0.145,0.266
		c-0.048,0.048-0.121,0.097-0.193,0.121c-0.097,0.024-0.241,0.048-0.386,0.048c-0.241,0-0.411-0.073-0.556-0.193
		c-0.145-0.121-0.193-0.29-0.193-0.507v-2.27h-1.135v1.956c0,0.241-0.024,0.435-0.048,0.58c-0.024,0.121-0.072,0.193-0.145,0.266
		c-0.048,0.048-0.121,0.097-0.217,0.121c-0.097,0.024-0.242,0.048-0.387,0.048c-0.242,0-0.411-0.073-0.556-0.193
		c-0.145-0.121-0.193-0.29-0.193-0.507v-2.27h-1.135v1.956c0,0.266-0.024,0.459-0.073,0.604c-0.024,0.121-0.097,0.193-0.145,0.241
		c-0.072,0.048-0.169,0.097-0.29,0.121c-0.145,0.024-0.314,0.024-0.507,0.024h-10.797c-0.193,0-0.338-0.024-0.435-0.048
		c-0.097-0.024-0.169-0.073-0.193-0.121c-0.048-0.072-0.097-0.145-0.121-0.266c-0.024-0.121-0.048-0.29-0.048-0.459v-6.231h-1.159
		v6.352c0,0.338,0.048,0.628,0.121,0.87c0.097,0.266,0.242,0.459,0.435,0.604s0.411,0.266,0.676,0.314
		c0.241,0.048,0.531,0.097,0.845,0.097h10.797c0.435,0,0.797-0.073,1.063-0.193c0.169-0.072,0.29-0.169,0.411-0.29
		c0.121,0.121,0.266,0.217,0.435,0.29c0.266,0.121,0.58,0.193,0.918,0.193c0.58,0,1.014-0.169,1.328-0.483
		c0.121,0.121,0.266,0.217,0.411,0.29c0.266,0.121,0.58,0.193,0.918,0.193c0.58,0,1.039-0.169,1.377-0.507
		c0.314-0.338,0.483-0.821,0.483-1.425v-2.125H141.296z"/>
</g>
</svg>
