<?xml version="1.0" encoding="iso-8859-1"?>
<!-- Generator: Adobe Illustrator 21.1.0, SVG Export Plug-In . SVG Version: 6.00 Build 0)  -->
<svg version="1.1" id="Layer_1" xmlns="http://www.w3.org/2000/svg" xmlns:xlink="http://www.w3.org/1999/xlink" x="0px" y="0px"
	 viewBox="0 0 231 231" style="enable-background:new 0 0 231 231;" xml:space="preserve">
<g>
	<path style="fill:#E30613;" d="M69.418,94.023l8.638,33.487c0.224,0.886-0.313,1.799-1.191,2.023l-33.487,8.638
		c-0.886,0.224-1.799-0.313-2.023-1.191l-8.638-33.487c-0.224-0.886,0.313-1.799,1.191-2.023l33.487-8.638
		C68.281,92.6,69.185,93.137,69.418,94.023z"/>
	<path style="fill:#FFFFFF;" d="M36.02,116.401l5.72-7.859c0,0,3.151-4.923,6.275-6.248c2.166-0.913,5.595-0.555,6.105,2.802
		c0.51,3.357-0.779,12.29-0.779,12.29s-0.6,6.373,1.737,2.471c1.969-3.285,7.877-11.404,9.694-13.874
		c0.492-0.671,1.092-1.531,1.835-1.897c0.967-0.483,2.175-1.119,2.157,2.318c-0.027,3.795-1.146,11.798-0.519,13.257
		c0.618,1.459,2.936,4.243,7.716,0.107c0.483-0.421,0.994,3.715,0.994,3.715l-0.224,0.161c-2.381,1.754-5.46,2.274-8.244,1.307
		c-2.095-0.734-3.965-2.283-3.992-5.505c-0.036-4.78,0.331-5.881,0.412-6.158c0.304-1.146-0.054-1.665-1.754,0.984
		c-2.578,4.01-6.239,8.423-6.239,8.423s-4.01,4.314-6.284,0.483c-0.546-0.922-0.797-1.987-0.743-3.061l0.671-13.686
		c0,0-0.895-2.9-3.455,0.868c-2.56,3.768-3.357,5.559-9.551,15.172L36.02,116.401z"/>
	<g>
		<path style="fill:#E30613;" d="M91.384,123.876l-0.242-2.086h-0.098c-0.922,1.298-2.703,2.462-5.057,2.462
			c-3.348,0-5.057-2.363-5.057-4.753c0-4.001,3.554-6.185,9.945-6.158V113c0-1.37-0.376-3.831-3.76-3.831
			c-1.54,0-3.142,0.483-4.306,1.235l-0.68-1.987c1.37-0.886,3.348-1.468,5.433-1.468c5.057,0,6.293,3.455,6.293,6.767v6.185
			c0,1.432,0.072,2.838,0.269,3.966h-2.739V123.876z M90.936,115.426c-3.285-0.072-7.009,0.51-7.009,3.724
			c0,1.951,1.298,2.873,2.838,2.873c2.157,0,3.527-1.37,4.001-2.775c0.098-0.304,0.17-0.653,0.17-0.958V115.426L90.936,115.426z"/>
		<path style="fill:#E30613;" d="M98.294,120.796c0.886,0.582,2.462,1.199,3.965,1.199c2.193,0,3.214-1.092,3.214-2.462
			c0-1.432-0.85-2.22-3.079-3.043c-2.972-1.056-4.377-2.703-4.377-4.682c0-2.667,2.157-4.852,5.711-4.852
			c1.674,0,3.142,0.483,4.064,1.02l-0.752,2.193c-0.653-0.412-1.844-0.958-3.384-0.958c-1.772,0-2.775,1.02-2.775,2.256
			c0,1.37,0.994,1.987,3.142,2.802c2.873,1.092,4.341,2.533,4.341,4.995c0,2.909-2.256,4.959-6.185,4.959
			c-1.808,0-3.491-0.448-4.646-1.128L98.294,120.796z"/>
		<path style="fill:#E30613;" d="M115.866,102.572v4.753h4.306v2.291h-4.306v8.925c0,2.05,0.582,3.213,2.256,3.213
			c0.788,0,1.37-0.098,1.745-0.206l0.134,2.256c-0.582,0.242-1.504,0.412-2.667,0.412c-1.405,0-2.533-0.448-3.249-1.262
			c-0.85-0.886-1.164-2.363-1.164-4.306v-9.032h-2.56v-2.291h2.56v-3.966L115.866,102.572z"/>
		<path style="fill:#E30613;" d="M125.032,116.151c0.072,4.064,2.667,5.747,5.675,5.747c2.157,0,3.455-0.376,4.583-0.851l0.51,2.157
			c-1.056,0.483-2.873,1.02-5.505,1.02c-5.093,0-8.137-3.348-8.137-8.342c0-4.995,2.945-8.925,7.761-8.925
			c5.398,0,6.839,4.753,6.839,7.797c0,0.618-0.072,1.092-0.098,1.406L125.032,116.151L125.032,116.151z M133.849,113.994
			c0.036-1.916-0.788-4.887-4.171-4.887c-3.043,0-4.377,2.802-4.619,4.887H133.849z"/>
		<path style="fill:#E30613;" d="M140.481,112.49c0-1.951-0.036-3.625-0.134-5.165h2.632l0.098,3.249h0.134
			c0.752-2.22,2.56-3.625,4.583-3.625c0.34,0,0.582,0.036,0.85,0.098v2.838c-0.304-0.072-0.618-0.098-1.02-0.098
			c-2.121,0-3.625,1.602-4.037,3.867c-0.072,0.412-0.134,0.886-0.134,1.405v8.826h-2.972V112.49z"/>
		<path style="fill:#A0A0A0;" d="M154.777,114.916h0.072c0.412-0.582,0.994-1.298,1.468-1.88l4.852-5.711h3.625l-6.391,6.803
			l7.286,9.748h-3.661l-5.711-7.94l-1.54,1.71v6.221h-2.981V99.6h2.972L154.777,114.916L154.777,114.916z"/>
		<path style="fill:#A0A0A0;" d="M169.51,116.151c0.072,4.064,2.667,5.747,5.675,5.747c2.157,0,3.455-0.376,4.583-0.851l0.51,2.157
			c-1.056,0.483-2.873,1.02-5.505,1.02c-5.093,0-8.137-3.348-8.137-8.342c0-4.995,2.945-8.925,7.761-8.925
			c5.398,0,6.839,4.753,6.839,7.797c0,0.618-0.072,1.092-0.099,1.406L169.51,116.151L169.51,116.151z M178.336,113.994
			c0.036-1.916-0.788-4.887-4.171-4.887c-3.043,0-4.377,2.802-4.619,4.887H178.336z"/>
		<path style="fill:#A0A0A0;" d="M186.061,107.325l3.625,9.775c0.376,1.092,0.788,2.39,1.056,3.384h0.072
			c0.304-0.994,0.653-2.256,1.056-3.455l3.285-9.712h3.178l-4.511,11.798c-2.157,5.675-3.625,8.584-5.675,10.365
			c-1.468,1.298-2.945,1.808-3.697,1.951l-0.752-2.533c0.752-0.242,1.745-0.716,2.632-1.468c0.824-0.653,1.844-1.808,2.533-3.348
			c0.134-0.304,0.242-0.546,0.242-0.716c0-0.17-0.072-0.412-0.206-0.788l-6.123-15.253H186.061L186.061,107.325z"/>
	</g>
</g>
</svg>
