<?xml version="1.0" encoding="iso-8859-1"?>
<!-- Generator: Adobe Illustrator 21.1.0, SVG Export Plug-In . SVG Version: 6.00 Build 0)  -->
<svg version="1.1" id="Layer_1" xmlns="http://www.w3.org/2000/svg" xmlns:xlink="http://www.w3.org/1999/xlink" x="0px" y="0px"
	 viewBox="0 0 231 231" style="enable-background:new 0 0 231 231;" xml:space="preserve">
<g>
	<g>
		<g>
			<path style="fill:#904799;" d="M48.812,143.743h11.802h7.518h60.569h8.003h11.257h5.861h11.52c0,3.112,1.112,5.942,2.89,8.225
				l21.503-2.041v-25.06c-2.425-3.436-6.427-5.699-10.954-5.699c-7.417,0-13.419,6.022-13.419,13.419c0,0.04,0,1.576,0,3.476h-11.52
				v-30.84h-8.124v30.82h-8.993v-16.532H128.6v16.532h-21.968c0-1.374,0-3.072,0-3.375c0.061-7.417-5.881-13.48-13.298-13.561
				c-3.698-0.04-7.073,1.435-9.539,3.84l5.295,5.396c1.071-1.051,2.546-1.698,4.163-1.677c3.254,0.04,5.861,2.688,5.82,5.942
				c0,0.303-0.02,2.041-0.04,3.436H68.113c0-1.859,0-3.355,0-3.476c0-7.417-6.002-13.419-13.419-13.419s-13.419,6.022-13.419,13.419
				c0,0.323-0.02,10.853,0,11.156h7.538V143.743z M178.761,126.666c3.254,0,5.901,2.647,5.901,5.901c0,0.101,0,11.055,0,11.156
				c0,3.254-2.647,5.901-5.901,5.901c-3.254,0-5.901-2.647-5.901-5.901c0-0.101,0-11.055,0-11.156
				C172.86,129.313,175.507,126.666,178.761,126.666z M48.812,132.567c0-3.254,2.647-5.901,5.901-5.901s5.901,2.647,5.901,5.901
				c0,0.121,0,1.617,0.02,3.476H48.792C48.792,134.184,48.812,132.688,48.812,132.567z"/>
			<polygon style="fill:#904799;" points="136.684,154.96 136.684,149.078 113.12,149.078 113.12,157.162 113.665,157.162 			"/>
		</g>
		<g>
			<rect x="123.75" y="73.858" style="fill:#904799;" width="8.165" height="31.366"/>
			<polygon style="fill:#904799;" points="153.822,86.893 145.071,86.893 145.071,73.898 136.907,73.898 136.907,105.264 
				145.071,105.264 145.071,93.684 153.822,93.684 153.822,105.264 161.987,105.264 161.987,73.898 153.822,73.898 			"/>
			<polygon style="fill:#904799;" points="62.696,79.294 57.098,88.328 52.167,80.305 41.315,81.335 41.315,105.223 41.315,113.307 
				64.859,113.307 64.859,105.223 49.358,105.223 49.358,91.198 55.219,100.009 58.998,100.009 64.859,91.218 64.859,105.223 
				72.943,105.223 72.943,78.324 			"/>
			<polygon style="fill:#904799;" points="85.736,77.091 77.571,77.88 77.571,105.223 95.739,105.223 95.739,97.968 85.736,97.968 
							"/>
			<polygon style="fill:#904799;" points="98.933,75.838 98.933,105.223 119.627,105.223 119.627,97.968 107.097,97.968 
				107.097,93.684 116.05,93.684 116.05,86.913 107.097,86.913 107.097,81.154 119.627,81.154 119.627,73.898 119.324,73.898 			"/>
			<path style="fill:#904799;" d="M189.715,93.643l-6.366-19.806h-8.609l-10.145,31.467h8.872l1.536-5.517h8.084l1.536,5.517h5.113
				V93.643H189.715z M177.144,92.026l1.9-6.811l1.859,6.811H177.144z"/>
		</g>
	</g>
	<g>
		<g>
			
				<linearGradient id="SVGID_1_" gradientUnits="userSpaceOnUse" x1="32.146" y1="218.1475" x2="147.5766" y2="49.98" gradientTransform="matrix(1 0 0 -1 0 231)">
				<stop  offset="0" style="stop-color:#2F1A45;stop-opacity:0"/>
				<stop  offset="1" style="stop-color:#2F1A45"/>
			</linearGradient>
			<path style="fill:url(#SVGID_1_);" d="M48.812,143.743h11.802h7.518h60.569h8.003h11.257h5.861h11.52
				c0,3.112,1.112,5.942,2.89,8.225l21.503-2.041v-25.06c-2.425-3.436-6.427-5.699-10.954-5.699
				c-7.417,0-13.419,6.022-13.419,13.419c0,0.04,0,1.576,0,3.476h-11.52v-30.84h-8.124v30.82h-8.993v-16.532H128.6v16.532h-21.968
				c0-1.374,0-3.072,0-3.375c0.061-7.417-5.881-13.48-13.298-13.561c-3.698-0.04-7.073,1.435-9.539,3.84l5.295,5.396
				c1.071-1.051,2.546-1.698,4.163-1.677c3.254,0.04,5.861,2.688,5.82,5.942c0,0.303-0.02,2.041-0.04,3.436H68.113
				c0-1.859,0-3.355,0-3.476c0-7.417-6.002-13.419-13.419-13.419s-13.419,6.022-13.419,13.419c0,0.323-0.02,10.853,0,11.156h7.538
				V143.743z M178.761,126.666c3.254,0,5.901,2.647,5.901,5.901c0,0.101,0,11.055,0,11.156c0,3.254-2.647,5.901-5.901,5.901
				c-3.254,0-5.901-2.647-5.901-5.901c0-0.101,0-11.055,0-11.156C172.86,129.313,175.507,126.666,178.761,126.666z M48.812,132.567
				c0-3.254,2.647-5.901,5.901-5.901s5.901,2.647,5.901,5.901c0,0.121,0,1.617,0.02,3.476H48.792
				C48.792,134.184,48.812,132.688,48.812,132.567z"/>
			
				<linearGradient id="SVGID_2_" gradientUnits="userSpaceOnUse" x1="29.7505" y1="216.5031" x2="145.1814" y2="48.3351" gradientTransform="matrix(1 0 0 -1 0 231)">
				<stop  offset="0" style="stop-color:#2F1A45;stop-opacity:0"/>
				<stop  offset="1" style="stop-color:#2F1A45"/>
			</linearGradient>
			<polygon style="fill:url(#SVGID_2_);" points="136.684,154.96 136.684,149.078 113.12,149.078 113.12,157.162 113.665,157.162 
							"/>
		</g>
		<g>
			
				<linearGradient id="SVGID_3_" gradientUnits="userSpaceOnUse" x1="61.407" y1="238.2327" x2="176.8376" y2="70.0651" gradientTransform="matrix(1 0 0 -1 0 231)">
				<stop  offset="0" style="stop-color:#2F1A45;stop-opacity:0"/>
				<stop  offset="1" style="stop-color:#2F1A45"/>
			</linearGradient>
			<rect x="123.75" y="73.858" style="fill:url(#SVGID_3_);" width="8.165" height="31.366"/>
			
				<linearGradient id="SVGID_4_" gradientUnits="userSpaceOnUse" x1="76.0804" y1="248.3043" x2="191.5109" y2="80.1369" gradientTransform="matrix(1 0 0 -1 0 231)">
				<stop  offset="0" style="stop-color:#2F1A45;stop-opacity:0"/>
				<stop  offset="1" style="stop-color:#2F1A45"/>
			</linearGradient>
			<polygon style="fill:url(#SVGID_4_);" points="153.822,86.893 145.071,86.893 145.071,73.898 136.907,73.898 136.907,105.264 
				145.071,105.264 145.071,93.684 153.822,93.684 153.822,105.264 161.987,105.264 161.987,73.898 153.822,73.898 			"/>
			
				<linearGradient id="SVGID_5_" gradientUnits="userSpaceOnUse" x1="10.419" y1="203.2343" x2="125.8495" y2="35.0668" gradientTransform="matrix(1 0 0 -1 0 231)">
				<stop  offset="0" style="stop-color:#2F1A45;stop-opacity:0"/>
				<stop  offset="1" style="stop-color:#2F1A45"/>
			</linearGradient>
			<polygon style="fill:url(#SVGID_5_);" points="62.696,79.294 57.098,88.328 52.167,80.305 41.315,81.335 41.315,105.223 
				41.315,113.307 64.859,113.307 64.859,105.223 49.358,105.223 49.358,91.198 55.219,100.009 58.998,100.009 64.859,91.218 
				64.859,105.223 72.943,105.223 72.943,78.324 			"/>
			
				<linearGradient id="SVGID_6_" gradientUnits="userSpaceOnUse" x1="29.2629" y1="216.1685" x2="144.6934" y2="48.0012" gradientTransform="matrix(1 0 0 -1 0 231)">
				<stop  offset="0" style="stop-color:#2F1A45;stop-opacity:0"/>
				<stop  offset="1" style="stop-color:#2F1A45"/>
			</linearGradient>
			<polygon style="fill:url(#SVGID_6_);" points="85.736,77.091 77.571,77.88 77.571,105.223 95.739,105.223 95.739,97.968 
				85.736,97.968 			"/>
			
				<linearGradient id="SVGID_7_" gradientUnits="userSpaceOnUse" x1="48.7869" y1="229.5697" x2="164.2174" y2="61.4023" gradientTransform="matrix(1 0 0 -1 0 231)">
				<stop  offset="0" style="stop-color:#2F1A45;stop-opacity:0"/>
				<stop  offset="1" style="stop-color:#2F1A45"/>
			</linearGradient>
			<polygon style="fill:url(#SVGID_7_);" points="98.933,75.838 98.933,105.223 119.627,105.223 119.627,97.968 107.097,97.968 
				107.097,93.684 116.05,93.684 116.05,86.913 107.097,86.913 107.097,81.154 119.627,81.154 119.627,73.898 119.324,73.898 			"/>
			
				<linearGradient id="SVGID_8_" gradientUnits="userSpaceOnUse" x1="92.7555" y1="259.75" x2="208.186" y2="91.5827" gradientTransform="matrix(1 0 0 -1 0 231)">
				<stop  offset="0" style="stop-color:#2F1A45;stop-opacity:0"/>
				<stop  offset="1" style="stop-color:#2F1A45"/>
			</linearGradient>
			<path style="fill:url(#SVGID_8_);" d="M189.715,93.643l-6.366-19.806h-8.609l-10.145,31.467h8.872l1.536-5.517h8.084l1.536,5.517
				h5.113V93.643H189.715z M177.144,92.026l1.9-6.811l1.859,6.811H177.144z"/>
		</g>
	</g>
</g>
</svg>
