<?xml version="1.0" encoding="iso-8859-1"?>
<!-- Generator: Adobe Illustrator 21.1.0, SVG Export Plug-In . SVG Version: 6.00 Build 0)  -->
<svg version="1.1" id="Layer_1" xmlns="http://www.w3.org/2000/svg" xmlns:xlink="http://www.w3.org/1999/xlink" x="0px" y="0px"
	 viewBox="0 0 231 231" style="enable-background:new 0 0 231 231;" xml:space="preserve">
<g>
	<path style="fill:#B966A5;" d="M73.791,140.677C73.791,140.677,73.815,140.677,73.791,140.677
		C73.815,140.677,73.791,140.677,73.791,140.677"/>
	<path style="fill:#B966A5;" d="M118.604,113.599c-0.016-1.113-0.072-2.25-0.168-3.363c-0.112-1.225-0.24-2.418-0.424-3.619
		c-0.24-1.505-0.536-3.01-0.945-4.476c-0.28-1.057-0.536-2.082-0.969-3.082c-0.633-1.489-1.377-2.826-3.099-3.05
		c-0.016-0.016-0.04-0.016-0.04-0.016c-1.265-0.152-2.154,0.52-1.649,1.858c0.424,1.097,0.873,2.154,1.265,3.251
		c1.545,4.331,2.306,9.416,2.306,12.89c0,1.393-0.016,2.802-0.224,4.163c0,0.096-0.016,0.168-0.04,0.24c0,0-0.016,0-0.016,0.016
		c-0.256,1.489-0.833,2.97-1.689,4.219c-0.208,0.296-0.424,0.576-0.673,0.833c-0.184,0.208-0.504,0.424-0.448,0.745
		c0.056,0.352,0.617,0.536,0.913,0.617c0.448,0.096,1.081-0.016,1.489-0.152c0.424-0.152,0.777-0.392,1.097-0.673
		c0.649-0.576,1.185-1.265,1.601-2.026c0.777-1.449,1.225-3.05,1.489-4.66c0.056-0.408,0.096-0.801,0.152-1.225
		C118.604,115.264,118.604,114.432,118.604,113.599"/>
	<path style="fill:#B966A5;" d="M31.717,118.259c-0.184,1.153-0.072,2.378,0.336,3.459c0.224,0.576,0.576,1.097,1.001,1.489
		c1.617,1.489,4.276,1.818,6.245,0.857c1.914-0.929,2.994-2.938,3.026-5.012c0.04-1.601-0.689-3.026-1.841-4.107
		c-0.368-0.336-0.833-0.633-1.281-0.833c-1.433-0.649-4.235-0.817-5.404,0.464c-0.128,0.168-0.24,0.336-0.312,0.52
		c-0.072,0.152-0.056,0.424-0.224,0.52c-0.208,0.152-0.392,0.256-0.424,0.296c-0.296,0.312-0.536,0.649-0.721,1.025
		C31.942,117.37,31.789,117.81,31.717,118.259 M36.009,116.882c1.153-1.393,2.898,2.026,3.05,3.675
		c0.112,1.281-1.113,0.28-1.545-0.112c-0.28-0.256-0.536-0.56-0.761-0.889c-0.224-0.336-0.392-0.673-0.504-1.025
		c-0.112-0.28-0.184-0.576-0.24-0.857C35.953,117.442,35.841,117.09,36.009,116.882"/>
	<path style="fill:#B966A5;" d="M60.997,116.882c0-0.224-0.016-0.448-0.04-0.632c-0.745-6.149-2.714-6.798-3.699-6.894
		c-0.817,0-2.322,0.56-3.235,2.45c0,0,2.602,2.674,3.267,5.476c0,0,0.256,0.817,0.24,1.954c0,0.224,0,0.424-0.016,0.649
		c-0.072,1.001-0.504,1.986-1.081,2.786c-0.761,1.081-2.042,2.098-4.123,2.786c-0.985,0.352-2.026,0.464-3.067,0.112
		c-1.321-0.464-2.49-1.561-2.882-2.914c-0.168-0.536-0.336-1.505-0.913-1.785c-0.056-0.016-0.112-0.04-0.168-0.056
		c-0.745-0.184-1.057,1.025-1.113,1.465c-0.48,3.883,2.282,7.038,6.317,6.517c0.561-0.072,1.081-0.184,1.601-0.352
		c0.561-0.24,1.097-0.48,1.601-0.745C54.144,127.49,60.973,123.295,60.997,116.882"/>
	<path style="fill:#B966A5;" d="M111.166,112.59c-0.04-0.705-0.48-1.137-0.48-1.137c0.408-2.154,0.576-4.348,0.408-6.517
		c-0.144-1.962-0.352-4.844-2.194-6.037c-0.504-0.312-1.153-0.52-1.729-0.617l-0.208-0.04c-0.016-0.016-0.056-0.016-0.112-0.016
		c-0.224,0-0.408,0.128-0.576,0.368c-0.48,0.673-0.817,2.394-0.817,4.364c-0.016,1.729,0.168,4.388,1.185,7.334
		c0.072,0.168,0.536,1.449,0.52,1.617c-0.096,1.001-0.392,1.954-0.721,2.898c-0.224,0.673-0.448,1.321-0.689,1.954
		c-0.184,0.464-0.368,0.913-0.576,1.353c0,0-0.096,0.224-0.296,0.576c-0.24,0.448-0.504,0.857-0.817,1.241
		c-0.464,0.616-1.081,1.153-1.801,1.505c-0.208,0.112-0.424,0.24-0.673,0.336c-2.098,1.057-3.491,0.408-4.027,0.04
		c-0.056-0.04-0.112-0.096-0.184-0.128c0-0.016-0.016-0.016-0.04-0.04c-0.04-0.04-0.056-0.04-0.056-0.04
		c-0.016-0.04-0.04-0.04-0.072-0.072c-0.04-0.056-0.072-0.072-0.112-0.112c-0.016-0.04-0.056-0.056-0.072-0.072
		c-0.04-0.04-0.056-0.072-0.072-0.112c-0.056-0.072-0.112-0.152-0.152-0.224c0,0,0-0.016-0.016-0.04
		c-0.208-0.296-0.368-0.632-0.464-0.969c-0.184-0.592-0.28-1.153-0.296-1.321c-0.072-0.464-0.184-0.929-0.336-1.377
		c-0.689-1.818-2.282-3.195-4.067-3.515c-0.424-0.072-0.833-0.112-1.241-0.112c-1.521,0-2.49,0.504-2.938,0.833
		c-1.185,0.873-1.505,2.01-1.505,2.01c-0.128,0.536-0.208,1.137-0.208,1.818v0.336c-0.04,0.721-0.184,1.297-0.448,1.673
		c0,0-0.072,0.128-0.224,0.256c0,0,0,0-0.016,0.016c-0.016,0.016-0.056,0.04-0.072,0.056c-0.016,0-0.04,0.016-0.056,0.04
		c-0.392,0.256-1.097,0.392-2.226-0.48c-0.056-0.016-0.096-0.056-0.128-0.096c-0.016-0.016-0.04-0.016-0.056-0.04
		c-1.545-1.321-1.761-3.923-1.761-3.923c-0.016-0.04-0.016-0.072-0.016-0.128c-0.056-0.689-0.096-1.505-0.128-2.49
		c-0.016-0.352,0.056-1.393,0.096-2.042c0.056-0.913-1.561-0.721-2.194-0.633l0,0c-1.041,0.152-1.081,0.801-1.041,1.057
		c0.224,1.297,0.592,2.618,0.801,3.251c-0.04,0.689-0.152,1.353-0.312,2.026c-0.224,0.873-0.576,1.841-1.353,2.378
		c-1.209,0.817-2.858,0.632-4.067-0.096c-0.408-0.24-0.801-0.561-1.113-0.929c-0.673-0.833-1.041-1.914-1.209-2.97
		c-0.184-1.097-0.208-2.21-0.184-3.323c0-0.256,0.016-0.536-0.016-0.777c0-0.152-0.016-0.336-0.112-0.464
		c-0.28-0.312-0.929-0.208-1.281-0.208c-0.352,0.016-0.761,0.04-1.081,0.24c-0.296,0.184-0.296,0.48-0.296,0.801
		c-0.016,0.52,0.408,2.25,0.408,2.25s0,0.208-0.016,0.561c-0.056,0.745-0.256,2.082-0.857,3.082
		c-0.184,0.312-0.408,0.616-0.673,0.833c-1.841,1.433-5.629,0.072-5.629,0.072c-0.128,0.24-0.28,0.48-0.408,0.745
		c-0.128,0.208-0.224,0.408-0.224,0.576c0.745,0.448,2.474,1.321,4.868,1.489c3.235,0.24,4.516-2.338,4.516-2.338
		c0.112,0.368,0.256,0.705,0.424,1.001c0.072,0.152,0.168,0.28,0.24,0.408v0.016c0.096,0.128,0.184,0.256,0.28,0.368
		c0.48,0.616,1.081,1.041,1.705,1.353c0.617,0.296,1.265,0.48,1.874,0.617c4.364,0.705,6.077-2.802,6.077-2.802
		s1.153,3.923,4.516,3.755c0.857-0.056,1.842-0.392,2.69-1.409c0.168-0.224,0.312-0.464,0.368-0.561c0-0.016,0-0.016,0-0.016
		l0.016-0.016c0.128-0.24,0.336-0.408,0.536-0.408c0.168,0,0.336,0.112,0.408,0.312c1.04,1.857,2.506,2.826,4.331,2.882h0.056
		c0.52,0,1.137-0.152,1.577-0.408c0.673-0.352,1.153-1.097,1.489-2.21c0-0.04,0-0.072,0.016-0.112c0,0,1.337,2.394,4.107,2.602
		c1.617,0.056,2.938-0.24,4.067-0.889c0.056-0.016,0.096-0.056,0.128-0.072c0.152-0.096,0.256-0.168,0.392-0.256
		c2.938-2.082,4.684-6.277,5.573-9.608C111.006,113.895,111.206,113.319,111.166,112.59 M93.391,119.78
		c-0.152,0.801-0.673,1.601-1.449,1.601c-0.072,0-0.152,0-0.224-0.016c-0.536-0.096-1.081-0.448-1.649-1.097
		c-0.504-0.561-0.817-1.225-0.873-1.858c-0.096-0.312-0.096-0.632-0.04-0.913c0.096-0.464,0.592-1.025,1.057-1.169
		c0.184-0.056,0.448-0.096,0.689-0.096c0.184,0,0.368,0.016,0.52,0.056C92.575,116.585,93.688,118.163,93.391,119.78"/>
	<path style="fill:#B966A5;" d="M81.133,106.689c0.336,1.601-0.368,1.745-1.241,1.93c-0.897,0.184-2.034-0.056-2.25-1.193
		c-0.192-0.873,0.705-1.801,1.577-1.986C80.093,105.256,80.853,105.384,81.133,106.689"/>
	<path style="fill:#B966A5;" d="M55.088,106.633c0,1.761-0.408,1.898-1.377,2.098c-0.969,0.208-2.21-0.072-2.474-1.321
		c-0.208-0.969,0.761-2.17,1.729-2.17C54.456,105.256,55.088,105.608,55.088,106.633"/>
	<path style="fill:#B966A5;" d="M68.908,106.906c0.168,0.945-0.448,1.601-1.377,1.761c-1.089,0.232-1.914-0.12-2.114-1.129
		c-0.168-0.801,0.424-1.505,1.521-1.729C67.867,105.648,68.739,105.889,68.908,106.906"/>
	<path style="fill:#B966A5;" d="M72.03,106.465c0.504,0.504,0.504,1.465-0.056,2.01c-0.56,0.561-1.545,0.873-2.21,0.152
		c-0.536-0.576-0.296-1.673,0.256-2.21C70.581,105.873,71.55,105.977,72.03,106.465"/>
	<path style="fill:#B966A5;" d="M91.013,125.601C91.013,125.601,91.029,125.601,91.013,125.601
		C91.029,125.601,91.013,125.601,91.013,125.601"/>
	<path style="fill:#B966A5;" d="M70.877,132.895c-0.016,0-0.04,0.016-0.056,0.016c-0.208,0.096-0.256,0.424-0.312,0.617
		c-0.128,0.48-0.536,0.857-1.001,1.025c-0.52,0.168-1.057,0-1.521-0.24c-0.208-0.128-0.424-0.256-0.576-0.448
		c0.408-0.632,0.705-1.505,0.705-2.674c0.016-1.858-0.969-2.322-1.409-2.322c-0.368,0.016-1.169,0.296-1.353,3.05
		c-0.016,1.113,0.536,1.801,0.536,1.801s-0.256,0.336-0.889,0.48c-0.48,0.128-1.097,0.096-1.097-0.536
		c0-0.408,0.112-1.001-0.224-1.353c-0.184-0.208-0.592-0.633-0.913-0.561c-0.352,0.072-0.256,0.536-0.28,0.801
		c-0.072,0.913-0.833,1.914-1.785,1.986c-0.368,0.016-0.721-0.152-0.873-0.48c-0.152-0.352-0.184-0.777-0.184-1.169
		c0.056-1.489,0.945-3.475,2.634-3.659c0.448-0.056,0.761,0.224,0.817,0.649c0.016,0.128,0.04,0.24,0.04,0.368
		c0.016,0.224-0.016,0.464,0.016,0.673c0.072,0.392,0.408,0.633,0.777,0.721c0.152,0.04,0.336,0.04,0.448-0.072
		c0.168-0.184,0.112-0.48,0.072-0.705c-0.056-0.296-0.152-0.576-0.28-0.833c-0.072-0.168-0.168-0.312-0.24-0.464
		c-0.312-0.536-0.761-1.001-1.393-1.137c-1.545-0.312-2.938,1.025-3.531,2.322c-0.184,0.448-0.352,0.929-0.448,1.393
		c-0.424,2.154,0.817,3.291,2.674,3.291c0.761,0,1.393-0.408,1.673-0.648c0.112-0.072,0.24-0.184,0.464,0.056
		c0.208,0.168,0.48,0.448,1.649,0.448c0.48,0,1.169-0.184,1.818-0.817c0.408,0.464,1.225,1.081,2.194,1.185
		c1.409,0.184,2.378-0.929,2.21-2.282C71.245,133.247,71.141,132.823,70.877,132.895 M66.626,132.806
		c-0.184-0.969,0.336-1.857,0.336-1.857C67.034,132.23,66.626,132.806,66.626,132.806"/>
	<path style="fill:#B966A5;" d="M118.524,134.088c-0.224-0.04-0.352,0.224-0.464,0.352c-0.016,0.016-0.04,0.04-0.056,0.056
		c-0.128,0.152-0.28,0.256-0.448,0.368c-0.368,0.224-0.857,0.296-1.265,0.096c-0.168-0.072-0.312-0.208-0.448-0.336
		c-0.28-0.296-0.48-0.688-0.649-1.057c-0.112-0.24-0.224-0.504-0.352-0.721c-0.649-1.265-1.433-0.184-1.433-0.184
		c0.833-2.658,0.184-3.643-0.312-4.123c-0.576-0.48-1.209-0.408-1.561,0.448c-0.576,1.281-0.184,3.755-0.152,4.179
		c0,0.016,0,0.04,0,0.056c-0.128,0.152-0.256,0.256-0.448,0.256c-0.208,0-0.336-0.152-0.392-0.312
		c-0.016-0.056-0.04-0.096-0.056-0.152c-0.04-0.128-0.04-0.28-0.04-0.408c0-0.24-0.016-0.464-0.072-0.632
		c0,0-0.112-0.392-0.52-0.705c-0.152-0.112-0.504-0.28-1.025-0.28c-0.152,0-0.28,0.016-0.424,0.04
		c-0.617,0.112-1.185,0.592-1.409,1.225c-0.056,0.168-0.112,0.352-0.128,0.536c-0.04,0.096-0.072,0.336-0.096,0.392
		c-0.016,0.072-0.056,0.152-0.096,0.24c0,0.016-0.016,0.016-0.016,0.056c-0.016,0.016-0.04,0.056-0.04,0.096
		c-0.016,0.016-0.04,0.056-0.056,0.072c-0.016,0.016-0.016,0.04-0.04,0.04c0,0.016-0.016,0.016-0.016,0.04
		c-0.016,0.016-0.04,0.04-0.04,0.04c-0.016,0-0.016,0.016-0.016,0.016c0,0.016-0.016,0.016-0.04,0.016
		c-0.096,0.096-0.208,0.152-0.312,0.168c-0.016,0-0.016,0-0.04,0c-0.24,0.04-0.52,0-0.833-0.072
		c-0.705-0.168-1.673-0.168-1.633-0.208c0.48-0.649,0.929-0.985,1.281-1.225c0.208-0.168,0.352-0.256,0.352-0.256l0,0
		c0.04-0.016,0.072-0.056,0.096-0.096c0.184-0.224,0.184-0.48,0.184-0.48l0,0c0-0.016,0-0.04,0-0.056
		c0-0.112-0.016-0.208-0.04-0.296c-0.04-0.112-0.096-0.28-0.184-0.352c-0.128-0.096-0.296,0.056-0.392,0.112
		c-0.168,0.112-0.352,0.24-0.536,0.336c-0.224,0.112-0.464,0.208-0.689,0.28c-0.128,0.04-0.256,0.072-0.392,0.128
		c-0.424,0.112-0.889,0.096-1.265-0.184c-0.056-0.04-0.112-0.096-0.152-0.152c-0.096-0.152-0.256-0.016-0.296,0.096
		c-0.016,0.04-0.016,0.072-0.016,0.112c-0.056,0.224-0.056,0.561-0.152,1.169c-0.096,0.833-0.352,0.945-0.592,1.001
		c-0.312,0.072-0.52-0.593-0.616-0.969c0,0,0,0,0-0.016c-0.072-0.256-0.256-1.633-1.081-1.841c-0.28-0.096-0.352-0.096-0.504-0.096
		c0,0-1.545-0.04-1.97,1.97c-0.056,0.296-0.04,0.576,0,0.833c-0.985-0.056-1.001-1.745-1.001-1.745
		c-0.016-0.04,0.072-0.28,0.096-0.312c0.016-0.128,0.056-0.24,0.072-0.368c0.368-0.072,0.673-0.152,0.913-0.208
		c0,0,0.705-0.184,1.081-0.368c0.096-0.04,0.184-0.128,0.224-0.24c0.016-0.04,0.04-0.096,0.04-0.128c0-0.032,0-0.096-0.04-0.112
		c-0.016-0.016-0.056,0-0.096,0c-0.168,0.04-0.801,0.208-1.97,0.256c0.04-0.28,0.072-0.536,0.096-0.833
		c0.016-0.336,0.056-0.761-0.128-1.057c-0.152-0.24-0.448-0.24-0.673-0.096c-0.368,0.28-0.424,0.857-0.464,1.281
		c-0.016,0.24-0.016,0.504-0.016,0.745c-0.296,0-0.617,0-0.969-0.016c-0.28-0.016-0.576-0.04-0.857-0.056
		c-0.208-0.016-0.464-0.04-0.617,0.128c-0.112,0.112-0.112,0.256-0.152,0.408c-0.016,0.152-0.056,0.312,0.04,0.448
		c0.112,0.152,0.52,0.128,0.745,0.128c0.689-0.016,1.297-0.072,1.841-0.152c-0.016,0.352-0.016,0.632-0.04,0.873
		c-0.184,1.673-1.393,1.633-1.393,1.633l0.016,0.016c-0.28-0.04-0.48-0.208-0.617-0.48c-0.24-0.673-0.536-1.561-1.097-1.673
		c-0.705-0.112-1.097,0.913-1.241,1.225c-0.128,0.312-0.24,0.208-0.24,0.208s-0.096-0.24-0.128-1.041
		c-0.04-0.801-0.296-1.081-1.185-1.169c-0.705-0.056-1.281,0.112-1.649,0.256c-0.016-0.016-0.04-0.016-0.056-0.04
		c-0.168-0.096-0.368-0.128-0.592-0.152l0,0h-0.016c-0.016,0-0.04-0.016-0.072-0.016h0.016c-1.321-0.112-2.546,0.504-2.994,0.761
		c-0.352-1.281-1.057-2.938-2.282-3.563c-1.649-0.833-3.099,0.408-3.755,1.874c-0.296,0.649-0.464,1.297-0.576,1.729l-0.24-1.057
		c-0.504-2.434-0.913-2.914-1.433-2.914c-0.096,0-0.168,0.016-0.256,0.016c-0.168,0.016-0.352,0.168-0.48,0.28
		c-1.001,0.913-1.097,2.49-1.081,3.755c0,0.392,0.016,0.777,0.056,1.169c0.04,0.424,0.096,0.857,0.152,1.265
		c0.072,0.52,0.184,1.057,0.336,1.561c0.096,0.368,0.184,0.721,0.336,1.081c0.224,0.52,0.48,0.985,1.081,1.057h0.016
		c0.448,0.056,0.761-0.184,0.576-0.648c-0.152-0.392-0.296-0.761-0.448-1.137c-0.857-2.378-0.689-5.332-0.592-5.941
		c0.016-0.168,0.096-0.296,0.208-0.296s0.24,0.208,0.368,0.761c0.576,2.658,1.761,4.908,2.618,4.908
		c0.312-0.04,0.52-0.128,0.576-0.312c0.096-0.24-0.112-0.536-0.24-0.704c0,0-0.184-1.041-0.128-2.154
		c0.016-0.256,0.04-0.52,0.072-0.777c0.096-0.705,0.296-1.393,0.745-1.954c0.256-0.336,0.649-0.592,1.097-0.504
		c0.368,0.072,0.705,0.336,0.945,0.632c0.256,0.336,0.448,0.721,0.592,1.113c0.096,0.224,0.168,0.464,0.24,0.689
		c0.112,0.312,0.224,0.673,0.256,1.001c0,0.056,0.016,0.152-0.016,0.208c-0.352,1.041-0.424,1.97-0.408,2.562
		c0,0.688,0.112,1.297,0.296,1.521c0.056,0.096,0.128,0.128,0.208,0.128h0.04l0.056-0.016c0.208-0.04,0.424-0.096,0.617-0.208
		c0.632-0.408,0.721-1.433,0.761-2.114c0.056-0.761,0-1.521-0.152-2.282c0.368-0.336,0.777-0.617,1.137-0.817
		c-0.24,0.352-0.368,0.801-0.368,1.185c0.016,0.721,0.392,1.433,1.057,1.745c0.689,0.336,1.617,0.224,2.194-0.296
		c0.152-0.152,0.28-0.336,0.352-0.52c0.152-0.368,0.184-0.801,0.112-1.209c-0.016-0.168-0.072-0.312-0.152-0.464
		c-0.056-0.128-0.152-0.256-0.24-0.352c-0.016-0.016-0.072-0.056-0.152-0.112c0.152-0.04,0.312-0.056,0.48-0.056
		c1.169,0.208,1.041,1.617,1.081,2.474c0.04,0.857,0.28,1.001,0.592,0.945c0.368-0.152,0.817-0.929,0.945-1.465
		c0.152-0.576,0.448-0.745,0.649-0.745c0.184,0,0.312,0,0.504,0.352l0,0c0,0,0.128,0.368,0.352,0.761
		c0.096,0.168,0.184,0.312,0.296,0.424c0.112,0.128,0.24,0.256,0.368,0.352c0.112,0.112,0.28,0.208,0.504,0.208
		c1.113,0.056,1.561-0.833,1.705-1.337c0.312,0.52,0.632,0.801,1.337,0.833c0.184,0.016,0.368-0.016,0.504-0.072
		c0.24,0.368,0.592,0.576,0.985,0.576c0.408,0,1.001-0.296,1.281-0.745c0.016-0.04,0.04-0.056,0.056-0.096
		c0,0,0.184-0.312,0.392-0.056c0.184,0.256,0.632,0.833,1.001,0.777c0.208-0.04,0.352-0.112,0.48-0.296
		c0.208-0.28,0.48-0.985,0.592-2.098c0-0.04,0.04-0.224,0.184-0.056c0.408,0.561,1.041,0.561,1.081,0.561
		c-0.256,0.208-0.617,0.48-1.001,0.873c-0.128,0.112-0.24,0.256-0.28,0.408c-0.016,0.128,0.016,0.256,0.056,0.368l0.112,0.184
		c0.072,0.112,0.224,0.096,0.352,0.056l0.04-0.016c0,0,0.336-0.224,1.041-0.224c0.184,0,0.352,0.016,0.52,0.04
		c0.24,0.016,0.48,0.04,0.705,0.056c0.256,0.016,0.52,0.04,0.777,0.016c0.336,0,0.688-0.016,1.001-0.168
		c0.072-0.04,0.168-0.096,0.24-0.152c0.184-0.152,0.312-0.368,0.392-0.576c0,0.016,0,0.016,0.016,0.04
		c0.112,0.392,0.28,0.648,0.52,0.777c0.152,0.096,0.368,0.152,0.561,0.152h0.016c0.649-0.016,1.153-0.352,1.521-1.001
		c0.04-0.072,0.072-0.112,0.152-0.112c0.08,0,0.152,0.056,0.184,0.152l0,0c0.04,0.056,0.072,0.128,0.096,0.184l0,0
		c0,0,0.152,0.184,0.168,0.208c0.128,0.152,0.312,0.256,0.504,0.312c0.056,0.016,0.112,0.04,0.168,0.04
		c0.208,0.04,0.424,0.04,0.633-0.016c0.096-0.016,0.168-0.056,0.24-0.112c0.056,0.592,0.168,1.137,0.424,1.185
		c0.632,0.04,1.025-1.137,1.057-1.353c0.016-0.224,0.28-0.889,0.632-0.889c0.777-0.056,0.633,0.929,1.545,1.914
		c0.296,0.312,0.632,0.617,1.057,0.721c0.112,0.04,0.24,0.056,0.368,0.04c0.424-0.016,0.817-0.184,1.153-0.464
		c0.152-0.128,0.28-0.256,0.392-0.424c0.152-0.184,0.256-0.408,0.312-0.648C118.692,134.368,118.732,134.12,118.524,134.088
		 M86.666,132.454c-0.016,0.112-0.056,0.208-0.096,0.296c-0.04,0.128-0.112,0.24-0.184,0.352c-0.072,0.112-0.168,0.224-0.256,0.312
		c-0.152,0.128-0.576,0.48-0.536,0.04c0.056-0.576,0.673-1.761,1.057-1.281C86.706,132.246,86.666,132.358,86.666,132.454
		 M99.132,132.879c-0.056,0.673-0.745,1.057-1.001,1.057c-0.312-0.04-0.576-0.208-0.504-0.913c0.128-0.913,0.889-0.913,0.889-0.913
		C98.892,132.134,99.172,132.454,99.132,132.879 M109.308,132.622c-0.016,0.224-0.128,0.448-0.312,0.649
		c-0.208,0.224-0.392,0.352-0.576,0.392c-0.016,0-0.056,0.016-0.072,0.016c-0.28,0-0.448-0.28-0.504-0.56
		c-0.112-0.561,0.28-1.113,0.689-1.225c0.056-0.016,0.112-0.016,0.184-0.016c0.096,0,0.168,0.016,0.24,0.04
		c0.168,0.056,0.336,0.24,0.368,0.408C109.348,132.398,109.332,132.51,109.308,132.622 M112.375,132.134
		c-0.128-0.873,0.336-1.858,0.336-1.858C112.895,131.037,112.375,132.134,112.375,132.134"/>
	<path style="fill:#00A7C1;" d="M186.01,105.104c0,0-1.433,5.124-4.812,6.557c-2.226,0.873-3.867,0.688-4.868-1.745
		s0.28-3.675,1.705-4.387c1.449-0.705,4.756,1.185,6.853-0.04c0.817-0.464,0.536-0.689,1.001-0.649
		C186.09,104.864,186.01,105.104,186.01,105.104"/>
	<path style="fill:#00A7C1;" d="M140.814,128.107c0,0,3.643,1.025,4.644,3.435c0.617,1.577,0.48,2.73-1.241,3.459
		c-1.729,0.721-2.602-0.208-3.099-1.225c-0.504-1.025,0.857-3.379-0.016-4.868c-0.336-0.576-0.48-0.392-0.464-0.721
		C140.63,128.051,140.814,128.107,140.814,128.107"/>
	<path style="fill:#00A7C1;" d="M184.289,88.499c0,0-6.71,4.275-7.262,9.736c-0.28,3.563,0.705,5.797,4.604,6.205
		c3.899,0.392,5.124-1.986,5.5-4.347c0.392-2.362-3.755-6.277-2.938-9.808c0.312-1.377,0.745-1.081,0.504-1.729
		C184.601,88.274,184.289,88.499,184.289,88.499"/>
	<path style="fill:#00A7C1;" d="M195.522,101.853c0.576-1.153-0.673-3.883-2.938-2.69c1.057-2.362-1.633-3.587-2.858-2.786
		c-1.265,0.833-1.545,2.098-1.169,3.419c0.52,1.841,0.24,3.419,0.24,3.419c-0.016,0.016-0.016,0.016-0.016,0.016
		s1.577-0.408,3.419,0.04C193.817,103.639,194.929,103.03,195.522,101.853"/>
	<path style="fill:#00A7C1;" d="M176.611,91.117c0.168,0.424,0.648,0.617,1.057,0.448c0.424-0.168,0.632-0.649,0.448-1.057
		c-0.168-0.424-0.648-0.632-1.057-0.448C176.651,90.228,176.442,90.708,176.611,91.117"/>
	<path style="fill:#00A7C1;" d="M140.021,120.565c0.168,0.392,0.617,0.592,1.001,0.424c0.408-0.168,0.593-0.617,0.424-1.001
		c-0.152-0.392-0.617-0.592-1.001-0.424C140.053,119.708,139.869,120.172,140.021,120.565"/>
	<path style="fill:#00A7C1;" d="M194.985,128.627c0.48,0.857,1.577,1.137,2.418,0.649c0.857-0.48,1.137-1.561,0.648-2.418
		c-0.48-0.833-1.561-1.137-2.418-0.649C194.801,126.713,194.505,127.786,194.985,128.627"/>
	<path style="fill:#00A7C1;" d="M139.909,100.909c0.48,0.833,1.577,1.137,2.418,0.649c0.857-0.48,1.137-1.561,0.648-2.418
		c-0.488-0.857-1.561-1.145-2.418-0.649C139.725,98.979,139.421,100.076,139.909,100.909"/>
	<path style="fill:#00A7C1;" d="M188.668,138.395c-0.016,0.801,0.617,1.465,1.393,1.489c0.801,0.016,1.449-0.617,1.489-1.393
		c0.016-0.801-0.592-1.465-1.393-1.489C189.357,136.962,188.708,137.594,188.668,138.395"/>
	<path style="fill:#00A7C1;" d="M192.367,137.154c-0.016,0.392,0.296,0.705,0.673,0.721c0.392,0.016,0.704-0.296,0.704-0.673
		c0.016-0.392-0.296-0.705-0.673-0.705C192.704,136.465,192.367,136.762,192.367,137.154"/>
	<path style="fill:#00A7C1;" d="M186.531,137.706c-0.312,0.168-0.408,0.576-0.24,0.873c0.184,0.312,0.561,0.408,0.873,0.24
		c0.296-0.168,0.408-0.576,0.24-0.873C187.235,137.634,186.851,137.522,186.531,137.706"/>
	<path style="fill:#00A7C1;" d="M187.075,134.664c-0.448,0.24-0.593,0.817-0.336,1.241c0.256,0.448,0.817,0.592,1.265,0.336
		c0.424-0.256,0.593-0.817,0.336-1.265C188.092,134.552,187.515,134.4,187.075,134.664"/>
	<path style="fill:#00A7C1;" d="M181.535,138.491c-0.296,0.184-0.408,0.576-0.24,0.873c0.168,0.312,0.56,0.408,0.873,0.24
		c0.296-0.184,0.408-0.577,0.24-0.873C182.239,138.411,181.855,138.323,181.535,138.491"/>
	<path style="fill:#00A7C1;" d="M177.243,144.08c-0.448,0.256-0.592,0.817-0.336,1.265c0.256,0.448,0.817,0.592,1.265,0.336
		c0.448-0.256,0.592-0.817,0.352-1.265C178.268,143.967,177.692,143.823,177.243,144.08"/>
	<path style="fill:#00A7C1;" d="M177.916,141.197c-0.296,0.168-0.408,0.56-0.224,0.857c0.168,0.296,0.561,0.408,0.857,0.224
		c0.296-0.168,0.408-0.536,0.224-0.857C178.58,141.125,178.212,141.037,177.916,141.197"/>
	<path style="fill:#00A7C1;" d="M172.727,142.558c-0.224,0.128-0.296,0.408-0.168,0.632c0.128,0.224,0.408,0.296,0.649,0.168
		c0.224-0.128,0.296-0.408,0.168-0.632C173.232,142.502,172.952,142.43,172.727,142.558"/>
	<path style="fill:#00A7C1;" d="M146.258,89.988c0.801,0.873,2.138,0.913,2.994,0.112c0.873-0.801,0.913-2.138,0.112-2.994
		c-0.801-0.873-2.138-0.913-2.994-0.112C145.513,87.778,145.457,89.131,146.258,89.988"/>
	<path style="fill:#00A7C1;" d="M168.308,85.712c-0.04,1.137,0.857,2.082,2.01,2.114c1.137,0.04,2.098-0.873,2.114-2.01
		c0.04-1.137-0.857-2.082-2.01-2.114C169.293,83.671,168.348,84.583,168.308,85.712"/>
	<path style="fill:#00A7C1;" d="M148.396,92.438c0.04,0.408,0.392,0.705,0.801,0.673c0.392-0.04,0.689-0.392,0.673-0.777
		c-0.04-0.408-0.392-0.705-0.777-0.673C148.66,91.677,148.356,92.029,148.396,92.438"/>
	<path style="fill:#00A7C1;" d="M144.529,118.275c0.056,0.673,0.648,1.169,1.321,1.113c0.673-0.056,1.153-0.649,1.113-1.321
		c-0.056-0.673-0.648-1.169-1.321-1.113C144.977,117.018,144.481,117.61,144.529,118.275"/>
	<path style="fill:#00A7C1;" d="M138.884,94.111c0.04,0.408,0.392,0.705,0.777,0.673c0.408-0.04,0.704-0.392,0.673-0.777
		c-0.04-0.392-0.392-0.705-0.777-0.673C139.164,93.367,138.868,93.719,138.884,94.111"/>
	<path style="fill:#00A7C1;" d="M169.109,82.278c0.04,0.408,0.392,0.705,0.777,0.673c0.392-0.04,0.689-0.392,0.673-0.777
		c-0.04-0.392-0.392-0.705-0.777-0.673C169.373,81.533,169.068,81.869,169.109,82.278"/>
	<path style="fill:#00A7C1;" d="M142.807,89.427c0.016,0.24,0.224,0.408,0.464,0.392c0.24-0.016,0.408-0.224,0.392-0.464
		c-0.016-0.224-0.224-0.408-0.448-0.392C142.951,88.979,142.783,89.187,142.807,89.427"/>
	<path style="fill:#00A7C1;" d="M150.758,88.611c0.016,0.24,0.224,0.408,0.464,0.392c0.224-0.016,0.408-0.224,0.392-0.464
		c-0.016-0.224-0.224-0.408-0.464-0.392C150.926,88.186,150.734,88.387,150.758,88.611"/>
	<path style="fill:#00A7C1;" d="M173.344,84.119c0.016,0.24,0.224,0.408,0.464,0.392c0.24-0.016,0.408-0.224,0.392-0.448
		c-0.016-0.24-0.224-0.408-0.448-0.392C173.496,83.687,173.328,83.895,173.344,84.119"/>
	<path style="fill:#00A7C1;" d="M165.225,100.076c0.016,0.24,0.224,0.408,0.464,0.392c0.24-0.016,0.408-0.224,0.392-0.464
		c-0.016-0.224-0.224-0.408-0.464-0.392C165.378,99.628,165.209,99.828,165.225,100.076"/>
	<path style="fill:#00A7C1;" d="M186.234,90.636c-0.721,0.408-0.969,1.337-0.56,2.066c0.408,0.729,1.337,0.969,2.066,0.561
		c0.721-0.408,0.969-1.337,0.56-2.066C187.868,90.468,186.963,90.228,186.234,90.636"/>
	<path style="fill:#00A7C1;" d="M152.503,94.351c-0.392-0.673-1.265-0.913-1.913-0.504c-0.689,0.392-0.913,1.241-0.52,1.914
		c0.392,0.673,1.241,0.913,1.914,0.52C152.647,95.873,152.895,95.024,152.503,94.351"/>
	<path style="fill:#00A7C1;" d="M139.701,96.913c-0.256-0.448-0.833-0.592-1.281-0.336c-0.448,0.256-0.617,0.833-0.352,1.265
		c0.256,0.448,0.833,0.617,1.281,0.352C139.797,97.938,139.965,97.378,139.701,96.913"/>
	<path style="fill:#00A7C1;" d="M144.993,110.14c-0.184-0.296-0.576-0.408-0.873-0.24c-0.312,0.184-0.408,0.576-0.24,0.873
		c0.184,0.312,0.576,0.408,0.873,0.24C145.073,110.845,145.161,110.46,144.993,110.14"/>
	<path style="fill:#00A7C1;" d="M193.48,127.506c-0.256-0.448-0.833-0.592-1.281-0.352c-0.448,0.256-0.593,0.833-0.352,1.281
		c0.256,0.448,0.833,0.616,1.281,0.352C193.592,128.531,193.744,127.954,193.48,127.506"/>
	<path style="fill:#00A7C1;" d="M155.514,89.988c-0.128-0.224-0.408-0.296-0.649-0.168c-0.224,0.128-0.296,0.408-0.168,0.632
		c0.128,0.224,0.408,0.296,0.633,0.168C155.57,90.484,155.642,90.212,155.514,89.988"/>
	<path style="fill:#00A7C1;" d="M139.925,117.754c-0.128-0.224-0.408-0.296-0.632-0.168c-0.224,0.128-0.296,0.408-0.168,0.632
		c0.128,0.224,0.408,0.296,0.632,0.168C139.981,118.275,140.053,118.002,139.925,117.754"/>
	<path style="fill:#00A7C1;" d="M163.224,82.462c-0.224-0.392-0.721-0.52-1.113-0.296c-0.392,0.224-0.52,0.721-0.296,1.113
		c0.224,0.392,0.721,0.52,1.097,0.312C163.312,83.35,163.44,82.838,163.224,82.462"/>
	<path style="fill:#00A7C1;" d="M147.043,103.174c-0.224-0.368-0.688-0.504-1.081-0.28c-0.368,0.224-0.504,0.689-0.28,1.057
		c0.208,0.368,0.688,0.504,1.057,0.296C147.131,104.031,147.243,103.567,147.043,103.174"/>
	<path style="fill:#00A7C1;" d="M198.685,113.279c-0.056,0-0.096,0.056-0.072,0.096l0,0l0,0c0.016,0.096,0.04,0.184,0.04,0.28
		c0.096,1.281-0.592,2.394-2.17,2.506c-1.241,0.096-2.338-0.801-2.49-2.026h-0.016c-0.016-0.096-0.096-0.168-0.208-0.168
		c-0.072,0-0.152,0.072-0.168,0.152l0,0c-0.152,0.392-0.208,0.801-0.168,1.225c0.128,1.633,1.281,2.898,3.195,2.746
		c1.489-0.112,2.882-1.265,2.73-3.179c-0.04-0.592-0.256-1.137-0.593-1.577C198.741,113.303,198.716,113.279,198.685,113.279"/>
	<path style="fill:#00A7C1;" d="M193.929,108.971c-0.224-0.464-0.04-1.025,0.424-1.265c0.464-0.224,1.025-0.04,1.265,0.424
		c0.224,0.464,0.056,1.025-0.408,1.265C194.729,109.636,194.153,109.452,193.929,108.971 M197.491,109.692
		c-0.056-0.128-0.152-0.24-0.224-0.352c0.112-0.04,0.24-0.072,0.352-0.128c0.929-0.464,1.433-1.337,0.833-2.506
		c-0.464-0.929-1.577-1.297-2.506-0.833c-0.112,0.056-0.24,0.128-0.336,0.224c-0.04-0.152-0.072-0.296-0.152-0.448
		c-0.464-0.929-1.801-1.185-2.506-0.833c-0.929,0.464-1.297,1.577-0.833,2.506c0.072,0.152,0.184,0.296,0.296,0.408
		c-0.168,0.04-0.336,0.096-0.504,0.168c-0.929,0.464-1.185,1.801-0.833,2.506c0.392,0.777,1.577,1.297,2.506,0.833
		c0.152-0.072,0.296-0.168,0.424-0.296c0.04,0.152,0.072,0.28,0.152,0.424c0.464,0.929,1.393,1.393,2.506,0.833
		C197.956,111.573,197.956,110.621,197.491,109.692"/>
	<path style="fill:#00A7C1;" d="M135.746,101.797c0.056-0.368,0.392-0.633,0.761-0.592s0.632,0.392,0.592,0.761
		c-0.056,0.368-0.392,0.632-0.761,0.592C135.97,102.51,135.69,102.174,135.746,101.797 M137.619,103.679
		c0.016-0.096,0.016-0.208,0-0.296c0.096,0.04,0.168,0.056,0.256,0.056c0.745,0.096,1.393-0.24,1.521-1.185
		c0.096-0.745-0.448-1.433-1.185-1.521c-0.096-0.016-0.184-0.016-0.28,0c0.04-0.112,0.072-0.224,0.072-0.336
		c0.096-0.745-0.617-1.449-1.185-1.521c-0.745-0.096-1.433,0.448-1.505,1.185c-0.016,0.128-0.016,0.24,0,0.368
		c-0.112-0.056-0.24-0.072-0.368-0.096c-0.745-0.096-1.449,0.616-1.521,1.185c-0.072,0.633,0.448,1.433,1.185,1.521
		c0.128,0.016,0.256,0.016,0.368,0c-0.04,0.096-0.056,0.208-0.072,0.312c-0.096,0.745,0.28,1.409,1.185,1.521
		C137.139,104.976,137.531,104.424,137.619,103.679"/>
	<path style="fill:#00A7C1;" d="M187.499,131.189c-0.128,0.056-0.24,0.184-0.28,0.312c-0.112,0.28,0.04,0.592,0.296,0.705
		l0.705,0.368l0,0c0.24,0.128,0.408,0.392,0.448,0.673l0.096,0.777c0.016,0.112,0.056,0.224,0.112,0.296l0,0
		c0.016,0.016,0.016,0.016,0.04,0.04c0,0.016,0.016,0.016,0.016,0.016l0,0c0.016,0,0.016,0.016,0.04,0.016l0,0l0.016,0.016v0.016
		c0.016,0,0.016,0.016,0.04,0.016h0.016c0.016,0.016,0.016,0.016,0.016,0.016h0.016l0.016,0.016h0.016
		c0.016,0,0.016,0.016,0.04,0.016c0.224,0.072,0.48,0.016,0.632-0.168l0.561-0.536v0.016c0.208-0.208,0.48-0.28,0.761-0.24l0,0
		l0.777,0.152l0,0c0.296,0.072,0.592-0.072,0.688-0.368c0.056-0.168,0.04-0.336-0.04-0.464l0,0l-0.28-0.576l-0.04-0.072l0,0l0,0
		c0,0,0,0,0-0.016l-0.04-0.072c-0.096-0.224-0.096-0.48,0.016-0.705l0,0l0.224-0.424l0.208-0.352c0-0.04,0.04-0.056,0.04-0.096
		c0.112-0.296-0.056-0.633-0.352-0.745c-0.096-0.04-0.208-0.04-0.296-0.016l-0.673,0.096c-0.24,0.016-0.648-0.04-1.025-0.408
		l-0.072-0.096l-0.336-0.352c-0.056-0.072-0.152-0.128-0.24-0.168c-0.296-0.112-0.632,0.056-0.721,0.352
		c-0.016,0.04-0.016,0.072-0.016,0.128l-0.072,0.352l-0.112,0.48l0,0c-0.056,0.256-0.224,0.464-0.448,0.576l-0.04,0.016
		c-0.016,0-0.016,0-0.016,0.016l0,0l-0.072,0.04L187.499,131.189z"/>
	<path style="fill:#00A7C1;" d="M142.175,94.223c-0.128,0.056-0.24,0.184-0.28,0.312c-0.096,0.28,0.04,0.592,0.296,0.705
		l0.705,0.368l0,0c0.24,0.128,0.408,0.392,0.448,0.673l0,0l0.096,0.777c0.016,0.112,0.056,0.224,0.112,0.296
		c0,0.016,0.016,0.016,0.016,0.04c0,0.016,0.016,0.016,0.016,0.016l0,0l0.016,0.016h0.016l0.016,0.016l0,0
		c0.016,0,0.016,0.016,0.04,0.016c0,0,0,0,0.016,0c0,0.016,0.016,0.016,0.016,0.016l0,0c0.016,0,0.016,0.016,0.04,0.016h0.016
		c0.016,0,0.04,0.016,0.04,0.016c0.224,0.072,0.48,0,0.632-0.168l0.561-0.536l0,0c0.208-0.184,0.48-0.28,0.761-0.224l0,0
		l0.777,0.152l0,0c0.296,0.072,0.592-0.072,0.688-0.352c0.056-0.152,0.04-0.312-0.04-0.464l0,0l-0.28-0.576l0,0l-0.04-0.072l0,0l0,0
		c0,0,0,0-0.016-0.016l-0.016-0.056c-0.096-0.224-0.112-0.48,0.016-0.721l0,0l0.224-0.424l0.208-0.352l0,0
		c0.016-0.04,0.04-0.056,0.04-0.096c0.112-0.296-0.056-0.633-0.352-0.721c-0.096-0.04-0.208-0.04-0.296-0.016l-0.673,0.096
		c-0.24,0-0.648-0.04-1.025-0.408l-0.072-0.072l-0.336-0.352c-0.056-0.072-0.152-0.128-0.24-0.168
		c-0.296-0.112-0.632,0.056-0.721,0.352c-0.016,0.04-0.016,0.072-0.016,0.128l-0.072,0.352l-0.112,0.48l0,0
		c-0.056,0.256-0.224,0.464-0.448,0.576l-0.04,0.016c-0.016,0-0.016,0-0.016,0.016l0,0l-0.072,0.04l0,0L142.175,94.223z"/>
	<path style="fill:#00A7C1;" d="M177.563,87.402c-0.096,0.056-0.184,0.128-0.224,0.256c-0.096,0.224,0.016,0.464,0.24,0.576
		l0.561,0.296l0,0c0.208,0.112,0.312,0.312,0.352,0.52l0,0l0.072,0.616c0,0.096,0.04,0.184,0.072,0.24l0,0l0.016,0.016
		c0.016,0.016,0.016,0.016,0.016,0.016l0,0l0.016,0.016l0,0c0,0.016,0.016,0.016,0.016,0.016l0,0c0,0,0.016,0,0.016,0.016h0.016
		c0,0.016,0.016,0.016,0.016,0.016h0.016l0.016,0.016h0.016c0.016,0,0.016,0.016,0.04,0.016c0.184,0.056,0.368,0,0.504-0.128
		l0.448-0.424l0,0c0.152-0.152,0.368-0.224,0.617-0.184l0,0l0.617,0.112c0.224,0.056,0.464-0.072,0.536-0.28
		c0.056-0.128,0.04-0.256-0.016-0.368l0,0l-0.224-0.448l-0.016-0.056l0,0l0,0h-0.016l-0.04-0.056
		c-0.072-0.184-0.072-0.392,0.016-0.576l0,0l0.168-0.336l0.152-0.28l0,0c0.016-0.016,0.016-0.056,0.04-0.072
		c0.096-0.24-0.04-0.504-0.28-0.576c-0.072-0.016-0.168-0.04-0.24-0.016l-0.52,0.072c-0.184,0.016-0.504-0.016-0.801-0.312
		l-0.056-0.072l-0.256-0.28c-0.056-0.056-0.112-0.112-0.184-0.128c-0.24-0.072-0.48,0.04-0.576,0.28
		c-0.016,0.04-0.016,0.056-0.016,0.096l-0.056,0.28l-0.072,0.368v0.016c-0.04,0.208-0.184,0.352-0.352,0.448l-0.04,0.016
		c0,0-0.016,0-0.016,0.016l0,0l-0.112,0.016l0,0L177.563,87.402z"/>
	<path style="fill:#00A7C1;" d="M142.231,111.926c-0.056,0.016-0.096,0.072-0.112,0.112c-0.04,0.112,0.016,0.224,0.112,0.28
		l0.256,0.152l0,0c0.096,0.056,0.152,0.152,0.168,0.24l0,0l0.04,0.296c0,0.04,0.016,0.072,0.04,0.112l0,0c0,0,0,0,0.016,0.016
		c0,0,0,0,0.016,0.016c0,0,0,0,0.016,0.016l0,0v0.016l0,0c0,0,0,0,0.016,0.016l0,0c0,0,0,0,0.016,0l0,0c0,0,0,0,0.016,0l0,0
		l0.016,0.016c0.096,0.04,0.184,0,0.24-0.056l0.208-0.208c0.072-0.072,0.184-0.112,0.28-0.096l0,0l0.28,0.056
		c0.112,0.04,0.224-0.04,0.256-0.128c0.016-0.056,0.016-0.128-0.016-0.184l0,0l-0.112-0.224l-0.016-0.04l0,0v-0.016
		c-0.04-0.096-0.04-0.184,0-0.28l0.072-0.168l0.072-0.128c0-0.016,0.016-0.016,0.016-0.04c0.04-0.112-0.016-0.24-0.128-0.28
		c-0.04-0.016-0.072-0.016-0.112-0.016l-0.24,0.04c-0.096,0-0.24,0-0.392-0.152l-0.016-0.04l-0.12-0.112
		c-0.016-0.04-0.056-0.056-0.096-0.072c-0.112-0.04-0.24,0.016-0.28,0.128c0,0.016-0.016,0.04-0.016,0.04l-0.016,0.128l-0.04,0.184
		l0,0c-0.016,0.096-0.072,0.168-0.168,0.224h-0.016c0,0,0,0-0.016,0l0,0l-0.04,0.016L142.231,111.926z"/>
	<path style="fill:#00A7C1;" d="M165.818,82.742c-0.056,0.04-0.112,0.072-0.128,0.152c-0.04,0.128,0.016,0.28,0.128,0.312
		l0.312,0.168l0,0c0.112,0.056,0.184,0.168,0.184,0.296l0,0l0.072,0.352c0,0.056,0.016,0.096,0.056,0.152c0,0,0,0,0.016,0.016
		c0,0,0,0,0.016,0.016c0,0,0,0,0.016,0.016l0,0c0,0,0,0,0.016,0l0,0h0.016l0,0c0,0,0,0,0.016,0l0,0l0,0l0,0
		c0.016,0,0.016,0.016,0.016,0.016c0.096,0.04,0.224,0,0.28-0.072l0.24-0.24v0.016c0.096-0.096,0.224-0.128,0.336-0.112l0,0
		l0.336,0.072l0,0c0.128,0.04,0.28-0.04,0.312-0.168c0.016-0.072,0.016-0.152-0.016-0.224l-0.128-0.256l0,0l-0.016-0.04l0,0l0,0l0,0
		l-0.016-0.04c-0.056-0.112-0.056-0.224,0-0.336l0.096-0.184l0.096-0.152l0,0c0-0.016,0.016-0.016,0.016-0.04
		c0.056-0.128-0.016-0.28-0.152-0.336c-0.056-0.016-0.096-0.016-0.128-0.016l-0.296,0.04c-0.112,0-0.296-0.016-0.464-0.184
		l-0.04-0.04l-0.152-0.168c-0.016-0.04-0.072-0.056-0.112-0.072c-0.128-0.04-0.28,0.016-0.336,0.168c0,0.016-0.016,0.04-0.016,0.056
		l-0.016,0.168l-0.056,0.224l0,0c-0.016,0.112-0.112,0.208-0.208,0.256h-0.016c0,0-0.016,0-0.016,0.016l0,0l-0.04,0.016
		L165.818,82.742L165.818,82.742L165.818,82.742z"/>
	<path style="fill:#00A7C1;" d="M142.079,107.946c-0.056,0.016-0.112,0.072-0.128,0.152c-0.056,0.128,0.016,0.256,0.128,0.312
		l0.32,0.168l0,0c0.112,0.072,0.184,0.168,0.184,0.296l0,0l0.04,0.352c0,0.056,0.016,0.096,0.056,0.128l0,0h0.016
		c0,0.016,0,0.016,0.016,0.016l0,0v0.016l0,0c0,0,0,0,0.016,0l0.016,0.016l0,0c0,0.016,0,0.016,0.016,0.016l0,0c0,0,0,0,0.016,0l0,0
		h0.016c0.112,0.04,0.224,0,0.28-0.072l0.24-0.24l0,0c0.096-0.096,0.224-0.128,0.336-0.112h0.016l0.336,0.072l0,0
		c0.128,0.04,0.256-0.04,0.312-0.168c0.04-0.072,0.016-0.152-0.016-0.208l0,0l-0.128-0.256l0,0l-0.016-0.04l0,0l0,0l0,0l-0.016-0.04
		c-0.04-0.112-0.056-0.224,0-0.336l0.096-0.208l0.096-0.152l0,0c0-0.016,0.016-0.016,0.016-0.04c0.056-0.128-0.016-0.28-0.168-0.336
		c-0.04-0.016-0.096-0.016-0.128,0l-0.296,0.04c-0.112,0-0.296-0.016-0.464-0.184l-0.04-0.04l-0.152-0.152
		c-0.016-0.04-0.056-0.056-0.112-0.072c-0.128-0.056-0.28,0.016-0.336,0.168c0,0.016-0.016,0.04-0.016,0.056l-0.04,0.168
		l-0.056,0.208l0,0c-0.016,0.112-0.096,0.208-0.208,0.256l-0.008,0.048h-0.016l-0.04,0.016l0,0L142.079,107.946z"/>
	<path style="fill:#00A7C1;" d="M165.097,85.544c-0.056,0.016-0.096,0.056-0.112,0.112c-0.04,0.112,0.016,0.208,0.112,0.24
		l0.24,0.128l0,0c0.096,0.056,0.152,0.128,0.152,0.224l0,0l0.04,0.28c0,0.04,0.016,0.072,0.04,0.112l0,0h0.016
		c0,0.016,0,0.016,0.016,0.016c0,0,0.016,0,0.016,0.016l0,0l0,0l0,0c0,0,0,0,0.016,0.016c0,0,0,0,0.016,0l0,0l0,0l0,0l0.016,0.016
		c0.072,0.016,0.168,0,0.224-0.056l0.184-0.184c0.072-0.072,0.168-0.096,0.256-0.072l0,0l0.256,0.056
		c0.096,0.016,0.208-0.04,0.24-0.128c0.016-0.056,0.016-0.112-0.016-0.168l0,0l-0.096-0.208l0,0l-0.016-0.016l0,0l0,0l0,0v-0.056
		c-0.04-0.072-0.04-0.168,0-0.24l0,0l0.072-0.152l0.072-0.112l0,0c0-0.016,0.016-0.016,0.016-0.04
		c0.04-0.112-0.016-0.224-0.128-0.256c-0.04-0.016-0.072-0.016-0.112,0l-0.224,0.04c-0.072,0-0.224,0-0.352-0.128l-0.016-0.016
		l-0.112-0.128c-0.016-0.016-0.056-0.04-0.072-0.056c-0.112-0.04-0.224,0.016-0.256,0.112c0,0.016,0,0.016,0,0.04l-0.016,0.128
		l-0.04,0.168c-0.016,0.096-0.072,0.168-0.152,0.208h-0.016h-0.016l0,0l-0.04,0.016l0,0L165.097,85.544z"/>
	<path style="fill:#00A7C1;" d="M166.434,101.117c-0.056,0.016-0.096,0.056-0.112,0.112c-0.04,0.096,0.016,0.208,0.112,0.24
		l0.24,0.128l0,0c0.096,0.056,0.152,0.128,0.152,0.224l0,0l0.04,0.28c0,0.04,0.016,0.072,0.04,0.112l0,0h0.016
		c0,0.016,0,0.016,0.016,0.016c0,0,0.016,0,0.016,0.016l0,0l0,0l0,0c0,0,0,0,0.016,0l0,0h0.016l0,0l0,0l0,0h0.016
		c0.072,0.016,0.168,0,0.224-0.056l0.184-0.184l0,0c0.072-0.072,0.168-0.096,0.256-0.072l0,0l0.256,0.056
		c0.096,0.016,0.208-0.04,0.24-0.128c0.016-0.056,0.016-0.112-0.016-0.168l0,0l-0.096-0.208l-0.016-0.016l0,0l0,0l0,0l-0.016-0.016
		c-0.04-0.072-0.04-0.168,0-0.24l0,0l0.072-0.152l0.072-0.112l0,0c0-0.016,0.016-0.016,0.016-0.016
		c0.04-0.112-0.016-0.224-0.128-0.256c-0.04-0.016-0.072-0.016-0.112,0l-0.224,0.016c-0.072,0-0.224,0-0.352-0.128l-0.016-0.016
		l-0.112-0.128c-0.016-0.016-0.056-0.04-0.072-0.056c-0.112-0.04-0.224,0.016-0.256,0.112c0,0.016,0,0.016,0,0.04l-0.016,0.128
		l-0.04,0.168c-0.016,0.096-0.072,0.168-0.152,0.208h-0.016h-0.016l0,0l-0.04,0.016L166.434,101.117z"/>
	<path style="fill:#00A7C1;" d="M180.926,120.485c-0.016,0.016-0.016,0.04-0.04,0.04c0.016-0.04,0.016-0.056,0.04-0.096
		C180.926,120.468,180.926,120.485,180.926,120.485 M180.702,120.468c0,0,0-0.016,0.016-0.04c0,0.04,0,0.072,0,0.112
		C180.718,120.525,180.702,120.485,180.702,120.468 M185.009,118.387c-0.016-0.072-0.112-0.128-0.184-0.184
		c-0.48-0.256-1.113-0.312-1.745-0.128c-0.592,0.168-1.137,0.504-1.465,0.945c-0.056,0.056-0.112,0.112-0.152,0.184
		c-0.072,0.096-0.152,0.208-0.224,0.352c-0.016,0.072-0.056,0.152-0.096,0.208c0-0.04-0.016-0.096-0.04-0.152
		c0.04-0.016,0.056-0.04,0.056-0.072c0-0.016,0-0.056,0-0.096c0.096-0.112,0.152-0.256,0.208-0.424
		c0.016-0.072,0.056-0.152,0.072-0.208c0.152-0.312,0.312-0.633,0.576-0.857c0.256-0.24,0.576-0.392,0.857-0.408
		c0.072,0,0.256,0,0.336,0.072c0.016,0.016,0.04,0.04,0.04,0.072c0,0.072-0.072,0.128-0.128,0.152c-0.04,0-0.096-0.016-0.096-0.072
		c0.016,0,0.016-0.016,0.04-0.016c0.04-0.04,0.04-0.072,0.016-0.096c-0.016-0.016-0.056,0-0.072,0.016
		c-0.016,0.016-0.04,0.056-0.04,0.072v0.016c0.016,0.016,0.016,0.016,0.04,0.016c0.016,0.072,0.072,0.096,0.128,0.096
		c0.072,0,0.152-0.072,0.152-0.168c0-0.04-0.016-0.072-0.056-0.112c-0.072-0.072-0.256-0.096-0.352-0.072
		c-0.28,0.016-0.593,0.184-0.873,0.408c-0.256,0.224-0.424,0.536-0.577,0.873c-0.04,0.056-0.056,0.128-0.096,0.208
		c-0.056,0.152-0.112,0.296-0.208,0.408c-0.016-0.016-0.04-0.04-0.056-0.056c-0.016,0-0.04,0-0.056,0
		c-0.016-0.128-0.016-0.256-0.016-0.408c0-0.072,0.016-0.152,0-0.224c-0.016-0.352-0.04-0.689-0.184-0.985
		c-0.152-0.312-0.368-0.576-0.617-0.705c-0.072-0.04-0.24-0.096-0.352-0.056c-0.04,0.016-0.072,0.04-0.072,0.072
		c-0.04,0.072,0.016,0.168,0.072,0.208c0.04,0.016,0.096,0.016,0.152-0.04h0.016h0.016c0.016-0.016,0.016-0.04,0.016-0.072
		c0-0.056-0.04-0.072-0.056-0.072c-0.016,0-0.04,0.04-0.04,0.072c0,0.016,0.016,0.04,0.016,0.056l0,0
		c-0.04,0.04-0.072,0.04-0.112,0.016c-0.056-0.016-0.096-0.096-0.056-0.168c0-0.04,0.04-0.056,0.056-0.056
		c0.096-0.04,0.256,0.04,0.336,0.056c0.224,0.112,0.448,0.368,0.592,0.689c0.152,0.296,0.168,0.633,0.184,0.985
		c0,0.072,0,0.152,0,0.224c0,0.152,0,0.28,0.016,0.408c-0.04,0.016-0.056,0.04-0.072,0.072c-0.016,0.04,0,0.072,0,0.096h-0.016
		c-0.04,0.016-0.056,0.056-0.072,0.096c0-0.072,0-0.128,0-0.208c0-0.152-0.016-0.296-0.056-0.408
		c-0.016-0.072-0.04-0.152-0.072-0.224c-0.128-0.536-0.464-1.081-0.945-1.489c-0.504-0.424-1.097-0.649-1.649-0.616
		c-0.072,0-0.184,0.016-0.24,0.072c-0.04,0.04-0.056,0.096-0.04,0.168c0.016,0.128,0.096,0.256,0.184,0.368
		c0.016,0.016,0.04,0.056,0.056,0.072c0.168,0.184,0.28,0.296,0.112,0.561c-0.096,0.152-0.128,0.28-0.112,0.408
		c0.016,0.096,0.072,0.168,0.128,0.24c0.016,0.04,0.056,0.072,0.096,0.112c0.072,0.112,0.04,0.168-0.016,0.256
		c-0.016,0.016-0.04,0.056-0.04,0.072c-0.112,0.224-0.112,0.392,0.016,0.592c0.112,0.184,0.256,0.28,0.424,0.296h0.096
		c0.056,0,0.096,0,0.128,0c0.04,0,0.056,0,0.072,0.016c0.04,0.016,0.096,0.016,0.152,0.016c0.224,0,0.448-0.04,0.673-0.072
		c-0.312,0.096-0.561,0.208-0.777,0.448c-0.056,0.056-0.096,0.112-0.152,0.184c-0.224,0.312-0.312,0.576-0.296,0.817
		c0.016,0.128,0.072,0.24,0.152,0.296c0.096,0.072,0.256,0.096,0.448,0.056c0.016,0,0.04-0.016,0.056-0.016
		c0.072-0.016,0.184-0.056,0.24-0.016c0.112,0.056,0.096,0.224,0.072,0.352c0,0.04,0,0.072,0,0.112c0,0.168,0.056,0.424,0.168,0.576
		c0.04,0.04,0.072,0.072,0.112,0.072c0.016,0,0.056-0.016,0.072-0.04c0.04-0.056,0.056-0.152,0.016-0.224
		c-0.016-0.056-0.056-0.096-0.096-0.128c-0.056-0.072-0.112-0.152-0.128-0.24c-0.016-0.072-0.04-0.128-0.04-0.208
		c0-0.168,0.04-0.28,0.152-0.336c0.056-0.04,0.112-0.072,0.184-0.096c0.072-0.016,0.152-0.072,0.224-0.112
		c0.072-0.056,0.128-0.112,0.184-0.168c0.112-0.128,0.208-0.28,0.256-0.424c-0.016,0.072-0.04,0.128-0.04,0.208
		c-0.04,0.128-0.056,0.28-0.096,0.408l0,0h0.016h0.016c0.04-0.184,0.112-0.368,0.184-0.536c0.016-0.04,0.04-0.072,0.04-0.112
		c-0.016,0.168-0.016,0.352,0.056,0.536c0.04,0.072,0.056,0.152,0.096,0.224c0.04,0.072,0.096,0.152,0.152,0.208
		c0.056,0.056,0.096,0.096,0.128,0.152c0.072,0.112,0.056,0.224,0,0.368c-0.016,0.056-0.056,0.112-0.112,0.168
		c-0.072,0.056-0.152,0.112-0.224,0.152c-0.056,0.016-0.096,0.056-0.128,0.096c-0.072,0.056-0.096,0.152-0.072,0.208
		c0.016,0.04,0.016,0.056,0.056,0.056c0.04,0.016,0.072,0.016,0.128-0.016c0.168-0.072,0.336-0.28,0.392-0.448
		c0.016-0.04,0.016-0.056,0.04-0.096c0.04-0.128,0.096-0.28,0.208-0.296c0.072,0,0.152,0.056,0.224,0.112
		c0.016,0.016,0.04,0.016,0.056,0.04c0.152,0.112,0.296,0.168,0.424,0.152c0.112-0.016,0.208-0.096,0.256-0.208
		c0.112-0.184,0.152-0.48,0.072-0.857c-0.016-0.072-0.04-0.152-0.056-0.224c-0.112-0.296-0.28-0.504-0.52-0.721
		c0.184,0.128,0.392,0.256,0.576,0.352c0.056,0.016,0.096,0.04,0.152,0.04c0.016,0,0.056,0.016,0.072,0.016
		c0.04,0.016,0.072,0.04,0.128,0.056c0.016,0.016,0.056,0.016,0.096,0.04c0.168,0.056,0.336,0.04,0.52-0.072
		c0.208-0.128,0.28-0.28,0.256-0.52c0-0.04,0-0.056,0-0.096c-0.016-0.112-0.016-0.168,0.096-0.24c0.04-0.04,0.072-0.056,0.128-0.072
		c0.072-0.04,0.168-0.072,0.224-0.152c0.072-0.112,0.112-0.24,0.072-0.408c-0.056-0.312,0.096-0.368,0.312-0.464
		c0.016-0.016,0.056-0.016,0.096-0.04c0.128-0.056,0.24-0.152,0.312-0.256C185.025,118.499,185.025,118.443,185.009,118.387"/>
	<path style="fill:#00A7C1;" d="M150.213,130.685c0,0,1.818,1.93,1.801,3.179c-0.016,0.617,0.128,1.321-0.184,1.874
		c-0.312,0.552-0.857,0.577-1.409,0.705c-1.729,0.448-2.786,0.777-3.899,3.459c-1.001,2.01-1.113,2.506-2.394,3.123
		c-0.504,0.168-0.889,0.448,1.225,0.28c2.114-0.168,2.786-0.448,3.179-0.561c0.448-0.056,0.673,0.168,1.225,0.889
		c0.561,0.721,3.547,4.275,6.91,5.757c0.56,0.312,1.169,0.152,0.224-2.746c-0.929-2.882-2.098-5.036-2.114-5.068
		c-0.296-0.561,1.137-0.184,1.297-0.152c1.113,0.208,2.21,0.352,3.347,0.312c0.296-0.016,0.817,0.04,1.097-0.112
		c0.224-0.112,0.617-0.336-1.281-1.842c-1.897-1.505-3.146-2.274-3.146-2.274s-0.817,1.265-1.353,1.761
		c0.312-0.312,0.593-0.969,0.777-1.353c0.408-0.857,0.688-1.954,0.352-2.882c-0.224-0.673-0.777-1.265-1.393-1.601
		c-0.593-0.296-1.321-0.256-1.874-0.632C151.983,132.454,151.406,131.301,150.213,130.685"/>
	<path style="fill:#00A7C1;" d="M143.88,104.399c-0.24-0.424-0.592-0.368-1.081-0.296c-0.913,0.056-3.923,1.617-3.923,1.617
		c-3.547,0.184-5.236,0.592-7.278,2.418c-2.042,1.801-3.058,5.957-1.929,10.769c0.889,3.731,1.337,4.828,1.465,4.98
		c0.096,0.296,0.224-0.913,1.705-2.658c1.633-1.93,8.023-5.316,8.023-11.217c0-1.745-0.48-2.898-0.48-2.898
		s-9.055,2.77-9.464,13.043c-0.016-0.016-0.04-0.04-0.056-0.056c0.056-1.93,0.448-4.308,1.577-6.854
		c3.867-6.87,10.609-8.006,11.201-8.079C144.232,105.128,144.12,104.696,143.88,104.399"/>
	<path style="fill:#00A7C1;" d="M167.996,104.399c0.408-0.464,0.464-1.081,0.128-1.353s-0.913-0.112-1.321,0.352
		c-0.408,0.48-0.464,1.081-0.128,1.353C167.011,105.032,167.603,104.864,167.996,104.399"/>
	<path style="fill:#00A7C1;" d="M170.374,106.353c0,0.576,0.336,1.097,0.721,1.025c0.256-0.04,0.673-0.705,0.704-1.041
		c0.056-0.576-0.336-1.153-0.745-1.137C170.67,105.216,170.374,105.777,170.374,106.353"/>
	<path style="fill:#00A7C1;" d="M170.165,107.002c0.128-0.617-0.152-1.241-0.577-1.337c-0.52-0.128-0.873,0.336-1.001,0.929
		c-0.128,0.616,0.096,1.153,0.52,1.265C169.445,107.946,170.037,107.618,170.165,107.002"/>
	<path style="fill:#00A7C1;" d="M168.436,106.313c0.296-0.48,0.561-0.889,0.072-1.297c-0.312-0.28-0.801-0.28-1.265,0.296
		c-0.368,0.448-0.536,1.001-0.096,1.281C167.531,106.833,168.028,106.946,168.436,106.313"/>
	<path style="fill:#00A7C1;" d="M169.221,105.384c0.424,0.28,0.985-0.112,1.433-0.352c0.448-0.256,0.889-0.424,1.057-0.48
		c0.208-0.096,0.561-0.208,0.52-0.833c-0.112-0.576-0.424-0.592-0.761-0.721c-0.128-0.056-0.352-0.224-0.352-0.224
		s-0.424-0.24-0.801-0.617c-0.424-0.408-1.561-0.913-1.761,0.745C168.492,104.776,168.796,105.104,169.221,105.384"/>
	<path style="fill:#00A7C1;" d="M173.496,90.268c-0.504-0.28-0.632-1.025-0.424-1.409c0.28-0.504,0.913-0.705,1.409-0.424
		c0.408,0.224,0.673,0.969,0.408,1.409C174.553,90.484,173.992,90.54,173.496,90.268 M174.753,95.24
		c-0.072-0.04-0.168-0.016-0.208,0.056l-1.057,1.97c0.536-1.689,0.24-2.802,0.016-3.291c2.73-3.995,3.178-7.99,3.178-9.231
		c0.016-0.368-0.256-0.224-0.296-0.208c-1.041,0.673-4.476,3.123-5.997,7.726c-0.536,0.072-1.633,0.424-2.746,1.801l1.057-1.97
		c0.04-0.072,0.016-0.168-0.056-0.208s-0.112,0-0.168,0.072l-3.379,6.165c-0.04,0.072-0.016,0.168,0.056,0.208
		c0.072,0.04,0.168,0,0.208-0.056l0.648-1.209c0,0,1.858-1.954,3.603-2.066c-0.256,0.208-0.592,0.504-0.833,0.969
		c-0.24,0.48,0.152,1.001,0.152,1.001l-0.168,0.296c0,0-0.761,0.256-1.281,1.137c0.016-0.056,0.576,0.576,1.225,0.913
		c0.616,0.336,1.241,0.464,1.281,0.448c0.424-0.817,0.224-1.689,0.224-1.689l0.168-0.296c0,0,0.632,0.016,0.929-0.424
		c0.28-0.448,0.336-0.889,0.352-1.225c0.857,1.521,0.224,4.139,0.224,4.139l-0.649,1.185c-0.04,0.072-0.016,0.168,0.056,0.208
		c0.072,0.04,0.168,0.016,0.208-0.056l3.267-6.037C174.793,95.52,174.889,95.32,174.753,95.24"/>
	<path style="fill:#00A7C1;" d="M135.185,124.392c-0.184-0.168-0.208-0.464-0.016-0.649c0.168-0.184,0.464-0.208,0.648-0.016
		c0.184,0.168,0.208,0.464,0.016,0.649C135.674,124.56,135.377,124.576,135.185,124.392 M142.751,141.181
		c-0.056-0.152-0.184-0.592,0.256-1.137c0.704-0.745,0.424-1.137,0.424-1.137s0.352-0.04,0.745-0.408
		c0.705-0.801,1.153-0.873,1.153-0.873c0.873-0.312,1.057-0.408,0.705-0.761c-1.673-0.945-4.083,0.536-4.027,0.536
		c-5.629-1.505-5.332-5.148-5.052-6.429c1.505-0.096,2.306,1.409,2.378,0.889c0.296-2.226-1.297-3.347-1.97-3.867
		c0.096-0.536,0.24-1.241,0.52-2.138c0.616-2.042,1.113-4.388,1.097-4.996c-0.016-0.616-0.368-0.56-0.368-0.56
		s0.072-0.224-0.112-0.24c-0.945,0.056-1.817,1.505-1.817,1.505s-0.593-0.617-2.882,1.617c-2.506,2.546-3.026,5.685-3.138,6.781
		c-0.536,0.705-1.705,2.434-1.914,3.923c-0.056,0.448,0.168,0.464,1.025-0.224c0.632-0.408,1.265-0.408,1.858,0.128
		c0.016,0.04,0.016,0.056,0.04,0.096l0,0c0.016,0.016,0.016,0.04,0.016,0.056c0.04,0.096,0.056,0.152,0.056,0.152l0,0
		c2.914,6.966,9.712,4.812,9.712,4.812s-0.464,0.592,0.392,1.689C142.711,141.702,142.807,141.309,142.751,141.181"/>
	<path style="fill:#00A7C1;" d="M148.436,132.839c-0.152-0.04-0.256-0.208-0.224-0.352c0.04-0.168,0.184-0.256,0.352-0.224
		c0.168,0.032,0.256,0.208,0.224,0.352C148.748,132.782,148.604,132.879,148.436,132.839 M149.325,132.134
		c-0.04,0-0.096-0.016-0.128-0.016c0.016-0.04,0.04-0.072,0.04-0.112c0.072-0.312-0.04-0.617-0.424-0.705
		c-0.312-0.072-0.632,0.112-0.704,0.424c-0.016,0.04-0.016,0.072-0.016,0.128c-0.04-0.016-0.096-0.04-0.152-0.056
		c-0.312-0.072-0.649,0.184-0.705,0.424c-0.072,0.312,0.112,0.632,0.424,0.705c0.056,0.016,0.112,0.016,0.152,0.016
		c-0.016,0.056-0.04,0.096-0.056,0.152c-0.072,0.312,0.184,0.649,0.424,0.705c0.256,0.056,0.632-0.112,0.705-0.448
		c0.016-0.056,0.016-0.112,0.016-0.152c0.04,0.016,0.072,0.04,0.128,0.056c0.312,0.072,0.617-0.056,0.704-0.424
		C149.885,132.398,149.661,132.206,149.325,132.134"/>
	<path style="fill:#00A7C1;" d="M145.513,125.04L145.513,125.04l-1.561-1.025l1.001-1.561l0.016-0.04
		c0.096-0.128,0.056-0.312-0.072-0.408l-0.889-0.576c-0.128-0.096-0.312-0.056-0.408,0.096l-0.016,0.04l-0.04,0.072l-0.969,1.489
		l-1.561-1.001l0,0l-0.056-0.04c-0.128-0.096-0.312-0.056-0.408,0.072l-0.577,0.889c-0.096,0.128-0.056,0.312,0.072,0.408
		l0.056,0.04l1.561,1.025l-0.945,1.449l-0.056,0.096l0,0c-0.072,0.128-0.056,0.312,0.096,0.408l0.889,0.576
		c0.128,0.096,0.312,0.056,0.408-0.072l0,0l0,0l1.001-1.545l1.561,1.001l0,0c0.128,0.072,0.296,0.04,0.392-0.096l0.576-0.889
		C145.666,125.28,145.626,125.136,145.513,125.04"/>
	<path style="fill:#00A7C1;" d="M142.175,118.819l0.833-0.28c0.128-0.04,0.184-0.184,0.152-0.312l-0.016-0.016l-0.016-0.056
		l-0.28-0.777l-0.929-2.73l-0.04-0.072l0,0c-0.04-0.128-0.184-0.184-0.312-0.152l-0.833,0.296c-0.128,0.04-0.184,0.184-0.152,0.312
		l0,0l0.761,2.21l0.496,1.425v0.04C141.911,118.795,142.047,118.875,142.175,118.819"/>
	<path style="fill:#00A7C1;" d="M154.024,98.603c0.184-0.04,0.368,0.096,0.408,0.296l0.704,4.404
		c0.04,0.184-0.096,0.368-0.296,0.408l-1.874,0.296c-0.208,0.04-0.368-0.096-0.408-0.296l-0.705-4.42
		c-0.04-0.184,0.096-0.368,0.296-0.408L154.024,98.603z M154.361,114.784l-0.208-1.241l1.874-0.296
		c0.296-0.04,0.48-0.312,0.448-0.617l-0.072-0.536c-0.056-0.296-0.312-0.48-0.617-0.448l-1.874,0.296l-0.336-2.026
		c0.368-0.056,0.632-0.408,0.577-0.801c-0.056-0.392-0.408-0.649-0.801-0.576l-0.144-1.001l0.296-0.056
		c0.368-0.072,0.649-0.424,0.576-0.801c-0.056-0.368-0.424-0.649-0.801-0.576l-0.296,0.056l-0.184-1.185l3.05-0.504
		c0.256-0.04,0.424-0.24,0.448-0.504l-1.153-7.23c-0.056-0.296-0.312-0.504-0.576-0.448c-0.28,0.04-0.464,0.312-0.408,0.617
		l0.112,0.673l-7.062,1.137l-0.056-0.336c-0.016-0.168-0.184-0.296-0.368-0.256l-0.825,0.128c-0.168,0.04-0.296,0.184-0.256,0.368
		l0.48,2.954c0.016,0.096,0.056,0.168,0.128,0.208c0.096,0.056,0.168,0.072,0.24,0.056l0.817-0.128l1.994,12.074l-1.097,0.184
		c-0.184,0.016-0.296,0.184-0.256,0.368l0.28,1.729c0.04,0.168,0.184,0.296,0.368,0.256l1.169-0.184
		c0.168-0.04,0.296-0.184,0.256-0.368l-0.016-0.128c0.648,0.352,1.409,0.48,2.194,0.368
		C153.096,115.921,153.84,115.456,154.361,114.784 M164.449,99.644c-0.24-1.489-1.633-2.49-3.123-2.25
		c-1.489,0.24-2.49,1.633-2.266,3.123c0.152,0.889,0.705,1.617,1.449,1.986c-1.433,0.48-2.418,1.858-2.394,3.363
		c-0.705,0.28-1.137,1.025-1.001,1.785c0.112,0.688,0.632,1.185,1.265,1.337c-0.296,0.336-0.464,0.801-0.368,1.321
		c-0.561,0.152-0.929,0.689-0.833,1.265c0.112,0.617,0.673,1.041,1.297,0.929c0.504-0.072,0.873-0.48,0.929-0.969
		c0.112,0,0.24,0,0.368-0.016c0.833-0.128,1.409-0.929,1.281-1.761c-0.016-0.168-0.072-0.312-0.152-0.464
		c0.424,0.096,0.873,0.112,1.337,0.04c1.93-0.312,3.251-2.138,2.938-4.067c-0.04-0.224-0.096-0.464-0.184-0.673
		c0.648-0.504,1.001-1.337,0.873-2.21c-0.128-0.833-0.705-1.505-1.449-1.785C164.481,100.316,164.505,99.98,164.449,99.644
		 M147.227,103.543c-0.112-0.649-0.721-1.097-1.353-0.985c-0.649,0.112-1.097,0.705-0.985,1.353
		c0.112,0.649,0.721,1.097,1.377,0.985C146.891,104.808,147.339,104.199,147.227,103.543 M147.691,106.409
		c-0.112-0.649-0.721-1.097-1.353-0.985c-0.649,0.096-1.097,0.705-0.985,1.353c0.112,0.649,0.721,1.097,1.353,0.985
		C147.355,107.69,147.803,107.074,147.691,106.409 M148.156,109.283c-0.112-0.649-0.704-1.097-1.353-0.985
		c-0.648,0.112-1.097,0.721-0.985,1.353c0.112,0.649,0.721,1.097,1.377,0.985C147.819,110.548,148.268,109.94,148.156,109.283
		 M148.62,112.166c-0.096-0.649-0.704-1.097-1.353-0.985c-0.649,0.112-1.097,0.721-0.985,1.353c0.112,0.649,0.705,1.097,1.353,0.985
		C148.284,113.431,148.732,112.814,148.62,112.166"/>
	<path style="fill:#00A7C1;" d="M146.298,126.505c0.352-0.168,0.761-0.368,1.241-0.633c0.857-0.48,1.137-1.025,1.321-1.505
		c0.056,0.016,0.112,0.016,0.184-0.016c0.208-0.152,0.168,0.184,0.224,0.168c0.184-0.056,0.296-0.504,0.352-0.833
		c1.153,1.057,3.419,0.705,5.22-0.857c1.897-1.633,2.746-3.715,1.449-5.22c-1.297-1.505-3.491-0.945-5.372,0.689
		c-1.801,1.561-2.49,3.755-1.601,5.036c-0.336,0.016-0.801,0.056-0.873,0.24c-0.016,0.072,0.336,0.056,0.128,0.312
		c-0.24,0.256,0.352,0.072,0.24,0.168c-0.072,0.072-0.072,0.168-0.04,0.224c-0.208,0.48-0.464,1.001-1.321,1.489
		c-0.464,0.256-0.873,0.464-1.241,0.632c-0.633,0.296-1.081,0.52-1.321,0.857l0.072,0.056
		C145.241,127.026,145.682,126.802,146.298,126.505"/>
	<path style="fill:#00A7C1;" d="M156.923,130.813c0.016-1.057-1.241-1.545-1.241-1.545s1.321-0.352,1.393-1.409
		s-1.113-1.577-1.577-1.577c-0.368,0-1.153,0.112-1.818,0.464c-0.873,0.464-2.226,1.729-2.674,2.154
		c-0.168-0.168-0.48-0.448-0.617-0.368c-0.056,0.04,0.152,0.208-0.096,0.224c-0.24,0.016,0.152,0.208,0.056,0.208
		c-0.04,0-0.072,0.016-0.096,0.04c-0.208,0-0.392,0.04-0.592,0.056c-0.536,0.096-1.137,0.184-2.042-0.312
		c-0.48-0.256-0.857-0.504-1.185-0.721c-0.448-0.296-0.801-0.52-1.137-0.617c0.617-0.112,1.321-0.296,2.25-0.576
		c0.632-0.168,1.337-0.368,2.194-0.617c1.673-0.424,2.602-0.464,3.435-0.48c0.352-0.016,0.705-0.016,1.081-0.056
		c1.113-0.128,1.521-0.224,2.322-0.424c0.04,0.016,0.056,0.04,0.016,0.04c-0.152,0.04-0.152,0.256,0.04,0.256
		c0.184-0.016,0.04,0.184,0.096,0.208c0.152,0.04,0.424-0.28,0.576-0.464c0.368,1.561,2.138,2.53,3.979,2.17
		c1.914-0.368,3.251-1.649,2.882-3.603c-0.368-1.954-2.098-2.634-4.011-2.282c-1.858,0.352-3.123,1.898-2.898,3.491
		c-0.224-0.112-0.592-0.312-0.721-0.208c-0.056,0.04,0.208,0.168-0.04,0.24c-0.096,0.04-0.096,0.072-0.04,0.112
		c-0.721,0.184-1.137,0.28-2.194,0.392c-0.368,0.04-0.704,0.056-1.057,0.056c-0.833,0.016-1.785,0.056-3.475,0.504
		c-0.873,0.224-1.577,0.424-2.194,0.616c-1.057,0.296-1.841,0.52-2.49,0.592h-0.016l0,0h-0.016v0.072v0.016l0,0v0.016
		c0.016,0,0.016,0,0.04,0c0.392,0.056,0.801,0.312,1.353,0.673c0.336,0.224,0.721,0.464,1.185,0.721
		c0.929,0.52,1.545,0.408,2.082,0.336c0.184-0.04,0.368-0.056,0.561-0.056c0,0.056,0.04,0.096,0.112,0.112
		c0.168,0.04,0,0.184,0.04,0.208c0.112,0.056,0.368-0.096,0.561-0.24c0.04,0.016,0.096,0.016,0.128,0.04
		c0.448,0.504,1.729,1.898,2.394,2.378c0.632,0.464,1.377,0.617,1.761,0.649C155.642,132.286,156.883,131.894,156.923,130.813"/>
	<path style="fill:#00A7C1;" d="M185.29,110.981c-0.152,0.096-0.184,0.28-0.096,0.424l0.632,1.001
		c0.096,0.152,0.28,0.184,0.424,0.112l0,0c0.152-0.096,0.184-0.28,0.096-0.424l-0.633-1.001
		C185.642,110.925,185.434,110.869,185.29,110.981C185.29,110.957,185.29,110.957,185.29,110.981"/>
	<path style="fill:#00A7C1;" d="M187.7,110.644l-0.128,1.169c-0.016,0.168,0.112,0.312,0.28,0.336
		c0.072,0.016,0.152-0.016,0.208-0.04c0.072-0.056,0.128-0.128,0.152-0.224l0.128-1.169c0.016-0.168-0.112-0.336-0.28-0.352
		C187.868,110.348,187.724,110.476,187.7,110.644"/>
	<path style="fill:#00A7C1;" d="M185.218,113.951c0.056-0.04,0.112-0.096,0.128-0.168c0.056-0.168-0.04-0.336-0.208-0.392
		l-1.113-0.368c-0.168-0.056-0.336,0.04-0.392,0.208c-0.056,0.168,0.04,0.336,0.208,0.392l1.113,0.368
		C185.049,114.007,185.137,114.007,185.218,113.951"/>
	<path style="fill:#00A7C1;" d="M190.134,111.605l-0.833,0.833c-0.112,0.128-0.112,0.312,0,0.448
		c0.112,0.112,0.256,0.112,0.392,0.04c0.016-0.016,0.04-0.016,0.056-0.056l0.833-0.833c0.112-0.112,0.112-0.312,0-0.448
		C190.454,111.477,190.246,111.501,190.134,111.605"/>
	<path style="fill:#00A7C1;" d="M183.784,115.6c-0.168,0.056-0.24,0.224-0.184,0.392s0.224,0.24,0.392,0.208l1.113-0.368
		c0.016-0.016,0.056-0.016,0.072-0.04c0.112-0.072,0.168-0.224,0.128-0.352c-0.056-0.168-0.224-0.24-0.392-0.184L183.784,115.6z"/>
	<path style="fill:#00A7C1;" d="M183.416,128.699c-0.52,0.336-1.225,0.184-1.561-0.336c-0.336-0.52-0.184-1.225,0.336-1.561
		c0.52-0.352,1.225-0.184,1.577,0.336C184.081,127.658,183.937,128.363,183.416,128.699 M195.082,120.581
		c-0.112-0.184-0.368-0.24-0.576-0.128l-0.408,0.256l-0.889-1.353c-0.152-0.24-0.464-0.296-0.704-0.152l-1.113,0.721l-2.97-4.604
		c0.368-0.424,0.424-1.081,0.112-1.577c-0.392-0.617-1.209-0.801-1.818-0.392c-0.616,0.392-0.801,1.225-0.392,1.818
		c0.336,0.504,0.929,0.721,1.489,0.561l2.97,4.604l-1.745,1.137l-1.001-0.352l0.184-0.448l0.721,0.256
		c0.112,0.04,0.24,0.016,0.336-0.04c0.072-0.056,0.128-0.112,0.152-0.184c0.072-0.208-0.04-0.408-0.224-0.48l-2.138-0.745
		c-0.208-0.072-0.408,0.04-0.48,0.24c-0.072,0.208,0.04,0.408,0.24,0.48l0.673,0.224l-0.184,0.448l-1.225-0.424l-3.363,5.108
		l-0.833,0.536c-0.889,0.592-1.153,1.785-0.577,2.69l0.48,0.745l-0.448,0.296c-0.184,0.128-0.24,0.392-0.128,0.576l0.392,0.592
		c0.128,0.184,0.368,0.24,0.577,0.128l0.833-0.536l0.873-0.576l10.144-6.557l1.297-0.833l0.408-0.256
		c0.184-0.128,0.24-0.368,0.128-0.576L195.082,120.581z"/>
	<path style="fill:#00A7C1;" d="M153.096,93.214c-0.04,0-0.056,0.04-0.056,0.072l0.24,1.137c0,0.04,0.04,0.056,0.072,0.056
		l0.408-0.072l0.072,0.336c0,0.04,0.04,0.056,0.072,0.056l1.321-0.28c0.04,0,0.056-0.04,0.056-0.072l-0.072-0.336l0.408-0.096
		c0.04-0.016,0.056-0.04,0.056-0.072l-0.224-1.001l1.689-3.123c0.072,0.016,0.128,0.016,0.208,0l1.153-0.24l0.128,0.632
		c0.016,0.096,0.016,0.184,0,0.256l-0.28,1.353c-0.016,0.072,0.016,0.168,0.072,0.224l0.689,0.745
		c0.056,0.056,0.096,0.152,0.112,0.224l0.352,1.705c0,0.04,0.016,0.056,0.056,0.072l-0.24,0.056
		c-0.112,0.016-0.208,0.112-0.224,0.24l-0.312,1.761c-0.016,0.096,0.072,0.184,0.168,0.152l3.715-0.777
		c0.096-0.016,0.128-0.128,0.072-0.208l-1.001-1.489c-0.072-0.096-0.184-0.152-0.312-0.128l-0.24,0.056
		c0.016-0.016,0.016-0.056,0.016-0.072l-0.352-1.705c-0.016-0.072-0.016-0.168,0.016-0.256l0.312-1.041
		c0.016-0.072,0.016-0.168-0.04-0.24l-0.777-1.057c-0.056-0.072-0.096-0.152-0.112-0.24l-0.128-0.633l1.113-0.24
		c0.072-0.016,0.152-0.056,0.208-0.112l2.842,2.17l0.208,1.001c0.016,0.04,0.04,0.056,0.072,0.056l0.408-0.096l0.072,0.336
		c0,0.04,0.04,0.056,0.072,0.056l1.321-0.28c0.04-0.016,0.056-0.04,0.056-0.072l-0.072-0.336l0.408-0.096
		c0.04,0,0.056-0.04,0.056-0.072l-0.24-1.137c-0.016-0.04-0.056-0.056-0.072-0.056l-1.729,0.368l-3.066-2.378l0.592-1.057
		l3.026,1.057l0.184,0.833c0,0.04,0.04,0.056,0.072,0.056l0.408-0.096l0.072,0.336c0,0.04,0.04,0.056,0.072,0.056l1.321-0.28
		c0.04-0.016,0.056-0.04,0.056-0.072l-0.072-0.336l0.408-0.096c0.04,0,0.056-0.04,0.056-0.072l-0.24-1.137
		c0-0.04-0.04-0.056-0.072-0.056l-1.785,0.368l-3.195-1.137l1.097-1.97c0.04-0.072-0.016-0.152-0.096-0.128l-2.01,0.424
		l-1.954-1.465c-0.112-0.072-0.24-0.112-0.352-0.072l-2.266,0.48c-0.128,0.016-0.24,0.112-0.296,0.224l-1.185,2.138l-2.25,0.48
		c-0.072,0.016-0.096,0.112-0.04,0.168l1.818,1.377l-2.45,2.306l-1.785,0.368c-0.04,0.016-0.056,0.056-0.056,0.072l0.24,1.137
		c0,0.04,0.04,0.056,0.072,0.056l0.424-0.096l0.072,0.336c0,0.04,0.04,0.056,0.072,0.056l1.321-0.28c0.04,0,0.056-0.04,0.056-0.072
		l-0.072-0.336l0.408-0.096c0.04,0,0.056-0.04,0.056-0.072l-0.184-0.833l2.306-2.17l0.985,0.745l-1.842,3.403L153.096,93.214z"/>
</g>
</svg>
