<?xml version="1.0" encoding="iso-8859-1"?>
<!-- Generator: Adobe Illustrator 21.1.0, SVG Export Plug-In . SVG Version: 6.00 Build 0)  -->
<svg version="1.1" id="Layer_1" xmlns="http://www.w3.org/2000/svg" xmlns:xlink="http://www.w3.org/1999/xlink" x="0px" y="0px"
	 viewBox="0 0 231 231" style="enable-background:new 0 0 231 231;" xml:space="preserve">
<g>
	<path style="fill:#0B7ABF;" d="M115.612,146.193c-10.464,0-20.927,0-31.36,0.03c-1.001,0-1.668-0.303-2.305-1.062
		c-8.25-9.554-16.499-19.107-24.809-28.631c-0.607-0.698-0.637-1.122-0.03-1.85c8.371-9.675,16.681-19.35,25.022-29.055
		c0.546-0.637,1.153-0.849,1.941-0.849c21.018,0.03,42.036,0.03,63.055,0c0.849,0,1.365,0.273,1.911,0.91
		c8.25,9.675,16.529,19.35,24.809,29.025c0.637,0.758,0.667,1.183,0,1.971c-8.31,9.523-16.56,19.047-24.809,28.631
		c-0.576,0.698-1.183,0.91-2.062,0.91C136.539,146.163,126.076,146.193,115.612,146.193z"/>
	<path style="fill:#FEFEFE;" d="M115.582,87.961c9.918,0,19.805,0,29.723-0.03c0.94,0,1.577,0.243,2.184,0.971
		c7.37,8.674,14.74,17.318,22.14,25.932c0.576,0.667,0.728,1.061,0.061,1.85c-7.4,8.492-14.77,16.984-22.14,25.537
		c-0.667,0.758-1.335,1.031-2.335,1.031c-19.805-0.03-39.61-0.03-59.445,0c-1.031,0-1.668-0.334-2.305-1.092
		c-7.37-8.523-14.74-17.045-22.14-25.537c-0.698-0.789-0.576-1.213,0.061-1.941c7.461-8.613,14.922-17.288,22.353-25.962
		c0.576-0.667,1.153-0.819,1.971-0.819C95.686,87.961,105.634,87.961,115.582,87.961z"/>
	<path style="fill:#0B7ABF;" d="M85.222,120.474c0,1.577-0.03,3.124,0,4.701c0.03,0.698-0.182,0.94-0.91,0.97
		c-2.942,0.152-2.942,0.182-2.942-2.73c0-7.006,0.03-14.043-0.03-21.049c0-1.122,0.243-1.516,1.426-1.426
		c1.668,0.121,3.336,0,5.004,0.091c3.943,0.212,6.066,2.426,6.187,6.369c0.061,1.911-0.243,3.731-1.668,5.156
		c-0.303,0.303-0.546,0.546-0.091,0.971c1.274,1.122,1.547,2.699,1.698,4.246c0.212,2.548,0.334,5.126,0.516,7.704
		c0.03,0.303,0.152,0.637-0.334,0.637c-1.001,0.03-2.032,0.061-3.033,0c-0.667-0.03-0.516-0.667-0.546-1.061
		c-0.182-2.062-0.334-4.125-0.455-6.187c-0.061-0.97-0.212-1.911-0.698-2.76c-0.667-1.213-2.396-1.85-3.67-1.426
		c-0.546,0.182-0.455,0.607-0.455,0.97C85.222,117.229,85.222,118.836,85.222,120.474z"/>
	<path style="fill:#0B7ABF;" d="M130.109,108.282c0.576-0.212,0.91-0.334,1.244-0.455c3.7-1.335,7.036,0.758,7.158,4.671
		c0.152,4.246,0.03,8.492,0.061,12.738c0,0.637-0.152,0.849-0.849,0.91c-3.063,0.212-3.063,0.243-3.063-2.79
		c0-3.336,0-6.672-0.03-10.009c0-0.971-0.364-1.759-1.304-2.184c-0.819-0.364-1.577-0.273-2.305,0.212
		c-0.819,0.546-0.91,1.365-0.91,2.275c0.03,3.7-0.03,7.37,0.03,11.07c0.03,1.122-0.243,1.486-1.395,1.426
		c-2.487-0.091-2.487,0-2.487-2.457c0-7.067,0.03-14.133-0.03-21.231c0-1.274,0.212-1.789,1.638-1.729
		c2.244,0.121,2.244,0.03,2.244,2.244C130.109,104.703,130.109,106.401,130.109,108.282z"/>
	<path style="fill:#0B7ABF;" d="M149.247,117.987c-1.122,0-2.214,0.03-3.336,0c-0.819-0.03-1.092,0.243-0.971,1.061
		c0.121,0.789,0.121,1.607,0.303,2.396c0.243,1.092,0.94,1.789,2.123,1.789c1.152,0,1.668-0.758,2.032-1.729
		c0.182-0.546-0.091-1.426,0.607-1.577c0.971-0.182,2.002-0.121,3.003-0.03c0.607,0.061,0.334,0.637,0.303,1.001
		c-0.394,3.306-2.578,5.55-5.49,5.641c-3.488,0.121-5.823-1.607-6.369-5.095c-0.485-3.033-0.576-6.126,0.152-9.159
		c0.728-3.063,2.699-4.671,5.641-4.762c2.79-0.061,4.974,1.668,5.823,4.58c0.485,1.668,0.394,3.397,0.455,5.095
		c0,0.698-0.273,0.849-0.91,0.849C151.461,117.957,150.369,117.957,149.247,117.987z"/>
	<path style="fill:#0B7ABF;" d="M109.152,117.259c-0.121,1.335-0.152,2.851-0.425,4.337c-0.637,3.215-2.881,4.913-6.126,4.883
		c-3.033-0.03-5.217-1.789-5.793-4.913c-0.546-2.942-0.546-5.944,0-8.886c0.637-3.427,2.851-5.277,6.036-5.217
		c3.306,0.061,5.459,2.123,5.944,5.702C109,114.438,109.031,115.743,109.152,117.259z"/>
	<path style="fill:#0B7ABF;" d="M111.457,117.077c0.121-1.911-0.03-3.822,0.667-5.672c0.971-2.548,2.79-3.913,5.49-3.943
		c2.699-0.03,4.822,1.365,5.763,3.852c1.122,3.003,0.728,3.548-2.426,3.367c-0.637-0.03-0.91-0.182-0.91-0.849
		c0-0.546-0.121-1.122-0.303-1.638c-0.334-0.88-1.001-1.365-1.971-1.365s-1.638,0.455-1.971,1.365
		c-0.091,0.243-0.212,0.485-0.212,0.728c-0.243,2.669-0.334,5.338-0.03,8.007c0.152,1.213,0.789,2.244,2.214,2.275
		c1.365,0.03,2.032-0.94,2.123-2.123c0.091-1.365,0.758-1.547,1.911-1.516c2.396,0.091,2.396,0.03,1.85,2.335
		c-0.819,3.306-2.972,4.792-6.642,4.58c-2.821-0.152-4.974-2.366-5.368-5.611C111.487,119.594,111.487,118.321,111.457,117.077z"/>
	<path style="fill:#FDFDFE;" d="M85.222,107.827c0-0.455-0.091-0.94,0.03-1.365c0.182-0.728-0.607-1.82,0.576-2.153
		c1.516-0.455,3.336,0.212,3.852,1.365c0.637,1.486,0.607,3.063-0.243,4.489c-0.728,1.243-2.002,1.092-3.215,1.152
		c-0.849,0.03-1.031-0.334-1.001-1.092C85.252,109.434,85.222,108.615,85.222,107.827z"/>
	<path style="fill:#F8FBFC;" d="M147.306,114.863c-0.698-0.576-2.244,0.819-2.305-1.061c-0.03-1.759,0.971-3.003,2.305-3.003
		c1.395-0.03,2.457,1.244,2.305,3.124C149.52,115.682,148.004,114.256,147.306,114.863z"/>
	<path style="fill:#FDFEFE;" d="M105.148,116.986c0,1.395,0.091,2.821-0.243,4.216c-0.273,1.122-0.849,1.971-2.123,1.971
		c-1.274,0-1.941-0.849-2.123-1.971c-0.455-2.79-0.425-5.641-0.03-8.432c0.152-1.152,0.849-1.941,2.123-1.941
		c1.335,0.03,1.941,0.849,2.184,2.093C105.209,114.256,105.148,115.621,105.148,116.986z"/>
</g>
</svg>
