<?xml version="1.0" encoding="utf-8"?>
<!-- Generator: Adobe Illustrator 21.1.0, SVG Export Plug-In . SVG Version: 6.00 Build 0)  -->
<svg version="1.1" id="Layer_1" xmlns="http://www.w3.org/2000/svg" xmlns:xlink="http://www.w3.org/1999/xlink" x="0px" y="0px"
	 viewBox="0 0 227 68" style="enable-background:new 0 0 227 68;" xml:space="preserve">
<style type="text/css">
	.st0{fill:#FFFFFF;}
	.st1{fill:#A0A9AD;}
</style>
<g>
	<rect x="225" y="1.1" class="st0" width="2" height="33.3"/>
	<rect x="191.7" y="1.1" class="st0" width="2" height="33.3"/>
	<rect x="158.4" y="1.1" class="st0" width="2" height="33.3"/>
	<polygon class="st0" points="95.9,1.1 95.9,34.3 127.1,34.3 127.1,32.3 97.9,32.3 97.9,3.1 127.1,3.1 127.1,1.1 	"/>
	<polygon class="st0" points="0,1.1 0,3.1 29.3,3.1 29.3,32.3 0,32.3 0,34.3 31.3,34.3 31.3,1.1 	"/>
	<rect x="62.6" y="1.1" class="st0" width="2" height="33.3"/>
	<rect x="64.6" y="39.3" class="st0" width="5" height="2"/>
	<rect x="57.6" y="39.3" class="st0" width="5" height="2"/>
	<path class="st1" d="M5.9,59.7c-3.1-0.7-3.7-1.4-3.7-2.7c0-1.3,1.2-2.2,2.9-2.2c1.5,0,2.7,0.5,4,1.5l0.9-1.2
		c-1.5-1.2-2.9-1.7-4.9-1.7c-2.6,0-4.6,1.6-4.6,3.8c0,2.2,1.3,3.3,4.6,4c3,0.6,3.6,1.4,3.6,2.6c0,1.4-1.2,2.3-3,2.3
		c-1.8,0-3.2-0.6-4.7-1.9l-1,1.2c1.7,1.5,3.5,2.2,5.6,2.2c2.8,0,4.7-1.6,4.7-4C10.4,61.6,9,60.4,5.9,59.7"/>
	<path class="st1" d="M220.1,65.8H217V55.2h3.1c2.9,0,5.3,2.4,5.3,5.3C225.4,63.5,223.1,65.8,220.1,65.8 M220.1,53.6H217h-1.6v13.8
		h0h4.7c3.8,0,6.9-3.1,6.9-6.9C227,56.7,223.9,53.6,220.1,53.6"/>
	<path class="st1" d="M60.5,62.4l3-6.8l3,6.8H60.5z M62.7,53.6l-6.1,13.8h1.7l1.6-3.5h7.5l1.5,3.5h1.7l-6.1-13.8H62.7z"/>
	<polygon class="st1" points="112.5,67.4 122,67.4 122,65.8 114,65.8 114,61.3 121.5,61.3 121.5,59.7 114,59.7 114,55.2 122,55.2 
		122,53.6 112.5,53.6 	"/>
	<polygon class="st1" points="164,67.4 173.5,67.4 173.5,65.8 165.5,65.8 165.5,61.3 173,61.3 173,59.7 165.5,59.7 165.5,55.2 
		173.5,55.2 173.5,53.6 164,53.6 	"/>
</g>
</svg>
