<?xml version="1.0" encoding="iso-8859-1"?>
<!-- Generator: Adobe Illustrator 21.1.0, SVG Export Plug-In . SVG Version: 6.00 Build 0)  -->
<svg version="1.1" id="Layer_1" xmlns="http://www.w3.org/2000/svg" xmlns:xlink="http://www.w3.org/1999/xlink" x="0px" y="0px"
	 viewBox="0 0 231 231" style="enable-background:new 0 0 231 231;" xml:space="preserve">
<g>
	<g>
		<path style="fill:#FCBD1B;" d="M112.685,82.59l1.281-15.63v-8.289c0-0.171-0.171-0.279-0.279-0.279h-2.445
			c-0.171,0-0.279,0.171-0.279,0.279v8.234l1.281,15.63C112.235,82.706,112.685,82.706,112.685,82.59z M106.616,82.59l1.28-12.627
			v-6.395c0-0.171-0.171-0.279-0.279-0.279h-2.445c-0.171,0-0.279,0.171-0.279,0.279v6.395l1.281,12.627
			C106.174,82.869,106.616,82.869,106.616,82.59z M118.637,82.59l1.281-15.63v-8.289c0-0.171-0.171-0.279-0.279-0.279h-2.445
			c-0.171,0-0.279,0.171-0.279,0.279v8.234l1.281,15.63C118.358,82.706,118.637,82.706,118.637,82.59z M100.663,82.869l1.172-8.848
			v-6.395c0-0.171-0.171-0.279-0.279-0.279H99.22c-0.171,0-0.279,0.171-0.279,0.279v6.395l1.172,8.848
			C100.112,83.32,100.663,83.32,100.663,82.869z M94.711,83.428l1.172-8.677l0,0c0-0.171-0.171-0.279-0.279-0.279H93.43
			c-0.171,0-0.279,0.171-0.279,0.279l0,0l1.172,8.677C93.989,83.708,94.602,83.708,94.711,83.428z M124.699,82.59l1.281-12.627
			v-6.395c0-0.171-0.171-0.279-0.279-0.279h-2.445c-0.171,0-0.279,0.171-0.279,0.279v6.395l1.281,12.627
			C124.311,82.869,124.699,82.869,124.699,82.59z M136.883,83.428l1.172-8.677l0,0c0-0.171-0.171-0.279-0.279-0.279h-2.336
			c-0.171,0-0.279,0.171-0.279,0.279l0,0l1.172,8.677C136.324,83.708,136.883,83.708,136.883,83.428z M130.931,82.869l1.172-8.848
			v-6.395c0-0.171-0.171-0.279-0.279-0.279h-2.445c-0.171,0-0.279,0.171-0.279,0.279v6.395l1.172,8.848
			C130.209,83.32,130.814,83.32,130.931,82.869z M138.047,96.055l-1.164-8.677c0-0.442-0.559-0.442-0.722,0l-1.172,8.677l0,0
			c0,0.171,0.171,0.279,0.279,0.279h2.173C137.884,96.505,138.047,96.334,138.047,96.055L138.047,96.055z M94.711,87.378
			c0-0.442-0.559-0.442-0.722,0l-1.172,8.677l0,0c0,0.171,0.171,0.279,0.279,0.279h2.173c0.171,0,0.279-0.171,0.279-0.279l0,0
			L94.711,87.378z M100.112,87.937l-1.172,8.847v6.395c0,0.171,0.171,0.279,0.279,0.279h2.445c0.171,0,0.279-0.171,0.279-0.279
			v-6.395l-1.172-8.847C100.663,87.487,100.221,87.487,100.112,87.937z M112.235,88.209l-1.281,15.63v8.296
			c0,0.171,0.171,0.279,0.279,0.279h2.445c0.171,0,0.279-0.171,0.279-0.279v-8.234l-1.28-15.692
			C112.685,88.1,112.406,88.1,112.235,88.209z M124.311,88.209l-1.281,12.627v6.395c0,0.171,0.171,0.279,0.279,0.279h2.445
			c0.171,0,0.279-0.171,0.279-0.279v-6.395l-1.335-12.627C124.862,87.937,124.419,87.937,124.311,88.209z M118.358,88.209
			l-1.281,15.63v8.296c0,0.171,0.171,0.279,0.279,0.279h2.445c0.171,0,0.279-0.171,0.279-0.279v-8.234L118.8,88.209
			C118.8,88.1,118.358,88.1,118.358,88.209z M106.174,88.209l-1.281,12.627v6.395c0,0.171,0.171,0.279,0.279,0.279h2.445
			c0.171,0,0.279-0.171,0.279-0.279v-6.395l-1.28-12.627C106.732,87.937,106.337,87.937,106.174,88.209z M130.209,87.937
			l-1.172,8.847v6.395c0,0.171,0.171,0.279,0.279,0.279h2.445c0.171,0,0.279-0.171,0.279-0.279v-6.395l-1.172-8.847
			C130.931,87.487,130.372,87.487,130.209,87.937z"/>
		<path style="fill:#AAAAAA;" d="M142.114,85.205l-11.571-0.442h-30.267l-11.572,0.442c-0.171,0-0.279,0.171-0.279,0.279
			c0,0.109,0.171,0.279,0.279,0.279l11.572,0.442h30.267l11.571-0.442c0.171,0,0.279-0.171,0.279-0.279
			C142.393,85.376,142.277,85.205,142.114,85.205z"/>
	</g>
	<g>
		<path style="opacity:0.2;fill:#AAAAAA;enable-background:new    ;" d="M64.281,170.994c1.281,0.171,2.336,0.279,3.337,0.279
			c2.173,0,3.617-0.442,4.618-1.281c1.001-0.893,1.444-2.002,1.444-3.174c0-0.893-0.279-1.723-0.722-2.445
			c-0.442-0.722-1.614-1.614-3.337-2.445l-1.172-0.559c-1.001-0.559-1.614-1.001-1.894-1.281c-0.279-0.279-0.442-0.722-0.442-1.001
			c0-0.442,0.171-0.893,0.559-1.172c0.559-0.442,1.172-0.559,2.002-0.559c0.559,0,1.444,0.171,2.445,0.442l1.28,0.442
			c0,0,0.171,0,0.171-0.171v-2.173c0,0,0-0.171-0.171-0.171l-1.28-0.279l0,0l0,0c-1.001-0.171-1.894-0.279-2.724-0.279
			c-1.723,0-2.895,0.442-3.896,1.281c-0.893,0.892-1.281,1.894-1.281,3.058c0,0.893,0.279,1.723,0.892,2.445
			c0.559,0.722,1.614,1.444,3.058,2.336l1.001,0.559c1.001,0.559,1.614,1.001,1.894,1.281c0,0.279,0.171,0.722,0.171,1.172
			c0,0.559-0.279,1.001-0.722,1.444c-0.442,0.442-1.172,0.559-2.002,0.559c-0.442,0-1.001,0-1.614-0.171
			c-0.442,0-1.001-0.279-1.614-0.442"/>
		<path style="fill:#AAAAAA;" d="M88.37,155.472h-3.058c0,0-0.171,0-0.171,0.171v6.061c0,0,0,0.171-0.171,0.171H78.91
			c0,0-0.171,0-0.171-0.171v-6.061c0,0,0-0.171-0.171-0.171h-2.895c0,0-0.171,0-0.171,0.171v15.242c0,0,0,0.171,0.171,0.171h3.058
			c0,0,0.171,0,0.171-0.171v-6.791c0,0,0-0.171,0.171-0.171h6.232c0,0,0.171,0,0.171,0.171v6.791c0,0,0,0.171,0.171,0.171h3.058
			c0,0,0.171,0,0.171-0.171L88.37,155.472L88.37,155.472z M129.93,156.031c-1.172-0.722-2.615-1.001-4.23-1.001
			c-1.614,0-3.058,0.279-4.23,1.001c-1.172,0.722-2.173,1.614-2.724,2.895c-0.559,1.281-0.892,2.615-0.892,4.23
			c0,1.614,0.279,3.058,0.892,4.23c0.559,1.281,1.614,2.173,2.724,2.895c1.172,0.722,2.615,1.001,4.23,1.001
			c1.614,0,3.058-0.279,4.23-1.001c1.172-0.722,2.002-1.614,2.724-2.895c0.559-1.281,0.892-2.615,0.892-4.23
			c0-1.614-0.279-3.058-0.892-4.23C132.095,157.645,131.094,156.753,129.93,156.031z M129.091,167.377
			c-0.722,1.172-1.894,1.894-3.337,1.894c-1.443,0-2.615-0.559-3.337-1.894c-0.722-1.172-1.172-2.615-1.172-4.23
			c0-1.614,0.442-3.058,1.172-4.23c0.722-1.172,1.894-1.894,3.337-1.894c1.444,0,2.615,0.559,3.337,1.894
			c0.722,1.172,1.172,2.615,1.172,4.23C130.209,164.762,129.813,166.213,129.091,167.377z M167.205,158.98
			c-0.559-1.28-1.614-2.173-2.724-2.895c-1.11-0.722-2.615-1.001-4.23-1.001c-1.614,0-3.058,0.279-4.23,1.001
			c-1.172,0.722-2.173,1.614-2.724,2.895c-0.551,1.281-0.892,2.615-0.892,4.23c0,1.614,0.279,3.058,0.892,4.23
			c0.559,1.281,1.614,2.173,2.724,2.895c1.172,0.722,2.615,1.001,4.23,1.001c0.442,0,0.893,0,1.281-0.171l0.892,1.444h3.508
			l-1.723-2.173c0,0,0.171,0,0.171-0.171c1.172-0.722,2.002-1.614,2.724-2.895c0.559-1.28,0.892-2.615,0.892-4.23
			C168.035,161.533,167.756,160.261,167.205,158.98z M163.588,167.657c-0.171,0.279-0.279,0.442-0.442,0.559
			c-0.171,0.171-0.171,0.279-0.279,0.442l-1.172-1.444h-2.615l1.28,2.002c-0.171,0-0.442,0-0.442,0
			c-1.281-0.171-2.336-0.722-3.058-1.894s-1.172-2.615-1.172-4.23c0-1.614,0.442-3.058,1.172-4.23
			c0.722-1.172,1.894-1.894,3.337-1.894s2.615,0.559,3.337,1.894c0.722,1.172,1.172,2.615,1.172,4.23
			C164.589,164.762,164.31,166.322,163.588,167.657z M147.065,156.031c-1.172-0.722-2.615-1.001-4.23-1.001
			c-1.614,0-3.058,0.279-4.23,1.001c-1.172,0.722-2.173,1.614-2.724,2.895c-0.559,1.281-0.892,2.615-0.892,4.23
			c0,1.614,0.279,3.058,0.892,4.23c0.559,1.281,1.614,2.173,2.724,2.895c1.172,0.722,2.615,1.001,4.23,1.001
			c1.614,0,3.058-0.279,4.23-1.001c1.172-0.722,2.002-1.614,2.724-2.895c0.559-1.281,0.892-2.615,0.892-4.23
			c0-1.614-0.279-3.058-0.892-4.23C149.231,157.645,148.346,156.753,147.065,156.031z M146.336,167.377
			c-0.722,1.172-1.894,1.894-3.337,1.894s-2.615-0.559-3.337-1.894c-0.722-1.172-1.172-2.615-1.172-4.23
			c0-1.614,0.442-3.058,1.172-4.23c0.722-1.172,1.894-1.894,3.337-1.894s2.615,0.559,3.337,1.894
			c0.722,1.172,1.172,2.615,1.172,4.23C147.345,164.762,147.065,166.213,146.336,167.377z M102.999,155.472h-2.615
			c0,0-0.171,0-0.171,0.171v9.569c0,1.614-0.279,2.615-0.892,3.174c-0.559,0.559-1.281,0.893-2.173,0.893
			c-0.893,0-1.723-0.279-2.336-0.893c-0.559-0.559-0.893-1.723-0.893-3.508v-9.398c0,0,0-0.171-0.171-0.171h-3.042
			c0,0-0.171,0-0.171,0.171v9.398c0,1.723,0.279,3.058,0.893,3.896c0.559,0.893,1.281,1.444,2.173,1.894
			c0.893,0.442,2.002,0.559,3.337,0.559c1.335,0,2.336-0.279,3.174-0.722c0.893-0.442,1.444-1.001,1.894-1.894
			c0.442-0.722,0.722-2.002,0.722-3.896L102.999,155.472C103.116,155.472,103.116,155.472,102.999,155.472z M113.29,164.04
			C113.127,164.04,113.127,163.877,113.29,164.04c1.894-0.722,3.058-2.336,3.058-4.338s-1.444-4.23-4.781-4.23h-5.673
			c0,0-0.171,0-0.171,0.171v15.242c0,0,0,0.171,0.171,0.171h2.724c0,0,0.171,0,0.171-0.171v-6.061c0,0,0-0.171,0.171-0.171h1.172
			c0,0,0.171,0,0.171,0.171l4.059,6.061l0.171,0.171h3.617c0,0,0.171,0,0-0.171L113.29,164.04z M109.511,162.426h-0.559
			c0,0-0.171,0-0.171-0.171v-4.618c0,0,0-0.171,0.171-0.171h1.001c0.893,0,1.614,0,2.002,0.279c0.893,0.279,1.281,1.172,1.281,2.002
			C113.127,161.867,111.513,162.426,109.511,162.426z M69.62,161.867l-1.172-0.559c-1.001-0.559-1.614-1.001-1.894-1.281
			c-0.279-0.279-0.442-0.722-0.442-1.001c0-0.442,0.171-0.893,0.559-1.172c0.559-0.442,1.172-0.559,2.002-0.559
			c1.444,0,3.78,0.893,3.78,0.893s0.171,0,0.171-0.171v-2.173c0,0,0-0.171-0.171-0.171c0,0-2.173-0.559-4.059-0.559
			c-1.723,0-2.895,0.442-3.896,1.281c-0.892,0.892-1.281,1.894-1.281,3.058c0,0.893,0.279,1.723,0.893,2.445
			c0.559,0.722,1.614,1.444,3.058,2.336l1.001,0.559c1.001,0.559,1.614,1.001,1.894,1.281c0,0.279,0.171,0.722,0.171,1.172
			c0,0.559-0.279,1.001-0.722,1.444c-0.442,0.442-1.444,0.893-3.617,0.442c-1.001-0.171-2.615-0.893-2.615-0.893
			s-0.171,0-0.171,0.171v2.445c0,0,0,0.171,0.171,0.171c0,0,2.173,0.442,4.23,0.442c2.173,0,3.617-0.442,4.618-1.281
			c1.001-0.893,1.444-2.002,1.444-3.174c0-0.893-0.279-1.723-0.722-2.445C72.569,163.598,71.405,162.876,69.62,161.867z"/>
		<path style="fill:#AAAAAA;" d="M73.291,124.871c1.172,0,2.002-0.893,2.002-1.894c0-1.172-0.893-1.894-2.002-1.894
			c-1.001,0-1.894,0.893-1.894,1.894C71.405,124.149,72.235,124.871,73.291,124.871z M80.974,127.766h-4.509
			c-2.173,0-4.059,0.722-5.51,2.173c-1.281,1.444-2.002,3.337-2.002,5.673c0,4.059,2.173,6.511,5.51,6.511
			c1.172,0,2.336-0.171,3.508-0.442c-0.171,3.174-1.723,4.781-4.951,4.781c-4.618,0-6.954-2.724-6.954-8.126v-1.614
			c0,0,0-0.171-0.171-0.171h-2.615c-0.171,0-0.279,0.171-0.279,0.171v1.614c0,6.511,3.508,10.128,9.849,10.128
			c5.673,0,8.397-2.336,8.397-7.124v-13.465C81.246,127.937,81.083,127.766,80.974,127.766z M77.909,139.12
			c-0.893,0.279-1.723,0.442-2.615,0.442c-2.002,0-3.058-1.444-3.058-4.338c0-3.508,1.281-5.231,3.896-5.231h1.444
			c0.171,0,0.279,0.171,0.279,0.279v8.848L77.909,139.12L77.909,139.12z M78.467,124.871c1.172,0,1.894-0.893,1.894-1.894
			c0-1.172-0.893-1.894-1.894-1.894c-1.001,0-2.002,0.893-2.002,1.894C76.465,124.149,77.358,124.871,78.467,124.871z"/>
		<path style="fill:#AAAAAA;" d="M95.712,128.1h-4.781c-2.173,0-3.896,0.722-5.231,2.336c-1.172,1.444-1.894,3.337-1.894,5.51
			c0,1.723,0.442,3.174,1.444,4.509c1.001,1.281,2.336,2.002,3.896,2.002c1.172,0,2.336-0.171,3.508-0.559
			c-0.279,3.058-1.723,4.951-4.23,5.51c-0.171,0-0.171,0.171-0.171,0.279c0,0.109,0.442,1.001,0.442,1.001l0,0
			c0,0.171,0.171,0.171,0.279,0.171l0,0c4.338-1.172,6.674-3.896,6.674-8.397v-12.029C95.883,128.216,95.883,128.1,95.712,128.1z
			 M92.817,139.671c-0.893,0.279-1.894,0.559-2.724,0.559c-2.002,0-3.058-1.614-3.058-4.781c0-3.337,1.444-5.339,4.059-5.339h1.444
			c0.171,0,0.279,0.171,0.279,0.279V139.671z"/>
		<path style="fill:#AAAAAA;" d="M157.636,122.985c0,1.172,0.893,1.894,1.894,1.894c1.172,0,2.002-0.893,2.002-1.894
			c0-1.172-0.892-1.894-2.002-1.894C158.466,121.146,157.636,121.984,157.636,122.985z M157.023,119.982
			c1.172,0,1.894-0.893,1.894-1.894c0-1.172-0.892-2.002-1.894-2.002s-1.894,0.893-1.894,2.002
			C155.02,119.252,155.851,119.982,157.023,119.982z M154.407,125.042c1.172,0,1.894-0.893,1.894-1.894
			c0-1.172-0.893-1.894-1.894-1.894c-1.001,0-2.002,0.893-2.002,1.894C152.568,124.149,153.406,125.042,154.407,125.042z"/>
		<path style="fill:#AAAAAA;" d="M145.28,141.402c1.444,0,2.615-0.442,3.508-1.172c0.279-0.279,0.442-0.442,0.559-0.722
			c1.281,1.281,2.724,1.894,4.338,1.894c1.723,0,3.058-0.559,3.896-1.894c1.172,1.172,2.615,1.894,4.338,1.894
			c2.724,0,4.618-1.894,4.618-4.618v-8.677c0-0.171-0.171-0.171-0.279-0.171l-3.337,0.722c-0.171,0-0.171,0.171-0.171,0.279
			l0.559,3.78c0,0.171,0,0.279,0,0.442v3.058c0,1.723-0.722,2.445-2.336,2.445c-1.001,0-1.894-0.442-2.724-1.172v-8.126
			c0-0.171-0.171-0.171-0.279-0.171l-2.724,0.559c-0.171,0-0.279,0.171-0.279,0.279v6.007c0,1.723-0.722,2.445-2.336,2.445
			c-1.172,0-2.002-0.442-2.895-1.172v-7.955c0-0.171-0.171-0.171-0.279-0.171l-2.724,0.559c-0.171,0-0.279,0.171-0.279,0.279v6.007
			c0,1.723-0.722,2.445-2.336,2.445h-38.106c-1.614,0-2.336-0.893-2.336-2.615v-7.815c0-0.171-0.171-0.171-0.279-0.171l-3.337,0.722
			l0,0c-0.171,0-0.171,0.171-0.171,0.279l0,0l0.559,4.059v7.955c0,4.618-3.337,5.673-4.23,6.061c-0.171,0-0.171,0.171-0.171,0.279
			l0.559,0.893c0,0.171,0.171,0.171,0.279,0.171c3.896-1.172,6.232-3.508,6.674-6.954v-0.171c0,0,0.171,0,0.279,0
			c0.279,0,0.893,0.171,1.28,0.171C105.281,141.402,145.28,141.402,145.28,141.402z"/>
	</g>
</g>
</svg>
