<?xml version="1.0" encoding="iso-8859-1"?>
<!-- Generator: Adobe Illustrator 21.1.0, SVG Export Plug-In . SVG Version: 6.00 Build 0)  -->
<svg version="1.1" id="Layer_1" xmlns="http://www.w3.org/2000/svg" xmlns:xlink="http://www.w3.org/1999/xlink" x="0px" y="0px"
	 viewBox="0 0 231 231" style="enable-background:new 0 0 231 231;" xml:space="preserve">
<g>
	<g>
		<path style="fill:#001E4E;" d="M81.017,60.873c0,0,1.354,0.148,3.544,2.067c2.141,1.92,3.273,2.707,3.273,2.707
			s8.171-0.911,17.598-0.295C99.108,60.651,89.386,60.085,81.017,60.873z"/>
	</g>
	<g>
		<path style="fill:#FFFFFF;" d="M105.433,65.327c-9.501-0.64-17.598,0.295-17.598,0.295s4.898,2.83,6.449,2.757
			C98.049,68.182,103.218,67.469,105.433,65.327z"/>
	</g>
	<g>
		<g>
			<path style="fill:#0099D9;" d="M92.438,56.393c-7.728-0.074-11.42,4.48-11.42,4.48c8.368-0.714,18.09-0.222,24.416,4.48
				C105.482,64.835,103.587,56.467,92.438,56.393z"/>
		</g>
	</g>
	<g>
		<path style="fill:#E89051;" d="M87.811,65.623c0,0-1.132-0.788-3.273-2.707c-2.141-1.92-3.544-2.067-3.544-2.067
			c-8.861,0.788-16.318,2.904-16.318,2.904s12.848,4.553,24.982,4.627c0,0,1.994,0.074,4.553-0.074
			C92.709,68.453,87.811,65.623,87.811,65.623z"/>
	</g>
	<g>
		<g>
			<path style="fill:#0099D9;" d="M91.158,172.787l-0.074-0.074c-0.861-0.64-1.92-1.92-2.707-3.397
				c-0.344-0.64-0.64-1.551-0.911-2.486c-0.714-2.264-1.551-5.046-4.11-6.522c1.206-0.714,2.707-1.994,3.397-3.766l0.492-1.28
				c1.354-3.692,1.428-3.692,2.412-4.258c0.295-0.148,0.492-0.418,0.492-0.714c0-0.344-0.295-0.566-0.566-0.566h-2.191
				c-2.904,0-3.963,2.264-4.332,3.692c-1.206,4.258-3.544,5.538-5.39,6.104l0.074-5.39c0-2.412-1.92-4.48-4.332-4.48h-1.28
				c-0.345,0-0.64,0.295-0.64,0.566c0,0.345,0.222,0.492,0.345,0.64c0.714,0.64,1.058,1.772,1.058,3.2l-0.074,15.408
				c0,1.501-0.418,2.634-1.058,3.2c-0.148,0.148-0.418,0.295-0.418,0.64s0.295,0.566,0.64,0.64h1.28
				c2.412,0,4.406-1.994,4.406-4.406l0.074-7.088c0-0.148,0.566-0.418,1.28-0.418h0.074c2.83,0,3.692,3.766,4.332,7.876
				c0.492,2.978,3.692,4.11,6.325,4.11h1.28c0.222,0,0.418-0.074,0.492-0.295l0.148-0.295l-0.074-0.148
				C91.502,173.008,91.306,172.86,91.158,172.787z"/>
			<path style="fill:#0099D9;" d="M109.617,173.008c-0.148-0.148-1.058-1.058-1.058-2.978l0.049-5.907
				c0-0.788-0.074-3.347-1.428-4.972c-1.698-2.141-4.824-3.126-6.965-3.126c-2.83,0-4.972,1.206-5.882,2.338
				c-0.714,0.861-0.861,2.191-0.418,3.274c0.418,0.91,1.354,1.501,2.486,1.551h0.295c0.074,0,0.345,0,0.492-0.222
				c0.148-0.221,0.148-0.344,0.148-0.492v-0.148c0-0.64,0.148-2.83,1.698-3.544c0.345-0.148,0.788-0.221,1.206-0.221
				c1.132,0,2.338,0.566,2.904,1.28c0.345,0.492,0.492,1.059,0.295,1.625c-0.222,0.788-1.428,1.846-5.759,2.757
				c-2.757,0.639-5.39,1.624-5.39,4.824c0,1.501,0.788,2.83,2.264,3.84c1.354,0.911,3.2,1.502,5.119,1.502h0.074
				c1.92,0,4.036-0.492,5.538-1.354c0.788,0.714,1.698,1.058,2.757,1.132h1.206c0.345,0,0.64-0.344,0.64-0.64
				C109.888,173.279,109.741,173.082,109.617,173.008z M104.006,169.808c-0.788,1.28-2.264,2.141-3.84,2.141
				c-1.625,0-2.904-1.28-2.904-2.83c0-1.698,1.428-2.559,2.633-2.904c0.222-0.074,0.566-0.148,1.059-0.295
				c0.861-0.221,1.994-0.418,3.052-0.788L104.006,169.808L104.006,169.808z"/>
			<path style="fill:#0099D9;" d="M118.7,173.008c-0.074,0-1.058-0.787-1.058-3.052l0.148-15.974c0-2.264-1.772-4.184-4.036-4.184
				h-1.206c-0.345,0-0.64,0.295-0.64,0.64c0,0.221,0.148,0.418,0.295,0.492c0.222,0.148,1.059,1.058,1.059,2.978l-0.148,16.047
				c0,2.264,1.772,4.184,4.036,4.184h1.206c0.345,0,0.64-0.345,0.64-0.64C119.044,173.205,118.847,173.082,118.7,173.008z"/>
			<path style="fill:#0099D9;" d="M131.178,156.173c-0.984,0-1.92,0.148-2.757,0.418v-2.56c0-2.264-1.846-4.184-4.036-4.184h-1.206
				c-0.345,0-0.64,0.295-0.64,0.64c0,0.295,0.222,0.418,0.295,0.492c0.074,0,1.058,0.714,1.058,2.978l-0.148,16.047
				c0,1.994-0.911,2.83-1.058,2.978c-0.148,0.074-0.295,0.295-0.295,0.492c0,0.295,0.295,0.64,0.64,0.64h1.206
				c0.861,0,1.772-0.295,2.412-0.787c1.354,0.787,2.904,1.206,4.48,1.206c5.046,0,9.156-4.11,9.23-9.156
				C140.26,160.357,136.224,156.247,131.178,156.173z M131.055,172.147c-1.058,0-2.067-0.714-2.757-1.994l0.074-9.501
				c0.788-1.28,1.698-1.994,2.757-1.994c2.264,0,4.11,3.052,4.036,6.744C135.165,169.168,133.319,172.147,131.055,172.147z"/>
			<path style="fill:#0099D9;" d="M159.926,173.279c-0.148-0.148-1.058-1.058-1.058-3.052l0.074-5.882
				c0-0.788-0.074-3.348-1.428-4.972c-1.698-2.142-4.824-3.126-6.965-3.126c-2.83,0-4.972,1.206-5.882,2.338
				c-0.714,0.861-0.861,2.191-0.418,3.273c0.418,0.911,1.354,1.502,2.486,1.551h0.295c0.074,0,0.345,0,0.492-0.221
				c0.148-0.222,0.148-0.345,0.148-0.492v-0.148c0-0.64,0.148-2.83,1.698-3.544c0.345-0.148,0.788-0.222,1.206-0.222
				c1.132,0,2.338,0.566,2.904,1.28c0.345,0.492,0.492,1.058,0.295,1.624c-0.222,0.788-1.428,1.846-5.759,2.757
				c-2.757,0.64-5.39,1.624-5.39,4.824c0,1.501,0.788,2.83,2.19,3.84c1.354,0.911,3.2,1.501,5.12,1.501h0.074
				c1.92,0,4.036-0.492,5.538-1.354c0.788,0.714,1.698,1.059,2.757,1.132h1.206c0.345,0,0.64-0.345,0.64-0.64
				C160.221,173.574,160.074,173.426,159.926,173.279z M154.314,170.153c-0.788,1.28-2.338,2.141-3.84,2.141
				c-1.624,0-2.904-1.28-2.904-2.83c0-1.698,1.428-2.56,2.634-2.904c0.222-0.074,0.566-0.148,1.058-0.295
				c0.861-0.222,1.994-0.418,3.126-0.788L154.314,170.153z"/>
		</g>
		<g>
			<path style="fill:#00BBE7;" d="M100.535,137.221c-1.058,0-1.92,0.861-1.92,1.846c0,1.058,0.861,1.92,1.846,1.92
				c1.058,0,1.92-0.861,1.92-1.846C102.381,138.083,101.52,137.221,100.535,137.221z"/>
			<path style="fill:#00BBE7;" d="M160.492,107.071L160,106.357c-1.501-2.141-4.48-2.56-6.67-0.985l-8.861,6.178l-2.141,1.501
				l-0.985,0.788c-0.222,0.295-0.222,0.64,0,0.861s0.492,0.148,0.714,0.148c0.91-0.074,2.141,0.566,3.2,1.551l8.024,7.802
				c1.501,1.28,1.772,2.83,1.772,2.83c0.344,2.83-2.191,2.707-2.191,2.707l-12.848-0.074c0,0-3.766,0.148-3.766-5.612l0.074-14.965
				v-0.345c0-1.428,0.418-2.634,1.059-3.2c0.148-0.148,0.418-0.295,0.418-0.64c0-0.345-0.295-0.566-0.64-0.566h-0.861
				c-2.634,0-4.75,2.067-4.75,4.75l-0.074,13.906c0,4.332-2.905,6.596-5.612,6.596h-0.344l-8.294-0.074c0,0-3.766,0.148-3.766-5.612
				v-1.772v-1.132v-0.985c0-2.141-1.698-3.84-3.766-3.913h-0.861c-0.345,0-0.64,0.295-0.64,0.566c0,0.345,0.222,0.492,0.345,0.64
				c0.714,0.64,1.058,1.772,1.058,3.2v0.492v2.904c-0.074,5.759-3.84,5.538-3.84,5.538l-8.294-0.074
				c-2.757,0-5.538-2.264-5.538-6.67l0.074-13.906c0-2.707-2.067-4.824-4.676-4.824h-0.64h-0.221c-0.345,0-0.64,0.295-0.64,0.566
				c0,0.345,0.221,0.492,0.344,0.64c0.714,0.64,1.058,1.772,1.058,3.2v0.345l-0.148,16.687c-0.074,5.316,4.553,8.442,8.368,8.442
				l9.451,0.074c0,0,6.325,0.295,6.399-4.553c0,0-0.074,4.603,6.744,4.603l7.31,0.074h1.92c0,0,6.325,0.295,6.325-4.553
				c0,0-0.074,4.603,6.744,4.603l13.34,0.074c0,0,5.686,0.418,5.759-7.162c0,0,0.295-3.273-4.036-6.965l-6.743-6.252l7.384-5.046
				c1.206-0.861,2.338-1.132,3.273-0.911c0.222,0.074,0.418,0.148,0.714,0C160.64,107.784,160.713,107.341,160.492,107.071z"/>
			<path style="fill:#00BBE7;" d="M83.208,125.161L83.208,125.161c0-0.222-0.074-0.345-0.148-0.492
				c-0.222-0.566-0.64-1.058-1.206-1.428c0,0-8.024-2.83-7.876,4.332c0,0,0.492,3.052-1.624,3.052c0,0-0.64,0-0.985-0.222
				c0,0,0,0-0.074-0.074c0-0.074-0.074-0.074-0.148-0.148c0,0-0.074-0.074-0.148-0.074h-0.074c-0.148,0-0.295,0.148-0.295,0.345
				v1.28c0,0,0,0,0,0.074c0,0.911,0.345,2.067,1.624,2.067c0,0,3.347,0.148,3.347-2.412c0,0,0,2.412,3.544,2.412
				c2.634,0,3.544-1.354,3.84-2.338c0.074-0.222,0.148-0.418,0.148-0.64v-0.074c0,0,0,0,0-0.074c0-0.148,0-0.222,0-0.295v-0.911
				c0-0.222-0.148-0.345-0.295-0.345s-0.295,0.148-0.344,0.222c-0.345,0.345-0.492,1.132-2.56,1.206
				c-2.707-0.345-2.412-2.634-2.412-2.634v-0.418c0-1.772,1.501-2.067,2.412-2.141c2.141,0,2.264,0.861,2.56,1.206
				c0.074,0.074,0.148,0.222,0.344,0.222c0.148,0,0.295-0.148,0.295-0.345v-0.861c0-0.074,0-0.148,0-0.222
				C83.208,125.382,83.208,125.309,83.208,125.161z"/>
		</g>
	</g>
	<g>
		<path style="fill:#00BBE7;" d="M132.68,66.337c5.956-3.052,11.273-5.759,14.768-5.882c-5.119-1.501-9.722-2.141-13.906-2.191
			c-17.893-0.148-27.812,10.707-35.122,11.494C103.366,72.219,116.14,65.401,132.68,66.337z"/>
		<path style="fill:#CDEAEF;" d="M113.309,74.705c6.104-1.551,13.07-5.193,19.37-8.368c-16.54-0.911-29.314,5.882-34.286,3.397
			C99.526,72.071,105.064,73.08,113.309,74.705z"/>
		<path style="fill:#0099D9;" d="M113.309,74.705c1.846,0.345,3.766,0.788,5.809,1.28c6.744,1.501,11.863,3.47,16.392,5.464
			c10.657-2.634,21.142-5.39,27.542-3.47c-10.854-8.245-21.216-11.15-30.372-11.642C126.354,69.512,119.413,73.154,113.309,74.705"
			/>
		<path style="fill:#64B6CE;" d="M135.51,81.449c-6.522,1.624-13.069,3.126-18.878,3.544c1.994,1.698,3.84,3.84,5.612,6.522
			c19.739,2.83,44.081-0.295,44.081-0.295C152.124,90.186,145.084,85.707,135.51,81.449z"/>
		<path style="fill:#CDEAEF;" d="M119.118,75.985c-2.067-0.492-3.963-0.861-5.809-1.28c-6.522,1.698-12.134,1.058-14.915-4.972
			c1.501,7.802,10.288,8.294,18.238,15.26c5.759-0.345,12.356-1.92,18.878-3.544C130.981,79.455,125.788,77.461,119.118,75.985z"/>
		<path style="fill:#FFFFFF;" d="M113.309,74.705c-8.22-1.698-13.758-2.707-14.915-4.972
			C101.175,75.763,106.762,76.403,113.309,74.705z"/>
		<path style="fill:#00BBD9;" d="M98.394,69.733c-7.605,21.019,18.164,18.73,29.535,36.131c-1.428-6.178-3.347-10.78-5.686-14.325
			C106.836,89.325,94.358,83.516,98.394,69.733z"/>
		<path style="fill:#CDEAEF;" d="M116.632,84.993c-10.214,0.64-17.967-2.338-18.238-15.26l0,0
			c-4.036,13.709,8.442,19.518,23.85,21.782C120.472,88.833,118.626,86.691,116.632,84.993z"/>
		<path style="fill:#FFFFFF;" d="M116.632,84.993c-7.95-6.965-16.761-7.458-18.238-15.26l0,0
			C98.689,82.655,106.418,85.633,116.632,84.993z"/>
	</g>
</g>
</svg>
