<?xml version="1.0" encoding="iso-8859-1"?>
<!-- Generator: Adobe Illustrator 21.1.0, SVG Export Plug-In . SVG Version: 6.00 Build 0)  -->
<svg version="1.1" id="Layer_1" xmlns="http://www.w3.org/2000/svg" xmlns:xlink="http://www.w3.org/1999/xlink" x="0px" y="0px"
	 viewBox="0 0 231 231" style="enable-background:new 0 0 231 231;" xml:space="preserve">
<g>
	<path style="fill:#ED1B24;" d="M98.527,106.65c0.112-0.092,0.201-0.174,0.3-0.245c1.986-1.468,4.211-2.364,6.653-2.684
		c2.364-0.31,4.647-0.007,6.789,1.073c0.596,0.3,1.162,0.668,1.71,1.046c2.31,1.587,4.609,3.192,6.915,4.79
		c0.354,0.245,0.715,0.48,1.08,0.709c0.071,0.044,0.211,0.075,0.273,0.034c0.351-0.221,0.688-0.467,1.076-0.736
		c-0.109-0.095-0.184-0.17-0.269-0.232c-1.213-0.838-2.429-1.676-3.642-2.511c-1.475-1.019-2.95-2.037-4.429-3.056
		c-1.887-1.301-3.778-2.596-5.665-3.897c-2.214-1.526-4.425-3.056-6.636-4.585c-1.26-0.872-2.521-1.741-3.781-2.613
		c-0.065-0.044-0.123-0.092-0.218-0.167c0.409-0.167,0.784-0.324,1.155-0.477c1.731-0.719,3.407-1.55,5.052-2.449
		c1.087-0.593,2.153-1.22,3.229-1.829c2.538-1.448,4.953-3.08,7.239-4.895c0.637-0.508,1.226-1.076,1.833-1.625
		c0.092-0.082,0.153-0.198,0.232-0.303c6.316,4.361,12.571,8.677,18.859,13.02c-0.143,0.123-0.252,0.232-0.375,0.324
		c-1.622,1.203-3.386,2.109-5.352,2.592c-0.916,0.225-1.85,0.358-2.793,0.351c-1.717-0.01-3.356-0.402-4.858-1.24
		c-0.702-0.392-1.366-0.852-2.027-1.312c-2.024-1.403-4.037-2.821-6.057-4.231c-0.473-0.33-0.95-0.661-1.424-0.991
		c-0.347-0.242-0.344-0.238-0.678,0c-0.184,0.133-0.375,0.259-0.559,0.392c-0.089,0.065-0.17,0.14-0.29,0.235
		c0.102,0.089,0.17,0.16,0.249,0.215c1.962,1.369,3.931,2.739,5.894,4.108c2.752,1.925,5.505,3.85,8.261,5.774
		c2.477,1.731,4.95,3.458,7.427,5.185c0.763,0.531,1.53,1.063,2.289,1.594c0.082,0.058,0.15,0.129,0.245,0.211
		c-0.531,0.218-1.039,0.409-1.533,0.637c-1.162,0.538-2.323,1.08-3.471,1.649c-3.25,1.608-6.333,3.499-9.307,5.573
		c-1.536,1.073-3.035,2.197-4.354,3.539c-0.031,0.031-0.068,0.058-0.129,0.106C111.156,115.375,104.857,111.024,98.527,106.65z"/>
	<path style="fill:#0059A9;" d="M66.675,133.096c-0.167,0-0.286,0-0.409,0c-2.862,0-5.723-0.003-8.585,0.003
		c-0.262,0-0.426-0.068-0.583-0.3c-0.715-1.066-1.69-1.792-2.95-2.102c-0.705-0.174-1.421-0.147-2.133-0.075
		c-0.382,0.037-0.763,0.126-1.124,0.249c-0.603,0.208-1.032,0.6-1.141,1.274c-0.058,0.364,0.051,0.644,0.341,0.865
		c0.303,0.232,0.651,0.382,1.015,0.46c0.807,0.177,1.618,0.358,2.432,0.48c1.639,0.249,3.284,0.429,4.919,0.695
		c1.707,0.276,3.369,0.726,4.94,1.468c0.92,0.436,1.761,0.978,2.483,1.707c1.639,1.652,1.908,4.091,1.104,6.003
		c-0.606,1.441-1.669,2.48-3.012,3.223c-1.036,0.572-2.143,0.974-3.298,1.254c-1.216,0.293-2.446,0.494-3.696,0.552
		c-0.985,0.048-1.972,0.106-2.96,0.089c-1.247-0.02-2.497-0.072-3.737-0.174c-1.823-0.147-3.628-0.433-5.352-1.08
		c-0.828-0.31-1.635-0.664-2.344-1.223c-1.24-0.978-1.949-2.252-2.17-3.802c-0.048-0.337-0.061-0.678-0.082-1.015
		c-0.007-0.089,0.01-0.177,0.02-0.29c0.14-0.007,0.262-0.024,0.382-0.024c3.189,0,6.381,0.003,9.569-0.007
		c0.262,0,0.409,0.082,0.542,0.307c0.392,0.661,0.882,1.237,1.53,1.669c0.531,0.354,1.107,0.569,1.744,0.613
		c0.923,0.065,1.84,0.017,2.719-0.303c0.221-0.082,0.439-0.198,0.623-0.341c0.671-0.525,0.681-1.485,0.037-2.047
		c-0.344-0.3-0.756-0.463-1.192-0.552c-0.555-0.113-1.114-0.204-1.676-0.269c-1.295-0.146-2.596-0.262-3.89-0.409
		c-1.581-0.177-3.141-0.46-4.667-0.903c-1.138-0.33-2.231-0.77-3.189-1.489c-1.128-0.848-1.785-1.973-1.996-3.362
		c-0.157-1.032-0.143-2.058,0.177-3.063c0.433-1.376,1.284-2.439,2.446-3.264c1.155-0.821,2.453-1.322,3.815-1.659
		c1.996-0.494,4.03-0.651,6.081-0.613c1.042,0.017,2.088,0.051,3.127,0.147c2.02,0.184,3.996,0.572,5.856,1.424
		c1.117,0.511,2.122,1.179,2.923,2.126c0.835,0.988,1.267,2.136,1.356,3.42C66.682,132.851,66.675,132.939,66.675,133.096z"/>
	<path style="fill:#0059A9;" d="M168.07,137.116c2.041,1.918,4.064,3.788,6.081,5.665c2.01,1.87,4.023,3.737,6.067,5.634
		c-0.095,0.014-0.167,0.034-0.235,0.034c-3.543,0-7.086,0-10.629,0.003c-0.184,0-0.317-0.061-0.45-0.187
		c-2.586-2.453-5.175-4.906-7.764-7.355c-0.089-0.082-0.184-0.153-0.344-0.283c-0.014,0.208-0.027,0.334-0.027,0.463
		c0,1.952,0,3.907,0,5.859c0,0.375,0,0.749,0,1.124c0,0.112-0.01,0.221-0.017,0.354c-2.776,0-5.529,0-8.299,0
		c0-7.365,0-14.71,0-22.092c0.116-0.014,0.235-0.037,0.354-0.037c2.545-0.003,5.086-0.003,7.631,0c0.089,0,0.177,0.014,0.307,0.027
		c0.01,0.15,0.027,0.293,0.027,0.433c0.003,2.238,0,4.473,0.003,6.711c0,0.13,0.01,0.262,0.02,0.474
		c0.15-0.102,0.242-0.153,0.324-0.221c1.448-1.24,2.892-2.483,4.34-3.73c1.352-1.162,2.705-2.323,4.05-3.492
		c0.164-0.143,0.334-0.208,0.552-0.208c3.383,0.003,6.769,0.003,10.152,0.003c0.112,0,0.225,0.01,0.358,0.017
		c-0.031,0.157-0.147,0.218-0.235,0.293c-1.216,1.042-2.432,2.081-3.649,3.124c-1.846,1.581-3.689,3.161-5.536,4.742
		c-0.93,0.797-1.867,1.591-2.8,2.385C168.271,136.922,168.2,136.993,168.07,137.116z"/>
	<path style="fill:#0059A9;" d="M122.312,126.283c0.01,0.13,0.024,0.242,0.024,0.351c0,1.329-0.003,2.657,0.007,3.986
		c0,0.235-0.071,0.402-0.242,0.565c-3.127,2.919-6.251,5.842-9.379,8.769c-0.903,0.845-1.809,1.69-2.712,2.535
		c-0.089,0.082-0.17,0.17-0.3,0.303c0.143,0.031,0.225,0.065,0.307,0.065c0.262,0.007,0.521,0.003,0.784,0.003
		c3.645,0,7.29,0,10.935,0c0.167,0,0.334,0,0.525,0c0,1.867,0,3.689,0,5.519c-0.003,0.003-0.014,0.014-0.02,0.02
		c-0.007,0.007-0.017,0.02-0.027,0.02c-8.288,0.007-16.577,0.014-24.865,0.017c-0.089,0-0.177-0.01-0.303-0.017
		c-0.014-0.126-0.037-0.245-0.037-0.364c-0.003-1.318,0.003-2.633-0.003-3.952c0-0.235,0.075-0.399,0.249-0.562
		c2.906-2.759,5.808-5.522,8.711-8.285c1.059-1.008,2.122-2.017,3.182-3.029c0.089-0.082,0.167-0.174,0.286-0.296
		c-0.126-0.034-0.194-0.068-0.266-0.072c-0.204-0.007-0.409,0.003-0.613,0.003c-3.519,0-7.038,0-10.561,0
		c-0.167,0-0.334-0.02-0.525-0.034c0-1.86,0-3.693,0-5.546C105.742,126.283,114.004,126.283,122.312,126.283z"/>
	<path style="fill:#0059A9;" d="M86.75,126.276c2.715,0,5.369,0,8.053,0c0.01,0.109,0.024,0.208,0.024,0.303
		c0,4.872,0.01,9.74-0.007,14.611c-0.003,1.186-0.17,2.354-0.644,3.458c-0.453,1.066-1.165,1.921-2.16,2.514
		c-0.961,0.576-2.003,0.957-3.093,1.209c-1.451,0.337-2.926,0.518-4.415,0.559c-1.53,0.041-3.066,0.072-4.595,0.031
		c-1.758-0.048-3.506-0.221-5.222-0.654c-0.985-0.249-1.932-0.603-2.8-1.124c-1.002-0.6-1.727-1.458-2.184-2.538
		c-0.378-0.899-0.562-1.843-0.61-2.81c-0.034-0.681-0.037-1.363-0.037-2.041c-0.003-4.337-0.003-8.673,0-13.01
		c0-0.157,0.014-0.313,0.02-0.46c0.273-0.068,7.471-0.092,8.016-0.027c0.01,0.133,0.031,0.276,0.031,0.419
		c0,4.473,0,8.946,0.003,13.419c0,0.293,0.017,0.593,0.078,0.879c0.184,0.882,0.726,1.496,1.509,1.908
		c0.548,0.29,1.134,0.46,1.744,0.545c1.155,0.164,2.306,0.16,3.451-0.106c0.613-0.143,1.192-0.364,1.7-0.746
		c0.736-0.555,1.128-1.288,1.128-2.218c0-4.551,0-9.106,0-13.657C86.75,126.593,86.75,126.446,86.75,126.276z"/>
	<path style="fill:#0059A9;" d="M142.211,126.273c2.695,0,5.328,0,7.999,0c0.01,0.112,0.034,0.221,0.034,0.327
		c0,4.657,0,9.31-0.003,13.967c0,1.093-0.058,2.177-0.354,3.236c-0.385,1.376-1.124,2.5-2.33,3.284
		c-0.61,0.395-1.277,0.688-1.966,0.93c-1.032,0.361-2.099,0.559-3.182,0.705c-2.351,0.317-4.711,0.313-7.069,0.242
		c-1.748-0.051-3.485-0.225-5.188-0.654c-0.998-0.252-1.952-0.613-2.831-1.141c-1.151-0.695-1.915-1.72-2.34-2.994
		c-0.358-1.066-0.467-2.17-0.47-3.287c-0.007-2.804-0.003-5.611-0.003-8.414c0-1.918,0-3.839,0-5.757c0-0.133,0-0.269,0-0.392
		c0.286-0.075,7.604-0.092,8.067-0.024c0,0.133,0,0.279,0,0.422c0,4.439-0.003,8.878,0.003,13.32c0,0.351,0.024,0.709,0.106,1.046
		c0.228,0.957,0.872,1.564,1.748,1.955c0.726,0.324,1.496,0.46,2.279,0.508c0.988,0.058,1.976,0.014,2.936-0.266
		c0.439-0.126,0.855-0.3,1.24-0.552c0.852-0.559,1.278-1.356,1.318-2.368c0.003-0.126,0.003-0.249,0.003-0.375
		c0-4.429,0-8.857,0-13.286C142.211,126.572,142.211,126.439,142.211,126.273z"/>
	<path style="fill:#0059A9;" d="M190.667,126.313c0,7.358,0,14.72,0,22.119c-0.119,0.014-0.238,0.041-0.358,0.041
		c-2.555,0.003-5.11,0.003-7.662,0c-0.112,0-0.221-0.014-0.324-0.024c-0.078-0.266-0.102-21.816-0.031-22.14
		C182.566,126.242,190.329,126.239,190.667,126.313z"/>
</g>
</svg>
