<?xml version="1.0" encoding="iso-8859-1"?>
<!-- Generator: Adobe Illustrator 21.1.0, SVG Export Plug-In . SVG Version: 6.00 Build 0)  -->
<svg version="1.1" id="Layer_1" xmlns="http://www.w3.org/2000/svg" xmlns:xlink="http://www.w3.org/1999/xlink" x="0px" y="0px"
	 viewBox="0 0 231 231" style="enable-background:new 0 0 231 231;" xml:space="preserve">
<g>
	<path style="fill:#0867AA;" d="M87.927,113.668c-1.373,3.933-2.575,7.282-3.707,10.655c-0.537,1.599-1.183,3.073-3.155,3.069
		c-1.988-0.004-2.606-1.521-3.135-3.1c-1.599-4.765-3.209-9.526-4.843-14.28c-0.572-1.669-0.766-3.307,1.253-3.964
		c2.062-0.669,2.816,0.864,3.318,2.509c1.109,3.637,2.225,7.27,3.54,11.577c1.408-4.26,2.606-7.834,3.766-11.421
		c0.494-1.537,1.159-2.867,3.042-2.851c1.894,0.012,2.505,1.404,2.999,2.914c1.183,3.625,2.396,7.239,3.754,11.335
		c1.311-4.248,2.482-7.967,3.598-11.701c0.482-1.618,1.256-2.972,3.166-2.365c1.852,0.587,1.883,2.046,1.299,3.719
		c-1.708,4.894-3.338,9.818-4.979,14.735c-0.51,1.525-1.221,2.879-3.054,2.894c-1.824,0.016-2.579-1.28-3.096-2.828
		C90.533,121.125,89.323,117.706,87.927,113.668z"/>
	<path style="fill:#08AB55;" d="M113.539,127.551c-6.418-0.019-11.238-4.68-11.265-10.892c-0.027-6.255,4.925-11.114,11.359-11.141
		c6.477-0.027,11.402,4.777,11.355,11.079C124.94,122.945,120.105,127.574,113.539,127.551z M120.012,116.613
		c-0.004-3.742-2.774-6.667-6.341-6.691c-3.594-0.023-6.418,2.886-6.418,6.613c0.004,3.719,2.797,6.64,6.38,6.663
		C117.277,123.222,120.015,120.397,120.012,116.613z"/>
	<path style="fill:#0666A9;" d="M126.694,116.441c0-2.637,0.019-5.279-0.008-7.916c-0.019-1.785,0.786-2.672,2.595-2.657
		c2.719,0.027,5.442-0.074,8.153,0.062c3.544,0.179,5.897,1.933,6.757,4.777c0.996,3.295,0.019,6.22-3.026,8.309
		c-1.05,0.72-0.797,1.081-0.113,1.747c0.86,0.836,1.642,1.747,2.493,2.591c0.973,0.965,1.416,2.062,0.393,3.155
		c-1.148,1.225-2.536,0.965-3.606-0.105c-1.521-1.525-2.886-3.205-4.306-4.831c-0.529-0.607-1.027-1.12-1.953-1.202
		c-1.801-0.163-2.995,0.117-2.602,2.346c0.109,0.619,0.047,1.28,0.004,1.914c-0.105,1.579-0.906,2.649-2.544,2.563
		c-1.478-0.078-2.241-1.078-2.237-2.598C126.698,121.879,126.694,119.16,126.694,116.441z M134.603,110.167
		c-0.848,0.478-2.532-0.961-3.069,0.829c-1.175,3.913,0.027,5.38,4.088,5.263c0.078-0.004,0.159,0.004,0.237,0
		c2.501-0.113,3.785-1.116,3.832-2.995c0.047-1.988-1.241-3.003-3.937-3.096C135.435,110.159,135.12,110.167,134.603,110.167z"/>
	<path style="fill:#0968AA;" d="M152.528,114.434c2.276-2.443,4.559-4.874,6.823-7.329c1.023-1.113,2.171-1.871,3.466-0.584
		c1.276,1.268,0.552,2.451-0.498,3.513c-1.233,1.249-2.388,2.583-3.668,3.781c-0.891,0.832-0.891,1.494-0.156,2.435
		c1.673,2.139,3.233,4.361,4.87,6.524c1.035,1.365,1.525,2.836-0.027,3.987c-1.622,1.202-2.758,0.117-3.727-1.268
		c-1.645-2.349-3.373-4.641-5.131-7.041c-1.762,1.027-2.801,2.314-2.509,4.411c0.074,0.549,0.019,1.116-0.012,1.677
		c-0.09,1.552-0.794,2.7-2.443,2.68c-1.653-0.019-2.35-1.167-2.353-2.739c-0.012-4.551-0.012-9.103-0.012-13.658
		c0-0.879-0.023-1.762,0.051-2.633c0.121-1.381,0.895-2.256,2.299-2.276c1.4-0.02,2.291,0.821,2.361,2.198
		c0.105,2.05,0.027,4.104,0.027,6.158C152.104,114.329,152.314,114.38,152.528,114.434z"/>
	<path style="fill:#0A68AB;" d="M172.689,123.082c3.392,0,6.169,0.016,8.951-0.008c1.451-0.012,2.614,0.408,2.645,2.054
		c0.031,1.649-1.155,2.159-2.575,2.167c-3.991,0.023-7.986,0.016-11.977,0.004c-1.268-0.004-2.396-0.342-2.949-1.626
		c-0.545-1.268-0.051-2.299,0.79-3.275c3.38-3.909,6.737-7.842,10.534-12.265c-3.054,0-5.547-0.012-8.041,0.004
		c-1.54,0.008-3.069-0.163-3.081-2.128c-0.012-1.964,1.467-2.163,3.038-2.147c3.594,0.031,7.189,0.031,10.779,0
		c1.35-0.012,2.567,0.156,3.24,1.521c0.735,1.498-0.058,2.583-0.98,3.649C179.73,114.889,176.412,118.756,172.689,123.082z"/>
	<path style="fill:#55BD7B;" d="M70.776,108.405l-7.5,7.259c0,0-1.855,1.855-3.711,0c-0.335-0.335-0.591-0.657-0.782-0.957
		c-0.615-0.965-0.471-2.229,0.331-3.046l6.983-7.13"/>
	<circle style="fill:#00A94F;" cx="68.477" cy="106.471" r="3.023"/>
	<path style="fill:#488CCB;" d="M60.009,109.011l-7.5,7.259c0,0-1.855,1.855-3.711,0c-0.335-0.335-0.591-0.657-0.782-0.957
		c-0.615-0.965-0.471-2.229,0.331-3.046l6.983-7.13"/>
	<circle style="fill:#0063A8;" cx="58.071" cy="106.592" r="3.023"/>
	<path style="fill:#55BD7B;" d="M59.04,118.931l-7.5,7.259c0,0-1.855,1.855-3.711,0c-0.335-0.335-0.591-0.657-0.782-0.957
		c-0.615-0.965-0.471-2.229,0.331-3.046l6.983-7.13"/>
	<circle style="fill:#00A94F;" cx="56.741" cy="116.994" r="3.023"/>
	<path style="fill:#488CCB;" d="M69.566,119.413l-7.5,7.259c0,0-1.855,1.855-3.711,0c-0.335-0.335-0.591-0.657-0.782-0.957
		c-0.615-0.965-0.471-2.229,0.331-3.046l6.983-7.13"/>
	<circle style="fill:#0063A8;" cx="67.629" cy="116.994" r="3.023"/>
</g>
</svg>
