<?xml version="1.0" encoding="iso-8859-1"?>
<!-- Generator: Adobe Illustrator 21.1.0, SVG Export Plug-In . SVG Version: 6.00 Build 0)  -->
<svg version="1.1" id="Layer_1" xmlns="http://www.w3.org/2000/svg" xmlns:xlink="http://www.w3.org/1999/xlink" x="0px" y="0px"
	 viewBox="0 0 231 231" style="enable-background:new 0 0 231 231;" xml:space="preserve">
<g>
	<g>
		<path style="fill:#002754;" d="M116.534,128.674h-8.29l-1.458-5.22h-7.024l-1.574,5.22h-6.602l8.175-26.329h8.52L116.534,128.674z
			 M103.255,110.098l-2.149,7.676h4.299L103.255,110.098z"/>
		<path style="fill:#002754;" d="M127.665,122.38h10.44v6.294h-18.499v-26.329h8.06V122.38z"/>
		<path style="fill:#002754;" d="M161.363,102.345v6.141h-11.744v3.915h9.442v5.68h-9.442v4.299h11.744v6.294h-19.804v-26.329
			H161.363z"/>
		<path style="fill:#002754;" d="M180.092,112.746c-0.038-4.222-2.188-4.951-3.531-4.951c-3.915,0-3.915,5.796-3.915,7.753
			c0,2.149,0.077,3.838,0.729,5.296c0.653,1.497,1.65,2.303,3.186,2.303s2.38-0.768,2.955-1.842
			c0.461-0.883,0.729-1.765,0.729-2.763l7.369,0.461c-0.23,3.262-1.727,5.642-3.186,7.062c-1.804,1.765-4.414,2.994-8.098,2.994
			c-6.41,0-9.403-3.569-10.747-6.179c-1.19-2.303-1.535-4.836-1.535-7.139c0-4.299,1.113-8.175,4.299-10.977
			c2.648-2.303,5.45-2.802,7.983-2.802c2.456,0,5.757,0.537,8.29,3.109c1.42,1.42,2.917,3.876,2.994,7.292L180.092,112.746z"/>
	</g>
	<g>
		<path style="fill:#766D63;" d="M92.949,135.794c0,0-36.078-25.619-49.031,5.757C43.918,141.551,51.825,126.39,92.949,135.794z"/>
		<path style="fill:#002754;" d="M68.424,86.667c0,0-3.761,36.462,18.116,39.839C86.54,126.525,51.46,132.858,68.424,86.667z"/>
		<path style="fill:#A5182D;" d="M80.284,88.106c0,0-45.961,30.225-24.755,56.227C55.528,144.333,15.709,117.563,80.284,88.106z"/>
	</g>
</g>
</svg>
