<?xml version="1.0" encoding="iso-8859-1"?>
<!-- Generator: Adobe Illustrator 21.1.0, SVG Export Plug-In . SVG Version: 6.00 Build 0)  -->
<svg version="1.1" id="Layer_1" xmlns="http://www.w3.org/2000/svg" xmlns:xlink="http://www.w3.org/1999/xlink" x="0px" y="0px"
	 viewBox="0 0 231 231" style="enable-background:new 0 0 231 231;" xml:space="preserve">
<g>
	<path style="fill:#00BEDA;" d="M162.373,101.81C162.135,101.503,162.544,102.014,162.373,101.81"/>
	<path style="fill:#00BEDA;" d="M162.373,101.81C162.475,101.923,162.419,101.866,162.373,101.81
		c1.818,2.318,4.965-1.477,2.852-3.761C163.282,95.959,160.862,99.855,162.373,101.81
		C162.328,101.741,162.282,101.685,162.373,101.81"/>
	<path style="fill:#00BEDA;" d="M191.572,113.455c-2.261,0-2.738,4.386-0.045,4.386C194.321,117.84,194.355,113.205,191.572,113.455
		"/>
	<path style="fill:#00BEDA;" d="M155.988,106.161c-0.046-1.682,0.034-5.272-1.329-6.453c-2.227-1.92-3.283,0.625-3.283,2.556
		c0,2.295,0.75,5.147-0.17,7.317c-0.795,1.886-2.193,2.238-4.033,2.238c-1.136,0-2.329,0.057-3.386-0.432
		c-2.011-0.932-2.295-3.942-2.806-5.806c-0.477-1.75-1.307-3.999-3.602-3.795c-2.409,0.204-1.318,3.749-0.738,5.113
		c0.92,2.17,1.761,4.226,1.204,6.635c-0.579,2.443-1.238,4.908-2.579,7.055c-1.204,1.841-2.375,3.727-4.397,4.738
		c-1.454,0.898-2.806,0.454-4.317,0.886c-1.284,0.375-1.5,1.784-0.807,2.784c0.852,1.227,2.09,1.102,3.431,0.977
		c0,0,3.295-0.523,6.43-2.954c0,0,1.329-1.057,3.204-4.476c1.238-2.261,2.068-4.715,2.772-7.18c2.102,1.261,4.885,0.863,7.26,0.863
		C153.977,116.216,156.113,110.512,155.988,106.161"/>
	<path style="fill:#00BEDA;" d="M182.358,108.365c-0.341-1.647-2.375-5.465-0.227-6.726c2.534-1.488,6.146-1.159,8.646,0.216
		L182.358,108.365z M189.095,108.524c1.477-1.136,2.84-2.42,4.09-3.817c1.034-1.159,3.181-3.147,2.511-4.897
		c-0.659-1.716-3.477-1.659-4.942-1.841c-2.261-0.284-4.522-0.454-6.794-0.295c-1.636,0.125-3.613,0.318-4.851,1.534
		c-1.375,1.352-1.125,3.704-0.966,5.442c0.148,1.579,1.034,4.408-0.057,5.806c-0.875,1.125-2.318,1.295-3.567,1.295
		c-1.261,0-2.488,0.045-3.624-0.613c-1.931-1.113-1.931-3.113-3.238-4.681c-1.102-1.318-3.579-0.182-3.533,1.488
		c0.08,1.909,0.852,3.704,0.909,5.601c0.136,4.624-3.283,8.43-6.771,10.998c-1.466,0.898-2.806,0.454-4.317,0.886
		c-1.284,0.364-1.5,1.784-0.807,2.784c0.852,1.227,2.09,1.102,3.431,0.977c0,0,3.295-0.523,6.43-2.954
		c3.34-2.59,5.715-6.635,6.306-10.816c2.193,0.92,4.658,0.92,6.964,0.682c1.386-0.148,3.238-1.079,4.351,0.114
		c1.079,1.17,3.011,2.397,4.056,0.341c0.386-0.75,0.443-1.636,0.102-2.409c-0.284-0.682-1.25-1.863-0.591-2.329
		C185.789,110.694,187.516,109.74,189.095,108.524"/>
	<path style="fill:#00BEDA;" d="M124.301,111.217C124.142,111.467,124.222,111.353,124.301,111.217
		c-0.829,1.227-2.375,0.898-3.408,0.136c-1.17-0.909-0.307-2.625,0.364-3.511c0.568-0.75,2.022-3.283,2.579-1.477
		C124.279,107.82,125.267,109.774,124.301,111.217C124.392,111.092,124.461,110.978,124.301,111.217 M124.381,101.287
		c-2.068-1.761-4.567-3.158-6.839-4.658c3.272-1.636,7.396-3.442,9.816-6.26c0.67-0.784,1.829-4.635-0.398-3.272
		c-1.545,0.943-2.988,2.022-4.545,2.943c-1.807,1.057-3.67,1.977-5.556,2.874c-1.42,0.67-3.795,1.443-4.476,3.011
		c-0.648,1.5,1.079,2.659,2.215,3.181c1.988,0.932,3.886,2.261,5.76,3.386c-1.738,1.943-3.772,3.931-4.26,6.624
		c-0.545,2.806,1.068,5.317,3.533,6.567c2.613,1.318,5.624,0.795,7.68-1.17C130.505,111.467,129.46,105.604,124.381,101.287"/>
	<path style="fill:#00BEDA;" d="M159.862,118.329c0-0.375-0.216-0.682-0.659-0.897c-0.443-0.227-1.045-0.33-1.818-0.307
		c-0.932,0.057-1.852,0.125-2.761,0.227c-0.909,0.091-1.818,0.204-2.749,0.341c-0.534,0.057-0.932,0.295-1.204,0.716
		c-0.261,0.432-0.341,0.909-0.239,1.431c0.023,0.398,0.341,0.693,0.943,0.875c0.602,0.193,1.306,0.307,2.136,0.341
		c0.829,0.045,1.67,0,2.522-0.114c0.852-0.114,1.557-0.284,2.113-0.5c0.534-0.216,0.954-0.489,1.261-0.818
		C159.703,119.283,159.862,118.852,159.862,118.329"/>
	<path style="fill:#00BEDA;" d="M49.533,112.455c-0.148-1.068-0.136-3.431-1.022-4.17c-0.886-0.727-2.908-0.579-3.545,0.443
		c-0.704,1.125,0.17,2.795,0.42,3.931c0.364,1.647,0.557,3.34,0.568,5.033c0.023,3.181-0.875,6.192-2.636,8.839
		c-0.716,1.079-1.5,2.136-2.624,2.829c-1.466,0.898-2.806,0.454-4.317,0.886c-1.284,0.363-1.511,1.784-0.807,2.784
		c0.852,1.227,2.09,1.102,3.431,0.977c2.931-0.295,5.351-1.909,7.169-4.158c3.976-4.908,4.17-11.214,3.397-17.212
		C49.567,112.762,49.578,112.796,49.533,112.455"/>
	<path style="fill:#00BEDA;" d="M79.538,96.254c-1.182-1.147-2.749-0.329-3.704,0.704c-1.079,1.182-0.932,2.499,0.182,3.613
		C78.925,103.525,82.106,98.742,79.538,96.254"/>
	<path style="fill:#00BEDA;" d="M103.419,91.369c-0.602-0.886-1.409-1.079-2.34-0.511c-1.181,0.727-1.397,1.943-1.431,3.238
		c-0.102,3.249,0.67,6.556,0.829,9.805c0.148,3.022,0.045,6.056-0.034,9.078c-0.046,1.738-0.091,3.488-0.125,5.226
		c-0.023,1.136-0.204,3.306,1.102,3.874c2.397,1.045,2.647-4.124,2.67-5.374c0.046-2.988,0.011-5.965-0.023-8.953
		c0-0.011,0-0.114,0-0.42c0-0.5,0-0.477,0-0.307c-0.023-2.727-0.068-5.442-0.091-8.157
		C103.965,96.674,104.726,93.277,103.419,91.369"/>
	<path style="fill:#00BEDA;" d="M62.712,117.818c-1.341-0.704-3.329-1.352-3.761-3.102c-0.318-1.477,1.034-2.318,2.318-2.511
		c1.466-0.182,2.068,1.636,2.227,2.738C63.632,115.886,64.382,118.704,62.712,117.818 M92.069,89.437
		c-0.375-1.307-0.727-2.636-2.375-2.636c-2.25,0.046-2.034,2.829-1.716,4.385c0.954,4.545,2.181,9.078,2.886,13.668
		c0.523,3.386,0.92,10.623-3.545,11.634c-2.999,0.682-6.271-0.341-6.874-3.681c-0.261-1.625,0.182-3.465-0.727-4.942
		c-1.091-1.784-3.533-1.159-4.17,0.636c-0.75,2.102-0.636,4.283-1.943,6.215c-1,1.477-2.216,1.886-3.908,1.886
		c-0.523,0-1.057,0.114-1.568,0c-0.829-0.182-0.795-1.068-1.045-1.761c-0.841-2.25-1.966-4.579-4.408-5.397
		c-3.215-1.079-6.908,1.375-6.987,4.806c-0.102,4.226,3.806,6.385,7.487,7.146c-2.545,4.522-5.987,8.453-11.645,7.817
		c-0.432,3.601,3.306,4.374,6.067,3.215c3.295-1.386,5.59-3.579,7.635-6.476c0.932-1.318,1.647-3.352,2.829-4.42
		c0.659-0.591,1.557-0.5,2.375-0.5c2.977,0,5.817-1.659,7.112-4.386c2.636,4.704,9.543,5.953,13.861,2.727
		c5.874-4.386,3.908-13.747,2.772-19.837C93.547,96.186,92.978,92.721,92.069,89.437"/>
	<path d="M48.488,135.78v2.147c0,3.136-1.852,5.169-4.715,5.169c-1.863,0-3.761-1.216-3.761-3.545c0-2.533,1.488-3.772,4.545-3.772
		L48.488,135.78L48.488,135.78z M49.783,142.29c-0.057-1-0.114-2.25-0.114-2.908v-7.805c0-2.874-1.761-4.454-4.965-4.454
		c-3.295,0-5.26,1.613-5.26,4.317v0.648h1.102v-0.648c0-2.954,3.09-3.192,4.045-3.192c2.624,0,3.897,1.193,3.897,3.647v2.829h-4.226
		c-4.033,0-5.465,2.5-5.465,4.84c0,3.147,2.454,4.579,4.738,4.579c2.42,0,4.113-1.022,5.044-3.022
		c0.023,0.761,0.068,1.988,0.114,2.511l0.011,0.125h1.148v-0.136C49.828,143.335,49.817,142.847,49.783,142.29"/>
	<path d="M57.202,142.767c-1.443,0-2.306-0.943-2.306-2.499v-19.962h-1.182v19.757c0,2.477,1.148,3.829,3.238,3.829
		c0.477,0,1.193-0.023,1.897-0.261l0.091-0.034v-1.079l-0.159,0.046C58.395,142.676,57.77,142.767,57.202,142.767"/>
	<path d="M74.914,127.134c-2.295,0-4.238,1.318-5.272,3.567v-3.17h-1.091v16.247h1.147v-9.975c0-3.283,2.545-5.499,4.919-5.499
		c2.25,0,3.442,1.511,3.442,4.363v11.111h1.159v-11.964C79.22,129.486,77.891,127.134,74.914,127.134"/>
	<path d="M92.774,133.349v4.442c0,3.59-1.386,5.26-4.363,5.26c-3.727,0-4.51-2.795-4.51-5.135v-4.442
		c0-2.375,0.773-5.204,4.454-5.204C92.194,128.27,92.774,131.451,92.774,133.349 M88.377,127.134c-3.579,0-5.635,2.284-5.635,6.271
		v4.579c0,3.999,2.011,6.203,5.669,6.203c3.533,0,5.556-2.284,5.556-6.271v-4.51C93.956,129.304,92.024,127.134,88.377,127.134"/>
	<path d="M106.896,133.349v4.442c0,3.59-1.386,5.26-4.363,5.26c-3.726,0-4.51-2.795-4.51-5.135v-4.442
		c0-2.375,0.773-5.204,4.454-5.204C106.317,128.27,106.896,131.451,106.896,133.349 M102.499,127.134
		c-3.579,0-5.635,2.284-5.635,6.271v4.579c0,3.999,2.011,6.203,5.669,6.203c3.533,0,5.556-2.284,5.556-6.271v-4.51
		C108.078,129.304,106.146,127.134,102.499,127.134"/>
	<path d="M118.303,127.361c-1.886,0-3.999,0.432-5.522,3.511v-3.352h-1.125v16.247h1.147v-9.328c0.102-3.613,2.056-5.851,5.09-5.851
		c0.284,0,0.807,0,1.284,0.068l0.148,0.011v-1.216l-0.114-0.011C118.996,127.395,118.61,127.361,118.303,127.361"/>
	<rect x="128.46" y="120.113" width="1.159" height="3.193"/>
	<rect x="128.46" y="127.52" width="1.159" height="16.247"/>
	<g>
		<path d="M140.026,135.166l-2.091-0.557c-2.443-0.602-3.386-1.5-3.386-3.227c0-1.852,1.42-3.192,3.386-3.192
			c1.591,0,2.897,0.398,3.976,1.204l0.102,0.08l0.67-0.875l-0.091-0.08c-0.977-0.92-2.522-1.409-4.465-1.409
			c-3.522,0-4.772,2.397-4.772,4.454c0,2.159,1.409,3.567,4.192,4.192l1.477,0.352c1.977,0.489,3.124,1.193,3.124,3.386
			c0,2.238-2.011,3.579-3.965,3.579c-1.92,0-3.204-0.511-4.579-1.818l-0.091-0.091l-0.773,0.829l0.08,0.091
			c1.261,1.386,3.068,2.091,5.374,2.091c3.556,0,5.181-2.613,5.181-5.033C143.366,137.075,142.275,135.769,140.026,135.166"/>
		<path d="M150.319,142.767c-1.443,0-2.306-0.943-2.306-2.499v-19.962h-1.182v19.757c0,2.477,1.147,3.829,3.227,3.829
			c0.477,0,1.193-0.023,1.897-0.261l0.091-0.034v-1.079l-0.159,0.046C151.512,142.676,150.887,142.767,150.319,142.767"/>
		<path d="M163.907,135.78v2.147c0,3.136-1.852,5.169-4.715,5.169c-1.863,0-3.761-1.216-3.761-3.545
			c0-2.533,1.488-3.772,4.545-3.772L163.907,135.78L163.907,135.78z M165.202,142.279c-0.057-1-0.114-2.238-0.114-2.897v-7.805
			c0-2.874-1.772-4.454-4.976-4.454c-3.295,0-5.26,1.613-5.26,4.317v0.648h1.102v-0.648c0-2.954,3.102-3.192,4.045-3.192
			c2.624,0,3.908,1.193,3.908,3.647v2.829h-4.215c-4.033,0-5.465,2.5-5.465,4.84c0,3.147,2.454,4.579,4.738,4.579
			c2.42,0,4.113-1.022,5.044-3.033c0.011,0.761,0.068,1.988,0.114,2.522l0.011,0.125h1.148v-0.136
			C165.259,143.335,165.225,142.835,165.202,142.279"/>
		<path d="M175.461,127.134c-2.295,0-4.238,1.318-5.272,3.567v-3.17h-1.102v16.247h1.159v-9.975c0-3.283,2.545-5.499,4.919-5.499
			c2.261,0,3.442,1.511,3.442,4.363v11.111h1.159v-11.964C179.767,129.486,178.438,127.134,175.461,127.134"/>
		<path d="M188.482,143.028c-2.784,0-4.045-2.17-4.045-4.192v-6.022c0-3.147,2.102-4.59,4.045-4.59c2.59,0,4.545,2.488,4.545,5.794
			v2.829C193.026,140.552,190.674,143.028,188.482,143.028 M192.992,120.374v9.986c-0.773-2.204-2.84-3.227-4.567-3.227
			c-2.488,0-5.147,1.568-5.147,5.953v5.942c0,3.136,1.92,5.169,4.885,5.169c1.034,0,3.477-0.375,4.897-3.783v3.352h1.125v-23.404
			h-1.193V120.374z"/>
	</g>
</g>
</svg>
