<?xml version="1.0" encoding="iso-8859-1"?>
<!-- Generator: Adobe Illustrator 21.1.0, SVG Export Plug-In . SVG Version: 6.00 Build 0)  -->
<svg version="1.1" id="Layer_1" xmlns="http://www.w3.org/2000/svg" xmlns:xlink="http://www.w3.org/1999/xlink" x="0px" y="0px"
	 viewBox="0 0 231 231" style="enable-background:new 0 0 231 231;" xml:space="preserve">
<g>
	<path style="fill:#434D3E;" d="M158.16,151.315c-11.575,0-23.168-0.019-34.743,0.019c-0.951,0-1.193-0.224-1.193-1.193
		c0.037-23.094,0.037-46.187,0-69.281c0-0.951,0.224-1.193,1.193-1.193c23.168,0.037,46.336,0.037,69.505,0
		c0.951,0,1.193,0.224,1.193,1.193c-0.037,23.094-0.037,46.187,0,69.281c0,0.951-0.224,1.193-1.193,1.193
		C181.329,151.315,169.754,151.315,158.16,151.315z M128.506,120.71c0,1.771,0,3.56,0,5.331c0,1.957-0.019,1.994,1.864,2.442
		c4.082,0.988,8.089,2.237,12.059,3.597c0.503,0.168,1.006,0.168,1.491-0.056c1.957-0.857,3.914-1.715,5.871-2.591
		c3.318-1.51,6.654-2.926,10.046-4.212c5.2-1.976,10.512-3.709,16.067-4.194c3.97-0.354,8.015-0.242,11.798,1.361
		c0.447,0.186,0.783,0.466,0.82-0.335c0.093-3.56,0.037-7.157-0.541-10.661c-0.559-3.411-1.752-6.635-3.486-9.674
		c-2.796-4.902-6.617-8.742-11.519-11.444c-5.424-2.982-11.221-4.306-17.465-3.635c-3.486,0.373-6.785,1.267-9.935,2.777
		c-4.958,2.348-8.947,5.853-12.022,10.419c-3.113,4.641-4.846,9.748-5.051,15.34C128.45,117,128.506,118.864,128.506,120.71z
		 M188.523,138.23c-3.84,1.622-7.698,2.367-11.593,2.591c-3.653,0.224-7.344,0.13-11.016-0.354c-3.187-0.41-6.319-1.006-9.45-1.678
		c-0.876-0.186-1.752-0.727-2.647-0.373c-2.199,0.876-4.399,1.678-6.691,2.293c-3.187,0.857-6.375,1.528-9.711,1.584
		c-3.02,0.037-5.983-0.186-8.909-1.156c0,1.342,0.075,2.591-0.019,3.802c-0.093,1.156,0.186,1.528,1.454,1.528
		c19.068-0.056,38.154-0.037,57.222-0.037c0.224,0,0.466-0.019,0.69,0c0.466,0.056,0.69-0.093,0.69-0.634
		C188.505,143.356,188.523,140.895,188.523,138.23z M158.328,136.59c0.541,0.224,0.932,0.168,1.286,0.242
		c3.784,0.783,7.605,1.398,11.463,1.491c2.833,0.056,5.648,0.019,8.462-0.41c2.908-0.447,5.722-1.174,8.462-2.199
		c0.522-0.186,0.503-0.559,0.503-0.988c0-1.883-0.093-3.784,0.037-5.666c0.075-1.193-0.391-1.771-1.454-1.976
		c-0.783-0.149-1.584-0.335-2.367-0.298c-2.572,0.093-5.051,0.708-7.474,1.584c-2.162,0.764-4.268,1.603-6.356,2.554
		C166.79,132.806,162.652,134.651,158.328,136.59z M184.535,124.158c-1.827-0.82-3.728-0.764-5.536-0.802
		c-1.361-0.019-2.796,0.13-4.194,0.336c-4.455,0.634-8.723,1.938-12.898,3.523c-3.467,1.323-6.878,2.759-10.307,4.194
		c-1.491,0.615-2.926,1.361-4.511,2.106c1.789,0.559,3.374,1.174,5.014,1.51c0.783,0.168,1.547,0.746,2.479,0.317
		c4.678-2.125,9.394-4.175,14.072-6.319C173.743,126.749,178.85,124.605,184.535,124.158z M127.108,100.43
		c0.075,0.056,0.149,0.112,0.224,0.149c3.784-7.139,9.263-12.488,16.514-16.011c-4.697,0-9.413,0-14.11,0
		c-2.628,0-2.628,0-2.628,2.591C127.108,91.596,127.108,96.013,127.108,100.43z M189.213,100.039c0-5.014-0.019-9.711,0.019-14.408
		c0-0.839-0.168-1.1-1.062-1.081c-4.827,0.056-9.636,0.019-14.464,0.019c-0.261,0-0.541,0-1.007,0
		C179.875,88.017,185.299,92.975,189.213,100.039z M131.097,139.05c6.43,1.51,12.581,0.298,18.807-1.976
		c-1.845-0.559-3.523-0.951-5.126-1.566c-0.988-0.373-1.808-0.317-2.759,0.075C138.478,137.075,134.899,138.417,131.097,139.05z
		 M139.428,133.831c-1.92-0.615-3.653-1.23-5.405-1.733c-1.808-0.503-3.635-0.913-5.536-1.379c0,1.659,0.037,3.243-0.019,4.827
		c-0.019,0.727,0.149,1.025,0.932,0.969C132.886,136.254,136.092,135.136,139.428,133.831z"/>
	<path style="fill:#B49759;" d="M87.5,120.97c-4.287-2.535-4.417-8.779-1.808-11.761c3.094-3.56,8.574-4.194,11.482-1.342
		c3.933,3.84,3.467,8.891-1.286,13.122c2.106,0,4.082,0,6.076,0c0.615,0,0.82-0.298,0.801-0.857
		c-0.019-1.808-0.037-3.635,0.019-5.443c0.019-0.503-0.261-0.764-0.596-1.081c0.876,0,1.678,0,2.554,0
		c-0.671,0.578-0.82,1.286-0.802,2.069c0,1.547-0.075,3.094,0.019,4.641c0.075,1.081-0.205,1.417-1.361,1.417
		c-14.371-0.037-28.741-0.037-43.112-0.037c-2.591,0-5.182,0-7.772,0c-2.274,0-3.933-1.491-4.362-3.728
		c-0.186-1.025-0.205-2.05-0.205-3.094c0-2.274,0-4.566,0-6.84c0-1.286,0-1.286-1.1-1.957c1.417-0.13,2.833-0.28,4.287,0.112
		c-1.156,0.298-1.379,1.062-1.361,2.088c0.056,2.703,0.019,5.405,0.019,8.108c0,2.535,1.417,4.79,4.604,4.604
		c0.876-0.056,1.733,0.093,2.628-0.186c1.454-0.447,2.498-1.547,2.74-3.001c0.298-1.789,0.28-3.597,0.186-5.405
		c-0.037-0.82,0.056-1.957-1.305-2.143c1.491,0,3.001,0,4.492,0c-1.752,0.391-1.528,1.771-1.547,3.019
		c-0.019,1.584,0.093,3.187-0.075,4.753c-0.112,1.1-0.69,2.125-1.957,2.982c2.199,0,4.063,0,5.927,0
		c0.522,0,0.503-0.354,0.503-0.708c0-2.516,0-5.014,0-7.53c0-0.82-0.485-1.342-1.435-1.864c1.696,0,3.038,0,4.38,0
		c0.019,0.447-0.298,0.354-0.485,0.41c-0.615,0.186-0.652,0.652-0.596,1.193c0.075,0.634,0.578,0.391,0.913,0.391
		c2.554,0.019,5.107-0.093,7.642,0.037c2.274,0.112,4.38,0.783,5.61,2.926c0.783,1.361,1.118,2.852,0.764,4.399
		c-0.149,0.615-0.037,0.764,0.541,0.764C84.22,120.952,85.86,120.97,87.5,120.97z M92.048,120.504
		c2.554,0.28,4.66-1.472,5.312-3.765c0.746-2.628,0.317-5.163-1.212-7.288c-2.032-2.833-5.946-3.336-8.35-0.783
		c-1.64,1.733-2.348,5.815-0.913,8.574C87.966,119.312,89.569,120.635,92.048,120.504z M73.223,120.97
		c1.808,0,3.635-0.037,5.443,0.019c0.876,0.019,1.1-0.354,1.174-1.137c0.298-3.057-1.696-4.883-4.082-5.554
		c-2.721-0.746-5.554-0.522-8.35-0.522c-0.596,0-0.559,0.373-0.559,0.764c0,1.845,0.037,3.709-0.019,5.554
		c-0.019,0.764,0.28,0.895,0.951,0.876C69.588,120.933,71.415,120.97,73.223,120.97z"/>
	<path style="fill:#B49759;" d="M63.605,142.275c2.889,1.883,6.058,3.001,9.469,3.15c1.193,0.056,2.498-0.168,3.672-0.671
		c0.261-0.112,0.559-0.28,0.69,0.019c0.13,0.298-0.186,0.41-0.466,0.522c-3.69,1.51-7.381,1.64-11.109,0.093
		c-1.864-0.764-3.616-1.752-5.349-2.796c-0.671-0.41-1.305-0.503-2.143-0.317c-5.443,1.249-9.785-1.566-10.102-7.269
		c-0.205-3.635,2.274-7.53,6.337-8.164c3.933-0.615,7.977,0.671,9.282,4.958c0.951,3.169,0.261,6.02-2.069,8.425
		c-0.186,0.186-0.373,0.391-0.559,0.578c-0.056,0.056-0.075,0.13-0.168,0.261C61.909,141.567,62.71,142.051,63.605,142.275
		C63.624,142.293,63.605,142.275,63.605,142.275z M58.237,141.268c-1.025-0.652-1.882-1.379-3.094-1.305
		c-0.205,0.019-0.522,0.093-0.522-0.261c0-0.242,0.242-0.335,0.466-0.429c1.435-0.559,2.74-0.112,3.858,0.727
		c0.913,0.671,1.417,0.317,1.827-0.429c1.715-3.019,1.771-6.095,0.112-9.114c-1.156-2.106-3.094-2.926-5.48-2.777
		c-1.938,0.13-3.933,1.622-4.548,3.504c-0.82,2.535-0.634,4.995,0.652,7.381C52.906,141.101,56.187,142.182,58.237,141.268z"/>
	<path style="fill:#B49759;" d="M92.29,134.763c0.969,0.578,1.901,1.081,2.386,2.032c1.081,2.088-0.019,4.622-2.348,5.219
		c-1.323,0.335-2.703,0.485-4.063,0.056c-0.596-0.186-1.118,0.224-1.678,0.205c-0.242-0.019-0.503-0.019-0.578-0.261
		c-0.093-0.28,0.168-0.354,0.391-0.429c0.596-0.186,0.615-0.764,0.615-1.193c0.037-3.206,0.019-6.393,0.019-9.599
		c0-0.559-0.13-1.081-0.895-1.044c-0.205,0.019-0.522,0.037-0.41-0.336c0.056-0.186,0.224-0.354,0.429-0.298
		c1.715,0.503,3.448-0.075,5.182,0.168c2.05,0.261,3.169,2.479,2.032,4.194C93.055,133.925,92.85,134.428,92.29,134.763z
		 M90.781,141.361c0.764,0.056,1.51-0.093,2.088-0.988c0.783-1.267,0.317-2.348-0.298-3.411c-0.634-1.1-1.678-1.454-2.908-1.417
		c-0.596,0.019-0.801,0.186-0.783,0.783c0.037,1.118,0.019,2.218,0.019,3.336C88.88,141.175,89.066,141.343,90.781,141.361z
		 M88.861,132.266c0,0.391-0.037,0.764,0.019,1.156c0.056,0.41-0.298,1.081,0.317,1.174c0.708,0.093,1.547,0.373,2.181-0.261
		c1.286-1.249,0.764-3.616-0.951-4.231c-1.081-0.391-1.566-0.075-1.566,1.025C88.861,131.501,88.861,131.874,88.861,132.266z"/>
	<path style="fill:#B49759;" d="M77.286,141.921c-1.23,0.801-2.535-0.186-3.802,0.112c-0.075,0.019-0.242-0.112-0.242-0.149
		c0.317-1.417-0.839-2.404-1.062-3.653c-0.075-0.429-0.354-0.764-0.727-0.783c-1.118-0.056-2.237-0.075-3.355,0
		c-0.503,0.037-1.715,3.579-1.417,4.007c0.186,0.261,0.969,0.075,0.652,0.615c-0.261,0.466-0.913,0.28-1.379,0.112
		c-0.82-0.298-1.566,0.354-2.349,0.112l0.019,0.019c-0.056-0.261-0.559-0.708,0.186-0.69c0.857,0.037,1.156-0.522,1.398-1.118
		c1.267-3.131,2.479-6.281,3.746-9.394c0.317-0.764,0.317-2.05,1.193-2.088c0.541-0.019,0.802,1.305,1.1,2.05
		c1.23,2.982,2.46,5.964,3.616,8.965c0.447,1.174,1.417,1.566,2.442,1.92C77.305,141.939,77.286,141.921,77.286,141.921z
		 M68.209,136.441c1.174,0,2.162,0,3.15,0c-0.168-1.212-0.839-2.218-1.118-3.355c-0.037-0.168-0.093-0.503-0.391-0.485
		c-0.261,0.019-0.354,0.224-0.447,0.447C69.029,134.148,68.638,135.248,68.209,136.441z"/>
	<path style="fill:#B49759;" d="M107.388,142.256c-0.727-0.335-1.659-0.186-2.572-0.224c-0.186,0-0.391-0.019-0.373-0.298
		c0.075-1.044-0.559-1.827-0.876-2.74c-0.186-0.559-0.28-1.435-0.839-1.51c-1.174-0.168-2.386-0.056-3.56,0.019
		c-0.168,0-0.354,0.373-0.447,0.615c-0.336,0.839-0.652,1.696-0.932,2.554c-0.13,0.391-0.335,0.839,0.373,0.932
		c0.186,0.019,0.373,0.168,0.335,0.373c-0.037,0.186-0.242,0.317-0.447,0.28c-1.006-0.205-2.013,0-3.038,0
		c-0.224,0-0.41-0.112-0.447-0.298c-0.037-0.186,0.149-0.354,0.354-0.373c1.286-0.075,1.51-1.137,1.864-2.032
		c1.249-3.206,2.46-6.43,3.746-9.636c0.149-0.373,0.205-1.044,0.727-1.025c0.41,0.019,0.503,0.615,0.671,0.988
		c1.081,2.628,2.125,5.256,3.206,7.884c0.354,0.876,0.727,1.752,1.156,2.591c0.28,0.559,0.597,1.174,1.379,1.193
		c0.28,0,0.615,0.075,0.578,0.391C108.171,142.275,107.835,142.312,107.388,142.256z M100.92,132.042
		c-0.671,1.622-1.137,2.982-1.491,4.436c0.839,0,1.566-0.037,2.293,0.019c0.671,0.037,0.913-0.093,0.596-0.802
		C101.852,134.596,101.461,133.459,100.92,132.042z"/>
	<path style="fill:#B49759;" d="M77.286,141.921v0.019c0-0.764,0-1.547-0.019-2.311c0-0.224,0.093-0.429,0.28-0.466
		c0.261-0.056,0.335,0.186,0.41,0.429c0.615,1.883,2.721,2.591,4.343,1.454c0.951-0.671,1.081-2.237,0.168-3.15
		c-0.913-0.913-1.994-1.64-3.038-2.404c-2.032-1.51-2.684-4.138-0.578-5.797c0.969-0.764,2.162-0.857,3.336-0.783
		c0.317,0.019,0.652,0.149,1.006,0.168c0.671,0.019,1.118,0.261,1.006,1.044c-0.075,0.485,0.242,1.212-0.186,1.379
		c-0.634,0.242-0.466-0.615-0.727-0.932c-0.839-0.969-2.628-1.062-3.728-0.093c-0.801,0.708-0.652,1.939,0.447,2.852
		c0.969,0.802,2.05,1.435,3.019,2.237c2.088,1.752,2.311,4.399,0.335,6.002c-1.062,0.857-2.404,0.951-3.69,0.895
		C78.908,142.443,78.106,142.126,77.286,141.921z"/>
	<path style="fill:#B49759;" d="M41.201,120.952c-2.554-1.734-2.628-4.343-1.472-5.946c0.69-0.969,1.696-1.342,2.814-1.454
		c0.429-0.037,0.857,0,1.267,0c2.106,0,2.442,0.541,1.733,2.721c-0.783-1.659-1.771-2.293-3.001-1.92
		c-2.013,0.597-2.591,3.038-1.1,4.734c1.062,1.212,2.311,1.994,3.989,1.883c0.447-0.019,0.876-0.019,0.876,0.69
		c-2.143,0-4.287,0-6.43,0c-0.391,0-0.783-0.037-1.156,0.019c-0.578,0.093-1.361,0.578-1.659-0.019
		c-0.298-0.615-0.205-1.472,0.149-2.442C37.883,121.399,39.505,120.896,41.201,120.952z"/>
	<path style="fill:#B49759;" d="M37.045,142.238c1.1-0.615,1.025-1.827,1.491-2.665c0.503-0.932,0.783-1.976,1.174-2.964
		c0.093-0.224,0-0.578,0.429-0.559c0.373,0.019,0.391,0.354,0.485,0.559c0.596,1.435,1.137,2.889,1.715,4.343
		c0.205,0.503,0.447,1.007,1.156,0.876c0.671-0.13,0.671-0.652,0.671-1.137c0.019-1.081-0.037-2.162,0.019-3.243
		c0.037-0.578-0.28-0.895-0.988-1.305c1.081,0,1.808,0,2.516,0c-0.522,0.354-0.671,0.783-0.634,1.398
		c0.056,0.969,0,1.938,0.019,2.889c0,0.41-0.168,0.969,0.373,1.1c0.559,0.13,1.23,0.335,1.678-0.317
		c0.093-0.13,0.13-0.28,0.391-0.224c0.242,0.857,0.093,1.361-0.969,1.323c-0.895-0.037-1.771-0.056-2.665,0
		c-1.361,0.112-2.535,0.112-2.796-1.696c-0.149-0.969-1.118-0.745-1.696-0.578c-0.559,0.168-0.895,1.081-0.727,1.472
		c0.466,1.081-0.28,0.746-0.727,0.783C37.641,142.293,37.343,142.256,37.045,142.238z M40.549,139.498
		c-0.168-0.447,0.019-1.081-0.615-1.081c-0.503,0-0.578,0.652-0.485,0.876C39.635,139.721,40.139,139.423,40.549,139.498z"/>
	<path style="fill:#B49759;" d="M108.488,121.604c-0.857,0-1.733,0-2.46,0c0.802-2.684,0.615-5.312,0.149-7.996
		c0.503,0,1.212,0,2.032,0c-0.466,0.354-0.578,0.783-0.559,1.305c0.037,1.622,0.037,3.243,0,4.846
		C107.612,120.504,107.574,121.213,108.488,121.604z"/>
	<path style="fill:#B49759;" d="M87.034,106.786c-0.075,0.652-0.429,1.006-1.118,0.969c-0.634-0.037-0.969-0.391-0.969-1.025
		c0-0.69,0.354-1.062,1.044-1.062C86.699,105.668,86.997,106.078,87.034,106.786z"/>
	<path style="fill:#B49759;" d="M54.193,124.68c-0.727,0.037-0.951-0.541-0.969-1.044c-0.019-0.634,0.447-1.044,1.1-1.044
		c0.652,0,0.951,0.41,0.932,1.044C55.255,124.344,54.863,124.661,54.193,124.68z"/>
	<path style="fill:#B49759;" d="M83.157,107.737c-0.746,0.093-1.006-0.205-1.025-0.895c-0.019-0.745,0.41-1.118,0.988-1.1
		s1.1,0.522,1.044,1.118C84.127,107.364,83.847,107.923,83.157,107.737z"/>
	<path style="fill:#FEFEFE;" d="M100.92,132.042c0.541,1.417,0.951,2.554,1.417,3.653c0.298,0.708,0.056,0.839-0.596,0.802
		c-0.727-0.037-1.454-0.019-2.293-0.019C99.765,135.024,100.249,133.682,100.92,132.042z"/>
</g>
</svg>
