<?xml version="1.0" encoding="iso-8859-1"?>
<!-- Generator: Adobe Illustrator 21.1.0, SVG Export Plug-In . SVG Version: 6.00 Build 0)  -->
<svg version="1.1" id="Layer_1" xmlns="http://www.w3.org/2000/svg" xmlns:xlink="http://www.w3.org/1999/xlink" x="0px" y="0px"
	 viewBox="0 0 231 231" style="enable-background:new 0 0 231 231;" xml:space="preserve">
<g>
	<path style="fill:#B20A39;" d="M88.32,61.614c2.316,0,4.48,0,6.644,0c1.708,0,3.417,0.04,5.122-0.02
		c0.685-0.023,1.02,0.241,1.353,0.797c4.497,7.553,9.021,15.092,13.535,22.633c0.089,0.146,0.183,0.29,0.353,0.559
		c1.981-4.173,3.918-8.25,5.905-12.432c1.158,2.038,2.267,3.99,3.377,5.948c0.897,1.585,1.774,3.182,2.7,4.753
		c0.315,0.539,0.387,0.975,0.097,1.582c-1.545,3.228-3.03,6.49-4.54,9.743c-0.464,1.003-0.47,1,0.679,1c3.414,0,6.828,0,10.245,0
		c0.591,0,1.754,1.149,1.74,1.731c-0.011,0.396-0.338,0.229-0.522,0.229c-1.998,0.011-3.993,0.009-5.991,0.009
		c-1.789,0-3.577,0-5.515,0c0.398,0.702,0.757,1.284,1.069,1.892c0.215,0.416,0.573,0.324,0.906,0.324
		c3.385,0.003,6.773,0.049,10.156-0.026c1.003-0.023,1.645,0.221,1.995,1.167c0.086,0.238,0.229,0.453,0.404,0.794
		c-4.059,0-8.023,0-12.151,0c0.39,0.685,0.699,1.227,1.006,1.769c0.204,0.358,0.553,0.255,0.854,0.255
		c3.443,0.006,6.888,0.037,10.33-0.02c0.897-0.014,1.482,0.215,1.826,1.046c0.12,0.287,0.324,0.539,0.573,0.94
		c-4.122,0-8.132,0-12.3,0c0.35,0.625,0.628,1.086,0.874,1.568c0.166,0.321,0.436,0.327,0.734,0.327
		c7.871-0.003,15.742-0.009,23.611,0.006c0.745,0,0.568-0.269,0.318-0.697c-4.87-8.341-9.731-16.685-14.596-25.026
		c-4.004-6.868-8.012-13.739-12.016-20.607c-0.069-0.12-0.132-0.246-0.198-0.375c0.258-0.224,0.525-0.126,0.765-0.126
		c3.732-0.009,7.467,0.011,11.199-0.023c0.616-0.006,0.911,0.227,1.207,0.722c8.404,14.077,16.82,28.148,25.239,42.216
		c3.027,5.062,6.06,10.121,9.078,15.189c0.152,0.255,0.525,0.513,0.344,0.817c-0.143,0.244-0.533,0.092-0.811,0.092
		c-8.189,0.006-16.379-0.003-24.568,0.02c-0.605,0.003-0.929-0.186-1.21-0.711c-1.516-2.829-3.084-5.63-4.601-8.459
		c-0.292-0.545-0.608-0.78-1.261-0.774c-3.589,0.037-7.177,0.029-10.763,0.009c-0.662-0.003-0.803,0.109-0.482,0.754
		c1.39,2.795,2.723,5.618,4.102,8.422c0.269,0.547,0.321,0.763-0.439,0.76c-9.462-0.023-18.924-0.02-28.386,0
		c-0.55,0-0.814-0.212-1.075-0.656c-1.717-2.95-3.471-5.876-5.188-8.823c-0.252-0.433-0.527-0.579-1.023-0.576
		c-7.06,0.017-14.12,0.023-21.18-0.006c-0.636-0.003-0.909,0.244-1.161,0.763c-1.39,2.861-2.818,5.701-4.205,8.562
		c-0.258,0.53-0.547,0.748-1.172,0.745c-4.804-0.032-9.605-0.017-14.409-0.02c-0.221,0-0.533,0.037-0.645-0.086
		c-0.198-0.212,0.106-0.407,0.215-0.585c2.279-3.692,4.583-7.367,6.845-11.067c0.318-0.522,0.705-0.565,1.218-0.565
		c16.493,0.009,32.986,0.006,49.48,0.006c1.029,0,1.032-0.003,0.507-0.914c-8.602-14.94-17.204-29.871-25.803-44.805
		C88.601,62.164,88.504,61.961,88.32,61.614z"/>
	<path style="fill:#B20A39;" d="M81.077,77.995c2.23,3.852,4.38,7.582,6.558,11.296c0.238,0.407,0.135,0.671-0.069,1.018
		c-1.135,1.94-2.25,3.893-3.46,5.997c1.032,0,1.938,0,2.843,0c1.387,0,2.778-0.003,4.165,0.003c0.453,0,1.654,1.336,1.531,1.72
		c-0.1,0.312-0.396,0.158-0.599,0.158c-2.141,0.011-4.28,0.006-6.421,0.006c-5.033,0-10.064-0.009-15.097,0.011
		c-0.633,0.003-0.765-0.097-0.427-0.697c3.571-6.346,7.123-12.704,10.683-19.056C80.853,78.328,80.933,78.216,81.077,77.995z"/>
	<path style="fill:#075998;" d="M91.823,135.507c1.135,0.496,1.258,1.373,1.23,2.348c-0.032,1.069-0.029,2.141,0.003,3.21
		c0.014,0.47-0.152,0.573-0.593,0.588c-2.138,0.072-2.138,0.086-2.138-2.075c0-0.522,0.026-1.043-0.017-1.562
		c-0.08-0.957-0.608-1.511-1.559-1.525c-2.806-0.046-5.612-0.032-8.416-0.069c-0.516-0.006-0.547,0.252-0.542,0.645
		c0.011,1.301-0.023,2.606,0.017,3.907c0.017,0.545-0.161,0.674-0.685,0.682c-2.207,0.029-2.207,0.046-2.207-2.187
		c0-3.589,0.017-7.175-0.014-10.763c-0.006-0.691,0.135-0.94,0.886-0.934c3.847,0.04,7.696,0.014,11.543,0.02
		c0.869,0.003,1.737,0.049,2.545,0.424c0.952,0.444,1.485,1.149,1.462,2.241c-0.017,0.837-0.011,1.68,0.029,2.517
		C93.414,134.111,93.11,135.022,91.823,135.507z M84.72,133.979c0,0.011,0,0.02,0,0.032c1.445,0,2.886,0.009,4.331-0.003
		c0.748-0.006,1.445-0.244,1.576-1.063c0.29-1.766,0.186-2.626-1.92-2.666c-2.743-0.054-5.486-0.003-8.229-0.023
		c-0.499-0.003-0.737,0.089-0.702,0.656c0.049,0.805,0.052,1.62,0,2.425c-0.037,0.573,0.204,0.665,0.702,0.656
		C81.891,133.962,83.304,133.979,84.72,133.979z"/>
	<path style="fill:#055897;" d="M104.381,141.607c-2.138,0-4.28-0.02-6.418,0.014c-0.579,0.009-0.728-0.166-0.725-0.728
		c0.02-4.105,0.02-8.212,0.003-12.317c-0.003-0.527,0.083-0.76,0.702-0.754c4.222,0.029,8.444,0.026,12.664,0.003
		c0.559-0.003,0.742,0.135,0.739,0.717c-0.003,1.797,0.023,1.797-1.731,1.797c-2.835,0-5.667,0.017-8.502-0.014
		c-0.622-0.006-0.811,0.192-0.765,0.788c0.057,0.745-0.232,1.723,0.143,2.181c0.398,0.487,1.413,0.149,2.158,0.155
		c2.631,0.017,5.263,0.032,7.894-0.011c0.676-0.011,0.814,0.201,0.803,0.831c-0.029,1.829-0.003,1.829-1.869,1.829
		c-2.717,0-5.438,0.023-8.155-0.017c-0.722-0.011-1.098,0.118-0.972,0.932c0.106,0.699-0.315,1.642,0.195,2.049
		c0.433,0.344,1.327,0.12,2.015,0.12c2.717,0.006,5.438,0.023,8.155-0.011c0.656-0.009,0.903,0.123,0.877,0.843
		c-0.054,1.594-0.011,1.596-1.574,1.596C108.138,141.607,106.261,141.607,104.381,141.607z"/>
	<path style="fill:#035796;" d="M129.926,138.23c0-3.331,0.029-6.475-0.023-9.62c-0.011-0.625,0.1-0.843,0.722-0.78
		c0.714,0.072,1.642-0.301,2.093,0.14c0.453,0.444,0.135,1.376,0.138,2.093c0.014,3.586-0.009,7.172,0.023,10.76
		c0.006,0.636-0.169,0.76-0.805,0.843c-2.009,0.267-3.454-0.464-4.861-1.898c-2.669-2.723-5.529-5.26-8.313-7.871
		c-0.138-0.129-0.29-0.246-0.565-0.479c0,1.634,0,3.096,0,4.558c0,1.648-0.023,3.296,0.011,4.945
		c0.011,0.576-0.161,0.777-0.734,0.722c-0.487-0.046-0.986-0.043-1.473,0c-0.547,0.046-0.748-0.109-0.745-0.705
		c0.026-4.079,0.023-8.155,0.006-12.234c-0.003-0.631,0.149-0.831,0.854-0.903c1.625-0.166,2.803,0.384,3.973,1.519
		c2.881,2.798,5.896,5.46,8.86,8.175C129.315,137.708,129.556,137.909,129.926,138.23z"/>
	<path style="fill:#065897;" d="M143.986,164.34c-0.969-1.026-1.783-1.886-2.597-2.746c-0.367-0.387-0.989-0.241-1.356-0.722
		c-0.281-0.373-0.358-0.633-0.204-1.081c0.387-1.112,1.006-1.809,2.265-2.032c1.605-0.284,3.17-0.794,4.798-1.221
		c-0.244,1.058-0.717,1.694-1.791,1.898c-1.21,0.229-2.382,0.645-3.706,1.02c1.061,1.109,2.029,2.124,3.001,3.139
		c0.08,0.083,0.189,0.149,0.241,0.249c0.785,1.448,2.064,1.548,3.549,1.528c5.552-0.072,11.107-0.029,16.659-0.029
		c1.003,0,1.19-0.172,0.665-0.975c-0.656-1.003-0.017-1.482,0.536-2.127c0.975,1.026,1.072,2.147,0.608,3.391
		c-0.533,1.43-0.522,1.436-2.032,1.436c-6.102,0-12.205,0.003-18.311-0.003c-0.361,0-0.76,0.12-1.043-0.246
		c-0.066-0.086-0.206-0.183-0.29-0.083c-0.533,0.642-1.25,0.315-1.869,0.318c-7.143,0.026-14.289,0.026-21.435,0.003
		c-0.659-0.003-1.052,0.097-1.23,0.823c-0.195,0.791-0.668,1.47-1.253,2.049c-0.817,0.808-1.402,0.831-2.247,0.072
		c-0.312-0.281-0.582-0.608-0.857-1.012c1.362,0.29,2.442-0.052,3.21-1.178c0.126-0.183,0.355-0.375,0.261-0.608
		c-0.112-0.272-0.407-0.092-0.619-0.126c-0.14-0.023-0.29-0.003-0.433-0.006c-1.984-0.026-2.574-0.932-1.817-2.795
		c0.232-0.57,0.588-1.06,1.012-1.502c0.728-0.754,1.488-0.719,2.124,0.103c0.375,0.487,0.688,1.035,0.763,1.634
		c0.095,0.771,0.504,0.848,1.167,0.846c7.057-0.023,14.117-0.014,21.174-0.014C143.217,164.34,143.498,164.34,143.986,164.34z
		 M118.767,164.357c0.212-0.172,0.826,0.301,0.757-0.378c-0.054-0.527-0.212-1.124-0.903-1.215c-0.447-0.06-1.015,0.55-0.966,1.032
		C117.724,164.498,118.291,164.3,118.767,164.357z"/>
	<path style="fill:#0A5B99;" d="M77.055,159.885c0,1.605,0.026,3.076-0.011,4.543c-0.014,0.622,0.152,0.877,0.823,0.871
		c3.153-0.026,6.306-0.02,9.456-0.003c0.419,0.003,0.699-0.123,0.949-0.462c0.513-0.702,1.098-1.347,1.806-1.86
		c0.877-0.633,1.602-0.699,2.233-0.218c0.639,0.487,0.705,1.081,0.241,2.187c-0.032,0.075-0.032,0.163-0.066,0.338
		c1.875,0,3.715,0.003,5.558-0.003c0.103,0,0.255-0.029,0.304-0.1c0.095-0.138-0.011-0.269-0.118-0.375
		c-0.427-0.43-0.998-0.536-1.663-0.639c0.461-0.639,0.565-1.545,1.29-1.717c1.138-0.267,2.348-0.476,3.5,0.009
		c0.734,0.307,0.909,0.963,0.473,1.64c-0.232,0.361-0.525,0.679-0.923,1.19c1.018,0,1.915,0,2.809,0c1.984,0,1.984,0,1.984-1.963
		c0-0.057,0-0.115,0-0.175c0-2.001,0-2.001,1.823-3.314c0,1.198,0,2.299,0,3.402c0,2.049,0,2.072,2.027,2.038
		c0.794-0.014,1.872,0.378,2.305-0.186c0.353-0.461,0-1.491-0.097-2.262c-0.066-0.519-0.006-1.029-0.419-1.531
		c-0.413-0.504,0.37-0.78,0.585-1.175c0.224-0.41,0.364-0.043,0.562,0.074c0.292,0.175,0.622,0.333,0.955,0.387
		c0.94,0.161,0.811,0.714,0.341,1.147c-0.513,0.47-0.41,0.963-0.327,1.488c0.183,1.147,0.092,2.23-0.507,3.265
		c-0.229,0.396-0.447,0.591-0.932,0.579c-1.445-0.034-2.892-0.011-4.337-0.011c-2.422,0-4.841,0.003-7.263-0.003
		c-0.335,0-0.705,0.1-0.957-0.252c-0.04-0.057-0.155-0.126-0.203-0.109c-2.038,0.8-4.153,0.206-6.229,0.338
		c-0.9,0.057-1.826,0.181-2.735-0.224c-0.407-0.181-0.871,0.272-1.39,0.266c-4.136-0.037-8.272-0.017-12.406-0.02
		c-1.141,0-1.221-0.074-1.238-1.224c-0.014-1.012,0.12-2.044-0.032-3.033C74.991,161.31,75.828,160.599,77.055,159.885z
		 M90.653,165.194c0.221-0.224,0.705-0.163,0.728-0.602c0.014-0.275-0.229-0.464-0.527-0.462c-0.401,0.003-0.805,0.163-0.871,0.55
		C89.937,164.965,90.352,165.048,90.653,165.194z"/>
	<path style="fill:#075998;" d="M166.323,141.644c-2.11,0-4.222,0.009-6.332-0.003c-1.585-0.009-2.33-0.765-2.33-2.35
		c-0.003-3.035-0.003-6.071,0-9.107c0.003-1.568,0.76-2.339,2.345-2.345c4.222-0.011,8.442-0.011,12.664,0
		c1.62,0.003,2.391,0.788,2.394,2.402c0.006,3.007,0.006,6.014,0,9.021c-0.003,1.611-0.783,2.376-2.408,2.382
		C170.543,141.647,168.433,141.644,166.323,141.644z M166.281,129.765c-1.562,0-3.124-0.017-4.684,0.006
		c-0.977,0.014-1.439,0.467-1.448,1.445c-0.02,2.313-0.02,4.626,0,6.94c0.009,0.995,0.447,1.459,1.433,1.465
		c3.153,0.026,6.303,0.026,9.456-0.003c1.02-0.009,1.448-0.51,1.45-1.534c0.006-2.227,0.006-4.454,0-6.679
		c-0.003-1.201-0.419-1.628-1.608-1.637C169.345,129.754,167.814,129.762,166.281,129.765z"/>
	<path style="fill:#055897;" d="M145.456,127.836c1.966,0,3.933-0.009,5.899,0.003c1.413,0.009,2.21,0.797,2.236,2.19
		c0.034,1.78-0.221,1.995-1.986,1.705c-0.232-0.037-0.327-0.112-0.401-0.347c-0.37-1.172-0.757-1.476-1.972-1.513
		c-1.04-0.032-2.081-0.009-3.122-0.009c-1.705,0-3.411-0.009-5.119,0.003c-1.106,0.006-1.439,0.347-1.442,1.462
		c-0.006,2.227-0.009,4.454,0,6.679c0.003,0.891,0.298,1.198,1.195,1.201c2.978,0.012,5.956,0.012,8.935,0
		c0.94-0.003,1.422-0.433,1.45-1.445c0.017-0.613,0.246-0.691,0.768-0.694c1.691-0.014,1.691-0.032,1.691,1.717
		c0,0.662,0.077,1.339-0.338,1.929c-0.453,0.639-1.072,0.931-1.855,0.931c-4.019-0.006-8.037,0.009-12.059-0.009
		c-1.399-0.006-2.181-0.828-2.187-2.239c-0.009-3.093-0.006-6.189,0-9.281c0.003-1.493,0.797-2.273,2.316-2.279
		C141.466,127.83,143.461,127.836,145.456,127.836z"/>
	<path style="fill:#035796;" d="M75.516,141.632c-1.127,0-2.124-0.003-3.122,0.003c-0.361,0.003-0.476-0.272-0.628-0.513
		c-0.585-0.929-1.184-1.852-1.751-2.789c-0.218-0.361-0.479-0.51-0.909-0.507c-2.313,0.02-4.626,0.017-6.94,0
		c-0.427-0.003-0.691,0.118-0.9,0.502c-0.516,0.937-1.092,1.837-1.608,2.775c-0.224,0.407-0.499,0.565-0.966,0.545
		c-0.863-0.037-1.729-0.011-2.76-0.011c0.582-1.023,1.101-1.938,1.62-2.852c1.958-3.44,3.924-6.874,5.859-10.325
		c0.261-0.462,0.568-0.565,1.072-0.648c2.006-0.333,3.133,0.456,4.11,2.262c1.963,3.629,4.231,7.094,6.369,10.629
		C75.132,140.964,75.284,141.234,75.516,141.632z M65.484,129.986c-0.975,1.749-1.875,3.368-2.812,5.053c1.969,0,3.798,0,5.756,0
		C67.436,133.34,66.498,131.732,65.484,129.986z"/>
	<path style="fill:#B10938;" d="M97.404,106.189c-10.878,0-21.621,0-32.485,0c0.35-0.613,0.665-1.127,0.935-1.66
		c0.218-0.433,0.593-0.287,0.911-0.287c4.108-0.009,8.215-0.006,12.323-0.006c5.352,0,10.703,0.023,16.055-0.023
		c0.9-0.009,1.47,0.215,1.786,1.063C97.037,105.567,97.215,105.831,97.404,106.189z"/>
	<path style="fill:#B51441;" d="M95.131,102.234c-9.327,0-18.505,0-27.818,0c0.364-0.633,0.685-1.169,0.98-1.717
		c0.161-0.298,0.421-0.255,0.676-0.255c8.152,0,16.307,0.003,24.459-0.009c0.393,0,0.648,0.103,0.831,0.462
		C94.506,101.196,94.798,101.657,95.131,102.234z"/>
	<path style="fill:#0C5C99;" d="M76.141,148.182c0,0.774-0.017,1.407,0.006,2.038c0.014,0.418-0.155,0.527-0.556,0.547
		c-1.8,0.097-1.8,0.112-1.8-1.64c0-1.069,0.003-2.135-0.003-3.205c0-0.304-0.017-0.588,0.424-0.573
		c1.757,0.063,3.523-0.161,5.266,0.218c0.252,0.054,0.507,0.126,0.737,0.238c0.877,0.439,0.92,1.27,0.126,1.846
		c-0.462,0.333-1.035,0.321-1.671,0.57c1,0.823,1.932,1.588,2.909,2.394C79.01,151.467,77.889,149.317,76.141,148.182z
		 M76.135,146.8c0.009,0.482-0.155,1.04,0.628,0.92c0.651-0.1,1.617,0.055,1.605-0.871c-0.011-1.006-1.049-0.745-1.7-0.863
		C75.886,145.849,76.215,146.497,76.135,146.8z"/>
	<path style="fill:#0C5C99;" d="M143.954,150.759c-0.803,0-1.428-0.011-2.049,0.006c-0.318,0.009-0.493-0.175-0.59-0.419
		c-0.235-0.593-0.691-0.679-1.256-0.645c-0.576,0.037-1.155,0.04-1.731,0c-0.573-0.043-1.012,0.074-1.235,0.662
		c-0.135,0.353-0.427,0.416-0.774,0.401c-0.519-0.02-1.038-0.006-1.536-0.006c-0.14-0.163-0.057-0.275,0.029-0.398
		c1.081-1.533,2.15-3.07,3.236-4.598c0.335-0.473,1.932-0.656,2.253-0.212C141.515,147.222,142.678,148.927,143.954,150.759z
		 M137.903,149.03c0.911,0,1.691,0,2.537,0c-0.41-0.86-0.783-1.642-1.224-2.568C138.749,147.379,138.353,148.156,137.903,149.03z"/>
	<path style="fill:#0C5C99;" d="M89.943,150.833c1.33-1.886,2.491-3.566,3.689-5.214c0.338-0.464,1.932-0.387,2.264,0.083
		c1.069,1.511,2.115,3.035,3.173,4.552c0.206,0.295,0.312,0.55-0.215,0.502c-0.854-0.08-1.909,0.398-2.359-0.837
		c-0.069-0.192-0.264-0.204-0.438-0.206c-0.926-0.003-1.852,0-2.778,0c-0.181,0-0.361,0.029-0.438,0.212
		C92.267,151.309,91.106,150.573,89.943,150.833z M95.933,149.094c-0.441-0.932-0.828-1.751-1.258-2.657
		c-0.384,0.763-0.699,1.439-1.058,2.09c-0.275,0.499-0.066,0.585,0.39,0.57C94.609,149.079,95.211,149.094,95.933,149.094z"/>
	<path style="fill:#0C5C99;" d="M57.18,163.216c-0.109,1.688,0.218,2.055,1.809,2.069c1.559,0.014,3.121-0.011,4.681,0.009
		c0.648,0.009,0.699-0.198,0.353-0.685c-0.272-0.384,0.135-1.264,0.76-1.568c0.559-0.272,0.599,0.321,0.748,0.579
		c0.487,0.834,0.115,2.729-0.585,3.311c-0.232,0.192-0.496,0.12-0.745,0.12c-1.995,0.006-3.987,0.009-5.982,0.003
		c-1.941-0.006-2.597-1.069-1.751-2.835C56.624,163.884,56.781,163.54,57.18,163.216z"/>
	<path style="fill:#0C5C99;" d="M154.993,150.759c-0.808,0-1.62-0.023-2.425,0.009c-0.444,0.017-0.611-0.118-0.605-0.579
		c0.023-1.416,0.023-2.829,0-4.245c-0.009-0.441,0.112-0.605,0.579-0.599c1.703,0.026,3.408,0.009,5.111,0.011
		c0.249,0,0.562-0.075,0.547,0.344c-0.014,0.401-0.321,0.333-0.57,0.333c-0.894,0.003-1.794,0.043-2.686-0.014
		c-0.699-0.043-0.645,0.373-0.628,0.82c0.014,0.41-0.152,0.894,0.599,0.834c0.774-0.063,1.559-0.017,2.339-0.011
		c0.215,0.003,0.49-0.072,0.516,0.287c0.026,0.387-0.235,0.393-0.513,0.393c-0.808-0.006-1.62,0.023-2.425-0.009
		c-0.717-0.029-0.519,0.482-0.496,0.826c0.023,0.355-0.301,0.943,0.487,0.932c0.952-0.014,1.906-0.006,2.858-0.003
		c0.224,0,0.496-0.054,0.519,0.29c0.029,0.393-0.249,0.381-0.522,0.381C156.784,150.759,155.89,150.759,154.993,150.759z"/>
	<path style="fill:#105E9B;" d="M86.423,150.762c-0.808,0-1.62-0.023-2.428,0.009c-0.476,0.017-0.674-0.112-0.662-0.625
		c0.029-1.416,0.023-2.832,0.003-4.248c-0.006-0.416,0.132-0.556,0.547-0.55c1.734,0.017,3.468,0.006,5.202,0.009
		c0.227,0,0.487-0.046,0.493,0.312c0.009,0.398-0.269,0.373-0.536,0.373c-0.926,0-1.852,0.032-2.775-0.011
		c-0.763-0.034-0.539,0.49-0.559,0.877c-0.023,0.404-0.097,0.814,0.573,0.765c0.805-0.057,1.617-0.014,2.428-0.011
		c0.232,0,0.473-0.02,0.47,0.335c-0.003,0.344-0.227,0.347-0.47,0.347c-0.78,0-1.565,0.052-2.339-0.014
		c-0.748-0.066-0.679,0.375-0.671,0.854c0.009,0.493-0.097,0.983,0.708,0.92c0.892-0.069,1.792-0.014,2.686-0.017
		c0.238,0,0.479-0.02,0.482,0.33c0,0.335-0.218,0.35-0.467,0.35C88.214,150.759,87.32,150.762,86.423,150.762z"/>
	<path style="fill:#105E9B;" d="M116.293,145.353c0.866,0,1.731-0.006,2.6,0.003c0.212,0.003,0.49-0.08,0.519,0.284
		c0.032,0.396-0.235,0.398-0.507,0.398c-0.894,0-1.794,0.049-2.686-0.014c-0.739-0.052-0.682,0.375-0.676,0.86
		c0.003,0.456-0.052,0.854,0.648,0.794c0.774-0.069,1.559-0.017,2.339-0.017c0.238,0,0.479-0.006,0.473,0.338
		c-0.003,0.335-0.229,0.347-0.473,0.347c-0.808-0.003-1.62,0.034-2.425-0.012c-0.682-0.04-0.585,0.407-0.542,0.785
		c0.043,0.378-0.31,1,0.536,0.975c0.923-0.026,1.849-0.009,2.772-0.006c0.252,0,0.559-0.054,0.539,0.358
		c-0.017,0.341-0.275,0.312-0.504,0.312c-1.731,0.003-3.465-0.009-5.197,0.009c-0.407,0.003-0.559-0.129-0.553-0.547
		c0.017-1.445,0.02-2.887,0-4.331c-0.006-0.416,0.132-0.556,0.545-0.545C114.559,145.367,115.428,145.353,116.293,145.353z"/>
	<path style="fill:#0C5C99;" d="M123.23,150.853c-0.688-0.066-1.376-0.14-2.067-0.198c-0.353-0.029-0.419-0.238-0.393-0.536
		c0.034-0.413,0.315-0.235,0.51-0.204c0.975,0.155,1.946,0.258,2.927,0.046c0.347-0.075,0.739-0.169,0.785-0.565
		c0.052-0.43-0.378-0.55-0.682-0.665c-0.702-0.264-1.425-0.47-2.133-0.708c-0.381-0.129-0.768-0.255-1.132-0.427
		c-0.416-0.201-0.874-0.416-0.82-0.992c0.052-0.545,0.504-0.739,0.943-0.903c1.304-0.487,2.663-0.453,4.022-0.398
		c0.318,0.011,0.631,0.08,0.949,0.089c0.367,0.011,0.416,0.229,0.399,0.522c-0.026,0.401-0.29,0.258-0.502,0.221
		c-0.889-0.149-1.78-0.227-2.666-0.006c-0.327,0.083-0.763,0.149-0.78,0.559c-0.014,0.361,0.39,0.464,0.682,0.57
		c1.058,0.378,2.13,0.725,3.182,1.121c0.461,0.172,0.943,0.424,0.917,1.02c-0.023,0.591-0.533,0.791-0.986,0.969
		C125.377,150.768,124.308,150.816,123.23,150.853z"/>
	<path style="fill:#105E9B;" d="M131.631,145.353c1.069,0,2.141-0.006,3.21,0.003c0.261,0.003,0.636-0.123,0.622,0.358
		c-0.014,0.404-0.335,0.31-0.579,0.324c-0.029,0.003-0.057,0-0.086,0c-1.926,0.046-1.926,0.046-1.926,2.024
		c0,0.694-0.014,1.39,0.006,2.084c0.011,0.41-0.069,0.613-0.562,0.631c-1.797,0.069-1.797,0.089-1.797-1.734
		c0-0.78-0.034-1.565,0.011-2.342c0.034-0.553-0.175-0.711-0.694-0.668c-0.49,0.037-0.983,0.014-1.473,0.006
		c-0.246-0.003-0.562,0.074-0.576-0.33c-0.014-0.41,0.298-0.35,0.55-0.353C129.433,145.35,130.531,145.353,131.631,145.353z"/>
	<path style="fill:#0A5B99;" d="M146.892,145.356c1.098,0,2.196-0.003,3.294,0.003c0.215,0,0.49-0.08,0.519,0.284
		c0.029,0.393-0.229,0.404-0.507,0.393c-0.057-0.003-0.115-0.003-0.172,0c-1.923,0.04-1.923,0.04-1.923,1.94
		c0,0.751-0.017,1.502,0.006,2.253c0.014,0.419-0.143,0.525-0.55,0.542c-1.783,0.077-1.783,0.095-1.783-1.657
		c0-0.722-0.063-1.45,0.017-2.164c0.092-0.817-0.244-1.012-0.972-0.926c-0.427,0.052-0.866,0.011-1.298,0.009
		c-0.241,0-0.479-0.003-0.482-0.341c-0.003-0.347,0.238-0.338,0.476-0.338C144.639,145.356,145.766,145.356,146.892,145.356z"/>
	<path style="fill:#105E9B;" d="M103.951,150.762c-0.808,0-1.617-0.02-2.425,0.009c-0.462,0.017-0.682-0.086-0.671-0.611
		c0.032-1.413,0.029-2.829,0-4.242c-0.009-0.484,0.198-0.559,0.616-0.57c1.72-0.054,1.72-0.066,1.72,1.625
		c0,0.115-0.009,0.232,0.003,0.347c0.083,0.906-0.418,2.118,0.215,2.631c0.547,0.441,1.711,0.123,2.603,0.14
		c0.172,0.003,0.347-0.003,0.519,0c0.255,0.006,0.556-0.043,0.53,0.367c-0.023,0.344-0.284,0.304-0.51,0.304
		C105.682,150.762,104.816,150.762,103.951,150.762z"/>
	<path style="fill:#0C5C99;" d="M173.094,166.455c0.335-2.25,0.02-4.466-0.086-6.682c-0.086-1.78-0.106-1.869,1.413-3.228
		c0.02,0.889,0.393,1.614,0.077,2.528c-0.235,0.679,0.046,1.536,0.086,2.313c0.086,1.697,0.014,3.359-1.098,4.784
		C173.401,166.28,173.36,166.438,173.094,166.455z"/>
	<path style="fill:#0C5C99;" d="M166.065,167.777c1.404,0.404,2.399,0.227,3.236-0.682c1.061-1.149,1.124-1.557,0.261-2.849
		c-0.459-0.688-0.358-1.101,0.304-1.599c0.327-0.244,0.398,0.003,0.522,0.178c0.568,0.808,0.88,1.7,0.745,2.692
		c-0.183,1.327-0.763,2.488-1.694,3.44c-0.777,0.794-1.439,0.78-2.262,0.017C166.848,168.671,166.561,168.316,166.065,167.777z"/>
	<path style="fill:#0C5C99;" d="M68.912,159.765c0.447,2.058,0.126,3.927,0.003,5.782c-0.054,0.805-0.728,1.339-1.459,1.941
		c0.011-1.995-0.155-3.844-0.321-5.696c-0.043-0.462,0.335-0.642,0.588-0.897C68.066,160.545,68.43,160.218,68.912,159.765z"/>
	<path style="fill:#0C5C99;" d="M68.657,168.003c1.29,0.321,2.348,0.1,3.262-0.711c0.522-0.464,0.665-0.9,0.129-1.516
		c-0.797-0.914-0.739-0.957,0.178-1.671c0.287-0.224,0.418-0.169,0.619,0.083c0.737,0.923,1.078,1.909,0.556,3.053
		c-0.143,0.315-0.281,0.636-0.467,0.926C71.618,170.202,70.104,170.184,68.657,168.003z"/>
	<path style="fill:#105E9B;" d="M172.435,156.022c0.158-0.536,0.255-0.871-0.146-1.37c-0.398-0.496,0.112-1.081,0.502-1.513
		c0.404-0.447,0.932-0.559,1.505-0.447c0.206,0.04,0.252,0.229,0.215,0.41c-0.06,0.272-0.178,0.476-0.527,0.438
		c-0.444-0.046-0.86,0.023-1.135,0.47c0.553,0.522,1.212,0.464,1.986,0.335C174.481,155.658,173.028,155.187,172.435,156.022z"/>
	<path style="fill:#105E9B;" d="M92.603,160.725c0.026,0.275-1.043,0.837-1.298,0.636c-0.35-0.269-0.613-0.298-0.975-0.014
		c-0.255,0.201-1.588-0.545-1.576-0.837c0.011-0.287,0.977-0.774,1.241-0.582c0.353,0.258,0.628,0.295,0.986,0.009
		C91.218,159.748,92.577,160.439,92.603,160.725z"/>
	<path style="fill:#105E9B;" d="M63.053,162.359c-0.656,0.479-1.101,1.106-1.823,0.436c-0.046-0.043-0.192-0.049-0.238-0.009
		c-0.952,0.846-1.29-0.367-2.124-0.507c0.633-0.473,0.977-1.187,1.74-0.522c0.069,0.06,0.252,0.095,0.304,0.049
		C61.872,160.975,62.276,162.075,63.053,162.359z"/>
	<path style="fill:#0C5C99;" d="M166.874,158.882c-0.267,0.218-0.573,0.499-0.914,0.734c-0.112,0.077-1.327-0.955-1.27-1.075
		c0.192-0.396,0.55-0.642,0.914-0.866C165.71,157.607,166.839,158.607,166.874,158.882z"/>
</g>
</svg>
