<?xml version="1.0" encoding="iso-8859-1"?>
<!-- Generator: Adobe Illustrator 21.1.0, SVG Export Plug-In . SVG Version: 6.00 Build 0)  -->
<svg version="1.1" id="Layer_1" xmlns="http://www.w3.org/2000/svg" xmlns:xlink="http://www.w3.org/1999/xlink" x="0px" y="0px"
	 viewBox="0 0 231 231" style="enable-background:new 0 0 231 231;" xml:space="preserve">
<g>
	<g>
		<path style="fill:#777777;" d="M88.787,135.996v-4.44h-0.392v4.778h2.699l-0.173-0.337L88.787,135.996L88.787,135.996z
			 M100.766,132.12c-0.227-0.227-0.51-0.392-0.847-0.51c-0.337-0.173-0.675-0.173-1.012-0.173s-0.675,0.055-1.012,0.173
			c-0.337,0.173-0.565,0.337-0.847,0.51c-0.228,0.228-0.392,0.51-0.565,0.73c-0.173,0.337-0.173,0.565-0.173,1.012
			c0,0.337,0.055,0.675,0.173,1.012c0.173,0.337,0.337,0.565,0.565,0.73c0.227,0.227,0.51,0.392,0.847,0.51
			c0.337,0.173,0.675,0.173,1.012,0.173s0.675-0.055,1.012-0.173c0.337-0.173,0.565-0.337,0.847-0.51
			c0.228-0.228,0.392-0.51,0.565-0.73c0.173-0.337,0.173-0.565,0.173-1.012c0-0.337-0.055-0.675-0.173-1.012
			C101.159,132.622,100.931,132.34,100.766,132.12z M100.931,134.764c-0.055,0.227-0.227,0.51-0.392,0.675
			c-0.165,0.165-0.392,0.337-0.675,0.392c-0.228,0.055-0.565,0.173-0.847,0.173c-0.337,0-0.565-0.055-0.847-0.173
			c-0.282-0.11-0.51-0.228-0.675-0.392c-0.173-0.173-0.337-0.392-0.51-0.675c-0.055-0.228-0.173-0.51-0.173-0.847
			s0.055-0.565,0.173-0.847c0.118-0.282,0.228-0.51,0.51-0.675c0.173-0.173,0.392-0.337,0.675-0.392
			c0.282-0.055,0.565-0.173,0.847-0.173c0.337,0,0.565,0.055,0.847,0.173c0.228,0.055,0.51,0.227,0.675,0.392
			c0.173,0.173,0.337,0.392,0.392,0.675c0.055,0.282,0.173,0.51,0.173,0.847C101.104,134.199,100.986,134.427,100.931,134.764z
			 M111.224,135.549l-3.711-4.103l-0.228-0.173v4.833h0.392v-4.103l3.711,4.103l0.228,0.173v-4.95h-0.392V135.549z M121.408,132.285
			c-0.173-0.227-0.51-0.392-0.847-0.565c-0.337-0.173-0.73-0.228-1.24-0.228h-1.632v4.778h1.742c0.51,0,0.902-0.055,1.24-0.228
			c0.337-0.173,0.565-0.337,0.847-0.565c0.173-0.228,0.337-0.51,0.392-0.73c0.055-0.22,0.173-0.565,0.173-0.847
			s-0.055-0.51-0.055-0.847C121.745,132.795,121.572,132.513,121.408,132.285z M121.29,134.764c-0.055,0.227-0.227,0.51-0.51,0.675
			c-0.173,0.173-0.392,0.337-0.675,0.392c-0.228,0.055-0.565,0.173-0.847,0.173h-1.294v-4.103h1.294
			c0.337,0,0.675,0.055,0.902,0.173c0.227,0.11,0.51,0.228,0.675,0.392c0.173,0.173,0.337,0.392,0.392,0.675
			c0.055,0.282,0.173,0.51,0.173,0.847C121.462,134.254,121.462,134.482,121.29,134.764z M131.81,132.12
			c-0.227-0.227-0.51-0.392-0.847-0.51c-0.337-0.173-0.675-0.173-1.012-0.173c-0.337,0-0.675,0.055-1.012,0.173
			c-0.337,0.173-0.565,0.337-0.847,0.51c-0.228,0.228-0.392,0.51-0.565,0.73c-0.173,0.337-0.173,0.565-0.173,1.012
			c0,0.337,0.055,0.675,0.173,1.012c0.173,0.337,0.337,0.565,0.565,0.73c0.227,0.227,0.51,0.392,0.847,0.51
			c0.337,0.173,0.675,0.173,1.012,0.173c0.337,0,0.675-0.055,1.012-0.173c0.337-0.173,0.565-0.337,0.847-0.51
			c0.228-0.228,0.392-0.51,0.565-0.73c0.173-0.337,0.173-0.565,0.173-1.012c0-0.337-0.055-0.675-0.173-1.012
			C132.258,132.622,132.093,132.34,131.81,132.12z M131.975,134.764c-0.055,0.227-0.227,0.51-0.392,0.675
			c-0.173,0.173-0.392,0.337-0.675,0.392c-0.227,0.055-0.565,0.173-0.847,0.173c-0.337,0-0.565-0.055-0.847-0.173
			c-0.227-0.055-0.51-0.228-0.675-0.392c-0.173-0.173-0.337-0.392-0.51-0.675c-0.055-0.228-0.173-0.51-0.173-0.847
			s0.055-0.565,0.173-0.847c0.118-0.282,0.227-0.51,0.51-0.675c0.173-0.173,0.392-0.337,0.675-0.392
			c0.228-0.055,0.565-0.173,0.847-0.173c0.337,0,0.565,0.055,0.847,0.173c0.228,0.055,0.51,0.227,0.675,0.392
			c0.173,0.173,0.337,0.392,0.392,0.675c0.055,0.227,0.173,0.51,0.173,0.847C132.148,134.199,132.148,134.427,131.975,134.764z
			 M142.323,135.549l-3.711-4.103l-0.228-0.173v4.833h0.392v-4.103l3.711,4.103l0.228,0.173v-4.95h-0.392V135.549z M51.945,108.051
			c-0.392-0.565-0.847-1.012-1.294-1.404c-0.51-0.392-1.012-0.675-1.459-1.012c-1.122-0.565-2.471-1.012-4.048-1.122
			c1.012-0.055,1.969-0.337,2.699-0.675c0.337-0.173,0.675-0.337,1.012-0.565c0.337-0.228,0.675-0.51,0.902-0.847
			c0.228-0.337,0.51-0.675,0.675-1.067c0.173-0.392,0.228-0.902,0.228-1.404c0-0.675-0.173-1.294-0.392-1.914
			c-0.228-0.565-0.73-1.122-1.24-1.577c-0.565-0.392-1.24-0.847-2.134-1.067c-0.847-0.227-1.796-0.392-2.981-0.392h-6.582v0.337
			l2.197,0.73v23.567l-2.197,0.565v0.337h6.582c1.404,0,2.699-0.227,3.883-0.675c1.122-0.392,2.134-1.012,2.981-1.742
			c0.847-0.73,1.459-1.577,1.914-2.644c0.392-1.012,0.675-2.079,0.675-3.209c0-0.902-0.055-1.742-0.337-2.471
			C52.62,109.228,52.4,108.608,51.945,108.051z M42.672,95.898h1.294c1.067,0,1.969,0.337,2.644,1.067
			c0.675,0.729,1.012,1.742,1.012,3.146c0,1.404-0.337,2.361-1.012,3.146c-0.675,0.675-1.577,1.067-2.644,1.067h-1.294V95.898z
			 M49.364,115.582c-0.337,0.902-0.73,1.742-1.24,2.307c-0.51,0.675-1.122,1.067-1.797,1.404c-0.729,0.337-1.459,0.51-2.307,0.51
			h-1.349v-14.796h1.294c0.847,0,1.577,0.173,2.307,0.51c0.73,0.337,1.294,0.847,1.797,1.404c0.51,0.675,0.902,1.404,1.24,2.307
			c0.337,0.902,0.51,1.969,0.51,3.209C49.756,113.613,49.584,114.68,49.364,115.582z M70.789,115.7c0-0.337,0.055-0.675,0.055-1.012
			h-0.337c-0.675,0.675-1.122,1.404-1.577,2.197c-0.392,0.902-0.675,1.797-0.675,2.809h-7.312v-12.317h3.429l1.632,3.264h0.337
			v-7.257h-0.337l-1.632,3.264h-3.429V95.789h6.92c0,1.012,0.227,1.969,0.675,2.809c0.392,0.902,0.902,1.632,1.577,2.197h0.337
			c-0.055-0.337-0.055-0.675-0.055-1.012c0-0.337-0.055-0.565-0.055-0.902s0-0.675,0-1.012c0-0.51,0-0.902,0-1.24
			c0-0.337,0-0.675,0.055-0.902c0-0.337,0.055-0.565,0.055-0.73H55.664v0.337l2.197,0.565v23.568l-2.197,0.565v0.337h15.126
			c0.055-0.228,0-0.51,0-0.73s-0.055-0.565-0.055-0.902s0-0.729,0-1.24c0-0.337,0-0.675,0-1.012
			C70.789,116.375,70.789,116.037,70.789,115.7z M88.449,119.803c0-0.227-0.055-0.565-0.055-0.902c0-0.337,0-0.729,0-1.24
			c0-0.337,0-0.675,0-1.012c0-0.337,0-0.675,0.055-0.902c0-0.337,0.055-0.675,0.055-1.012h-0.337
			c-0.675,0.675-1.122,1.404-1.577,2.197c-0.392,0.902-0.675,1.797-0.675,2.809h-6.527V96.071l2.197-0.565v-0.392h-7.422v0.337
			l2.197,0.565v23.567l-2.197,0.565v0.337h14.396C88.504,120.305,88.504,120.023,88.449,119.803z M99.692,108.945h3.601v1.969
			c0,1.914-0.173,3.373-0.392,4.613c-0.228,1.24-0.565,2.197-1.012,2.981c-0.392,0.73-0.902,1.24-1.404,1.577
			c-0.565,0.337-1.067,0.51-1.632,0.51c-0.565,0-1.122-0.173-1.742-0.565c-0.565-0.392-1.067-1.067-1.577-2.079
			c-0.51-1.012-0.902-2.307-1.122-3.883c-0.337-1.632-0.51-3.711-0.51-6.19c0-2.471,0.173-4.44,0.51-6.072
			c0.337-1.632,0.73-2.871,1.24-3.883s1.067-1.632,1.742-1.969c0.729-0.392,1.404-0.565,2.134-0.565c1.067,0,2.134,0.51,3.036,1.577
			s1.632,2.534,2.197,4.613h0.565c-0.055-0.392-0.055-0.73-0.173-1.122c0-0.337-0.055-0.729-0.055-1.067c0-0.392,0-0.847,0-1.24
			c0-0.337,0-0.729,0-1.067c0-0.392,0-0.729,0.055-1.067c0-0.337,0.055-0.73,0.055-1.067h-0.565
			c-0.337,0.055-0.729,0.337-1.067,0.565c-0.337,0.337-0.565,0.675-0.847,1.012c-0.337-0.337-0.675-0.675-1.012-0.902
			c-0.337-0.227-0.73-0.392-1.24-0.565c-0.51-0.173-1.012-0.337-1.577-0.337c-1.067,0-2.079,0.228-3.146,0.847
			c-1.012,0.565-1.969,1.404-2.809,2.471c-0.847,1.067-1.459,2.471-1.969,4.103c-0.51,1.632-0.73,3.601-0.73,5.853
			c0,2.252,0.228,4.158,0.73,5.853c0.51,1.632,1.122,3.036,1.969,4.103c0.847,1.067,1.742,1.914,2.699,2.471
			c1.012,0.565,1.969,0.847,2.981,0.847s1.914-0.228,2.809-0.675c0.902-0.447,1.742-1.067,2.361-1.969
			c0.675-0.847,1.24-1.914,1.632-3.209c0.392-1.24,0.675-2.699,0.675-4.331v-2.872h-6.747v0.73L99.692,108.945L99.692,108.945z
			 M127.362,119.073c-0.055,0.173-0.227,0.337-0.337,0.51c-0.055,0.055-0.228,0.228-0.392,0.337
			c-0.173,0.11-0.228,0.173-0.392,0.173c-0.227,0-0.392-0.055-0.565-0.337c-0.173-0.173-0.228-0.51-0.337-1.012l-0.729-6.3
			c-0.055-1.122-0.51-1.969-1.122-2.644c-0.675-0.675-1.404-1.122-2.134-1.459c-0.902-0.392-1.797-0.675-2.872-0.73
			c1.294-0.055,2.471-0.392,3.546-0.902c0.392-0.173,0.902-0.392,1.294-0.729c0.392-0.337,0.847-0.675,1.122-1.067
			c0.337-0.392,0.565-0.902,0.847-1.459c0.282-0.557,0.337-1.122,0.337-1.914c0-0.902-0.173-1.632-0.565-2.471
			c-0.337-0.73-0.902-1.404-1.632-1.969c-0.729-0.565-1.742-1.067-2.871-1.404c-1.122-0.337-2.471-0.51-4.048-0.51h-6.747v0.337
			l2.197,0.565v23.568l-2.197,0.565v0.337h7.477v-0.337l-2.197-0.565v-11.776h1.459c0.847,0,1.577,0.055,2.134,0.228
			c0.557,0.173,1.067,0.392,1.459,0.847c0.392,0.337,0.675,0.847,0.902,1.404c0.227,0.565,0.392,1.24,0.51,2.079l0.729,6.3
			c0.055,0.675,0.392,1.122,0.902,1.632c0.51,0.51,1.24,0.729,2.079,0.729c0.51,0,0.902-0.055,1.24-0.227
			c0.337-0.173,0.675-0.337,0.847-0.565c0.227-0.227,0.51-0.51,0.675-0.847L127.362,119.073z M114.99,107.149v-11.25h1.459
			c1.796,0,3.209,0.51,4.158,1.459c1.012,1.012,1.459,2.362,1.459,4.158c0,1.797-0.51,3.209-1.459,4.158
			c-1.012,1.012-2.361,1.459-4.158,1.459h-1.459V107.149z M137.992,94.667h-0.565l-7.139,24.634l-2.361,0.902v0.337h5.515v-0.337
			l-2.361-0.902l1.797-6.19h7.477l1.969,6.465l-2.197,0.565v0.337h7.649v-0.337l-2.197-0.565L137.992,94.667z M133.042,112.381
			l3.428-11.98l3.601,11.98H133.042z M158.579,95.561l2.361,0.902l-5.17,18.672l-5.853-18.954l2.197-0.565v-0.392h-7.649v0.337
			l2.197,0.565l7.649,24.972h0.565l6.747-24.634l2.361-0.902v-0.337h-5.398v0.337L158.579,95.561L158.579,95.561z M164.933,95.561
			l2.197,0.565v23.56l-2.197,0.565v0.337h7.477v-0.337l-2.197-0.565v-23.56l2.197-0.565v-0.392h-7.477V95.561z M191.537,119.63
			l-7.649-24.964h-0.565l-7.139,24.634l-2.361,0.902v0.337h5.515v-0.337l-2.361-0.902l1.797-6.19h7.477l1.969,6.465l-2.197,0.565
			v0.337h7.649v-0.337L191.537,119.63z M178.992,112.381l3.428-11.98l3.601,11.98H178.992z"/>
	</g>
</g>
</svg>
