<?xml version="1.0" encoding="iso-8859-1"?>
<!-- Generator: Adobe Illustrator 21.1.0, SVG Export Plug-In . SVG Version: 6.00 Build 0)  -->
<svg version="1.1" id="Layer_1" xmlns="http://www.w3.org/2000/svg" xmlns:xlink="http://www.w3.org/1999/xlink" x="0px" y="0px"
	 viewBox="0 0 231 231" style="enable-background:new 0 0 231 231;" xml:space="preserve">
<g id="Ui">
	<g id="Group-4">
		<path id="Combined-Shape" style="fill:#001E60;" d="M39.983,122.263h5.162c2.103,0,3.155-0.908,3.155-2.724
			s-1.051-2.724-3.155-2.724h-5.162V122.263z M39.983,114.138h4.397c1.96,0,2.916-0.86,2.916-2.533c0-1.673-0.956-2.533-2.916-2.533
			h-4.397V114.138z M75.304,111.748h2.581v-3.919h0.239l2.868,1.004v2.963h3.059v2.39h-3.059v7.217c0,0.908,0.526,1.386,1.529,1.386
			c0.43,0,0.86-0.048,1.291-0.143l0.096,0.048v2.438c-0.765,0.191-1.53,0.287-2.294,0.287c-1.147,0-2.103-0.335-2.772-0.956
			c-0.669-0.621-1.004-1.577-1.004-2.772v-7.552h-2.581h-3.059v7.265c0,0.908,0.526,1.386,1.53,1.386c0.43,0,0.86-0.048,1.29-0.143
			l0.096,0.048v2.438c-0.765,0.191-1.529,0.287-2.294,0.287c-1.147,0-2.103-0.335-2.772-0.956c-0.669-0.621-1.004-1.577-1.004-2.772
			v-7.552h-2.485v-2.39h2.533v-3.919h0.239l2.868,1.004v2.963h3.107L75.304,111.748L75.304,111.748z M48.06,115.142
			c0.956,0.287,1.768,0.86,2.438,1.625c0.669,0.765,1.004,1.721,1.004,2.868c0,1.673-0.621,3.011-1.816,3.967
			c-1.243,1.004-2.868,1.482-4.971,1.482h-8.078v-18.688h7.695c1.816,0,3.298,0.43,4.397,1.338c1.099,0.908,1.625,2.007,1.625,3.394
			c0,1.721-0.765,3.011-2.294,3.919V115.142z M66.366,119.252H55.947c0.096,1.099,0.478,1.96,1.147,2.581
			c0.717,0.621,1.577,0.956,2.677,0.956c1.816,0,3.011-0.765,3.585-2.342l2.677,0.143l0.096,0.143
			c-0.478,1.482-1.243,2.629-2.342,3.441c-1.099,0.812-2.485,1.195-4.11,1.195c-2.055,0-3.68-0.621-4.923-1.912
			c-1.243-1.291-1.864-2.963-1.864-5.066c0-2.055,0.669-3.68,2.007-5.019c1.338-1.291,2.916-1.96,4.827-1.96
			c1.96,0,3.537,0.621,4.78,1.816c1.243,1.243,1.816,2.916,1.816,5.019v1.004L66.366,119.252L66.366,119.252z M55.994,117.053h7.456
			c-0.096-0.956-0.478-1.721-1.195-2.246c-0.669-0.526-1.529-0.812-2.533-0.812c-0.956,0-1.768,0.287-2.438,0.812
			C56.616,115.333,56.186,116.097,55.994,117.053z M98.055,119.252h-10.42c0.096,1.099,0.478,1.96,1.147,2.581
			c0.717,0.621,1.577,0.956,2.677,0.956c1.816,0,3.011-0.765,3.585-2.342l2.677,0.143l0.096,0.143
			c-0.43,1.482-1.243,2.629-2.342,3.441c-1.099,0.812-2.485,1.195-4.11,1.195c-2.055,0-3.68-0.621-4.923-1.912
			c-1.243-1.291-1.864-2.963-1.864-5.066c0-2.055,0.669-3.68,2.007-5.019c1.338-1.291,2.916-1.96,4.827-1.96
			c1.96,0,3.537,0.621,4.78,1.816c1.243,1.243,1.816,2.916,1.816,5.019v1.004L98.055,119.252L98.055,119.252z M87.683,117.053h7.456
			c-0.096-0.956-0.478-1.721-1.195-2.246c-0.669-0.526-1.529-0.812-2.533-0.812c-0.956,0-1.768,0.287-2.438,0.812
			S87.874,116.097,87.683,117.053z M103.455,111.748v1.673c1.147-1.291,2.438-1.912,3.919-1.912c0.478,0,0.86,0.095,1.195,0.191
			l-0.43,2.485l-0.096,0.096c-0.239-0.048-0.526-0.096-0.908-0.096c-1.577,0-2.82,0.813-3.68,2.485v8.508h-3.107v-13.383h3.107
			L103.455,111.748L103.455,111.748z M131.464,111.461c2.103,0,3.871,0.669,5.21,1.96c1.338,1.29,2.007,2.963,2.007,4.971
			c0,2.007-0.669,3.68-2.007,4.971c-1.338,1.291-3.059,1.96-5.21,1.96c-2.103,0-3.824-0.669-5.162-1.96
			c-1.338-1.291-2.007-2.963-2.007-4.971c0-2.007,0.669-3.68,2.007-4.971C127.64,112.13,129.361,111.461,131.464,111.461z
			 M131.464,114.186c-1.195,0-2.199,0.382-2.963,1.147c-0.765,0.765-1.147,1.816-1.147,3.107c0,1.338,0.382,2.342,1.147,3.107
			c0.765,0.765,1.721,1.147,2.963,1.147c1.195,0,2.199-0.382,2.963-1.147c0.765-0.765,1.147-1.816,1.147-3.107
			c0-1.338-0.382-2.342-1.147-3.107C133.662,114.568,132.706,114.186,131.464,114.186z M143.938,111.748v1.577
			c1.147-1.243,2.485-1.864,4.063-1.864c1.625,0,2.772,0.621,3.393,1.912c1.338-1.291,2.82-1.912,4.445-1.912
			c1.338,0,2.39,0.335,3.107,1.051c0.717,0.717,1.099,1.673,1.099,2.868v9.702h-3.107v-8.842c0-1.386-0.669-2.055-2.007-2.055
			c-1.195,0-2.151,0.621-2.963,1.816v9.177h-3.107v-8.89c0-1.386-0.621-2.103-1.912-2.103c-1.147,0-2.151,0.669-3.011,1.96v8.986
			h-3.107v-13.383H143.938z M175.197,119.252h-10.419c0.096,1.099,0.478,1.96,1.147,2.581c0.717,0.621,1.577,0.956,2.677,0.956
			c1.816,0,3.011-0.765,3.585-2.342l2.677,0.143l0.096,0.143c-0.478,1.482-1.243,2.629-2.342,3.441
			c-1.099,0.812-2.485,1.195-4.11,1.195c-2.055,0-3.68-0.621-4.923-1.912c-1.243-1.291-1.864-2.963-1.864-5.066
			c0-2.055,0.669-3.68,2.007-5.019c1.338-1.291,2.916-1.96,4.827-1.96c1.96,0,3.537,0.621,4.78,1.816
			c1.243,1.243,1.816,2.916,1.816,5.019v1.004L175.197,119.252L175.197,119.252z M164.873,117.053h7.456
			c-0.096-0.956-0.478-1.721-1.195-2.246c-0.669-0.526-1.529-0.812-2.533-0.812c-0.956,0-1.768,0.287-2.438,0.812
			C165.494,115.333,165.064,116.097,164.873,117.053z M184.135,115.858c-0.143-0.669-0.43-1.147-0.86-1.53
			c-0.478-0.335-1.004-0.526-1.673-0.526c-0.526,0-0.956,0.096-1.338,0.335c-0.382,0.191-0.574,0.526-0.574,0.956
			s0.287,0.765,0.813,1.052c0.526,0.287,1.434,0.621,2.772,0.956c1.434,0.382,2.533,0.86,3.202,1.482
			c0.669,0.621,1.052,1.434,1.052,2.438c0,1.29-0.478,2.294-1.482,3.155c-1.004,0.812-2.246,1.243-3.824,1.243
			c-1.625,0-2.916-0.382-3.919-1.099c-1.004-0.717-1.625-1.769-1.864-3.107l0.048-0.143l2.581-0.43
			c0.382,1.529,1.434,2.294,3.155,2.294c0.669,0,1.243-0.143,1.673-0.43s0.669-0.669,0.669-1.195c0-0.478-0.239-0.908-0.765-1.195
			c-0.526-0.287-1.386-0.621-2.677-0.908c-1.386-0.335-2.438-0.813-3.155-1.482c-0.669-0.621-1.051-1.482-1.051-2.485
			s0.43-1.912,1.338-2.629c0.908-0.717,2.055-1.099,3.441-1.099c1.434,0,2.629,0.335,3.537,1.004
			c0.908,0.669,1.482,1.625,1.625,2.868l-0.096,0.143L184.135,115.858z M121.283,112.704c0.86,0.813,1.29,1.912,1.29,3.298v9.129
			h-3.107v-8.412c0-0.813-0.239-1.434-0.717-1.864s-1.147-0.669-1.912-0.669c-0.717,0-1.434,0.191-2.103,0.574
			c-0.669,0.382-1.243,0.908-1.721,1.53v8.842h-3.107v-14.387v-5.162h0.239l2.868,1.051v4.11v2.677
			c0.526-0.574,1.243-1.004,2.103-1.386s1.769-0.573,2.724-0.573C119.228,111.461,120.423,111.891,121.283,112.704z"/>
		<path id="point" style="fill:#EC5F77;" d="M189.822,120.925c0.526-0.526,1.147-0.765,1.864-0.765c0.717,0,1.338,0.239,1.864,0.765
			c0.526,0.526,0.813,1.099,0.813,1.816c0,0.717-0.287,1.338-0.813,1.864c-0.526,0.526-1.147,0.765-1.864,0.765
			c-0.717,0-1.338-0.239-1.864-0.765c-0.526-0.526-0.813-1.147-0.813-1.864C189.01,122.072,189.297,121.451,189.822,120.925"/>
	</g>
</g>
</svg>
