<svg id="Layer_1" data-name="Layer 1" xmlns="http://www.w3.org/2000/svg" xmlns:xlink="http://www.w3.org/1999/xlink" viewBox="0 0 80 80"><defs><style>.cls-1,.cls-2{fill:#fff;}.cls-1,.cls-10,.cls-12,.cls-13,.cls-14,.cls-15,.cls-16,.cls-17,.cls-2,.cls-6,.cls-7,.cls-8,.cls-9{fill-rule:evenodd;}.cls-2{stroke:#979797;}.cls-3,.cls-5{fill:none;stroke:#4385f4;}.cls-3{stroke-width:2px;stroke-dasharray:3;}.cls-4{mask:url(#mask);}.cls-5{stroke-width:12.4px;}.cls-6{fill:#ff7058;}.cls-7{fill:#ffd15c;}.cls-8{fill:#f1543f;}.cls-9{fill:#f8b64c;}.cls-10{fill:#ffc952;}.cls-11,.cls-13{opacity:0.5;}.cls-12,.cls-13{fill:#4385f4;}.cls-13{isolation:isolate;}.cls-15{fill:#ffa829;}.cls-16{fill:#2c72c6;}.cls-17{fill:#3d597a;}</style><mask id="mask" x="0.87" y="1.67" width="76.98" height="76.88" maskUnits="userSpaceOnUse"><g id="b"><path id="a" class="cls-1" d="M7.07,40.11A32.29,32.29,0,1,0,39.36,7.87,32.26,32.26,0,0,0,7.07,40.11Z"/></g></mask></defs><path class="cls-2" d="M39.53,71.32A31.45,31.45,0,1,0,8,39.87a31.47,31.47,0,0,0,31.5,31.45"/><path class="cls-3" d="M39.33,70A29.86,29.86,0,1,0,9.42,40.14,29.89,29.89,0,0,0,39.33,70"/><g class="cls-4"><path class="cls-5" d="M39.36,72.35A32.24,32.24,0,1,0,7.07,40.11,32.27,32.27,0,0,0,39.36,72.35Z"/></g><path class="cls-6" d="M41.71,40.41H38.05l.63-1.33.54-1.25h1.33l.54,1.25Z"/><path class="cls-7" d="M44,40.41H35.72a.83.83,0,0,0-.83.83v2.7h10v-2.7a.78.78,0,0,0-.8-.83"/><path class="cls-8" d="M41.09,39.08c-.33.17-.67.33-1,.46l-.21,0-.21-.09a10.83,10.83,0,0,1-1-.45l.54-1.25h1.29l.58,1.29Z"/><path class="cls-9" d="M48.21,28a8.19,8.19,0,0,1-1.92,5.28,8.37,8.37,0,0,1-6.41,3,8.25,8.25,0,0,1-6.41-3A8.38,8.38,0,0,1,31.56,28v0H48.17v0Zm-18.32-1.7V28a10,10,0,0,0,6.21,9.23,9.93,9.93,0,0,0,7.57,0A10,10,0,0,0,49.87,28v-1.7ZM46.38,24h-13a.51.51,0,0,0-.5.5.52.52,0,0,0,.5.54h13a.51.51,0,0,0,.5-.5.52.52,0,0,0-.5-.54"/><path class="cls-7" d="M46.38,25v4.49A10.11,10.11,0,0,1,39.88,39a10.17,10.17,0,0,1-6.49-9.47V25Z"/><path class="cls-10" d="M33.39,25.66H46.33V25H33.39Z"/><path class="cls-1" d="M43.13,27.39H38.34a2.09,2.09,0,0,0-1.77,1.85v4.84h1.84V29.67a.46.46,0,0,1,.37-.44h4.35V27.39Zm-3.82,2.37s-.37,0-.37.3v1.46H41.4V32a.21.21,0,0,1-.22.22H38.94v1.9h2.69a2,2,0,0,0,1.64-1.9V29.76Z"/><g class="cls-11"><path class="cls-12" d="M15.76,29.25h0m-1.52,4h0m-.61,3.66v0M13,40.8v0M13.33,45h0m.61,4h0m4,7.6v0M21,60.24l0,0,0,0m3.35,3h0"/><path class="cls-12" d="M38.87,64.37a21,21,0,0,1-6.8-.81c.79-1-.52-2-1.77-3L27.68,58.6s1.55,1.58,1.39,2.94a2.51,2.51,0,0,0,0,.92c-.36-.16-.71-.33-1.06-.51.92-.88-.12-2.13-1.12-3.32s-2.12-2.39-2.12-2.39,1.17,1.83.78,3.17a2.5,2.5,0,0,0-.15.93c-.31-.22-.61-.45-.91-.69,1-.73.28-2.16-.45-3.5s-1.6-2.69-1.6-2.7.79,2,.17,3.27a2.89,2.89,0,0,0-.31.91c-.25-.27-.5-.55-.74-.83,1.1-.57.67-2.1.2-3.55s-1.08-2.86-1.08-2.88.42,2.07-.41,3.25a3.12,3.12,0,0,0-.46.85c-.2-.3-.39-.61-.57-.92,1.18-.41,1-2,.82-3.47s-.57-2.95-.57-3,.06,2.09-.95,3.13A2.86,2.86,0,0,0,18,51c-.1-.22-.19-.43-.27-.64l-.2-.5c1.19-.22,1.3-1.71,1.33-3.12s-.09-2.81-.09-2.82a4.91,4.91,0,0,1-1.36,2.77,3.3,3.3,0,0,0-.68.66c-.12-.45-.22-.89-.31-1.34,1.18,0,1.49-1.41,1.72-2.72s.31-2.61.3-2.62a4.51,4.51,0,0,1-1.65,2.39,3,3,0,0,0-.75.54q-.07-.76-.12-1.53c1.13.14,1.61-1.09,2-2.28a21.87,21.87,0,0,0,.6-2.4,4.1,4.1,0,0,1-1.83,2,2.66,2.66,0,0,0-.79.41c0-.46,0-.91.07-1.36l0-.32c1,.29,1.65-.81,2.14-1.86s.82-2.16.82-2.16-.78,1.4-1.93,1.64a2.48,2.48,0,0,0-.77.27c.1-.59.21-1.18.34-1.77.9.36,1.6-.56,2.16-1.48a20.8,20.8,0,0,0,1-2s-.89,1.24-2,1.32a2.23,2.23,0,0,0-.69.13c.18-.61.38-1.22.59-1.83.76.39,1.49-.37,2.09-1.17a16.75,16.75,0,0,0,1.15-1.79s-.95,1.12-2,1.05a2.4,2.4,0,0,0-.55,0c.24-.59.51-1.19.79-1.78a.61.61,0,0,1,0-.12c.63.39,1.35-.23,2-.93a19.34,19.34,0,0,0,1.29-1.65s-1,1-1.92.84a1.61,1.61,0,0,0-.57,0,36.72,36.72,0,0,1,2.09-3.85c-.87,1.28-1.65,2.53-2.34,3.78a2.45,2.45,0,0,0-.34-.63,2.06,2.06,0,0,1-.19-1.54,6.2,6.2,0,0,1,.29-1,11.11,11.11,0,0,0-1.1,2.38c-.36,1.17-.35,2.29.47,2.43-.33.65-.62,1.3-.9,1.95a2.46,2.46,0,0,0-.4-.49,2,2,0,0,1-.46-1.52,4.41,4.41,0,0,1,.16-1A10.51,10.51,0,0,0,16.49,28c-.2,1.19,0,2.3.78,2.39-.21.6-.41,1.2-.58,1.8a2.64,2.64,0,0,0-.46-.4c-.9-.59-.72-2.37-.69-2.5a10.4,10.4,0,0,0-.5,2.65c0,1.23.25,2.34,1.11,2.35v0c-.12.54-.22,1.1-.31,1.65a3.24,3.24,0,0,0-.53-.34c-1-.48-1.08-2.33-1.07-2.47a11,11,0,0,0-.18,2.8c.11,1.29.58,2.42,1.5,2.3,0,.51-.07,1-.09,1.55a2.75,2.75,0,0,0-.62-.29c-1.12-.34-1.44-2.17-1.46-2.4A11.22,11.22,0,0,0,13.58,40c.28,1.32,1,2.49,1.92,2.2,0,.47.06.95.12,1.42a2.85,2.85,0,0,0-.73-.22c-1.24-.21-1.83-2.15-1.87-2.34a11.49,11.49,0,0,0,.63,3.09c.49,1.38,1.41,2.53,2.37,2q.14.65.3,1.29a3.32,3.32,0,0,0-.84-.15c-1.35,0-2.28-2.08-2.3-2.2A11.69,11.69,0,0,0,14.3,48.3c.75,1.41,1.93,2.52,2.86,1.77.14.38.3.76.46,1.13a2.91,2.91,0,0,0-.95,0c-1.44.15-2.75-1.92-2.76-2a12.27,12.27,0,0,0,1.7,3.19c1,1.4,2.48,2.4,3.32,1.42.19.32.38.63.59.94a3.21,3.21,0,0,0-.95.08c-1.44.37-3.12-1.59-3.09-1.61a12.16,12.16,0,0,0,2.24,3c1.26,1.24,2.89,2,3.57.94.24.28.5.56.76.84a3.31,3.31,0,0,0-.95.22c-1.3.54-3.19-1-3.36-1.15a12.77,12.77,0,0,0,2.74,2.59c1.53,1,3.3,1.53,3.79.38.3.24.61.48.93.71a3.24,3.24,0,0,0-.92.36c-1.23.73-3.39-.45-3.61-.61a13.18,13.18,0,0,0,3.25,2.11c1.74.79,3.63,1,3.92-.23.35.18.71.36,1.08.52a3.58,3.58,0,0,0-.87.51c-1.11.91-3.52.12-3.79,0A13.73,13.73,0,0,0,28,64.84c1.91.47,3.87.29,4-.91a20.93,20.93,0,0,0,6.89.82l0-.38ZM63.51,29.25h0m1.22,4h0m.91,3.66v0m.3,3.94v0m0,4.24h0M65,49h0m-3.65,7.6v0m-3,3.65,0,0,0,0m-3.35,3h0"/><path class="cls-12" d="M40.09,64.37a21,21,0,0,0,6.8-.81c-.79-1,.52-2,1.77-3l2.62-1.95s-1.54,1.58-1.39,2.94a2.31,2.31,0,0,1,0,.92c.36-.16.71-.33,1.06-.51C50,61.07,51,59.82,52,58.63s2.12-2.39,2.12-2.39-1.17,1.83-.78,3.17a2.5,2.5,0,0,1,.15.93c.31-.22.61-.45.91-.69-1-.73-.28-2.16.45-3.5s1.6-2.69,1.6-2.7-.79,2-.17,3.27a2.89,2.89,0,0,1,.31.91c.26-.27.51-.55.75-.83-1.11-.57-.68-2.1-.21-3.55s1.08-2.86,1.08-2.88-.42,2.07.41,3.25a3.12,3.12,0,0,1,.46.85c.2-.3.39-.61.57-.92-1.17-.41-1-2-.81-3.47s.56-2.95.56-3-.06,2.09,1,3.13A3.14,3.14,0,0,1,61,51l.27-.64c.06-.17.13-.33.19-.5-1.19-.22-1.29-1.71-1.33-3.12s.09-2.81.1-2.82a4.87,4.87,0,0,0,1.35,2.77,3.07,3.07,0,0,1,.68.66c.12-.45.22-.89.31-1.34-1.17,0-1.49-1.41-1.72-2.72s-.31-2.61-.3-2.62a4.51,4.51,0,0,0,1.65,2.39,3,3,0,0,1,.75.54q.08-.76.12-1.53c-1.13.14-1.61-1.09-2-2.28a21.87,21.87,0,0,1-.6-2.4s.66,1.58,1.83,2a2.54,2.54,0,0,1,.79.41c0-.46,0-.91-.07-1.36l0-.32c-1,.29-1.65-.81-2.13-1.86A22.59,22.59,0,0,1,60,34.13s.79,1.4,1.93,1.64a2.48,2.48,0,0,1,.77.27c-.1-.59-.21-1.18-.34-1.77-.89.36-1.6-.56-2.16-1.48a19.43,19.43,0,0,1-1-2,3.36,3.36,0,0,0,2,1.32,2.22,2.22,0,0,1,.68.13c-.18-.61-.37-1.22-.59-1.83-.76.39-1.49-.37-2.08-1.17a17.76,17.76,0,0,1-1.16-1.79s1,1.12,2,1.05a2.49,2.49,0,0,1,.56,0c-.25-.59-.51-1.19-.8-1.78l0-.12c-.63.39-1.36-.23-2-.93a20.65,20.65,0,0,1-1.3-1.65s1,1,1.93.84a1.61,1.61,0,0,1,.57,0,38.82,38.82,0,0,0-2.1-3.85c.87,1.28,1.65,2.53,2.34,3.78a2.45,2.45,0,0,1,.34-.63,2.06,2.06,0,0,0,.19-1.54,5.15,5.15,0,0,0-.29-1,11.11,11.11,0,0,1,1.1,2.38c.36,1.17.35,2.29-.46,2.43.32.65.62,1.3.89,1.95a2.22,2.22,0,0,1,.41-.49,2,2,0,0,0,.45-1.52,4.41,4.41,0,0,0-.16-1A10,10,0,0,1,62.47,28c.2,1.19.05,2.3-.77,2.39q.31.9.57,1.8a2.73,2.73,0,0,1,.47-.4c.89-.59.71-2.37.68-2.5a10.23,10.23,0,0,1,.51,2.65c0,1.23-.25,2.34-1.12,2.35v0c.12.54.22,1.1.31,1.65a3,3,0,0,1,.54-.34c1-.48,1.08-2.33,1.06-2.47a10.12,10.12,0,0,1,.18,2.8c-.11,1.29-.58,2.42-1.5,2.3.05.51.08,1,.09,1.55a2.75,2.75,0,0,1,.62-.29c1.12-.34,1.44-2.17,1.46-2.4A11.22,11.22,0,0,1,65.38,40c-.28,1.32-1,2.49-1.92,2.2,0,.47-.06.95-.11,1.42a2.66,2.66,0,0,1,.72-.22c1.24-.21,1.84-2.15,1.87-2.34a11.31,11.31,0,0,1-.62,3.09c-.49,1.38-1.42,2.53-2.38,2q-.13.65-.3,1.29a3.32,3.32,0,0,1,.85-.15c1.35,0,2.27-2.08,2.3-2.2a12.28,12.28,0,0,1-1.13,3.18c-.74,1.41-1.92,2.52-2.85,1.77-.15.38-.3.76-.47,1.13a2.93,2.93,0,0,1,.95,0c1.44.15,2.75-1.92,2.76-2a12.27,12.27,0,0,1-1.7,3.19c-1,1.4-2.48,2.4-3.32,1.42-.19.32-.38.63-.59.94a3.28,3.28,0,0,1,1,.08c1.43.37,3.11-1.59,3.08-1.61a12,12,0,0,1-2.23,3c-1.27,1.24-2.9,2-3.58.94-.24.28-.49.56-.76.84a3.31,3.31,0,0,1,1,.22c1.3.54,3.19-1,3.36-1.15a12.77,12.77,0,0,1-2.74,2.59c-1.53,1-3.29,1.53-3.79.38-.3.24-.61.48-.93.71a3.24,3.24,0,0,1,.92.36c1.23.73,3.39-.45,3.61-.61a13,13,0,0,1-3.24,2.11c-1.74.79-3.64,1-3.93-.23-.35.18-.71.36-1.07.52a3.73,3.73,0,0,1,.86.51c1.11.91,3.52.12,3.79,0A13.61,13.61,0,0,1,51,64.84c-1.92.47-3.88.29-4-.91a21,21,0,0,1-6.9.82l0-.38ZM15.63,29.17h0M14.34,33h0m-.85,4v0m-.36,4h0m.15,4h0M14,49h0m3.8,7.81,0,0,0,0m2.9,3.41,0,0,0,0m3.56,2.9,0,0,0,0"/><path class="cls-13" d="M38.77,64.19A20.65,20.65,0,0,1,32,63.38c.78-1-.51-2-1.75-3l-2.6-1.94S29.2,60,29.05,61.37a2.54,2.54,0,0,0,0,.92c-.35-.16-.7-.33-1-.51.91-.88-.13-2.13-1.12-3.32l-2.1-2.37s1.16,1.82.77,3.16a2.64,2.64,0,0,0-.14.92c-.31-.22-.61-.45-.91-.69,1-.72.28-2.15-.45-3.49s-1.58-2.68-1.58-2.68.78,2,.17,3.26a2.76,2.76,0,0,0-.31.9c-.25-.27-.5-.54-.74-.83,1.1-.56.67-2.09.2-3.54s-1.07-2.85-1.06-2.87.41,2.07-.41,3.24a3.12,3.12,0,0,0-.46.85c-.2-.3-.39-.61-.57-.92,1.17-.41,1-2,.81-3.46s-.56-2.94-.56-3,.06,2.08-.94,3.12a2.86,2.86,0,0,0-.59.78l-.27-.64-.19-.49c1.18-.22,1.28-1.71,1.31-3.12s-.08-2.8-.09-2.81a4.83,4.83,0,0,1-1.34,2.77,3,3,0,0,0-.67.65c-.12-.44-.22-.89-.32-1.34,1.17,0,1.49-1.4,1.72-2.71s.3-2.6.29-2.61A4.59,4.59,0,0,1,16.85,43a2.83,2.83,0,0,0-.75.53C16.05,43,16,42.49,16,42c1.12.13,1.6-1.09,2-2.28a22.72,22.72,0,0,0,.59-2.39,4.06,4.06,0,0,1-1.82,2,3,3,0,0,0-.78.4c0-.45,0-.9.07-1.35l0-.32c1,.28,1.64-.8,2.12-1.85S19,34,19,34a3.71,3.71,0,0,1-1.92,1.64,2.33,2.33,0,0,0-.76.27c.09-.59.21-1.18.34-1.77.88.36,1.58-.56,2.14-1.47a20.66,20.66,0,0,0,1-2s-.87,1.24-2,1.32a2.22,2.22,0,0,0-.68.13c.18-.61.37-1.22.59-1.83.75.39,1.47-.37,2.06-1.16A16.75,16.75,0,0,0,21,27.42s-.95,1.12-1.94,1a2.37,2.37,0,0,0-.55,0c.24-.59.5-1.18.78-1.78l.05-.11c.62.38,1.34-.24,2-.93A19.34,19.34,0,0,0,22.54,24s-1,1-1.91.84a1.41,1.41,0,0,0-.57,0A38.4,38.4,0,0,1,22.14,21c-.86,1.28-1.64,2.53-2.32,3.77a2.45,2.45,0,0,0-.34-.63,2.1,2.1,0,0,1-.19-1.54,6.28,6.28,0,0,1,.29-1A10.6,10.6,0,0,0,18.49,24c-.36,1.17-.35,2.28.46,2.42-.32.65-.61,1.3-.89,1.95a2.16,2.16,0,0,0-.4-.49,2,2,0,0,1-.45-1.52,4.25,4.25,0,0,1,.16-1,10.53,10.53,0,0,0-.81,2.5c-.19,1.19,0,2.3.78,2.39-.21.59-.4,1.19-.58,1.79a2.32,2.32,0,0,0-.46-.4c-.88-.59-.71-2.36-.67-2.49a10.11,10.11,0,0,0-.51,2.64c0,1.22.25,2.33,1.11,2.34v0c-.12.54-.22,1.09-.31,1.65a2.42,2.42,0,0,0-.53-.34c-1-.48-1.07-2.33-1.05-2.47a10.12,10.12,0,0,0-.18,2.8c.11,1.28.57,2.41,1.48,2.29,0,.51-.07,1-.09,1.54a3.17,3.17,0,0,0-.61-.28c-1.11-.34-1.43-2.17-1.45-2.4a11.12,11.12,0,0,0,.19,2.93c.28,1.32,1,2.49,1.9,2.2q0,.7.12,1.41a3.06,3.06,0,0,0-.72-.22c-1.23-.2-1.82-2.14-1.85-2.33A11.09,11.09,0,0,0,13.74,44c.49,1.38,1.41,2.53,2.36,2,.09.43.19.87.3,1.29a3.32,3.32,0,0,0-.84-.15c-1.34,0-2.26-2.07-2.28-2.19a11.76,11.76,0,0,0,1.11,3.17c.74,1.41,1.91,2.51,2.84,1.76.14.38.29.76.46,1.13a2.93,2.93,0,0,0-1,0C15.32,51.17,14,49.1,14,49a12.24,12.24,0,0,0,1.68,3.19c1,1.39,2.46,2.39,3.3,1.41.18.32.38.63.58.94a3.24,3.24,0,0,0-.95.08C17.2,55,15.54,53.05,15.57,53A11.76,11.76,0,0,0,17.78,56c1.26,1.24,2.87,2,3.55.94q.36.42.75.84a3.25,3.25,0,0,0-.94.22c-1.29.53-3.16-1-3.33-1.14a12.77,12.77,0,0,0,2.72,2.58c1.51,1,3.26,1.52,3.75.37.3.25.61.48.93.71a3.24,3.24,0,0,0-.92.36c-1.21.73-3.36-.45-3.58-.61a13,13,0,0,0,3.22,2.11c1.73.79,3.6,1,3.89-.24.35.19.71.36,1.07.53a3.67,3.67,0,0,0-.86.5c-1.1.91-3.49.13-3.76,0a14,14,0,0,0,3.67,1.52c1.9.47,3.85.29,3.94-.9a20.89,20.89,0,0,0,6.84.81l.05-.38Z"/><path class="cls-12" d="M63.54,29.17h0M64.83,33h0m.84,4v0M66,41h0m-.15,4h0m-.73,4h0m-3.8,7.81v0s0,0,0,0m-2.91,3.41,0,0,0,0m-3.56,2.9,0,0,0,0"/><path class="cls-13" d="M40.4,64.19a20.65,20.65,0,0,0,6.75-.81c-.79-1,.51-2,1.75-3l2.6-1.94S50,60,50.12,61.37a2.32,2.32,0,0,1,0,.92q.54-.24,1-.51c-.91-.88.12-2.13,1.11-3.32s2.11-2.37,2.11-2.37-1.16,1.82-.77,3.16a2.64,2.64,0,0,1,.14.92q.47-.33.9-.69c-1-.72-.27-2.15.45-3.49s1.59-2.68,1.59-2.68-.79,2-.17,3.26a2.76,2.76,0,0,1,.31.9c.25-.27.5-.54.74-.83-1.1-.56-.67-2.09-.21-3.54s1.08-2.85,1.07-2.87-.41,2.07.41,3.24a3.12,3.12,0,0,1,.46.85l.57-.92c-1.17-.41-1-2-.82-3.46s.57-2.94.57-3-.07,2.08.94,3.12a2.86,2.86,0,0,1,.59.78c.09-.21.18-.43.26-.64s.13-.33.2-.49c-1.18-.22-1.29-1.71-1.32-3.12s.09-2.8.09-2.81a4.94,4.94,0,0,0,1.35,2.77,3,3,0,0,1,.67.65c.12-.44.22-.89.31-1.34-1.16,0-1.48-1.4-1.71-2.71s-.3-2.6-.29-2.61A4.52,4.52,0,0,0,62.32,43a2.76,2.76,0,0,1,.74.53c.06-.51.1-1,.13-1.52-1.12.13-1.6-1.09-2-2.28a22.72,22.72,0,0,1-.59-2.39,4.06,4.06,0,0,0,1.82,2,2.76,2.76,0,0,1,.77.4c0-.45,0-.9-.07-1.35,0-.11,0-.21,0-.32-1,.28-1.64-.8-2.12-1.85S60.18,34,60.18,34a3.71,3.71,0,0,0,1.92,1.64,2.51,2.51,0,0,1,.76.27c-.1-.59-.21-1.18-.34-1.77-.89.36-1.59-.56-2.14-1.47s-1-2-1-2,.88,1.24,2,1.32a2.28,2.28,0,0,1,.68.13c-.18-.61-.38-1.22-.59-1.83-.75.39-1.48-.37-2.07-1.16a17.67,17.67,0,0,1-1.14-1.79s.94,1.12,1.94,1a2.4,2.4,0,0,1,.55,0c-.24-.59-.51-1.18-.79-1.78,0,0,0-.07,0-.11-.63.38-1.35-.24-2-.93A20.53,20.53,0,0,1,56.63,24s1,1,1.91.84a1.37,1.37,0,0,1,.56,0A36.47,36.47,0,0,0,57,21c.87,1.28,1.64,2.53,2.33,3.77a2.13,2.13,0,0,1,.33-.63,2.05,2.05,0,0,0,.19-1.54,4.44,4.44,0,0,0-.29-1A10.91,10.91,0,0,1,60.68,24c.35,1.17.34,2.28-.47,2.42.32.65.62,1.3.89,1.95a2.22,2.22,0,0,1,.41-.49A2.07,2.07,0,0,0,62,26.37a5.48,5.48,0,0,0-.15-1,10.25,10.25,0,0,1,.8,2.5c.2,1.19,0,2.3-.77,2.39.21.59.4,1.19.57,1.79a3.07,3.07,0,0,1,.46-.4c.89-.59.71-2.36.68-2.49a10.28,10.28,0,0,1,.5,2.64c0,1.22-.24,2.33-1.1,2.34v0c.12.54.22,1.09.31,1.65a2.42,2.42,0,0,1,.53-.34c1-.48,1.07-2.33,1-2.47a10.12,10.12,0,0,1,.18,2.8c-.11,1.28-.58,2.41-1.49,2.29,0,.51.08,1,.09,1.54a3.28,3.28,0,0,1,.62-.28c1.11-.34,1.43-2.17,1.44-2.4a10.68,10.68,0,0,1-.19,2.93c-.27,1.32-1,2.49-1.9,2.2,0,.47-.06.94-.11,1.41a3.06,3.06,0,0,1,.72-.22C65.42,43.08,66,41.14,66,41A11.27,11.27,0,0,1,65.42,44c-.48,1.38-1.4,2.53-2.35,2-.09.43-.19.87-.3,1.29a3.16,3.16,0,0,1,.84-.15c1.34,0,2.25-2.07,2.28-2.19a11.56,11.56,0,0,1-1.12,3.17c-.74,1.41-1.91,2.51-2.83,1.76-.14.38-.3.76-.46,1.13a2.87,2.87,0,0,1,.94,0c1.43.15,2.73-1.92,2.74-2a12.08,12.08,0,0,1-1.69,3.19c-1,1.39-2.46,2.39-3.29,1.41-.19.32-.38.63-.58.94a3.17,3.17,0,0,1,.94.08C62,55,63.63,53.05,63.6,53A11.76,11.76,0,0,1,61.39,56c-1.26,1.24-2.88,2-3.55.94q-.36.42-.75.84A3.12,3.12,0,0,1,58,58c1.3.53,3.17-1,3.34-1.14a13,13,0,0,1-2.72,2.58c-1.52,1-3.27,1.52-3.76.37-.3.25-.6.48-.92.71a3.24,3.24,0,0,1,.92.36c1.21.73,3.36-.45,3.57-.61a13,13,0,0,1-3.21,2.11c-1.73.79-3.61,1-3.9-.24-.35.19-.7.36-1.06.53a3.67,3.67,0,0,1,.86.5c1.1.91,3.48.13,3.75,0a13.85,13.85,0,0,1-3.66,1.52c-1.9.47-3.85.29-3.94-.9a20.93,20.93,0,0,1-6.84.81l-.05-.38Z"/></g><path class="cls-14" d="M31.83,59.56a.6.6,0,0,1-.22-.19.38.38,0,0,1-.06-.18.06.06,0,0,1,0,0h.33s0,0,0,0a.31.31,0,0,0,.1.13.3.3,0,0,0,.18,0,.39.39,0,0,0,.25-.07.37.37,0,0,0,.08-.26v-.19a.52.52,0,0,1-.43.18.51.51,0,0,1-.43-.18.74.74,0,0,1-.16-.48v-.15a.81.81,0,0,1,.16-.48.6.6,0,0,1,.69-.12.54.54,0,0,1,.18.15v-.11a.08.08,0,0,1,0,0l0,0h.23l0,0a.08.08,0,0,1,0,0V59a.65.65,0,0,1-.17.48.74.74,0,0,1-.52.17.89.89,0,0,1-.4-.08Zm.62-.94a.46.46,0,0,0,.09-.24V58.2a.5.5,0,0,0-.09-.25.29.29,0,0,0-.23-.1c-.2,0-.31.13-.32.37v.07c0,.29.1.43.32.43a.26.26,0,0,0,.23-.1Zm1,.27a.69.69,0,0,1-.19-.46v-.25a.66.66,0,0,1,.2-.46.82.82,0,0,1,1,0,.66.66,0,0,1,.2.46v.25a.66.66,0,0,1-.2.46.69.69,0,0,1-.5.17.73.73,0,0,1-.51-.17Zm.74-.21a.41.41,0,0,0,.08-.27s0,0,0-.1a1,1,0,0,0,0-.11.41.41,0,0,0-.08-.27.31.31,0,0,0-.46,0,.41.41,0,0,0-.08.27v.21a.41.41,0,0,0,.08.27.31.31,0,0,0,.46,0Zm.91.21a.69.69,0,0,1-.19-.46v-.25a.66.66,0,0,1,.2-.46.82.82,0,0,1,1,0,.66.66,0,0,1,.2.46v.25a.66.66,0,0,1-.2.46.69.69,0,0,1-.5.17.73.73,0,0,1-.51-.17Zm.74-.21a.41.41,0,0,0,.08-.27s0,0,0-.1a1,1,0,0,0,0-.11.41.41,0,0,0-.08-.27.31.31,0,0,0-.46,0,.41.41,0,0,0-.08.27v.21a.41.41,0,0,0,.08.27.31.31,0,0,0,.46,0Zm.88.2a.79.79,0,0,1-.16-.48v-.19a.78.78,0,0,1,.16-.47.52.52,0,0,1,.44-.19.55.55,0,0,1,.42.19v-.62a.08.08,0,0,1,0,0l0,0h.24l0,0a.08.08,0,0,1,0,0V59a.08.08,0,0,1,0,0l0,0h-.23l0,0s0,0,0,0v-.1a.53.53,0,0,1-.44.2.54.54,0,0,1-.44-.18Zm.78-.23a.39.39,0,0,0,.08-.25v-.21a.36.36,0,0,0-.09-.24.29.29,0,0,0-.23-.1c-.2,0-.3.13-.32.37v.17c0,.24.12.37.32.37a.29.29,0,0,0,.24-.11Zm1,.36a.08.08,0,0,1,0,0V57.88h-.22l0,0a.08.08,0,0,1,0,0v-.16a.08.08,0,0,1,0,0l0,0h.22v-.11a.51.51,0,0,1,.14-.38A.61.61,0,0,1,39,57h.58a.05.05,0,0,1,0,0s0,0,0,0v.16a.06.06,0,0,1,0,0l0,0H39a.17.17,0,0,0-.15,0,.25.25,0,0,0,0,.16v.1h.76a.05.05,0,0,1,0,0s0,0,0,0V59s0,0,0,0a.05.05,0,0,1,0,0h-.23l-.05,0s0,0,0,0V57.88h-.46V59a.08.08,0,0,1,0,0l0,0h-.23l-.05,0ZM40,59a.08.08,0,0,1,0,0V57.65a.08.08,0,0,1,0,0l0,0h.23l0,0a.07.07,0,0,1,0,0v.12a.48.48,0,0,1,.41-.19h.11l0,0a.08.08,0,0,1,0,0v.2a.08.08,0,0,1,0,0l0,0h-.22a.27.27,0,0,0-.2.07.29.29,0,0,0-.08.21V59a.08.08,0,0,1,0,0l0,0h-.24l0,0Zm1.17,0s0,0,0,0V57.65s0,0,0,0a.05.05,0,0,1,0,0h.22l0,0a.08.08,0,0,1,0,0v.09a.5.5,0,0,1,.4-.19.44.44,0,0,1,.43.25.66.66,0,0,1,.19-.18.6.6,0,0,1,.27-.07.51.51,0,0,1,.37.16.61.61,0,0,1,.14.45V59a.07.07,0,0,1,0,0l0,0H43l0,0a.08.08,0,0,1,0,0v-.77a.37.37,0,0,0-.07-.26.28.28,0,0,0-.2-.08.25.25,0,0,0-.18.08.38.38,0,0,0-.08.26V59s0,0,0,0a.06.06,0,0,1-.05,0h-.23l0,0a.08.08,0,0,1,0,0v-.77a.38.38,0,0,0-.07-.26.26.26,0,0,0-.19-.08.27.27,0,0,0-.19.08.38.38,0,0,0-.07.26V59a.08.08,0,0,1,0,0l-.05,0h-.24a.05.05,0,0,1,0,0Zm2.69,0a.44.44,0,0,1-.21-.15.21.21,0,0,1-.07-.14s0,0,0-.05h.27l0,0,.06.05a.41.41,0,0,0,.11.07l.14,0a.34.34,0,0,0,.18,0,.16.16,0,0,0,.07-.13.16.16,0,0,0,0-.09l-.12-.06-.24-.07a.67.67,0,0,1-.35-.15.34.34,0,0,1-.12-.27.38.38,0,0,1,.07-.21.41.41,0,0,1,.2-.16.63.63,0,0,1,.32-.07.79.79,0,0,1,.32.06.57.57,0,0,1,.21.15.21.21,0,0,1,.07.14.08.08,0,0,1,0,.05l0,0h-.21a.05.05,0,0,1-.05,0l-.06,0-.1-.06-.12,0a.24.24,0,0,0-.16,0A.14.14,0,0,0,44,58a.11.11,0,0,0,0,.08s.05.05.1.07l.25.06c.33.06.5.21.5.43a.37.37,0,0,1-.17.32.78.78,0,0,1-.48.13.87.87,0,0,1-.35-.07Zm1.28,0a.08.08,0,0,1,0,0v-.28s0,0,0,0l0,0h.28l0,0s0,0,0,0V59a.08.08,0,0,1,0,0l0,0h-.28l0,0Zm.85-.12a.67.67,0,0,1-.19-.47v-.23a.67.67,0,0,1,.19-.47.73.73,0,0,1,.49-.17.81.81,0,0,1,.37.08.63.63,0,0,1,.23.19.54.54,0,0,1,.08.22s0,0,0,.05h-.34l0,0a.33.33,0,0,0-.11-.16.29.29,0,0,0-.17,0,.29.29,0,0,0-.22.08.44.44,0,0,0-.09.28v.19c0,.24.11.36.31.36a.26.26,0,0,0,.28-.2l0,0h.34s0,0,0,0a.46.46,0,0,1-.08.21.62.62,0,0,1-.22.2.86.86,0,0,1-.38.08.73.73,0,0,1-.49-.17Zm1.59,0a.69.69,0,0,1-.19-.46v-.25a.66.66,0,0,1,.2-.46.82.82,0,0,1,1,0,.66.66,0,0,1,.2.46v.25a.66.66,0,0,1-.2.46.69.69,0,0,1-.5.17.73.73,0,0,1-.51-.17Zm.74-.21a.41.41,0,0,0,.08-.27V58.2a.41.41,0,0,0-.08-.27.31.31,0,0,0-.46,0,.41.41,0,0,0-.08.27v.21a.41.41,0,0,0,.08.27.31.31,0,0,0,.46,0Z"/><path class="cls-9" d="M53.23,20.53l.49,1,1.11.16-.8.78.19,1.09-1-.52-1,.52.19-1.09-.8-.78,1.1-.16Zm-27.06,0-.49,1-1.1.16.79.78-.18,1.09,1-.52,1,.52L27,22.46l.79-.78-1.1-.16Zm22.83-5,.82,1.66,1.83.27-1.32,1.29.31,1.82L49,19.71l-1.64.86.31-1.82-1.32-1.29,1.83-.27Zm-18.6,0-.82,1.66-1.83.27,1.33,1.29-.32,1.82,1.64-.86,1.64.86-.31-1.82,1.33-1.29-1.84-.27Zm9.3-3.73,1.37,2.77,3.06.44-2.22,2.15.53,3L39.7,18.77,37,20.2l.52-3L35.28,15l3-.44Z"/><path class="cls-15" d="M39.7,11.8l1.37,2.77,3.06.44-2.22,2.15.53,3L39.7,18.77,37,20.2l.52-3L35.28,15l3-.44Z"/><path class="cls-9" d="M49,15.53l.82,1.66,1.83.27-1.32,1.29.31,1.82L49,19.71l-1.64.86.31-1.82-1.32-1.29,1.83-.27Z"/><path class="cls-7" d="M53.23,20.53l.49,1,1.11.16-.8.78.19,1.09-1-.52-1,.52.19-1.09-.8-.78,1.1-.16Z"/><path class="cls-9" d="M30.4,15.53l-.82,1.66-1.83.27,1.33,1.29-.32,1.82,1.64-.86,1.64.86-.31-1.82,1.33-1.29-1.84-.27Z"/><path class="cls-7" d="M26.17,20.53l-.49,1-1.1.16.79.78-.18,1.09,1-.52,1,.52L27,22.46l.79-.78-1.1-.16Z"/><path class="cls-16" d="M1.77,46.2h8.44V59.1H1.77L4.48,53Zm75,0H68.36V59.1H76.8L74.09,53Z"/><path class="cls-17" d="M6,41.78l4.28,4.59V59.09L6,54.82Zm66.6,0-4.27,4.4V59.07l4.27-4.24Z"/><path class="cls-12" d="M5.94,54.76H72.55V41.7H5.94Z"/><path class="cls-1" d="M25.06,47.14h-.58v-2.3h-.81v-.48h2.2v.48h-.81Zm2.39-2.82a1.44,1.44,0,1,1-1.34,1.43A1.29,1.29,0,0,1,27.45,44.32Zm0,.48c-.45,0-.75.37-.75,1s.29,1,.75,1,.74-.37.74-1S27.9,44.8,27.45,44.8Zm1.71-.44h1.16a.91.91,0,0,1,1,1,.92.92,0,0,1-1,.95h-.55v.88h-.58Zm.58.46v1h.42a.5.5,0,1,0,0-1Zm5.67-.46v2.78H34.9V45.27h0l-.75,1.84h-.37L33,45.27h0v1.87h-.52V44.36h.68l.78,2h0l.79-2Zm1.72,0a1.44,1.44,0,1,1-1.34,1.43A1.29,1.29,0,0,1,37.13,44.32Zm0,.48c-.46,0-.75.37-.75,1s.29,1,.75,1,.74-.37.74-1S37.58,44.8,37.13,44.8Zm3,2.34H38.84V44.36h1.23c.52,0,.84.27.84.7a.61.61,0,0,1-.52.6h0a.68.68,0,0,1,.66.68C41.05,46.83,40.68,47.14,40.09,47.14Zm-.67-2.34v.72h.44c.31,0,.48-.14.48-.37s-.15-.35-.42-.35Zm0,1.91h.52c.33,0,.52-.14.52-.41s-.19-.4-.53-.4h-.51Zm2.54.43h-.58V44.36H42Zm2.26-.48v.48h-1.8V44.36H43v2.3Zm2.18,0v.48H44.56V44.36H46.4v.48H45.14v.67h1.19V46H45.14v.7Zm3.09.48-.21-.67h-1l-.21.67h-.6l1-2.78h.68l1,2.78Zm-.71-2.25L48.42,46h.73l-.36-1.14Zm1.61-.53h1.16a.91.91,0,0,1,1,1,.92.92,0,0,1-1,.95H51v.88h-.58Zm.58.46v1h.42a.5.5,0,1,0,0-1Zm1.88-.46H54a.91.91,0,0,1,1,1,.92.92,0,0,1-1,.95h-.55v.88h-.58Zm.58.46v1h.42a.5.5,0,1,0,0-1ZM15,49h1.07a1.24,1.24,0,0,1,1.33,1.38,1.26,1.26,0,0,1-1.33,1.4H15Zm.58.48V51.3H16c.52,0,.8-.32.8-.92s-.29-.9-.8-.9Zm4,1.82v.48H17.81V49h1.84v.48H18.39v.67h1.19v.45H18.39v.7Zm1.87.48h-.7L19.89,49h.65l.64,2.18h0L21.82,49h.64Zm3.06-.48v.48H22.74V49h1.84v.48H23.32v.67h1.19v.45H23.32v.7Zm2.22,0v.48H25V49h.58v2.3ZM28.39,49a1.44,1.44,0,1,1-1.34,1.44A1.29,1.29,0,0,1,28.39,49Zm0,.49c-.45,0-.74.37-.74,1s.29,1,.74,1,.75-.37.75-1S28.85,49.44,28.39,49.44ZM30.11,49h1.15a.91.91,0,0,1,1,1,.92.92,0,0,1-1,.95h-.55v.88h-.58Zm.58.46v1h.42a.5.5,0,1,0,0-1ZM35.51,49v2.78H35V49.9h0l-.76,1.85h-.36L33.1,49.9h0v1.88h-.52V49h.67L34,51h0l.79-2Zm2.3,2.3v.48H36V49h1.84v.48H36.55v.67h1.19v.45H36.55v.7Zm1,.48h-.56V49h.49L40,50.81h0V49h.55v2.78H40.1L38.8,50h0Zm3.51,0h-.58v-2.3h-.81V49h2.21v.48H42.3Zm3.21,0a1.45,1.45,0,0,1,0-2.88,1.14,1.14,0,0,1,1.22,1h-.56a.66.66,0,0,0-.66-.57c-.44,0-.72.37-.72,1s.28,1,.72,1a.63.63,0,0,0,.66-.53h.56A1.13,1.13,0,0,1,45.51,51.83ZM48.34,49A1.44,1.44,0,1,1,47,50.39,1.29,1.29,0,0,1,48.34,49Zm0,.49c-.45,0-.74.37-.74,1s.29,1,.74,1,.75-.37.75-1S48.8,49.44,48.34,49.44ZM53,49v2.78h-.52V49.9h0l-.75,1.85h-.37l-.75-1.85h0v1.88h-.52V49h.67l.79,2h0l.78-2Zm.46,0h1.16a.91.91,0,0,1,1,1,.92.92,0,0,1-1,.95H54v.88h-.58Zm.58.46v1h.42a.5.5,0,1,0,0-1Zm3.7,2.32-.21-.68h-1l-.21.68h-.59l1-2.78h.68l1,2.78ZM57,49.53l-.36,1.14h.73l-.36-1.14Zm2.16,2.25h-.56V49h.49l1.29,1.81h0V49H61v2.78h-.48L59.22,50h0Zm3.63,0h-.58v-1l-1-1.74h.63l.63,1.19h0L63.17,49h.63l-1,1.74Z"/></svg>