<svg id="Layer_1" data-name="Layer 1" xmlns="http://www.w3.org/2000/svg" viewBox="0 0 80 80"><defs><style>.cls-1{fill:#69787c;}.cls-2{fill:#fdfdfd;}.cls-16,.cls-3{fill:#17313b;}.cls-4{fill:#fefefe;}.cls-5{fill:#fdfefe;}.cls-6{fill:#fd3d2e;}.cls-7{fill:#384e57;}.cls-8{fill:#18323b;}.cls-9{fill:#18323c;}.cls-10{fill:#19333c;}.cls-11{fill:#19323c;}.cls-12{fill:#1a333d;}.cls-13{fill:#c5cbce;}.cls-14{fill:#fcfcfc;}.cls-15{fill:#fbfbfb;}.cls-16{font-size:4.07px;font-family:Nunito-Regular, Nunito;}</style></defs><path class="cls-1" d="M72.79,58.19a5.74,5.74,0,0,0-1.05.53L44.56,73.4l-4.49,2.43a1.64,1.64,0,0,0-.22.14h-.12l-2.55-1.4L19.85,65.21,7.07,58.31a.47.47,0,0,1-.29-.48V22.75a.47.47,0,0,1,.28-.48l21-11.35L39.52,4.73a.49.49,0,0,1,.52,0q9.84,5.34,19.7,10.65l12.7,6.87a.64.64,0,0,0,.35.14Z"/><path class="cls-2" d="M7.32,40.28V23.09a.47.47,0,0,1,.29-.48Q19,16.48,30.39,10.31l9.12-4.94a.48.48,0,0,1,.54,0L66.24,19.52,72,22.64a.4.4,0,0,1,.24.41V57.51a.39.39,0,0,1-.26.43L48.43,70.68,40.07,75.2a.5.5,0,0,1-.57,0q-12-6.47-23.92-12.92c-2.66-1.44-5.33-2.89-8-4.32a.44.44,0,0,1-.27-.45Q7.33,48.89,7.32,40.28Z"/><path class="cls-3" d="M8.58,50.09V30.48c.1-.11.24-.08.36-.08h2.23c.34,0,.35,0,.35-.35V25.23a.74.74,0,0,1,.46-.74c1.61-.85,3.2-1.74,4.8-2.62l4.77-2.6,5.16-2.83,4.1-2.24,4.74-2.6c1.3-.72,2.61-1.42,3.91-2.15a.77.77,0,0,1,.85,0c1.48.83,3,1.64,4.46,2.45l3.57,1.95,6.54,3.59L59.51,20l5.34,2.93c1,.53,1.94,1.08,2.93,1.58a.75.75,0,0,1,.46.77V30c0,.41,0,.41.41.41h2a.59.59,0,0,1,.37.08c.11.08,0,.14,0,.2V50.09c0,.07-.24.08-.37.09h-2c-.33,0-.35,0-.35.35v4.79a.77.77,0,0,1-.46.77c-1.6.85-3.19,1.73-4.78,2.6L58.23,61.3l-5.16,2.83-4.2,2.3L44.26,69c-1.31.72-2.63,1.43-3.93,2.17a.83.83,0,0,1-.91,0c-1.5-.86-3-1.67-4.53-2.5l-4.67-2.55-5.34-2.93-5.45-3-5.16-2.83c-.77-.42-1.53-.87-2.32-1.26a.64.64,0,0,1-.43-.69V50.59c0-.38,0-.38-.38-.38H8.94C8.82,50.17,8.68,50.2,8.58,50.09Z"/><path class="cls-1" d="M71,30.48H68.44c-.24,0-.29-.08-.29-.3V25.06a.42.42,0,0,0-.25-.41l-6-3.29c-2.6-1.36-5.18-2.84-7.77-4.26l-5.31-2.9-7.16-3.93-1.59-.86a.35.35,0,0,0-.39,0l-5.44,3-4,2.2-7.78,4.27-5.19,2.83-5.42,3a.42.42,0,0,0-.25.41v5.12c0,.22,0,.3-.29.3H8.58V23.79c0-.2.13-.24.26-.31L17.19,19,36.07,8.81,39.53,7a.49.49,0,0,1,.52,0L59.63,17.5l11.08,5.92a.48.48,0,0,1,.3.5Q71,27.17,71,30.48Z"/><path class="cls-1" d="M8.58,50.09h2.73c.24,0,.3.08.29.3v5.12a.42.42,0,0,0,.25.41l6,3.29,7.76,4.26,5.32,2.9,7.15,3.93,1.59.86a.35.35,0,0,0,.39,0l5.44-3,4-2.19,7.78-4.27,5.19-2.84,5.42-3a.42.42,0,0,0,.25-.41V50.34c0-.23,0-.31.29-.31H71v6.75c0,.21-.13.25-.25.31l-8.57,4.59-18.69,10L40.07,73.6a.53.53,0,0,1-.57,0L18.77,62.48l-9.9-5.29a.49.49,0,0,1-.31-.5C8.58,54.49,8.57,52.29,8.58,50.09Z"/><path class="cls-2" d="M39.87,48.31H67.46c.27,0,.34,0,.34.33V55.3a.38.38,0,0,1-.22.39L47.81,66.51l-7.68,4.21a.44.44,0,0,1-.51,0L17.28,58.48l-5.1-2.79A.36.36,0,0,1,12,55.3V48.61c0-.25.06-.3.31-.3Z"/><path class="cls-2" d="M39.85,32.26H12.29c-.25,0-.34,0-.34-.33V25.3a.4.4,0,0,1,.25-.43Q25.84,17.42,39.46,9.93a.72.72,0,0,1,.82,0l26.64,14.6c.28.15.66.25.82.49s.05.66.05,1v5.92c0,.26-.06.33-.33.33Z"/><path class="cls-2" d="M27.78,36.28a4.49,4.49,0,0,1,3.28,1.27c.12.12.14.17,0,.29a7,7,0,0,0-.63.59c-.15.17-.26.17-.42,0a2.92,2.92,0,0,0-2.24-.84,2.74,2.74,0,0,0-2.68,2.8,2.19,2.19,0,0,0,0,.36,2.57,2.57,0,0,0,1.77,2.32A3,3,0,0,0,30,42.49c.3-.26.3-.27.58,0l.58.56c.08.07.1.12,0,.21a4.42,4.42,0,0,1-6.26.06,3.07,3.07,0,0,1-.25-.26,4.08,4.08,0,0,1-.47-4.48A3.92,3.92,0,0,1,27.78,36.28Z"/><path class="cls-2" d="M50.5,40.2V36.28c0-.22,0-.3.28-.28a6.61,6.61,0,0,0,.89,0c.25,0,.28.08.28.3v2.61c0,.2,0,.28.25.16a2.73,2.73,0,0,1,2.72.09,2,2,0,0,1,.93,1.7v3.36c0,.12,0,.17-.16.17H54.63c-.18,0-.21-.06-.21-.22V41.35c0-.82-.3-1.23-.93-1.28A1.33,1.33,0,0,0,52,41.21a21.53,21.53,0,0,0,0,2.41c0,.24.08.57,0,.71s-.48.05-.73.06c-.66,0-.66,0-.66-.66Z"/><path class="cls-4" d="M40,41.63v2.49c0,.24-.07.29-.28.27s-.58,0-.86,0c-.12,0-.27.1-.33-.13s-.15,0-.21,0a2.73,2.73,0,0,1-2.22.15,2.29,2.29,0,0,1-1.47-2.23V39c0-.18,0-.22.22-.22a5.34,5.34,0,0,0,.8,0c.19,0,.25,0,.24.25v2.85a2.09,2.09,0,0,0,0,.5,1,1,0,0,0,1.12.86h.06A1.37,1.37,0,0,0,38.51,42a1.22,1.22,0,0,0,0-.27V39.08c0-.2,0-.28.25-.27a8.34,8.34,0,0,0,1,0c.18,0,.22.06.22.22C40,39.92,40,40.78,40,41.63Z"/><path class="cls-4" d="M47.5,38.68a3.34,3.34,0,0,1,2.26.83c.13.11.14.17,0,.29a5,5,0,0,0-.58.55c-.18.19-.3.21-.53,0a1.86,1.86,0,0,0-2-.2,1.48,1.48,0,0,0-.9,1.48,1.57,1.57,0,0,0,1.06,1.47,1.84,1.84,0,0,0,1.92-.31c.14-.13.24-.16.38,0s.46.44.7.65.12.12,0,.22c-1.59,1.52-4.65,1.06-5.34-1.22a2.92,2.92,0,0,1,1.94-3.66,3,3,0,0,1,.79-.13Z"/><path class="cls-4" d="M41.4,42.13v-2c0-.17,0-.22-.21-.22s-.5.08-.63,0-.05-.43-.05-.65c0-.38,0-.38.4-.38s.49,0,.49-.49V37.14c0-.19.06-.23.24-.23H42.8c.18,0,.24,0,.23.23v1.51c0,.19.06.26.24.23h0c.26,0,.65-.11.74,0a2.47,2.47,0,0,1,.05.9c0,.11-.07.12-.15.12h-.69c-.23,0-.22.1-.22.28v3.89c0,.28-.08.34-.34.32s-.71,0-1.07,0c-.17,0-.22,0-.21-.21Z"/><path class="cls-5" d="M31.77,40.2V36.27c0-.22.06-.28.28-.27a9.55,9.55,0,0,0,1.07,0c.22,0,.28,0,.28.27v7.88c0,.2-.06.25-.25.24H32c-.22,0-.28,0-.28-.27C31.77,42.81,31.77,41.5,31.77,40.2Z"/><path class="cls-6" d="M47.43,42.61a1,1,0,0,1-1-1,1.07,1.07,0,1,1,1.14,1Z"/><path class="cls-7" d="M39.79,50H63.07c.12,0,.34-.09.34.1s-.22.09-.34.09H16.51c-.12,0-.35.09-.35-.09s.23-.1.35-.1Z"/><path class="cls-7" d="M39.82,30.37H63.07c.12,0,.34-.09.34.09s-.22.1-.34.1H16.51c-.12,0-.35.09-.35-.1s.23-.09.35-.09Z"/><path class="cls-3" d="M20.94,26.19c.16-.62.33-1.24.49-1.86a.28.28,0,0,1,.31-.25h0c.2,0,.25.09.29.25.17.67.35,1.34.58,2l.21-.9c.1-.42.21-.85.29-1.27,0-.24.2-.19.33-.17s.08.16.06.24c-.2.83-.41,1.66-.6,2.48,0,.17-.1.26-.29.25s-.28,0-.33-.24c-.16-.68-.36-1.36-.56-2.13l-.32,1.15c-.09.34-.19.69-.27,1s-.17.18-.3.18-.24,0-.28-.18c-.2-.86-.42-1.73-.63-2.59,0-.08-.08-.2.08-.19s.29-.07.34.17c.12.6.27,1.19.41,1.79l.06.23S20.9,26.23,20.94,26.19Z"/><path class="cls-3" d="M28.59,25.39a.85.85,0,0,1-.32,1.6h-1c-.13,0-.15-.06-.15-.16V24.18c0-.14.06-.16.18-.16h.83c.47,0,.74.15.84.44A.81.81,0,0,1,28.59,25.39Z"/><path class="cls-8" d="M32.15,24a3.86,3.86,0,0,1,.68,0,.88.88,0,0,1,.74.71,3.1,3.1,0,0,1,0,1.42,1,1,0,0,1-1,.8h-1c-.14,0-.18,0-.18-.18V24.19c0-.16,0-.21.2-.2Z"/><path class="cls-8" d="M38.29,18.42v-.51a1.21,1.21,0,0,1,1.26-1.16,1.35,1.35,0,0,1,.45.11,1,1,0,0,1,.67.79,3,3,0,0,1,0,1.27,1.08,1.08,0,0,1-1.15,1h-.06a1,1,0,0,1-1.13-.85.76.76,0,0,1,0-.15A4.19,4.19,0,0,1,38.29,18.42Z"/><path class="cls-8" d="M47.93,25.46v.45A1.21,1.21,0,0,1,46.62,27a1.16,1.16,0,0,1-.45-.12.9.9,0,0,1-.57-.67,2.93,2.93,0,0,1,0-1.5,1.09,1.09,0,0,1,1.27-.82,1,1,0,0,1,1,.9A3.47,3.47,0,0,1,47.93,25.46Z"/><path class="cls-9" d="M55.91,25.58a1.9,1.9,0,0,1,.54,1.25c0,.11,0,.15-.13.13s-.27.08-.31-.13a4.85,4.85,0,0,0-.16-.63.63.63,0,0,0-.76-.46l-.07,0c-.13,0-.1.13-.1.21v.8c0,.27-.07.19-.21.2s-.21,0-.21-.21V24.18c0-.1,0-.19.15-.19h1.13a.65.65,0,0,1,.64.55.83.83,0,0,1-.39.94Z"/><path class="cls-9" d="M41.77,18.31V17.09c0-.17,0-.25.23-.24h.86a.81.81,0,0,1,.86.74,1.09,1.09,0,0,1,0,.18.79.79,0,0,1-.64.92h-.19c-.23,0-.54-.11-.67.08s0,.44,0,.67.06.26,0,.34a.48.48,0,0,1-.29,0c-.09,0-.07-.1-.07-.16Z"/><path class="cls-8" d="M49,25.48V24.23c0-.18,0-.25.23-.24s.59,0,.89,0c.55,0,.81.33.81.91s-.25.9-.8.94H50c-.63,0-.63,0-.63.67v.26c0,.15,0,.19-.19.18S49,27,49,26.77C49,26.35,49,25.91,49,25.48Z"/><path class="cls-10" d="M51.83,25.46V24.25c0-.18,0-.27.25-.26h1.18c.14,0,.22,0,.22.19s-.09.18-.22.18h-.89c-.26.19-.06.47-.12.7s0,.21.17.2.51,0,.77,0,.17.06.18.19,0,.2-.19.19-.5,0-.74,0-.19,0-.2.18c0,.78,0,.78.73.78h.33c.13,0,.19,0,.19.18s-.06.19-.19.18H52.05c-.18,0-.22-.07-.22-.23Z"/><path class="cls-11" d="M34.67,25.47V24.22c0-.16,0-.24.2-.23h1.22c.15,0,.21,0,.21.2s-.09.17-.21.17h-.86c-.32.14-.08.43-.14.64s-.07.27.16.26H36c.15,0,.18.06.18.19s0,.2-.19.19-.49,0-.74,0-.18,0-.19.18c0,.78,0,.78.72.78h.36c.13,0,.16.06.16.18s0,.19-.16.18H34.83c-.18,0-.18-.09-.18-.23Z"/><path class="cls-9" d="M25.22,27c-.21,0-.56.11-.72,0s-.05-.51-.05-.77v-1.9c0-.22.06-.27.27-.26h1.15c.15,0,.21,0,.21.2s-.07.17-.2.17H25c-.14,0-.18,0-.19.18,0,.72,0,.72.67.72h.27c.14,0,.19,0,.19.19s0,.2-.19.19H25c-.24,0-.22,0-.23.21,0,.75,0,.75.75.75h.33c.12,0,.17,0,.17.17s0,.2-.18.19S25.49,27,25.22,27Z"/><path class="cls-8" d="M40.37,25.46V24.21c0-.17,0-.23.21-.22H41.8c.14,0,.2,0,.2.18s0,.19-.19.19H41c-.26,0-.23.07-.23.24,0,.67,0,.67.66.67h.26c.14,0,.2,0,.19.19s0,.2-.18.19H41c-.24,0-.18,0-.19.18,0,.78-.05.78.72.78h.33c.13,0,.18,0,.18.17s0,.2-.19.19H40.54c-.16,0-.17-.07-.17-.19Z"/><path class="cls-8" d="M38.28,26.49c.25-.77.49-1.47.7-2.18.09-.29.22-.39.53-.28L39,25.62c-.13.39-.28.78-.4,1.18,0,.18-.17.16-.29.16S38,27,38,26.8c-.3-.92-.62-1.84-.93-2.75.4-.11.42-.1.54.25C37.81,25,38,25.71,38.28,26.49Z"/><path class="cls-9" d="M58.29,24a1.29,1.29,0,0,1,.58.12c.08,0,.25,0,.15.21s-.12.24-.3.13a1,1,0,0,0-.51-.11c-.22,0-.42.06-.48.31a.42.42,0,0,0,.27.5c.23.11.48.2.7.32a.78.78,0,0,1,.46.71.74.74,0,0,1-.47.76,1.47,1.47,0,0,1-1.28-.07.12.12,0,0,1-.08-.22c.11-.11.09-.23.26-.12a1.07,1.07,0,0,0,.74.15.4.4,0,0,0,.4-.34.42.42,0,0,0-.21-.48c-.23-.13-.48-.22-.72-.34a.75.75,0,0,1-.49-.65A.8.8,0,0,1,58.29,24Z"/><path class="cls-10" d="M36.24,18.51v-1c0-.33-.08-.31-.3-.28a1.93,1.93,0,0,1-.42,0c-.14,0-.2,0-.2-.16s0-.21.2-.21h1.87c.14,0,.18.06.18.19s-.06.2-.19.18h-.12c-.61,0-.61,0-.61.63v1.69c0,.13.06.29-.2.29s-.22-.13-.21-.28Z"/><path class="cls-12" d="M43,25.46V24.21c0-.16,0-.22.21-.22s.21.08.21.23v2.05c0,.25,0,.37.32.33a4.18,4.18,0,0,1,.71,0c.24,0,.22,0,.22.18s-.1.18-.23.18H43.28c-.2,0-.28,0-.27-.26S43,25.88,43,25.46Z"/><path class="cls-13" d="M20.94,26.19c0,.06,0,.16-.06.16s-.06-.1-.06-.16Z"/><path class="cls-14" d="M27.9,26.62c-.36.1-.41-.11-.37-.39v-.06c0-.18-.11-.48.07-.54a1.13,1.13,0,0,1,.81.05c.22.09.21.31.2.51a.42.42,0,0,1-.33.4Z"/><path class="cls-14" d="M27.53,24.81c0-.46,0-.46.46-.46s.54.07.56.36a.51.51,0,0,1-.53.57C27.63,25.32,27.53,25.33,27.53,24.81Z"/><path class="cls-2" d="M31.85,25.48v-.92c0-.15,0-.23.2-.2h0c1,0,1.12.14,1.12,1.1v.12c0,.87-.34,1.15-1.21,1-.15,0-.14-.11-.14-.21Z"/><path class="cls-2" d="M40.3,18.31v.51a.69.69,0,0,1-.69.71h-.07c-.47,0-.68-.18-.75-.69a3.32,3.32,0,0,1,0-1.09.66.66,0,0,1,.73-.6h0a.64.64,0,0,1,.71.57v0A5.09,5.09,0,0,1,40.3,18.31Z"/><path class="cls-2" d="M47.48,25.4V26a.76.76,0,0,1-.8.74.72.72,0,0,1-.32-.08.55.55,0,0,1-.35-.45,2.94,2.94,0,0,1,0-1.32.65.65,0,0,1,.73-.55.63.63,0,0,1,.71.53A5.63,5.63,0,0,1,47.48,25.4Z"/><path class="cls-15" d="M54.91,24.87c0-.53,0-.53.54-.52s.54.11.56.44a.54.54,0,0,1-.46.6h-.06C54.92,25.47,54.91,25.46,54.91,24.87Z"/><path class="cls-14" d="M42.17,17.75c0-.53,0-.53.55-.53.21,0,.42,0,.5.24a.84.84,0,0,1-.07.77.33.33,0,0,1-.29.12,2.81,2.81,0,0,0-.41,0c-.22,0-.32,0-.28-.27A.8.8,0,0,0,42.17,17.75Z"/><path class="cls-14" d="M49.36,24.93c0-.59,0-.59.6-.57.38,0,.48.13.48.57s-.1.55-.5.55h0C49.36,25.49,49.36,25.49,49.36,24.93Z"/><text class="cls-16" transform="translate(36.54 58.44)">2019</text></svg>