<svg width="57" height="67" viewBox="0 0 57 67" fill="none" xmlns="http://www.w3.org/2000/svg">
<path d="M23.0351 66.693C22.0906 66.3513 21.0928 66.1108 20.2104 65.6433C18.5607 64.7689 17.4233 63.3685 16.8091 61.5815C16.6539 61.1297 16.4078 61.0083 16.0065 60.9409C11.2793 60.1407 7.69628 56.7285 6.62535 52.0217C6.13091 49.8458 6.27946 47.9307 7.17966 45.1029C2.96691 42.5787 0.578942 38.8653 0.57229 33.8415C0.563421 28.8109 2.94252 25.0909 7.08432 22.5711C6.85373 21.391 6.52779 20.2558 6.4258 19.0982C5.89366 13.0067 10.0066 7.66821 15.9422 6.68367C16.3967 6.60725 16.6517 6.45439 16.8291 5.97111C18.1129 2.43309 21.6693 0.410071 25.3921 1.05294C28.8975 1.6576 31.5915 4.89667 31.6402 8.5853C31.6602 10.1228 31.6447 11.6603 31.6447 13.236C32.8043 13.236 33.9107 13.236 35.0814 13.236C35.0814 11.9974 35.0814 10.7836 35.0814 9.56983C35.0814 9.22817 35.0725 8.88425 35.0836 8.54259C35.108 7.71315 35.6224 7.1512 36.3497 7.14895C37.0769 7.14671 37.6046 7.71091 37.6135 8.53585C37.6246 9.88453 37.6179 11.2332 37.6179 12.5819C37.6179 12.7909 37.6179 12.9977 37.6179 13.2427C38.7731 13.2427 39.864 13.2427 41.0347 13.2427C41.0436 13.0269 41.0635 12.8022 41.0635 12.5774C41.0657 11.2714 41.0569 9.96545 41.0679 8.65948C41.0768 7.72215 41.5801 7.14221 42.3495 7.14895C43.1167 7.15345 43.5934 7.7289 43.5956 8.67972C43.6023 10.1767 43.5978 11.6715 43.5978 13.2809C44.2209 13.2809 44.7996 13.2967 45.3783 13.2764C45.9437 13.2585 46.3893 13.4585 46.7862 13.8699C47.8017 14.9286 48.8194 15.9873 49.8815 16.9988C50.438 17.5293 50.6863 18.1159 50.6309 18.8757C50.5976 19.341 50.6243 19.813 50.6243 20.393C51.0389 20.393 51.4091 20.393 51.7772 20.393C52.8969 20.393 54.0166 20.384 55.1363 20.3952C56.1208 20.4042 56.6817 20.8942 56.6684 21.7012C56.6529 22.4857 56.1031 22.9532 55.1519 22.9577C53.6774 22.9667 52.2007 22.9599 50.6753 22.9599C50.6753 24.1333 50.6753 25.2549 50.6753 26.4687C51.5333 26.4687 52.3936 26.4687 53.2517 26.4687C53.9479 26.4687 54.6463 26.4575 55.3425 26.4732C56.1341 26.489 56.6574 26.9925 56.6684 27.7185C56.6817 28.4715 56.154 29.0155 55.327 29.0312C53.9545 29.0537 52.5821 29.038 51.2096 29.0402C51.0455 29.0402 50.8792 29.0402 50.6243 29.0402C50.6243 29.6584 50.6243 30.2293 50.6243 30.798C50.6243 31.351 50.6243 31.9017 50.6243 32.5243C51.9236 32.5243 53.163 32.5243 54.4024 32.5243C54.6973 32.5243 54.9944 32.5198 55.2893 32.5265C56.1208 32.5468 56.6574 33.0435 56.6662 33.7943C56.6729 34.5496 56.1407 35.08 55.3159 35.089C53.9856 35.1048 52.6552 35.0935 51.3249 35.0935C51.1187 35.0935 50.9103 35.0935 50.6243 35.0935C50.6243 35.7184 50.6243 36.2871 50.6243 36.8581C50.6243 37.4088 50.6243 37.9595 50.6243 38.5776C52.061 38.5776 53.4268 38.5776 54.7949 38.5776C55.0476 38.5776 55.3048 38.5641 55.5532 38.6001C56.2516 38.7035 56.6951 39.2497 56.664 39.933C56.633 40.6164 56.143 41.1244 55.429 41.1356C54.0787 41.1581 52.7262 41.1446 51.3737 41.1446C51.1475 41.1446 50.9191 41.1446 50.6597 41.1446C50.6597 42.3224 50.6597 43.4283 50.6597 44.6399C51.1608 44.6399 51.6575 44.6399 52.1541 44.6399C53.1475 44.6399 54.1386 44.6332 55.1319 44.6422C56.1097 44.6512 56.6795 45.1457 56.6662 45.9549C56.6551 46.7371 56.1008 47.2024 55.1496 47.2069C53.6752 47.2136 52.2007 47.2091 50.622 47.2091C50.622 47.7891 50.5999 48.315 50.6287 48.8388C50.6664 49.5266 50.4447 50.0661 49.9436 50.5494C48.9192 51.5361 47.9148 52.5499 46.9436 53.5929C46.4381 54.1346 45.8816 54.3953 45.1521 54.3436C44.671 54.3099 44.1854 54.3369 43.6 54.3369C43.6 54.6066 43.6 54.8314 43.6 55.0562C43.6 56.3846 43.6089 57.7108 43.5956 59.0393C43.5867 59.8957 43.1012 60.4464 42.3761 60.4666C41.6245 60.4869 41.0835 59.9249 41.0724 59.046C41.0546 57.5085 41.0679 55.9688 41.0679 54.3841C39.915 54.3841 38.8086 54.3841 37.6201 54.3841C37.6201 55.517 37.6201 56.6454 37.6201 57.7715C37.6201 58.2436 37.6334 58.7133 37.6135 59.1854C37.5824 59.9271 37.0614 60.4554 36.3763 60.4666C35.6712 60.4779 35.108 59.9361 35.0947 59.1584C35.0703 57.8097 35.0858 56.461 35.0858 55.1124C35.0858 54.8808 35.0858 54.6493 35.0858 54.3796C33.9284 54.3796 32.8243 54.3796 31.6491 54.3796C31.6491 55.9148 31.6602 57.4299 31.6469 58.9426C31.6336 60.6644 31.1192 62.2266 30.0882 63.5978C28.8731 65.2185 27.2679 66.2052 25.2923 66.5739C25.1726 66.5963 25.0573 66.6525 24.9398 66.693C24.3034 66.693 23.6693 66.693 23.0351 66.693ZM21.1704 32.4726C23.8245 32.4726 26.4519 32.4726 29.0771 32.4726C29.0771 30.6339 29.0771 28.8447 29.0771 26.997C27.6758 26.997 26.3078 26.9812 24.9398 27.0037C24.3699 27.0127 23.9243 26.8261 23.5296 26.417C22.5097 25.3628 21.4631 24.3333 20.4476 23.2746C20.1483 22.9622 19.9244 22.8813 19.4809 23.0566C17.8025 23.7174 16.2282 23.4387 14.8779 22.2339C13.5609 21.0606 13.1041 19.5388 13.4877 17.817C14.0708 15.1961 16.696 13.6968 19.1971 14.4992C21.7026 15.3017 22.9886 18.0328 22.0086 20.5346C21.86 20.9122 21.8777 21.1347 22.1704 21.418C23.0706 22.2923 23.9353 23.2005 24.8244 24.0861C24.9664 24.2277 25.1593 24.4075 25.3322 24.412C26.5716 24.439 27.8111 24.4278 29.086 24.4278C29.0993 24.2659 29.1126 24.1625 29.1126 24.0614C29.1126 18.9229 29.1326 13.7844 29.1037 8.64599C29.0882 5.99135 27.1836 3.88067 24.5828 3.52103C22.3877 3.21757 19.9044 4.70336 19.3346 6.66569C19.3922 6.68817 19.4499 6.71739 19.5097 6.73537C19.6317 6.76908 19.7558 6.7983 19.8778 6.82752C21.7824 7.29731 23.4609 8.19644 24.8998 9.54961C25.7513 10.3498 25.8821 11.0759 25.3012 11.703C24.7313 12.3166 24.0262 12.2155 23.1593 11.4265C21.5119 9.92274 19.594 9.0416 17.3568 9.12027C10.9822 9.34505 6.98676 16.2795 9.8337 22.1395C10.4368 23.3825 10.2394 23.9602 9.00001 24.5222C7.66745 25.1246 6.51449 25.9742 5.56108 27.0914C1.11551 32.3085 2.83609 40.25 9.02884 43.1114C10.2483 43.6756 10.4501 44.2353 9.85144 45.4356C9.29048 46.5595 9.00223 47.7509 8.90245 49.0029C8.52996 53.685 12.3724 58.1963 16.9976 58.4818C19.5119 58.6369 21.605 57.6749 23.4121 55.9598C24.024 55.3776 24.7602 55.3641 25.2746 55.8856C25.8156 56.4341 25.7757 57.1848 25.1526 57.8165C24.1726 58.8122 23.0484 59.6057 21.7647 60.1362C20.9687 60.4666 20.1372 60.7094 19.3235 60.9904C19.9354 62.7077 21.8024 64.0428 23.7203 64.1238C26.7091 64.2496 29.0971 61.9187 29.1082 58.8167C29.1237 53.8064 29.1126 48.7961 29.1104 43.788C29.1104 43.6037 29.0882 43.4171 29.0727 43.1856C27.8953 43.1856 26.7579 43.1631 25.6227 43.2013C25.3455 43.2103 25.0151 43.3587 24.8134 43.5542C23.9376 44.3904 23.1194 45.2895 22.2414 46.1234C21.8888 46.4584 21.8733 46.7214 22.033 47.1664C22.656 48.904 22.3833 50.5179 21.1261 51.8711C19.8756 53.2197 18.3146 53.6468 16.5564 53.1231C14.0997 52.3903 12.7738 49.7469 13.6008 47.3035C14.4345 44.84 17.104 43.5857 19.5075 44.5657C19.9111 44.7298 20.135 44.6759 20.4255 44.3702C21.3766 43.3677 22.3855 42.4191 23.3189 41.4008C23.8533 40.8209 24.432 40.5714 25.2169 40.6051C26.4963 40.6568 27.7778 40.6186 29.0616 40.6186C29.0616 38.735 29.0616 36.93 29.0616 35.1362C28.9707 35.1183 28.9286 35.1048 28.8887 35.1048C26.5872 35.1025 24.2834 35.125 21.9842 35.0823C21.3966 35.071 21.1239 35.2374 20.8711 35.7903C19.8734 37.9775 17.3302 38.9417 15.144 38.0291C12.9578 37.1143 11.8359 34.608 12.603 32.349C13.3857 30.0405 15.7848 28.7637 18.0907 29.4448C19.6516 29.8944 20.6339 30.9711 21.1704 32.4726ZM31.6713 51.689C31.7711 51.7272 31.8088 51.7542 31.8465 51.7542C36.1745 51.7587 40.5026 51.7677 44.8306 51.7519C45.0457 51.7519 45.3029 51.5901 45.467 51.4282C46.2452 50.673 47.0101 49.9042 47.7463 49.1085C47.9259 48.9152 48.0722 48.5983 48.0722 48.3375C48.0877 38.6405 48.0877 28.9436 48.0744 19.2466C48.0744 19.0038 47.9458 18.7049 47.7795 18.525C47.0567 17.7451 46.3184 16.9763 45.5379 16.2593C45.2896 16.0322 44.8905 15.8592 44.5579 15.8569C40.4826 15.8299 36.4073 15.8389 32.332 15.8412C32.1258 15.8412 31.9196 15.8592 31.7001 15.8682C31.7001 17.1516 31.7001 18.3969 31.7001 19.6647C31.9839 19.6647 32.2145 19.6647 32.4473 19.6647C35.9106 19.6647 39.374 19.6624 42.8351 19.6669C43.8395 19.6692 44.3073 20.1435 44.3229 21.1527C44.3251 21.2381 44.3229 21.3235 44.3229 21.409C44.3229 23.4634 44.3229 25.5179 44.3229 27.5747C44.3229 28.6918 43.8883 29.2897 43.0701 29.301C42.2475 29.3122 41.7908 28.7098 41.7886 27.6084C41.7863 26.4732 41.7886 25.3403 41.7886 24.2052C41.7886 23.5691 41.7886 22.933 41.7886 22.2744C38.3807 22.2744 35.0393 22.2744 31.6868 22.2744C31.6868 29.9843 31.6868 37.656 31.6868 45.321C35.0725 45.321 38.4161 45.321 41.7886 45.321C41.7886 43.7318 41.7886 42.1921 41.7886 40.6546C41.7886 40.4186 41.7886 40.1825 41.7886 39.9488C41.7908 38.8743 42.2231 38.3034 43.0391 38.2966C43.8639 38.2876 44.3206 38.8631 44.3206 39.9218C44.3228 42.0415 44.3228 44.1611 44.3206 46.2786C44.3184 47.5171 43.9038 47.9397 42.6865 47.9397C39.2454 47.9419 35.8042 47.9397 32.3608 47.9397C32.1369 47.9397 31.913 47.9397 31.6669 47.9397C31.6713 49.2389 31.6713 50.4549 31.6713 51.689ZM15.9089 18.8375C15.9089 19.9546 16.7781 20.8335 17.869 20.8223C18.9532 20.811 19.8335 19.9007 19.8135 18.8083C19.7935 17.7338 18.9332 16.8662 17.8712 16.8549C16.7825 16.8415 15.9089 17.7248 15.9089 18.8375ZM15.9067 48.7601C15.9112 49.8885 16.7825 50.7696 17.8756 50.7539C18.9643 50.7382 19.8334 49.8211 19.8091 48.7129C19.7847 47.6407 18.8956 46.7753 17.8291 46.7888C16.7537 46.8 15.9045 47.6744 15.9067 48.7601ZM14.9067 33.8168C14.9112 34.9025 15.7648 35.7701 16.8313 35.7813C17.9155 35.7903 18.8246 34.88 18.8157 33.7921C18.8091 32.7266 17.9288 31.841 16.869 31.8297C15.7759 31.8163 14.9023 32.6996 14.9067 33.8168Z" fill="white"/>
<path d="M43.106 32.5206C43.7823 32.5498 44.3299 33.1365 44.3166 33.8198C44.3033 34.5256 43.6914 35.1123 42.9996 35.0808C42.3255 35.0494 41.7801 34.4627 41.7912 33.7771C41.8045 33.0623 42.4031 32.4914 43.106 32.5206Z" fill="white"/>
</svg>
