<svg width="64" height="65" viewBox="0 0 64 65" fill="none" xmlns="http://www.w3.org/2000/svg">
<g clip-path="url(#clip0_1731_714)">
<path d="M31.2515 0.355469C31.7505 0.355469 32.2495 0.355469 32.754 0.355469C32.9898 0.43224 33.2201 0.509012 33.4559 0.5803C35.2162 1.10125 36.4336 2.2254 37.0039 3.96373C37.1848 4.5121 37.4371 4.62725 37.969 4.62725C45.4049 4.6108 52.8407 4.61629 60.2821 4.61629C62.7497 4.61629 64 5.87753 64 8.35067C64 20.8096 64 33.2685 64 45.7219C64 45.9742 64.0055 46.2264 63.9781 46.4732C63.841 47.707 63.2323 48.6557 62.0752 49.1218C61.5159 49.3466 60.8579 49.4125 60.2492 49.4179C54.3542 49.4399 48.4593 49.4289 42.5643 49.4289C42.323 49.4289 42.0872 49.4289 41.7527 49.4289C41.9172 49.736 42.0159 49.9389 42.1256 50.1308C43.853 53.1249 45.5803 56.1135 47.3077 59.1076C47.4722 59.3927 47.6367 59.6889 47.7574 59.996C48.3715 61.5094 47.7135 63.2478 46.2658 63.9881C44.6536 64.8106 42.8878 64.2403 41.9008 62.5404C39.8115 58.9376 37.7387 55.3293 35.6604 51.7266C35.5562 51.5401 35.441 51.3646 35.3313 51.1837C35.2875 51.2001 35.2491 51.2166 35.2052 51.233C35.2052 51.4579 35.2052 51.6827 35.2052 51.9075C35.2052 54.8029 35.2052 57.6983 35.2052 60.5937C35.2052 60.9282 35.1833 61.2627 35.1449 61.5917C34.9255 63.4232 33.1324 64.679 31.3392 64.2787C29.738 63.9223 28.8058 62.661 28.7948 60.824C28.7838 57.8244 28.7948 54.8248 28.7893 51.8253C28.7893 51.6224 28.7674 51.4195 28.7564 51.2166C26.8426 54.3149 25.0549 57.4186 23.2618 60.5169C22.7737 61.3614 22.3131 62.2333 21.7592 63.0339C20.7886 64.4432 18.8584 64.7722 17.4381 63.8236C15.963 62.842 15.5901 61.0324 16.5497 59.3598C18.31 56.289 20.0867 53.2346 21.8579 50.1692C21.9786 49.9608 22.0828 49.7415 22.2418 49.4344C21.8963 49.4344 21.6496 49.4344 21.4083 49.4344C15.4914 49.4344 9.5745 49.4289 3.65761 49.4399C2.39637 49.4399 1.30512 49.1163 0.570302 48.0251C0.334504 47.6632 0.186445 47.2464 0 46.8571C0 33.6469 0 20.4422 0 7.232C0.636107 5.24143 2.0509 4.53403 4.06341 4.59984C6.49816 4.67661 8.93839 4.6108 11.3731 4.62725C11.746 4.62725 11.9544 4.49016 12.1957 4.21049C13.3199 2.90538 14.4769 1.63865 15.623 0.355469C15.8752 0.355469 16.122 0.355469 16.3743 0.355469C17.5204 1.63317 18.6555 2.92183 19.818 4.18308C20.0045 4.38597 20.3061 4.58887 20.5528 4.59435C22.4666 4.62725 24.3804 4.59984 26.2942 4.62177C26.6891 4.62725 26.8262 4.49016 26.9303 4.12276C27.1826 3.2015 27.709 2.43927 28.3945 1.77574C29.2006 1.00254 30.2151 0.657071 31.2515 0.355469ZM10.3422 36.3174C8.98226 37.6774 7.65521 38.9935 6.34462 40.326C5.93334 40.7428 5.50013 41.0389 4.90789 40.7811C4.34856 40.5399 4.24985 40.0354 4.25533 39.4815C4.26082 35.8129 4.24437 32.1498 4.28275 28.4813C4.28824 28.0261 4.49113 27.4887 4.77628 27.1323C6.24591 25.2952 7.78134 23.5076 9.26742 21.6815C9.46483 21.4347 9.60192 21.0564 9.60192 20.7383C9.62385 17.6345 9.60192 14.5308 9.62934 11.427C9.63482 10.6648 9.71708 9.8861 9.8761 9.14032C10.0461 8.3397 10.3422 7.5665 10.5999 6.74395C8.30777 6.74395 6.03753 6.74395 3.76729 6.74395C2.46217 6.74395 2.13863 7.06201 2.13863 8.36164C2.13863 20.7986 2.13863 33.2356 2.13863 45.6726C2.13863 46.9832 2.44024 47.2848 3.7618 47.2848C22.5928 47.2848 41.4237 47.2848 60.2601 47.2848C61.5817 47.2848 61.8833 46.9832 61.8833 45.6726C61.8833 33.2356 61.8833 20.7986 61.8833 8.36164C61.8833 7.06201 61.5653 6.74395 60.2547 6.74395C47.527 6.74395 34.7994 6.74395 22.0718 6.74395C21.8525 6.74395 21.6386 6.76589 21.3205 6.77686C22.5653 9.04161 22.4118 11.4325 22.4063 13.8014C22.4008 16.0936 22.3899 18.3858 22.4228 20.678C22.4282 21.0344 22.5708 21.4567 22.7956 21.7308C24.2762 23.5624 25.8117 25.3446 27.2868 27.1816C27.55 27.5106 27.7364 27.9987 27.7419 28.4209C27.7748 32.1279 27.7584 35.8349 27.7639 39.5473C27.7639 40.0847 27.6432 40.5563 27.1113 40.7866C26.552 41.0279 26.1188 40.7811 25.7185 40.3754C24.5066 39.1415 23.2782 37.9241 22.0499 36.7068C21.9292 36.5861 21.7867 36.4819 21.6221 36.3394C21.1615 37.2551 20.7393 38.1106 20.3006 38.9551C20.1306 39.2786 19.8125 39.5638 19.7412 39.8983C19.308 42.0863 18.0797 43.8739 16.9171 45.6945C16.451 46.4184 15.5572 46.4348 15.113 45.6945C14.263 44.2688 13.3034 42.8649 12.7386 41.3185C12.1628 39.7283 11.2964 38.308 10.6274 36.7781C10.5561 36.6355 10.4574 36.5094 10.3422 36.3174ZM11.768 28.0645C14.625 28.0645 17.4107 28.0645 20.2183 28.0645C20.2183 22.7344 20.2183 17.4426 20.2183 12.1399C17.3778 12.1399 14.5811 12.1399 11.768 12.1399C11.768 17.4645 11.768 22.7453 11.768 28.0645ZM20.1525 9.94094C19.5548 7.10588 17.8658 4.98918 15.9959 2.91086C14.1314 5.02756 12.4315 7.12781 11.8557 9.94094C14.6469 9.94094 17.3668 9.94094 20.1525 9.94094ZM36.8887 49.4289C36.9271 49.5824 36.9271 49.6263 36.949 49.6592C39.2357 53.6294 41.5169 57.5941 43.8091 61.5588C44.182 62.2059 44.7962 62.3813 45.3391 62.0578C45.871 61.7452 46.0026 61.1256 45.6297 60.473C43.5788 56.8977 41.5224 53.3278 39.4496 49.7689C39.3618 49.6153 39.148 49.4508 38.9835 49.4454C38.3035 49.407 37.618 49.4289 36.8887 49.4289ZM27.1771 49.4289C26.4807 49.4289 25.9213 49.4563 25.362 49.4179C24.9069 49.385 24.6546 49.5441 24.4298 49.9444C22.4721 53.3772 20.487 56.799 18.5074 60.2208C18.4142 60.3798 18.321 60.5443 18.2497 60.7198C18.0358 61.2627 18.2113 61.822 18.6884 62.0633C19.1984 62.3265 19.659 62.2278 20.0264 61.7836C20.158 61.6246 20.2622 61.4436 20.3664 61.2627C22.5215 57.5338 24.6711 53.7994 26.8262 50.0705C26.9249 49.9005 27.0181 49.7195 27.1771 49.4289ZM9.61289 24.7414C9.46483 24.8565 9.39354 24.8894 9.34967 24.9498C8.42841 26.052 7.49619 27.1432 6.59686 28.2619C6.45977 28.4319 6.40494 28.7171 6.39945 28.9474C6.38848 31.5466 6.38848 34.1514 6.39397 36.7506C6.39397 36.8658 6.41042 36.9755 6.42687 37.2551C7.4249 36.2516 8.29681 35.3413 9.2071 34.4639C9.51967 34.1623 9.62934 33.8553 9.62385 33.4275C9.6074 30.7625 9.61289 28.0974 9.61289 25.4378C9.61289 25.2349 9.61289 25.0375 9.61289 24.7414ZM25.5594 37.2661C25.5923 37.0029 25.6088 36.9261 25.6088 36.8493C25.6088 34.1843 25.6197 31.5192 25.5978 28.8596C25.5978 28.6183 25.4662 28.3387 25.3127 28.1413C24.4901 27.1213 23.6401 26.1233 22.8011 25.1198C22.7024 25.0046 22.5818 24.9114 22.3899 24.7359C22.3899 27.8287 22.3899 30.7954 22.3953 33.7675C22.3953 33.9156 22.4611 34.102 22.5653 34.2062C23.5195 35.1933 24.4846 36.1694 25.5594 37.2661ZM30.9334 49.4618C30.9334 49.7579 30.9334 49.9882 30.9334 50.2131C30.9334 53.6678 30.9334 57.1225 30.9334 60.5772C30.9334 61.6904 31.2954 62.2278 32.0247 62.2114C32.7376 62.1949 33.0721 61.6794 33.0721 60.5992C33.0721 57.1225 33.0721 53.6459 33.0721 50.1692C33.0721 49.9444 33.0721 49.7195 33.0721 49.4618C32.3372 49.4618 31.6792 49.4618 30.9334 49.4618ZM20.2128 33.3946C20.2128 32.3143 20.2128 31.2889 20.2128 30.2799C17.3668 30.2799 14.5701 30.2799 11.7789 30.2799C11.7789 31.3437 11.7789 32.3527 11.7789 33.3946C14.5976 33.3946 17.3778 33.3946 20.2128 33.3946ZM12.4205 35.6045C12.7605 36.2845 13.0512 36.8987 13.3802 37.4909C13.446 37.6116 13.6873 37.6938 13.8463 37.6938C15.283 37.7103 16.7197 37.7103 18.1565 37.6938C18.3155 37.6938 18.5513 37.6116 18.6226 37.4909C18.9571 36.9042 19.2477 36.29 19.5877 35.61C17.1584 35.6046 14.8443 35.6045 12.4205 35.6045ZM34.9146 4.58338C34.5472 3.33859 33.2969 2.47217 31.9589 2.48862C30.6318 2.50507 29.4035 3.39891 29.0909 4.58338C31.0266 4.58338 32.9459 4.58338 34.9146 4.58338ZM17.6355 39.8818C16.4894 39.8818 15.5024 39.8818 14.3618 39.8818C14.9046 41.0224 15.4037 42.0588 15.9027 43.1007C15.9849 43.0898 16.0617 43.0788 16.1439 43.0678C16.6265 42.0259 17.1146 40.9895 17.6355 39.8818Z" fill="white"/>
<path d="M51.2067 17.4259C51.2067 15.7589 51.2067 14.2015 51.2067 12.6387C51.2067 11.2678 51.5686 10.9387 52.9395 11.0649C56.7945 11.4213 59.7393 14.6347 59.7393 18.4898C59.7393 22.4051 56.7287 25.6131 52.7476 25.9366C49.0297 26.2382 45.542 23.5183 44.9224 19.7565C44.6482 18.0949 44.6372 17.3163 46.8801 17.4095C48.2894 17.4753 49.7041 17.4259 51.2067 17.4259ZM53.3453 13.368C53.3453 13.5983 53.3453 13.8232 53.3453 14.048C53.3453 15.4025 53.3508 16.7514 53.3453 18.1059C53.3398 19.1862 52.9669 19.5591 51.8757 19.5646C51.0422 19.5701 50.2086 19.5646 49.3806 19.5646C48.6348 19.5646 47.8945 19.5646 47.1433 19.5646C47.3517 21.8458 49.8687 23.8857 52.3144 23.8254C55.1988 23.7541 57.5458 21.4564 57.5952 18.6433C57.6335 16.0386 55.643 13.5325 53.3453 13.368Z" fill="white"/>
<path d="M38.3638 23.8364C39.9815 23.8364 41.6047 23.8364 43.2223 23.8364C43.4691 23.8364 43.7323 23.82 43.9681 23.8748C44.4397 23.9845 44.7249 24.2971 44.7633 24.7961C44.8016 25.2896 44.5987 25.6625 44.1436 25.838C43.8804 25.9367 43.5733 25.9586 43.2881 25.9586C39.6634 25.9641 36.0442 25.9641 32.4195 25.9641C31.2844 25.9641 30.9279 25.6077 30.9279 24.4616C30.9225 20.8369 30.9225 17.2176 30.9279 13.5929C30.9279 13.3462 30.9334 13.0884 30.9992 12.8526C31.1418 12.3536 31.5092 12.0959 32.0247 12.1068C32.5127 12.1178 32.8637 12.381 32.9843 12.8526C33.0556 13.1268 33.0611 13.4284 33.0611 13.719C33.0666 16.7789 33.0666 19.8388 33.0666 22.8987C33.0666 23.1455 33.0666 23.3923 33.0666 23.6993C34.3498 23.5677 35.4575 23.1071 36.439 22.4107C39.5647 20.2008 41.4072 17.2121 41.7472 13.3626C41.8185 12.5455 42.2408 12.0575 42.8988 12.1014C43.5678 12.1452 43.9407 12.6717 43.8639 13.5052C43.502 17.4425 41.8459 20.7107 38.808 23.2606C38.638 23.4032 38.468 23.5513 38.298 23.6939C38.3199 23.7432 38.3419 23.7926 38.3638 23.8364Z" fill="white"/>
<path d="M44.8134 30.225C48.9152 30.225 53.017 30.225 57.1242 30.225C57.3545 30.225 57.5903 30.2085 57.8097 30.2634C58.3087 30.3785 58.6103 30.6966 58.6432 31.223C58.6761 31.7769 58.4019 32.1388 57.881 32.2978C57.6671 32.3636 57.4258 32.3581 57.201 32.3581C48.9316 32.3581 40.6622 32.3581 32.3929 32.3581C32.1845 32.3581 31.9706 32.3636 31.7732 32.3142C31.2468 32.1772 30.9561 31.8207 30.9671 31.2724C30.9781 30.724 31.2906 30.3785 31.8225 30.2688C32.0419 30.2195 32.2777 30.2359 32.508 30.2359C36.6043 30.225 40.7116 30.225 44.8134 30.225Z" fill="white"/>
<path d="M44.7969 36.6136C40.6951 36.6136 36.5933 36.6136 32.486 36.6136C32.2557 36.6136 32.0199 36.6301 31.8005 36.5807C31.3015 36.471 30.9944 36.153 30.967 35.6265C30.9396 35.1111 31.1699 34.7327 31.6689 34.5792C31.9212 34.5024 32.2009 34.4914 32.4696 34.4914C40.6951 34.4859 48.9206 34.4859 57.1516 34.4914C57.36 34.4914 57.5738 34.4859 57.7712 34.5298C58.347 34.645 58.6815 35.0946 58.6377 35.6485C58.5993 36.1749 58.2264 36.5478 57.6616 36.6081C57.4532 36.6301 57.2448 36.6191 57.0364 36.6191C52.9566 36.6136 48.8767 36.6136 44.7969 36.6136Z" fill="white"/>
<path d="M44.7574 40.8798C40.694 40.8798 36.6361 40.8798 32.5727 40.8798C32.3423 40.8798 32.112 40.8908 31.8872 40.8579C31.3443 40.7811 31.0153 40.4686 30.9714 39.9202C30.9276 39.3444 31.1963 38.9605 31.7611 38.818C31.9804 38.7631 32.2107 38.7522 32.441 38.7522C40.6885 38.7467 48.9359 38.7467 57.1834 38.7522C57.4521 38.7522 57.7318 38.7741 57.9785 38.8618C58.4666 39.0373 58.6859 39.4267 58.6311 39.9421C58.5817 40.4357 58.2911 40.7427 57.814 40.8414C57.5727 40.8908 57.315 40.8798 57.0682 40.8798C52.9664 40.8798 48.8647 40.8798 44.7574 40.8798Z" fill="white"/>
<path d="M16.019 20.6072C15.6461 20.6072 15.2677 20.6291 14.8948 20.6017C14.319 20.5578 13.9077 20.1356 13.8803 19.6036C13.8529 19.0772 14.2258 18.5672 14.7961 18.5234C15.5803 18.463 16.3754 18.4685 17.165 18.5179C17.7408 18.5563 18.1247 19.0443 18.1192 19.5707C18.1137 20.1246 17.686 20.5633 17.0773 20.6072C16.7264 20.6291 16.3754 20.6072 16.019 20.6072Z" fill="white"/>
<path d="M16.0059 14.2343C16.3788 14.2343 16.7571 14.2069 17.13 14.2398C17.7003 14.2892 18.1061 14.7334 18.1226 15.2598C18.1335 15.7862 17.7442 16.2907 17.1794 16.3236C16.3897 16.373 15.5946 16.373 14.8104 16.3236C14.2511 16.2852 13.8618 15.7807 13.8837 15.2488C13.9056 14.7169 14.3169 14.2837 14.8872 14.2398C15.2546 14.2124 15.633 14.2343 16.0059 14.2343Z" fill="white"/>
</g>
<defs>
<clipPath id="clip0_1731_714">
<rect width="64" height="64" fill="white" transform="translate(0 0.355469)"/>
</clipPath>
</defs>
</svg>
