<svg width="11" height="9" viewBox="0 0 11 9" fill="none" xmlns="http://www.w3.org/2000/svg">
<path d="M10.6667 7.00371C10.6667 7.23293 10.5981 7.4507 10.4951 7.64554L7.13025 3.87478L10.4607 0.952148C10.5866 1.15845 10.6667 1.39914 10.6667 1.66275V7.00371V7.00371Z" fill="white"/>
<path d="M5.33335 4.56222L9.96854 0.504927C9.77398 0.401776 9.56797 0.333008 9.33907 0.333008H1.33907C1.11017 0.333008 0.892714 0.401776 0.709595 0.504927L5.33335 4.56222Z" fill="white"/>
<path d="M6.62666 4.31055L5.55084 5.25037C5.49361 5.30768 5.4135 5.3306 5.33338 5.3306C5.25327 5.3306 5.17315 5.30768 5.11593 5.25037L4.04011 4.31055L0.629517 8.12715C0.835525 8.25323 1.07587 8.33346 1.32766 8.33346H9.32766C9.5909 8.33346 9.83124 8.25323 10.0258 8.12715L6.62666 4.31055Z" fill="white"/>
<path d="M0.206009 0.952148C0.0801145 1.15845 0 1.39914 0 1.66275V7.00371C0 7.23293 0.0686696 7.4507 0.171674 7.64554L3.53648 3.87478L0.206009 0.952148Z" fill="white"/>
</svg>
