<svg id="Layer_1" data-name="Layer 1" xmlns="http://www.w3.org/2000/svg" viewBox="0 0 36 36"><defs><style>.cls-1{fill:#76cedf;}.cls-2{fill:#9ddae7;}.cls-3{fill:#addfe9;}.cls-4{fill:#abdfeb;}.cls-5{fill:#a3dce7;}.cls-6{fill:#09abc6;}.cls-7{fill:#3ac2d8;}.cls-8{fill:#2cb3c6;}</style></defs><path class="cls-1" d="M30.79,24.37a8.84,8.84,0,0,1-.58,3.06,10.7,10.7,0,0,1-2,3.26,14.17,14.17,0,0,1-3.91,3.07,17.27,17.27,0,0,1-3.77,1.51,18,18,0,0,1-3.16.6,11.91,11.91,0,0,1-1.19.09c-.15,0,0,0-.16,0s.18,0,.16,0l-1.14,0c-.29,0,.28,0,0,0h-.53s0,0,0,0L14,36c-.13-.1.15,0,0,0a14.33,14.33,0,0,1-1.59-.18,9.89,9.89,0,0,1-2.34-.64,7.12,7.12,0,0,1-2.19-1.4A8.1,8.1,0,0,1,5.7,29.65,14.81,14.81,0,0,1,5.4,28a11.66,11.66,0,0,1-.13-1.45c0-.14,0-.27,0-.4V24.89a4.26,4.26,0,0,0,0-.8.5.5,0,0,0,0-.32v-.84a1,1,0,0,0,0-.6c0-.61.1-1.21.16-1.81a15.47,15.47,0,0,1,.36-1.92A9.33,9.33,0,0,1,6.32,17a.25.25,0,0,0,0-.25,9.77,9.77,0,0,1-.87-2.78c-.09-.52-.13-1-.18-1.58a1.46,1.46,0,0,1,0-.36,1.54,1.54,0,0,0,0-.74V10.2c.06-.35,0-.06,0-.4,0-.08,0,.47,0,.4V9.32h0v0c0-.09,0-.77,0-.86s0,.55,0,.54v-.1a1.56,1.56,0,0,0,0-.57V8.16c.06-.11,0,.37,0,.26,0-.52.11-1.63.21-2.15A13.14,13.14,0,0,1,5.91,4.5,6.46,6.46,0,0,1,7.42,2a6.5,6.5,0,0,1,3-1.63,13.88,13.88,0,0,1,1.8-.33c.34,0,.67,0,1,0a1.76,1.76,0,0,0,.23,0,2.37,2.37,0,0,0,.65,0l.56,0h.14c.15,0-.16.06,0,0l.47,0c.06.08-.08,0,0,0l.42,0c.07,0-.08.07,0,0L16,.14c.05,0-.05,0,0,0l.25,0c.06,0-.09.06,0,0l.24,0c0,.08-.05,0,0,0a13.41,13.41,0,0,1,2,.42,13.88,13.88,0,0,1,2.21.79,13.79,13.79,0,0,1,3.26,2,10.37,10.37,0,0,1,1.89,2.08,8.43,8.43,0,0,1,1.36,3.22,7.63,7.63,0,0,1,.09.95c0,.1-.11-.08,0,0s0,.59,0,.77-.05-.05,0,0a8.58,8.58,0,0,1-.49,1.87A17.16,17.16,0,0,1,26.05,14c-.19.39-.39.77-.6,1.15-.08.15-.05.22.08.31a12.79,12.79,0,0,1,2.37,2,10.36,10.36,0,0,1,2.59,4.49,8.78,8.78,0,0,1,.25,1.34"/><path class="cls-1" d="M11.11,20c.12.12.28.07.42.09h.07c0,.05.07.05.11,0h.06l0,0h.07a0,0,0,0,0,.07,0h.21c.07,0,.13.09.22,0l.21,0a4,4,0,0,0,.49,0h.13l0,0h.11a2.73,2.73,0,0,0,.7,0l.42,0a1.17,1.17,0,0,0,.46,0l.55,0a16.56,16.56,0,0,0,2.22-.36,15.62,15.62,0,0,0,3.51-1.25,13,13,0,0,0,2.55-1.66,10.46,10.46,0,0,0,1.45-1.45c.08-.1.12-.16,0-.25a17.14,17.14,0,0,0-1.73-1,17.82,17.82,0,0,0-3.06-1.12,18.73,18.73,0,0,0-4-.64,1,1,0,0,0-.64,0,7.57,7.57,0,0,0-1.26,0,.63.63,0,0,0-.43,0,.33.33,0,0,1-.22,0,9,9,0,0,0-1.55.16,10.9,10.9,0,0,0-1.94.52A7.14,7.14,0,0,0,7.58,15a6.91,6.91,0,0,0-1.1,1.62c0,.08-.1.15,0,.26a6.16,6.16,0,0,0,.84,1.18A5.87,5.87,0,0,0,9.53,19.6,7.12,7.12,0,0,0,11.11,20Z"/><path class="cls-2" d="M5.21,23.77a.5.5,0,0,1,0,.32,4.26,4.26,0,0,1,0,.8Z"/><path class="cls-3" d="M14.76,0h0Z"/><path class="cls-4" d="M5.21,9.28v0h0Z"/><path class="cls-5" d="M14.48,36s0,0,0,0Z"/><path class="cls-6" d="M11.6,20.14h-.07a.57.57,0,0,0-.42-.09,7.12,7.12,0,0,1-1.58-.44,5.87,5.87,0,0,1-2.25-1.52,6.16,6.16,0,0,1-.84-1.18c-.06-.11,0-.18,0-.26A6.91,6.91,0,0,1,7.58,15a7.14,7.14,0,0,1,2.77-1.83,10.9,10.9,0,0,1,1.94-.52,9,9,0,0,1,1.55-.16.33.33,0,0,0,.22,0c.14.06.28,0,.43,0a7.57,7.57,0,0,1,1.26,0,2.72,2.72,0,0,0,.64,0,18.73,18.73,0,0,1,4,.64,17.82,17.82,0,0,1,3.06,1.12,17.14,17.14,0,0,1,1.73,1c.15.09.11.15,0,.25a10.46,10.46,0,0,1-1.45,1.45,13,13,0,0,1-2.55,1.66,15.62,15.62,0,0,1-3.51,1.25,16.56,16.56,0,0,1-2.22.36l-.55,0a1.19,1.19,0,0,0-.46,0l-.42,0a1.65,1.65,0,0,0-.7,0h-.11l0,0h-.13a.75.75,0,0,0-.49,0l-.21,0a.29.29,0,0,0-.22,0H12s0,0-.07,0h-.07l0,0h-.06S11.64,20.09,11.6,20.14Z"/><path class="cls-7" d="M16.39,12.51a2.72,2.72,0,0,1-.64,0A1,1,0,0,1,16.39,12.51Z"/><path class="cls-8" d="M13.36,20.28a1.65,1.65,0,0,1,.7,0A2.73,2.73,0,0,1,13.36,20.28Z"/><path class="cls-8" d="M11.11,20a.57.57,0,0,1,.42.09C11.39,20.11,11.23,20.16,11.11,20Z"/><path class="cls-8" d="M12.59,20.25a.75.75,0,0,1,.49,0A4,4,0,0,1,12.59,20.25Z"/><path class="cls-7" d="M14.49,12.48c-.15,0-.29.06-.43,0A.63.63,0,0,1,14.49,12.48Z"/><path class="cls-8" d="M14.48,20.25a1.19,1.19,0,0,1,.46,0A1.17,1.17,0,0,1,14.48,20.25Z"/><path class="cls-8" d="M12.16,20.19a.29.29,0,0,1,.22,0C12.29,20.28,12.23,20.23,12.16,20.19Z"/><path class="cls-8" d="M11.6,20.14c0-.05.07,0,.11,0S11.63,20.19,11.6,20.14Z"/><path class="cls-8" d="M11.88,20.18s0,0,.07,0A0,0,0,0,1,11.88,20.18Z"/><path class="cls-8" d="M11.77,20.15l0,0Z"/><path class="cls-8" d="M13.21,20.26l0,0Z"/></svg>