<svg id="Layer_1" data-name="Layer 1" xmlns="http://www.w3.org/2000/svg" viewBox="0 0 36 36"><defs><style>.cls-1{fill:#5ec9f4;}.cls-2{fill:#797979;}.cls-3{fill:#79787a;}.cls-4{fill:#7a7979;}.cls-5{fill:#55c9f4;}.cls-6{fill:#7b7a7b;}.cls-7{fill:#085b9e;}.cls-8{fill:#7a7a7a;}.cls-9{fill:#4bb7e8;}.cls-10{fill:#0d5296;}</style></defs><path class="cls-1" d="M8.11,13l-.28.3-6.09,6.1c-.19.2-.3.18-.47,0Q.7,18.74.1,18.17C0,18,0,18,.1,17.83q2.38-2.37,4.76-4.76A.33.33,0,0,1,5.11,13Z"/><path class="cls-2" d="M31.07,19.06c-.47,0-.93,0-1.4,0-.22,0-.28.08-.24.29a1.4,1.4,0,0,0,2.46.67c.07-.08.09-.24.22-.21a1.15,1.15,0,0,1,.46.22c.11.09,0,.19-.08.27a2,2,0,0,1-2.05.83,1.86,1.86,0,0,1-1.58-1.31,2.49,2.49,0,0,1,.07-1.93,2,2,0,0,1,3.81.94c0,.19-.07.24-.25.24Zm-.4-.55h1c.33,0,.36-.05.27-.35a1.22,1.22,0,0,0-1.36-.81,1.31,1.31,0,0,0-1.1,1c0,.17.05.16.15.16Z"/><path class="cls-3" d="M12.52,18.1c0-.9,0-1.79,0-2.69,0-.21.06-.27.27-.27,1,0,1.9,0,2.85,0,.3,0,.26.15.26.34s0,.35-.26.34c-.71,0-1.43,0-2.14,0-.24,0-.32.07-.31.31,0,.47,0,.93,0,1.39,0,.24.06.32.3.32.63,0,1.26,0,1.88,0,.3,0,.27.15.27.34s0,.35-.27.34c-.62,0-1.25,0-1.88,0-.24,0-.31.08-.3.31,0,.66,0,1.32,0,2,0,.3-.15.27-.34.26s-.35.05-.35-.26C12.54,19.89,12.52,19,12.52,18.1Z"/><path class="cls-4" d="M21.36,20.46a1.76,1.76,0,0,1-1.75.66A1.35,1.35,0,0,1,18.48,20a14.71,14.71,0,0,1-.05-1.88c0-.33,0-.67,0-1s.05-.24.24-.24c.47,0,.47,0,.47.45,0,.68,0,1.36,0,2s.32,1.19.95,1.2a1.21,1.21,0,0,0,1.24-1.19c0-.73,0-1.47,0-2.2,0-.33.17-.29.38-.3s.35,0,.35.29c0,1.2,0,2.4,0,3.6,0,.2,0,.36-.28.32s-.46.05-.39-.31A1.66,1.66,0,0,0,21.36,20.46Z"/><path class="cls-5" d="M3.78,18.84l1.08-1.11a.33.33,0,0,1,.25-.12H8c0,.17-.12.22-.19.3-.72.73-1.45,1.45-2.17,2.17-.09.09-.21.16-.22.31H5.33c0-.09-.06-.15-.12-.21L4,19C4,18.91,3.89,18.83,3.78,18.84Z"/><path class="cls-6" d="M25.29,20.41c.09.7,0,.81-.69.75a1,1,0,0,1-1-1c0-.78,0-1.55,0-2.33,0-.3-.08-.41-.37-.37s-.39,0-.38-.29.09-.4.36-.35.43-.07.38-.38a2.54,2.54,0,0,1,0-.39c0-.13-.07-.32.08-.38a1.62,1.62,0,0,1,.54,0c.1,0,.08.11.08.18,0,.26,0,.52,0,.78s0,.21.2.21.41,0,.62,0,.21.17.21.32.08.36-.21.33a0,0,0,0,0,0,0c-.24,0-.56-.11-.72,0s0,.49-.06.75c0,.48,0,1,0,1.46C24.28,20.45,24.57,20.65,25.29,20.41Z"/><path class="cls-7" d="M5.33,20.38h.11L8.08,23a.61.61,0,0,1-.38.06c-.82,0-1.63,0-2.45,0a.54.54,0,0,1-.43-.17c-.31-.34-.64-.66-1-1l.1-.08c.22,0,.38-.11.57-.17.55-.17.55-.18.23-.62Z"/><path class="cls-8" d="M28.25,20.42c.08.7,0,.82-.72.73a1.06,1.06,0,0,1-1-1.12c0-.74,0-1.48,0-2.23,0-.27-.08-.35-.35-.33s-.48-.16-.38-.53c0-.15.14-.1.23-.1.49,0,.49,0,.49-.53a1.4,1.4,0,0,0,0-.29c-.05-.3.08-.36.37-.37s.36.11.34.37-.08.58,0,.75.49.07.74.06.24.16.24.33,0,.34-.25.32-.57-.11-.72,0-.05.49-.05.75c0,.47,0,.95,0,1.42C27.24,20.44,27.52,20.64,28.25,20.42Z"/><path class="cls-9" d="M5.33,20.38,4.75,21l-.8.79-.1.08L2.38,20.45c-.11-.1-.07-.17,0-.26l1.38-1.35c.11,0,.17.07.24.14l1.19,1.19C5.27,20.23,5.34,20.29,5.33,20.38Z"/><path class="cls-4" d="M34.23,17.51a1.41,1.41,0,0,1,1.45-.78c.23,0,.42.56.26.74s-.12,0-.17,0a1.19,1.19,0,0,0-1.51,1.22c0,.69,0,1.38,0,2.07,0,.31-.15.29-.35.28s-.37.05-.36-.27c0-1.21,0-2.42,0-3.63,0-.27.1-.31.33-.31s.39,0,.34.31A2.21,2.21,0,0,0,34.23,17.51Z"/><path class="cls-6" d="M16.73,18.07c0-.89,0-1.77,0-2.65,0-.33.17-.27.36-.28s.36,0,.35.29c0,1.78,0,3.56,0,5.33,0,.36-.21.26-.39.28s-.33,0-.32-.29C16.75,19.86,16.73,19,16.73,18.07Z"/><path class="cls-10" d="M4,21.81l.8-.79c.32.44.32.45-.23.62C4.33,21.7,4.17,21.84,4,21.81Z"/></svg>