<svg id="Layer_1" data-name="Layer 1" xmlns="http://www.w3.org/2000/svg" viewBox="0 0 36 36"><defs><style>.cls-1{fill:#3276bc;}</style></defs><path class="cls-1" d="M.23,1H35.77c-.29,1.56-.56,3-.84,4.51L31.54,23.27q-.28,1.55-.51,3.09a3,3,0,0,1-1.6,2.36c-3.69,2-7.33,4.15-11,6.2a1.23,1.23,0,0,1-1-.06c-2.9-1.63-5.77-3.29-8.65-4.95-1-.54-1.93-1.07-2.86-1.66a1.51,1.51,0,0,1-.67-.87Q2.78,14.66.36,1.93C.31,1.67.28,1.39.23,1ZM17.67,5.15A10.4,10.4,0,1,0,28,15.74,10.43,10.43,0,0,0,17.67,5.15Z"/><path class="cls-1" d="M17.58,6.7a8.87,8.87,0,0,1,8.87,8.86,8.89,8.89,0,1,1-17.77,0A8.83,8.83,0,0,1,17.58,6.7Zm-3.23,8.05v-1c0-1,0-2.1,0-3.14,0-.54-.11-1.05-.75-1.06s-.82.52-.81,1.1v9.59c0,.21,0,.48.05.63s.48.61.69.58a1.1,1.1,0,0,0,.76-.61,3,3,0,0,0,.06-1.09V16.39h6.42v1.36a26.18,26.18,0,0,0,.05,2.94c0,.3.49.56.76.84.24-.27.49-.54.71-.82.06-.08,0-.24,0-.37q0-4.79,0-9.59a1.28,1.28,0,0,0-.06-.63c-.16-.22-.43-.5-.66-.51a.94.94,0,0,0-.69.45,1.88,1.88,0,0,0-.11.9c0,1.25,0,2.5,0,3.79Z"/></svg>