<svg id="Layer_1" data-name="Layer 1" xmlns="http://www.w3.org/2000/svg" xmlns:xlink="http://www.w3.org/1999/xlink" viewBox="0 0 36 36"><defs><style>.cls-1,.cls-4{fill:#fff;}.cls-1,.cls-3{fill-rule:evenodd;}.cls-2{mask:url(#mask);}.cls-3{fill:#db1e35;}</style><mask id="mask" x="0.3" y="0" width="36" height="36" maskUnits="userSpaceOnUse"><g id="mask-2"><polygon id="path-1" class="cls-1" points="0.3 0 36.3 0 36.3 36 0.3 36 0.3 0"/></g></mask></defs><g id="Page-1"><g id="Group-12"><g id="Group-3"><g class="cls-2"><g id="Fill-1"><path class="cls-3" d="M36.3,18a18,18,0,1,1-18-18,18,18,0,0,1,18,18"/></g></g></g><g id="Stroke-4"><path class="cls-4" d="M18.3,13.93l-.15,0-4.36-1.79a.43.43,0,0,1-.25-.38.4.4,0,0,1,.26-.37l4.35-1.75a.39.39,0,0,1,.3,0l4.36,1.75a.4.4,0,0,1,.26.37.43.43,0,0,1-.25.38L18.46,13.9A.41.41,0,0,1,18.3,13.93ZM15,11.74l3.29,1.35,3.29-1.35L18.3,10.42Z"/></g><g id="Stroke-6"><path class="cls-4" d="M18.3,18.88a.4.4,0,0,1-.15,0l-7-2.89a.4.4,0,0,1-.25-.37.39.39,0,0,1,.25-.37l4.3-1.73a.41.41,0,0,1,.52.22.4.4,0,0,1-.22.53l-3.38,1.35,5.94,2.46,5.95-2.46-3.38-1.35a.4.4,0,0,1-.22-.53.4.4,0,0,1,.52-.22l4.3,1.73a.39.39,0,0,1,.25.37.4.4,0,0,1-.25.37l-7,2.89A.41.41,0,0,1,18.3,18.88Z"/></g><g id="Stroke-8"><path class="cls-4" d="M18.3,24.13a.4.4,0,0,1-.15,0L8.15,20a.42.42,0,0,1-.25-.38.4.4,0,0,1,.25-.37l4.5-1.81a.41.41,0,0,1,.53.23.4.4,0,0,1-.23.52L9.37,19.61l8.93,3.68,8.94-3.68-3.58-1.44a.4.4,0,0,1-.23-.52.41.41,0,0,1,.53-.23l4.5,1.81a.4.4,0,0,1,.25.37.42.42,0,0,1-.25.38l-10,4.12A.41.41,0,0,1,18.3,24.13Z"/></g><g id="Stroke-10"><path class="cls-4" d="M18.3,27.77a.4.4,0,0,1-.15,0l-10-4.12a.4.4,0,1,1,.31-.74l9.84,4.06,9.85-4.06a.4.4,0,0,1,.53.21.41.41,0,0,1-.22.53l-10,4.12A.41.41,0,0,1,18.3,27.77Z"/></g></g></g></svg>