<svg id="Layer_1" data-name="Layer 1" xmlns="http://www.w3.org/2000/svg" viewBox="0 0 36 36"><defs><style>.cls-1{fill:#72c1e8;}.cls-2{fill:#efbf1f;}</style></defs><path class="cls-1" d="M29.77,18c0,4.56,0,9.12,0,13.69a4.14,4.14,0,0,1-.9,2.69A4,4,0,0,1,26,36a5.07,5.07,0,0,1-.55,0c-5,0-10,0-15,0a4,4,0,0,1-3.83-2.44,3.85,3.85,0,0,1-.38-1.74c0-3.32,0-6.65,0-10q0-8.84,0-17.68A4,4,0,0,1,8.54.43,3.77,3.77,0,0,1,10.32,0H25.67a4.14,4.14,0,0,1,4.06,3.63,5.63,5.63,0,0,1,0,.71ZM9,16.62V22c0,2.1,0,4.21,0,6.31a.92.92,0,0,0,.07.4.69.69,0,0,0,.7.38H26.34a.69.69,0,0,0,.48-.23.79.79,0,0,0,.18-.59V5a1.48,1.48,0,0,0,0-.21,1.05,1.05,0,0,0-.12-.31.67.67,0,0,0-.64-.31H9.65a.61.61,0,0,0-.49.25A.73.73,0,0,0,9,4.94ZM19.77,32.54A1.77,1.77,0,1,0,18,34.31,1.77,1.77,0,0,0,19.77,32.54ZM18,1.39c-.44,0-.88,0-1.33,0a.93.93,0,0,0-.23,0,.68.68,0,0,0-.51.77.7.7,0,0,0,.7.59h2.71a.68.68,0,0,0,.73-.69.7.7,0,0,0-.73-.7C18.89,1.4,18.45,1.39,18,1.39Z"/><path class="cls-2" d="M22.22,14.62a2.39,2.39,0,0,0,.36,4.29c-.06.12-.11.24-.16.36a6.76,6.76,0,0,1-1.29,1.88,1.75,1.75,0,0,1-1.06.56,1.5,1.5,0,0,1-.81-.17,2.36,2.36,0,0,0-1.63-.19,2.47,2.47,0,0,0-.54.19,1.47,1.47,0,0,1-1.76-.28A5.85,5.85,0,0,1,14,19.41a5.88,5.88,0,0,1-.63-2.73A3.17,3.17,0,0,1,14.73,14a2.2,2.2,0,0,1,1.49-.49,5.19,5.19,0,0,1,.93.21,3.39,3.39,0,0,1,.41.15,1.72,1.72,0,0,0,1.28,0,3.36,3.36,0,0,1,1.24-.33,2.58,2.58,0,0,1,2,.88l.15.17A0,0,0,0,0,22.22,14.62Z"/><path class="cls-2" d="M17.83,13.64a2,2,0,0,1,.29-1.33,2.52,2.52,0,0,1,1.65-1.21c.22,0,.23,0,.23.19a2.33,2.33,0,0,1-1.74,2.29C18.12,13.61,18,13.62,17.83,13.64Z"/></svg>