<svg id="Layer_1" data-name="Layer 1" xmlns="http://www.w3.org/2000/svg" viewBox="0 0 36 36"><defs><style>.cls-1{fill:#499cd6;}</style></defs><path class="cls-1" d="M24.08,8.87a3.4,3.4,0,0,0-2.34,1.07c-2.44,2.44-4.89,4.87-7.31,7.33-.36.36-.57.38-.93,0-.87-.93-1.79-1.83-2.71-2.72-.27-.27-.33-.44,0-.74,2.58-2.56,5.12-5.17,7.73-7.7A7.7,7.7,0,0,1,25.76,4c.42.09.57,0,.68-.41a4.8,4.8,0,0,1,9.38.29,4.79,4.79,0,0,1-3.54,5.56c-.5.12-.5.37-.41.77a7.74,7.74,0,0,1-2,7c-.43.48-.45.46-.92,0-.89-.89-1.77-1.79-2.68-2.67-.29-.28-.32-.46,0-.8a2.82,2.82,0,0,0,.47-3.28A2.86,2.86,0,0,0,24.08,8.87Z"/><path class="cls-1" d="M32.06,24.52a5.31,5.31,0,0,1-.14,1.38c-.09.33,0,.5.35.59A5,5,0,0,1,36,31.14c.16,1.65-1.34,3.74-3,4.48a4.84,4.84,0,0,1-6.45-3c-.11-.42-.34-.42-.69-.34a7.92,7.92,0,0,1-7.42-2.07.33.33,0,0,1,0-.56c1-1,2.06-2.05,3.08-3.09.28-.29.42,0,.58.13a2.88,2.88,0,0,0,4.14-.2A2.91,2.91,0,0,0,26,22.27c-2.44-2.46-4.9-4.91-7.35-7.36-.53-.53-.53-.53,0-1.05.91-.9,1.82-1.8,2.71-2.72.27-.27.44-.27.71,0,2.64,2.68,5.3,5.32,7.91,8A7.66,7.66,0,0,1,32.06,24.52Z"/><path class="cls-1" d="M3.45,11.62a5,5,0,0,1,.16-1.54.5.5,0,0,0-.36-.71A4.78,4.78,0,0,1,1.38,1.44a4.74,4.74,0,0,1,6.54-.26A4.61,4.61,0,0,1,9.46,3.6c.08.37.33.39.63.34a7.88,7.88,0,0,1,6.64,2c.6.54.6.54,0,1.13-.87.87-1.74,1.73-2.6,2.61-.26.27-.42.34-.74,0a2.91,2.91,0,0,0-3.81-.19,3,3,0,0,0-.78,3.74,3.63,3.63,0,0,0,.68.83c2.46,2.46,4.92,4.93,7.4,7.38.37.37.36.57,0,.93-.95.91-1.87,1.85-2.78,2.79-.25.26-.42.26-.67,0-2.59-2.6-5.21-5.17-7.77-7.8A7.51,7.51,0,0,1,3.45,11.62Z"/><path class="cls-1" d="M11.28,32.45A4.73,4.73,0,0,1,10,32.32c-.36-.08-.52,0-.64.37A4.68,4.68,0,0,1,4.77,36a4.83,4.83,0,0,1-1.51-9.41c.4-.15.33-.41.28-.7a8.35,8.35,0,0,1,.16-3.55,8.21,8.21,0,0,1,2-3.43c.26-.28.45-.27.71,0,1,1,1.92,1.95,2.9,2.9.24.24.21.37,0,.62a3,3,0,1,0,4.36,4l7.29-7.28c.56-.56.56-.56,1.13,0,.9.9,1.78,1.8,2.69,2.68.25.25.27.41,0,.66-1.51,1.47-3,2.94-4.49,4.42-1,1-1.93,2-2.91,3A8.21,8.21,0,0,1,11.28,32.45Z"/></svg>