<svg id="Layer_1" data-name="Layer 1" xmlns="http://www.w3.org/2000/svg" viewBox="0 0 36 36"><defs><style>.cls-1{fill:#e84430;}</style></defs><path class="cls-1" d="M17,22.54l-.16,0-2.76.72L9.52,24.47a2.33,2.33,0,0,1-.59.08A1.29,1.29,0,0,1,7.8,24a2.08,2.08,0,0,1-.2-.36L6.19,20.54Q3.74,15.26,1.31,10C1,9.2.6,8.42.24,7.64.18,7.51.13,7.36.08,7.22A1.94,1.94,0,0,1,0,6.89a.67.67,0,0,1,0-.28.44.44,0,0,1,.24-.26.75.75,0,0,1,.3-.09l.64,0,1-.09.86-.07L4,6l.39,0,1.31-.1L7,5.74l.87-.06a2.2,2.2,0,0,1,.44,0A.66.66,0,0,1,8.8,6c.11.15.22.3.32.46l1.74,2.92Q14.24,15,17.59,20.6c.05.08.1.15.14.23h.08l10.81-2.59c0-.06,0-.09-.05-.12l-.66-.94-2.84-4A1.18,1.18,0,0,1,25,13a.29.29,0,0,1,.12-.39.93.93,0,0,1,.33-.12l.66-.12,1.32-.22,1.34-.22,1.33-.22.73-.11a.7.7,0,0,1,.45.08,1.18,1.18,0,0,1,.28.22c.11.11.21.23.31.35.68.83,1.35,1.67,2,2.51l2,2.5a.86.86,0,0,1,.07.1.25.25,0,0,1-.1.38.92.92,0,0,1-.23.09l-.54.15-4.23,1.13-.12,0c0,.06,0,.08,0,.11l.56.76L35,24.83l.21.29a1.51,1.51,0,0,1,.11.22.26.26,0,0,1-.09.33,1.2,1.2,0,0,1-.21.13l-.4.17L31.2,27.19q-3.6,1.3-7.22,2.58c-.44.16-.87.32-1.32.44l-.4.09a.93.93,0,0,1-.88-.26,2.22,2.22,0,0,1-.38-.49c-.19-.31-.38-.62-.56-.93-.86-1.48-1.7-3-2.53-4.48l-.81-1.46Zm-7.75.32.12,0,.24-.05L16,21.27l.1,0a.15.15,0,0,0,.1-.19s0-.07,0-.11l-.08-.14-4.95-8.54L8.07,7,8,6.77a.15.15,0,0,0-.14-.09H7.74l-1,.08-.88.08-.8.07L4.24,7l-.84.07-.93.09-.66.05c-.1,0-.14,0-.12.15a.68.68,0,0,0,.07.2c.09.2.19.4.29.6L7.75,19.9c.46,1,.92,1.9,1.37,2.86C9.16,22.82,9.19,22.86,9.27,22.86Zm9.26-.71a.3.3,0,0,0,.06.15l2.9,5,.48.79a1.06,1.06,0,0,0,.22.29.36.36,0,0,0,.38.08l.26-.1,7.79-2.64,2.44-.83.23-.1c.09-.05.11-.11.05-.21s-.1-.16-.16-.24l-1.84-2.52-1.56-2.14-.16-.24a.25.25,0,0,0-.31-.1l-.23.07-5.57,1.45-4.86,1.26ZM29.8,18l.13,0,3.8-.94.35-.08a.76.76,0,0,0,.18-.09.11.11,0,0,0,0-.13l-.06-.09-.18-.23L31.2,12.74l-.1-.12a.34.34,0,0,0-.33-.09l-.21,0-1.68.31-2.14.38-.14,0c-.07,0-.1.08-.06.14a.82.82,0,0,0,.12.2c1,1.4,2,2.79,3.05,4.19A.73.73,0,0,1,29.8,18Z"/></svg>