<svg id="Layer_1" data-name="Layer 1" xmlns="http://www.w3.org/2000/svg" viewBox="0 0 36 36"><defs><style>.cls-1{fill:#185589;}</style></defs><path class="cls-1" d="M17.93,36c-2.5-1.14-4.86-1.74-6.61-3.11a29.32,29.32,0,0,1-11-18.48C-.8,8.13,1.79,3.58,7.79,1.64a31.57,31.57,0,0,1,20.65.19c5.92,2.07,8.41,6.74,7.17,12.92a29.34,29.34,0,0,1-10.8,17.89C22.92,34.13,20.39,34.83,17.93,36Zm0-9.09c4.77-3.49,7.87-7.79,9-13.31.21-1-.49-2.94-1.27-3.27A19.44,19.44,0,0,0,10.52,10,3.12,3.12,0,0,0,9,12.59,21,21,0,0,0,17.92,26.91Z"/></svg>