<svg id="Layer_1" data-name="Layer 1" xmlns="http://www.w3.org/2000/svg" viewBox="0 0 36 36"><defs><style>.cls-1{fill:#eebf20;}.cls-2{fill:#73c1e8;}</style></defs><path class="cls-1" d="M14,23.24c0,.67,0,1.32,0,2,0,1-.46,1.34-1.45,1.21l-5.48-.66a1.17,1.17,0,0,1-.38-.07A1.67,1.67,0,0,0,5,25.83a.57.57,0,0,0-.28.35,5.7,5.7,0,0,0,.11,2.5c.17.61,0,.9-.59,1.09A1.28,1.28,0,0,1,2.4,28.68c-.06-.31-.09-.63-.13-.95s0-.6,0-.91l-.53-.09c-1-.23-1.38-1.07-1.62-2a1.7,1.7,0,0,1,.67-1.89,4.07,4.07,0,0,1,1.05-.5q.72-.3,1.47-.54a.45.45,0,0,0,.36-.53c0-1.76,0-3.51,0-5.27V4.31c0-.78.1-.88.88-.88H30.55c.7,0,.8.11.8.81V17.87c.53.07.69.44.79.9a.86.86,0,0,0,1.16.48c.83-.53,1-.21,1.55.39.22.25.11.55-.06.81a.88.88,0,0,0,.57,1.42c.51.13.64.3.64.87s-.09.81-.64,1a.9.9,0,0,0-.58,1.46c.25.43.22.63-.18,1s-.67.57-1.07.25a1,1,0,0,0-1.2,0,.8.8,0,0,0-.25.42,1,1,0,0,1-1.41.73,1.07,1.07,0,0,1-.46-.61.9.9,0,0,0-1.41-.6c-.51.28-.71.25-1.11-.16s-.5-.64-.18-1.17a.91.91,0,0,0-.57-1.4,3.43,3.43,0,0,1-.62-.34.75.75,0,0,0-.31-.1q-5.9,0-11.79,0Zm16.9-5.35v-.57c0-2.77,0-5.54,0-8.31,0-.58,0-.58-.59-.58H4.51c-.31,0-.46.06-.46.43,0,1.93,0,3.87,0,5.8,0,1.51,0,3,0,4.52V21.6a2.83,2.83,0,0,0,.47-.37c.29-.34.53-.73.84-1.05,1.22-1.28,2.45-2.56,3.7-3.8a.86.86,0,0,1,.77-.19A3.42,3.42,0,0,1,11,17a12.1,12.1,0,0,1,2.74,5.32c.08.31.17.45.53.45,3.47,0,6.93,0,10.4,0h1.58a.79.79,0,0,1,.7-.93.86.86,0,0,0,.58-1.36c-.32-.56-.29-.68.23-1.2s.62-.4,1.12-.1a.86.86,0,0,0,1.34-.55C30.31,18.25,30.45,18,30.91,17.89Zm0-9.9V4.5c0-.63,0-.62-.61-.62H4.59c-.41,0-.55.1-.54.53,0,1.06,0,2.12,0,3.18,0,.32.08.42.41.42H30.91ZM28.38,19.42a.62.62,0,0,0-.46.8,1.29,1.29,0,0,1-.87,2c-.33.08-.33.28-.36.54a.4.4,0,0,0,.34.46,1.27,1.27,0,0,1,.84,2.06c-.16.26-.05.38.11.54s.31.33.58.14a1.42,1.42,0,0,1,.71-.29,1.45,1.45,0,0,1,1.34,1.11c.08.31.25.37.53.37a.4.4,0,0,0,.48-.37,1.24,1.24,0,0,1,2-.81c.32.2.46,0,.66-.16s.16-.35,0-.56a1.28,1.28,0,0,1,.79-2,.48.48,0,0,0,.43-.53c0-.34-.15-.44-.44-.51a1.28,1.28,0,0,1-.79-1.93c.16-.25.22-.41,0-.67a.48.48,0,0,0-.71-.05,1.27,1.27,0,0,1-1.89-.78c-.08-.35-.22-.52-.61-.49a.39.39,0,0,0-.41.34,1.31,1.31,0,0,1-2.05.85ZM8.69,17.48c-.11.09-.19.15-.26.22l-2.92,3a2.61,2.61,0,0,0-.71,2.83,2.71,2.71,0,0,0,2.43,1.82l2.76.33,2,.24A16.2,16.2,0,0,1,8.69,17.48Zm1,2.65c1.25-.3,2,0,2.43.92a2,2,0,0,1,.13,1.09A1.79,1.79,0,0,1,11,23.52c.23.37.39.71.62,1a10,10,0,0,0,1.14,1.29c.35.32.62.23.73-.22a4.68,4.68,0,0,0,.14-1.29,11.55,11.55,0,0,0-1.86-5.58,10.87,10.87,0,0,0-1.65-1.94c-.45-.43-.8-.24-.87.38A7.54,7.54,0,0,0,9.64,20.13ZM4.26,22c-1,.39-2,.73-3,1.11a1.4,1.4,0,0,0-.75,1.75c.07.2.15.4.23.6a1.45,1.45,0,0,0,1.86.83l1.26-.48,1.57-.6A3.29,3.29,0,0,1,4.26,22Zm-.12,4.2-1.23.46c-.09,0-.22.15-.21.22A21.59,21.59,0,0,0,3,29.09c.09.39,1.16.44,1.4.08a.33.33,0,0,0,0-.24C4.37,28,4.26,27.11,4.14,26.15Zm5.65-5.49c.12.37.24.72.38,1.07s.32.74.47,1.12c.1.23.23.22.42.13a1.36,1.36,0,0,0,.6-1.78A1.3,1.3,0,0,0,9.79,20.66Z"/><path class="cls-2" d="M20.92,32.56c-1,0-2,0-3,0a1.42,1.42,0,0,1-1.5-1.23q-.26-1-.54-2a1,1,0,0,1,.83-1.44A6.9,6.9,0,0,1,18,27.78c.79,0,1-.23,1-1,0-.39,0-.79,0-1.17a2.25,2.25,0,0,1,.27-.9.58.58,0,0,1,1.09.13c.38.86.76,1.72,1.17,2.57A1.25,1.25,0,0,0,23,28.2a7.77,7.77,0,0,1,1.08,0c.29,0,.43.11.43.41,0,1.18,0,2.35,0,3.53,0,.35-.18.44-.49.44Zm-1.07-7.73-.15,0a2.31,2.31,0,0,0-.24.57c-.05.55,0,1.1-.07,1.65a1.11,1.11,0,0,1-1.22,1.18c-.36,0-.73,0-1.09.05a1.76,1.76,0,0,0-.45.12.5.5,0,0,0-.31.7c.22.7.39,1.42.58,2.13a1.05,1.05,0,0,0,1.19.91c1.14,0,2.29,0,3.43,0a1.11,1.11,0,0,0,.23,0c0-1.16,0-2.3,0-3.45a.58.58,0,0,0-.15-.34,8.56,8.56,0,0,1-1.4-2.59ZM24,32.11C24,31,24,30,24,28.9c0-.09-.18-.25-.28-.25-.39,0-.79,0-1.18,0s-.35.09-.35.35c0,.83,0,1.66,0,2.48v.65Z"/><path class="cls-2" d="M28.48,14.42a21.11,21.11,0,0,1-.63,2.35c-1.09,2.72-3.23,3.89-6.06,4a14.14,14.14,0,0,1-4-.52c-.15,0-.27-.2-.4-.31a1.55,1.55,0,0,1,.47-.19,12.76,12.76,0,0,0,4.71-1.09,4.59,4.59,0,0,0,2.84-4c0-.31-.1-.33-.35-.34a5.65,5.65,0,0,1-.68-.11,4.65,4.65,0,0,1,.32-.63c.55-.78,1.12-1.55,1.68-2.32.38-.52.42-.52.8,0,.64.86,1.3,1.71,1.93,2.58a1.58,1.58,0,0,1,.19.44,4.34,4.34,0,0,1-.48.14C28.67,14.42,28.55,14.41,28.48,14.42ZM19.37,20v.13c.64,0,1.29.12,1.93.14a6.86,6.86,0,0,0,3.26-.59,5.9,5.9,0,0,0,3.34-5.14c.05-.43.1-.71.68-.66l-1.83-2.44L25,13.92c.21,0,.35-.05.43,0s.37.24.38.37a5.56,5.56,0,0,1-.08,1.29A4.86,4.86,0,0,1,22.93,19,10.72,10.72,0,0,1,19.37,20Z"/><path class="cls-2" d="M18,16.73c.1-.54.19-1.08.3-1.62a.61.61,0,0,0-.21-.65,14.69,14.69,0,0,1-1.06-1,1.62,1.62,0,0,1-.21-.39,1.73,1.73,0,0,1,.36-.18c.51-.09,1-.14,1.54-.24a.74.74,0,0,0,.45-.32c.25-.42.44-.88.67-1.32a2.8,2.8,0,0,1,.32-.38,2.19,2.19,0,0,1,.36.39c.22.41.43.82.61,1.25a.58.58,0,0,0,.54.4q.8.09,1.59.24c.32.06.38.23.15.47a14.69,14.69,0,0,1-1.06,1,.71.71,0,0,0-.28.79c.11.48.18,1,.25,1.46,0,.11,0,.31-.06.34a.56.56,0,0,1-.38,0c-.48-.24-1-.51-1.44-.73a.75.75,0,0,0-.55,0c-.5.23-1,.5-1.46.76C18.13,17.12,18,17.05,18,16.73Zm-.48-3.47c.38.38.69.72,1,1a.66.66,0,0,1,.22.73c-.09.43-.15.87-.24,1.39.49-.26.91-.46,1.31-.69a.59.59,0,0,1,.68,0c.39.23.81.42,1.29.66-.08-.49-.11-.89-.21-1.28a.82.82,0,0,1,.32-.94c.31-.26.59-.56.93-.9-.58-.08-1-.12-1.49-.23a.91.91,0,0,1-.51-.37,14.83,14.83,0,0,1-.68-1.33c-.21.44-.41.79-.55,1.15a.85.85,0,0,1-.84.6A9.76,9.76,0,0,0,17.49,13.26Z"/><path class="cls-2" d="M11.79,13.85a7.55,7.55,0,0,1,.16-.94.68.68,0,0,0-.29-.82,4.52,4.52,0,0,1-.5-.48c-.25-.26-.21-.42.14-.5a2,2,0,0,1,.59-.1c.56,0,.78-.3,1-.75a4.35,4.35,0,0,1,.47-.68,3.45,3.45,0,0,1,.44.66,1,1,0,0,0,1,.79,2.61,2.61,0,0,1,.56.08c.31.06.35.23.15.46a2.52,2.52,0,0,1-.41.39,1,1,0,0,0-.39,1.2,3.66,3.66,0,0,1,0,.81,3,3,0,0,1-.75-.25,1,1,0,0,0-1.3,0,1.08,1.08,0,0,1-.5.25C12.05,14,11.91,13.89,11.79,13.85Zm.57-.52a3.4,3.4,0,0,1,1-.38,2.65,2.65,0,0,1,.89.36l.09-.05a1.31,1.31,0,0,1,.57-1.77,1.39,1.39,0,0,1-1.59-1.11,1.35,1.35,0,0,1-1.61,1.08c.3.32.62.53.72.81A3,3,0,0,1,12.36,13.33Z"/><path class="cls-2" d="M6,13.53c.46-.81,0-1.43-.71-2-.21-.17-.16-.37.13-.43A7.65,7.65,0,0,1,6.37,11a.52.52,0,0,0,.51-.39c.11-.26.25-.52.38-.77s.32-.31.49,0c0,0,0,0,0,0A1.57,1.57,0,0,0,9.46,11.1a.41.41,0,0,1,.34.19c0,.09-.08.28-.18.35A1.47,1.47,0,0,0,9,13.57a.41.41,0,0,1-.06.39.4.4,0,0,1-.39,0,1.58,1.58,0,0,0-2.11,0C6.14,14.14,6,14,6,13.53Zm.5-.15a1.39,1.39,0,0,1,2,0,3,3,0,0,1-.1-1.1c.09-.31.43-.53.75-.88a1.37,1.37,0,0,1-1.65-1.11c-.16.9-.74,1.17-1.56,1.19A1.35,1.35,0,0,1,6.51,13.38Z"/><path class="cls-2" d="M24.89,4.76h.82a.39.39,0,0,1,.44.42q0,.78,0,1.56c0,.31-.18.44-.47.44-.53,0-1.07,0-1.6,0a.44.44,0,0,1-.5-.51c0-.48,0-1,0-1.43,0-.32.14-.48.48-.47s.54,0,.82,0Zm.78.47H24.08V6.69h1.59Z"/><path class="cls-2" d="M27.86,6c-.23-.25-.45-.46-.64-.7-.07-.09,0-.24-.08-.37.14,0,.31,0,.41.09a7.22,7.22,0,0,1,.66.61A6.34,6.34,0,0,1,28.84,5c.08-.07.25,0,.37-.06a.83.83,0,0,1-.05.36,8.38,8.38,0,0,1-.66.7c.23.25.47.48.67.73.06.08,0,.22.06.33s-.29,0-.37,0-.43-.43-.67-.67c-.22.21-.4.43-.62.6s-.27.09-.4.13c0-.15,0-.33.09-.44A6,6,0,0,1,27.86,6Z"/><path class="cls-2" d="M29.76,22.75a1.36,1.36,0,0,1,1.38-1.36,1.38,1.38,0,1,1,0,2.76A1.36,1.36,0,0,1,29.76,22.75Zm1.39.94a.93.93,0,0,0,.92-1,1,1,0,0,0-.93-.9,1,1,0,0,0-.94.94A.92.92,0,0,0,31.15,23.69Z"/></svg>