<svg id="Layer_1" data-name="Layer 1" xmlns="http://www.w3.org/2000/svg" viewBox="0 0 36 36"><defs><style>.cls-1{fill:#3276bc;}.cls-2{fill:#3e3e3e;}</style></defs><path class="cls-1" d="M17.24,16.89a.71.71,0,0,0-.08.19c-.47,1.42-.93,2.85-1.4,4.27-.35,1.09-.72,2.17-1.07,3.25a.18.18,0,0,1-.2.15H11.27a.24.24,0,0,1-.23-.12L9.36,21.74a.44.44,0,0,1,0-.3c.52-1.64,1.06-3.27,1.59-4.91,0-.14.09-.28.14-.46l2,3.91h0c0-.07.06-.14.08-.2.44-1.34.87-2.67,1.31-4l1.41-4.34c0-.14.1-.19.24-.19h2.41a.18.18,0,0,1,.2.14l1.44,4.74c.38,1.23.75,2.47,1.12,3.7,0,0,0,.09.06.17a1.32,1.32,0,0,0,.13-.2c.47-1.09.93-2.18,1.39-3.27l1.92-4.48c.09-.22.18-.44.28-.66a.28.28,0,0,1,.19-.13h3.27l.14,0-.26.66c-.67,1.67-1.35,3.33-2,5l-2,4.92L23.32,24.6a.2.2,0,0,1-.23.15H19.9a.19.19,0,0,1-.22-.16c-.53-1.71-1.06-3.41-1.6-5.12-.24-.79-.49-1.58-.74-2.38A1.22,1.22,0,0,0,17.24,16.89Z"/><path class="cls-2" d="M3.42,20.11c0,.1,0,.17,0,.25,0,1.4,0,2.8,0,4.2,0,.18,0,.23-.23.22H0V11.22H5.61a5.4,5.4,0,0,1,2.56.55,4,4,0,0,1,1.42,1.28.32.32,0,0,1,0,.19c-.47,1.44-.93,2.87-1.4,4.3-.24.73-.47,1.46-.71,2.19a.24.24,0,0,1-.22.21c-.4,0-.8.15-1.2.16-.81,0-1.63,0-2.44,0Zm0-6.27a1.15,1.15,0,0,0,0,.16v3.39s.07.11.11.11c.68,0,1.36,0,2-.09a1.28,1.28,0,0,0,1-.59,2,2,0,0,0,.32-1.17,1.58,1.58,0,0,0-1.4-1.74,13.13,13.13,0,0,0-1.4-.07Z"/><path class="cls-2" d="M26.51,22.34l.4-1c.2-.49.39-1,.58-1.47,0-.11.1-.13.21-.13h2.85l-.37-1.07-1-2.84a.34.34,0,0,1,0-.2l1.71-4.32s0,0,0,0c1.7,4.5,3.39,9,5.09,13.51H32.43a.21.21,0,0,1-.24-.18l-.75-2.1a.21.21,0,0,0-.24-.16H26.51Z"/></svg>