<svg id="Layer_1" data-name="Layer 1" xmlns="http://www.w3.org/2000/svg" viewBox="0 0 36 36"><defs><style>.cls-1{fill:#fff;}.cls-2{fill:#71cff0;}.cls-3{fill:#feffff;}.cls-4{fill:#fbfeff;}.cls-5{fill:#fcfeff;}.cls-6{fill:#70cff0;}</style></defs><path class="cls-1" d="M25.72,2.34H35.77c.19,0,.23,0,.23.23Q36,18,36,33.44c0,.19,0,.23-.23.23q-17.78,0-35.54,0c-.19,0-.23,0-.23-.23Q0,18,0,2.56c0-.19,0-.23.23-.23h10a.67.67,0,0,1-.12.06A3.37,3.37,0,0,0,7.82,4.23a6.71,6.71,0,0,0-.68,2.95,17.38,17.38,0,0,0,.57,4.65c0,.19,0,.27-.16.32a17.8,17.8,0,0,0-2,.69,10.36,10.36,0,0,0-4.14,2.69,3.49,3.49,0,0,0-.56,4.08,6.12,6.12,0,0,0,2,2.08A16.27,16.27,0,0,0,7.4,23.76c.45.14.38,0,.28.48a15.85,15.85,0,0,0-.49,5.13,5.71,5.71,0,0,0,.74,2.53,3.2,3.2,0,0,0,2.47,1.69A5.77,5.77,0,0,0,13.66,33a16.58,16.58,0,0,0,4.1-3c.17-.15.25-.16.42,0A17.74,17.74,0,0,0,21,32.2a7.29,7.29,0,0,0,4.18,1.41A3.25,3.25,0,0,0,27.94,32a6.24,6.24,0,0,0,.86-3.26,16.93,16.93,0,0,0-.57-4.65c-.05-.2,0-.27.17-.32a17.75,17.75,0,0,0,2-.68,10.49,10.49,0,0,0,4.14-2.7,3.57,3.57,0,0,0,1-2.64A4.19,4.19,0,0,0,34,15a10,10,0,0,0-2.3-1.54,20.41,20.41,0,0,0-3.31-1.28c-.13,0-.27,0-.22-.26a19.83,19.83,0,0,0,.5-2.75,10.19,10.19,0,0,0-.19-3.89,3.77,3.77,0,0,0-2.3-2.75A2.09,2.09,0,0,1,25.72,2.34Z"/><path class="cls-2" d="M25.72,2.34a2.09,2.09,0,0,0,.5.16,3.77,3.77,0,0,1,2.3,2.75,10.19,10.19,0,0,1,.19,3.89,19.83,19.83,0,0,1-.5,2.75c-.05.22.09.23.22.26a20.41,20.41,0,0,1,3.31,1.28A10,10,0,0,1,34,15a4.19,4.19,0,0,1,1.49,2.8,3.57,3.57,0,0,1-1,2.64,10.49,10.49,0,0,1-4.14,2.7,17.75,17.75,0,0,1-2,.68c-.18.05-.22.12-.17.32a16.93,16.93,0,0,1,.57,4.65A6.24,6.24,0,0,1,27.94,32a3.25,3.25,0,0,1-2.79,1.59A7.29,7.29,0,0,1,21,32.2,17.74,17.74,0,0,1,18.18,30c-.17-.16-.25-.15-.42,0a16.58,16.58,0,0,1-4.1,3,5.77,5.77,0,0,1-3.26.64A3.2,3.2,0,0,1,7.93,31.9a5.71,5.71,0,0,1-.74-2.53,15.85,15.85,0,0,1,.49-5.13c.1-.45.17-.34-.28-.48a16.27,16.27,0,0,1-4.57-2.07,6.12,6.12,0,0,1-2-2.08,3.49,3.49,0,0,1,.56-4.08,10.36,10.36,0,0,1,4.14-2.69,17.8,17.8,0,0,1,2-.69c.18-.05.21-.13.16-.32a17.38,17.38,0,0,1-.57-4.65,6.71,6.71,0,0,1,.68-2.95A3.37,3.37,0,0,1,10.1,2.4a.67.67,0,0,0,.12-.06h1.52a.18.18,0,0,0,.07.05,8,8,0,0,1,2.74,1.09A17.93,17.93,0,0,1,17.78,6c.15.14.23.15.38,0A17.29,17.29,0,0,1,19.52,4.8a14.13,14.13,0,0,1,2.94-1.88,12.24,12.24,0,0,1,1.74-.58ZM18.07,23.61c.76,0,1.64,0,2.51-.05a1,1,0,0,0,.91-.51,52.41,52.41,0,0,0,2.75-4.84.44.44,0,0,0,0-.47c-.32-.62-.62-1.24-.95-1.84-.62-1.12-1.29-2.22-2-3.28a.38.38,0,0,0-.32-.19c-.46,0-.93-.08-1.39-.09a43.89,43.89,0,0,0-4.59.09.41.41,0,0,0-.34.2,45.67,45.67,0,0,0-3,5.12.48.48,0,0,0,0,.45,44.05,44.05,0,0,0,3,5.11.38.38,0,0,0,.33.2A30.68,30.68,0,0,0,18.07,23.61ZM11,32.1a4,4,0,0,0,1.63-.37,14.15,14.15,0,0,0,4.11-2.91c.13-.12.15-.2,0-.34a27.45,27.45,0,0,1-2.5-3.09,1.08,1.08,0,0,0-.86-.49,27.44,27.44,0,0,1-3.81-.6c-.24-.05-.36,0-.42.27a23.06,23.06,0,0,0-.47,3.23,7,7,0,0,0,.37,2.94A1.89,1.89,0,0,0,11,32.1ZM8.66,7.51a19.32,19.32,0,0,0,.5,3.87c.06.28.19.31.43.26a28.62,28.62,0,0,1,3.8-.6,1,1,0,0,0,.8-.4,27.83,27.83,0,0,1,2.56-3.18c.14-.14.1-.22,0-.34A17.19,17.19,0,0,0,14,5a7.33,7.33,0,0,0-2.2-1A2.14,2.14,0,0,0,8.93,5.55,8.23,8.23,0,0,0,8.66,7.51ZM34,17.94a1.67,1.67,0,0,0-.21-.87,4.6,4.6,0,0,0-1.53-1.57A15.21,15.21,0,0,0,28,13.63c-.23-.07-.31,0-.38.19a31.87,31.87,0,0,1-1.53,4,.38.38,0,0,0,0,.36,33.35,33.35,0,0,1,1.54,4c.07.22.16.23.36.17a21.47,21.47,0,0,0,2.47-.91,8.37,8.37,0,0,0,2.76-1.83A2.26,2.26,0,0,0,34,17.94ZM2,18a1.6,1.6,0,0,0,.22.86A4.48,4.48,0,0,0,3.7,20.44,15.55,15.55,0,0,0,8,22.35c.21.06.22-.08.25-.2a37.39,37.39,0,0,1,1.56-4,.36.36,0,0,0,0-.32,32.55,32.55,0,0,1-1.56-4.05c-.06-.19-.14-.21-.33-.15a17.58,17.58,0,0,0-2.54.94,8.13,8.13,0,0,0-2.71,1.8A2.24,2.24,0,0,0,2,18ZM25,3.85a3.76,3.76,0,0,0-1.62.36,14.23,14.23,0,0,0-4.12,2.92c-.14.12-.13.21,0,.34a28.38,28.38,0,0,1,2.5,3.09,1,1,0,0,0,.84.48,27.91,27.91,0,0,1,3.86.6c.22,0,.32,0,.37-.23a15.59,15.59,0,0,0,.47-4.57,5.52,5.52,0,0,0-.38-1.71A1.87,1.87,0,0,0,25,3.85Zm0,28.25a1.92,1.92,0,0,0,2-1.39,6.3,6.3,0,0,0,.38-2.23,16.53,16.53,0,0,0-.53-4c-.05-.22-.17-.2-.32-.17a34.19,34.19,0,0,1-3.89.61.86.86,0,0,0-.73.31,27.31,27.31,0,0,1-2.61,3.25c-.15.16-.1.24,0,.37a15.42,15.42,0,0,0,3.39,2.56A4.91,4.91,0,0,0,24.93,32.1ZM18,10.82h1.77c.13,0,.24,0,.11-.18-.55-.74-1.15-1.44-1.76-2.13-.09-.1-.16-.11-.25,0-.6.69-1.2,1.38-1.75,2.12,0,0-.11.09-.07.16s.12,0,.19,0Zm0,14.31H16.26c-.08,0-.18-.05-.23,0s0,.13.09.19c.54.71,1.13,1.39,1.72,2.07.12.14.19.09.28,0,.58-.67,1.17-1.34,1.7-2.05,0-.06.13-.11.09-.19s-.15,0-.23,0ZM12.78,12.69a.66.66,0,0,0-.17,0,25.9,25.9,0,0,0-2.75.47c-.17,0-.15.14-.11.27.25.81.55,1.59.86,2.37a.8.8,0,0,0,.19.33C11.43,15,12.07,13.82,12.78,12.69Zm12.4,3.44a27.3,27.3,0,0,0,1-2.8c0-.12,0-.18-.13-.2-.88-.18-1.75-.34-2.64-.46-.08,0-.19-.05-.23,0s.05.15.09.22L24.53,15C24.75,15.36,24.9,15.75,25.18,16.13Zm0,3.73c-.09,0-.1.1-.13.15-.55,1-1.13,2-1.74,3,0,.06-.13.14-.09.21s.17.05.26,0c.85-.12,1.7-.27,2.55-.44.2,0,.23-.12.17-.29-.21-.57-.4-1.15-.61-1.71A4.87,4.87,0,0,0,25.18,19.86Zm-14.38,0-.08.09a27.15,27.15,0,0,0-1,2.65c-.05.17,0,.22.17.25.36.07.71.15,1.07.21.52.09,1,.17,1.55.24.07,0,.15,0,.21,0s0-.11-.05-.15C12,22,11.41,21,10.8,19.83Z"/><path class="cls-3" d="M24.2,2.34a12.24,12.24,0,0,0-1.74.58A14.13,14.13,0,0,0,19.52,4.8,17.29,17.29,0,0,0,18.16,6c-.15.15-.23.14-.38,0a17.93,17.93,0,0,0-3.23-2.53,8,8,0,0,0-2.74-1.09.18.18,0,0,1-.07-.05Z"/><path class="cls-3" d="M18.07,23.61a30.68,30.68,0,0,1-3.09-.1.38.38,0,0,1-.33-.2,44.05,44.05,0,0,1-3-5.11.48.48,0,0,1,0-.45,45.67,45.67,0,0,1,3-5.12.41.41,0,0,1,.34-.2,43.89,43.89,0,0,1,4.59-.09c.46,0,.93.07,1.39.09a.38.38,0,0,1,.32.19c.71,1.06,1.38,2.16,2,3.28.33.6.63,1.22.95,1.84a.44.44,0,0,1,0,.47,52.41,52.41,0,0,1-2.75,4.84,1,1,0,0,1-.91.51C19.71,23.57,18.83,23.65,18.07,23.61ZM18,21.09A3.12,3.12,0,1,0,14.83,18,3.12,3.12,0,0,0,18,21.09Z"/><path class="cls-3" d="M11,32.1a1.89,1.89,0,0,1-1.93-1.36,7,7,0,0,1-.37-2.94,23.06,23.06,0,0,1,.47-3.23c.06-.27.18-.32.42-.27a27.44,27.44,0,0,0,3.81.6,1.08,1.08,0,0,1,.86.49,27.45,27.45,0,0,0,2.5,3.09c.13.14.11.22,0,.34a14.15,14.15,0,0,1-4.11,2.91A4,4,0,0,1,11,32.1Z"/><path class="cls-3" d="M8.66,7.51a8.23,8.23,0,0,1,.27-2,2.14,2.14,0,0,1,2.89-1.61A7.33,7.33,0,0,1,14,5a17.19,17.19,0,0,1,2.71,2.17c.12.12.16.2,0,.34a27.83,27.83,0,0,0-2.56,3.18,1,1,0,0,1-.8.4,28.62,28.62,0,0,0-3.8.6c-.24,0-.37,0-.43-.26A19.32,19.32,0,0,1,8.66,7.51Z"/><path class="cls-3" d="M34,17.94a2.26,2.26,0,0,1-.72,1.64,8.37,8.37,0,0,1-2.76,1.83,21.47,21.47,0,0,1-2.47.91c-.2.06-.29.05-.36-.17a33.35,33.35,0,0,0-1.54-4,.38.38,0,0,1,0-.36,31.87,31.87,0,0,0,1.53-4c.07-.23.15-.26.38-.19a15.21,15.21,0,0,1,4.2,1.87,4.6,4.6,0,0,1,1.53,1.57A1.67,1.67,0,0,1,34,17.94Z"/><path class="cls-3" d="M2,18a2.24,2.24,0,0,1,.73-1.65,8.13,8.13,0,0,1,2.71-1.8,17.58,17.58,0,0,1,2.54-.94c.19-.06.27,0,.33.15a32.55,32.55,0,0,0,1.56,4.05.36.36,0,0,1,0,.32,37.39,37.39,0,0,0-1.56,4c0,.12,0,.26-.25.2A15.55,15.55,0,0,1,3.7,20.44a4.48,4.48,0,0,1-1.52-1.57A1.6,1.6,0,0,1,2,18Z"/><path class="cls-3" d="M25,3.85a1.87,1.87,0,0,1,1.91,1.28,5.52,5.52,0,0,1,.38,1.71,15.59,15.59,0,0,1-.47,4.57c-.05.24-.15.28-.37.23a27.91,27.91,0,0,0-3.86-.6,1,1,0,0,1-.84-.48,28.38,28.38,0,0,0-2.5-3.09c-.12-.13-.13-.22,0-.34a14.23,14.23,0,0,1,4.12-2.92A3.76,3.76,0,0,1,25,3.85Z"/><path class="cls-3" d="M24.93,32.1a4.91,4.91,0,0,1-2.31-.7,15.42,15.42,0,0,1-3.39-2.56c-.13-.13-.18-.21,0-.37a27.31,27.31,0,0,0,2.61-3.25.86.86,0,0,1,.73-.31,34.19,34.19,0,0,0,3.89-.61c.15,0,.27-.05.32.17a16.53,16.53,0,0,1,.53,4,6.3,6.3,0,0,1-.38,2.23A1.92,1.92,0,0,1,24.93,32.1Z"/><path class="cls-4" d="M18,10.82H16.22c-.07,0-.15,0-.19,0s0-.12.07-.16c.55-.74,1.15-1.43,1.75-2.12.09-.1.16-.09.25,0,.61.69,1.21,1.39,1.76,2.13.13.18,0,.18-.11.18Z"/><path class="cls-4" d="M18,25.13h1.68c.08,0,.19-.05.23,0s-.05.13-.09.19c-.53.71-1.12,1.38-1.7,2.05-.09.11-.16.16-.28,0-.59-.68-1.18-1.36-1.72-2.07,0-.06-.13-.11-.09-.19s.15,0,.23,0Z"/><path class="cls-5" d="M12.78,12.69c-.71,1.13-1.35,2.26-2,3.42a.8.8,0,0,1-.19-.33c-.31-.78-.61-1.56-.86-2.37,0-.13-.06-.24.11-.27a25.9,25.9,0,0,1,2.75-.47A.66.66,0,0,1,12.78,12.69Z"/><path class="cls-5" d="M25.18,16.13c-.28-.38-.43-.77-.65-1.13l-1.22-2.07c0-.07-.13-.14-.09-.22s.15-.05.23,0c.89.12,1.76.28,2.64.46.11,0,.17.08.13.2A27.3,27.3,0,0,1,25.18,16.13Z"/><path class="cls-5" d="M25.18,19.86a4.87,4.87,0,0,1,.41,1c.21.56.4,1.14.61,1.71.06.17,0,.25-.17.29-.85.17-1.7.32-2.55.44-.09,0-.21.06-.26,0s.05-.15.09-.21c.61-1,1.19-2,1.74-3C25.08,20,25.09,19.89,25.18,19.86Z"/><path class="cls-5" d="M10.8,19.83C11.41,21,12,22,12.68,23.09c0,0,.08.1.05.15s-.14,0-.21,0c-.52-.07-1-.15-1.55-.24-.36-.06-.71-.14-1.07-.21-.13,0-.22-.08-.17-.25a27.15,27.15,0,0,1,1-2.65Z"/><path class="cls-6" d="M18,21.09A3.12,3.12,0,1,1,21.11,18,3.12,3.12,0,0,1,18,21.09Z"/></svg>