<svg id="Layer_1" data-name="Layer 1" xmlns="http://www.w3.org/2000/svg" viewBox="0 0 36 36"><defs><style>.cls-1{fill:#cb2026;}</style></defs><path class="cls-1" d="M7.76,24.25H.65c0-.3.08-.59.14-.86a15.4,15.4,0,0,1,5.55-8.85,8.35,8.35,0,0,1,8.31-1.36,17.18,17.18,0,0,1,5.93,3.6c-.28.29-.28.29-.6.07a12.18,12.18,0,0,0-4.08-1.94,6.49,6.49,0,0,0-8.13,5.56,29.34,29.34,0,0,0,0,3.25C7.73,23.89,7.75,24.05,7.76,24.25Z"/><path class="cls-1" d="M15.37,22.33l2,1.8-.05.13a21.32,21.32,0,0,1-2.4,0c-.26,0-.5-.42-.74-.66l-.77-.83v1.51H11.65V17.92c1.23,0,2.47-.08,3.7,0A1.91,1.91,0,0,1,17,19.84a2.09,2.09,0,0,1-1.28,2.36Zm-2-1.37c.42,0,.81,0,1.19,0s.54-.36.55-.72-.07-.71-.51-.76-.8,0-1.23,0Z"/><path class="cls-1" d="M23,24.25H21.39c0-.05-.06-.06-.06-.07,0-.33,0-.84-.16-.95s-.71-.07-1.09-.08l-.45,0v1.06H17.88c0-.14,0-.29,0-.43V19.73a1.68,1.68,0,0,1,1.8-1.82c.53,0,1.06,0,1.58,0A1.63,1.63,0,0,1,23,19.66C23,21.17,23,22.68,23,24.25Zm-1.72-2.93c0-.52,0-1,0-1.52,0-.13-.22-.31-.36-.34a2.26,2.26,0,0,0-.86,0,.65.65,0,0,0-.4.41,13.91,13.91,0,0,0,0,1.45Z"/><path class="cls-1" d="M35.73,17.91v1.63H32.9c-.13.74-.11.75.5.76.41,0,.82,0,1.23.05A1.52,1.52,0,0,1,36,21.75a5,5,0,0,1,0,1.16,1.46,1.46,0,0,1-1.3,1.32c-1.08.07-2.17,0-3.29,0V22.66h3v-.81H33.09c-1.27,0-1.86-.72-1.84-2.11a1.73,1.73,0,0,1,1.92-1.83Z"/><path class="cls-1" d="M26.44,24.24V18h1.79v4.67H30.7v1.62Z"/><path class="cls-1" d="M23.83,17.93H25.6v6.31H23.83Z"/><path class="cls-1" d="M1.48,19.94c-.13.3-.22.54-.32.77s-.09.17-.15.3l-1-.37.44-1.06Z"/><path class="cls-1" d="M9.2,23.92c-1-.16-1.1-.26-1.06-1.33C9.13,22.79,9.1,22.67,9.2,23.92Z"/><path class="cls-1" d="M8.92,20.67c-.77-.43-.77-.44-.43-1.38C9.2,19.62,9.21,19.67,8.92,20.67Z"/><path class="cls-1" d="M3.62,16.61,2.92,16l.67-.67.63.55Z"/><path class="cls-1" d="M7.26,12.6l.41.61L7,13.6,6.57,13Z"/><path class="cls-1" d="M10.5,17.29l-.52.62-.43-.62.55-.59Z"/><path class="cls-1" d="M15.55,13.1c-.85-.17-.86-.19-.73-.76C15.63,12.46,15.67,12.5,15.55,13.1Z"/><path class="cls-1" d="M11.81,15.6l.77-.28.21.55L12,16.2Z"/><path class="cls-1" d="M15.64,15.76l-.94-.13c0-.17.06-.44.12-.45a1.45,1.45,0,0,1,.69.05C15.6,15.27,15.59,15.54,15.64,15.76Z"/><path class="cls-1" d="M11.39,12.26c-.35,0-.85.3-.93-.4C11.17,11.62,11.3,11.67,11.39,12.26Z"/></svg>