<svg id="Layer_1" data-name="Layer 1" xmlns="http://www.w3.org/2000/svg" viewBox="0 0 36 36"><defs><style>.cls-1{fill:#94bf47;}.cls-1,.cls-2{fill-rule:evenodd;}.cls-2{fill:#5f8f3e;}</style></defs><path class="cls-1" d="M29.9,6.93a.35.35,0,0,0-.32-.29l-2.69,0s-2.14-2.08-2.35-2.3-.63-.14-.79-.1l-1.08.34a7.64,7.64,0,0,0-.51-1.27A3.65,3.65,0,0,0,18.93,1h0l-.28,0L18.52.91A2.87,2.87,0,0,0,16.27,0c-1.74.05-3.48,1.31-4.89,3.55a14,14,0,0,0-2,5.08L6,9.7C5,10,4.94,10,4.81,11c-.09.71-2.74,21.17-2.74,21.17L24.24,36l9.6-2.39S29.92,7.11,29.9,6.93ZM18.68,5.76,15,6.91a8.89,8.89,0,0,1,1.87-3.63,3.79,3.79,0,0,1,1.26-.91A8.35,8.35,0,0,1,18.68,5.76Zm-2.37-4.6a1.74,1.74,0,0,1,1.05.28A4.84,4.84,0,0,0,16,2.49,10,10,0,0,0,13.71,7.3l-3,.94C11.27,5.44,13.62,1.24,16.31,1.16ZM13.48,18.4c.12,1.86,5,2.27,5.31,6.65C19,28.48,17,30.84,14,31a7.13,7.13,0,0,1-5.48-1.86L9.29,26s2,1.48,3.52,1.38a1.38,1.38,0,0,0,1.35-1.49C14,23.44,10,23.58,9.76,19.58c-.22-3.37,2-6.78,6.88-7.09a6,6,0,0,1,2.84.36L18.36,17a6.29,6.29,0,0,0-2.71-.48C13.48,16.69,13.46,18.05,13.48,18.4Zm6.36-13a9.23,9.23,0,0,0-.53-3.17c1.33.25,2,1.75,2.25,2.64Z"/><path class="cls-2" d="M29.64,6.44c-.13,0-2.71-.05-2.71-.05s-2.16-2.1-2.37-2.32a.54.54,0,0,0-.3-.13V36l9.67-2.4S30,6.91,30,6.73a.36.36,0,0,0-.32-.29Z"/></svg>