<svg id="Layer_1" data-name="Layer 1" xmlns="http://www.w3.org/2000/svg" viewBox="0 0 36 36"><defs><style>.cls-1{fill:#c52928;}</style></defs><path class="cls-1" d="M0,18A18,18,0,1,1,18,36,18,18,0,0,1,0,18Zm31.54,0a13.53,13.53,0,0,0-27,0A13.28,13.28,0,0,0,17.93,31.52,13.38,13.38,0,0,0,31.54,17.94Z"/><path class="cls-1" d="M26.05,22.84l2.38,1.59c-.19.27-.36.53-.55.77A12.41,12.41,0,0,1,16.2,30,10.65,10.65,0,0,1,9,26.32a10.27,10.27,0,0,1-2-3.46.6.6,0,0,1,0-.36l.23.35a9.49,9.49,0,0,0,7.25,4.61,13.78,13.78,0,0,0,5.89-.25,9.62,9.62,0,0,0,5.55-4.15A1.8,1.8,0,0,1,26.05,22.84Z"/><path class="cls-1" d="M22.05,12.38,26,9.22c1.74,1,4,4.66,4,6.34H25.26c-.18,3.73-1.47,6.78-5,8.54a8.85,8.85,0,0,1-6.44.5,19,19,0,0,0,2.13,0c4.45-.48,6.93-2.86,7.61-6.51a6.68,6.68,0,0,0-1.3-5.37C22.24,12.61,22.15,12.51,22.05,12.38Z"/><path class="cls-1" d="M29.27,23.61c-1-.49-1.93-.93-2.85-1.42a.43.43,0,0,0-.65.14A11.09,11.09,0,0,1,19,26.64a12.08,12.08,0,0,1-7.3-.92A5.71,5.71,0,0,1,9.42,24c.09,0,.12,0,.14.05a8.49,8.49,0,0,0,6.63,2,12,12,0,0,0,6.6-2.53,8.46,8.46,0,0,0,3.26-6.72v-.32h4C30.31,18.87,30.49,21.28,29.27,23.61Z"/></svg>