<svg id="Layer_1" data-name="Layer 1" xmlns="http://www.w3.org/2000/svg" viewBox="0 0 36 36"><defs><style>.cls-1{fill:#eebf20;}</style></defs><path class="cls-1" d="M4,24.94a1.24,1.24,0,0,1-1.49.9,1.33,1.33,0,0,1-1-1.51c0-1.94,0-3.88,0-5.82,0-.42,0-.75-.59-.79a1,1,0,0,1-.89-1.07,55.28,55.28,0,0,1,.06-5.9A2.39,2.39,0,0,1,2,8.5c.41-.11.63-.16.26-.64a2.46,2.46,0,0,1,.35-3.55A2.47,2.47,0,0,1,5.78,8.13l-.32.35h5.38c.22,0,.34-.07.34-.32,0-.53,0-1.06,0-1.59,0-.13,0-.29-.17-.31s-.6,0-.63-.37a5.57,5.57,0,0,1,0-1.58c.13-.64.73-.58,1.24-.58H26.39A1.46,1.46,0,0,1,27.75,6c-.05.09-.14.22-.21.22-.93,0-.65.7-.65,1.19,0,2.57,0,5.15,0,7.73,0,.36-.1.78.51.74.24,0,.36.19.38.43s0,.32,0,.48c0,1.51,0,1.53-1.49,1.53-1,0-1.92,0-2.87,0-.41,0-.54.08-.31.5.43.79.83,1.6,1.23,2.4.11.23.2.37.52.36a2.31,2.31,0,0,1,2.57,1.65,3.16,3.16,0,0,1-1.21,3.16c-.16.1-.33.18-.49.27a3.14,3.14,0,0,1-1.1,0,3.25,3.25,0,0,1-1.77-2.49,1.43,1.43,0,0,0-.13-.46q-1.27-2.52-2.56-5a1.08,1.08,0,0,0-1.66-.11c-.68,1.23-1.3,2.49-1.94,3.75l.13.19a2.74,2.74,0,0,1,2.06-1,2.26,2.26,0,0,1,2,1.21c.71,1.28.15,2.7-1.64,4.09a4.63,4.63,0,0,1,2.64.41.3.3,0,0,0,.36,0,4.32,4.32,0,0,1,2.4-.41,4.49,4.49,0,0,0,1.32,0,4.17,4.17,0,0,1,2.31.38.38.38,0,0,0,.44,0,4.45,4.45,0,0,1,2.47-.39,4.24,4.24,0,0,0,1.33,0,5.94,5.94,0,0,1,1.73.16A2.68,2.68,0,0,1,36,29.49c0,.69,0,1.38,0,2.07,0,.49-.2.71-.72.71q-10.1,0-20.18,0c-.56,0-.75-.25-.73-.78s0-1.16,0-1.75a2.79,2.79,0,0,1,2.94-3c.25,0,.5,0,1-.05a3.53,3.53,0,0,1-1.81-3.85,7.33,7.33,0,0,0-1.2,2.1,1.32,1.32,0,0,1-1.45.92c-1.9-.06-1.91,0-1.06-1.71s1.7-3.36,2.55-5c.13-.25.24-.51.42-.88-1.48,0-2.83,0-4.18,0-.47,0-1,.08-1.17-.55A1.6,1.6,0,0,1,11,15.81c.25-.1.21-.27.21-.44,0-1.36,0-2.71,0-4.07,0-.36-.14-.45-.47-.44H8.09c-1.1,0-1.32.22-1.33,1.35s0,2.29,0,3.43c0,2.9,0,5.79,0,8.69a1.34,1.34,0,0,1-1,1.51,1.24,1.24,0,0,1-1.49-.9V18.38H4ZM5.69,11.61l-1,1.46c-.43.64-.66.63-1.1,0a10.18,10.18,0,0,0-1.19-1.69v13c0,.25,0,.53.35.52s.37-.31.37-.58c0-2.05,0-4.09,0-6.14,0-.8.41-.82,1-.83s1,.06,1,.85c0,2,0,3.93,0,5.89,0,.32-.14.81.38.79s.34-.46.34-.75V11.7l0-.28C5.72,11.42,5.7,11.51,5.69,11.61ZM19,6.25c-2,0-4,0-6.06,0-.75,0-.92.21-.89.91.06,1.28,0,1.29,1.25,1.33.66,0,.85.29.62.91a2.1,2.1,0,0,1-1.39,1.33c-.38.12-.47.31-.47.69,0,1.22,0,2.44,0,3.66,0,.58.1.77.73.77,4.14,0,8.29,0,12.44,0,.54,0,.73-.11.72-.69q0-4.11,0-8.22c0-.6-.21-.68-.73-.68C23.19,6.26,21.12,6.25,19,6.25Zm-.3,21.44c-3-.15-3.56.54-3.43,3.11v.08c0,.31,0,.48.42.48s.42-.2.41-.5c0-.59,0-1.17,0-1.76,0-.32,0-.69.45-.7s.46.35.46.68c0,.58,0,1.17,0,1.75,0,.35.07.54.48.53.77,0,1.54,0,2.31,0,.38,0,.52-.13.5-.51q0-.8,0-1.59c0-.37-.12-.92.48-.91s.42.51.43.87c0,.53,0,1.06,0,1.59s.23.57.63.55.78.1.73-.53,0-1.11,0-1.67c0-.35,0-.77.47-.76s.43.46.44.79c0,.54,0,1.07,0,1.6s.09.59.53.57c.74,0,1.49,0,2.23,0,.41,0,.57-.12.55-.54,0-.64,0-1.28,0-1.92,0-.3.1-.55.41-.57s.49.26.49.58c0,.64,0,1.28,0,1.91s.36.51.72.52.68,0,.65-.5,0-1.33,0-2a.42.42,0,0,1,.43-.47.43.43,0,0,1,.46.45c0,.37,0,.74,0,1.11,0,1.4,0,1.4,1.43,1.4,1.83,0,1.83,0,1.83-1.79v-.47c0-.37,0-.76.5-.75s.44.38.44.72c0,.61,0,1.22,0,1.83,0,.35.12.47.46.47s.48-.13.46-.47,0-.8,0-1.2a1.79,1.79,0,0,0-1.83-2,9.09,9.09,0,0,0-3.17,0,5.19,5.19,0,0,1-3.37,0,9.14,9.14,0,0,0-2.46,0,2.61,2.61,0,0,0-1.94.54.4.4,0,0,1-.58.05C20.83,27.48,19.76,27.75,18.74,27.69Zm.32-11c-2.38,0-4.77,0-7.16,0-.24,0-.65-.19-.64.32s.35.31.59.31H26.26c.24,0,.59.12.61-.3s-.4-.34-.64-.34Zm0-12.07H11.88c-.23,0-.59-.14-.62.29s.39.33.63.34H26.25c.22,0,.58.16.61-.28s-.37-.35-.63-.35ZM4.21,7.83A1.6,1.6,0,0,0,5.72,6.19a1.55,1.55,0,0,0-3.09.15A1.62,1.62,0,0,0,4.21,7.83Zm22.4,16a1.43,1.43,0,0,0-2.85,0c0,.92.79,1.94,1.48,1.89S26.63,24.65,26.61,23.8Zm-9.26,0c0,.94.68,1.89,1.36,1.91s1.44-1,1.43-1.93a1.43,1.43,0,0,0-1.42-1.42A1.38,1.38,0,0,0,17.35,23.83Zm-3.9,1c.57.19.85,0,1.05-.41s.56-1.13.85-1.7c.74-1.45,1.47-2.91,2.26-4.47-.42,0-.75-.15-.95.26C15.6,20.61,14.54,22.71,13.45,24.84ZM1,13.68H1v2.71c0,.19,0,.41.26.42s.28-.21.3-.4a5,5,0,0,0,0-.55c0-1.49,0-3,0-4.46,0-.45-.11-.89.62-.88.41,0,.39-.37.28-.73s-.38-.37-.65-.21A1.73,1.73,0,0,0,1,11.14C1,12,1,12.83,1,13.68Zm22.21,8.84c.54-.57.53-.57-1-3.68-.23-.46-.49-.73-1.08-.49ZM12.73,9.43H6.42a.45.45,0,0,0-.48.32.64.64,0,0,0,.27.9c.22-.71.76-.75,1.38-.73,1.36,0,2.71,0,4.07,0A1,1,0,0,0,12.73,9.43ZM4.61,11.35c.14-.13.25-.18.24-.22a5.29,5.29,0,0,1,.39-2.26c.08-.23-.08-.27-.26-.26a3.5,3.5,0,0,1-1.76,0c-.1,0-.25.07-.19.17.27.43.12,1,.65,1.47,0-.23,0-.36,0-.48,0-.34-.09-.69.49-.67s.4.37.41.66C4.62,10.28,4.61,10.76,4.61,11.35Z"/><path class="cls-1" d="M31.11,26.66a3.22,3.22,0,0,1-1.63-1.86,2.42,2.42,0,0,1,.82-2.91,2.39,2.39,0,0,1,2.82.12,2.47,2.47,0,0,1,.6,3,2.89,2.89,0,0,1-1.34,1.52A2.62,2.62,0,0,1,31.11,26.66ZM33,23.87a1.42,1.42,0,0,0-1.35-1.47,1.39,1.39,0,0,0-1.45,1.45c0,.93.71,1.88,1.39,1.89S33,24.77,33,23.87Z"/></svg>