<svg id="Layer_1" data-name="Layer 1" xmlns="http://www.w3.org/2000/svg" viewBox="0 0 36 36"><defs><style>.cls-1{fill:#9a5d8e;}.cls-2{fill:#fff;}.cls-3{fill:#9c5e90;}</style></defs><path class="cls-1" d="M36,9.63V23l0,0,0,0a.87.87,0,0,0-.09.11,3.47,3.47,0,0,1-3.61,2.24c-3.21,0-6.41,0-9.62,0-.46,0-.46,0-.29.43.4,1,.8,2,1.19,3,0,0,0,0-.05.05l-5.84-3.25a1.57,1.57,0,0,0-.8-.21H3.68a4.26,4.26,0,0,1-1-.08A3.36,3.36,0,0,1,.17,23c0-.08,0-.26-.17-.22V9.84l0,0h0s.06-.07.07-.11A3.33,3.33,0,0,1,2.47,7.43s.16,0,.07-.12h31s0,0,0,0l0,0a.6.6,0,0,0,.15.09,3.35,3.35,0,0,1,2.24,2.11S35.89,9.71,36,9.63ZM9.58,16.74c.07.21.11.32.14.43a17.14,17.14,0,0,0,1.86,4.2,7.89,7.89,0,0,0,1.47,1.79,1.12,1.12,0,0,0,1.26.26,1.18,1.18,0,0,0,.63-1.11V22.1a21.78,21.78,0,0,1,.14-3.52A24.39,24.39,0,0,1,16.82,11a1.18,1.18,0,0,0-.63-1.59,1.19,1.19,0,0,0-1.6.51A8.28,8.28,0,0,0,14,11.18a24.67,24.67,0,0,0-1.2,5.3c-.06.45-.11.91-.17,1.36a.83.83,0,0,1-.2-.35,26,26,0,0,1-1-3.34,10.77,10.77,0,0,0-.39-1.68,1,1,0,0,0-1.79-.33,2.53,2.53,0,0,0-.42.64L5.94,18.35c-.05.11-.08.25-.22.31-.28-1.08-.5-2.17-.72-3.26-.29-1.51-.52-3-.77-4.54a1,1,0,0,0-1.05-.95c-1,0-1.5.61-1.33,1.64s.31,1.9.48,2.84a59.58,59.58,0,0,0,1.61,7.24,4.7,4.7,0,0,0,.64,1.47.76.76,0,0,0,1.16.21,3.55,3.55,0,0,0,.91-1,22.71,22.71,0,0,0,1.62-3C8.69,18.5,9.12,17.67,9.58,16.74Zm15.5-1.15A5.53,5.53,0,0,0,25,14.37a4.81,4.81,0,0,0-.26-1A3.66,3.66,0,0,0,20.45,11,4,4,0,0,0,18,12.82a7.79,7.79,0,0,0-1.31,4.49,5.54,5.54,0,0,0,.9,3.13,3.66,3.66,0,0,0,5.84,0A7.66,7.66,0,0,0,25.08,15.59Zm9.18,0A5.41,5.41,0,0,0,34.09,14a3.72,3.72,0,0,0-2.76-3,3.5,3.5,0,0,0-3.73,1.24A7.36,7.36,0,0,0,26.09,19,3.58,3.58,0,0,0,30,21.89a3.7,3.7,0,0,0,2.8-1.75A7.7,7.7,0,0,0,34.26,15.59Z"/><path class="cls-2" d="M9.58,16.74c-.46.93-.89,1.76-1.31,2.6a22.71,22.71,0,0,1-1.62,3,3.55,3.55,0,0,1-.91,1,.76.76,0,0,1-1.16-.21,4.7,4.7,0,0,1-.64-1.47,59.58,59.58,0,0,1-1.61-7.24c-.17-.94-.33-1.89-.48-2.84s.34-1.66,1.33-1.64a1,1,0,0,1,1.05.95c.25,1.51.48,3,.77,4.54.22,1.09.44,2.18.72,3.26.14-.06.17-.2.22-.31l2.94-5.57a2.53,2.53,0,0,1,.42-.64,1,1,0,0,1,1.79.33,10.77,10.77,0,0,1,.39,1.68,26,26,0,0,0,1,3.34.83.83,0,0,0,.2.35c.06-.45.11-.91.17-1.36a24.67,24.67,0,0,1,1.2-5.3,8.28,8.28,0,0,1,.57-1.25,1.19,1.19,0,0,1,1.6-.51A1.18,1.18,0,0,1,16.82,11a24.39,24.39,0,0,0-1.74,7.57,21.78,21.78,0,0,0-.14,3.52v.21a1.18,1.18,0,0,1-.63,1.11,1.12,1.12,0,0,1-1.26-.26,7.89,7.89,0,0,1-1.47-1.79,17.14,17.14,0,0,1-1.86-4.2C9.69,17.06,9.65,17,9.58,16.74Z"/><path class="cls-2" d="M25.08,15.59a7.66,7.66,0,0,1-1.68,4.89,3.66,3.66,0,0,1-5.84,0,5.54,5.54,0,0,1-.9-3.13A7.79,7.79,0,0,1,18,12.82,4,4,0,0,1,20.45,11a3.66,3.66,0,0,1,4.28,2.41,4.81,4.81,0,0,1,.26,1A5.53,5.53,0,0,1,25.08,15.59Zm-2.46.19a3.51,3.51,0,0,0-.49-1.92,1,1,0,0,0-1.45-.32,1.91,1.91,0,0,0-.49.45,4.75,4.75,0,0,0-1.09,2.69,3.76,3.76,0,0,0,.38,2,1,1,0,0,0,1.65.43,2.76,2.76,0,0,0,.88-1A5,5,0,0,0,22.62,15.78Z"/><path class="cls-2" d="M34.26,15.59a7.7,7.7,0,0,1-1.42,4.55A3.7,3.7,0,0,1,30,21.89,3.58,3.58,0,0,1,26.09,19a7.36,7.36,0,0,1,1.51-6.77A3.5,3.5,0,0,1,31.33,11a3.72,3.72,0,0,1,2.76,3A5.41,5.41,0,0,1,34.26,15.59Zm-2.44.1a3.56,3.56,0,0,0-.49-1.82,1,1,0,0,0-1.46-.33,1.94,1.94,0,0,0-.53.5,4.7,4.7,0,0,0-1,2.19,4,4,0,0,0,.31,2.43,1,1,0,0,0,1.72.42,2.94,2.94,0,0,0,.91-1.1A5.28,5.28,0,0,0,31.82,15.69Z"/><path class="cls-1" d="M23.54,28.64l0,.05h-.09S23.53,28.66,23.54,28.64Z"/><path class="cls-3" d="M22.62,15.78A5,5,0,0,1,22,18.14a2.76,2.76,0,0,1-.88,1,1,1,0,0,1-1.65-.43,3.76,3.76,0,0,1-.38-2A4.75,4.75,0,0,1,20.19,14a1.91,1.91,0,0,1,.49-.45,1,1,0,0,1,1.45.32A3.51,3.51,0,0,1,22.62,15.78Z"/><path class="cls-3" d="M31.82,15.69A5.28,5.28,0,0,1,31.29,18a2.94,2.94,0,0,1-.91,1.1,1,1,0,0,1-1.72-.42,4,4,0,0,1-.31-2.43,4.7,4.7,0,0,1,1-2.19,1.94,1.94,0,0,1,.53-.5,1,1,0,0,1,1.46.33A3.56,3.56,0,0,1,31.82,15.69Z"/></svg>