<?xml version="1.0" encoding="utf-8"?>
<!-- Generator: Adobe Illustrator 25.2.1, SVG Export Plug-In . SVG Version: 6.00 Build 0)  -->
<svg version="1.1" id="Layer_1" xmlns="http://www.w3.org/2000/svg" xmlns:xlink="http://www.w3.org/1999/xlink" x="0px" y="0px"
	 viewBox="0 0 24 25" style="enable-background:new 0 0 24 25;" xml:space="preserve">
<style type="text/css">
	.st0{fill:#363636;}
</style>
<path class="st0" d="M0.8,7.7c0-0.1,0-0.2,0-0.2c0,0,0-0.1,0-0.1c0,0,0,0,0,0c0,0,0-0.1,0-0.1C0.9,7.2,0.9,7,1,6.9c0,0,0,0,0,0
	c0,0,0,0,0,0c0,0,0-0.1,0.1-0.1c0-0.1,0.1-0.1,0.1-0.2c0-0.1,0.1-0.1,0.1-0.2c0,0.1,0,0,0,0c0,0,0.1-0.1,0.1-0.1
	C1.5,6.1,1.5,6.1,1.6,6c0,0,0.1,0,0.1-0.1c0,0,0,0,0,0c0,0,0,0,0,0C1.8,5.8,2,5.7,2.1,5.7c0,0,0.1,0,0.1-0.1c-0.1,0,0,0,0,0
	c0.1,0,0.2-0.1,0.2-0.1c0.1,0,0.1,0,0.2,0c0,0,0,0,0.1,0c0,0-0.1,0,0,0c0,0,0.1,0,0.1,0c0.2,0,0.3,0,0.5,0c0,0,0,0,0,0
	c0,0,0,0,0.1,0c0,0,0.1,0,0.1,0c0.1,0,0.2,0,0.2,0.1c0,0,0.1,0,0.1,0c0,0,0.1,0,0,0c0.1,0,0.2,0.1,0.2,0.1c0.1,0,0.1,0.1,0.2,0.1
	c0,0,0.1,0,0.1,0.1c0,0,0,0,0,0c0,0,0,0,0,0C4.6,6,4.7,6.2,4.9,6.3c0,0,0.1,0.1,0,0.1c0,0,0,0,0,0.1C5,6.5,5,6.5,5.1,6.6
	c0,0.1,0.1,0.1,0.1,0.2c0,0,0,0.1,0,0c0,0,0,0.1,0,0.1c0.1,0.2,0.1,0.3,0.1,0.5c0-0.1,0,0,0,0.1c0,0,0,0.1,0,0.1c0,0,0,0.1,0,0.1
	v0.3v0.6c0,0.2,0.2,0.4,0.4,0.4C6,9,6.2,8.9,6.2,8.6V7V4.4V3.9c0-0.1,0-0.1,0-0.2c0,0,0-0.1,0,0c0,0,0-0.1,0-0.1
	c0-0.1,0-0.2,0.1-0.2c0,0,0-0.1,0-0.1c0,0,0-0.1,0,0c0,0,0,0,0,0c0-0.1,0.1-0.1,0.1-0.2c0,0,0-0.1,0.1-0.1c0,0,0,0,0,0
	c0,0,0-0.1,0,0c0,0,0,0,0-0.1c0,0,0.1-0.1,0.1-0.1c0.1-0.1,0.1-0.1,0.2-0.2c0,0,0,0,0,0c0,0,0,0,0,0c0,0,0.1,0,0.1-0.1
	c0.1,0,0.1-0.1,0.2-0.1c0,0,0.1,0,0.1-0.1c-0.1,0,0,0,0,0c0.1,0,0.1,0,0.2-0.1c0,0,0.1,0,0.1,0c0,0,0.1,0,0,0c0.1,0,0.2,0,0.2,0
	c0.1,0,0.2,0,0.2,0c0.1,0,0,0,0,0c0,0,0.1,0,0.1,0c0.1,0,0.2,0,0.2,0.1c0,0,0.1,0,0.1,0c-0.1,0,0,0,0,0c0.1,0,0.1,0.1,0.2,0.1
	c0,0,0.1,0,0.1,0.1c0,0,0,0,0,0c0.1,0-0.1-0.1,0,0c0.1,0.1,0.2,0.2,0.3,0.3c0-0.1,0,0,0,0c0,0,0,0.1,0.1,0.1C9.6,3,9.6,3,9.6,3.1
	c0,0,0,0.1,0,0c0,0,0,0.1,0,0.1c0,0.1,0.1,0.2,0.1,0.2c0,0,0,0.1,0,0.1c0,0.1,0,0,0,0c0,0.1,0,0.2,0,0.2v0.3v1.2v0.1
	C9.8,5.8,10,6,10.2,6c0.2,0,0.4-0.2,0.4-0.4V3.4c0-0.3,0-0.5,0-0.8c0-0.1,0-0.1,0-0.2c0,0,0-0.1,0-0.1c0,0,0,0,0,0c0,0,0-0.1,0-0.1
	c0-0.1,0-0.1,0.1-0.2c0,0,0-0.1,0-0.1c0,0,0-0.1,0,0c0,0,0,0,0,0c0-0.1,0.1-0.1,0.1-0.2c0,0,0-0.1,0.1-0.1c0,0,0,0,0,0
	c0,0,0-0.1,0,0c0,0,0,0,0-0.1c0,0,0.1-0.1,0.1-0.1c0.1-0.1,0.1-0.1,0.2-0.2c0,0,0,0,0,0c0,0,0,0,0,0c0,0,0.1,0,0.1-0.1
	c0.1,0,0.1-0.1,0.2-0.1c0,0,0.1,0,0.1-0.1c-0.1,0,0,0,0,0c0.1,0,0.2-0.1,0.2-0.1c0,0,0.1,0,0.1,0c0,0,0.1,0,0,0c0.1,0,0.2,0,0.3,0
	c0.1,0,0.1,0,0.2,0c0,0,0.1,0,0.1,0c0,0,0,0,0,0c0,0,0,0,0.1,0c0.1,0,0.2,0,0.2,0.1c0,0,0.1,0,0.1,0c0,0,0.1,0,0.1,0
	c0.1,0.1,0.3,0.1,0.4,0.2c0,0,0.1,0,0,0c0,0,0,0,0,0c0,0,0.1,0,0.1,0.1c0.1,0.1,0.1,0.1,0.2,0.2c0,0,0.1,0.1,0,0.1c0,0,0,0,0,0.1
	c0,0.1,0.1,0.1,0.1,0.2c0,0,0,0.1,0,0.1c0,0,0,0,0,0c0,0,0-0.1,0,0c0,0.1,0.1,0.2,0.1,0.2c0,0.1,0,0.2,0,0.2c0-0.1,0,0,0,0
	c0,0,0,0.1,0,0.1c0,0.1,0,0.1,0,0.2v1.1v2.2v0.1c0,0.2,0.2,0.4,0.4,0.4c0.2,0,0.4-0.2,0.4-0.4c0-0.6,0-1.1,0-1.7c0-0.1,0-0.2,0-0.3
	c0-0.1,0,0.1,0,0c0,0,0-0.1,0-0.1c0-0.1,0-0.1,0.1-0.2c0,0,0-0.1,0-0.1c0,0,0-0.1,0,0c0-0.1,0.1-0.1,0.1-0.2c0-0.1,0.1-0.1,0.1-0.2
	c0,0,0-0.1,0.1-0.1c0,0.1,0,0,0,0c0.1-0.1,0.2-0.2,0.3-0.3c0.1-0.1,0,0,0,0c0,0,0.1,0,0.1-0.1C15.9,3,16,2.9,16,2.9c0,0,0.1,0,0.1,0
	c0,0,0.1-0.1,0,0c0.1,0,0.1,0,0.2-0.1c0.1,0,0.1,0,0.2,0c0,0,0.1,0,0.1,0c0.1,0-0.1,0,0,0c0.1,0,0.2,0,0.4,0c0.1,0,0.1,0,0.2,0
	c-0.1,0,0,0,0,0c0,0,0.1,0,0.1,0c0.1,0,0.1,0,0.2,0.1c0,0,0.1,0,0.1,0c0.1,0-0.1,0,0,0C17.8,2.9,17.9,3,18,3.1c0,0,0.1,0,0,0
	c0,0,0.1,0,0.1,0.1c0,0,0.1,0.1,0.1,0.1c0,0.1,0.1,0.1,0.1,0.2c0,0,0-0.1,0,0c0,0,0.1,0.1,0.1,0.1c0,0.1,0.1,0.1,0.1,0.2
	c0,0,0.1,0.2,0,0.1c0.1,0.1,0.1,0.3,0.1,0.4c0,0,0,0.1,0,0.1c0-0.1,0,0.1,0,0.1c0,0.1,0,0.1,0,0.2v0v0.3v1v1.9
	c0,0.2,0.2,0.4,0.4,0.4c0.2,0,0.4-0.2,0.4-0.4V6.8V6.3V6.2c0-0.1,0-0.1,0-0.2c0,0,0-0.1,0,0c0,0,0-0.1,0-0.1c0-0.1,0.1-0.3,0.1-0.4
	c0,0.1,0,0,0,0c0,0,0-0.1,0-0.1c0-0.1,0.1-0.1,0.1-0.2c0,0,0-0.1,0.1-0.1c-0.1,0.1,0,0,0,0C20,5,20.1,5,20.1,4.9
	c0,0,0.1-0.1,0.1-0.1c0.1-0.1-0.1,0,0,0c0,0,0.1-0.1,0.1-0.1c0.1,0,0.1-0.1,0.2-0.1c0,0,0.1,0,0.1,0c0.1-0.1-0.1,0,0,0
	c0.1,0,0.3-0.1,0.4-0.1c0.1,0-0.1,0,0,0c0,0,0,0,0.1,0c0.1,0,0.2,0,0.2,0c0,0,0.1,0,0.1,0c0,0,0.1,0,0,0c0.1,0,0.1,0,0.2,0
	c0.1,0,0.1,0,0.2,0.1c0,0,0,0,0.1,0c-0.1,0,0,0,0,0c0.1,0.1,0.2,0.1,0.4,0.2c-0.1-0.1,0,0,0,0c0,0,0.1,0,0.1,0.1
	c0,0,0.1,0.1,0.1,0.1c0,0,0,0.1,0.1,0.1c0.1,0.1,0-0.1,0,0c0,0.1,0.1,0.1,0.1,0.2C23,5.4,23,5.5,23,5.5c0.1,0.1,0-0.1,0,0
	c0,0,0,0.1,0,0.1c0,0.1,0,0.1,0,0.2c0,0,0,0.1,0,0.1c0,0,0,0,0,0.1c0,0,0,0,0,0c0,0.1,0,0.2,0,0.3v1.4v4.6c0,0.5,0,1,0,1.5
	c0,0.1,0,0.3,0,0.4c0,0.1,0,0.2,0,0.2c0,0.1,0-0.1,0,0c0,0,0,0.1,0,0.1c0,0.3-0.1,0.6-0.2,0.9c-0.1,0.5-0.3,1.1-0.5,1.6
	c0,0.1-0.1,0.1-0.1,0.2c0,0,0,0,0,0.1c0-0.1,0,0,0,0c-0.1,0.1-0.1,0.3-0.2,0.4c-0.1,0.2-0.2,0.5-0.4,0.7c-0.1,0.2-0.3,0.5-0.5,0.7
	c-0.1,0.1-0.1,0.2-0.2,0.3c0,0-0.1,0.1-0.1,0.1c0,0,0,0.1-0.1,0.1c0,0,0,0,0,0.1c0,0,0,0,0,0c-0.3,0.4-0.7,0.8-1.1,1.2
	c-0.2,0.2-0.4,0.4-0.6,0.6c0,0-0.1,0.1-0.2,0.1c0,0-0.1,0-0.1,0.1c0,0-0.1,0.1,0,0c-0.1,0.1-0.2,0.2-0.3,0.3
	c-0.4,0.3-0.9,0.6-1.4,0.9c-0.2,0.1-0.5,0.2-0.7,0.4c-0.1,0,0.1,0,0,0c0,0-0.1,0-0.1,0c-0.1,0-0.1,0-0.2,0.1
	c-0.1,0.1-0.3,0.1-0.4,0.2c-0.5,0.2-1.1,0.3-1.6,0.4c-0.1,0-0.3,0-0.4,0.1c0,0-0.1,0-0.1,0c0.1,0,0,0,0,0c-0.1,0-0.1,0-0.2,0
	c-0.3,0-0.6,0-0.9,0.1c-0.6,0-1.2,0-1.8-0.1c0,0-0.1,0-0.1,0c0.1,0-0.1,0-0.1,0c-0.1,0-0.1,0-0.2,0C10.1,24,9.9,24,9.8,24
	c-0.3-0.1-0.6-0.1-0.8-0.2c-0.3-0.1-0.5-0.2-0.8-0.3c-0.1,0-0.3-0.1-0.4-0.2c0,0-0.1,0-0.1,0c0,0-0.1-0.1,0,0
	c-0.1,0-0.2-0.1-0.2-0.1c-0.5-0.2-1-0.5-1.4-0.8c-0.2-0.1-0.5-0.3-0.7-0.5c-0.1,0-0.1-0.1-0.2-0.1c0.1,0-0.1-0.1-0.1-0.1
	c-0.1-0.1-0.2-0.2-0.3-0.3c-0.4-0.4-0.8-0.8-1.2-1.2c-0.1-0.1-0.2-0.2-0.3-0.3c0-0.1-0.1-0.1-0.1-0.2c0,0-0.1-0.1,0,0
	c0,0-0.1-0.1-0.1-0.1c-0.2-0.2-0.3-0.4-0.5-0.7c-0.3-0.5-0.6-1-0.8-1.5c0-0.1,0-0.1-0.1-0.2c0,0,0-0.1,0-0.1c0,0.1,0,0,0,0
	c-0.1-0.1-0.1-0.3-0.2-0.4c-0.1-0.3-0.2-0.5-0.3-0.8c-0.1-0.3-0.1-0.5-0.2-0.8C1,15.1,1,14.9,1,14.8c0-0.1,0-0.1,0-0.2
	c0,0,0-0.1,0-0.1c0,0,0,0,0-0.1c0,0,0,0,0,0c-0.1-0.7-0.1-1.3-0.1-2V8.1L0.8,7.7c0-0.2-0.2-0.4-0.4-0.4C0.2,7.3,0,7.5,0,7.7v3.9
	c0,0.5,0,0.9,0,1.4c0,1.2,0.2,2.4,0.6,3.6c0.7,2.2,2,4.2,3.8,5.7c1.9,1.5,4.1,2.5,6.5,2.7c2.4,0.2,4.8-0.3,6.9-1.5
	c2-1.1,3.7-2.8,4.8-4.9c1-1.8,1.4-3.8,1.4-5.9V8.4V6.5c0-0.1,0-0.2,0-0.4c0-0.7-0.3-1.3-0.7-1.8c-0.9-1-2.5-1.1-3.5-0.2
	c-0.5,0.4-0.8,0.9-0.9,1.5c-0.1,0.4-0.1,0.8-0.1,1.1v0.9c0,0.2,0.2,0.4,0.4,0.4c0.2,0,0.4-0.2,0.4-0.4V6V4.9c0-0.3,0-0.5,0-0.8
	c-0.2-1.3-1.3-2.2-2.6-2.2c-1.2,0-2.4,0.9-2.6,2.1c-0.1,0.4-0.1,0.8-0.1,1.2v1c0,0.2,0.2,0.4,0.4,0.4c0.2,0,0.4-0.2,0.4-0.4V4.1V2.9
	c0-0.4,0-0.8-0.2-1.2c-0.3-0.7-0.8-1.3-1.5-1.5c-0.7-0.3-1.5-0.2-2.1,0.1c-0.6,0.3-1.1,0.9-1.4,1.6C9.8,2.2,9.8,2.6,9.8,3v2.5v0.1
	c0,0.2,0.2,0.4,0.4,0.4c0.2,0,0.4-0.2,0.4-0.4V4.5c0-0.4,0-0.9-0.1-1.3c-0.2-0.7-0.7-1.3-1.3-1.6C8.6,1.2,7.8,1.1,7.1,1.4
	C6.4,1.7,5.8,2.2,5.6,2.9C5.4,3.3,5.4,3.7,5.4,4v2.4c0,0.7,0,1.4,0,2.1v0c0,0.2,0.2,0.4,0.4,0.4s0.4-0.2,0.4-0.4c0-0.4,0-0.8,0-1.2
	c-0.1-0.8-0.4-1.5-1-2C4.6,4.9,3.9,4.6,3.1,4.6C2.3,4.6,1.6,4.9,1,5.4C0.4,6,0,6.9,0,7.7C0,8,0.2,8.2,0.4,8.1C0.6,8.1,0.8,8,0.8,7.7
	L0.8,7.7z"/>
</svg>
