<svg width="68" height="69" viewBox="0 0 68 69" fill="none" xmlns="http://www.w3.org/2000/svg">
<path d="M40.266 54.9482C39.9608 54.9482 39.6892 54.9482 39.4156 54.9482C27.6256 54.9482 15.8356 54.9482 4.04562 54.9482C1.49439 54.9482 0.191406 53.6273 0.191406 51.043C0.191406 35.5609 0.191406 20.0789 0.191406 4.59681C0.191406 2.04884 1.49649 0.723633 4.00563 0.723633C23.7566 0.723633 43.5076 0.723633 63.2587 0.723633C65.7236 0.723633 67.0518 2.06164 67.0518 4.54774C67.0518 23.8411 67.0518 43.1345 67.0518 62.4278C67.0518 66.1452 64.7216 68.5011 61.0463 68.5033C56.127 68.5054 51.2056 68.5054 46.2862 68.5033C42.6551 68.5011 40.3144 66.1367 40.3102 62.4705C40.3081 60.0463 40.3081 57.6242 40.306 55.2C40.3018 55.1552 40.2891 55.1082 40.266 54.9482ZM40.306 52.6904C40.306 52.3277 40.306 52.0502 40.306 51.7728C40.306 45.0422 40.3039 38.3138 40.306 31.5832C40.3081 27.9576 42.6572 25.5803 46.2399 25.5782C50.6961 25.576 55.1524 25.5846 59.6086 25.5739C61.3936 25.5696 63.1934 25.4437 64.7869 26.7305C64.7869 21.7541 64.7869 16.9227 64.7869 12.0594C43.9939 12.0594 23.2367 12.0594 2.41847 12.0594C2.41847 12.3261 2.41847 12.5566 2.41847 12.7871C2.41847 25.5397 2.41847 38.2946 2.41847 51.0473C2.41847 52.3789 2.73211 52.6883 4.07299 52.6883C15.8861 52.6883 27.7014 52.6883 39.5145 52.6883C39.746 52.6904 39.9755 52.6904 40.306 52.6904ZM42.5836 34.6455C42.5836 42.9424 42.5836 51.186 42.5836 59.4104C50.0204 59.4104 57.4089 59.4104 64.7848 59.4104C64.7848 51.1284 64.7848 42.9018 64.7848 34.6455C57.3773 34.6455 50.0057 34.6455 42.5836 34.6455ZM2.42268 9.71411C23.2662 9.71411 44.0213 9.71411 64.8205 9.71411C64.8205 8.024 64.8205 6.38083 64.8205 4.73766C64.8205 3.25667 64.5469 2.98352 63.0692 2.98352C43.4361 2.98352 23.8029 2.98352 4.17192 2.98352C3.96353 2.98352 3.75303 2.97286 3.54464 2.98779C2.87736 3.03474 2.43742 3.43166 2.429 4.0996C2.40795 5.95403 2.42268 7.8106 2.42268 9.71411ZM64.8227 32.3237C64.8227 32.1017 64.8227 31.9609 64.8227 31.8201C64.8437 29.1526 63.5491 27.8359 60.9053 27.8359C55.9838 27.8359 51.0624 27.8317 46.141 27.8381C43.6445 27.8402 42.0826 29.8397 42.632 32.3237C50.0036 32.3237 57.3773 32.3237 64.8227 32.3237ZM42.6088 61.7599C42.2089 64.517 43.6487 66.2434 46.3178 66.2434C51.3087 66.2455 56.2996 66.2498 61.2905 66.2412C63.7239 66.237 65.2963 64.1713 64.7216 61.7599C57.35 61.7599 49.9762 61.7599 42.6088 61.7599Z" fill="white"/>
<path d="M21.3618 45.9101C16.3246 45.9101 11.2874 45.9101 6.25017 45.9101C4.97245 45.9101 4.65039 45.5815 4.65039 44.284C4.65039 36.3285 4.65039 28.3752 4.65039 20.4197C4.65039 19.1222 4.97245 18.7979 6.25228 18.7979C16.3267 18.7979 26.4032 18.7979 36.4777 18.7979C37.7575 18.7979 38.0795 19.1243 38.0795 20.4218C38.0795 28.3773 38.0795 36.3307 38.0795 44.2862C38.0795 45.5815 37.7533 45.9101 36.4756 45.9101C31.4383 45.9101 26.399 45.9101 21.3618 45.9101ZM6.91745 21.0876C6.91745 27.6176 6.91745 34.0921 6.91745 40.7203C7.13426 40.3938 7.2774 40.1932 7.40791 39.9841C10.1612 35.5198 12.9124 31.0555 15.6657 26.5912C16.4804 25.2702 17.3413 25.2788 18.1665 26.6146C20.1093 29.7623 22.0522 32.912 23.9951 36.0597C24.2983 36.5505 24.6035 37.0413 24.9445 37.5919C25.1234 37.3486 25.2644 37.1672 25.3949 36.9794C26.2748 35.7097 27.1484 34.4357 28.0304 33.1681C28.7945 32.0691 29.546 32.0712 30.3122 33.1766C31.992 35.6008 33.6633 38.0293 35.3389 40.4557C35.4652 40.6392 35.6062 40.812 35.8146 41.0852C35.8146 34.3439 35.8146 27.7307 35.8146 21.0876C26.1738 21.0876 16.5751 21.0876 6.91745 21.0876ZM16.9077 28.8404C13.8344 33.8232 10.8327 38.6887 7.79733 43.6097C13.9186 43.6097 19.9157 43.6097 26.0201 43.6097C22.9763 38.6781 19.9809 33.8232 16.9077 28.8404ZM34.8253 43.6502C32.8971 40.8569 31.0594 38.1979 29.165 35.4536C28.2009 36.8492 27.2915 38.1446 26.418 39.4612C26.3296 39.5935 26.3822 39.9051 26.479 40.0673C27.1189 41.1556 27.7799 42.2311 28.4598 43.2939C28.565 43.4582 28.8029 43.631 28.9818 43.6332C30.8763 43.6609 32.7708 43.6502 34.8253 43.6502Z" fill="white"/>
<path d="M55.9263 38.0081C56.6925 38.023 57.1661 38.7294 56.9346 39.5659C56.3241 41.781 55.6948 43.9939 55.0717 46.2047C54.2381 49.1624 53.4088 52.1222 52.5647 55.0757C52.2931 56.0296 51.4259 56.3753 50.7586 55.8162C50.306 55.4363 50.2829 54.9626 50.4386 54.4099C51.5501 50.5068 52.6425 46.5974 53.7413 42.6922C54.0908 41.4502 54.4339 40.2061 54.7959 38.9684C54.9854 38.3218 55.3874 37.9974 55.9263 38.0081Z" fill="white"/>
<path d="M61.0349 47.0453C59.8077 45.8076 58.6605 44.6467 57.5112 43.488C57.1007 43.074 56.8755 42.6152 57.1638 42.0347C57.4859 41.3881 58.2837 41.1491 58.8078 41.657C60.3845 43.1828 61.9211 44.7513 63.4388 46.3368C63.8892 46.8085 63.8114 47.3889 63.3041 47.9117C61.8727 49.3863 60.4287 50.8502 58.9741 52.3013C58.4605 52.8135 57.8101 52.8199 57.3575 52.3803C56.886 51.9215 56.8923 51.2365 57.4207 50.6944C58.591 49.4909 59.7824 48.3086 61.0349 47.0453Z" fill="white"/>
<path d="M46.3427 47.0715C47.4605 48.1939 48.5129 49.2503 49.5654 50.3066C49.7128 50.456 49.8685 50.5989 50.0012 50.7611C50.4348 51.2925 50.4201 51.9071 49.9759 52.3445C49.5317 52.782 48.9024 52.814 48.4161 52.3317C46.9258 50.8529 45.4523 49.3591 43.9936 47.8482C43.4968 47.3339 43.5073 46.7343 44.0104 46.2157C45.4544 44.7241 46.9132 43.2474 48.3824 41.7813C48.896 41.2692 49.5423 41.2734 49.9948 41.7258C50.4474 42.1782 50.46 42.8376 49.9612 43.3605C48.9634 44.4061 47.9341 45.424 46.9216 46.4547C46.7469 46.634 46.5785 46.8218 46.3427 47.0715Z" fill="white"/>
<path d="M41.9068 7.50115C35.615 7.50115 29.3253 7.50115 23.0336 7.50115C22.802 7.50115 22.5642 7.52463 22.3389 7.48195C21.7411 7.37098 21.377 6.9954 21.377 6.37014C21.377 5.74489 21.739 5.37143 22.3389 5.25833C22.541 5.21992 22.7557 5.24126 22.9641 5.24126C35.6382 5.24126 48.3144 5.24126 60.9884 5.24126C61.1968 5.24126 61.4115 5.21992 61.6136 5.25833C62.2135 5.37143 62.5756 5.74702 62.5756 6.37014C62.5756 6.9954 62.2114 7.37098 61.6136 7.48195C61.3884 7.52463 61.1505 7.50115 60.919 7.50115C54.5809 7.50115 48.2449 7.50115 41.9068 7.50115Z" fill="white"/>
<path d="M6.29636 7.50254C6.15743 7.50254 6.0185 7.50681 5.87957 7.50254C5.12599 7.47267 4.64184 7.01386 4.65658 6.35019C4.67131 5.71213 5.13862 5.2768 5.85852 5.24906C6.15953 5.23625 6.46265 5.23839 6.76366 5.24906C7.51724 5.27466 8.00349 5.7356 7.98876 6.39927C7.97402 7.0352 7.50251 7.47054 6.78681 7.50468C6.62052 7.50895 6.45844 7.50254 6.29636 7.50254Z" fill="white"/>
<path d="M10.7317 7.49356C10.5233 7.49356 10.3086 7.5213 10.1066 7.48716C9.50453 7.38686 9.15089 7.02195 9.11511 6.3967C9.08143 5.81199 9.51716 5.3169 10.1255 5.25715C10.4939 5.22087 10.8686 5.23367 11.239 5.24648C11.9568 5.27208 12.4283 5.70955 12.4431 6.34548C12.4578 7.00701 11.9695 7.47009 11.2201 7.49996C11.058 7.50637 10.8959 7.49996 10.7338 7.49996C10.7317 7.49996 10.7317 7.4957 10.7317 7.49356Z" fill="white"/>
<path d="M15.1807 7.49569C14.9955 7.49569 14.8082 7.51276 14.625 7.49356C14.0062 7.42954 13.5789 6.97713 13.5704 6.38815C13.562 5.79917 13.983 5.31049 14.5935 5.25714C15.0081 5.22087 15.4291 5.223 15.8459 5.25501C16.4648 5.30196 16.8921 5.76717 16.9026 6.35615C16.911 6.94299 16.4879 7.42101 15.8775 7.49143C15.6459 7.51704 15.4123 7.49569 15.1807 7.49569Z" fill="white"/>
<path d="M53.7204 28.9717C54.0909 28.9717 54.4656 28.9503 54.8339 28.9781C55.4549 29.025 55.8864 29.4838 55.9011 30.0707C55.9159 30.6831 55.4717 31.1889 54.8171 31.2166C54.053 31.2486 53.2847 31.2486 52.5206 31.2145C51.8996 31.1867 51.4702 30.7109 51.4554 30.124C51.4407 29.5073 51.8827 29.0229 52.5374 28.9781C52.931 28.9482 53.3268 28.9717 53.7204 28.9717Z" fill="white"/>
<path d="M53.6409 65.1094C53.2704 65.1094 52.8957 65.1329 52.5274 65.1051C51.8769 65.0561 51.4328 64.5631 51.4538 63.9507C51.4728 63.3638 51.9022 62.8943 52.5274 62.8687C53.2915 62.8367 54.0598 62.8367 54.8239 62.8687C55.447 62.8943 55.8806 63.3638 55.8996 63.9507C55.9206 64.5631 55.4743 65.0582 54.826 65.1073C54.4324 65.1329 54.0366 65.1094 53.6409 65.1094Z" fill="white"/>
<path d="M25.8129 23.3223C27.6631 23.3201 29.1724 24.8609 29.1577 26.7366C29.1429 28.5804 27.6505 30.0827 25.8234 30.0934C24.011 30.1041 22.4912 28.5847 22.4786 26.7494C22.468 24.8651 23.9668 23.3244 25.8129 23.3223ZM26.9285 26.7388C26.9474 26.1327 26.4675 25.6078 25.8697 25.5822C25.2445 25.5544 24.7098 26.073 24.7098 26.7089C24.7098 27.3171 25.2045 27.8228 25.8044 27.8314C26.4022 27.8399 26.9117 27.3448 26.9285 26.7388Z" fill="white"/>
</svg>
