<svg width="26" height="26" viewBox="0 0 26 26" fill="none" xmlns="http://www.w3.org/2000/svg">
<path d="M13 0.199997C5.93115 0.199997 0.199951 5.9312 0.199951 13C0.199951 15.4013 0.874449 17.6401 2.02495 19.5604L0.314535 25.8L6.68745 24.1271C8.55126 25.1867 10.7029 25.8 13 25.8C20.0688 25.8 25.7999 20.0688 25.7999 13C25.7999 5.9312 20.0688 0.199997 13 0.199997ZM8.6187 7.02916C8.8267 7.02916 9.04042 7.0279 9.22495 7.0375C9.45322 7.04283 9.70167 7.05955 9.93953 7.58541C10.2222 8.21048 10.8377 9.77856 10.9166 9.9375C10.9956 10.0964 11.0515 10.2837 10.9416 10.4917C10.8371 10.705 10.7827 10.8341 10.6291 11.0229C10.4702 11.2064 10.296 11.4342 10.152 11.5729C9.9931 11.7318 9.82898 11.9061 10.0125 12.2229C10.1959 12.5397 10.8331 13.5783 11.7749 14.4167C12.9856 15.4983 14.0071 15.8306 14.325 15.9896C14.6428 16.1485 14.8269 16.1237 15.0104 15.9104C15.1992 15.7024 15.8033 14.9887 16.0166 14.6708C16.2246 14.353 16.437 14.408 16.725 14.5125C17.0172 14.617 18.5758 15.3848 18.8937 15.5437C19.2116 15.7027 19.42 15.7813 19.5 15.9104C19.5821 16.0437 19.5822 16.6785 19.3187 17.4187C19.0552 18.1579 17.7615 18.8728 17.1812 18.9229C16.5956 18.9773 16.0491 19.1861 13.3749 18.1333C10.1494 16.8629 8.11513 13.5592 7.9562 13.3458C7.79727 13.1378 6.66453 11.6282 6.66453 10.0708C6.66453 8.50816 7.48385 7.74286 7.77078 7.425C8.06305 7.10713 8.40537 7.02916 8.6187 7.02916Z" fill="white"/>
</svg>
