<svg width="24" height="24" viewBox="0 0 24 24" fill="none" xmlns="http://www.w3.org/2000/svg">
<path d="M1.33333 0C0.749333 0 0 0.437333 0 1.33333C0 7.38533 2.4544 13.1643 6.6224 17.3776C10.8357 21.5456 16.6147 24 22.6667 24C23.5627 24 24 23.2507 24 22.6667V17.987C24 17.2603 23.4246 16.6684 22.6979 16.651C21.8579 16.631 20.8008 16.5809 20.1328 16.4635C19.4101 16.3355 18.5391 16.0891 17.9271 15.8984C17.4471 15.7491 16.9263 15.8797 16.5703 16.2344L13.6146 19.1745C11.5719 18.0985 9.93481 16.8439 8.54948 15.4505C7.15615 14.0652 5.90152 12.4281 4.82552 10.3854L7.76562 7.42969C8.12029 7.07369 8.2509 6.55031 8.10156 6.07031C7.91223 5.45965 7.66313 4.58985 7.53646 3.86719C7.41779 3.19919 7.37029 2.14208 7.34896 1.30208C7.33162 0.575417 6.73969 0 6.01302 0H1.33333Z" fill="white"/>
</svg>
