<svg width="18" height="15" viewBox="0 0 18 15" fill="none" xmlns="http://www.w3.org/2000/svg">
<path d="M5.66262 14.4063C12.4534 14.4063 16.1687 9.09144 16.1687 4.48385C16.1687 4.33443 16.1652 4.1817 16.1582 4.03229C16.8809 3.53865 17.5046 2.92721 18 2.2267C17.3269 2.50954 16.6122 2.69426 15.8804 2.77455C16.651 2.33834 17.2279 1.65307 17.5043 0.845782C16.7794 1.25151 15.9867 1.53771 15.1601 1.69213C14.6031 1.13322 13.8667 0.763155 13.0648 0.63915C12.2628 0.515145 11.4399 0.644108 10.7233 1.0061C10.0067 1.36809 9.43635 1.94295 9.10039 2.64179C8.76442 3.34064 8.68157 4.12455 8.86465 4.87232C7.39687 4.80276 5.96095 4.44265 4.64999 3.81535C3.33902 3.18805 2.18227 2.30755 1.25473 1.23094C0.7833 1.99858 0.639042 2.90695 0.851273 3.77143C1.0635 4.63591 1.6163 5.39164 2.3973 5.88502C1.81097 5.86744 1.23748 5.71835 0.724219 5.45006V5.49322C0.723693 6.2988 1.01857 7.0797 1.55873 7.70316C2.09889 8.32662 2.85099 8.75418 3.68719 8.91314C3.14404 9.0535 2.57399 9.07395 2.02113 8.97291C2.25709 9.66571 2.71618 10.2717 3.33433 10.7062C3.95248 11.1407 4.69884 11.3821 5.46926 11.3967C4.16132 12.3671 2.54563 12.8934 0.882422 12.8909C0.587465 12.8905 0.292799 12.8734 0 12.8397C1.68964 13.8635 3.65515 14.4073 5.66262 14.4063Z" fill="white"/>
</svg>
