<svg width="64" height="20" viewBox="0 0 64 20" fill="none" xmlns="http://www.w3.org/2000/svg">
<path d="M4.97967 10.5377L5.28476 10.3699C7.14379 12.4933 9.00079 14.6168 10.8558 16.7402C12.0548 18.107 12.5765 18.104 13.7084 16.7097C15.4138 14.6107 17.101 12.5025 18.8431 10.3394C18.959 10.556 18.9987 10.5926 18.9987 10.6445C19.0261 12.4232 19.0963 14.1988 19.0475 15.9744C19.0231 16.9141 19.3526 17.2833 20.2678 17.1735C20.6225 17.1521 20.978 17.1521 21.3326 17.1735C23.7337 17.1735 23.7337 17.1735 24.173 14.9371C24.5483 14.9371 24.6398 15.2727 24.8198 15.4893C28.5816 20.0291 35.0526 21.2861 40.0562 18.2352C41.2498 17.4905 42.6413 17.1256 44.0468 17.1887C49.2791 17.265 54.5084 17.2192 59.7407 17.2192C63.1608 17.2192 63.1211 17.2192 63.0967 13.7442C63.0967 12.7374 62.8069 12.4445 61.8001 12.4811C59.5485 12.5574 57.2908 12.5055 54.6579 12.5055L63.9846 2.79139C63.6002 2.73342 63.4995 2.70598 63.3988 2.70598C57.6102 2.70598 51.8205 2.70598 46.0299 2.70598C45.3711 2.66266 44.71 2.67285 44.0529 2.73648C43.0583 2.90733 44.0529 4.04227 43.2962 4.44804C40.7914 1.33915 37.4629 -0.076479 33.5546 0.0638635C29.6464 0.204206 26.4918 1.89442 24.0968 5.36332C24.0278 4.96033 23.9972 4.55172 24.0052 4.14295C24.2157 2.88597 23.63 2.58698 22.4798 2.67545C21.2607 2.75365 20.0378 2.75365 18.8187 2.67545C18.4696 2.63963 18.1177 2.70731 17.8069 2.87007C17.496 3.03282 17.2399 3.28345 17.0705 3.59073C15.6701 5.64401 14.1752 7.63321 12.7748 9.69258C12.2683 10.434 11.951 10.5224 11.3592 9.77191C10.2547 8.38069 9.05876 7.06574 7.90857 5.71113C5.25731 2.58088 5.25731 2.57783 1.17517 2.70292C1.12443 2.7075 1.07337 2.7075 1.02262 2.70292C0.320912 2.61139 0.0432765 2.86462 0.0493784 3.6182C0.0798877 7.83458 -0.0970724 12.0571 0.128696 16.2612C0.238529 18.3145 2.13316 16.847 3.17963 17.1338C3.7471 17.2924 5.02849 17.8172 4.99188 16.2185C4.94612 14.2995 4.97967 12.4232 4.97967 10.5377Z" fill="#FEFEFE"/>
<path d="M4.97984 10.5377C4.97984 12.414 4.94628 14.2903 4.97984 16.1636C5.01645 17.7714 3.73506 17.2467 3.16759 17.0789C2.13638 16.7921 0.241763 18.2596 0.116676 16.2063C-0.109093 12.0021 0.0678577 7.77965 0.0373485 3.56327C0.0373485 2.80664 0.308872 2.55342 1.01059 2.648C1.06133 2.65258 1.11239 2.65258 1.16313 2.648C5.24527 2.52291 5.24527 2.52595 7.89653 5.6562C9.04673 7.01081 10.2427 8.32576 11.3471 9.71698C11.939 10.4675 12.2624 10.379 12.7628 9.63766C14.1631 7.58744 15.6581 5.59823 17.0585 3.53581C17.2279 3.22853 17.484 2.9779 17.7948 2.81514C18.1057 2.65239 18.4576 2.5847 18.8066 2.62053C20.0258 2.69872 21.2486 2.69872 22.4677 2.62053C23.6149 2.53205 24.2007 2.83104 23.9932 4.08802C23.9852 4.49679 24.0158 4.9054 24.0847 5.30839C26.4919 1.85475 29.6649 0.146229 33.5426 0.00893716C37.4203 -0.128354 40.7947 1.31474 43.3117 4.43583C44.0744 4.03006 43.0737 2.89512 44.0683 2.72427C44.7254 2.66064 45.3866 2.65043 46.0453 2.69375C51.836 2.69375 57.6256 2.69375 63.4142 2.69375C63.5149 2.69375 63.6156 2.72122 64 2.77918L54.6733 12.4933C57.3063 12.4933 59.5548 12.5452 61.8155 12.4689C62.8223 12.4323 63.1091 12.7252 63.1122 13.732C63.1274 17.207 63.1671 17.207 59.7562 17.207C54.5238 17.207 49.2945 17.2528 44.0622 17.1765C42.6567 17.1134 41.2652 17.4783 40.0716 18.223C35.0681 21.2739 28.5971 20.0291 24.8353 15.4771C24.6553 15.2605 24.5637 14.9219 24.1885 14.9249C23.7491 17.1612 23.7491 17.1613 21.3481 17.1613C20.9935 17.1399 20.6379 17.1399 20.2833 17.1613C19.368 17.2711 19.0355 16.9019 19.0629 15.9622C19.1117 14.1866 19.0416 12.411 19.0141 10.6323C19.0141 10.5926 18.9744 10.556 18.8585 10.3272C17.1164 12.4903 15.4293 14.5985 13.7238 16.6975C12.5919 18.0918 12.0702 18.0948 10.8712 16.728C9.01011 14.6066 7.15311 12.4832 5.30019 10.3577L4.97984 10.5377ZM33.9392 14.3025C36.7247 14.3239 39.0129 12.3621 39.0404 9.93055C39.0709 7.59354 36.7979 5.51587 34.1589 5.45485C31.4619 5.39383 29.1035 7.4471 29.0852 9.87259C29.0669 12.2981 31.2514 14.2903 33.9392 14.3117V14.3025ZM43.751 14.9127L51.0915 7.5905C49.5325 7.5905 47.8087 7.62101 46.088 7.5905C45.1941 7.56609 44.7456 7.70948 45.0568 8.77121C45.31 9.64682 45.1178 10.5682 45.0049 11.4804C44.8402 12.8625 44.0134 13.9822 43.751 14.931V14.9127ZM43.5191 15.7731C43.5771 15.709 43.6717 15.6449 43.6869 15.5656C43.7022 15.4863 43.5313 15.3917 43.5161 15.4009C43.4203 15.4773 43.3315 15.562 43.2507 15.6541L43.5191 15.7731Z" fill="#0495DC"/>
<path d="M33.9396 14.3117C31.2517 14.2903 29.0581 12.292 29.0764 9.88173C29.0947 7.4715 31.453 5.40298 34.15 5.46399C36.7983 5.52501 39.0712 7.59964 39.0315 9.9397C39.0132 12.3682 36.725 14.333 33.9396 14.3117Z" fill="#FAFCFD"/>
<path d="M43.7508 14.931C44.0132 13.9822 44.84 12.8625 45.0047 11.4987C45.1176 10.5835 45.3098 9.66818 45.0566 8.78952C44.7515 7.7278 45.1939 7.5844 46.0878 7.60881C47.8085 7.65152 49.5323 7.60881 51.0913 7.60881L43.7508 14.931Z" fill="#F4F9FC"/>
<path d="M43.5191 15.7914L43.2506 15.6724C43.3315 15.5803 43.4203 15.4956 43.5161 15.4192C43.5313 15.4192 43.6961 15.5381 43.6869 15.5839C43.6778 15.6297 43.5771 15.7242 43.5191 15.7914Z" fill="#F4F9FC"/>
</svg>
