<svg width="59" height="58" viewBox="0 0 59 58" fill="none" xmlns="http://www.w3.org/2000/svg">
<path d="M48.8906 0.90625H11.1094C5.4916 0.90625 0.9375 5.46035 0.9375 11.0781V46.9219C0.9375 52.5396 5.4916 57.0938 11.1094 57.0938H48.8906C54.5084 57.0938 59.0625 52.5396 59.0625 46.9219V11.0781C59.0625 5.46035 54.5084 0.90625 48.8906 0.90625Z" fill="#001E36"/>
<path d="M15.0469 42.2912V15.9219C15.0422 15.8851 15.0459 15.8478 15.0579 15.8127C15.0698 15.7776 15.0897 15.7458 15.1159 15.7196C15.1421 15.6934 15.1739 15.6735 15.209 15.6616C15.2441 15.6496 15.2814 15.6459 15.3182 15.6506C17.2823 15.5998 19.6 15.4375 22.6225 15.4375C26.1875 15.4375 28.8032 16.181 30.4694 17.7819C31.2789 18.5393 31.9198 19.4586 32.3504 20.4801C32.7811 21.5016 32.9918 22.6023 32.9688 23.7106C32.9688 26.6314 31.9355 28.8014 29.8688 30.2206C27.8021 31.6398 25.2027 32.3503 22.0704 32.3519L19.8907 32.3906V42.2525C19.8968 42.2946 19.8929 42.3376 19.8795 42.378C19.8661 42.4184 19.8434 42.4551 19.8133 42.4852C19.7832 42.5152 19.7465 42.5379 19.7061 42.5513C19.6658 42.5648 19.6228 42.5686 19.5807 42.5625H15.3569C15.1511 42.5625 15.0469 42.4729 15.0469 42.2912ZM19.8907 19.2205V28.7578C19.8907 28.7578 20.995 28.7142 22.3125 28.7142C24.045 28.7142 25.4465 28.3332 26.5169 27.5711C27.5874 26.809 28.1234 25.5609 28.125 23.8269C28.125 22.3027 27.6536 21.1273 26.7107 20.3006C25.7678 19.474 24.405 19.0639 22.6225 19.0703C22.1842 19.0703 21.7507 19.0703 21.3244 19.0897C20.8982 19.1091 20.5494 19.1091 20.2782 19.1091C20.0069 19.1091 19.8616 19.0994 19.8907 19.2205ZM48.9532 36.2656C48.9532 39.2324 47.0157 40.625 47.0157 40.625V40.6105C46.8994 40.7243 46.7735 40.8309 46.65 40.935C45.3163 42.02 43.5136 42.5625 41.2419 42.5625C38.9702 42.5625 37.1134 42.1443 35.6716 41.308C35.5919 41.2802 35.5242 41.2258 35.4801 41.1538C35.4359 41.0819 35.418 40.9968 35.4294 40.9132V37.2634C35.4258 37.2222 35.4328 37.1808 35.4498 37.143C35.4667 37.1053 35.4931 37.0725 35.5263 37.0479C35.5526 37.0289 35.585 37.0204 35.6172 37.024C35.6494 37.0276 35.6792 37.043 35.7007 37.0673C37.2376 38.275 39.1323 38.9377 41.0869 38.9515C41.9895 38.9515 42.6805 38.79 43.16 38.4671C43.3811 38.3353 43.5642 38.1484 43.6916 37.9247C43.8189 37.701 43.8861 37.4482 43.8866 37.1908C43.8918 36.931 43.8428 36.673 43.7427 36.4332C43.6426 36.1935 43.4937 35.9772 43.3054 35.7982C42.9179 35.4172 42.1558 35.0046 41.0191 34.5606C38.9508 33.7533 37.5106 32.8831 36.6985 31.9498C35.8389 31.0148 35.3708 29.7856 35.3907 28.5156C35.3912 27.7256 35.5609 26.9448 35.8884 26.2258C36.2159 25.5069 36.6936 24.8664 37.2894 24.3476C38.502 23.248 40.2328 22.6983 42.4819 22.6983C44.5809 22.6983 46.1955 22.9865 47.3257 23.5629C47.454 23.6404 47.5194 23.8051 47.5194 24.0715V27.3289C47.5194 27.6437 47.4032 27.7212 47.1707 27.5711C45.8234 26.6859 44.2489 26.2091 42.6369 26.1979C41.7311 26.1979 41.0675 26.3698 40.6413 26.7089C40.4473 26.8466 40.2884 27.0279 40.1774 27.2382C40.0663 27.4485 40.0062 27.682 40.0019 27.9198C40.0012 28.1525 40.0491 28.3828 40.1425 28.5959C40.2359 28.809 40.3728 29.0003 40.5444 29.1574C40.9061 29.511 41.6682 29.9227 42.8307 30.3926C44.8586 31.1853 46.3117 32.0185 47.19 32.892L47.2118 32.9137C48.1152 33.7444 48.9532 34.8876 48.9532 36.2656Z" fill="#31A8FF"/>
</svg>
