<svg width="67" height="30" viewBox="0 0 67 30" fill="none" xmlns="http://www.w3.org/2000/svg">
<path d="M28.4167 0.255004C30.3333 0.255004 32.2442 0.24917 34.1575 0.255004C35.4475 0.260004 36.715 0.421671 37.9308 0.878338C40.4383 1.8225 42.0975 3.57667 42.7892 6.16167C43.5625 9.03667 42.9392 11.6383 41.0392 13.9183C40.0225 15.1383 38.71 15.9375 37.195 16.4117C35.8075 16.8467 34.3858 16.9117 32.945 16.8417C31.396 16.7659 29.8595 16.5248 28.3617 16.1225C26.7226 15.6798 25.1295 15.0815 23.6042 14.3358C22.3825 13.7425 21.2125 13.0692 20.1667 12.195C20.0684 12.1138 19.9749 12.027 19.8867 11.935C19.7667 11.8075 19.6867 11.6575 19.77 11.4825C19.8533 11.3075 20.01 11.2892 20.18 11.2892C21.6378 11.2892 23.0953 11.2892 24.5525 11.2892C24.6136 11.292 24.6749 11.2906 24.7358 11.285C24.8983 11.2642 25.0408 11.2067 25.0892 11.0308C25.1375 10.855 25.05 10.7292 24.9133 10.6333C24.7395 10.5245 24.5573 10.4298 24.3683 10.35C22.9045 9.62778 21.4745 8.84445 20.0783 8.00001C18.9069 7.30882 17.7855 6.53608 16.7225 5.6875C16.3449 5.37902 15.9833 5.05136 15.6392 4.70584C15.5239 4.60782 15.4455 4.47352 15.4167 4.325C15.3817 4.0425 15.53 3.86334 15.8133 3.84917C15.8633 3.84917 15.9133 3.84917 15.9642 3.84917H25.6083C25.7082 3.85591 25.8084 3.84462 25.9042 3.81584C25.9633 3.79874 26.0163 3.76497 26.0568 3.71857C26.0973 3.67217 26.1236 3.6151 26.1325 3.55417C26.1434 3.4935 26.1361 3.43095 26.1115 3.37444C26.0869 3.31792 26.046 3.26998 25.9942 3.23667C25.76 3.07 25.4833 2.99667 25.2242 2.885C24.0467 2.37834 22.8842 1.84167 21.8158 1.12334C21.6877 1.04539 21.57 0.951287 21.4658 0.843337C21.4215 0.8005 21.3899 0.746211 21.3746 0.686502C21.3593 0.626793 21.3608 0.564003 21.379 0.505113C21.3973 0.446223 21.4314 0.393537 21.4778 0.352914C21.5242 0.312291 21.5809 0.285322 21.6417 0.275003C21.7173 0.257588 21.7949 0.250026 21.8725 0.252504L28.4167 0.255004ZM34.8458 14.1158C37.895 14.1067 40.3792 11.8092 40.5125 8.70334C40.6492 5.54584 38.2383 3.01917 35.1117 2.8875C31.9717 2.755 29.24 5.17084 29.1875 8.38C29.1358 11.4292 31.5742 14.0617 34.8433 14.1158H34.8458Z" fill="#FE622C"/>
<path d="M28.8033 25.3558C28.8033 26.5567 28.8033 27.7567 28.8033 28.9567C28.8033 29.0742 28.7858 29.1183 28.6533 29.1158C28.1533 29.1064 27.6533 29.1064 27.1533 29.1158C27.0217 29.1158 27.0017 29.0725 27.0017 28.9558C27.0061 27.0175 27.0061 25.0789 27.0017 23.14C27.0046 23.1123 27.0046 23.0844 27.0017 23.0567C26.9917 23.0142 27.035 22.9458 26.9575 22.9333C26.88 22.9208 26.8808 22.9817 26.8658 23.0292L26.605 23.8333C26.0383 25.5556 25.4731 27.2778 24.9092 29C24.8775 29.0958 24.8325 29.1133 24.7425 29.1133C23.8969 29.11 23.0514 29.11 22.2058 29.1133C22.185 29.1164 22.1637 29.1153 22.1433 29.1101C22.1229 29.105 22.1036 29.0958 22.0868 29.0832C22.0699 29.0706 22.0557 29.0547 22.0449 29.0366C22.0342 29.0185 22.0271 28.9984 22.0242 28.9775C21.3831 27.0058 20.7397 25.0353 20.0942 23.0658C20.0842 23.0342 20.0717 23.0033 20.0608 22.9717C20.05 22.94 20.0167 22.9267 19.9817 22.9325C19.9467 22.9383 19.9467 22.97 19.9458 22.9975C19.945 23.025 19.9458 23.075 19.9458 23.1142C19.9458 25.0492 19.9458 26.9842 19.95 28.9192C19.95 29.0858 19.9033 29.1183 19.7475 29.1142C19.2808 29.1033 18.8133 29.1075 18.3458 29.1142C18.2375 29.1142 18.2067 29.0867 18.2067 28.9767C18.21 26.5578 18.21 24.1389 18.2067 21.72C18.2067 21.6042 18.2367 21.5717 18.3542 21.5717C19.3386 21.5767 20.3231 21.5767 21.3075 21.5717C21.4267 21.5717 21.4658 21.6133 21.4992 21.7183C22.1414 23.7311 22.7867 25.7422 23.435 27.7517C23.44 27.7675 23.445 27.7833 23.4517 27.7992C23.4717 27.8458 23.4642 27.915 23.5475 27.9117C23.6308 27.9083 23.6142 27.845 23.6308 27.8042C23.7567 27.42 23.8808 27.0342 24.0017 26.6492C24.5278 25.0019 25.0531 23.3544 25.5775 21.7067C25.5803 21.6857 25.5874 21.6655 25.5981 21.6473C25.6089 21.6291 25.6232 21.6132 25.6402 21.6006C25.6572 21.588 25.6766 21.579 25.6972 21.574C25.7178 21.569 25.7391 21.5682 25.76 21.5717C26.7283 21.5767 27.6964 21.5767 28.6642 21.5717C28.7833 21.5717 28.8083 21.6058 28.8075 21.7208C28.8075 22.9325 28.8075 24.1442 28.8075 25.355L28.8033 25.3558Z" fill="#020202"/>
<path d="M30.4933 25.35C30.4933 24.1483 30.4933 22.9475 30.4933 21.7467C30.4933 21.6092 30.525 21.5717 30.6658 21.5725C32.4742 21.5775 34.2817 21.5725 36.09 21.5775C36.66 21.5775 37.2067 21.6983 37.6808 22.0375C38.3475 22.5167 38.6175 23.2042 38.6325 23.9967C38.655 25.2408 37.9658 26.1342 36.7408 26.4608C36.5967 26.4992 36.6033 26.5242 36.6908 26.6275C37.305 27.3525 37.9125 28.0825 38.5242 28.8117C38.555 28.8438 38.5829 28.8787 38.6075 28.9158C38.6767 29.0358 38.6333 29.1117 38.4983 29.1117C37.8975 29.1117 37.2967 29.1117 36.6958 29.1117C36.6581 29.1138 36.6204 29.1064 36.5864 29.0901C36.5523 29.0737 36.5228 29.0491 36.5008 29.0183C35.8583 28.23 35.2108 27.4458 34.57 26.6567C34.542 26.6171 34.5043 26.5854 34.4605 26.5646C34.4168 26.5437 34.3684 26.5344 34.32 26.5375C33.7142 26.5425 33.1075 26.545 32.5017 26.5375C32.3592 26.5375 32.315 26.5642 32.3167 26.715C32.3258 27.4592 32.3167 28.2025 32.3233 28.9467C32.3233 29.0733 32.3025 29.1133 32.165 29.1133C31.665 29.1042 31.165 29.105 30.665 29.1133C30.5367 29.1133 30.4983 29.085 30.4983 28.9517C30.5 27.75 30.4933 26.5508 30.4933 25.35ZM34.2167 25.0117V25.0067C34.8108 25.0067 35.4058 25.0233 35.9992 25.0017C36.6325 24.9792 36.9992 24.4683 36.8592 23.85C36.7583 23.4067 36.3958 23.1433 35.8592 23.1417C34.7217 23.1375 33.5842 23.1417 32.4475 23.1375C32.3342 23.1375 32.3075 23.1717 32.3083 23.2783C32.3122 23.8106 32.3122 24.3431 32.3083 24.8758C32.3083 24.9825 32.3342 25.0158 32.4467 25.015C33.0383 25.0092 33.6275 25.0117 34.2167 25.0117Z" fill="#010101"/>
<path d="M0.635016 26.535C1.03387 26.7794 1.45389 26.9875 1.89002 27.1567C3.14001 27.6308 4.42751 27.8167 5.75918 27.6083C5.97973 27.5779 6.19212 27.5043 6.38418 27.3917C6.49099 27.3357 6.57825 27.2486 6.63436 27.1419C6.69047 27.0351 6.71279 26.9139 6.69835 26.7942C6.67335 26.5383 6.50751 26.3917 6.27751 26.3067C5.92251 26.1742 5.54668 26.1775 5.17752 26.14C4.33752 26.0567 3.49252 26.02 2.65918 25.8733C2.13502 25.7817 1.63252 25.6233 1.21668 25.2733C0.32835 24.5325 0.339183 23.0583 1.23168 22.2642C1.79335 21.7642 2.47168 21.5275 3.19835 21.4392C4.81585 21.2433 6.38835 21.4225 7.89501 22.0733C7.94982 22.0877 7.99755 22.1214 8.02929 22.1683C8.06103 22.2153 8.07461 22.2721 8.06751 22.3283C8.05668 22.8233 8.06335 23.3175 8.06335 23.8142C8.00751 23.8392 7.96668 23.8017 7.92501 23.7825C6.53918 23.1525 5.08418 22.9283 3.57335 23.0417C3.27851 23.0541 2.98844 23.1205 2.71752 23.2375C2.49085 23.3425 2.32835 23.4983 2.33752 23.77C2.34668 24.0417 2.50418 24.1867 2.74168 24.2842C3.10501 24.4292 3.49168 24.425 3.87085 24.4692C4.75335 24.5725 5.64418 24.5983 6.51835 24.7692C6.84607 24.8301 7.16269 24.9403 7.45751 25.0958C8.20751 25.4983 8.55668 26.1892 8.46418 27.0333C8.37335 27.8592 7.92418 28.4242 7.21418 28.8008C6.53668 29.1583 5.79751 29.2867 5.04752 29.3167C3.55418 29.3775 2.13085 29.1225 0.811683 28.3808C0.753018 28.3546 0.704296 28.3103 0.672654 28.2543C0.641013 28.1984 0.628115 28.1338 0.63585 28.07C0.641683 27.5675 0.635016 27.0633 0.635016 26.535Z" fill="#020202"/>
<path d="M49.0584 26.54C49.5063 26.8144 49.9809 27.0425 50.475 27.2208C51.5985 27.6365 52.8047 27.7793 53.9942 27.6375C54.2917 27.6 54.5842 27.5358 54.8408 27.3617C54.9407 27.2992 55.0193 27.208 55.0663 27.1C55.1133 26.992 55.1265 26.8723 55.1042 26.7567C55.0725 26.52 54.91 26.3908 54.7033 26.3092C54.4719 26.2298 54.2303 26.1841 53.9858 26.1733C53.0692 26.09 52.1467 26.035 51.2359 25.9017C50.7109 25.8258 50.2042 25.6817 49.7609 25.3717C49.1484 24.9433 48.9359 24.3325 48.9884 23.6158C49.0534 22.7208 49.5892 22.1642 50.36 21.7992C51.0884 21.4542 51.8683 21.3617 52.6642 21.3642C53.9142 21.3642 55.1292 21.555 56.285 22.0608C56.3495 22.0788 56.4052 22.1197 56.4415 22.1759C56.4779 22.2321 56.4925 22.2996 56.4825 22.3658C56.47 22.8492 56.4775 23.3325 56.4775 23.825C56.3852 23.811 56.297 23.7778 56.2183 23.7275C54.8093 23.1164 53.2633 22.8904 51.7383 23.0725C51.4941 23.0938 51.257 23.1662 51.0425 23.285C50.9544 23.3278 50.8802 23.3948 50.8288 23.4782C50.7773 23.5616 50.7505 23.6578 50.7517 23.7558C50.7509 23.8596 50.7806 23.9613 50.837 24.0484C50.8934 24.1355 50.9742 24.2041 51.0692 24.2458C51.3434 24.385 51.645 24.4042 51.9425 24.4367C52.8867 24.5392 53.8375 24.585 54.7758 24.7392C55.256 24.8054 55.7149 24.9801 56.1175 25.25C56.3075 25.377 56.4697 25.5413 56.5945 25.7328C56.7192 25.9243 56.8039 26.139 56.8433 26.3642C57.0383 27.4033 56.5833 28.3125 55.62 28.8108C55.0225 29.12 54.3783 29.2575 53.7158 29.3108C52.4379 29.4184 51.1524 29.2264 49.9617 28.75C49.6784 28.636 49.4052 28.4983 49.145 28.3383C49.1177 28.3259 49.0947 28.3057 49.079 28.2801C49.0633 28.2546 49.0555 28.225 49.0567 28.195C49.06 27.6525 49.0584 27.1133 49.0584 26.54Z" fill="#020202"/>
<path d="M9.65749 25.3467C9.65749 24.1567 9.65749 22.9675 9.65332 21.7775C9.65332 21.6067 9.69999 21.5708 9.86582 21.5717C12.0842 21.5772 14.303 21.5772 16.5225 21.5717C16.6633 21.5717 16.6975 21.6075 16.6942 21.745C16.6842 22.15 16.6833 22.5567 16.6942 22.9625C16.6983 23.0992 16.65 23.1292 16.5275 23.1292C14.8969 23.1253 13.2661 23.1236 11.635 23.1242C11.34 23.1242 11.3967 23.0958 11.3933 23.3575C11.3933 23.68 11.4042 24.0025 11.3883 24.3242C11.38 24.4908 11.4383 24.5192 11.5917 24.5183C13.1983 24.5125 14.8058 24.5183 16.4133 24.5117C16.56 24.5117 16.6133 24.5408 16.6092 24.6992C16.5967 25.095 16.6 25.4917 16.6092 25.8883C16.6092 26.0167 16.5775 26.055 16.4425 26.055C14.8192 26.05 13.1925 26.055 11.5708 26.0475C11.4233 26.0475 11.3842 26.0833 11.3883 26.2308C11.3992 26.625 11.3975 27.02 11.3883 27.415C11.3883 27.5458 11.4217 27.5817 11.555 27.5817C13.2067 27.5767 14.8575 27.5817 16.5092 27.5742C16.6675 27.5742 16.6967 27.6217 16.6933 27.7658C16.6833 28.1767 16.6867 28.5883 16.6933 29C16.6933 29.0925 16.6708 29.12 16.575 29.12C14.3117 29.12 12.048 29.12 9.78415 29.12C9.65915 29.12 9.65665 29.0642 9.65665 28.9708C9.65777 27.7608 9.65804 26.5528 9.65749 25.3467Z" fill="#020202"/>
<path d="M66.1242 25.3475C66.1242 26.5475 66.1242 27.7475 66.1242 28.9483C66.1242 29.0908 66.0842 29.115 65.95 29.115C65.4825 29.1058 65.015 29.1075 64.5483 29.115C64.4375 29.115 64.4117 29.0833 64.4117 28.9767C64.4117 28.0875 64.4117 27.1983 64.4175 26.31C64.4175 26.18 64.3858 26.1433 64.2508 26.1433C62.8325 26.1483 61.4142 26.1483 59.9958 26.1433C59.8675 26.1433 59.8292 26.1725 59.8292 26.3058C59.8358 27.1858 59.8292 28.065 59.8358 28.9442C59.8358 29.0867 59.7958 29.1175 59.6608 29.1158C59.1492 29.1075 58.6375 29.1092 58.1258 29.1158C58.0108 29.1158 57.9775 29.0875 57.9775 28.9692C57.9808 26.5558 57.9808 24.1425 57.9775 21.7292C57.9775 21.6025 58.0125 21.5717 58.1358 21.5733C58.6536 21.5811 59.1711 21.5811 59.6883 21.5733C59.8083 21.5733 59.8367 21.6108 59.8358 21.7242C59.8317 22.5758 59.8358 23.4283 59.83 24.28C59.83 24.395 59.8475 24.44 59.9817 24.4392C61.4078 24.4336 62.8339 24.4336 64.26 24.4392C64.3825 24.4392 64.4183 24.4083 64.4175 24.2817C64.4108 23.4317 64.4175 22.5808 64.4117 21.7308C64.4117 21.6058 64.4408 21.5717 64.5675 21.5733C65.0342 21.5808 65.5017 21.5817 65.9692 21.5733C66.0983 21.5733 66.1233 21.6092 66.1233 21.7308C66.1225 22.9358 66.1242 24.1417 66.1242 25.3475Z" fill="#020202"/>
<path d="M39.6667 23.75C39.6667 23.0767 39.6667 22.4042 39.6667 21.7317C39.6667 21.615 39.6825 21.565 39.8175 21.565C40.3236 21.5744 40.8298 21.5744 41.3359 21.565C41.4684 21.565 41.4884 21.6092 41.4884 21.7317C41.4884 22.955 41.4884 24.1783 41.4884 25.3983C41.4785 25.7598 41.5396 26.1196 41.6684 26.4575C41.7689 26.7236 41.9302 26.9627 42.1394 27.1555C42.3486 27.3483 42.5999 27.4897 42.8734 27.5683C43.4012 27.7341 43.9664 27.7384 44.4967 27.5808C45.2867 27.3533 45.8125 26.6933 45.9017 25.8383C45.9207 25.6559 45.9302 25.4726 45.93 25.2892C45.93 24.105 45.93 22.9208 45.9259 21.7358C45.9259 21.595 45.9659 21.5633 46.1017 21.5692C46.5967 21.5775 47.0917 21.575 47.5867 21.5692C47.6959 21.5692 47.7425 21.585 47.7417 21.7108C47.7367 22.9833 47.75 24.2558 47.735 25.5275C47.725 26.3417 47.5309 27.1108 47.06 27.7925C46.5059 28.5942 45.7159 29.0425 44.7775 29.2258C43.9249 29.4068 43.0401 29.3648 42.2084 29.1042C40.9059 28.6875 40.125 27.7917 39.8034 26.4733C39.712 26.0847 39.6662 25.6867 39.6667 25.2875C39.6667 24.7758 39.6667 24.265 39.6667 23.75Z" fill="#020202"/>
<path d="M34.8433 14.1158C31.5741 14.0617 29.1358 11.4292 29.1858 8.37999C29.2383 5.17082 31.97 2.75499 35.11 2.88749C38.2367 3.01916 40.6475 5.54582 40.5108 8.70332C40.3767 11.8092 37.8925 14.1067 34.8433 14.1158ZM38.4017 9.04832C38.4958 9.04832 38.5908 9.05499 38.685 9.04832C39.1591 9.01082 39.2983 8.85749 39.2891 8.38166C39.2758 7.50835 38.9776 6.6633 38.44 5.97499C37.5325 4.79166 36.3183 4.21166 34.8275 4.21333C34.5691 4.21333 34.4333 4.31583 34.3841 4.55249C34.324 4.84738 34.3226 5.15122 34.38 5.44666C34.395 5.53804 34.4383 5.62241 34.5037 5.68789C34.5692 5.75337 34.6536 5.79666 34.745 5.81166C34.8212 5.82743 34.8983 5.83856 34.9758 5.84499C36.1892 5.96583 37.0808 6.72666 37.3833 7.91082C37.4466 8.15666 37.4816 8.41082 37.5341 8.66082C37.5816 8.88499 37.7316 8.99416 37.9508 9.02666C38.0999 9.04987 38.251 9.05713 38.4017 9.04832Z" fill="#FEFEFD"/>
<path d="M34.2167 25.0117C33.6275 25.0117 33.0383 25.0117 32.45 25.0117C32.3375 25.0117 32.3108 24.9792 32.3117 24.8725C32.3156 24.3397 32.3156 23.8072 32.3117 23.275C32.3117 23.1683 32.3375 23.1333 32.4508 23.1342C33.5875 23.1383 34.725 23.1342 35.8625 23.1383C36.3958 23.1383 36.7583 23.4033 36.8625 23.8467C37 24.4683 36.6325 24.9792 36 25C35.4067 25.0217 34.8117 25.005 34.2175 25.005L34.2167 25.0117Z" fill="#FEFEFD"/>
<path d="M38.4017 9.04832C38.2519 9.05695 38.1016 9.04969 37.9534 9.02665C37.7317 8.99415 37.5817 8.88499 37.5367 8.66082C37.4842 8.41082 37.4534 8.16082 37.3859 7.91082C37.0834 6.72665 36.1917 5.96582 34.9784 5.84499C34.9008 5.83855 34.8237 5.82742 34.7475 5.81165C34.6561 5.79666 34.5718 5.75337 34.5063 5.68789C34.4408 5.62241 34.3975 5.53803 34.3825 5.44665C34.3251 5.15122 34.3266 4.84737 34.3867 4.55249C34.4359 4.31582 34.5717 4.21332 34.83 4.21332C36.3209 4.21332 37.535 4.79165 38.4425 5.97499C38.9802 6.6633 39.2784 7.50835 39.2917 8.38165C39.3009 8.85582 39.1617 9.00915 38.6875 9.04832C38.5909 9.05499 38.5 9.04832 38.4017 9.04832Z" fill="#FE622C"/>
</svg>
