<svg width="60" height="28" viewBox="0 0 60 28" fill="none" xmlns="http://www.w3.org/2000/svg">
<path d="M11.2047 15.2657C5.94466 15.2657 1.54183 13.7239 0.338422 11.6366C0.125795 12.0062 0 12.3869 0 12.7799V16.1886C0 18.8236 5.01622 20.9566 11.2047 20.9566C17.3931 20.9566 22.4105 18.8236 22.4105 16.1886V12.7799C22.4105 12.3858 22.2847 12.0062 22.0709 11.6366C20.8686 13.7239 16.4669 15.2657 11.2047 15.2657Z" fill="#030104"/>
<path d="M11.2047 22.3081C5.94466 22.3081 1.54183 20.7596 0.338422 18.6812C0.125795 19.0463 0 19.4248 0 19.8211V23.232C0 25.8648 5.01622 28 11.2047 28C17.3931 28 22.4105 25.8648 22.4105 23.232V19.8211C22.4105 19.4259 22.2847 19.0474 22.0709 18.6823C20.8686 20.7596 16.4669 22.3081 11.2047 22.3081Z" fill="#030104"/>
<path d="M22.1032 4.82474C21.8861 6.75285 17.0981 8.29691 11.2058 8.29691C5.31568 8.29691 0.525445 6.75285 0.308365 4.82474C0.116889 5.17652 0 5.54055 0 5.9157V9.32331C0 11.9606 5.01622 14.0913 11.2047 14.0913C17.3931 14.0913 22.4105 11.9606 22.4105 9.32331V5.9157C22.4116 5.54055 22.2958 5.17652 22.1032 4.82474Z" fill="#030104"/>
<path d="M11.2055 7.21597C17.2351 7.21597 22.123 5.60062 22.123 3.60798C22.123 1.61535 17.2351 0 11.2055 0C5.176 0 0.288086 1.61535 0.288086 3.60798C0.288086 5.60062 5.176 7.21597 11.2055 7.21597Z" fill="#030104"/>
<path d="M28.4251 15.35C28.4251 15.75 28.5801 16.08 28.8901 16.34C29.2101 16.6 29.6051 16.785 30.0751 16.895C30.5451 16.995 31.0551 17.125 31.6051 17.285C32.1651 17.435 32.6801 17.6 33.1501 17.78C33.6201 17.96 34.0101 18.26 34.3201 18.68C34.6401 19.09 34.8001 19.605 34.8001 20.225C34.8001 21.085 34.4451 21.79 33.7351 22.34C33.0351 22.88 32.0551 23.15 30.7951 23.15C29.5351 23.15 28.3351 22.88 27.1951 22.34V21.005H27.2701C28.3101 21.585 29.4951 21.875 30.8251 21.875C32.5751 21.875 33.4501 21.295 33.4501 20.135C33.4501 19.565 33.0251 19.145 32.1751 18.875C31.8051 18.755 31.3951 18.64 30.9451 18.53C30.4951 18.42 30.0401 18.29 29.5801 18.14C29.1301 17.99 28.7151 17.815 28.3351 17.615C27.9651 17.405 27.6601 17.12 27.4201 16.76C27.1901 16.39 27.0751 15.955 27.0751 15.455C27.0751 14.585 27.4151 13.855 28.0951 13.265C28.7851 12.675 29.7101 12.38 30.8701 12.38C32.0401 12.38 33.0951 12.56 34.0351 12.92V14.195H33.9301C32.9901 13.815 32.0851 13.625 31.2151 13.625C30.3551 13.625 29.6751 13.78 29.1751 14.09C28.6751 14.39 28.4251 14.81 28.4251 15.35ZM43.7282 22.73V22.775L45.7682 25.055V25.1H44.0882L42.4382 23.09C42.1882 23.13 41.8882 23.15 41.5382 23.15C39.9582 23.15 38.6932 22.65 37.7432 21.65C36.7932 20.65 36.3032 19.355 36.2732 17.765C36.3032 16.175 36.7932 14.88 37.7432 13.88C38.6932 12.88 39.9582 12.38 41.5382 12.38C43.1182 12.38 44.3832 12.88 45.3332 13.88C46.2832 14.88 46.7732 16.175 46.8032 17.765C46.7832 18.935 46.4982 19.96 45.9482 20.84C45.4082 21.71 44.6682 22.34 43.7282 22.73ZM37.6382 17.765C37.6382 18.955 37.9832 19.94 38.6732 20.72C39.3732 21.49 40.3232 21.875 41.5232 21.875C42.7332 21.875 43.6882 21.49 44.3882 20.72C45.0882 19.94 45.4382 18.955 45.4382 17.765C45.4382 16.575 45.0882 15.595 44.3882 14.825C43.6882 14.045 42.7332 13.655 41.5232 13.655C40.3232 13.655 39.3732 14.045 38.6732 14.825C37.9832 15.595 37.6382 16.575 37.6382 17.765ZM55.9611 21.635V23H49.0761V12.53H50.4411V21.635H55.9611Z" fill="black"/>
</svg>
