<svg width="51" height="47" viewBox="0 0 51 47" fill="none" xmlns="http://www.w3.org/2000/svg">
<path d="M50.2428 10.6328C50.235 10.6115 50.2257 10.5906 50.2149 10.5704C50.2007 10.5309 50.183 10.4925 50.1621 10.4556C50.146 10.4327 50.128 10.4109 50.1083 10.3905C50.0864 10.3603 50.0625 10.3315 50.0366 10.3042C50.0137 10.284 49.9848 10.2675 49.9599 10.2491C49.9315 10.2266 49.9016 10.2057 49.8703 10.1867L40.2819 5.0993C40.1607 5.03484 40.0233 5.00091 39.8834 5.00091C39.7436 5.00091 39.6062 5.03484 39.485 5.0993L29.8946 10.1894C29.8638 10.2087 29.8346 10.2298 29.807 10.2528C29.7798 10.2696 29.7539 10.288 29.7293 10.3079C29.7032 10.3347 29.6792 10.3632 29.6575 10.3932C29.6406 10.4153 29.6187 10.4345 29.6038 10.4584C29.5836 10.4955 29.5663 10.5338 29.552 10.5731C29.544 10.5943 29.531 10.6135 29.5241 10.6356C29.5058 10.6978 29.4964 10.762 29.4962 10.8265V20.4872L21.5055 24.7273V5.82358C21.5057 5.75875 21.4963 5.69421 21.4776 5.63172C21.4716 5.60969 21.4577 5.59041 21.4497 5.5693C21.4358 5.53013 21.4185 5.49207 21.3979 5.45547C21.384 5.4316 21.3611 5.41232 21.3441 5.38938C21.3222 5.35925 21.2983 5.33043 21.2724 5.30309C21.2476 5.2835 21.2217 5.26511 21.1947 5.24801C21.1668 5.22569 21.1376 5.20485 21.1071 5.18559L11.5157 0.0982045C11.3945 0.0337496 11.2571 -0.000183105 11.1173 -0.000183105C10.9774 -0.000183105 10.84 0.0337496 10.7188 0.0982045L1.12942 5.18559C1.09828 5.20435 1.06896 5.22554 1.04176 5.24893C1.01429 5.26573 0.988007 5.28413 0.963069 5.304C0.937306 5.33086 0.913671 5.35939 0.892347 5.38938C0.874417 5.41232 0.852503 5.4316 0.837562 5.45547C0.81715 5.49201 0.800155 5.53009 0.786761 5.5693C0.775882 5.58928 0.766237 5.60982 0.757874 5.6308C0.739549 5.69367 0.730173 5.75847 0.729983 5.82358V36.089C0.729602 36.2183 0.766241 36.3453 0.836201 36.4573C0.90616 36.5693 1.00696 36.6624 1.12842 36.727L20.3032 46.9018C20.3459 46.9216 20.3902 46.9381 20.4357 46.9513C20.4566 46.9587 20.4765 46.9697 20.4985 46.9752C20.6322 47.0082 20.7731 47.0082 20.9069 46.9752C20.9268 46.9706 20.9437 46.9605 20.9616 46.955C21.0097 46.9411 21.0564 46.9232 21.1011 46.9018L40.2819 36.727C40.4033 36.6624 40.5041 36.5693 40.5741 36.4573C40.6441 36.3453 40.6807 36.2183 40.6803 36.089V26.4265L49.8683 21.5511C49.9905 21.4861 50.0918 21.3924 50.1618 21.2795C50.2318 21.1666 50.268 21.0386 50.2667 20.9086V10.8247C50.2673 10.7601 50.2593 10.6956 50.2428 10.6328ZM11.1163 1.58623L19.1039 5.82266L11.1153 10.0618L3.12858 5.82358L11.1163 1.58623ZM19.9068 7.09404V25.5746L15.272 28.0338L11.9161 29.8147V11.3369L16.5509 8.87766L19.9068 7.09404ZM19.9068 44.986L2.32772 35.6631V7.09772L5.68356 8.87674L10.3174 11.3369V31.0897C10.3194 31.1175 10.3234 31.1451 10.3293 31.1724C10.3317 31.2088 10.3371 31.245 10.3453 31.2807C10.3554 31.3091 10.3681 31.3368 10.3831 31.3633C10.3942 31.3949 10.4082 31.4256 10.425 31.4551C10.4434 31.48 10.4633 31.5039 10.4847 31.5267C10.5047 31.5538 10.5266 31.5796 10.5505 31.6038C10.5734 31.624 10.6023 31.6387 10.6272 31.657C10.6544 31.6788 10.683 31.6991 10.7128 31.7176L19.8958 36.5076L19.9068 44.986ZM20.7037 35.2399L12.7289 31.0796L21.1051 26.6358L30.295 21.7604L38.2767 25.995L32.4197 29.0757L20.7037 35.2399ZM39.0836 35.6594L21.5035 44.9905V36.5168L34.5245 29.6687L39.0836 27.2682V35.6594ZM39.0836 24.7236L35.7277 22.9492L31.0929 20.49V12.0979L34.4488 13.8788L39.0836 16.3398V24.7236ZM39.8805 15.0593L31.8918 10.821L39.8805 6.58365L47.8671 10.8201L39.8805 15.0593ZM40.6773 24.7236V16.3398L45.3221 13.8788L48.677 12.0979V20.4872L40.6773 24.7236Z" fill="#FF2D20"/>
</svg>
