<svg width="47" height="47" viewBox="0 0 47 47" fill="none" xmlns="http://www.w3.org/2000/svg">
<path d="M18.1527 42.432L13.2998 41.0773L8.70978 35.8644L14.4511 35.7066L18.1527 42.432ZM6.93057 38.9942L4.19961 38.2324L1.61865 35.3005L4.7548 34.7868L6.93057 38.9942Z" fill="#995B80"/>
<path d="M0 34.9318L2.79136 35.4971L3.19655 34.7872V10.7004L2.79136 10.2321L0 11.8153V34.9318Z" fill="#7B3F65"/>
<path d="M13.5735 12.7494L2.79199 10.2321V35.4971L4.40725 35.3475L6.93056 38.9942L8.87666 34.9339L13.5735 34.499V12.7494Z" fill="#C17B9D"/>
<path d="M6.23438 36.2331L11.0194 37.1931L11.3344 36.4534V6.84883L11.0194 6.17865L6.23438 8.59386V36.2331Z" fill="#7B3F65"/>
<path d="M38.3223 14.9085L11.0195 6.17865V37.1938L14.1812 36.7886L18.1529 42.432L21.2971 35.8765L38.3223 33.6944V14.9085Z" fill="#C17B9D"/>
<path d="M33.3834 46.9046L26.4865 44.98L19.9673 37.5742L28.4187 37.4886L33.3834 46.9046Z" fill="#995B80"/>
<path d="M16.4482 38.211L23.4854 39.5673L24.0319 39.0981V0.755395L23.4854 0.00256348L16.4482 3.50578V38.211Z" fill="#7B3F65"/>
<path d="M47.0001 11.7116L23.4863 0.00256348V39.5673L27.635 38.7393L33.3835 46.9045L38.3224 36.6079L38.3192 36.6075L47.0001 34.8753V11.7116Z" fill="#C17B9D"/>
</svg>
