<svg width="41" height="41" viewBox="0 0 41 41" fill="none" xmlns="http://www.w3.org/2000/svg">
<path d="M20.3247 0.0115967C9.94242 0.0115967 10.5907 4.53205 10.5907 4.53205L10.6022 9.21537H20.5098V10.6214H6.66705C6.66705 10.6214 0.0234375 9.86494 0.0234375 20.3826C0.0234375 30.9007 5.82215 30.5276 5.82215 30.5276H9.2828V25.6469C9.2828 25.6469 9.09623 19.8249 14.9889 19.8249H24.8155C24.8155 19.8249 30.3364 19.9144 30.3364 14.4677V5.46186C30.3364 5.46186 31.1749 0.0115967 20.3247 0.0115967ZM14.8616 3.16104C15.0958 3.16083 15.3276 3.20697 15.544 3.29683C15.7603 3.38669 15.9569 3.51849 16.1224 3.68471C16.288 3.85092 16.4193 4.04828 16.5088 4.26549C16.5983 4.48271 16.6442 4.7155 16.644 4.95057C16.6442 5.18563 16.5983 5.41843 16.5088 5.63564C16.4193 5.85285 16.288 6.05021 16.1224 6.21643C15.9569 6.38264 15.7603 6.51445 15.544 6.60431C15.3276 6.69417 15.0958 6.74031 14.8616 6.7401C14.6275 6.74031 14.3956 6.69417 14.1793 6.60431C13.963 6.51445 13.7664 6.38264 13.6008 6.21643C13.4353 6.05021 13.304 5.85285 13.2145 5.63564C13.125 5.41843 13.0791 5.18563 13.0793 4.95057C13.0791 4.7155 13.125 4.48271 13.2145 4.26549C13.304 4.04828 13.4353 3.85092 13.6008 3.68471C13.7664 3.51849 13.963 3.38669 14.1793 3.29683C14.3956 3.20697 14.6275 3.16083 14.8616 3.16104Z" fill="url(#paint0_linear_802_26)"/>
<path d="M20.6192 40.8595C31.0014 40.8595 30.3532 36.339 30.3532 36.339L30.3417 31.6559H20.4339V30.2498H34.2766C34.2766 30.2498 40.9203 31.0063 40.9203 20.4883C40.9203 9.97041 35.1215 10.3434 35.1215 10.3434H31.6609V15.224C31.6609 15.224 31.8475 21.046 25.9547 21.046H16.1282C16.1282 21.046 10.6073 20.9565 10.6073 26.4034V35.4094C10.6073 35.4094 9.76897 40.8595 20.619 40.8595H20.6192ZM26.0822 37.7104C25.8481 37.7106 25.6162 37.6644 25.3999 37.5746C25.1835 37.4847 24.987 37.3529 24.8214 37.1867C24.6559 37.0205 24.5246 36.8231 24.4351 36.6059C24.3456 36.3887 24.2996 36.1559 24.2999 35.9208C24.2996 35.6858 24.3456 35.4529 24.4351 35.2357C24.5245 35.0185 24.6558 34.8211 24.8214 34.6549C24.9869 34.4886 25.1835 34.3568 25.3999 34.267C25.6162 34.1771 25.8481 34.1309 26.0822 34.1312C26.3163 34.1309 26.5482 34.1771 26.7646 34.2669C26.9809 34.3568 27.1775 34.4886 27.343 34.6548C27.5086 34.821 27.6399 35.0184 27.7293 35.2356C27.8188 35.4528 27.8648 35.6856 27.8646 35.9207C27.8648 36.1557 27.8188 36.3885 27.7293 36.6058C27.6399 36.823 27.5086 37.0203 27.343 37.1865C27.1775 37.3528 26.9809 37.4846 26.7646 37.5744C26.5482 37.6643 26.3163 37.7104 26.0822 37.7102V37.7104Z" fill="url(#paint1_linear_802_26)"/>
<defs>
<linearGradient id="paint0_linear_802_26" x1="3.95364" y1="3.68562" x2="24.3015" y2="23.7499" gradientUnits="userSpaceOnUse">
<stop stop-color="#387EB8"/>
<stop offset="1" stop-color="#366994"/>
</linearGradient>
<linearGradient id="paint1_linear_802_26" x1="16.3934" y1="16.622" x2="38.2406" y2="37.1922" gradientUnits="userSpaceOnUse">
<stop stop-color="#FFE052"/>
<stop offset="1" stop-color="#FFC331"/>
</linearGradient>
</defs>
</svg>
