<svg width="60" height="56" viewBox="0 0 60 56" fill="none" xmlns="http://www.w3.org/2000/svg">
<path d="M52.3125 40.3958H30.7083C25.4773 40.3958 22.5625 44.0048 22.5625 47.8333C22.5625 51.375 25.0417 55.2708 30.7083 55.2708H52.3125V40.3958Z" fill="#669DF6"/>
<path d="M52.3125 55.2708C56.4201 55.2708 59.75 51.9409 59.75 47.8333C59.75 43.7257 56.4201 40.3958 52.3125 40.3958C48.2049 40.3958 44.875 43.7257 44.875 47.8333C44.875 51.9409 48.2049 55.2708 52.3125 55.2708Z" fill="#1A73E8"/>
<path d="M30 20.5625H8.39583C3.16479 20.5625 0.25 24.1715 0.25 28C0.25 31.5417 2.72917 35.4375 8.39583 35.4375H30V20.5625Z" fill="#669DF6"/>
<path d="M30 35.4375C34.1076 35.4375 37.4375 32.1076 37.4375 28C37.4375 23.8924 34.1076 20.5625 30 20.5625C25.8924 20.5625 22.5625 23.8924 22.5625 28C22.5625 32.1076 25.8924 35.4375 30 35.4375Z" fill="#1A73E8"/>
<path d="M52.3125 0.729156H30.7083C25.4773 0.729156 22.5625 4.33811 22.5625 8.16666C22.5625 11.7083 25.0417 15.6042 30.7083 15.6042H52.3125V0.729156Z" fill="#669DF6"/>
<path d="M52.3125 15.6042C56.4201 15.6042 59.75 12.2743 59.75 8.16666C59.75 4.05904 56.4201 0.729156 52.3125 0.729156C48.2049 0.729156 44.875 4.05904 44.875 8.16666C44.875 12.2743 48.2049 15.6042 52.3125 15.6042Z" fill="#1A73E8"/>
</svg>
