<svg width="36" height="40" viewBox="0 0 36 40" fill="none" xmlns="http://www.w3.org/2000/svg">
<path d="M35.5 30V10L18 0L0.5 10V30L18 40L35.5 30ZM12.3933 27.6483C12.3933 28.85 11.4333 29.7983 10.2483 29.7983H10.1217C8.90833 29.7983 7.95 28.7983 7.95 27.6483V12.35C7.95 11.175 9.01 10.2 10.475 10.2C11.5633 10.2 12.7983 10.625 13.555 11.55L23.605 23.4517V12.35C23.605 11.1483 24.615 10.2 25.7767 10.2H25.9033C27.115 10.2 28.075 11.2 28.075 12.35V27.65H28.1C28.1 28.825 27.0117 29.8 25.5267 29.8C24.465 29.8 23.2517 29.375 22.495 28.45L12.3933 16.5483V27.6483Z" fill="#209237"/>
</svg>
