<svg width="46" height="57" viewBox="0 0 46 57" fill="none" xmlns="http://www.w3.org/2000/svg">
<path d="M15.7798 5.20619C16.2185 4.05805 16.8216 3.00103 17.7172 2.14448C21.2995 -1.33638 27.2214 -0.461612 29.6522 3.91225C31.4799 7.2291 33.4173 10.4731 35.2999 13.7534L44.7309 30.119C47.3446 34.6933 44.5116 40.4705 39.3209 41.2541C36.1406 41.728 33.1614 40.27 31.5165 37.427L23.2186 23.0661C23.1638 22.9568 23.0907 22.8657 23.0176 22.7745C22.7252 22.5376 22.5972 22.1914 22.4145 21.8815L16.3099 11.3296C15.5971 10.0903 15.2681 8.74173 15.3046 7.32022C15.3595 6.59125 15.4508 5.86227 15.7798 5.20619Z" fill="#3C8BD9"/>
<path d="M15.7798 5.20618C15.6153 5.86226 15.4691 6.51834 15.4326 7.21086C15.3777 8.74172 15.7615 10.1632 16.5292 11.4936L22.5424 21.8633C22.7252 22.1731 22.8714 22.4829 23.0541 22.7745L19.746 28.4423L15.1218 36.3882C15.0487 36.3882 15.0305 36.3517 15.0122 36.2971C14.9939 36.1513 15.0487 36.0237 15.0853 35.8779C15.8347 33.1442 15.2132 30.7204 13.3307 28.6428C12.1792 27.3853 10.717 26.6746 9.03553 26.4376C6.84227 26.1278 4.90488 26.6928 3.16855 28.0596C2.85783 28.2965 2.65678 28.6428 2.29124 28.825C2.21813 28.825 2.18158 28.7886 2.1633 28.7339L4.77694 24.196L15.6519 5.40665C15.6884 5.33375 15.7433 5.27907 15.7798 5.20618Z" fill="#FABC04"/>
<path d="M2.23642 28.7886L3.27822 27.8591C7.71958 24.36 14.3908 26.8932 15.3595 32.4335C15.5971 33.7639 15.4691 35.0396 15.067 36.3153C15.0487 36.4246 15.0305 36.5157 14.9939 36.6251C14.8294 36.9167 14.6832 37.2265 14.5004 37.5181C12.8738 40.1971 10.4794 41.5275 7.33576 41.327C3.73515 41.0719 0.902187 38.3746 0.408703 34.8027C0.171099 33.0713 0.518366 31.4494 1.41395 29.9549C1.59672 29.6269 1.81605 29.3353 2.0171 29.0073C2.10848 28.9344 2.07193 28.7886 2.23642 28.7886Z" fill="#34A852"/>
<path d="M2.23642 28.7886C2.16331 28.8615 2.16331 28.9891 2.03537 29.0073C2.0171 28.8797 2.0902 28.8068 2.16331 28.7157L2.23642 28.7886Z" fill="#FABC04"/>
<path d="M14.9939 36.6251C14.9208 36.4976 14.9939 36.4064 15.067 36.3153L15.1401 36.3882L14.9939 36.6251Z" fill="#E1C025"/>
<path d="M3.86309 47.4504C1.79777 47.4504 0.0797119 49.1089 0.0797119 51.15C0.0797119 53.1911 1.79777 54.8313 3.86309 54.8313C4.978 54.8313 5.80048 54.4668 6.45846 53.7925C7.13471 53.1182 7.33576 52.1888 7.33576 51.4416C7.33576 51.2047 7.31749 50.986 7.28093 50.8037H3.86309V51.8061H6.29396C6.22085 52.371 6.03808 52.7902 5.74565 53.0818C5.39838 53.4281 4.83179 53.829 3.86309 53.829C2.36436 53.829 1.19462 52.6262 1.19462 51.15C1.19462 49.6738 2.36436 48.471 3.86309 48.471C4.66729 48.471 5.27044 48.7808 5.69081 49.2L6.40363 48.4892C5.80048 47.9061 4.99628 47.4504 3.86309 47.4504ZM10.0591 50.093C8.76139 50.093 7.68303 51.0953 7.68303 52.4986C7.68303 53.8837 8.74311 54.9042 10.0591 54.9042C11.375 54.9042 12.4351 53.8837 12.4351 52.4986C12.4351 51.1136 11.3567 50.093 10.0591 50.093ZM10.0591 53.9566C9.34626 53.9566 8.72483 53.3552 8.72483 52.4986C8.72483 51.6421 9.34626 51.0407 10.0591 51.0407C10.7719 51.0407 11.3933 51.6238 11.3933 52.4986C11.3933 53.3552 10.7719 53.9566 10.0591 53.9566ZM15.2132 50.093C13.8973 50.093 12.8372 51.0953 12.8372 52.4986C12.8372 53.8837 13.8973 54.9042 15.2132 54.9042C16.5109 54.9042 17.5893 53.8837 17.5893 52.4986C17.5893 51.1136 16.5292 50.093 15.2132 50.093ZM15.2132 53.9566C14.5004 53.9566 13.879 53.3552 13.879 52.4986C13.879 51.6421 14.5004 51.0407 15.2132 51.0407C15.9261 51.0407 16.5475 51.6238 16.5475 52.4986C16.5475 53.3552 15.9443 53.9566 15.2132 53.9566ZM20.3491 50.093C19.1611 50.093 18.0828 51.1318 18.0828 52.4804C18.0828 53.8108 19.1611 54.8496 20.3491 54.8496C20.9157 54.8496 21.3544 54.5944 21.592 54.3028H21.6285V54.6491C21.6285 55.5603 21.1533 56.0524 20.3674 56.0524C19.7277 56.0524 19.3439 55.5968 19.1794 55.214L18.2655 55.5968C18.5214 56.2346 19.216 57 20.3674 57C21.592 57 22.6155 56.2711 22.6155 54.5215V50.257H21.6285V50.6397H21.592C21.3544 50.3481 20.9157 50.093 20.3491 50.093ZM20.4405 53.9201C19.7277 53.9201 19.1246 53.3187 19.1246 52.4804C19.1246 51.6421 19.7277 51.0224 20.4405 51.0224C21.1533 51.0224 21.7017 51.6421 21.7017 52.4804C21.7017 53.3187 21.1533 53.9201 20.4405 53.9201ZM23.3832 47.742H24.425V54.7767H23.3832V47.742ZM27.2214 50.093C25.9785 50.093 24.9367 51.0589 24.9367 52.4986C24.9367 53.8472 25.9602 54.9042 27.331 54.9042C28.4459 54.9042 29.0856 54.2299 29.3415 53.8472L28.519 53.3005C28.2449 53.7014 27.8611 53.9566 27.331 53.9566C26.7827 53.9566 26.3989 53.7196 26.1613 53.2276L29.3964 51.8972L29.2867 51.6238C29.0856 51.0953 28.4642 50.093 27.2214 50.093ZM25.9785 52.4257C25.942 51.4963 26.7096 51.0224 27.2396 51.0224C27.66 51.0224 28.0256 51.2229 28.1352 51.5327L25.9785 52.4257ZM31.2241 54.6673L33.6367 48.2705H34.5688L36.9814 54.6673H36.0675L35.4461 52.936H32.7594L32.1379 54.6673H31.2241ZM33.0335 52.1706H35.172L34.1302 49.2911H34.0936L33.0335 52.1706ZM37.8221 54.1388C37.42 53.6832 37.219 53.1365 37.219 52.4804C37.219 51.8425 37.42 51.2958 37.8221 50.822C38.2425 50.3663 38.7177 50.1477 39.3026 50.1477C39.6316 50.1477 39.924 50.2206 40.1799 50.3481C40.4541 50.4939 40.6551 50.6579 40.8013 50.8949H40.8379L40.8013 50.2935V48.2705H41.6238V54.6673H40.8379V54.0659H40.8013C40.6551 54.2846 40.4541 54.4668 40.1799 54.6126C39.9057 54.7584 39.6133 54.8131 39.3026 54.8131C38.7177 54.8131 38.2242 54.5944 37.8221 54.1388ZM40.4175 53.6285C40.6917 53.3369 40.8196 52.9542 40.8196 52.4804C40.8196 52.0248 40.6917 51.6421 40.4175 51.3505C40.1616 51.0589 39.8326 50.9131 39.4305 50.9131C39.0284 50.9131 38.6995 51.0589 38.4436 51.3505C38.1694 51.6421 38.0415 52.0248 38.0415 52.4804C38.0415 52.936 38.1694 53.3187 38.4436 53.6103C38.7177 53.9019 39.0467 54.0477 39.4305 54.0477C39.8326 54.0659 40.1616 53.9201 40.4175 53.6285ZM45.4255 54.4122C45.0965 54.6673 44.6761 54.8131 44.1643 54.8131C43.7257 54.8131 43.3419 54.7038 42.9946 54.4668C42.6656 54.2299 42.428 53.9383 42.2818 53.5556L43.0129 53.2458C43.1225 53.501 43.2688 53.7196 43.4881 53.8654C43.6891 54.0112 43.9267 54.0841 44.1643 54.0841C44.4202 54.0841 44.6395 54.0295 44.8223 53.9201C45.0051 53.8108 45.0782 53.665 45.0782 53.5192C45.0782 53.2458 44.8589 53.0271 44.4385 52.8995L43.6891 52.7173C42.8301 52.4986 42.4097 52.0977 42.4097 51.478C42.4097 51.0771 42.5742 50.7673 42.9032 50.5121C43.2322 50.2752 43.6526 50.1477 44.1461 50.1477C44.5173 50.1452 44.8827 50.2394 45.2061 50.421C45.5168 50.6033 45.7362 50.8584 45.8641 51.1682L45.133 51.478C45.0416 51.2958 44.9137 51.15 44.7309 51.0407C44.5482 50.9313 44.3288 50.8766 44.0912 50.8766C43.8719 50.8766 43.6891 50.9313 43.5064 51.0407C43.3419 51.15 43.2505 51.2776 43.2505 51.4416C43.2505 51.6967 43.4881 51.879 43.9633 51.9701L44.6213 52.1341C45.4986 52.3528 45.919 52.7902 45.919 53.4463C45.9372 53.829 45.7545 54.157 45.4255 54.4122Z" fill="#757575"/>
</svg>
