<svg width="50" height="49" viewBox="0 0 50 49" fill="none" xmlns="http://www.w3.org/2000/svg">
<path d="M46.7723 40.7587L5.12268 47.3291L0 13.809L41.4269 7.4613L46.7723 40.7587Z" fill="#03A9F4"/>
<path d="M41.4293 7.4613L46.7748 40.7587L5.12514 47.3291L4.67969 44.0996L41.4293 7.4613Z" fill="#039BE5"/>
<path d="M0 13.809L2.6727 31.0702L22.4952 10.3568L0 13.809Z" fill="#29B6F6"/>
<path d="M7.01505 44.7678L2.56055 15.5908L39.6443 9.91129L44.3215 38.8656L7.01505 44.7678ZM5.12189 17.4839L8.90822 42.2064L41.7602 36.9724L37.8625 12.3613L5.12189 17.4839Z" fill="white"/>
<path d="M10.1309 28.5089L10.5763 31.8497L37.8602 27.5066L37.3033 24.1657L10.1309 28.5089Z" fill="white"/>
<path d="M16.2589 36.6383L12.8066 40.7587L13.2521 35.4133C13.2521 35.302 13.2521 35.1906 13.3635 35.0792L19.1543 20.9362C19.377 20.3794 20.0452 20.0453 20.602 20.3794L21.6043 20.8248C22.1611 21.0476 22.4952 21.7157 22.1611 22.2725L16.4816 36.3042C16.3702 36.4156 16.3702 36.527 16.2589 36.6383ZM31.961 30.9588L21.6043 18.8203C21.1588 18.3749 21.2702 17.5953 21.7157 17.2612L22.6066 16.5931C23.052 16.1476 23.8315 16.259 24.1656 16.7044L34.5224 28.8429L31.961 30.9588ZM35.1905 29.6225C35.1905 29.6225 37.8632 30.402 37.8632 33.5202C37.8632 35.5247 37.3064 36.3042 37.3064 36.3042C37.3064 36.3042 36.861 34.9679 34.7451 34.1883C31.8496 33.1861 31.961 30.9588 31.961 30.9588L34.411 30.402L35.1905 29.6225Z" fill="white"/>
<path d="M20.4867 26.2816L19.1504 29.5111L21.2663 27.5065L21.7117 26.2816H20.4867Z" fill="#03A9F4"/>
<path d="M19.4887 31.8497L21.2705 27.5066L19.1546 29.5111L18.2637 31.8497H19.4887Z" fill="#039BE5"/>
<path d="M14.7016 27.3952L16.9288 21.8271H15.7038L13.4766 27.3952H14.7016Z" fill="#03A9F4"/>
<path d="M35.5265 28.2861L31.8516 24.0543H30.4039L34.3016 28.5088L34.5243 28.8429L31.9629 30.9588L30.5152 29.2884L26.9516 25.1679H25.5039L28.8448 29.0656L31.072 31.7383L31.8516 32.5179L32.6311 31.8497L35.1925 29.6225L36.0834 28.9543L35.5265 28.2861Z" fill="#039BE5"/>
<path d="M16.707 21.7157V22.9407L22.2752 25.2793V24.0543L16.707 21.7157Z" fill="#03A9F4"/>
<path d="M17.8197 31.4043L14.3675 29.9565L13.4766 30.8474L17.8197 32.6292V31.4043Z" fill="#039BE5"/>
<path d="M12.25 29.0656V30.2906L13.475 30.8474L14.3659 29.9565L12.25 29.0656Z" fill="#03A9F4"/>
<path d="M39.9794 7.57265V7.68401L40.7589 12.3612L42.2066 8.35218C42.2066 8.24082 42.318 8.12946 42.318 8.0181L41.8726 5.45676C40.9817 6.01357 40.2021 6.90447 39.9794 7.57265ZM35.5249 30.0679C35.3022 29.9565 35.0794 29.8452 34.7453 29.7338C34.1885 29.5111 33.8544 29.3997 33.5204 29.177L32.0726 34.077L34.5226 33.7429L35.5249 30.0679ZM31.4045 36.4156L30.8477 38.8655L33.1863 38.4201L33.8544 36.0815L31.4045 36.4156ZM36.5271 18.2635V18.3748L36.0817 19.9339L37.3067 19.7112L37.7521 22.1611L38.643 18.9316L39.1999 17.1498L38.4203 12.2499L37.1953 16.1476L36.5271 18.2635Z" fill="#0277BD"/>
<path d="M38.4162 12.2499L39.1958 17.1498L40.6435 12.3612L39.8639 7.68399C39.3071 9.24307 38.7503 10.8021 38.639 11.0249L38.4162 12.2499ZM32.0686 34.0769L31.4004 36.4155L33.8504 36.0815L34.5185 33.7428L32.0686 34.0769ZM37.7481 22.1611L37.3026 19.7112L36.0776 19.9339L35.0754 23.4975L37.414 23.1634L37.7481 22.1611ZM35.1867 25.1679L34.5185 25.502L33.5163 29.177C33.8504 29.3997 34.2958 29.6224 34.7413 29.7338C35.0754 29.8452 35.2981 29.9565 35.5208 30.0679L36.6344 26.0588C35.9663 25.3906 35.1867 25.1679 35.1867 25.1679Z" fill="#90A4AE"/>
<path d="M36.6394 26.0589L37.4189 23.0521L34.969 23.3862L34.3008 25.8362L35.1917 25.0566C35.1917 25.168 35.9712 25.3907 36.6394 26.0589Z" fill="#0277BD"/>
<path d="M35.19 25.168L34.2991 25.9475L33.4082 29.177C33.7423 29.3997 34.1877 29.6225 34.6332 29.7338C34.9673 29.8452 35.19 29.9566 35.4127 30.0679L36.5264 26.0589C35.9695 25.3907 35.19 25.168 35.19 25.168Z" fill="#90A4AE"/>
<path d="M37.8628 3.45227C31.1811 3.45227 26.7266 5.12271 26.7266 5.12271V5.67952C36.3037 5.67952 37.5287 9.24313 37.8628 10.134V3.45227Z" fill="#78909C"/>
<path d="M46.7741 5.45674C46.5514 5.90219 46.3287 6.23627 45.6605 6.23627C44.4355 6.23627 43.4333 4.45447 43.4333 4.45447C41.5401 3.22948 37.8651 1.78177 34.5242 1.78177C27.8425 1.78177 25.6152 3.45221 25.6152 3.45221V4.00902C30.2925 4.00902 32.0743 4.45447 33.7447 5.67946C36.4174 7.68399 36.1947 12.2499 35.1924 15.8135L33.1879 21.827L36.4174 22.8293L38.756 15.4794C38.8674 15.368 39.4242 13.6976 39.981 12.0271C40.3151 11.1362 41.206 10.0226 42.3196 9.68851C42.9878 9.46579 43.8787 9.35443 44.4355 9.79988C44.9923 10.2453 44.9923 10.5794 44.881 11.0249L47.1082 11.693L49.0014 6.23627L46.7741 5.45674Z" fill="#D7DEE2"/>
<path d="M45.6615 1.7818C44.4365 1.7818 43.4343 0 43.4343 0L42.5434 2.78407C42.2093 4.00905 40.8729 4.56587 39.7593 4.23178L34.9707 2.6727C35.5275 3.67497 35.7502 4.78859 35.8616 6.12494L40.0934 7.4613C40.4275 6.79312 40.9843 6.01358 41.7638 5.56813C41.9865 5.45677 42.2093 5.34541 42.432 5.23404C43.1002 5.01132 43.9911 4.89995 44.5479 5.34541C45.1047 5.79086 45.1047 6.12494 44.9933 6.57039L46.7751 1.00226C46.5524 1.44771 46.3297 1.7818 45.6615 1.7818Z" fill="#90A4AE"/>
<path d="M33.1863 21.8271L23.4978 44.4337C22.9409 45.8814 23.7205 47.6632 25.2796 48.1086L26.2818 48.4427C27.8409 48.8882 29.4 47.9973 29.7341 46.8836L36.4158 22.8293L33.1863 21.8271Z" fill="#424242"/>
</svg>
