<svg width="45" height="54" viewBox="0 0 45 54" fill="none" xmlns="http://www.w3.org/2000/svg">
<path d="M22.3374 40.0155L41.0746 44.5493V9.36902L22.3374 13.9058V40.0155Z" fill="#8C3123"/>
<path d="M41.0757 9.36902L44.6764 11.169V42.7598L41.0757 44.559V9.36902Z" fill="#E05243"/>
<path d="M30.5102 15.642L22.3374 13.62V0L30.5102 4.086V15.642Z" fill="#E05243"/>
<path d="M22.3374 54L30.5094 49.9155V38.3595L22.3374 40.3807V54Z" fill="#E05243"/>
<path d="M30.5102 32.7855L22.3374 33.8258V20.205L30.5102 21.2303V32.7855Z" fill="#E05243"/>
<path d="M22.3371 40.0155L3.59912 44.5493V9.36902L22.3371 13.9058V40.0155Z" fill="#E05243"/>
<path d="M3.59925 9.36902L0 11.169V42.7598L3.59925 44.559V9.36902Z" fill="#8C3123"/>
<path d="M14.1665 15.642L22.337 13.62V0L14.1665 4.086V15.642Z" fill="#8C3123"/>
<path d="M22.3378 54L14.1665 49.9155V38.3595L22.3378 40.3807V54Z" fill="#8C3123"/>
<path d="M14.1665 32.7855L22.337 33.8258V20.205L14.1665 21.2303V32.7855Z" fill="#8C3123"/>
<path d="M30.5098 15.642L22.337 17.1315L14.1665 15.642L22.337 13.62L30.5098 15.642Z" fill="#5E1F18"/>
<path d="M30.5098 38.3587L22.337 36.8595L14.1665 38.3587L22.337 40.3935L30.5098 38.3587Z" fill="#F2B0A9"/>
</svg>
