<svg width="53" height="53" viewBox="0 0 53 53" fill="none" xmlns="http://www.w3.org/2000/svg">
<path d="M26.5 53.0001C41.1355 53.0001 53 41.1356 53 26.5001C53 11.8645 41.1355 6.10352e-05 26.5 6.10352e-05C11.8645 6.10352e-05 0 11.8645 0 26.5001C0 41.1356 11.8645 53.0001 26.5 53.0001Z" fill="#E13138"/>
<path d="M27.5388 14.1877C20.1294 14.1877 16.3876 19.422 16.3876 23.7875C16.3876 26.4364 17.4052 28.7781 19.5782 29.6576C19.9386 29.8059 20.2566 29.6681 20.3626 29.2761C20.4368 29.0112 20.7654 28.3225 20.8396 28.047C20.9456 27.6656 20.9032 27.5278 20.617 27.1887C19.9916 26.4576 19.5994 25.6947 19.5994 24.3597C19.5994 19.9095 22.3766 16.7413 27.1042 16.7413C31.2912 16.7413 33.5914 19.3373 33.5914 22.7067C33.5914 27.1358 31.5986 30.7383 28.6412 30.7383C27.0088 30.7383 25.7898 29.5516 26.182 27.9198C26.6484 25.9702 27.56 23.8723 27.56 22.463C27.56 21.2021 26.8816 20.3015 25.4612 20.3015C23.797 20.3015 22.4508 21.8591 22.4508 24.1372C22.4508 25.5888 22.9278 26.3093 22.9278 26.3093C22.9278 26.3093 21.2424 33.6945 20.935 34.9448C20.3414 37.4348 20.8502 40.4758 20.8926 40.7831C20.9138 40.9632 21.1576 41.0056 21.2636 40.8679C21.412 40.6771 23.4048 38.2507 24.0832 35.8349C24.274 35.1568 25.1856 31.6178 25.1856 31.6178C25.7262 32.635 27.3162 33.2919 28.991 33.2919C34.0048 33.2919 37.4074 29.0218 37.4074 23.0034C37.418 18.4366 33.496 14.1877 27.5388 14.1877Z" fill="white"/>
</svg>
