<svg width="61" height="60" viewBox="0 0 61 60" fill="none" xmlns="http://www.w3.org/2000/svg">
<path d="M35.3641 55.2469L25.6581 45.9375L46.5029 25L56.552 34.6875L35.3641 55.2469Z" fill="#8AB4F8"/>
<path d="M35.4054 14.0875L25.7343 4.375L4.58767 24.9781C1.86173 27.6594 1.86173 32.0063 4.58767 34.6906L25.4166 55.3125L35.2656 46.25L19.3961 29.8344L35.4054 14.0875Z" fill="#4285F4"/>
<path d="M56.4123 25.1375L35.4436 4.51249C32.7144 1.82811 28.2888 1.82811 25.5597 4.51249C22.8305 7.19686 22.8305 11.55 25.5597 14.2344L46.5284 34.8594C49.2575 37.5437 53.6832 37.5437 56.4123 34.8594C59.1414 32.175 59.1414 27.8219 56.4123 25.1375Z" fill="#8AB4F8"/>
<path d="M30.3411 57.5C34.1136 57.5 37.1718 54.4919 37.1718 50.7813C37.1718 47.0706 34.1136 44.0625 30.3411 44.0625C26.5686 44.0625 23.5104 47.0706 23.5104 50.7813C23.5104 54.4919 26.5686 57.5 30.3411 57.5Z" fill="#246FDB"/>
</svg>
