<svg width="53" height="27" viewBox="0 0 53 27" fill="none" xmlns="http://www.w3.org/2000/svg">
<path d="M26.5 0C11.865 0 0 6.04428 0 13.5C0 20.9557 11.865 27 26.5 27C41.135 27 53 20.9557 53 13.5C53 6.04428 41.135 0 26.5 0ZM19.6046 16.1301C18.9721 16.7249 18.2699 16.9704 17.4965 17.2233C16.7231 17.4766 15.7389 17.4243 14.5422 17.4243H11.8299L11.0782 21.7846H7.91131L10.7372 6.95951H16.8272C18.6594 6.95951 19.9958 7.48929 20.836 8.45598C21.6762 9.42266 21.9286 10.7949 21.5938 12.5272C21.4554 13.241 21.2225 13.9046 20.8937 14.4959C20.5645 15.0876 20.1346 15.64 19.6046 16.1301ZM28.8484 17.4243L30.098 11.1367C30.2403 10.4007 30.1882 9.8539 29.9414 9.58661C29.6942 9.31889 29.1685 9.13968 28.3647 9.13968H25.8533L24.2349 17.4243H21.0928L23.9187 3.03522H27.0608L26.3096 6.95951H29.1086C30.8701 6.95951 32.0846 7.31488 32.7531 7.9323C33.4215 8.54972 33.6219 9.39563 33.3547 10.7787L32.04 17.4243H28.8484ZM46.311 12.5503C46.1731 13.2641 45.9397 13.9164 45.6114 14.5072C45.2826 15.0989 44.8532 15.64 44.3227 16.1301C43.6903 16.7249 42.9876 16.9704 42.2146 17.2233C41.4417 17.4766 40.4566 17.4243 39.2599 17.4243H36.5476L35.7963 21.7846H32.6294L35.4549 6.95951H41.5453C43.3775 6.95951 44.7139 7.48929 45.5537 8.45598C46.393 9.42266 46.6459 10.8184 46.311 12.5503ZM40.3451 9.13968H38.1759L36.993 15.2441H38.9198C40.1959 15.2441 41.1476 15.1177 41.7722 14.6337C42.3977 14.1506 42.8188 13.4006 43.0379 12.27C43.2478 11.1838 43.1524 10.3366 42.7516 9.89009C42.3504 9.44359 41.5484 9.13968 40.3451 9.13968ZM15.6274 9.13968H13.4578L12.2749 15.2441H14.2012C15.4778 15.2441 16.429 15.1177 17.0541 14.6337C17.6791 14.1506 18.1007 13.4006 18.3193 12.27C18.5293 11.1838 18.4338 10.3366 18.033 9.89009C17.6323 9.44359 16.8307 9.13968 15.6274 9.13968Z" fill="#4053B7"/>
</svg>
