<svg width="43" height="50" viewBox="0 0 43 50" fill="none" xmlns="http://www.w3.org/2000/svg">
<path d="M31.1183 5.94076V43.2827C31.1183 47.461 34.0038 49.7892 37.0591 49.7892C39.888 49.7892 42.9999 47.8089 42.9999 43.2827V6.22365C42.9999 2.39328 40.1709 0 37.0591 0C33.9472 0 31.1183 2.63939 31.1183 5.94076Z" fill="#F9AB00"/>
<path d="M15.5591 24.8946V43.2827C15.5591 47.461 18.4447 49.7892 21.4999 49.7892C24.3289 49.7892 27.4407 47.809 27.4407 43.2827V25.1775C27.4407 21.3471 24.6118 18.9539 21.4999 18.9539C18.3881 18.9539 15.5591 21.5933 15.5591 24.8946Z" fill="#E37400"/>
<path d="M5.94079 49.7892C9.2218 49.7892 11.8816 47.1294 11.8816 43.8484C11.8816 40.5675 9.2218 37.9077 5.94079 37.9077C2.65978 37.9077 0 40.5675 0 43.8484C0 47.1294 2.65978 49.7892 5.94079 49.7892Z" fill="#E37400"/>
</svg>
