<svg width="39" height="39" viewBox="0 0 39 39" fill="none" xmlns="http://www.w3.org/2000/svg">
<path fill-rule="evenodd" clip-rule="evenodd" d="M8.09372 24.8421C7.95387 25.4377 7.88348 26.0809 7.88348 26.6056C7.88348 28.6729 9.00473 30.0455 11.3871 30.0455C13.363 30.0455 14.965 28.8719 16.1183 26.9773L15.4141 29.8039H19.3379L21.5804 20.8095C22.141 18.5323 23.2269 17.3501 24.8738 17.3501C26.1702 17.3501 26.9758 18.1563 26.9758 19.4872C26.9758 19.8729 26.9408 20.2928 26.8006 20.7486L25.6443 24.8826C25.4691 25.4783 25.3994 26.0742 25.3994 26.6343C25.3994 28.5971 26.5553 30.0324 28.9727 30.0324C31.0397 30.0324 32.6866 28.7019 33.5976 25.5133L32.0562 24.9183C31.2853 27.0544 30.6196 27.4405 30.094 27.4405C29.5684 27.4405 29.2881 27.0904 29.2881 26.3899C29.2881 26.0745 29.3585 25.7248 29.4633 25.3034L30.5848 21.2757C30.8648 20.33 30.9703 19.4915 30.9703 18.7209C30.9703 15.7079 29.1482 14.1354 26.9411 14.1354C24.8741 14.1354 22.7717 15.9998 21.7209 17.9619L22.4914 14.4397H16.5004L15.6594 17.5421H18.4625L16.7368 24.4524C15.3812 27.4654 12.8913 27.5142 12.579 27.4444C12.0659 27.3286 11.7378 27.1339 11.7378 26.4673C11.7378 26.0825 11.8079 25.5301 11.9831 24.8637L14.611 14.4397H7.95387L7.11293 17.5421H9.88071L8.09372 24.8421ZM13.0339 12.2704C14.3304 12.2704 15.4163 11.2542 15.4163 9.92245C15.4163 8.59158 14.3304 7.57575 13.0339 7.57575C11.7375 7.57575 10.6516 8.59158 10.6516 9.92245C10.6516 11.2542 11.7375 12.2704 13.0339 12.2704ZM35.4647 0H3.53529C1.58285 0 0 1.58285 0 3.53529V35.4644C0 37.4171 1.58285 39 3.53529 39H35.4644C37.4168 39 38.9997 37.4171 38.9997 35.4647V3.53529C39 1.58285 37.4171 0 35.4647 0Z" fill="#FF2A63"/>
</svg>
