<svg width="32" height="33" viewBox="0 0 32 33" fill="none" xmlns="http://www.w3.org/2000/svg">
<path d="M15.9617 17.3713C15.84 17.5436 15.7374 17.6853 15.6386 17.8286C14.0632 20.1366 12.4883 22.4443 10.914 24.7518C9.44941 26.8982 7.98328 29.0433 6.51563 31.1872C6.49127 31.2208 6.46007 31.249 6.42406 31.2699C6.38804 31.2908 6.34802 31.3039 6.30658 31.3083C4.23451 31.2906 2.16294 31.2682 0.091888 31.2413C0.068916 31.2413 0.0451783 31.2344 0 31.2275C0.0167276 31.1845 0.0361646 31.1424 0.0581957 31.1018C1.50339 28.8716 2.94858 26.6418 4.39378 24.4126C5.67562 22.437 6.95822 20.4618 8.24159 18.4872C9.66381 16.293 11.0853 14.0974 12.506 11.9001C12.7158 11.5762 12.934 11.2584 13.1331 10.9283C13.1841 10.84 13.1995 10.7356 13.176 10.6364C12.7931 9.42144 12.4026 8.20952 12.0128 6.9976C11.8459 6.47854 11.6713 5.96252 11.5151 5.44041C11.4646 5.27272 11.3811 5.22165 11.2088 5.22241C9.90706 5.22775 8.61297 5.22622 7.31505 5.22622C7.06849 5.22622 7.06772 5.22622 7.06772 4.98384C7.06772 3.39539 7.06772 1.80694 7.06313 0.218494C7.06313 0.0416611 7.12132 0.00202609 7.28825 0.00202609C9.90144 0.00659936 12.5151 0.00659936 15.1294 0.00202609C15.1901 -0.0057016 15.2515 0.00883477 15.3023 0.0429198C15.353 0.0770049 15.3895 0.128307 15.405 0.187244C16.7833 3.63803 18.1617 7.08755 19.54 10.5358C21.148 14.5572 22.7561 18.5792 24.3641 22.6016C24.8634 23.8501 25.3665 25.0978 25.8603 26.3494C25.9193 26.5018 25.9806 26.5308 26.1352 26.4835C27.5051 26.062 28.8781 25.652 30.2472 25.2297C30.4195 25.1763 30.4823 25.2122 30.5359 25.3821C31.003 26.8433 31.4793 28.3014 31.9525 29.7611C31.9686 29.8114 31.9809 29.8624 32 29.9326C31.902 29.9684 31.8101 30.0088 31.7159 30.0347C28.6019 31.0169 25.4897 31.9997 22.3793 32.9829C22.2308 33.0294 22.1864 32.9791 22.1366 32.8549C21.1866 30.4585 20.2343 28.0631 19.2796 25.6687C18.346 23.3242 17.4118 20.9796 16.4771 18.6351C16.3369 18.2829 16.1991 17.9292 16.059 17.5771C16.0368 17.5169 16.0061 17.4643 15.9617 17.3713Z" fill="#FA7E14"/>
</svg>
