<svg width="34" height="39" viewBox="0 0 34 39" fill="none" xmlns="http://www.w3.org/2000/svg">
<path fill-rule="evenodd" clip-rule="evenodd" d="M16.2124 0.0326553C15.8661 0.0873642 15.4536 0.207995 15.165 0.338853C14.7167 0.542163 1.60915 8.29936 1.33302 8.52473C0.97039 8.8207 0.39952 9.57283 0.44166 9.69912C0.448684 9.72032 1.9151 10.5562 3.70017 11.5568L6.94598 13.3761L7.09138 13.1511C7.37281 12.7155 7.43084 12.6778 11.6038 10.2148C16.5405 7.30117 16.1201 7.51705 16.8591 7.51705C17.5792 7.51705 17.0797 7.27049 22.1188 10.1118L26.2162 12.4221L26.5557 12.7583L26.895 13.0945L30.0818 11.1911C31.8345 10.1441 33.2736 9.27279 33.2798 9.25467C33.3159 9.15031 32.6218 8.43786 32.2047 8.15113C31.8213 7.88757 18.5927 0.424859 18.2775 0.294248C17.6922 0.0518775 16.8036 -0.0606208 16.2124 0.0326553Z" fill="#3CDB84"/>
<path fill-rule="evenodd" clip-rule="evenodd" d="M30.1366 11.1643C28.4139 12.1944 26.9787 13.0523 26.9474 13.0705C26.8998 13.0982 26.9115 13.1459 27.0174 13.3543C27.2945 13.9003 27.2759 13.538 27.2908 18.6864C27.308 24.5825 27.3237 24.4459 26.5395 25.2098C26.3491 25.3954 21.1757 28.4975 18.3789 30.1032C17.9815 30.3314 17.6332 30.4593 17.2829 30.5056L17.0957 30.5304V34.2708V38.0114H17.2481C17.6503 38.0114 18.3916 37.8195 18.8109 37.6069C19.1606 37.4298 32.1171 29.7747 32.3626 29.6004C33.1121 29.0678 33.6639 28.2132 33.9044 27.212C33.9897 26.8569 34.0407 11.9231 33.9596 11.0722C33.8944 10.3899 33.4831 9.2861 33.2956 9.29054C33.2808 9.29091 31.8593 10.1341 30.1366 11.1643Z" fill="#4484F3"/>
<path fill-rule="evenodd" clip-rule="evenodd" d="M0.300948 9.97018C-0.0172016 10.7718 -0.00820656 10.4754 0.00473135 19.7107L0.0161905 27.9056L0.109343 28.1813C0.296019 28.7341 0.586445 29.1686 0.969161 29.4676C1.23309 29.674 15.1282 37.5345 15.53 37.7048C15.9014 37.8622 16.3268 37.9645 16.7401 37.9958L17.0918 38.0223L17.0945 32.3687L17.0972 26.715L16.8622 26.6937C16.5317 26.6638 16.5046 26.6497 13.3825 24.8888C10.4501 23.2349 10.3671 23.1819 10.2159 22.8626L10.1227 22.6656L10.1223 19.1973C10.1219 16.4088 10.1323 15.6887 10.1752 15.5235L10.2285 15.3181L9.39704 14.8096C8.93978 14.5299 6.80157 13.3138 4.6455 12.1073C2.48943 10.9006 0.651751 9.87087 0.561924 9.81899L0.398413 9.72461L0.300948 9.97018Z" fill="#0A2C3A"/>
<path fill-rule="evenodd" clip-rule="evenodd" d="M16.5834 11.3516C16.1996 11.4377 10.9191 14.5252 10.575 14.8646C10.1055 15.3278 10.1184 15.1996 10.1311 19.2618L10.1418 22.7049L10.259 22.9165C10.4195 23.2065 10.2791 23.1189 13.49 24.9323C16.7088 26.7502 16.5567 26.675 17.0168 26.675C17.4923 26.675 17.4109 26.7164 20.4597 24.9196C23.6909 23.0153 23.6977 23.01 23.8321 22.2957C23.897 21.9507 23.8846 15.8214 23.8185 15.5738C23.632 14.8756 23.6227 14.8687 20.4247 13.061C17.1455 11.2072 17.1728 11.2194 16.5834 11.3516Z" fill="#D3F3FB"/>
<path fill-rule="evenodd" clip-rule="evenodd" d="M16.2074 7.59125C15.8007 7.70979 7.7454 12.4369 7.42182 12.7469C7.24254 12.9188 6.96838 13.2939 6.96875 13.3669C6.96875 13.3888 7.37217 13.6324 7.86504 13.908C8.35791 14.1837 9.0881 14.6111 9.48758 14.858L10.2141 15.3068L10.36 15.0811C10.4402 14.9569 10.5742 14.8043 10.6579 14.742C10.7414 14.6796 10.8187 14.6189 10.8295 14.607C10.9031 14.5263 16.2499 11.4126 16.4054 11.3598C16.7222 11.2522 17.1855 11.2665 17.4607 11.3924C17.5852 11.4493 17.6938 11.496 17.7019 11.496C17.7399 11.496 23.118 14.5489 23.2318 14.6351C23.3032 14.6891 23.4295 14.8191 23.5123 14.924L23.6631 15.1146L24.3872 14.6322C24.7856 14.3669 25.5056 13.9139 25.9872 13.6256L26.8629 13.1014L26.7845 12.9912C26.5072 12.6017 26.3288 12.4918 22.1123 10.1116C19.8614 8.84093 17.9477 7.76524 17.8598 7.72112C17.4422 7.5119 16.6841 7.45239 16.2074 7.59125Z" fill="#34BB6C"/>
<path fill-rule="evenodd" clip-rule="evenodd" d="M25.9407 13.6559C25.2385 14.0774 23.7989 15.0013 23.6764 15.1088C23.6663 15.1178 23.6964 15.1995 23.7434 15.2905C23.9044 15.6012 23.9171 15.9138 23.9025 19.1987C23.8876 22.595 23.8985 22.4375 23.6528 22.8233C23.4276 23.1767 23.2543 23.2919 20.5037 24.9149C17.6132 26.6204 17.5718 26.6432 17.2829 26.6856L17.0957 26.713V28.6217V30.5305L17.2829 30.5057C17.6332 30.4594 17.9815 30.3315 18.3789 30.1033C21.1757 28.4976 26.3491 25.3955 26.5395 25.2099C27.3237 24.446 27.308 24.5826 27.2908 18.6865C27.2759 13.5415 27.2941 13.8997 27.0193 13.3582C26.8656 13.0553 27.0048 13.0168 25.9407 13.6559Z" fill="#3B73B4"/>
<path fill-rule="evenodd" clip-rule="evenodd" d="M23.2422 14.6605C23.2422 14.6672 23.2999 14.7249 23.3703 14.7885L23.4984 14.9043L23.3827 14.7762C23.2747 14.6569 23.2422 14.63 23.2422 14.6605ZM23.8914 19.0017C23.8914 20.7136 23.8962 21.4081 23.9021 20.5451C23.9081 19.6822 23.9081 18.2816 23.9021 17.4326C23.8962 16.5838 23.8914 17.2898 23.8914 19.0017Z" fill="#86A4AE"/>
<path fill-rule="evenodd" clip-rule="evenodd" d="M17.0645 37.8538C17.0645 37.9295 17.0726 37.9606 17.0824 37.9226C17.0923 37.8847 17.0923 37.8227 17.0824 37.7848C17.0726 37.7468 17.0645 37.7779 17.0645 37.8538Z" fill="#546C7C"/>
</svg>
