<svg width="57" height="20" viewBox="0 0 57 20" fill="none" xmlns="http://www.w3.org/2000/svg">
<path d="M16.752 0.0251436C16.5561 0.0444787 16.3848 0.0734813 16.3701 0.0831489C16.3554 0.0976502 16.4093 0.291001 16.4876 0.518188L16.6247 0.924225L17.3296 0.90489C17.7164 0.895222 18.0444 0.880721 18.0542 0.871053C18.0591 0.86622 18.0052 0.668035 17.9269 0.43118L17.78 0.00580853L17.4422 0.000974774C17.2562 -0.00385898 16.9429 0.0106423 16.752 0.0251436Z" fill="#CC0000"/>
<path d="M23.1817 0.958061C23.167 1.04024 23.1523 1.26259 23.1523 1.45594V1.8088L23.4852 1.91998C23.6664 1.97799 23.965 2.08916 24.1511 2.1665C24.3371 2.23901 24.5035 2.30185 24.5231 2.30185C24.5427 2.30185 24.577 2.0795 24.5966 1.81364C24.621 1.42694 24.6161 1.31093 24.5623 1.28192C24.4791 1.22875 23.7937 0.98223 23.4657 0.885555L23.2111 0.813048L23.1817 0.958061Z" fill="#CC0000"/>
<path d="M10.9222 1.62029C10.648 1.77013 10.3983 1.91998 10.3641 1.95382C10.32 1.99732 10.3885 2.12783 10.6333 2.4952C10.8145 2.76106 10.9858 2.97858 11.0103 2.97858C11.0397 2.97858 11.1523 2.92057 11.2698 2.84806C11.3824 2.78039 11.6222 2.64021 11.8083 2.54354L12.1412 2.36469L11.7985 1.84747C11.6076 1.56712 11.446 1.33509 11.4411 1.33993C11.4313 1.33993 11.2012 1.46561 10.9222 1.62029Z" fill="#CC0000"/>
<path d="M17.1788 1.43178C15.6269 1.52846 14.2904 1.91032 12.6699 2.71756C9.71291 4.19186 6.85874 6.79726 4.82704 9.87154C3.64228 11.6697 2.56034 13.9174 1.85537 16.0539C1.55184 16.9772 1.20914 18.2871 1.10143 18.9542C1.05737 19.2201 1.00842 19.4956 0.993729 19.5729L0.964355 19.7034H6.65312H12.3419L12.3125 19.5681C12.0335 18.2485 11.96 15.6189 12.1607 14.1929C12.5524 11.3893 13.5119 9.30116 15.1618 7.64801C15.9843 6.82143 16.7137 6.31389 17.8397 5.77734C19.3623 5.05227 20.782 4.71874 22.3584 4.71874C25.0853 4.71874 27.9737 5.7435 30.9993 7.78335C31.3958 8.05404 31.7728 8.30057 31.8364 8.33924C31.9392 8.40208 31.9637 8.39241 32.1987 8.21839C32.3407 8.11688 32.4533 8.01537 32.4533 8.00087C32.4533 7.87519 30.3775 6.19304 29.369 5.50181C25.1245 2.57738 20.9876 1.19493 17.1788 1.43178Z" fill="#CC0000"/>
<path d="M23.1321 5.68068C23.1125 5.92237 23.1076 6.13989 23.1272 6.1689C23.1419 6.19306 23.2741 6.21723 23.4112 6.21723C23.5531 6.21723 23.8616 6.25107 24.1063 6.28974C24.3462 6.32841 24.547 6.35258 24.5519 6.34775C24.5567 6.34291 24.5763 6.13989 24.5959 5.89337C24.6253 5.49217 24.6204 5.44866 24.5372 5.42449C24.4197 5.39066 23.8909 5.31332 23.4895 5.27465L23.1664 5.24564L23.1321 5.68068Z" fill="#CC0000"/>
<path d="M19.3323 5.75316C18.5637 6.02386 18.5441 6.03352 18.5637 6.09153C18.5735 6.12053 18.6518 6.35255 18.7399 6.60874L18.8966 7.07278L19.3225 6.89393C19.5575 6.79243 19.8415 6.68608 19.959 6.65225C20.0716 6.61841 20.1646 6.56524 20.1646 6.53624C20.1646 6.43956 19.866 5.58882 19.8317 5.58882C19.8121 5.58882 19.5869 5.66132 19.3323 5.75316Z" fill="#CC0000"/>
<path d="M5.1159 6.16887C4.82705 6.46373 4.59696 6.71992 4.60675 6.74408C4.63612 6.82142 5.674 7.677 5.71806 7.65767C5.76213 7.64317 6.7021 6.5749 6.7021 6.53623C6.7021 6.51206 5.68869 5.63715 5.65932 5.63715C5.64953 5.63715 5.40474 5.87884 5.1159 6.16887Z" fill="#CC0000"/>
<path d="M15.5493 8.0637C15.3878 8.23288 15.1969 8.44556 15.1234 8.54224L14.9814 8.71626L15.3241 9.21897C15.5102 9.49449 15.6815 9.72168 15.706 9.72168C15.7256 9.72168 15.8284 9.6105 15.9312 9.47999C16.034 9.34465 16.2249 9.12713 16.3571 8.98695L16.597 8.73559L16.269 8.24738C16.0879 7.98152 15.9165 7.764 15.8871 7.764C15.8578 7.764 15.706 7.89935 15.5493 8.0637Z" fill="#CC0000"/>
<path d="M18.2075 14.6521V19.7034H19.6028H20.998L21.0078 18.5143L21.0225 17.3252L22.173 18.5143L23.3235 19.6986L25.4041 19.7034H27.4848L26.5791 18.7947C26.0798 18.2968 25.3699 17.5814 24.9929 17.2092L24.3173 16.5276L24.6502 16.4213C25.8545 16.0588 26.6036 15.0243 26.7211 13.5839C26.7896 12.6848 26.677 11.9694 26.3735 11.37C25.9769 10.5869 25.3258 10.0601 24.3907 9.7507L23.9452 9.60085H21.0764H18.2075V14.6521ZM23.4312 12.3706C23.6711 12.6268 23.7592 12.8636 23.7592 13.2745C23.7592 13.6854 23.6711 13.9222 23.4312 14.1784L23.2354 14.3863H22.1192H20.998V13.2745V12.1627H22.1192H23.2354L23.4312 12.3706Z" fill="#CC0000"/>
<path d="M30.0394 9.72653C29.3247 9.89571 28.7029 10.3936 28.37 11.0558C28.0371 11.7277 28.0469 11.5344 28.0469 15.8219V19.7034H29.4666H30.8864V18.8092V17.9149H32.1593H33.4321V18.8092V19.7034H34.8029H36.1737V15.8171C36.1737 13.4389 36.1541 11.8341 36.1247 11.6745C35.9975 11.0026 35.503 10.3501 34.8568 10.0166C34.2007 9.67819 33.9853 9.64919 32.0418 9.65402C30.7493 9.65402 30.2548 9.67336 30.0394 9.72653ZM32.9181 12.1192C33.0356 12.1482 33.1873 12.2353 33.2706 12.3174L33.4076 12.4576L33.4223 13.7386L33.437 15.0147H32.1348H30.8374V13.7917C30.8374 12.6703 30.8472 12.5591 30.9353 12.4189C31.043 12.2449 31.1752 12.1579 31.4249 12.1096C31.704 12.0564 32.6831 12.0612 32.9181 12.1192Z" fill="#CC0000"/>
<path d="M37.3984 14.6763V19.7034L38.8818 19.6938L40.3603 19.6793L40.375 14.6618L40.3848 9.64919H38.8916H37.3984V14.6763Z" fill="#CC0000"/>
<path d="M41.5107 14.6763V19.7034H44.9132H48.3157V18.3741V17.0449H46.3819H44.4481V13.347V9.64919H42.9794H41.5107V14.6763Z" fill="#CC0000"/>
<path d="M51.1832 9.72653C50.3215 9.92955 49.5725 10.5918 49.2592 11.4183C49.1417 11.7229 49.127 11.8341 49.1074 12.622C49.0878 13.5839 49.1368 13.9222 49.3767 14.425C49.5578 14.8117 50.1453 15.3772 50.581 15.5851C51.1146 15.8412 51.4182 15.8848 52.7841 15.8848H53.9933V16.489V17.0932H51.6189H49.2445V18.3983V19.7034H51.707C54.0031 19.7034 54.1989 19.6986 54.5514 19.6068C55.0801 19.4762 55.4816 19.2539 55.8585 18.8817C56.4803 18.2726 56.6663 17.6539 56.6223 16.3198C56.6027 15.6866 56.5782 15.4545 56.495 15.2032C56.2942 14.5748 55.7998 14.0141 55.1976 13.7144C54.6591 13.4485 54.4486 13.4195 52.9799 13.4195H51.6434V12.8395V12.2594H53.9443H56.2453V10.9543V9.64919L53.8611 9.65402C51.9763 9.65402 51.4133 9.67336 51.1832 9.72653Z" fill="#CC0000"/>
<path d="M13.3115 11.8002C13.2626 11.9211 13.0129 12.8443 12.9492 13.1392C12.9199 13.2648 12.9639 13.3084 13.5025 13.7337C13.8256 13.9851 14.0997 14.1929 14.1095 14.1929C14.1193 14.1929 14.1438 14.0673 14.1634 13.9126C14.183 13.7627 14.2466 13.376 14.3151 13.057C14.3788 12.7428 14.4277 12.4769 14.4228 12.4769C14.4179 12.4721 14.2025 12.3078 13.948 12.1096C13.3409 11.6359 13.3703 11.6504 13.3115 11.8002Z" fill="#CC0000"/>
<path d="M0.421148 12.8975C0.0343901 13.8111 -0.0194622 13.9513 0.00501613 13.9754C0.0343901 14.0093 1.61569 14.5797 1.66954 14.5797C1.68912 14.5797 1.70871 14.5603 1.70871 14.5313C1.70871 14.5071 1.86537 14.1253 2.0563 13.6806C2.24723 13.2359 2.38431 12.8588 2.35983 12.8395C2.31577 12.8008 0.798114 12.2594 0.73447 12.2594C0.709992 12.2594 0.572913 12.5495 0.421148 12.8975Z" fill="#CC0000"/>
<path d="M12.7241 17.0835C12.7241 17.4026 12.8612 18.5965 12.9004 18.6352C12.9346 18.6738 14.6041 19.2636 14.6236 19.2442C14.6383 19.2297 14.3544 17.6684 14.3005 17.4799C14.2712 17.3832 14.1928 17.3349 13.8991 17.2334C13.6984 17.1609 13.3508 17.0352 13.1305 16.9579L12.7241 16.808V17.0835Z" fill="#CC0000"/>
</svg>
