<svg width="58" height="56" viewBox="0 0 58 56" fill="none" xmlns="http://www.w3.org/2000/svg">
<path d="M10.2708 0H47.7292C53.4083 0 58 4.54701 58 10.1709V45.8291C58 51.453 53.4083 56 47.7292 56H10.2708C4.59167 56 0 51.453 0 45.8291V10.1709C0 4.54701 4.59167 0 10.2708 0Z" fill="#00005B"/>
<path d="M23.2966 33.5043H14.3066L12.47 39.1522C12.4216 39.3675 12.2283 39.5111 12.0108 39.4872H7.46748C7.20165 39.4872 7.12915 39.3436 7.20165 39.0564L14.9833 16.9675C15.0558 16.7282 15.1283 16.5128 15.225 16.2257C15.3216 15.7231 15.37 15.1966 15.37 14.6701C15.3458 14.5504 15.4425 14.4308 15.5633 14.4069C15.5875 14.4069 15.6116 14.4069 15.6358 14.4069H21.8225C21.9916 14.4069 22.1125 14.4787 22.1366 14.5983L30.9575 39.1282C31.03 39.3915 30.9575 39.5111 30.7158 39.5111H25.665C25.4958 39.5351 25.3266 39.4154 25.2783 39.2479L23.2966 33.5043ZM15.7083 28.7419H21.8466C21.7016 28.2393 21.5083 27.6411 21.2908 27.0188C21.0733 26.3727 20.8558 25.6787 20.6383 24.9607C20.3966 24.2188 20.1791 23.5009 19.9375 22.759C19.6958 22.0171 19.4783 21.3231 19.285 20.6291C19.0916 19.959 18.9225 19.3368 18.7533 18.7624H18.705C18.4875 19.7915 18.2216 20.8205 17.8833 21.8496C17.5208 22.9983 17.1583 24.1949 16.7716 25.3915C16.4575 26.612 16.0708 27.7368 15.7083 28.7419ZM45.2883 31.3026H37.6275C37.7241 32.0445 37.9658 32.7864 38.3766 33.4325C38.8116 34.0787 39.4158 34.5812 40.1408 34.8684C41.1075 35.2752 42.1708 35.4906 43.2341 35.4667C44.08 35.4428 44.9258 35.371 45.7475 35.2034C46.4966 35.1077 47.2216 34.9163 47.8983 34.653C48.0191 34.5573 48.0916 34.6052 48.0916 34.8445V38.506C48.0916 38.6017 48.0675 38.6975 48.0433 38.7932C47.995 38.865 47.9466 38.9128 47.8741 38.9607C47.1008 39.2958 46.3033 39.5351 45.4575 39.6787C44.3216 39.894 43.1858 39.9898 42.0258 39.9658C40.1891 39.9658 38.6425 39.6787 37.3858 39.1282C36.2016 38.6257 35.1625 37.8359 34.3408 36.8547C33.5675 35.9214 33.0116 34.8684 32.6733 33.7197C32.335 32.5949 32.1658 31.4222 32.1658 30.2257C32.1658 28.9334 32.3591 27.665 32.77 26.4205C33.1566 25.224 33.7608 24.1231 34.5825 23.1419C35.38 22.1846 36.3708 21.4188 37.5066 20.8684C38.6425 20.318 39.9958 20.1265 41.5425 20.1265C42.8233 20.1026 44.1041 20.3419 45.2883 20.8684C46.2791 21.2992 47.1491 21.9453 47.8258 22.7829C48.4541 23.5966 48.9616 24.506 49.2758 25.5111C49.59 26.4684 49.735 27.4496 49.735 28.4308C49.735 29.0052 49.7108 29.5077 49.6866 29.9624C49.6383 30.4171 49.6141 30.7522 49.59 30.9675C49.5658 31.1351 49.4208 31.2787 49.2516 31.2787C49.1066 31.2787 48.8408 31.3026 48.4541 31.3265C48.0675 31.3744 47.6083 31.3983 47.0525 31.3983C46.4966 31.3983 45.9166 31.3026 45.2883 31.3026ZM37.6275 27.8086H42.7267C43.355 27.8086 43.8141 27.8086 44.1041 27.7846C44.2975 27.7607 44.4908 27.7128 44.66 27.5932V27.3539C44.66 27.0428 44.6116 26.7556 44.515 26.4684C44.08 25.1282 42.7991 24.2188 41.3733 24.2667C40.0441 24.1949 38.7875 24.8889 38.1591 26.0855C37.8691 26.6359 37.7 27.2103 37.6275 27.8086Z" fill="#9999FF"/>
</svg>
