<svg width="57" height="55" viewBox="0 0 57 55" fill="none" xmlns="http://www.w3.org/2000/svg">
<path d="M46.4766 0.765625H10.5234C5.17749 0.765625 0.84375 5.09937 0.84375 10.4453V44.5547C0.84375 49.9006 5.17749 54.2344 10.5234 54.2344H46.4766C51.8225 54.2344 56.1562 49.9006 56.1562 44.5547V10.4453C56.1562 5.09937 51.8225 0.765625 46.4766 0.765625Z" fill="#00005B"/>
<path d="M12.8281 40.1481V15.0547C12.8236 15.0197 12.8271 14.9842 12.8385 14.9508C12.8499 14.9174 12.8687 14.8871 12.8937 14.8622C12.9186 14.8372 12.9489 14.8183 12.9823 14.807C13.0157 14.7956 13.0512 14.792 13.0862 14.7966C14.9553 14.7482 17.1609 14.5938 20.0371 14.5938C23.4296 14.5938 25.9187 15.3013 27.5043 16.8247C28.2746 17.5454 28.8845 18.4203 29.2943 19.3924C29.7041 20.3644 29.9046 21.4119 29.8828 22.4666C29.8828 25.246 28.8994 27.311 26.9328 28.6616C24.9661 30.0121 22.4924 30.6881 19.5117 30.6897L17.4374 30.7266V40.1112C17.4432 40.1513 17.4396 40.1922 17.4268 40.2306C17.4141 40.2691 17.3925 40.304 17.3638 40.3326C17.3352 40.3613 17.3003 40.3828 17.2619 40.3956C17.2234 40.4084 17.1825 40.412 17.1424 40.4062H13.1231C12.9272 40.4062 12.8281 40.321 12.8281 40.1481ZM17.4374 18.1937V27.2695C17.4374 27.2695 18.4884 27.228 19.7421 27.228C21.3908 27.228 22.7244 26.8654 23.7431 26.1402C24.7617 25.415 25.2718 24.2273 25.2734 22.5772C25.2734 21.1268 24.8247 20.0082 23.9274 19.2216C23.0302 18.4349 21.7334 18.0446 20.0371 18.0508C19.62 18.0508 19.2074 18.0508 18.8018 18.0692C18.3962 18.0877 18.0643 18.0877 17.8062 18.0877C17.5481 18.0877 17.4098 18.0784 17.4374 18.1937ZM33.3398 21.9687H37.2578C37.3522 21.9656 37.4449 21.994 37.5213 22.0495C37.5977 22.1051 37.6534 22.1845 37.6795 22.2753C37.9731 22.903 38.1429 23.5814 38.1796 24.2734C39.6592 22.3605 41.4799 21.5078 43.9045 21.5078C43.941 21.5013 43.9786 21.5037 44.014 21.5148C44.0494 21.526 44.0816 21.5455 44.1079 21.5717C44.1341 21.598 44.1537 21.6302 44.1648 21.6656C44.1759 21.701 44.1783 21.7386 44.1718 21.7752V25.8452C44.1718 26.0503 44.0704 26.1379 43.8653 26.1126C41.6459 25.9858 39.8851 26.2762 38.6106 27.5507C38.4823 27.6581 38.3778 27.791 38.3036 27.941C38.2294 28.091 38.1872 28.2547 38.1796 28.4219V40.1389C38.1796 40.3164 38.0782 40.4062 37.8731 40.4062H33.9137C33.6832 40.4062 33.5703 40.3048 33.5703 40.0997V27.0391C33.5703 23.9462 33.3398 23.506 33.1093 22.2361C33.084 22.0586 33.16 21.9687 33.3398 21.9687Z" fill="#9999FF"/>
</svg>
