<svg width="43" height="52" viewBox="0 0 43 52" fill="none" xmlns="http://www.w3.org/2000/svg">
<path d="M42.9948 22.9877L32.5577 23.4196L25.792 22.9885L36.9828 21.9172L42.9948 22.9877Z" fill="#634B1E"/>
<path d="M36.9586 22.3852L42.9948 22.9877V10.8422L36.9586 7.82703L36.4951 8.3269V21.8684L36.9586 22.3852Z" fill="#D9A740"/>
<path d="M25.792 10.8351L36.9586 7.81628V22.3852L25.792 22.9886V10.8351Z" fill="#886A2A"/>
<path d="M0.00488281 22.9877L10.442 23.4196L17.2077 22.9885L6.04883 21.7947L0.00488281 22.9877Z" fill="#634B1E"/>
<path d="M6.0411 22.3851L0.00488281 22.9697V10.7875L6.0411 7.77734L6.31903 8.29583V21.9301L6.0411 22.3851Z" fill="#886A2A"/>
<path d="M17.2076 10.8351L6.04102 7.81628V22.3852L17.2076 22.9886V10.8351Z" fill="#D9A740"/>
<path d="M42.9948 29.2686L32.5577 28.8365L25.792 29.2677L36.9341 30.3928L42.9948 29.2686Z" fill="#FAD791"/>
<path d="M36.9587 29.8711L42.9949 29.2686V41.414L36.9587 44.4291L36.6416 43.7395V30.4908L36.9587 29.8711Z" fill="#D9A740"/>
<path d="M25.792 41.4212L36.9586 44.44V29.8711L25.792 29.2678V41.4212Z" fill="#886A2A"/>
<path d="M0.00488281 29.2686L10.442 28.8365L17.2077 29.2678L5.96806 30.4903L0.00488281 29.2686Z" fill="#FAD791"/>
<path d="M6.0411 29.8711L0.00488281 29.2686V41.414L6.0411 44.4291L6.40702 43.8857V30.4903L6.0411 29.8711Z" fill="#886A2A"/>
<path d="M17.2076 41.4212L6.04102 44.44V29.8711L17.2076 29.2678V41.4212Z" fill="#D9A740"/>
<path d="M16.0508 17.8862L21.5867 16.9164L32.6388 18.4796L33.5908 19.0266L28.2228 19.6134L16.0508 17.8862Z" fill="#634B1E"/>
<path d="M26.9487 17.8862L21.4128 16.9164L9.88477 18.7032L9.40869 19.0266L14.7767 19.6134L26.9487 17.8862Z" fill="#634B1E"/>
<path d="M16.0508 34.3702L21.5867 35.3399L32.611 33.8L33.5908 33.2297L28.2228 32.6429L16.0508 34.3702Z" fill="#FAD791"/>
<path d="M26.9487 34.3702L21.4128 35.3399L9.80081 33.6881L9.40869 33.2297L14.7767 32.6429L26.9487 34.3702Z" fill="#FAD791"/>
<path d="M33.5909 19.0266V13.0236L27.9295 11.1743V3.31724L21.4997 0.106323V0.106491L21.2315 0.533059L21.1826 51.2897L21.4997 51.9424L27.9295 48.7315V41.082L33.5909 39.2326V33.2296L27.9295 34.2252V18.031L33.5909 19.0266Z" fill="#D9A740"/>
<path d="M15.0701 3.31724V11.1743L9.40869 13.0236V19.0266L15.0701 18.031V34.2252L9.40869 33.2296V39.2326L15.0701 41.082V48.7315L21.4999 51.9424V0.106323L15.0701 3.31724Z" fill="#886A2A"/>
</svg>
