<svg width="23" height="46" viewBox="0 0 23 46" fill="none" xmlns="http://www.w3.org/2000/svg">
<path d="M19.4888 0.466104C18.2315 1.41753 17.1154 2.54239 16.1738 3.8071L17.4738 6.26085C18.3171 5.03659 19.2445 3.87245 20.2493 2.77685C20.3208 2.69723 20.3598 2.65985 20.3598 2.65985L20.2493 2.77685C19.2948 3.88718 18.4257 5.06814 17.6493 6.3096C19.3442 6.18901 21.0316 5.98019 22.7047 5.68398C22.8943 5.008 22.9489 4.30128 22.8652 3.60422C22.7816 2.90715 22.5614 2.2334 22.2172 1.62148C22.2172 1.62148 20.9627 -0.400022 19.4888 0.466104Z" fill="url(#paint0_linear_802_27)"/>
<path d="M15.1208 21.0792L14.6089 21.1686L14.8705 21.128C14.9501 21.1133 15.0363 21.0971 15.1208 21.0792Z" fill="#BE202E"/>
<path opacity="0.35" d="M15.1208 21.0792L14.6089 21.1686L14.8705 21.128C14.9501 21.1133 15.0363 21.0971 15.1208 21.0792Z" fill="#BE202E"/>
<path d="M15.5562 18.9375L15.6374 18.9261C15.7479 18.9099 15.8568 18.8904 15.9624 18.8676L15.5594 18.9359L15.5562 18.9375Z" fill="#BE202E"/>
<path opacity="0.35" d="M15.5562 18.9375L15.6374 18.9261C15.7479 18.9099 15.8568 18.8904 15.9624 18.8676L15.5594 18.9359L15.5562 18.9375Z" fill="#BE202E"/>
<path d="M13.6402 12.6C14.0356 11.8612 14.4359 11.1397 14.8411 10.4355C15.2614 9.70535 15.6861 8.99848 16.1151 8.31489L16.1898 8.19302C16.6145 7.52135 17.0424 6.87623 17.4736 6.25764L16.1736 3.80389L15.8778 4.16952C15.5025 4.63752 15.1141 5.14452 14.7143 5.67264C14.2642 6.27389 13.8011 6.91414 13.3315 7.58852C12.8976 8.21089 12.4572 8.86252 12.0168 9.53852C11.6415 10.1121 11.2661 10.7036 10.8923 11.3098L10.8501 11.378L12.5417 14.7125C12.9036 14.0019 13.2697 13.2977 13.6402 12.6Z" fill="url(#paint1_linear_802_27)"/>
<path d="M5.93303 31.437C5.70878 32.0523 5.48399 32.6801 5.25866 33.3204L5.24891 33.348L5.15303 33.6194C5.0019 34.0516 4.86866 34.4319 4.56641 35.324C5.13063 35.6893 5.57484 36.2127 5.84366 36.8287C5.80703 36.1117 5.48944 35.438 4.95966 34.9535C6.02543 35.126 7.11814 35.002 8.11814 34.595C9.11815 34.188 9.9869 33.5137 10.6293 32.646C10.7293 32.4823 10.8189 32.3124 10.8974 32.1374C10.6291 32.4692 10.2758 32.7219 9.87517 32.8687C9.47453 33.0155 9.04155 33.0509 8.62241 32.971C10.0027 32.4615 11.173 31.5051 11.9472 30.254C12.1275 29.9647 12.3014 29.6495 12.4802 29.3001C11.8531 29.9889 11.0575 30.5025 10.1716 30.7903C9.28572 31.078 8.34016 31.1301 7.42803 30.9414L6.05978 31.0909C6.01266 31.2062 5.97528 31.3216 5.93303 31.437Z" fill="url(#paint2_linear_802_27)"/>
<path d="M6.57154 28.3723C6.86729 27.6074 7.17171 26.835 7.48479 26.055C7.78379 25.3075 8.09092 24.5562 8.40617 23.8012C8.72142 23.0461 9.04317 22.2877 9.37142 21.5262C9.70508 20.7559 10.0458 19.9873 10.3935 19.2203C10.7413 18.4533 11.0907 17.7009 11.4417 16.9632C11.5695 16.6945 11.6984 16.4264 11.8284 16.1588C12.0527 15.6973 12.2785 15.2396 12.506 14.7857C12.5174 14.7613 12.5304 14.7369 12.5434 14.7125L10.8502 11.3764L10.7673 11.5113C10.374 12.1613 9.98079 12.8113 9.59567 13.4873C9.21054 14.1633 8.82379 14.8588 8.45817 15.5608C8.14292 16.1534 7.83525 16.7492 7.53517 17.3483L7.35642 17.7139C6.98754 18.4728 6.65442 19.2057 6.35379 19.9109C6.01254 20.7093 5.71138 21.4709 5.45029 22.1957C5.27642 22.6718 5.12529 23.1317 4.97579 23.572C4.85717 23.949 4.74504 24.326 4.63779 24.7095C4.38429 25.5957 4.16763 26.4792 3.98779 27.3599L5.68754 30.7155C5.91288 30.1154 6.14363 29.5065 6.37979 28.889L6.57154 28.3723Z" fill="url(#paint3_linear_802_27)"/>
<path d="M3.95691 27.4769C3.74336 28.536 3.59574 29.6073 3.51491 30.6846C3.51491 30.722 3.51491 30.7594 3.50678 30.7968C2.96992 30.1196 2.30792 29.5519 1.55678 29.1246C2.55498 30.3967 3.21065 31.9033 3.46128 33.5008C2.72392 33.566 1.98221 33.4395 1.30816 33.1335C1.81678 33.6536 2.44833 34.037 3.14441 34.2483C2.19278 34.43 1.30954 34.8702 0.591535 35.5206C1.5255 35.0494 2.57519 34.8565 3.61566 34.9649C2.45378 38.2571 1.28866 41.8923 0.123535 45.75C0.285194 45.704 0.432913 45.6186 0.553448 45.5015C0.673982 45.3844 0.763564 45.2392 0.81416 45.0789C1.02216 44.3801 2.40016 39.796 4.56141 33.7705L4.74828 33.2538L4.80028 33.1091C5.02887 32.4776 5.26557 31.833 5.51041 31.1754L5.67291 30.7253V30.7171L3.98128 27.3615C3.97316 27.3989 3.96341 27.4379 3.95691 27.4769Z" fill="url(#paint4_linear_802_27)"/>
<path d="M12.8048 15.0017L12.6585 15.3024C12.5123 15.6046 12.3639 15.9134 12.2133 16.2286C12.0508 16.5699 11.8883 16.9192 11.7258 17.2767C11.6413 17.4571 11.5633 17.6375 11.4739 17.8211C11.2204 18.3714 10.9637 18.9397 10.7037 19.5257C10.3787 20.2472 10.0537 20.9969 9.72867 21.7747C9.41342 22.5168 9.09384 23.2849 8.76992 24.079C8.46225 24.8373 8.15079 25.6152 7.83554 26.4125C7.55496 27.1286 7.27167 27.8636 6.98567 28.6176C6.97104 28.655 6.95804 28.6907 6.94504 28.7281C6.66121 29.4789 6.37467 30.2491 6.08542 31.0389L6.06592 31.0925L7.43417 30.943L7.35292 30.9284C9.35655 30.5207 11.1813 29.4935 12.5692 27.992C13.2604 27.2397 13.8604 26.4085 14.3567 25.5155C14.788 24.7453 15.1711 23.9492 15.5039 23.1316C15.8208 22.3646 16.1247 21.5359 16.4172 20.6356C16.0127 20.8419 15.5819 20.9917 15.1367 21.0809C15.0538 21.0987 14.9742 21.115 14.8832 21.1296C14.7922 21.1442 14.7093 21.1589 14.6215 21.1702C16.046 20.5848 17.1885 19.4708 17.8098 18.0616C17.2529 18.4413 16.6302 18.7141 15.9735 18.866C15.8663 18.8904 15.759 18.9082 15.6485 18.9245L15.5673 18.9359C16.052 18.7402 16.5101 18.4842 16.9307 18.1737C17.0135 18.112 17.0932 18.047 17.1712 17.9787C17.2898 17.8764 17.4019 17.7691 17.5092 17.6537C17.5774 17.5822 17.644 17.5075 17.709 17.4295C17.8648 17.2434 18.0076 17.0468 18.1364 16.8412C18.177 16.7762 18.2177 16.7112 18.2567 16.643C18.307 16.5455 18.3558 16.4496 18.4029 16.3537C18.6158 15.9247 18.7864 15.5412 18.9213 15.2065C18.9895 15.044 19.048 14.8815 19.0984 14.7385C19.1195 14.6816 19.139 14.6247 19.1569 14.576C19.2105 14.4135 19.2544 14.2721 19.2885 14.1454C19.3302 13.9983 19.3638 13.8492 19.3893 13.6985C19.333 13.7429 19.2738 13.7837 19.2122 13.8204C18.6204 14.1338 17.9833 14.3531 17.3239 14.4704L18.58 14.3322L17.3239 14.4704H17.2947L17.1013 14.5012L17.1354 14.4866L12.8373 14.9579L12.8048 15.0017Z" fill="url(#paint5_linear_802_27)"/>
<path d="M17.6443 6.31128C17.2624 6.8979 16.8448 7.56415 16.3963 8.31978L16.3248 8.44003C15.937 9.09003 15.5258 9.80882 15.0914 10.5964C14.7166 11.2746 14.3271 12.0042 13.9231 12.7853C13.5699 13.4667 13.2059 14.1904 12.8311 14.9563L17.1292 14.485C18.078 14.1106 18.8965 13.4666 19.4838 12.6325C19.6284 12.4245 19.7731 12.2068 19.9177 11.9825C20.3597 11.2935 20.7919 10.5347 21.1787 9.78065C21.5324 9.09628 21.8513 8.39447 22.1342 7.6779C22.2809 7.30587 22.4073 6.92614 22.5128 6.5404C22.5908 6.2414 22.6526 5.95865 22.6997 5.6889C21.0265 5.98387 19.3391 6.19161 17.6443 6.31128Z" fill="url(#paint6_linear_802_27)"/>
<path d="M14.8671 21.128C14.781 21.1426 14.6932 21.1572 14.6055 21.1686C14.6932 21.1572 14.7875 21.1426 14.8671 21.128Z" fill="#BE202E"/>
<path opacity="0.35" d="M14.8671 21.128C14.781 21.1426 14.6932 21.1572 14.6055 21.1686C14.6932 21.1572 14.7875 21.1426 14.8671 21.128Z" fill="#BE202E"/>
<path d="M14.8671 21.128C14.781 21.1426 14.6932 21.1572 14.6055 21.1686C14.6932 21.1572 14.7875 21.1426 14.8671 21.128Z" fill="url(#paint7_linear_802_27)"/>
<path d="M15.5513 18.9375L15.6325 18.9261L15.5513 18.9375Z" fill="#BE202E"/>
<path opacity="0.35" d="M15.5513 18.9375L15.6325 18.9261L15.5513 18.9375Z" fill="#BE202E"/>
<path d="M15.5513 18.9375L15.6325 18.9261L15.5513 18.9375Z" fill="url(#paint8_linear_802_27)"/>
<defs>
<linearGradient id="paint0_linear_802_27" x1="14.0083" y1="0.877308" x2="23.5346" y2="-1.76702" gradientUnits="userSpaceOnUse">
<stop stop-color="#F69923"/>
<stop offset="0.312" stop-color="#F79A23"/>
<stop offset="0.838" stop-color="#E97826"/>
</linearGradient>
<linearGradient id="paint1_linear_802_27" x1="-6.86372" y1="43.6189" x2="12.5306" y2="2.07932" gradientUnits="userSpaceOnUse">
<stop offset="0.323" stop-color="#9E2064"/>
<stop offset="0.63" stop-color="#C92037"/>
<stop offset="0.751" stop-color="#CD2335"/>
<stop offset="1" stop-color="#E97826"/>
</linearGradient>
<linearGradient id="paint2_linear_802_27" x1="-0.354393" y1="40.5503" x2="11.2024" y2="15.7974" gradientUnits="userSpaceOnUse">
<stop stop-color="#282662"/>
<stop offset="0.095" stop-color="#662E8D"/>
<stop offset="0.788" stop-color="#9F2064"/>
<stop offset="0.949" stop-color="#CD2032"/>
</linearGradient>
<linearGradient id="paint3_linear_802_27" x1="-6.16283" y1="41.1039" x2="13.2315" y2="-0.435649" gradientUnits="userSpaceOnUse">
<stop offset="0.323" stop-color="#9E2064"/>
<stop offset="0.63" stop-color="#C92037"/>
<stop offset="0.751" stop-color="#CD2335"/>
<stop offset="1" stop-color="#E97826"/>
</linearGradient>
<linearGradient id="paint4_linear_802_27" x1="-4.18503" y1="38.3387" x2="6.00736" y2="16.5082" gradientUnits="userSpaceOnUse">
<stop stop-color="#282662"/>
<stop offset="0.095" stop-color="#662E8D"/>
<stop offset="0.788" stop-color="#9F2064"/>
<stop offset="0.949" stop-color="#CD2032"/>
</linearGradient>
<linearGradient id="paint5_linear_802_27" x1="-1.86116" y1="43.1124" x2="17.5331" y2="1.57282" gradientUnits="userSpaceOnUse">
<stop offset="0.323" stop-color="#9E2064"/>
<stop offset="0.63" stop-color="#C92037"/>
<stop offset="0.751" stop-color="#CD2335"/>
<stop offset="1" stop-color="#E97826"/>
</linearGradient>
<linearGradient id="paint6_linear_802_27" x1="-3.27797" y1="45.5906" x2="16.117" y2="4.04963" gradientUnits="userSpaceOnUse">
<stop offset="0.323" stop-color="#9E2064"/>
<stop offset="0.63" stop-color="#C92037"/>
<stop offset="0.751" stop-color="#CD2335"/>
<stop offset="1" stop-color="#E97826"/>
</linearGradient>
<linearGradient id="paint7_linear_802_27" x1="-0.582982" y1="43.7098" x2="18.8126" y2="2.1694" gradientUnits="userSpaceOnUse">
<stop offset="0.323" stop-color="#9E2064"/>
<stop offset="0.63" stop-color="#C92037"/>
<stop offset="0.751" stop-color="#CD2335"/>
<stop offset="1" stop-color="#E97826"/>
</linearGradient>
<linearGradient id="paint8_linear_802_27" x1="-0.729007" y1="43.6419" x2="18.6663" y2="2.10116" gradientUnits="userSpaceOnUse">
<stop offset="0.323" stop-color="#9E2064"/>
<stop offset="0.63" stop-color="#C92037"/>
<stop offset="0.751" stop-color="#CD2335"/>
<stop offset="1" stop-color="#E97826"/>
</linearGradient>
</defs>
</svg>
