<svg width="58" height="50" viewBox="0 0 58 50" fill="none" xmlns="http://www.w3.org/2000/svg">
<path d="M56.3179 43.7771L24.8682 48.7384L21 23.4272L52.2816 18.6341L56.3179 43.7771Z" fill="#03A9F4"/>
<path d="M52.283 18.6341L56.3193 43.7771L24.8696 48.7384L24.5332 46.2998L52.283 18.6341Z" fill="#039BE5"/>
<path d="M21 23.4272L23.0182 36.4612L37.9862 20.8204L21 23.4272Z" fill="#29B6F6"/>
<path d="M26.2972 46.8043L22.9336 24.7726L50.9357 20.484L54.4675 42.3475L26.2972 46.8043ZM24.8677 26.2022L27.7267 44.8702L52.5334 40.918L49.5902 22.334L24.8677 26.2022Z" fill="white"/>
<path d="M28.6504 34.5271L28.9868 37.0499L49.5889 33.7703L49.1684 31.2476L28.6504 34.5271Z" fill="white"/>
<path d="M33.2767 40.6657L30.6699 43.7771L31.0063 39.7407C31.0063 39.6566 31.0063 39.5725 31.0904 39.4885L35.4631 28.809C35.6313 28.3885 36.1358 28.1363 36.5562 28.3885L37.3131 28.7249C37.7335 28.8931 37.9858 29.3976 37.7335 29.8181L33.4449 40.4135C33.3608 40.4975 33.3608 40.5816 33.2767 40.6657ZM45.1335 36.3771L37.3131 27.2113C36.9767 26.8749 37.0608 26.2863 37.3971 26.034L38.0699 25.5295C38.4062 25.1931 38.9949 25.2772 39.2471 25.6136L47.0675 34.7794L45.1335 36.3771ZM47.5721 35.368C47.5721 35.368 49.5902 35.9567 49.5902 38.3112C49.5902 39.8248 49.1698 40.4135 49.1698 40.4135C49.1698 40.4135 48.8334 39.4044 47.2357 38.8157C45.0494 38.0589 45.1335 36.3771 45.1335 36.3771L46.9834 35.9567L47.5721 35.368Z" fill="white"/>
<path d="M36.47 32.8453L35.4609 35.2839L37.0587 33.7703L37.395 32.8453H36.47Z" fill="#03A9F4"/>
<path d="M35.716 37.0498L37.0615 33.7703L35.4637 35.2839L34.791 37.0498H35.716Z" fill="#039BE5"/>
<path d="M32.1008 33.6862L33.7826 29.4817H32.8576L31.1758 33.6862H32.1008Z" fill="#03A9F4"/>
<path d="M47.8259 34.3589L45.051 31.1635H43.9578L46.9009 34.5271L47.0691 34.7794L45.1351 36.3771L44.0419 35.1158L41.351 32.0044H40.2578L42.7805 34.9476L44.4623 36.9657L45.051 37.5544L45.6396 37.0498L47.5737 35.368L48.2464 34.8635L47.8259 34.3589Z" fill="#039BE5"/>
<path d="M33.6152 29.3976V30.3226L37.8197 32.0885V31.1635L33.6152 29.3976Z" fill="#03A9F4"/>
<path d="M34.4553 36.7135L31.8485 35.6203L31.1758 36.293L34.4553 37.6385V36.7135Z" fill="#039BE5"/>
<path d="M30.25 34.9476V35.8726L31.175 36.293L31.8477 35.6203L30.25 34.9476Z" fill="#03A9F4"/>
<path d="M51.1884 18.7181V18.8022L51.777 22.334L52.8702 19.3068C52.8702 19.2227 52.9543 19.1386 52.9543 19.0545L52.6179 17.1204C51.9452 17.5409 51.3566 18.2136 51.1884 18.7181ZM47.8248 35.7044C47.6566 35.6203 47.4884 35.5362 47.2361 35.4521C46.8157 35.2839 46.5634 35.1998 46.3111 35.0317L45.218 38.7316L47.0679 38.4794L47.8248 35.7044ZM44.7134 40.4975L44.293 42.3475L46.0589 42.0112L46.5634 40.2453L44.7134 40.4975ZM48.5816 26.7908V26.8749L48.2452 28.0522L49.1702 27.884L49.5066 29.734L50.1793 27.2953L50.5997 25.9499L50.0111 22.2499L49.0861 25.1931L48.5816 26.7908Z" fill="#0277BD"/>
<path d="M50.0086 22.2499L50.5973 25.9499L51.6904 22.334L51.1018 18.8022C50.6813 19.9795 50.2609 21.1567 50.1768 21.3249L50.0086 22.2499ZM45.2155 38.7316L44.7109 40.4975L46.5609 40.2452L47.0655 38.4793L45.2155 38.7316ZM49.5041 29.734L49.1677 27.884L48.2427 28.0521L47.4859 30.743L49.2518 30.4908L49.5041 29.734ZM47.57 32.0044L47.0655 32.2567L46.3087 35.0316C46.5609 35.1998 46.8973 35.368 47.2336 35.4521C47.4859 35.5362 47.6541 35.6203 47.8223 35.7044L48.6632 32.6771C48.1586 32.1726 47.57 32.0044 47.57 32.0044Z" fill="#90A4AE"/>
<path d="M48.6663 32.6771L49.2549 30.4067L47.4049 30.659L46.9004 32.509L47.5731 31.9203C47.5731 32.0044 48.1617 32.1726 48.6663 32.6771Z" fill="#0277BD"/>
<path d="M47.572 32.0044L46.8993 32.5931L46.2266 35.0317C46.4788 35.1999 46.8152 35.368 47.1516 35.4521C47.4038 35.5362 47.572 35.6203 47.7402 35.7044L48.5811 32.6771C48.1606 32.1726 47.572 32.0044 47.572 32.0044Z" fill="#90A4AE"/>
<path d="M49.5907 15.6068C44.5453 15.6068 41.1816 16.8682 41.1816 16.8682V17.2886C48.4134 17.2886 49.3384 19.9795 49.5907 20.6522V15.6068Z" fill="#78909C"/>
<path d="M56.319 17.1204C56.1508 17.4568 55.9826 17.709 55.4781 17.709C54.5531 17.709 53.7962 16.3636 53.7962 16.3636C52.3667 15.4386 49.5917 14.3454 47.069 14.3454C42.0236 14.3454 40.3418 15.6068 40.3418 15.6068V16.0272C43.8736 16.0272 45.219 16.3636 46.4804 17.2886C48.4986 18.8022 48.3304 22.2499 47.5736 24.9408L46.0599 29.4817L48.4986 30.2385L50.2645 24.6885C50.3485 24.6044 50.769 23.3431 51.1894 22.0817C51.4417 21.409 52.1144 20.5681 52.9553 20.3158C53.4599 20.1477 54.1326 20.0636 54.5531 20.3999C54.9735 20.7363 54.9735 20.9886 54.8894 21.3249L56.5712 21.8295L58.0008 17.709L56.319 17.1204Z" fill="#D7DEE2"/>
<path d="M55.4789 14.3454C54.5539 14.3454 53.7971 13 53.7971 13L53.1244 15.1023C52.8721 16.0273 51.863 16.4477 51.0221 16.1954L47.4062 15.0182C47.8267 15.775 47.9949 16.6159 48.079 17.625L51.2744 18.6341C51.5267 18.1295 51.9471 17.5409 52.5358 17.2045C52.7039 17.1204 52.8721 17.0363 53.0403 16.9522C53.5448 16.7841 54.2176 16.7 54.638 17.0363C55.0585 17.3727 55.0585 17.625 54.9744 17.9613L56.3198 13.7568C56.1516 14.0932 55.9835 14.3454 55.4789 14.3454Z" fill="#90A4AE"/>
<path d="M46.0587 29.4817L38.7429 46.552C38.3224 47.6452 38.9111 48.9906 40.0883 49.327L40.8451 49.5793C42.0224 49.9156 43.1997 49.2429 43.4519 48.402L48.4974 30.2385L46.0587 29.4817Z" fill="#424242"/>
<path d="M11.1825 27.1241L3.51367 21.2465L7.32317 14.3568L18.2577 18.5L11.1825 27.1241Z" fill="#F57C00"/>
<path d="M34.8327 11.322L34.2389 29.1475L22.0671 33.9167L14.7441 29.2917L25.4316 18.5L34.8327 11.322Z" fill="#1E88E5"/>
<path d="M34.8333 11.322L25.1845 22.4027L20.7812 8.47916L24.9874 3.56509L34.8333 11.322Z" fill="#2962FF"/>
<path d="M27.462 15.1276L18.4069 28.6657L5.74023 33.1458L7.76928 26.2083L10.3913 17.6328L27.462 15.1276Z" fill="#AB47BC"/>
<path d="M10.39 17.6328L3.16602 15.2725L7.76797 3.08334L17.6638 4.23959L27.4607 15.1276L10.39 17.6328Z" fill="#E91E63"/>
<path d="M8.70898 8.47916H28.5007V27.75H8.70898V8.47916Z" fill="#000001"/>
<path d="M11.084 24.2812H18.209V25.4375H11.084V24.2812ZM16.2298 12.237V10.7917H12.2715V12.237H13.459V17.2474H12.2715V18.6927H16.2298V17.2474H15.1682V12.237H16.2298ZM20.0892 18.8854C18.6048 18.8854 17.8163 18.039 17.5163 17.6922L18.6333 16.455C18.8352 16.6723 19.3965 17.2474 20.0892 17.2474C20.9798 17.2474 21.1777 16.3802 21.1777 15.8984V10.7917H22.959V15.8984C22.959 16.3794 22.959 17.151 22.3652 17.9219C21.9496 18.4614 20.9798 18.8854 20.0892 18.8854Z" fill="white"/>
</svg>
