<svg width="45" height="45" viewBox="0 0 45 45" fill="none" xmlns="http://www.w3.org/2000/svg">
<path d="M9.75873 7.17925C7.17404 10.8935 7.49572 15.7264 9.47045 19.6738L9.61494 19.9543L9.7074 20.1322L9.76506 20.2345L9.86807 20.4187C9.92924 20.5267 9.99217 20.6339 10.0565 20.7418L10.1641 20.919C10.2354 21.0336 10.3082 21.1475 10.3828 21.2611L10.4759 21.4049C10.5789 21.5585 10.684 21.7114 10.7927 21.8623L10.8018 21.8739L10.8553 21.9459C10.9491 22.0753 11.0458 22.2033 11.1439 22.3302L11.2525 22.4684C11.3401 22.5784 11.429 22.6874 11.5194 22.7967L11.6213 22.9184C11.7426 23.0611 11.8667 23.2038 11.9929 23.343L12.0003 23.3508L12.0147 23.3666C12.1381 23.5012 12.2643 23.6331 12.3926 23.7649L12.5136 23.8869C12.6127 23.9867 12.7136 24.0848 12.8152 24.1826L12.9386 24.3C13.0747 24.428 13.2118 24.5538 13.352 24.6762L13.3584 24.6818L13.4304 24.743C13.5538 24.8502 13.6794 24.9557 13.8059 25.0601L13.9613 25.1842C14.0647 25.2668 14.1691 25.3487 14.2742 25.4289L14.4419 25.5558C14.5579 25.6412 14.675 25.7252 14.7931 25.8078L14.9207 25.8985L14.9562 25.9239C15.068 26.0012 15.183 26.0754 15.2972 26.1496L15.4449 26.248C15.6207 26.3587 15.7989 26.4688 15.9789 26.575L16.1266 26.6583C16.2591 26.7346 16.3924 26.8098 16.5274 26.8829L16.7492 26.9975L17.0361 27.1466L17.1022 27.1786L17.2196 27.2352C17.3697 27.3069 17.5212 27.3776 17.6742 27.4458L17.7701 27.4887C17.9452 27.5653 18.122 27.6388 18.3003 27.7094L18.4297 27.7601C18.5945 27.8241 18.7619 27.8863 18.9299 27.9453L18.9929 27.9671C19.1771 28.0318 19.3634 28.0912 19.5508 28.15L19.6854 28.19C19.876 28.2477 20.0648 28.3159 20.2613 28.3525C32.7604 30.6316 36.391 20.8417 36.391 20.8417C33.3415 24.8143 27.9292 25.862 22.801 24.6955C22.6066 24.6516 22.4181 24.5907 22.2287 24.5352L22.0859 24.4916C21.901 24.435 21.7171 24.3756 21.5347 24.3123L21.4591 24.2852C21.2956 24.2276 21.1342 24.1671 20.9732 24.1049L20.8368 24.0514C20.6607 23.9818 20.4853 23.9091 20.3123 23.8335L20.2075 23.7867C20.0588 23.7196 19.9115 23.6517 19.7649 23.581L19.6369 23.5195C19.522 23.4636 19.4084 23.4042 19.2945 23.3455L19.0663 23.2256C18.9275 23.1518 18.7914 23.0744 18.6561 22.9957L18.5176 22.9187C18.3372 22.8122 18.1593 22.7025 17.9832 22.591L17.839 22.4951C17.7114 22.4128 17.5842 22.3288 17.459 22.2423L17.3363 22.1562C17.2154 22.0711 17.0955 21.9842 16.977 21.8967L16.8178 21.7761C16.7088 21.6928 16.6005 21.6088 16.4936 21.5226L16.3491 21.4066C16.2127 21.2948 16.0781 21.1816 15.9452 21.066L15.9009 21.0291C15.7571 20.9028 15.6158 20.7731 15.4762 20.643L15.3567 20.5277C15.2533 20.4296 15.1513 20.3305 15.0515 20.2285L14.932 20.109C14.8047 19.9789 14.6799 19.8471 14.5576 19.7132L14.5389 19.6931C14.4095 19.5518 14.283 19.4073 14.1592 19.261L14.0597 19.1429C13.9673 19.0318 13.8759 18.9186 13.7866 18.8051L13.6864 18.6803C13.5785 18.5407 13.4737 18.4015 13.3707 18.2601C10.5237 14.3764 9.50068 9.02003 11.7763 4.62128L9.75873 7.17925ZM17.7814 4.04964C15.9125 6.7391 16.0137 10.3401 17.472 13.1843C17.7163 13.661 17.9913 14.124 18.2985 14.5642C18.5784 14.966 18.8892 15.4434 19.2608 15.7658C19.3954 15.9142 19.5364 16.059 19.6802 16.201L19.7906 16.3104C19.9301 16.4457 20.0722 16.579 20.2188 16.7084L20.2363 16.7235L20.2406 16.7277C20.403 16.8701 20.5707 17.0068 20.7408 17.1418L20.8544 17.2304C21.0253 17.3612 21.1993 17.4899 21.3779 17.6126L21.393 17.6242L21.632 17.7813L21.7453 17.8562C21.8729 17.9381 22.0019 18.0176 22.1334 18.0939L22.1882 18.1262C22.3014 18.1912 22.416 18.2552 22.531 18.3178L22.653 18.3811L22.8928 18.5055L22.929 18.5221C23.0938 18.6029 23.2598 18.6813 23.4296 18.7551L23.54 18.8009C23.6757 18.8582 23.8124 18.9144 23.9503 18.9671L24.126 19.0318C24.2512 19.0782 24.3763 19.1208 24.5029 19.163L24.6731 19.2175C24.8527 19.273 25.0306 19.3437 25.2176 19.375C34.868 20.9735 37.0959 13.5432 37.0959 13.5432C35.0877 16.4359 31.1984 17.8158 27.0482 16.7386C26.864 16.6901 26.6819 16.6373 26.5015 16.5807L26.3374 16.5276C26.209 16.4865 26.0814 16.4422 25.9552 16.3962L25.7826 16.3318C25.6441 16.2784 25.507 16.2232 25.3709 16.1655L25.2602 16.1188C25.0897 16.0446 24.922 15.9662 24.7567 15.8846L24.5043 15.7563L24.3588 15.6814C24.2512 15.6231 24.1443 15.5626 24.0392 15.5007L23.9629 15.4575C23.8321 15.3812 23.7035 15.3028 23.5762 15.2212L23.4595 15.1435L23.2092 14.9776C23.0313 14.8549 22.8579 14.7266 22.6874 14.5962L22.57 14.5034C20.7535 13.0693 19.3135 11.109 18.629 8.88644C17.9115 6.58124 18.0662 3.99374 19.3093 1.89351L17.7814 4.04964ZM24.5289 1.7114C23.4271 3.33281 23.3188 5.34691 24.0835 7.13777C24.8896 9.03866 26.5416 10.5296 28.4699 11.237L28.7097 11.3196L28.8152 11.3534C28.9287 11.3892 29.0416 11.4307 29.159 11.4525C34.4876 12.4822 35.9329 8.71839 36.3175 8.16398C35.0515 9.98683 32.9239 10.4245 30.3132 9.79066C30.1072 9.74074 29.8804 9.6662 29.6818 9.59554C29.4269 9.50449 29.1759 9.40113 28.9315 9.28406C28.4682 9.06116 28.0263 8.79116 27.6163 8.48179C25.2802 6.70921 23.8293 3.32824 25.3537 0.574448" fill="#0868AC"/>
<path d="M23.3294 33.8537H21.8437C21.7614 33.8537 21.6795 33.9198 21.6619 34.0003L21.1346 36.4402L20.6072 38.88C20.59 38.9605 20.5081 39.0266 20.4258 39.0266H19.3743C18.334 39.0266 18.4543 38.307 18.6673 37.3212L18.6736 37.2913L18.6968 37.1668L18.7011 37.1436L18.7485 36.8905L18.7995 36.6195L18.8536 36.3435L19.0934 35.1721L19.3335 34.0007C19.35 33.9198 19.2959 33.8534 19.2136 33.8534H17.6889C17.6066 33.8534 17.5251 33.9195 17.5082 34.0003L17.1802 35.5556L16.8525 37.1113L16.8518 37.1134L16.8216 37.2582C16.444 38.982 16.5439 40.6262 18.5963 40.6779L18.6561 40.6789H21.8774C21.9597 40.6789 22.0416 40.6128 22.0588 40.5323L22.7535 37.2667L23.4482 34.0007C23.4654 33.9198 23.412 33.8541 23.3294 33.8537ZM7.41906 33.8365H5.78781C5.70519 33.8365 5.62293 33.9026 5.60464 33.9827L5.44996 34.6655L5.29527 35.3482C5.27734 35.4287 5.32972 35.4945 5.41234 35.4945H7.05625C7.13886 35.4945 7.22078 35.4284 7.23836 35.3479L7.38777 34.6655L7.53718 33.9831C7.55441 33.9026 7.50168 33.8365 7.41906 33.8365ZM6.94586 35.9613H5.3016C5.21933 35.9613 5.13671 36.0274 5.11843 36.1076L4.88746 37.1306L4.65683 38.1533L4.5925 38.4465L4.37066 39.4907L4.14918 40.5352C4.13195 40.6157 4.09644 40.7457 4.07007 40.8238C4.07007 40.8238 3.76281 41.7379 3.24636 41.7273L3.18168 41.7259L2.73484 41.7178H2.73449C2.65222 41.7168 2.56961 41.7811 2.55027 41.8609L2.37976 42.5777L2.20961 43.2942C2.19027 43.3744 2.2423 43.4405 2.32421 43.4419C2.61707 43.4454 3.27308 43.4528 3.67 43.4528C4.95988 43.4528 5.64015 42.738 6.07574 40.6814L6.58586 38.321L7.06433 36.1072C7.08156 36.0274 7.02812 35.9613 6.94586 35.9613ZM37.2214 35.408L37.1532 35.1264L37.086 34.8381L37.0519 34.6925C36.9183 34.1733 36.5263 33.8741 35.6748 33.8741L34.3494 33.8727L33.1288 33.8709H31.7553C31.673 33.8709 31.5914 33.937 31.5742 34.0175L31.5134 34.3044L31.4417 34.6433L31.4216 34.7386L30.8032 37.6355L30.2161 40.3854C30.1985 40.4662 30.1929 40.5654 30.2028 40.6055C30.2126 40.6459 30.3712 40.6789 30.4534 40.6789H31.6923C31.775 40.6789 31.8794 40.6642 31.9244 40.6459C31.9694 40.6276 32.0358 40.4655 32.0523 40.385L32.2724 39.2955L32.4928 38.2057L32.4932 38.2039L32.5227 38.0587L32.7899 36.8072L33.0258 35.7019C33.0434 35.6214 33.1246 35.5556 33.2069 35.5553L37.1053 35.5535C37.188 35.5542 37.24 35.4885 37.2214 35.408ZM42.2399 32.8627L41.9397 32.8637H40.692C40.6094 32.8637 40.5036 32.9196 40.4575 32.9878L37.6981 37.0301C37.6517 37.0983 37.5986 37.0884 37.5803 37.0083L37.3771 36.1178C37.3588 36.0373 37.2762 35.9715 37.1936 35.9715H35.42C35.3373 35.9715 35.2885 36.0362 35.311 36.1153L36.1059 38.9C36.1284 38.9795 36.1301 39.1096 36.1097 39.1897L35.7634 40.5373C35.7427 40.6174 35.7933 40.6825 35.8759 40.6825H37.6292C37.7114 40.6825 37.7958 40.6171 37.8162 40.5373L38.1628 39.1897C38.1832 39.1092 38.2405 38.9904 38.2905 38.9243L42.7701 32.979C42.82 32.9129 42.7929 32.8591 42.7107 32.8598L42.2399 32.8627ZM28.1472 36.3498V36.3484C28.137 36.4377 28.0544 36.5034 27.9718 36.5034H25.7228C25.6448 36.5034 25.6054 36.4507 25.617 36.3853L25.6191 36.38L25.6177 36.3807L25.6187 36.3734L25.6289 36.335C25.8437 35.7641 26.2811 35.3893 27.1034 35.3893C28.0294 35.389 28.2101 35.8411 28.1472 36.3498ZM27.4873 33.7539C24.6006 33.7539 23.9165 35.5061 23.5326 37.2748C23.149 39.0776 23.1817 40.7626 26.1693 40.7626H26.5314L26.6214 40.7623H26.6425L27.0011 40.7612H27.0074C27.7963 40.758 28.5877 40.7521 28.908 40.7496C28.9899 40.7482 29.07 40.6825 29.0869 40.602L29.2078 40.011L29.2314 39.896L29.3755 39.1908C29.3921 39.1103 29.3383 39.0438 29.2557 39.0438H26.5701C25.5017 39.0438 25.1846 38.7601 25.3016 37.9255H29.5946L29.5942 37.9259L29.597 37.9255C29.6652 37.9245 29.7285 37.8773 29.7535 37.8148L29.7637 37.7775L29.7633 37.7779C30.4007 35.3735 30.2179 33.7542 27.4873 33.7539ZM13.8432 36.3407L13.8024 36.4845V36.4848L13.4782 37.6337L13.1541 38.7823C13.1319 38.8621 13.0458 38.9268 12.9632 38.9268H11.2476C9.94609 38.9268 9.62898 37.9086 9.94609 36.4075C10.2628 34.8718 10.8841 33.9173 12.1652 33.8207C13.9159 33.6885 14.2661 34.9196 13.8432 36.3407ZM15.0202 38.8385C15.0202 38.8385 15.8291 36.874 16.0127 35.7398C16.2633 34.2214 15.5029 32.0186 12.5659 32.0186C9.64586 32.0186 8.37742 34.1212 7.89367 36.4075C7.40992 38.7102 8.04379 40.7292 10.9473 40.7127L13.2381 40.7043L15.3788 40.6965C15.4611 40.6958 15.5454 40.6304 15.5665 40.551L15.9395 39.1286C15.9603 39.0484 15.91 38.983 15.8274 38.9823L15.4698 38.9802L15.1123 38.9781C15.0423 38.9777 15.0023 38.932 15.0107 38.8719L15.0202 38.8385ZM29.4764 37.5233C29.4764 37.5778 29.4325 37.6221 29.378 37.6221C29.3239 37.6221 29.2796 37.5778 29.2796 37.5233C29.2796 37.4692 29.3235 37.4252 29.378 37.4252C29.4325 37.4252 29.4764 37.4692 29.4764 37.5233Z" fill="#131B28"/>
</svg>
