<svg width="54" height="26" viewBox="0 0 54 26" fill="none" xmlns="http://www.w3.org/2000/svg">
<g clip-path="url(#clip0_762_1427)">
<path d="M2.03312 25.7263C1.59167 25.7263 1.16322 25.5754 0.748093 25.2804C0.326218 24.9785 0.0560491 24.56 -0.0757446 24.0249L0.636043 23.7229C0.721599 24.066 0.893049 24.3609 1.15664 24.5942C1.42022 24.8344 1.71031 24.951 2.03987 24.951C2.37586 24.951 2.66594 24.8618 2.9032 24.6766C3.14046 24.4913 3.25909 24.2443 3.25909 23.9288C3.25909 23.5788 3.14046 23.3044 2.9032 23.1191C2.66594 22.9271 2.28372 22.7486 1.76954 22.5908C1.23578 22.4125 0.827068 22.1861 0.556899 21.9117C0.280149 21.6302 0.141774 21.2805 0.141774 20.8413C0.141774 20.3884 0.313055 19.9973 0.655787 19.6613C0.998518 19.325 1.44672 19.1602 2.00022 19.1602C2.5144 19.1602 2.92952 19.2908 3.24593 19.5583C3.56875 19.8259 3.7731 20.114 3.87199 20.4297L3.1602 20.7383C3.10755 20.5395 2.98217 20.3541 2.78457 20.1827C2.58679 20.011 2.32979 19.9288 2.01338 19.9288C1.71689 19.9288 1.45988 20.0179 1.24894 20.1895C1.03801 20.361 0.932536 20.5806 0.932536 20.8344C0.932536 21.0677 1.03142 21.2666 1.22262 21.4245C1.41364 21.5823 1.70372 21.7332 2.07936 21.8567C2.37586 21.9596 2.62628 22.0557 2.82406 22.145C3.02183 22.2409 3.22619 22.3644 3.43037 22.5155C3.63473 22.6732 3.79285 22.8652 3.89174 23.0917C3.99721 23.325 4.04986 23.5925 4.04986 23.8945C4.04986 24.1963 3.99062 24.4707 3.86541 24.7109C3.74678 24.951 3.58208 25.1432 3.38431 25.2804C3.18653 25.4176 2.96901 25.5274 2.73833 25.6028C2.50765 25.692 2.27039 25.7263 2.03312 25.7263Z" fill="#616161"/>
<path d="M6.58737 25.7263C5.96114 25.7263 5.45371 25.5069 5.06491 25.0746C4.67611 24.6424 4.47833 24.0934 4.47833 23.4348C4.47833 22.8104 4.66953 22.2685 5.04516 21.8156C5.42738 21.3627 5.90849 21.1363 6.50164 21.1363C7.11454 21.1363 7.60223 21.3422 7.97129 21.7606C8.34034 22.1792 8.52496 22.7349 8.52496 23.4279L8.51838 23.5789H5.2561C5.27584 24.0112 5.4208 24.3541 5.67123 24.608C5.92823 24.8618 6.22489 24.9853 6.56763 24.9853C7.12113 24.9853 7.50334 24.7383 7.70112 24.2443L8.39316 24.5463C8.26137 24.8825 8.03727 25.157 7.72744 25.3834C7.41779 25.6167 7.04215 25.7263 6.58737 25.7263ZM7.70112 22.9202C7.68138 22.6732 7.57591 22.4399 7.37813 22.2204C7.18053 22.0008 6.88386 21.8841 6.48848 21.8841C6.1984 21.8841 5.95456 21.9802 5.74379 22.1655C5.53285 22.3507 5.38789 22.6046 5.30875 22.9202H7.70112Z" fill="#616161"/>
<path d="M10.3636 25.7263C9.92218 25.7263 9.55971 25.596 9.26304 25.3284C8.96655 25.0677 8.82159 24.7178 8.82159 24.2856C8.82159 23.819 8.99288 23.4485 9.34219 23.1809C9.6915 22.9134 10.1198 22.783 10.634 22.783C11.0887 22.783 11.4644 22.8721 11.7543 23.0437V22.9202C11.7543 22.6046 11.6488 22.3507 11.4446 22.1587C11.2337 21.9665 10.9833 21.8704 10.68 21.8704C10.4559 21.8704 10.2518 21.9254 10.0671 22.0352C9.88253 22.145 9.75731 22.2959 9.6915 22.4948L8.97971 22.1792C9.07202 21.9185 9.26304 21.6852 9.54654 21.4657C9.82987 21.2461 10.1989 21.1363 10.6603 21.1363C11.1875 21.1363 11.6291 21.2942 11.9784 21.6166C12.3277 21.9391 12.499 22.392 12.499 22.9751V25.5891H11.7543V24.9923H11.7214C11.4116 25.4863 10.9568 25.7263 10.3636 25.7263ZM10.489 24.9923C10.8118 24.9923 11.1019 24.8688 11.3589 24.6218C11.6225 24.3748 11.7543 24.0797 11.7543 23.7366C11.5368 23.5514 11.2074 23.4554 10.7658 23.4554C10.3901 23.4554 10.1066 23.5377 9.9156 23.7092C9.72441 23.8808 9.62552 24.0797 9.62552 24.3062C9.62552 24.5189 9.71124 24.6835 9.88911 24.807C10.0671 24.9305 10.2649 24.9923 10.489 24.9923Z" fill="#616161"/>
<path d="M14.0149 25.5891H13.2373V21.2873H13.982V21.987H14.0149C14.094 21.7538 14.2522 21.5617 14.5026 21.4108C14.7464 21.2598 14.9837 21.1844 15.2144 21.1844C15.4451 21.1844 15.6363 21.2186 15.7944 21.2873L15.4979 22.042C15.399 22.0008 15.2606 21.9802 15.0826 21.9802C14.7993 21.9802 14.5554 22.0968 14.3379 22.3301C14.1204 22.5634 14.0149 22.8653 14.0149 23.2358V25.5891Z" fill="#616161"/>
<path d="M17.844 25.7263C17.2245 25.7263 16.7171 25.5069 16.3149 25.0745C15.913 24.6355 15.7152 24.0934 15.7152 23.4348C15.7152 22.7762 15.913 22.234 16.3149 21.795C16.7171 21.3558 17.2245 21.1431 17.844 21.1431C18.3054 21.1431 18.6876 21.2597 18.9908 21.493C19.2939 21.7263 19.518 22.0215 19.6565 22.3781L18.9447 22.6869C18.7338 22.145 18.345 21.8772 17.7913 21.8772C17.4486 21.8772 17.1454 22.0215 16.8818 22.3164C16.6182 22.6114 16.4864 22.9819 16.4864 23.4348C16.4864 23.8877 16.6182 24.2582 16.8818 24.5531C17.1454 24.8481 17.4486 24.9923 17.7913 24.9923C18.3713 24.9923 18.7667 24.7246 18.9908 24.1826L19.6829 24.4913C19.5445 24.8412 19.3138 25.1364 19.004 25.3765C18.6876 25.6098 18.3054 25.7263 17.844 25.7263Z" fill="#616161"/>
<path d="M20.9284 19.3045V21.2873L20.8955 21.8841H20.9284C21.0405 21.6784 21.2185 21.5067 21.4623 21.3627C21.7062 21.2186 21.9632 21.1501 22.2399 21.1501C22.7541 21.1501 23.1429 21.3147 23.4131 21.6441C23.6833 21.9733 23.8151 22.4125 23.8151 22.9613V25.5891H23.0375V23.078C23.0375 22.2822 22.6947 21.8841 22.0158 21.8841C21.693 21.8841 21.4358 22.0146 21.2317 22.2822C21.0273 22.5497 20.9284 22.8584 20.9284 23.2083V25.5891H20.1508V19.3045H20.9284Z" fill="#616161"/>
<path d="M28.4682 25.7263C27.5783 25.7263 26.8337 25.4108 26.2339 24.7864C25.6342 24.1621 25.3309 23.38 25.3309 22.4399C25.3309 21.4999 25.6342 20.7246 26.2339 20.0934C26.8337 19.4691 27.5783 19.1534 28.4682 19.1534C29.3776 19.1534 30.1157 19.4965 30.6891 20.1827L30.1487 20.7246C29.74 20.1895 29.1799 19.9288 28.4682 19.9288C27.809 19.9288 27.2554 20.1621 26.8007 20.6217C26.346 21.0814 26.1219 21.6921 26.1219 22.4399C26.1219 23.1878 26.346 23.7984 26.8007 24.2582C27.2554 24.7177 27.809 24.951 28.4682 24.951C29.1931 24.951 29.8126 24.6492 30.3266 24.0386L30.8671 24.6011C30.5902 24.9442 30.2475 25.2186 29.8323 25.4245C29.4105 25.6304 28.9558 25.7263 28.4682 25.7263Z" fill="#616161"/>
<path d="M31.7634 21.8019C32.1655 21.3627 32.6729 21.1501 33.2924 21.1501C33.9119 21.1501 34.4195 21.3695 34.8215 21.8019C35.2234 22.2409 35.4212 22.783 35.4212 23.4416C35.4212 24.1002 35.2234 24.6424 34.8215 25.0814C34.4195 25.5206 33.9119 25.7333 33.2924 25.7333C32.6729 25.7333 32.1655 25.5137 31.7634 25.0814C31.3614 24.6424 31.1636 24.1002 31.1636 23.4416C31.1636 22.783 31.3614 22.234 31.7634 21.8019ZM32.3368 24.5668C32.6069 24.8481 32.9234 24.9923 33.2858 24.9923C33.6483 24.9923 33.9647 24.8481 34.2349 24.5668C34.505 24.2856 34.6368 23.9082 34.6368 23.4416C34.6368 22.975 34.505 22.5977 34.2349 22.3164C33.9647 22.0352 33.6483 21.8911 33.2858 21.8911C32.9234 21.8911 32.6069 22.0352 32.3368 22.3164C32.0666 22.5977 31.9348 22.975 31.9348 23.4416C31.9414 23.9082 32.0732 24.2787 32.3368 24.5668Z" fill="#616161"/>
<path d="M36.7063 21.2873V21.8841H36.7393C36.8513 21.6784 37.0292 21.5067 37.273 21.3627C37.517 21.2186 37.774 21.1501 38.0508 21.1501C38.5648 21.1501 38.9538 21.3147 39.2239 21.6441C39.4941 21.9733 39.6259 22.4125 39.6259 22.9613V25.5891H38.8483V23.078C38.8483 22.2822 38.5056 21.8841 37.8267 21.8841C37.5037 21.8841 37.2467 22.0146 37.0425 22.2822C36.8381 22.5497 36.7393 22.8584 36.7393 23.2083V25.5891H35.9615V21.2873H36.7063Z" fill="#616161"/>
<path d="M41.8865 25.7263C41.4251 25.7263 41.0429 25.6098 40.7464 25.3765C40.4432 25.1432 40.2257 24.8481 40.0873 24.4983L40.7793 24.1963C40.9968 24.7383 41.3725 25.006 41.8997 25.006C42.1435 25.006 42.3413 24.951 42.4928 24.8412C42.6445 24.7314 42.7235 24.5805 42.7235 24.4022C42.7235 24.1208 42.5325 23.9288 42.1568 23.8327L41.3197 23.6199C41.0561 23.5514 40.8056 23.4142 40.5684 23.222C40.3311 23.0231 40.2125 22.7624 40.2125 22.4262C40.2125 22.0489 40.3774 21.74 40.7002 21.4999C41.0232 21.2597 41.4054 21.1431 41.8536 21.1431C42.2161 21.1431 42.5456 21.2323 42.829 21.4039C43.119 21.5754 43.3232 21.8224 43.4419 22.1449L42.7697 22.4331C42.618 22.0557 42.3018 21.8635 41.8273 21.8635C41.5966 21.8635 41.4054 21.9116 41.2473 22.0146C41.0891 22.1174 41.01 22.2477 41.01 22.4194C41.01 22.6664 41.1944 22.831 41.5569 22.9202L42.3742 23.1191C42.7631 23.2152 43.0465 23.3729 43.2377 23.5994C43.4221 23.8258 43.5144 24.0865 43.5144 24.3748C43.5144 24.759 43.3629 25.0814 43.0596 25.3421C42.7566 25.6028 42.361 25.7263 41.8865 25.7263Z" fill="#616161"/>
<path d="M44.4041 21.8019C44.8062 21.3627 45.3136 21.1501 45.9331 21.1501C46.5526 21.1501 47.0602 21.3695 47.4621 21.8019C47.8641 22.2409 48.0619 22.783 48.0619 23.4416C48.0619 24.1002 47.8641 24.6424 47.4621 25.0814C47.0602 25.5206 46.5526 25.7333 45.9331 25.7333C45.3136 25.7333 44.8062 25.5137 44.4041 25.0814C44.0021 24.6424 43.8043 24.1002 43.8043 23.4416C43.8043 22.783 44.0021 22.234 44.4041 21.8019ZM44.9841 24.5668C45.2544 24.8481 45.5706 24.9923 45.9331 24.9923C46.2956 24.9923 46.612 24.8481 46.8822 24.5668C47.1523 24.2856 47.2843 23.9082 47.2843 23.4416C47.2843 22.975 47.1523 22.5977 46.8822 22.3164C46.612 22.0352 46.2956 21.8911 45.9331 21.8911C45.5706 21.8911 45.2544 22.0352 44.9841 22.3164C44.7139 22.5977 44.5821 22.975 44.5821 23.4416C44.5821 23.9082 44.7139 24.2787 44.9841 24.5668Z" fill="#616161"/>
<path d="M49.3932 25.5891H48.6156V19.3045H49.3932V25.5891Z" fill="#616161"/>
<path d="M52.0625 25.7263C51.4362 25.7263 50.9288 25.5069 50.54 25.0745C50.1512 24.6424 49.9534 24.0934 49.9534 23.4348C49.9534 22.8104 50.1446 22.2685 50.5203 21.8156C50.9025 21.3627 51.3836 21.1362 51.9768 21.1362C52.5897 21.1362 53.0773 21.3421 53.4464 21.7606C53.8155 22.1792 54.0001 22.7349 54.0001 23.4279L53.9935 23.5788H50.7312C50.7509 24.0112 50.8959 24.3541 51.1463 24.6079C51.4033 24.8618 51.7 24.9853 52.0427 24.9853C52.5962 24.9853 52.9785 24.7383 53.1762 24.2443L53.8683 24.5463C53.7365 24.8825 53.5124 25.1569 53.2025 25.3834C52.8929 25.6167 52.5105 25.7263 52.0625 25.7263ZM53.1762 22.9202C53.1565 22.6732 53.051 22.4399 52.8532 22.2203C52.6556 22.0007 52.359 21.8841 51.9636 21.8841C51.6735 21.8841 51.4297 21.9802 51.2189 22.1655C51.008 22.3507 50.863 22.6045 50.7839 22.9202H53.1762Z" fill="#616161"/>
<path d="M-0.0757446 7.12505C-0.0757446 3.20292 3.09203 0 6.8727 0C8.95862 0 10.4448 0.855013 11.566 1.96792L10.2492 3.33854C9.4539 2.55151 8.35889 1.95439 6.8727 1.95439C4.12208 1.95439 1.97102 4.26154 1.97102 7.12505C1.97102 9.98874 4.12208 12.2959 6.8727 12.2959C8.65875 12.2959 9.67564 11.5494 10.3274 10.8708C10.862 10.3144 11.214 9.51372 11.3442 8.42804H6.8727V6.48718H13.1694C13.2346 6.84011 13.2737 7.24732 13.2737 7.70865C13.2737 9.17449 12.8956 10.9794 11.6571 12.2551C10.4578 13.5581 8.91947 14.2503 6.8857 14.2503C3.09203 14.2366 -0.0757446 11.0474 -0.0757446 7.12505Z" fill="#4285F4"/>
<path d="M18.345 5.07581C15.907 5.07581 13.9254 7.00297 13.9254 9.66305C13.9254 12.3094 15.907 14.2503 18.345 14.2503C20.7827 14.2503 22.7644 12.3094 22.7644 9.66305C22.7644 7.00297 20.7827 5.07581 18.345 5.07581ZM18.345 12.4317C17.0152 12.4317 15.8549 11.2916 15.8549 9.64952C15.8549 7.99378 17.0021 6.86717 18.345 6.86717C19.6746 6.86717 20.8349 7.99378 20.8349 9.64952C20.8349 11.2916 19.6746 12.4317 18.345 12.4317Z" fill="#DB4437"/>
<path d="M27.992 5.07581C25.5542 5.07581 23.5726 7.00297 23.5726 9.66305C23.5726 12.3094 25.5542 14.2503 27.992 14.2503C30.4299 14.2503 32.4115 12.3094 32.4115 9.66305C32.4115 7.00297 30.4299 5.07581 27.992 5.07581ZM27.992 12.4317C26.6624 12.4317 25.5021 11.2916 25.5021 9.64952C25.5021 7.99378 26.6492 6.86717 27.992 6.86717C29.3349 6.86717 30.482 7.99378 30.482 9.64952C30.482 11.2916 29.3217 12.4317 27.992 12.4317Z" fill="#F4B400"/>
<path d="M39.8293 5.3472V6.09365H39.7641C39.3338 5.55081 38.4995 5.06226 37.4436 5.06226C35.2404 5.06226 33.2197 7.07076 33.2197 9.66303C33.2197 12.2281 35.2404 14.2366 37.4436 14.2366C38.4995 14.2366 39.3338 13.748 39.7641 13.1916H39.8293V13.8566C39.8293 15.6074 38.9297 16.5439 37.4826 16.5439C36.2963 16.5439 35.5663 15.6616 35.2664 14.9152L33.5847 15.6481C34.0671 16.8696 35.3577 18.3625 37.4958 18.3625C39.7641 18.3625 41.6805 16.9782 41.6805 13.5852V5.3472H39.8293ZM37.6131 12.4317C36.2833 12.4317 35.1621 11.2645 35.1621 9.66303C35.1621 8.04804 36.2833 6.86715 37.6131 6.86715C38.9297 6.86715 39.9597 8.04804 39.9597 9.66303C39.9727 11.278 38.9297 12.4317 37.6131 12.4317Z" fill="#4285F4"/>
<path d="M44.9397 0.488556H43.0102V13.9652H44.9397V0.488556Z" fill="#0F9D58"/>
<path d="M50.2455 12.4317C49.2548 12.4317 48.5637 11.9567 48.1074 11.0474L54 8.50939L53.8044 7.99378C53.4394 6.96221 52.3182 5.07581 50.0369 5.07581C47.7686 5.07581 45.8782 6.93516 45.8782 9.66305C45.8782 12.2281 47.7424 14.2503 50.2455 14.2503C52.2661 14.2503 53.4264 12.9608 53.9217 12.2146L52.4225 11.1695C51.9141 11.9294 51.2362 12.4317 50.2455 12.4317ZM50.102 6.84012C50.8712 6.84012 51.5231 7.23363 51.7317 7.81722L47.7946 9.51372C47.7424 7.74941 49.1113 6.84012 50.102 6.84012Z" fill="#DB4437"/>
</g>
<defs>
<clipPath id="clip0_762_1427">
<rect width="54" height="26" fill="white"/>
</clipPath>
</defs>
</svg>
