<svg width="44" height="53" viewBox="0 0 44 53" fill="none" xmlns="http://www.w3.org/2000/svg">
<path d="M28.533 21.9339L38.708 20.8474L43.9802 21.9434L43.9993 21.9551L34.2788 22.5357L28.5239 21.9434L28.533 21.9339Z" fill="#5E1F18"/>
<path d="M28.5239 21.9436L38.6992 21.1477L38.7692 21.0456L38.7695 8.47639L38.6996 8.3327L28.5239 10.9822V21.9436Z" fill="#8C3123"/>
<path d="M43.9993 21.9554L38.6992 21.1477L38.6996 8.3327L43.9991 10.9875L43.9993 21.9554Z" fill="#E05243"/>
<path d="M28.5239 30.9938L28.6726 31.0981L38.7009 31.7794L43.8178 31.0981L43.9991 30.9985L34.2788 30.4005L28.5239 30.9938Z" fill="#F2B0A9"/>
<path d="M28.5239 30.9938L38.7009 31.7518L38.7324 31.7942L38.7247 44.518L38.6996 44.5844L28.5239 41.9559V30.9938Z" fill="#8C3123"/>
<path d="M43.9993 30.9985L38.7011 31.7518L38.6997 44.5844L43.9993 41.95V30.9985Z" fill="#E05243"/>
<path d="M15.3179 21.9241L5.25841 21.0613L0.0346355 21.9296L0.00146484 21.9556L9.72184 22.5362L15.3718 21.9552L15.3179 21.9242V21.9241Z" fill="#5E1F18"/>
<path d="M0.00146484 21.9554L5.25325 21.1856L5.40776 21.0759V8.47983L5.25325 8.3327L0.00146484 10.988V21.9554Z" fill="#8C3123"/>
<path d="M15.372 21.9551L5.25342 21.1855V8.3327L15.3725 10.9822L15.372 21.9551Z" fill="#E05243"/>
<path d="M15.3717 30.9985L15.1395 31.168L5.25311 31.9101L0.16872 31.168L0.000976562 30.9985L9.72169 30.4005L15.3717 30.9985Z" fill="#F2B0A9"/>
<path d="M0.000976562 30.9985L5.25294 31.7453L5.38648 31.9091L5.40074 44.356L5.25311 44.5844L0.0013203 41.95L0.000976562 30.9985Z" fill="#8C3123"/>
<path d="M15.3717 30.9985L5.25293 31.7453L5.2531 44.5844L15.3717 41.9559V30.9985Z" fill="#E05243"/>
<path d="M32.5021 32.6363L22.0004 31.5994L11.394 32.6365L11.5436 32.763L21.9487 34.4178L32.3524 32.763L32.5021 32.6363Z" fill="#F2B0A9"/>
<path d="M11.394 32.6365L21.9487 34.1848L22.0557 34.3282L22.0693 52.7335L21.9487 52.9375L11.394 47.6537V32.6365Z" fill="#8C3123"/>
<path d="M32.5021 32.6363L21.9487 34.1848V52.9375L32.5023 47.6537L32.5021 32.6363Z" fill="#E05243"/>
<path d="M22.0004 21.3261L11.394 20.3009L11.4214 20.2852L21.9481 18.6501L32.4703 20.289L32.5022 20.3009L22.0004 21.3261Z" fill="#5E1F18"/>
<path d="M11.394 20.3009L21.9487 18.761L21.9992 18.7148L21.9758 0.0283928L21.9487 0L11.394 5.28434V20.3009Z" fill="#8C3123"/>
<path d="M32.5023 20.3009L21.9487 18.761V0L32.5023 5.28434V20.3009Z" fill="#E05243"/>
</svg>
