<svg width="45" height="45" viewBox="0 0 45 45" fill="none" xmlns="http://www.w3.org/2000/svg">
<path fill-rule="evenodd" clip-rule="evenodd" d="M16.8394 7.5416C14.8196 8.22311 13.6092 9.04423 12.8047 10.2782C12.5741 10.6322 12.2423 11.2505 12.2417 11.3275C12.2415 11.348 12.2118 11.4217 12.1756 11.4911C12.1393 11.5606 12.0903 11.6823 12.0666 11.7616C11.6635 13.1116 11.6519 13.2238 11.6262 16.0075C11.6036 18.4581 11.5847 18.7355 11.4043 19.2698C11.0587 20.2932 10.3501 20.8405 9.2446 20.9377L8.92909 20.9655L8.91726 22.4727C8.90362 24.1912 8.86159 24.0364 9.35785 24.0942C10.5609 24.2341 11.2459 24.9117 11.5489 26.2617C11.6124 26.5446 11.6303 27.0109 11.6591 29.1238C11.6982 32.007 11.7086 32.1064 12.0946 33.248C12.7728 35.2541 14.2426 36.5993 16.6054 37.3771C17.1998 37.5727 17.1713 37.5781 17.2814 37.2483C17.333 37.0933 17.5105 36.5913 17.6757 36.1327C18.074 35.0266 18.0699 35.1432 17.7154 34.9863C16.7907 34.5765 16.2041 33.7854 15.8756 32.5043C15.6812 31.7464 15.6588 31.4113 15.6373 28.9435C15.6192 26.8422 15.6064 26.4996 15.5309 26.0979C15.2629 24.6711 14.4414 23.433 13.3125 22.7542C12.8977 22.5047 12.8937 22.4894 13.2035 22.3275C14.3593 21.7237 15.2276 20.4641 15.5385 18.9409C15.6224 18.5299 15.6346 18.2433 15.668 15.9399C15.7039 13.4472 15.7187 13.2074 15.8749 12.5594C16.2019 11.2037 16.8936 10.3057 17.8874 9.94705C18.0669 9.88226 18.0992 10.0198 17.5368 8.45772C17.3716 7.9991 17.2259 7.58837 17.2131 7.54498C17.185 7.45101 17.1101 7.45033 16.8394 7.5416ZM27.6263 7.99572C27.5242 8.287 27.337 8.81943 27.2104 9.17889C26.9789 9.83527 26.9623 9.94514 27.0947 9.94514C27.6671 9.94514 28.6622 11.0694 28.9895 12.0854C29.2809 12.9902 29.2889 13.0795 29.3256 15.8047C29.3662 18.8199 29.4049 19.1448 29.8399 20.1341C30.1 20.7253 30.3114 21.0336 30.7736 21.4955C31.1334 21.8551 31.9232 22.4304 32.0569 22.4304C32.1869 22.4304 32.147 22.5572 31.9941 22.6301C30.9952 23.1065 30.0886 24.1387 29.6955 25.2475C29.4068 26.0619 29.37 26.4321 29.3684 28.5524C29.365 32.9096 28.962 34.1684 27.3115 34.9787L26.9886 35.1373L27.0493 35.3307C27.0827 35.4371 27.215 35.8183 27.3433 36.1778C27.4717 36.5372 27.6301 36.9903 27.6955 37.1848L27.8141 37.5382L27.966 37.5136C28.1073 37.4906 28.4057 37.3881 29.0092 37.1552C31.0912 36.3514 32.4617 34.8805 33.0382 32.8309C33.3172 31.8389 33.34 31.5703 33.3791 28.8083C33.4128 26.4315 33.4183 26.3153 33.5145 25.9912C33.8681 24.8 34.5336 24.2141 35.6656 24.0974C35.8716 24.0761 36.0606 24.0461 36.0855 24.0306C36.1144 24.0128 36.1308 23.4581 36.1308 22.5002C36.1308 20.8329 36.1526 20.943 35.8228 20.943C34.8685 20.9428 34.0118 20.3536 33.6602 19.4556C33.4217 18.8463 33.4166 18.7863 33.3787 16.1202C33.339 13.315 33.3222 13.1178 33.0389 12.1087C32.4999 10.1891 30.7871 8.38774 28.9653 7.82444C28.9026 7.80506 28.6488 7.7166 28.4009 7.62769C27.7883 7.40796 27.8409 7.38306 27.6263 7.99572Z" fill="#232323"/>
<path fill-rule="evenodd" clip-rule="evenodd" d="M20.9963 0.0143769C20.7918 0.0244057 20.6244 0.0496467 20.6244 0.0704931C20.6244 0.0913395 20.3912 0.122891 20.1061 0.140807C19.821 0.158611 19.5878 0.18881 19.5878 0.207967C19.5878 0.227123 19.4052 0.257096 19.1821 0.27445C18.959 0.291916 18.7764 0.325044 18.7764 0.347919C18.7764 0.370907 18.7004 0.390401 18.6074 0.391415C18.5144 0.392429 18.2964 0.420487 18.1229 0.453954C17.9493 0.487308 17.6755 0.538241 17.5144 0.567088C17.3532 0.595935 17.1892 0.636951 17.1497 0.658136C17.1104 0.679433 16.9634 0.71121 16.823 0.728676C16.6827 0.746254 16.5678 0.77589 16.5678 0.794708C16.5678 0.813413 16.4672 0.842035 16.3443 0.858374C16.2213 0.874713 16.1101 0.905363 16.097 0.926547C16.084 0.947732 15.9614 0.978945 15.8247 0.996073C15.688 1.0132 15.5762 1.04408 15.5762 1.0647C15.5762 1.08543 15.4748 1.11631 15.3509 1.13332C15.2269 1.15034 15.1255 1.18087 15.1255 1.20116C15.1255 1.22144 15.0445 1.25175 14.9454 1.26854C14.8464 1.28522 14.7547 1.31632 14.7416 1.3375C14.7284 1.35869 14.627 1.38968 14.516 1.40624C14.405 1.42292 14.3142 1.45131 14.3142 1.46934C14.3142 1.48737 14.203 1.52704 14.0671 1.55746C13.9312 1.58777 13.8094 1.6298 13.7964 1.65076C13.7834 1.67172 13.6918 1.7026 13.5928 1.71927C13.4937 1.73606 13.4127 1.76728 13.4127 1.7888C13.4127 1.81032 13.3417 1.8412 13.255 1.85742C13.1682 1.87376 13.0972 1.9025 13.0972 1.92131C13.0972 1.94025 13.0161 1.96864 12.9169 1.98453C12.8177 2.00031 12.7366 2.03242 12.7366 2.05586C12.7366 2.07918 12.6656 2.11164 12.5789 2.12786C12.4921 2.1442 12.4211 2.17395 12.4211 2.19401C12.4211 2.21407 12.3603 2.24381 12.2859 2.26015C12.2115 2.27649 12.1507 2.30849 12.1507 2.33137C12.1507 2.35413 12.1283 2.37284 12.1011 2.37284C12.0512 2.37284 11.9794 2.40247 11.5112 2.61634C11.3701 2.68069 11.2332 2.73342 11.2069 2.73342C11.1806 2.73342 11.159 2.75213 11.159 2.77489C11.159 2.79776 11.0982 2.82977 11.0238 2.84611C10.9495 2.86244 10.8886 2.89445 10.8886 2.91732C10.8886 2.94008 10.8596 2.95879 10.8243 2.95879C10.7888 2.95879 10.7321 2.98651 10.6982 3.02043C10.6643 3.05434 10.5918 3.09626 10.5371 3.11362C10.4826 3.13097 10.4379 3.16241 10.4379 3.18359C10.4379 3.20478 10.377 3.23543 10.3027 3.25176C10.2283 3.2681 10.1674 3.29571 10.1674 3.31306C10.1674 3.33042 10.1117 3.37019 10.0435 3.40141C9.81496 3.50598 9.7167 3.56593 9.7167 3.60052C9.7167 3.61945 9.6909 3.63489 9.65935 3.63489C9.60695 3.63489 8.91113 4.06286 8.78335 4.17363C8.75337 4.19954 8.70717 4.22084 8.68047 4.22084C8.65387 4.22084 8.62041 4.25126 8.60621 4.28845C8.5919 4.32564 8.55178 4.35606 8.51696 4.35606C8.48226 4.35606 8.41904 4.39663 8.37656 4.44621C8.33408 4.49579 8.27515 4.53635 8.24551 4.53635C8.21599 4.53635 8.185 4.5519 8.17666 4.57095C8.16844 4.58999 8.05012 4.6851 7.91377 4.78234C7.77742 4.87959 7.63308 4.9908 7.59307 5.02945C7.55296 5.06811 7.47374 5.13019 7.41695 5.16738C7.36027 5.20456 7.28196 5.27048 7.24319 5.31387C7.20432 5.35725 7.15451 5.39275 7.13254 5.39275C7.11057 5.39275 7.0025 5.48402 6.89252 5.59558C6.78254 5.70713 6.68282 5.7984 6.67099 5.7984C6.63684 5.7984 6.36956 6.04935 5.8022 6.61412C5.31586 7.09821 5.17985 7.24436 4.78963 7.70241C4.71064 7.79526 4.59525 7.928 4.53327 7.99753C4.4713 8.06706 4.36988 8.19889 4.30791 8.29051C4.24593 8.38212 4.18001 8.45728 4.16142 8.45739C4.14283 8.45762 4.12761 8.48139 4.12761 8.51024C4.12761 8.5392 4.09629 8.59498 4.05809 8.63419C3.92693 8.76896 3.63181 9.19524 3.63181 9.24978C3.63181 9.27986 3.60589 9.31446 3.57411 9.32663C3.54234 9.3388 3.47642 9.42714 3.42763 9.52304C3.37883 9.61882 3.31348 9.71347 3.28249 9.7333C3.2515 9.75313 3.22615 9.79708 3.22615 9.831C3.22615 9.8648 3.20992 9.89928 3.18998 9.90762C3.14028 9.92824 2.82049 10.4633 2.82049 10.5257C2.82049 10.5535 2.80528 10.5762 2.78668 10.5763C2.76809 10.5763 2.69214 10.7031 2.61789 10.858C2.54363 11.0128 2.46914 11.15 2.45247 11.1626C2.43568 11.1752 2.40807 11.2411 2.39094 11.3091C2.37393 11.377 2.3435 11.4326 2.32333 11.4326C2.30327 11.4326 2.27341 11.4934 2.25707 11.5678C2.24073 11.6422 2.21031 11.703 2.18946 11.703C2.16862 11.703 2.13819 11.7639 2.12185 11.8382C2.10551 11.9126 2.07351 11.9734 2.05064 11.9734C2.02788 11.9734 2.00849 11.9988 2.00759 12.0298C2.0068 12.0608 1.96691 12.1673 1.91902 12.2664C1.87113 12.3656 1.83124 12.4721 1.83045 12.5031C1.82955 12.534 1.80859 12.5594 1.7838 12.5594C1.75901 12.5594 1.73873 12.5909 1.73873 12.6295C1.73873 12.668 1.69963 12.7853 1.65185 12.8902C1.60407 12.995 1.55032 13.1397 1.53218 13.2115C1.51415 13.2834 1.47223 13.3943 1.43911 13.4578C1.40586 13.5215 1.3786 13.609 1.37837 13.6524C1.37826 13.6958 1.36012 13.7313 1.33814 13.7313C1.31617 13.7313 1.2845 13.8226 1.26783 13.9341C1.25104 14.0457 1.2196 14.137 1.19785 14.137C1.1761 14.137 1.14466 14.2282 1.12788 14.3398C1.1112 14.4513 1.08213 14.5426 1.06331 14.5426C1.04449 14.5426 1.01587 14.6432 0.999529 14.7662C0.98319 14.8891 0.95254 15.0003 0.931355 15.0135C0.910058 15.0266 0.87907 15.1283 0.862393 15.2397C0.845716 15.3509 0.814841 15.4526 0.793769 15.4656C0.77281 15.4786 0.741033 15.595 0.72323 15.724C0.705538 15.8531 0.674212 15.99 0.653704 16.0282C0.633196 16.0664 0.592855 16.2295 0.564008 16.3906C0.535161 16.5518 0.484228 16.8256 0.450874 16.9991C0.417407 17.1726 0.389349 17.3793 0.388335 17.4584C0.387321 17.5375 0.368165 17.6137 0.345628 17.6275C0.323204 17.6414 0.290301 17.8458 0.272609 18.0817C0.254918 18.3175 0.224719 18.5202 0.205338 18.5322C0.186069 18.5441 0.155532 18.8125 0.137502 19.1287C0.118008 19.4701 0.0842031 19.7166 0.0541166 19.7356C-0.0183387 19.7816 -0.0178879 25.1397 0.0545674 25.2293C0.0826255 25.2641 0.120262 25.5563 0.138066 25.8785C0.155982 26.2008 0.186181 26.4848 0.205225 26.5096C0.224268 26.5344 0.254242 26.7249 0.271821 26.9329C0.289399 27.1411 0.321176 27.3439 0.342473 27.3837C0.36377 27.4235 0.403547 27.6467 0.430817 27.8796C0.458086 28.1124 0.497525 28.3355 0.518484 28.3754C0.539331 28.4152 0.57122 28.5593 0.589362 28.6956C0.607391 28.832 0.634999 28.9638 0.650662 28.9886C0.678044 29.0319 0.7203 29.1941 0.844477 29.7323C0.875915 29.8687 0.91558 29.9904 0.932708 30.0028C0.949723 30.0151 0.978119 30.1219 0.99581 30.24C1.0135 30.358 1.04415 30.4646 1.06387 30.4768C1.0837 30.489 1.11356 30.58 1.13024 30.6791C1.14703 30.7781 1.17915 30.8591 1.2018 30.8591C1.22444 30.8591 1.24304 30.9048 1.24315 30.9606C1.24338 31.0163 1.2738 31.1201 1.31076 31.1911C1.34783 31.2621 1.37826 31.3432 1.37837 31.3714C1.3786 31.3996 1.40586 31.4746 1.43911 31.5383C1.47223 31.6018 1.51415 31.7127 1.53218 31.7846C1.55032 31.8564 1.60407 32.0011 1.65185 32.1059C1.69963 32.2108 1.73873 32.3281 1.73873 32.3666C1.73873 32.4052 1.75901 32.4367 1.7838 32.4367C1.80859 32.4367 1.82888 32.4672 1.82888 32.5044C1.82888 32.5417 1.86944 32.648 1.91902 32.7405C1.9686 32.8329 2.00917 32.9428 2.00917 32.9845C2.00917 33.0262 2.02438 33.0669 2.04298 33.0753C2.08591 33.0943 2.27961 33.4888 2.27961 33.5572C2.27961 33.5855 2.29854 33.6086 2.32164 33.6086C2.34474 33.6086 2.37787 33.6543 2.39534 33.71C2.41269 33.7658 2.43951 33.8216 2.45472 33.834C2.46993 33.8464 2.56977 34.0326 2.67648 34.248C2.78319 34.4633 2.88461 34.6459 2.90185 34.6536C2.91909 34.6614 2.98343 34.7642 3.04495 34.8819C3.10637 34.9997 3.17015 35.096 3.18648 35.096C3.20294 35.096 3.22908 35.1467 3.24463 35.2087C3.26018 35.2707 3.29286 35.3214 3.3172 35.3214C3.34142 35.3214 3.36137 35.3525 3.36137 35.3905C3.36137 35.4283 3.39179 35.4712 3.42898 35.4854C3.46616 35.4997 3.49659 35.5381 3.49659 35.5709C3.49659 35.6037 3.52194 35.6573 3.55293 35.69C3.58392 35.7228 3.67012 35.8409 3.74449 35.9524C3.81886 36.064 3.9 36.1799 3.92479 36.21C4.02586 36.3328 4.06744 36.3877 4.17325 36.5378C4.23421 36.6242 4.31489 36.7263 4.35242 36.7646C4.38994 36.8031 4.4713 36.902 4.53327 36.9846C4.85262 37.4103 6.12842 38.7527 6.56676 39.1242C6.6507 39.1953 6.79156 39.317 6.8799 39.3947C6.96825 39.4723 7.11811 39.5966 7.21299 39.671C7.30787 39.7453 7.41954 39.8366 7.46123 39.8738C7.50281 39.911 7.60648 39.9912 7.69156 40.0521C7.88132 40.188 7.94093 40.2348 8.05226 40.3358C8.10004 40.3792 8.15627 40.4147 8.17734 40.4147C8.1983 40.4147 8.26422 40.4549 8.32382 40.504C8.48338 40.6355 8.4924 40.6421 8.86763 40.8992C9.05762 41.0294 9.23509 41.1359 9.26202 41.1359C9.28896 41.1359 9.31104 41.1513 9.31104 41.1702C9.31104 41.2054 9.34541 41.2269 9.65281 41.3838C9.74994 41.4333 9.85406 41.4942 9.88415 41.519C9.91424 41.5438 9.96832 41.5886 10.0043 41.6186C10.0402 41.6486 10.122 41.6862 10.1861 41.7023C10.2503 41.7184 10.3027 41.7481 10.3027 41.7682C10.3027 41.7883 10.3618 41.8178 10.4342 41.8337C10.5064 41.8496 10.5768 41.8917 10.5904 41.9273C10.6042 41.9631 10.6448 41.9922 10.6807 41.9922C10.7466 41.9922 11.027 42.1262 11.0689 42.1777C11.0888 42.2023 11.3214 42.3135 11.7743 42.515C11.8525 42.5498 11.9387 42.5782 11.9659 42.5782C11.9931 42.5782 12.0154 42.5985 12.0154 42.6233C12.0154 42.6481 12.0368 42.6683 12.063 42.6683C12.106 42.6683 12.2682 42.7348 12.6758 42.9195C12.754 42.9549 12.8503 42.9839 12.8899 42.9839C12.9295 42.9839 12.962 43.0041 12.962 43.0289C12.962 43.0537 12.9873 43.0741 13.0183 43.0742C13.0493 43.0745 13.1291 43.103 13.1956 43.1377C13.2621 43.1724 13.3838 43.2151 13.466 43.2327C13.5483 43.2504 13.6358 43.2791 13.6606 43.2968C13.6854 43.3145 13.8882 43.3876 14.1113 43.4593C14.3345 43.531 14.5271 43.6037 14.5397 43.6207C14.5521 43.6378 14.6433 43.6664 14.7425 43.6842C14.8415 43.7021 14.9429 43.7326 14.9677 43.7519C14.9925 43.7713 15.0939 43.8017 15.1931 43.8195C15.2923 43.8374 15.3937 43.8673 15.4185 43.886C15.4433 43.9047 15.5345 43.9337 15.6213 43.9503C15.7081 43.967 15.8196 43.9981 15.8692 44.0193C16.0076 44.0786 16.5918 44.2243 17.1538 44.3398C17.2901 44.3677 17.4353 44.4078 17.4763 44.4287C17.5173 44.4496 17.7303 44.491 17.9496 44.5207C18.1688 44.5505 18.3685 44.5903 18.3933 44.6092C18.4181 44.6281 18.6057 44.6581 18.8102 44.6759C19.0148 44.6937 19.1821 44.7236 19.1821 44.7422C19.1821 44.7609 19.3799 44.7907 19.6216 44.8085C19.8633 44.8265 20.0813 44.8569 20.1061 44.8761C20.3172 45.0404 24.5054 45.0417 24.8839 44.8775C24.9334 44.8561 25.1562 44.8254 25.3789 44.8094C25.6017 44.7934 25.8045 44.764 25.8296 44.744C25.8549 44.7239 26.0327 44.6931 26.2248 44.6757C26.4169 44.6582 26.5741 44.6253 26.5741 44.6027C26.5741 44.58 26.6383 44.5614 26.7169 44.5614C26.8812 44.5614 27.4204 44.4781 27.5207 44.4372C27.5954 44.4068 27.9936 44.3146 28.377 44.2389C28.5134 44.212 28.6452 44.1745 28.67 44.1554C28.6948 44.1364 28.8012 44.1066 28.9064 44.0893C29.0117 44.0719 29.108 44.0412 29.1205 44.0209C29.1331 44.0005 29.2448 43.9699 29.3687 43.9529C29.4926 43.9359 29.594 43.9058 29.594 43.8862C29.594 43.8666 29.6848 43.8369 29.7958 43.8202C29.9068 43.8036 30.0094 43.7708 30.0238 43.7475C30.0382 43.7242 30.0946 43.7049 30.1489 43.7048C30.2032 43.7046 30.3057 43.6742 30.3767 43.6372C30.4477 43.6001 30.539 43.5697 30.5796 43.5696C30.6201 43.5694 30.7127 43.5383 30.7855 43.5003C30.8582 43.4623 30.9901 43.4132 31.0785 43.391C31.275 43.3416 31.596 43.2278 31.7868 43.1396C31.865 43.1035 31.9614 43.074 32.0009 43.074C32.0406 43.074 32.0731 43.056 32.0731 43.034C32.0731 43.0119 32.144 42.9806 32.2308 42.9642C32.3176 42.948 32.3886 42.9202 32.3886 42.9025C32.3886 42.8848 32.5204 42.8231 32.6815 42.7653C32.8427 42.7076 32.9745 42.6427 32.9745 42.6212C32.9745 42.5998 33.0455 42.569 33.1323 42.5527C33.219 42.5364 33.29 42.5051 33.29 42.483C33.29 42.461 33.3178 42.443 33.3516 42.443C33.3854 42.443 33.6338 42.3285 33.9037 42.1886C34.1736 42.0488 34.4552 41.9033 34.5295 41.8655C34.6039 41.8275 34.6749 41.7824 34.6873 41.7652C34.6997 41.7481 34.7596 41.7184 34.8204 41.6994C34.8812 41.6803 34.9588 41.6371 34.9927 41.6031C35.0266 41.5692 35.0833 41.5415 35.1188 41.5415C35.1542 41.5415 35.1831 41.5252 35.1831 41.5053C35.1831 41.4854 35.2842 41.4195 35.4078 41.3589C35.5313 41.2981 35.6327 41.2358 35.6332 41.2202C35.6335 41.2046 35.6947 41.1666 35.7691 41.1359C35.8434 41.1051 35.9043 41.062 35.9043 41.0402C35.9043 41.0184 35.9223 41.0006 35.9443 41.0006C36.0077 41.0006 36.4902 40.6763 36.4902 40.6336C36.4902 40.6123 36.5175 40.595 36.5509 40.595C36.5842 40.595 36.6482 40.5544 36.6931 40.5048C36.7379 40.4552 36.8002 40.4147 36.8316 40.4147C36.8628 40.4147 36.8951 40.3991 36.9034 40.3801C36.9117 40.361 37.03 40.2664 37.1663 40.1697C37.3027 40.0729 37.4345 39.9716 37.4593 39.9445C37.4841 39.9173 37.6456 39.7839 37.8182 39.6479C37.9908 39.5119 38.1835 39.3525 38.2464 39.2939C38.3093 39.2352 38.4913 39.073 38.6506 38.9333C38.81 38.7936 39.023 38.5903 39.1239 38.4815C39.2248 38.3726 39.4392 38.1474 39.6003 37.9808C40.0306 37.5363 40.2422 37.2998 40.3474 37.1455C40.3988 37.0701 40.5053 36.9425 40.584 36.862C40.6627 36.7814 40.7275 36.7011 40.7278 36.6833C40.7283 36.6656 40.809 36.5598 40.9074 36.4482C41.0058 36.3367 41.0866 36.2317 41.087 36.2149C41.0874 36.198 41.1136 36.1574 41.1453 36.1247C41.1768 36.0919 41.3488 35.842 41.5272 35.5693C41.7057 35.2966 41.8826 35.0338 41.9204 34.9855C41.9582 34.937 41.9892 34.8793 41.9892 34.8571C41.9892 34.8351 42.0318 34.7571 42.0839 34.6839C42.2149 34.5 42.8209 33.3337 43.0291 32.8649C43.0841 32.741 43.1871 32.5109 43.2579 32.3537C43.3285 32.1964 43.3871 32.0442 43.388 32.0156C43.3888 31.9869 43.4287 31.8823 43.4766 31.7831C43.5245 31.684 43.5644 31.5686 43.5652 31.5267C43.5661 31.4848 43.587 31.4379 43.6118 31.4226C43.6366 31.4072 43.657 31.3604 43.6571 31.3184C43.6573 31.2765 43.687 31.1856 43.7231 31.1164C43.7592 31.0472 43.8019 30.9202 43.818 30.8342C43.8343 30.7483 43.8642 30.6675 43.8847 30.6547C43.9054 30.6421 43.9358 30.5406 43.9525 30.4294C43.9691 30.318 43.9996 30.2166 44.0201 30.204C44.0406 30.1913 44.0714 30.0851 44.0887 29.9679C44.106 29.8507 44.1343 29.7447 44.1516 29.7323C44.1821 29.7105 44.229 29.5273 44.3361 29.0111C44.3644 28.8748 44.4048 28.7297 44.4256 28.6886C44.4466 28.6476 44.4864 28.4347 44.5142 28.2154C44.542 27.9961 44.5816 27.7848 44.6021 27.7458C44.6226 27.7068 44.6539 27.5189 44.6718 27.3282C44.6896 27.1376 44.7202 26.9717 44.7397 26.9596C44.7592 26.9477 44.7895 26.7197 44.8072 26.4532C44.8249 26.1867 44.855 25.9484 44.8741 25.9236C45.0409 25.7074 45.0411 19.2096 44.8743 19.095C44.8563 19.0826 44.8268 18.8495 44.8088 18.577C44.7909 18.3045 44.7598 18.0713 44.7398 18.0587C44.7197 18.0461 44.6885 17.8583 44.6706 17.6414C44.6526 17.4245 44.6233 17.247 44.6053 17.247C44.5874 17.247 44.5485 17.05 44.519 16.8092C44.4894 16.5686 44.4497 16.3607 44.4307 16.3472C44.4118 16.3339 44.3737 16.2013 44.3459 16.0526C44.2672 15.6285 44.1974 15.3375 44.1564 15.2621C44.1357 15.2239 44.1044 15.1073 44.0867 15.0029C44.0691 14.8985 44.0388 14.8131 44.0193 14.8131C43.9999 14.8131 43.9706 14.7116 43.9541 14.5877C43.9377 14.4637 43.9069 14.3623 43.8859 14.3623C43.8647 14.3623 43.8337 14.2711 43.817 14.1595C43.8002 14.0479 43.7698 13.9567 43.7493 13.9567C43.7288 13.9567 43.6988 13.8866 43.6828 13.8008C43.6667 13.7151 43.624 13.5883 43.5879 13.5191C43.5518 13.4499 43.5214 13.3628 43.5205 13.3256C43.5195 13.2885 43.489 13.2187 43.4526 13.1706C43.4162 13.1224 43.3864 13.0444 43.3864 12.9972C43.3864 12.95 43.3585 12.8576 43.3245 12.7917C43.1791 12.5113 43.0709 12.2514 43.0709 12.1826C43.0709 12.1419 43.0522 12.1087 43.0295 12.1087C43.0066 12.1087 42.9746 12.0478 42.9583 11.9734C42.9419 11.8991 42.9115 11.8382 42.8906 11.8382C42.8698 11.8382 42.8394 11.7774 42.823 11.703C42.8067 11.6286 42.7763 11.5678 42.7554 11.5678C42.7346 11.5678 42.7042 11.5069 42.6878 11.4326C42.6715 11.3582 42.641 11.2973 42.6202 11.2973C42.5994 11.2973 42.5689 11.2365 42.5526 11.1621C42.5363 11.0878 42.5083 11.0269 42.4905 11.0269C42.4726 11.0269 42.4324 10.9559 42.4009 10.8691C42.3696 10.7824 42.3265 10.7114 42.3054 10.7114C42.2842 10.7114 42.2534 10.6505 42.2371 10.5762C42.2207 10.5018 42.1887 10.441 42.1659 10.441C42.1431 10.441 42.1244 10.4147 42.1244 10.3825C42.1244 10.3504 42.0933 10.2844 42.0553 10.236C41.9326 10.0795 41.6737 9.66795 41.6737 9.62941C41.6737 9.6089 41.6585 9.58535 41.6399 9.57701C41.5972 9.55808 41.4032 9.28325 41.4032 9.24166C41.4032 9.22465 41.3322 9.12414 41.2455 9.01821C41.1587 8.91229 41.0877 8.8111 41.0877 8.79341C41.0877 8.77561 41.037 8.71408 40.975 8.65661C40.9131 8.59914 40.8623 8.5339 40.8623 8.51159C40.8623 8.48917 40.8167 8.41942 40.7609 8.35643C40.7052 8.29344 40.5885 8.15484 40.5018 8.04824C40.1962 7.67312 40.0731 7.53339 40.0173 7.49767C39.9862 7.47784 39.9609 7.44223 39.9609 7.41856C39.9609 7.36864 38.5777 5.96923 38.4671 5.90737C38.4033 5.87165 38.1769 5.67299 37.6989 5.23364C37.6323 5.17234 37.563 5.12231 37.5448 5.12231C37.5267 5.12231 37.4798 5.09109 37.4406 5.05289C37.3737 4.98787 36.8468 4.59619 36.6244 4.44621C36.5693 4.40902 36.5005 4.35595 36.4713 4.32823C36.4422 4.30051 36.3756 4.26422 36.3232 4.24766C36.271 4.23098 36.2168 4.18771 36.2029 4.15154C36.1889 4.11526 36.1481 4.08562 36.1123 4.08562C36.0763 4.08562 36.0403 4.06883 36.032 4.04821C36.0237 4.02759 35.8648 3.92178 35.6789 3.81304C35.493 3.7043 35.3306 3.60446 35.3182 3.59128C35.2969 3.56874 35.0645 3.43916 34.7549 3.27734C34.6805 3.23847 34.6096 3.19497 34.5972 3.18055C34.5848 3.16613 34.4732 3.10528 34.3493 3.04533C34.2253 2.98538 34.1135 2.92273 34.1009 2.90605C34.0883 2.88938 34.0221 2.86177 33.954 2.84464C33.8858 2.82763 33.82 2.79731 33.8077 2.77737C33.7848 2.74041 33.5792 2.63775 33.1773 2.46264C33.0534 2.40867 32.8499 2.31717 32.7252 2.25925C32.6004 2.20144 32.4432 2.14026 32.3758 2.12336C32.3084 2.10645 32.2533 2.07682 32.2533 2.05744C32.2533 2.03805 32.1838 2.00921 32.0989 1.99332C32.0139 1.97732 31.9378 1.94971 31.9298 1.93191C31.9218 1.9141 31.7733 1.851 31.5998 1.79173C31.4263 1.73246 31.264 1.66879 31.2392 1.65031C31.2144 1.63172 31.0775 1.59081 30.935 1.55938C30.7924 1.52782 30.6758 1.48624 30.6758 1.46698C30.6758 1.44759 30.5845 1.41818 30.473 1.40139C30.3614 1.38472 30.2701 1.35429 30.2701 1.33378C30.2701 1.31339 30.1788 1.28296 30.0673 1.26617C29.9557 1.2495 29.8645 1.21964 29.8645 1.20003C29.8645 1.18042 29.763 1.15034 29.6391 1.13332C29.5151 1.11631 29.4137 1.08588 29.4137 1.06571C29.4137 1.04554 29.3123 1.01512 29.1884 0.998101C29.0644 0.981086 28.963 0.951112 28.963 0.931505C28.963 0.911898 28.8518 0.881925 28.7158 0.86491C28.5799 0.847894 28.4582 0.817132 28.4454 0.796511C28.4327 0.77589 28.3005 0.744902 28.1518 0.727661C28.0029 0.710421 27.8812 0.679996 27.8812 0.660052C27.8812 0.640107 27.7545 0.609344 27.5995 0.591653C27.4446 0.574074 27.2836 0.541509 27.2416 0.519536C27.1997 0.49745 26.9614 0.455532 26.712 0.426234C26.4627 0.396936 26.2586 0.358624 26.2586 0.341045C26.2586 0.323467 26.0759 0.29462 25.8526 0.276929C25.6294 0.259237 25.4368 0.228926 25.4249 0.209431C25.4128 0.19005 25.1747 0.159513 24.8956 0.141709C24.6165 0.123792 24.3624 0.0884098 24.3309 0.0629433C24.2724 0.0156164 21.724 -0.021569 20.9963 0.0143769ZM17.2119 7.54499C17.2248 7.58838 17.3705 7.99911 17.5357 8.45773C18.0981 10.0199 18.0657 9.88227 17.8862 9.94706C16.8925 10.3057 16.2007 11.2037 15.8737 12.5594C15.7175 13.2074 15.7028 13.4472 15.6668 15.9399C15.6335 18.2434 15.6212 18.5299 15.5374 18.9409C15.2265 20.4641 14.3581 21.7237 13.2023 22.3276C12.8926 22.4894 12.8965 22.5047 13.3113 22.7542C14.4403 23.433 15.2617 24.6711 15.5297 26.0979C15.6052 26.4997 15.618 26.8422 15.6362 28.9435C15.6576 31.4113 15.68 31.7464 15.8744 32.5043C16.203 33.7854 16.7895 34.5766 17.7143 34.9863C18.0688 35.1432 18.0728 35.0266 17.6745 36.1327C17.5093 36.5913 17.3318 37.0933 17.2802 37.2483C17.1701 37.5781 17.1986 37.5727 16.6042 37.3771C14.2414 36.5993 12.7717 35.2541 12.0934 33.248C11.7075 32.1064 11.697 32.007 11.6579 29.1238C11.6292 27.0109 11.6112 26.5446 11.5477 26.2617C11.2447 24.9117 10.5597 24.2342 9.35668 24.0942C8.86042 24.0364 8.90245 24.1912 8.91609 22.4727L8.92792 20.9656L9.24343 20.9377C10.349 20.8405 11.0575 20.2932 11.4031 19.2698C11.5835 18.7356 11.6025 18.4581 11.625 16.0075C11.6507 13.2238 11.6623 13.1117 12.0655 11.7616C12.0891 11.6823 12.1382 11.5606 12.1744 11.4912C12.2106 11.4217 12.2404 11.3481 12.2406 11.3275C12.2411 11.2505 12.5729 10.6322 12.8035 10.2782C13.608 9.04424 14.8184 8.22312 16.8383 7.54161C17.1089 7.45034 17.1839 7.45102 17.2119 7.54499ZM28.3997 7.6277C28.6476 7.71661 28.9015 7.80507 28.9641 7.82445C30.786 8.38775 32.4988 10.1891 33.0377 12.1087C33.321 13.1179 33.3378 13.315 33.3776 16.1202C33.4155 18.7863 33.4205 18.8463 33.6591 19.4556C34.0106 20.3536 34.8674 20.9428 35.8217 20.943C36.1514 20.943 36.1297 20.8329 36.1297 22.5002C36.1297 23.4581 36.1132 24.0129 36.0844 24.0307C36.0594 24.0461 35.8705 24.0761 35.6645 24.0974C34.5325 24.2141 33.867 24.8001 33.5134 25.9912C33.4171 26.3153 33.4116 26.4315 33.3779 28.8083C33.3388 31.5703 33.3161 31.8389 33.0371 32.8309C32.4606 34.8805 31.09 36.3514 29.0081 37.1552C28.4045 37.3881 28.1062 37.4907 27.9648 37.5136L27.813 37.5382L27.6943 37.1848C27.6289 36.9903 27.4705 36.5373 27.3422 36.1778C27.2138 35.8183 27.0815 35.4371 27.0482 35.3308L26.9874 35.1373L27.3104 34.9787C28.9609 34.1684 29.3638 32.9096 29.3672 28.5524C29.3689 26.4322 29.4056 26.0619 29.6943 25.2475C30.0875 24.1387 30.994 23.1065 31.9929 22.6301C32.1458 22.5572 32.1857 22.4304 32.0557 22.4304C31.9221 22.4304 31.1323 21.8551 30.7725 21.4955C30.3102 21.0336 30.0988 20.7253 29.8388 20.1341C29.4037 19.1448 29.3651 18.82 29.3245 15.8047C29.2937 13.5192 29.2828 13.266 29.1975 12.8742C28.969 11.8237 28.6823 11.1968 28.2015 10.6963C27.8604 10.3412 27.2762 9.94515 27.0936 9.94515C26.9612 9.94515 26.9777 9.83528 27.2092 9.1789C27.3358 8.81944 27.523 8.28701 27.6251 7.99573C27.8398 7.38307 27.7871 7.40797 28.3997 7.6277Z" fill="#A6C83D"/>
</svg>
