<svg width="45" height="41" viewBox="0 0 45 41" fill="none" xmlns="http://www.w3.org/2000/svg">
<path fill-rule="evenodd" clip-rule="evenodd" d="M9.14346 14.7319L22.4531 40.9528L0.0820312 14.7319H9.14346Z" fill="#EA6C00"/>
<path fill-rule="evenodd" clip-rule="evenodd" d="M35.7667 14.7319L22.4571 40.9528L44.8281 14.7319H35.7667Z" fill="#EA6C00"/>
<path fill-rule="evenodd" clip-rule="evenodd" d="M9.14307 14.7319H35.7623L22.4527 40.9528L9.14307 14.7319Z" fill="#FDAD00"/>
<path fill-rule="evenodd" clip-rule="evenodd" d="M22.4527 0.200226L9.8436 1.54178L9.14307 14.7319L22.4527 0.200226Z" fill="#FDD231"/>
<path fill-rule="evenodd" clip-rule="evenodd" d="M22.4526 0.200226L35.0617 1.54178L35.7622 14.7319L22.4526 0.200226Z" fill="#FDD231"/>
<path fill-rule="evenodd" clip-rule="evenodd" d="M44.8281 14.7319L35.0662 1.54178L35.7667 14.7319H44.8281Z" fill="#FDAD00"/>
<path fill-rule="evenodd" clip-rule="evenodd" d="M0.0820312 14.7319L9.84398 1.54178L9.14345 14.7319H0.0820312Z" fill="#FDAD00"/>
<path fill-rule="evenodd" clip-rule="evenodd" d="M22.4527 0.200226L9.14307 14.7319H35.7623L22.4527 0.200226Z" fill="#FEEEB7"/>
</svg>
