<svg width="49" height="47" viewBox="0 0 49 47" fill="none" xmlns="http://www.w3.org/2000/svg">
<path d="M41.3636 42H34.8864L35.3409 36.5713H32.1591L31.7045 42H18.2955L17.8408 36.5713H14.6592L15.1139 42H8.63625L5 18.476L14.0909 4H35.9091L45 18.476L41.3636 42ZM34.0909 11.238H28.2467L28.6364 13.9524H21.3636L21.7533 11.238H15.9091L12.2727 18.4762L14.0909 32.9522H35.9091L37.7273 18.4762L34.0909 11.238ZM30.9091 28.148C30.407 28.148 30 26.6412 30 24.7824C30 22.9235 30.407 21.4166 30.9091 21.4166C31.4111 21.4166 31.8181 22.9235 31.8181 24.7824C31.8181 26.6412 31.4111 28.148 30.9091 28.148ZM19.4319 28.4285C18.9298 28.4285 18.5227 26.9217 18.5227 25.0628C18.5227 23.204 18.9298 21.6972 19.4319 21.6972C19.9339 21.6972 20.3409 23.204 20.3409 25.0628C20.3409 26.9217 19.9339 28.4285 19.4319 28.4285Z" fill="#444444"/>
</svg>
