<svg width="64" height="34" viewBox="0 0 64 34" fill="none" xmlns="http://www.w3.org/2000/svg">
<path d="M0.611816 30.4323H2.6993V22.2266L5.9745 29.362C6.33441 30.2183 6.87427 30.5394 7.91802 30.5394C8.96176 30.5394 9.42964 30.2183 9.82555 29.362L13.0647 22.2266V30.4323H15.1522V22.2266C15.1522 21.4418 14.8283 21.0493 14.1445 20.8352C12.5609 20.3714 11.4811 20.7639 11.0133 21.8342L7.84603 28.8982L4.7508 21.8342C4.28291 20.7639 3.20318 20.3714 1.61957 20.8352C0.935737 21.0493 0.611816 21.4061 0.611816 22.2266V30.4323Z" fill="#00678F"/>
<path d="M16.8799 23.7607H18.9674V28.256C18.9674 28.5058 19.0393 29.0766 20.1911 29.1123C20.8029 29.1123 24.7259 29.1123 24.7619 29.1123V23.7251H26.8494C26.8494 23.7251 26.8494 31.0745 26.8494 31.1102C26.8494 32.9297 24.582 33.3221 23.5382 33.3221H16.9519V31.9307H23.5742C24.9059 31.788 24.7619 31.1102 24.7619 30.8961V30.361H20.299C18.2116 30.361 16.8799 29.4334 16.8799 28.3987C16.8799 28.2917 16.9519 23.7964 16.8799 23.7607Z" fill="#00678F"/>
<path d="M62.0128 18.5163C60.7171 18.4806 59.7453 18.6233 58.8816 18.9444C58.6296 19.0514 58.2697 19.0514 58.2337 19.3368C58.3777 19.4795 58.3777 19.6579 58.4857 19.8363C58.6656 20.1574 59.0255 20.5855 59.3135 20.7996C59.6374 21.0493 59.9973 21.299 60.3572 21.5488C60.969 21.9412 61.6889 22.1553 62.3007 22.5477C62.6606 22.7618 63.0205 23.0472 63.3445 23.2969C63.5244 23.4397 63.6324 23.618 63.8483 23.7251V23.6894C63.7404 23.5467 63.7044 23.3326 63.5964 23.1899C63.4524 23.0472 63.2725 22.9045 63.1285 22.7261C62.6606 22.1196 62.0848 21.5488 61.4729 21.1207C60.969 20.7639 59.8173 20.3001 59.6374 19.6936C59.6374 19.6936 59.6374 19.6936 59.6014 19.6579C59.9613 19.6222 60.3572 19.5152 60.7171 19.4082C61.257 19.2655 61.7608 19.3011 62.3367 19.1584C62.5886 19.0871 62.8406 19.0157 63.0925 18.9444C63.0925 18.9087 63.0925 18.8373 63.0925 18.8017C62.8046 18.5163 62.5886 18.1238 62.3007 17.8741C61.4729 17.1605 60.5731 16.4827 59.6374 15.9118C59.1335 15.5908 58.4857 15.3767 57.9818 15.127C57.8018 15.0199 57.4779 14.9842 57.3699 14.8415C57.082 14.4848 56.902 14.021 56.7221 13.6285C56.2542 12.7366 55.8223 11.7733 55.3904 10.8457C55.1025 10.2392 54.9225 9.59705 54.5626 9.02622C52.907 6.31478 51.1075 4.67365 48.3362 3.0682C47.7243 2.7471 47.0405 2.6044 46.2847 2.42601C45.8888 2.42601 45.4929 2.39034 45.097 2.35466C44.845 2.24763 44.5931 1.92654 44.3411 1.78383C43.4414 1.213 41.0659 -0.0356868 40.3821 1.60545C39.9502 2.64007 41.03 3.6747 41.3899 4.17418C41.6778 4.53094 42.0017 4.95907 42.2177 5.35151C42.3256 5.63692 42.3616 5.92234 42.4696 6.20775C42.7215 6.92129 42.9735 7.6705 43.2974 8.34836C43.4774 8.66945 43.6573 9.02622 43.9092 9.34731C44.0532 9.5257 44.2692 9.59705 44.3051 9.88247C44.0892 10.2036 44.0532 10.6674 43.9452 11.0598C43.3694 12.8436 43.5853 15.0913 44.4131 16.4113C44.6651 16.8038 45.2769 17.6957 46.1047 17.3389C46.8245 17.0535 46.6806 16.1616 46.8605 15.341C46.8965 15.1626 46.8605 15.0199 46.9685 14.9129V14.9486C47.1844 15.3767 47.4004 15.8405 47.6163 16.2686C48.1202 17.0535 48.984 17.8741 49.7038 18.4092C50.0997 18.6946 50.3876 19.1941 50.8915 19.3725V19.3368C50.8915 19.3368 50.8915 19.3368 50.8555 19.3368C50.7476 19.1941 50.6036 19.1228 50.4956 19.0157C50.2077 18.7303 49.8838 18.3735 49.6678 18.0525C48.984 17.1605 48.4081 16.1616 47.8683 15.1626C47.6163 14.6632 47.4004 14.128 47.1844 13.6285C47.0765 13.4501 47.0765 13.1647 46.9325 13.0577C46.6806 13.4145 46.3207 13.6999 46.1767 14.128C45.8888 14.8059 45.8528 15.6621 45.7448 16.5183C45.6728 16.5183 45.7088 16.5184 45.6728 16.554C45.1689 16.4113 44.989 15.9118 44.773 15.448C44.3051 14.3064 44.1972 12.4869 44.6291 11.2025C44.737 10.8814 45.2409 9.81111 45.025 9.49002C44.917 9.20461 44.5931 9.02622 44.4131 8.77648C44.1972 8.49107 43.9812 8.09863 43.8373 7.74186C43.4414 6.84994 43.2614 5.85099 42.8295 4.95907C42.6496 4.53094 42.2896 4.10282 42.0377 3.74605C41.7498 3.31793 41.3899 2.99684 41.1379 2.49737C41.0659 2.31898 40.958 2.03357 41.0659 1.85518C41.1019 1.71248 41.1739 1.6768 41.2819 1.64112C41.4978 1.46274 42.0737 1.6768 42.2896 1.78383C42.9015 2.03357 43.3694 2.24763 43.8733 2.56872C44.0892 2.71143 44.3411 3.03252 44.6291 3.10387C44.737 3.10387 44.845 3.10387 44.953 3.10387C45.4569 3.2109 46.0327 3.13955 46.5366 3.28226C47.4004 3.56767 48.1562 3.96012 48.84 4.38824C50.9275 5.70828 52.6911 7.59915 53.8428 9.84679C54.0228 10.2036 54.1307 10.5603 54.2747 10.9171C54.5986 11.702 55.0305 12.4869 55.3544 13.2718C55.6783 14.021 56.0023 14.7702 56.5061 15.4124C56.7581 15.7335 57.6939 15.9118 58.1617 16.0902C58.4857 16.2329 58.9895 16.3756 59.2775 16.5183C59.8173 16.8394 60.3572 17.2319 60.8971 17.5887C61.149 17.8027 61.9768 18.1952 62.0128 18.5163Z" fill="#00678F"/>
<path d="M45.6371 4.70935C45.3492 4.70935 45.1692 4.74503 44.9893 4.7807C44.9893 4.7807 44.9893 4.7807 44.9893 4.81638C44.9893 4.81638 44.9893 4.81638 45.0252 4.81638C45.1692 5.06612 45.3852 5.2445 45.5291 5.45856C45.6731 5.7083 45.7811 5.95804 45.889 6.20778L45.925 6.1721C46.141 6.02939 46.249 5.74398 46.249 5.38721C46.141 5.28018 46.141 5.17315 46.069 5.06612C45.961 4.88773 45.7451 4.81638 45.6371 4.70935Z" fill="#00678F"/>
<path d="M28.4688 30.4323H34.5153C35.2351 30.4323 35.8829 30.2896 36.4588 30.0399C37.3586 29.6118 37.7905 29.0766 37.7905 28.3274V26.7933C37.7905 26.1868 37.2866 25.6516 36.3148 25.2592C35.8109 25.0808 35.1631 24.9738 34.5153 24.9738H31.9959C31.1321 24.9738 30.7362 24.724 30.6282 24.1532C30.6282 24.0819 30.6282 24.0105 30.6282 23.9748V23.0472C30.6282 23.0115 30.6282 22.9402 30.6282 22.8688C30.7362 22.4407 30.9521 22.3337 31.708 22.2623C31.7799 22.2623 31.8519 22.2623 31.8879 22.2623H37.8624V20.8709H31.9959C31.1321 20.8709 30.7002 20.9066 30.3043 21.0493C29.0806 21.4418 28.5047 22.0483 28.5047 23.1186V24.2602C28.5047 25.1878 29.5485 26.0084 31.348 26.1868C31.528 26.1868 31.7439 26.1868 31.9599 26.1868H34.1194C34.1913 26.1868 34.2633 26.1868 34.3353 26.1868C34.9831 26.2581 35.2711 26.3652 35.487 26.6149C35.631 26.7576 35.631 26.8646 35.631 27.0073V28.2204C35.631 28.3631 35.523 28.5415 35.3431 28.7198C35.1631 28.8982 34.8392 29.0052 34.4433 29.0052C34.3713 29.0052 34.2993 29.0052 34.2273 29.0052H28.4688V30.4323Z" fill="#E38D1A"/>
<path d="M50.8555 28.0063C50.8555 29.4334 51.9352 30.2183 54.0947 30.361C54.3106 30.361 54.4906 30.3967 54.7065 30.3967H60.1772V29.0053H54.6705C53.4468 29.0053 52.9789 28.7198 52.9789 27.9706V20.8353H50.8915L50.8555 28.0063Z" fill="#E38D1A"/>
<path d="M39.1221 28.0776V23.1543C39.1221 21.9056 40.0218 21.1207 41.7854 20.9066C41.9654 20.9066 42.1813 20.8709 42.3613 20.8709H46.3563C46.5722 20.8709 46.7522 20.8709 46.9681 20.9066C48.7317 21.1564 49.5955 21.9056 49.5955 23.1543V28.0776C49.5955 29.1123 49.2356 29.6474 48.3718 30.0042L50.4233 31.8594H48.0119L46.3563 30.361L44.6647 30.468H42.4333C42.0733 30.468 41.6415 30.4323 41.2096 30.3253C39.7699 29.9328 39.1221 29.2193 39.1221 28.0776ZM41.3895 27.9706C41.3895 28.042 41.4255 28.1133 41.4255 28.1847C41.5335 28.7555 42.0733 29.0766 42.9011 29.0766H44.8087L43.0811 27.5068H45.4925L47.0041 28.8625C47.2921 28.7198 47.472 28.4701 47.544 28.1847C47.544 28.1133 47.544 28.042 47.544 27.9706V23.2613C47.544 23.1899 47.544 23.1186 47.544 23.0829C47.436 22.5477 46.8962 22.2267 46.0684 22.2267H42.9011C41.9654 22.2267 41.3535 22.6191 41.3535 23.2613L41.3895 27.9706Z" fill="#E38D1A"/>
<path d="M61.113 30.4323H61.401V29.255H61.7969V29.0052H60.6812V29.255H61.113V30.4323ZM63.4525 30.4323H63.7404V29.0409H63.3085L62.9486 30.0042L62.5527 29.0409H62.1208V30.4323H62.4087V29.362L62.8046 30.4323H63.0206L63.4165 29.362L63.4525 30.4323Z" fill="#E38D1A"/>
</svg>
