<svg width="56" height="38" viewBox="0 0 56 38" fill="none" xmlns="http://www.w3.org/2000/svg">
<path d="M55.9004 22.1552C55.9004 23.4955 55.9004 24.9147 55.9004 26.255C55.9004 26.3339 55.9004 26.3339 55.9004 26.4127C55.9004 26.7281 55.9004 26.9646 55.8215 27.28C55.7427 28.0685 55.585 28.8569 55.4273 29.5665C55.112 30.7492 54.7177 31.853 54.1658 32.8779C53.6928 33.7452 53.062 34.5337 52.3524 35.1644C51.9582 35.5586 51.4851 35.874 51.0121 36.1894C50.0659 36.7413 49.041 37.1355 47.9371 37.2932C47.7795 37.2932 47.7006 37.2932 47.5429 37.372C46.7545 37.372 45.8872 37.372 45.0988 37.372C45.0199 37.372 45.0199 37.372 44.9411 37.372C44.6257 37.2932 44.2315 37.2932 43.9161 37.2144C43.1277 37.0567 42.4181 36.8201 41.7873 36.4259C40.92 35.9529 40.2104 35.401 39.5008 34.7702C38.9489 34.2183 38.397 33.6664 37.8451 33.0356C37.0567 32.0895 36.3471 31.0645 35.6375 30.1184C34.6125 28.5415 33.5875 26.9646 32.6414 25.3089C31.5376 23.4167 30.4338 21.5244 29.33 19.711C29.0146 19.1591 28.6204 18.6072 28.305 18.0553C28.305 18.0553 28.305 17.9764 28.2262 17.9764C28.1473 17.8976 28.1473 17.8976 28.0685 17.9764C28.0685 17.9764 28.0685 18.0553 27.9896 18.0553C27.9108 18.213 27.7531 18.4495 27.6742 18.6072C27.2012 19.3956 26.7281 20.2629 26.2551 21.0513C25.4666 22.3917 24.757 23.732 23.9686 24.9935C23.259 26.255 22.5494 27.4377 21.7609 28.6204C21.0513 29.803 20.2629 30.9068 19.3956 32.0107C18.686 32.8779 17.9764 33.7452 17.188 34.4548C16.6361 35.0067 16.0053 35.4798 15.3746 35.874C14.2708 36.5836 13.0881 37.0567 11.8266 37.2144C11.7478 37.2144 11.5901 37.2144 11.5112 37.2932C10.6439 37.2932 9.8555 37.2932 8.98822 37.2932C8.90937 37.2932 8.90937 37.2932 8.83053 37.2932C8.35746 37.2144 7.80556 37.1355 7.33249 36.9778C5.44024 36.4259 3.9422 35.401 2.75954 33.9029C2.12879 33.1145 1.57688 32.1683 1.18266 31.2222C0.709596 30.0396 0.394222 28.7781 0.236534 27.5165C0.15769 27.0435 0.0788458 26.5704 0.0788458 26.0185C0.0788458 25.5455 0 25.0724 0 24.6782C0 24.2839 0 23.8109 0 23.4167C0 23.1013 0 22.7859 0 22.5494C0 22.0763 0.0788458 21.6033 0.0788458 21.1302C0.15769 20.4994 0.236533 19.8687 0.315377 19.2379C0.551909 17.8976 0.78844 16.5572 1.18266 15.2957C1.65572 13.64 2.20763 11.9843 2.99607 10.4862C3.62683 9.1459 4.33642 7.8844 5.12486 6.70174C5.9133 5.59792 6.70174 4.65179 7.64787 3.70567C8.35746 3.07491 9.06706 2.44416 9.8555 1.9711C10.8016 1.34035 11.8266 0.867281 12.9304 0.551906C13.7977 0.315374 14.7438 0.0788428 15.69 0.0788428C15.7688 0.0788428 15.8476 0.0788428 15.9265 0.0788428C16.0842 0.0788428 16.163 0.0788428 16.3207 0.0788428C16.3996 0.0788428 16.4784 0.0788428 16.5572 0.0788428C17.0303 0.0788428 17.5034 0.157684 17.8976 0.236528C19.3956 0.47306 20.8148 0.946126 22.0763 1.73457C23.259 2.44416 24.2839 3.2326 25.3089 4.17873C25.9397 4.73064 26.4916 5.36139 27.0435 5.9133C27.5954 6.54405 28.0685 7.09596 28.5415 7.72671C28.6992 7.8844 28.6992 7.8844 28.7781 7.72671C29.0146 7.41133 29.33 7.01712 29.5665 6.70174C30.1184 5.99214 30.6703 5.36139 31.3011 4.65179C31.853 4.09988 32.4049 3.54798 32.9568 2.99607C33.5875 2.44416 34.2971 1.89225 35.0856 1.41919C35.874 0.946124 36.7413 0.551903 37.6086 0.315371C38.2393 0.157683 38.7912 0 39.422 0C39.8951 0 40.3681 0 40.92 0C41.3143 0 41.7085 0.0788416 42.1815 0.157686C43.443 0.394218 44.6257 0.946128 45.8084 1.57688C46.8333 2.20763 47.7795 2.99607 48.6467 3.78451C48.8833 4.02104 49.1987 4.33641 49.4352 4.65179C49.9871 5.28254 50.4602 5.91329 50.9332 6.62289C51.8793 8.04208 52.6678 9.46128 53.2985 11.0382C53.6928 11.9054 54.0081 12.7727 54.2447 13.7189C54.56 14.665 54.7966 15.69 55.0331 16.6361C55.1908 17.4245 55.3485 18.1341 55.4273 18.9226C55.5062 19.4745 55.585 19.9475 55.585 20.4994C55.6639 20.8937 55.6639 21.2879 55.6639 21.6821C55.9004 21.9975 55.9004 22.0763 55.9004 22.1552ZM50.6178 24.2051C50.6178 24.0474 50.6178 23.9686 50.6178 23.8897C50.6178 23.3378 50.6178 22.7859 50.539 22.234C50.539 21.7609 50.4602 21.2879 50.3813 20.8148C50.3025 20.1052 50.2236 19.3168 50.0659 18.6072C49.7506 16.7938 49.2775 14.9804 48.5679 13.3246C48.0948 12.142 47.5429 10.9593 46.8333 9.8555C46.2814 8.90937 45.5718 8.12093 44.7834 7.33249C44.2315 6.78058 43.6796 6.30752 42.97 5.99214C41.945 5.36139 40.7623 5.04601 39.5797 5.04601C39.2643 5.04601 38.9489 5.12486 38.6336 5.12486C38.0028 5.28255 37.3721 5.51907 36.8201 5.83445C36.1894 6.22867 35.6375 6.6229 35.1644 7.09596C34.4548 7.80556 33.7452 8.59399 33.1145 9.38243C32.5626 10.092 32.0895 10.8016 31.6164 11.5901C31.4588 11.8266 31.4588 11.7478 31.6164 11.9843C32.6414 13.5612 33.6664 15.138 34.6125 16.7149C35.5586 18.2918 36.4259 19.7898 37.3721 21.3667C37.8451 22.1552 38.3182 22.9436 38.8701 23.732C39.6585 24.9147 40.3681 26.0974 41.2354 27.28C41.7873 28.0685 42.4181 28.8569 43.0488 29.6453C43.3642 30.0396 43.7584 30.3549 44.2315 30.6703C44.7045 30.9857 45.1776 31.1434 45.6507 31.2222C46.1237 31.3011 46.518 31.3011 46.991 31.2222C47.9371 31.1434 48.7256 30.6703 49.2775 29.9607C49.5929 29.4877 49.8294 29.0146 50.0659 28.4627C50.3813 27.5166 50.539 26.5704 50.539 25.6243C50.539 25.4666 50.539 25.3878 50.539 25.2301C50.6178 24.9935 50.6178 24.5993 50.6178 24.2051ZM6.07099 24.5205C6.07099 24.757 6.07099 24.9935 6.07099 25.2301C6.07099 25.782 6.14983 26.3339 6.22868 26.8858C6.30752 27.5166 6.46521 28.1473 6.78059 28.7781C7.01712 29.33 7.33249 29.8819 7.80556 30.3549C8.12093 30.6703 8.51515 30.9068 8.90937 31.0645C9.38244 31.2222 9.77666 31.3011 10.2497 31.3799C10.4863 31.3799 10.7228 31.3799 10.9593 31.3799C11.5112 31.3011 11.9843 31.1434 12.4574 30.9068C13.0093 30.5915 13.4035 30.2761 13.8765 29.8819C14.3496 29.4876 14.7438 29.0146 15.0592 28.5415C15.8476 27.5954 16.4784 26.6493 17.188 25.7031C18.0553 24.4416 18.9226 23.1013 19.711 21.8398C20.2629 20.9725 20.8937 20.0264 21.4456 19.1591C22.0763 18.1341 22.7859 17.1091 23.4167 16.0842C23.8897 15.2957 24.4416 14.5073 24.9147 13.7977C25.0724 13.5612 25.0724 13.5612 24.9147 13.4035C24.2051 12.3785 23.4167 11.3535 22.6282 10.4862C21.9975 9.77665 21.3667 9.1459 20.736 8.51515C20.2629 8.12093 19.7898 7.72671 19.2379 7.41133C18.686 7.09595 18.0553 6.85943 17.3457 6.70174C16.8726 6.6229 16.3996 6.54405 15.9265 6.54405C15.5323 6.54405 15.138 6.6229 14.7438 6.70174C14.0342 6.93827 13.4035 7.25364 12.7727 7.64786C12.2208 8.04208 11.7478 8.4363 11.3535 8.90937C10.9593 9.30359 10.6439 9.77666 10.2497 10.2497C9.54012 11.1958 8.98822 12.2208 8.51515 13.3246C7.8844 14.7438 7.41134 16.163 7.01712 17.5822C6.78058 18.6072 6.54405 19.711 6.38637 20.736C6.30752 21.209 6.22868 21.7609 6.22868 22.234C6.22868 22.6282 6.14983 23.0224 6.14983 23.4955C6.07099 23.732 6.07099 24.1263 6.07099 24.5205Z" fill="url(#paint0_linear_762_1297)"/>
<defs>
<linearGradient id="paint0_linear_762_1297" x1="17.5087" y1="30.4413" x2="44.0954" y2="7.04487" gradientUnits="userSpaceOnUse">
<stop stop-color="#0082FB"/>
<stop offset="0.1846" stop-color="#007CF5"/>
<stop offset="0.4402" stop-color="#006AE5"/>
<stop offset="0.5056" stop-color="#0064E0"/>
<stop offset="0.703" stop-color="#006EE9"/>
<stop offset="0.9525" stop-color="#0082FB"/>
</linearGradient>
</defs>
</svg>
