<svg width="56" height="54" viewBox="0 0 56 54" fill="none" xmlns="http://www.w3.org/2000/svg">
<path d="M45.6719 0.71875H10.3281C5.07279 0.71875 0.8125 4.97904 0.8125 10.2344V43.7656C0.8125 49.021 5.07279 53.2812 10.3281 53.2812H45.6719C50.9272 53.2812 55.1875 49.021 55.1875 43.7656V10.2344C55.1875 4.97904 50.9272 0.71875 45.6719 0.71875Z" fill="#330000"/>
<path d="M28.1789 33.3438H20.0703L17.9768 39.3884C17.9527 39.5878 17.8266 39.6875 17.5985 39.6875H13.7922C13.5385 39.6875 13.4501 39.5629 13.5272 39.3137L20.8723 17.498C21.0797 16.8337 21.1822 16.1412 21.1759 15.4453C21.1718 15.4146 21.1748 15.3833 21.1848 15.354C21.1947 15.3246 21.2113 15.298 21.2332 15.276C21.2551 15.2541 21.2818 15.2376 21.3111 15.2276C21.3405 15.2177 21.3717 15.2146 21.4025 15.2188H26.7312C26.8853 15.2188 26.9736 15.2822 26.9986 15.4045L35.2182 39.3522C35.2953 39.5788 35.2318 39.6875 35.0279 39.6875H30.7663C30.6875 39.6922 30.609 39.6731 30.5412 39.6327C30.4733 39.5923 30.4191 39.5325 30.3857 39.4609L28.1789 33.3438ZM20.9765 29.2656H27.2931C27.1413 28.9326 24.3002 19.7659 24.0963 18.9933H24.06L20.9765 29.2656ZM39.7608 19.75C39.4036 19.7653 39.0469 19.7088 38.7118 19.5839C38.3768 19.459 38.0702 19.2682 37.8101 19.0227C37.5556 18.764 37.3577 18.4551 37.229 18.1158C37.1003 17.7765 37.0436 17.4141 37.0625 17.0516C37.0456 16.6846 37.1052 16.3181 37.2374 15.9753C37.3696 15.6324 37.5716 15.3208 37.8305 15.0602C38.0927 14.8106 38.4022 14.6159 38.7406 14.4875C39.0791 14.3591 39.4398 14.2996 39.8016 14.3125C40.164 14.2936 40.5264 14.3503 40.8658 14.4791C41.2051 14.6078 41.514 14.8057 41.7727 15.0602C42.0204 15.327 42.2123 15.6406 42.3372 15.9826C42.4621 16.3245 42.5174 16.688 42.5 17.0516C42.5188 17.4141 42.4621 17.7765 42.3334 18.1158C42.2047 18.4551 42.0068 18.764 41.7523 19.0227C41.4855 19.2704 41.1719 19.4623 40.8299 19.5872C40.4879 19.7121 40.1245 19.7674 39.7608 19.75ZM37.5156 39.3477V21.8661C37.5095 21.8248 37.5131 21.7827 37.5262 21.7431C37.5393 21.7034 37.5615 21.6674 37.591 21.6379C37.6205 21.6084 37.6565 21.5862 37.6961 21.5731C37.7358 21.56 37.7779 21.5564 37.8192 21.5625H41.7432C41.7844 21.5569 41.8264 21.5609 41.8658 21.5741C41.9052 21.5874 41.941 21.6096 41.9703 21.639C41.9997 21.6684 42.0219 21.7042 42.0352 21.7436C42.0485 21.783 42.0525 21.8249 42.0468 21.8661V39.3839C42.0529 39.4252 42.0493 39.4673 42.0362 39.5069C42.0231 39.5466 42.0009 39.5826 41.9714 39.6121C41.9419 39.6416 41.9059 39.6638 41.8663 39.6769C41.8267 39.69 41.7845 39.6936 41.7432 39.6875H37.8554C37.8093 39.6939 37.7623 39.6895 37.7182 39.6747C37.674 39.6599 37.6339 39.635 37.601 39.6021C37.5681 39.5692 37.5432 39.5291 37.5284 39.4849C37.5136 39.4408 37.5092 39.3938 37.5156 39.3477Z" fill="#FF9A00"/>
</svg>
