<svg width="56" height="56" viewBox="0 0 56 56" fill="none" xmlns="http://www.w3.org/2000/svg">
<path d="M47.3788 33.8763L46.6591 31.8626C46.6591 31.8626 49.6576 27.3614 42.2214 25.8215C42.2214 25.8215 42.7011 20.2542 40.0625 17.6482C45.8196 12.0809 44.5002 3.67066 31.4269 9.11953C24.7103 -3.55501 -1.1966 26.1769 9.59792 30.915C8.51847 32.3364 8.51847 39.4437 15.9547 40.1544C20.9921 50.8152 33.2259 51.5259 40.3024 48.3277C47.3788 45.1294 51.4567 34.9424 47.3788 33.8763ZM15.8348 38.6145C9.71786 38.0222 9.11817 29.7305 14.3955 28.9013C19.6728 28.0721 20.9921 39.0883 15.8348 38.6145ZM14.0357 27.3614C12.3565 27.3614 10.3176 29.612 10.3176 29.612C2.16169 25.703 25.0701 -0.238309 29.9876 9.83025C29.9876 9.83025 17.9937 15.516 14.0357 27.3614ZM38.0235 37.43C38.0235 36.9561 35.5048 38.1407 30.9471 36.6008C31.3069 34.1133 36.7042 38.7329 45.6996 32.6918L46.4193 35.1793C49.7776 34.5871 46.4193 45.8402 35.6247 45.7217C26.8692 45.6033 24.1106 36.7192 28.9081 31.8626C29.8677 30.915 25.4299 29.0197 26.2695 24.8739C26.6293 23.0971 28.1885 20.4911 32.1465 21.2018C36.1045 21.9125 36.9441 18.3589 39.5827 19.6619C42.2214 20.9649 40.6622 25.94 41.022 26.6507C41.3818 27.3614 45.2199 27.4798 45.9395 29.4936C46.6591 31.5073 41.022 35.8901 32.2664 34.7055C30.2275 34.4686 29.0281 37.0746 30.3474 38.7329C32.9861 42.5235 43.7806 40.0359 45.5797 36.3639C41.022 39.799 31.6667 41.102 30.9471 37.43C33.5858 38.6145 38.0235 37.9038 38.0235 37.43ZM22.3115 18.7143C24.9501 15.516 28.4284 13.6208 28.4284 13.6208L27.7087 15.3976C27.7087 15.3976 30.2275 13.5023 32.9861 13.5023L32.0266 14.4499C35.145 14.5684 36.4643 15.7529 36.4643 15.7529C36.4643 15.7529 29.148 13.6208 22.3115 18.7143ZM38.5033 23.334C40.0625 23.2155 39.5827 26.7691 39.5827 26.7691H38.6232C38.6232 26.7691 36.9441 23.4524 38.5033 23.334ZM31.4269 27.2429C30.3474 27.3614 29.148 27.9537 29.268 27.4798C29.7477 25.5846 34.1855 26.0584 34.0655 27.7168C33.9456 29.3751 32.9861 27.006 31.4269 27.2429ZM33.9456 28.6644C34.0655 28.9013 33.106 28.6644 32.3864 28.7828C31.6667 28.9013 30.9471 29.2567 30.9471 29.0197C30.9471 28.7828 33.7057 27.7168 33.9456 28.6644ZM36.3444 29.0197C36.7042 28.309 38.1435 29.0197 37.7836 29.7305C37.4238 30.4412 35.9846 29.7305 36.3444 29.0197ZM39.3428 29.2567C38.6232 29.2567 38.6232 27.7168 39.3428 27.7168C40.0625 27.7168 40.0625 29.3751 39.3428 29.3751V29.2567ZM17.7538 35.5347C18.1136 35.8901 17.0342 36.6008 16.1946 36.0085C15.355 35.4162 17.1541 32.5734 14.9952 31.8626C12.8363 31.1519 13.436 33.8763 12.8363 33.521C12.2366 33.1656 13.6759 29.3751 16.1946 30.915C18.7133 32.4549 15.4749 34.824 16.9142 35.5347C18.3535 36.2454 17.5139 35.2978 17.7538 35.5347Z" fill="#1E1E1E"/>
</svg>
