<svg width="13" height="18" viewBox="0 0 13 18" fill="none" xmlns="http://www.w3.org/2000/svg">
<path d="M6.3276 15.2147C5.99192 13.5714 4.87366 12.628 3.76936 11.6962C2.31514 10.469 0.880581 9.25858 0.880864 6.63622C0.878789 5.03211 1.54335 3.57923 2.61732 2.52723L2.61926 2.52533C3.69352 1.47336 5.17664 0.822266 6.8142 0.822266C8.45176 0.822266 9.93514 1.47336 11.0091 2.52533L11.0111 2.52723C12.0851 3.57948 12.7498 5.03221 12.7498 6.63622C12.7478 9.25872 11.3134 10.469 9.85922 11.6962C8.75439 12.6284 7.63543 13.5725 7.30031 15.2178C7.2469 15.4806 6.98567 15.6515 6.71738 15.5992C6.51399 15.5595 6.36456 15.4028 6.32733 15.2148L6.3276 15.2147ZM9.57155 15.0088C9.32249 14.9 9.21068 14.6135 9.3218 14.3695C9.43291 14.1256 9.72543 14.016 9.97447 14.1249C10.3118 14.2729 10.5874 14.4492 10.7825 14.6459C11.0201 14.8856 11.1499 15.1586 11.1499 15.4565C11.1499 16.0669 10.5963 16.5734 9.70173 16.8984C8.95554 17.1694 7.93357 17.3376 6.81433 17.3376C5.69509 17.3376 4.67315 17.1694 3.92692 16.8984C3.0324 16.5734 2.4788 16.0669 2.4788 15.4565C2.4788 15.1586 2.60858 14.8862 2.84587 14.6462C3.04082 14.4495 3.31601 14.2737 3.65365 14.1255C3.9027 14.0166 4.19535 14.1261 4.30632 14.3701C4.41743 14.614 4.30563 14.9007 4.05657 15.0094C3.83422 15.107 3.66251 15.2127 3.55473 15.3218C3.50063 15.3767 3.4706 15.4227 3.4706 15.4565C3.4706 15.6164 3.7768 15.8081 4.27158 15.9878C4.9143 16.2211 5.81297 16.3659 6.81401 16.3659C7.81506 16.3659 8.71377 16.2211 9.35645 15.9878C9.85125 15.808 10.1574 15.6164 10.1574 15.4565C10.1574 15.4227 10.1274 15.3764 10.073 15.3215C9.96497 15.2125 9.79326 15.1064 9.5709 15.009L9.57155 15.0088ZM6.8145 3.43752C7.71608 3.43752 8.53257 3.79571 9.1234 4.37457C9.71423 4.95329 10.0801 5.75303 10.0801 6.63617C10.0801 7.519 9.71437 8.31904 9.1234 8.89776C8.53257 9.47648 7.71611 9.83482 6.8145 9.83482C5.91288 9.83482 5.09642 9.47662 4.5056 8.89776C3.91477 8.31904 3.54894 7.51903 3.54894 6.63617C3.54894 5.75306 3.91463 4.95329 4.5056 4.37457C5.09642 3.79585 5.91288 3.43752 6.8145 3.43752ZM8.42245 5.06116C8.01124 4.65838 7.44269 4.40927 6.8145 4.40927C6.1863 4.40927 5.61779 4.65851 5.20655 5.06116C4.79534 5.46394 4.54102 6.02084 4.54102 6.63617C4.54102 7.25122 4.79547 7.80836 5.20655 8.21117C5.61775 8.61395 6.1863 8.86307 6.8145 8.86307C7.44269 8.86307 8.01121 8.61383 8.42245 8.21117C8.83365 7.80839 9.08798 7.25122 9.08798 6.63617C9.08798 6.02088 8.83352 5.46398 8.42245 5.06116ZM4.41665 10.9636C5.32099 11.7266 6.2338 12.4966 6.8145 13.6294C7.39534 12.4964 8.308 11.7266 9.21234 10.9636C10.495 9.8811 11.7602 8.81352 11.7602 6.63599C11.7581 5.29793 11.2052 4.08681 10.3114 3.21075C9.41686 2.33524 8.18059 1.79364 6.8145 1.79364C5.4484 1.79364 4.21199 2.3352 3.3176 3.21075C2.42378 4.08695 1.87085 5.29789 1.87085 6.63599C1.86878 8.81356 3.13384 9.8811 4.41662 10.9636H4.41665Z" fill="#E3204A"/>
</svg>
