<svg width="1920" height="560" viewBox="0 0 1920 560" fill="none" xmlns="http://www.w3.org/2000/svg">
<g opacity="0.5">
<mask id="mask0_2399_7453" style="mask-type:alpha" maskUnits="userSpaceOnUse" x="0" y="0" width="1920" height="547">
<rect width="1920" height="547" fill="#E3204A"/>
</mask>
<g mask="url(#mask0_2399_7453)">
</g>
<g opacity="0.5" clip-path="url(#clip0_2399_7453)">
<path d="M-359.355 74.9605C-359.355 74.9605 -134.95 -32.5198 222.595 -32.5198C580.14 -32.5198 676.331 109.205 1127.56 109.205C1578.79 109.205 1672.53 -199.025 2279.14 -199.025" stroke="#E3204A" stroke-width="0.5428" stroke-miterlimit="10"/>
<path opacity="0.9756" d="M-359.355 79.7063C-359.355 79.7063 -123.877 -39.1889 233.697 -39.1889C591.243 -39.1889 676.331 122.891 1127.59 122.891C1578.85 122.891 1672.56 -186.068 2279.16 -186.068" stroke="#E3204A" stroke-width="0.5368" stroke-miterlimit="10"/>
<path opacity="0.9512" d="M-359.355 84.4248C-359.355 84.4248 -112.775 -45.8561 244.771 -45.8561C602.316 -45.8561 676.302 136.549 1127.56 136.549C1578.82 136.549 1672.53 -173.109 2279.14 -173.109" stroke="#E3204A" stroke-width="0.5307" stroke-miterlimit="10"/>
<path opacity="0.9268" d="M-359.355 89.1705C-359.355 89.1705 -101.672 -52.5253 255.873 -52.5253C613.418 -52.5253 676.302 150.205 1127.56 150.205C1578.82 150.205 1672.53 -160.151 2279.14 -160.151" stroke="#E3204A" stroke-width="0.5246" stroke-miterlimit="10"/>
<path opacity="0.9024" d="M-359.355 93.889C-359.355 93.889 -90.5701 -59.1925 266.975 -59.1925C624.52 -59.1925 676.302 163.863 1127.56 163.863C1578.82 163.863 1672.53 -147.221 2279.14 -147.221" stroke="#E3204A" stroke-width="0.5185" stroke-miterlimit="10"/>
<path opacity="0.878" d="M-359.355 98.6346C-359.355 98.6346 -79.4678 -65.8617 278.077 -65.8617C635.622 -65.8617 676.331 177.52 1127.56 177.52C1578.79 177.52 1672.53 -134.234 2279.14 -134.234" stroke="#E3204A" stroke-width="0.5124" stroke-miterlimit="10"/>
<path opacity="0.8537" d="M-359.355 103.351C-359.355 103.351 -68.3947 -72.5308 289.18 -72.5308C646.754 -72.5308 676.331 191.205 1127.59 191.205C1578.85 191.205 1672.56 -121.277 2279.16 -121.277" stroke="#E3204A" stroke-width="0.5063" stroke-miterlimit="10"/>
<path opacity="0.8293" d="M-359.355 108.07C-359.355 108.07 -57.2925 -79.2273 300.253 -79.2273C657.798 -79.2273 676.302 204.834 1127.56 204.834C1578.82 204.834 1672.53 -108.347 2279.14 -108.347" stroke="#E3204A" stroke-width="0.5003" stroke-miterlimit="10"/>
<path opacity="0.8049" d="M-359.355 112.816C-359.355 112.816 -46.1902 -85.8672 311.355 -85.8672C668.9 -85.8672 676.302 218.52 1127.56 218.52C1578.82 218.52 1672.53 -95.3893 2279.14 -95.3893" stroke="#E3204A" stroke-width="0.4942" stroke-miterlimit="10"/>
<path opacity="0.7805" d="M-359.355 117.533C-359.355 117.533 -35.088 -92.5354 322.457 -92.5354C680.002 -92.5354 676.302 232.177 1127.56 232.177C1578.82 232.177 1672.53 -82.4309 2279.14 -82.4309" stroke="#E3204A" stroke-width="0.4881" stroke-miterlimit="10"/>
<path opacity="0.7561" d="M-359.355 122.28C-359.355 122.28 -23.9857 -99.2037 333.559 -99.2037C691.105 -99.2037 676.331 245.834 1127.56 245.834C1578.79 245.834 1672.53 -69.4726 2279.14 -69.4726" stroke="#E3204A" stroke-width="0.482" stroke-miterlimit="10"/>
<path opacity="0.7317" d="M-359.355 126.996C-359.355 126.996 -12.9126 -105.873 344.662 -105.873C702.236 -105.873 676.331 259.52 1127.59 259.52C1578.85 259.52 1672.56 -56.4859 2279.16 -56.4859" stroke="#E3204A" stroke-width="0.4759" stroke-miterlimit="10"/>
<path opacity="0.7073" d="M-359.355 131.714C-359.355 131.714 -1.81029 -112.57 355.735 -112.57C713.28 -112.57 676.331 273.147 1127.59 273.147C1578.85 273.147 1672.56 -43.586 2279.16 -43.586" stroke="#E3204A" stroke-width="0.4699" stroke-miterlimit="10"/>
<path opacity="0.6829" d="M-359.355 136.461C-359.355 136.461 9.29193 -119.209 366.837 -119.209C724.382 -119.209 676.302 286.834 1127.56 286.834C1578.82 286.834 1672.53 -30.5983 2279.14 -30.5983" stroke="#E3204A" stroke-width="0.4638" stroke-miterlimit="10"/>
<path opacity="0.6585" d="M-359.355 141.178C-359.355 141.178 20.3942 -125.907 377.939 -125.907C735.484 -125.907 676.302 300.462 1127.56 300.462C1578.82 300.462 1672.53 -17.6693 2279.14 -17.6693" stroke="#E3204A" stroke-width="0.4577" stroke-miterlimit="10"/>
<path opacity="0.6341" d="M-359.355 145.925C-359.355 145.925 31.4964 -132.546 389.042 -132.546C746.587 -132.546 676.331 314.148 1127.56 314.148C1578.79 314.148 1672.53 -4.71069 2279.14 -4.71069" stroke="#E3204A" stroke-width="0.4516" stroke-miterlimit="10"/>
<path opacity="0.6098" d="M-359.355 150.641C-359.355 150.641 42.5696 -139.244 400.144 -139.244C757.718 -139.244 676.331 327.805 1127.59 327.805C1578.85 327.805 1672.56 8.24665 2279.16 8.24665" stroke="#E3204A" stroke-width="0.4455" stroke-miterlimit="10"/>
<path opacity="0.5854" d="M-359.355 155.359C-359.355 155.359 53.6719 -145.912 411.217 -145.912C768.762 -145.912 676.302 341.462 1127.56 341.462C1578.82 341.462 1672.53 21.205 2279.14 21.205" stroke="#E3204A" stroke-width="0.4394" stroke-miterlimit="10"/>
<path opacity="0.561" d="M-359.355 160.105C-359.355 160.105 64.7741 -152.58 422.319 -152.58C779.864 -152.58 676.302 355.119 1127.56 355.119C1578.82 355.119 1672.53 34.1634 2279.14 34.1634" stroke="#E3204A" stroke-width="0.4334" stroke-miterlimit="10"/>
<path opacity="0.5366" d="M-359.355 164.823C-359.355 164.823 75.8764 -159.249 433.422 -159.249C790.967 -159.249 676.302 368.776 1127.56 368.776C1578.82 368.776 1672.53 47.0926 2279.14 47.0926" stroke="#E3204A" stroke-width="0.4273" stroke-miterlimit="10"/>
<path opacity="0.5122" d="M-359.355 169.57C-359.355 169.57 86.9786 -165.917 444.524 -165.917C802.069 -165.917 676.331 382.434 1127.56 382.434C1578.79 382.434 1672.53 60.0509 2279.14 60.0509" stroke="#E3204A" stroke-width="0.4212" stroke-miterlimit="10"/>
<path opacity="0.4878" d="M-359.355 174.287C-359.355 174.287 98.0517 -172.585 455.626 -172.585C813.2 -172.585 676.331 396.091 1127.59 396.091C1578.85 396.091 1672.56 73.0094 2279.16 73.0094" stroke="#E3204A" stroke-width="0.4151" stroke-miterlimit="10"/>
<path opacity="0.4634" d="M-359.355 179.033C-359.355 179.033 109.154 -179.254 466.699 -179.254C824.244 -179.254 676.331 409.776 1127.59 409.776C1578.85 409.776 1672.56 85.996 2279.16 85.996" stroke="#E3204A" stroke-width="0.409" stroke-miterlimit="10"/>
<path opacity="0.439" d="M-359.355 183.751C-359.355 183.751 120.256 -185.922 477.801 -185.922C835.347 -185.922 676.331 423.434 1127.59 423.434C1578.85 423.434 1672.56 98.9253 2279.16 98.9253" stroke="#E3204A" stroke-width="0.403" stroke-miterlimit="10"/>
<path opacity="0.4146" d="M-359.355 188.468C-359.355 188.468 131.359 -192.591 488.904 -192.591C846.449 -192.591 676.331 437.091 1127.59 437.091C1578.85 437.091 1672.56 111.884 2279.16 111.884" stroke="#E3204A" stroke-width="0.3969" stroke-miterlimit="10"/>
<path opacity="0.3902" d="M-359.355 193.215C-359.355 193.215 142.461 -199.259 500.006 -199.259C857.551 -199.259 676.331 450.748 1127.59 450.748C1578.85 450.748 1672.56 124.842 2279.16 124.842" stroke="#E3204A" stroke-width="0.3908" stroke-miterlimit="10"/>
<path opacity="0.3659" d="M-359.355 197.932C-359.355 197.932 153.534 -205.927 511.108 -205.927C868.683 -205.927 676.331 464.405 1127.59 464.405C1578.85 464.405 1672.56 137.771 2279.16 137.771" stroke="#E3204A" stroke-width="0.3847" stroke-miterlimit="10"/>
<path opacity="0.3415" d="M-359.355 202.679C-359.355 202.679 164.636 -212.595 522.181 -212.595C879.727 -212.595 676.331 478.062 1127.59 478.062C1578.85 478.062 1672.56 150.73 2279.16 150.73" stroke="#E3204A" stroke-width="0.3786" stroke-miterlimit="10"/>
<path opacity="0.3171" d="M-359.355 207.396C-359.355 207.396 175.738 -219.264 533.284 -219.264C890.829 -219.264 676.331 491.748 1127.59 491.748C1578.85 491.748 1672.56 163.716 2279.16 163.716" stroke="#E3204A" stroke-width="0.3725" stroke-miterlimit="10"/>
<path opacity="0.2927" d="M-359.355 212.113C-359.355 212.113 186.841 -225.962 544.386 -225.962C901.931 -225.962 676.331 505.405 1127.59 505.405C1578.85 505.405 1672.56 176.675 2279.16 176.675" stroke="#E3204A" stroke-width="0.3665" stroke-miterlimit="10"/>
<path opacity="0.2683" d="M-359.355 216.86C-359.355 216.86 197.943 -232.601 555.488 -232.601C913.033 -232.601 676.331 519.062 1127.59 519.062C1578.85 519.062 1672.56 189.604 2279.16 189.604" stroke="#E3204A" stroke-width="0.3604" stroke-miterlimit="10"/>
<path opacity="0.2439" d="M-359.355 221.577C-359.355 221.577 209.016 -239.298 566.59 -239.298C924.165 -239.298 676.331 532.72 1127.59 532.72C1578.85 532.72 1672.56 202.562 2279.16 202.562" stroke="#E3204A" stroke-width="0.3543" stroke-miterlimit="10"/>
<path opacity="0.2195" d="M-359.355 226.323C-359.355 226.323 220.118 -245.938 577.693 -245.938C935.267 -245.938 676.331 546.405 1127.59 546.405C1578.85 546.405 1672.56 215.549 2279.16 215.549" stroke="#E3204A" stroke-width="0.3482" stroke-miterlimit="10"/>
<path opacity="0.1951" d="M-359.355 231.04C-359.355 231.04 231.221 -252.635 588.766 -252.635C946.311 -252.635 676.302 560.033 1127.56 560.033C1578.82 560.033 1672.53 228.478 2279.14 228.478" stroke="#E3204A" stroke-width="0.3421" stroke-miterlimit="10"/>
<path opacity="0.1707" d="M-359.355 235.758C-359.355 235.758 242.323 -259.304 599.868 -259.304C957.413 -259.304 676.331 573.69 1127.59 573.69C1578.85 573.69 1672.56 241.407 2279.16 241.407" stroke="#E3204A" stroke-width="0.3361" stroke-miterlimit="10"/>
<path opacity="0.1463" d="M-359.355 240.505C-359.355 240.505 253.425 -265.972 610.97 -265.972C968.515 -265.972 676.331 587.348 1127.59 587.348C1578.85 587.348 1672.56 254.366 2279.16 254.366" stroke="#E3204A" stroke-width="0.33" stroke-miterlimit="10"/>
<path opacity="0.122" d="M-359.355 245.222C-359.355 245.222 264.498 -272.64 622.072 -272.64C979.647 -272.64 676.331 601.034 1127.59 601.034C1578.85 601.034 1672.53 267.324 2279.14 267.324" stroke="#E3204A" stroke-width="0.3239" stroke-miterlimit="10"/>
<path opacity="0.0976" d="M-359.355 249.969C-359.355 249.969 275.6 -279.279 633.175 -279.279C990.749 -279.279 676.331 614.691 1127.59 614.691C1578.85 614.691 1672.56 280.282 2279.16 280.282" stroke="#E3204A" stroke-width="0.3178" stroke-miterlimit="10"/>
<path opacity="0.0732" d="M-359.355 254.685C-359.355 254.685 286.703 -285.977 644.248 -285.977C1001.79 -285.977 676.302 628.348 1127.56 628.348C1578.82 628.348 1672.53 293.24 2279.14 293.24" stroke="#E3204A" stroke-width="0.3117" stroke-miterlimit="10"/>
<path opacity="0.0488" d="M-359.355 259.432C-359.355 259.432 297.805 -292.616 655.35 -292.616C1012.9 -292.616 676.331 642.005 1127.59 642.005C1578.85 642.005 1672.56 306.198 2279.16 306.198" stroke="#E3204A" stroke-width="0.3056" stroke-miterlimit="10"/>
<path opacity="0.0244" d="M-359.355 264.15C-359.355 264.15 308.907 -299.314 666.452 -299.314C1024 -299.314 676.331 655.662 1127.59 655.662C1578.85 655.662 1672.53 319.157 2279.14 319.157" stroke="#E3204A" stroke-width="0.2996" stroke-miterlimit="10"/>
</g>
</g>
<defs>
<clipPath id="clip0_2399_7453">
<rect width="1920" height="560" fill="white" transform="matrix(1 0 0 -1 0 560)"/>
</clipPath>
</defs>
</svg>
