<svg width="1920" height="356" viewBox="0 0 1920 356" fill="none" xmlns="http://www.w3.org/2000/svg">
<g opacity="0.5">
<mask id="mask0_89_2259" style="mask-type:alpha" maskUnits="userSpaceOnUse" x="0" y="-99" width="1920" height="371">
<rect y="-98.7988" width="1920" height="370.627" fill="#E3204A"/>
</mask>
<g mask="url(#mask0_89_2259)">
</g>
<g opacity="0.5" clip-path="url(#clip0_89_2259)">
<path opacity="0.9268" d="M-359.354 -38.3821C-359.354 -38.3821 -101.671 -134.39 255.874 -134.39C613.419 -134.39 676.303 2.97266 1127.56 2.97266C1578.82 2.97266 1672.53 -207.313 2279.14 -207.313" stroke="#F4F4F4" stroke-width="0.5246" stroke-miterlimit="10"/>
<path opacity="0.9024" d="M-359.354 -35.1854C-359.354 -35.1854 -90.5691 -138.908 266.976 -138.908C624.521 -138.908 676.303 12.2266 1127.56 12.2266C1578.82 12.2266 1672.53 -198.553 2279.14 -198.553" stroke="#F4F4F4" stroke-width="0.5185" stroke-miterlimit="10"/>
<path opacity="0.878" d="M-359.354 -31.971C-359.354 -31.971 -79.4669 -143.428 278.078 -143.428C635.623 -143.428 676.332 21.4785 1127.56 21.4785C1578.79 21.4785 1672.53 -189.754 2279.14 -189.754" stroke="#F4F4F4" stroke-width="0.5124" stroke-miterlimit="10"/>
<path opacity="0.8537" d="M-359.354 -28.7745C-359.354 -28.7745 -68.3937 -147.946 289.181 -147.946C646.755 -147.946 676.332 30.752 1127.59 30.752C1578.85 30.752 1672.56 -180.974 2279.17 -180.974" stroke="#F4F4F4" stroke-width="0.5063" stroke-miterlimit="10"/>
<path opacity="0.8293" d="M-359.354 -25.5776C-359.354 -25.5776 -57.2915 -152.483 300.254 -152.483C657.799 -152.483 676.303 39.9863 1127.56 39.9863C1578.82 39.9863 1672.53 -172.213 2279.14 -172.213" stroke="#F4F4F4" stroke-width="0.5003" stroke-miterlimit="10"/>
<path opacity="0.8049" d="M-359.354 -22.3613C-359.354 -22.3613 -46.1892 -156.981 311.356 -156.981C668.901 -156.981 676.303 49.2598 1127.56 49.2598C1578.82 49.2598 1672.53 -163.433 2279.14 -163.433" stroke="#F4F4F4" stroke-width="0.4942" stroke-miterlimit="10"/>
<path opacity="0.7805" d="M-359.354 -19.1646C-359.354 -19.1646 -35.087 -161.499 322.458 -161.499C680.003 -161.499 676.303 58.5137 1127.56 58.5137C1578.82 58.5137 1672.53 -154.653 2279.14 -154.653" stroke="#F4F4F4" stroke-width="0.4881" stroke-miterlimit="10"/>
<path opacity="0.7561" d="M-359.354 -15.9482C-359.354 -15.9482 -23.9847 -166.017 333.56 -166.017C691.106 -166.017 676.332 67.7676 1127.56 67.7676C1578.79 67.7676 1672.53 -145.872 2279.14 -145.872" stroke="#F4F4F4" stroke-width="0.482" stroke-miterlimit="10"/>
<path opacity="0.7317" d="M-359.354 -12.7517C-359.354 -12.7517 -12.9116 -170.535 344.663 -170.535C702.237 -170.535 676.332 77.041 1127.59 77.041C1578.85 77.041 1672.56 -137.073 2279.17 -137.073" stroke="#F4F4F4" stroke-width="0.4759" stroke-miterlimit="10"/>
<path opacity="0.7073" d="M-359.354 -9.55679C-359.354 -9.55679 -1.80932 -175.075 355.736 -175.075C713.281 -175.075 676.332 86.2734 1127.59 86.2734C1578.85 86.2734 1672.56 -128.333 2279.17 -128.333" stroke="#F4F4F4" stroke-width="0.4699" stroke-miterlimit="10"/>
<path opacity="0.6829" d="M-359.354 -6.34056C-359.354 -6.34056 9.29291 -179.573 366.838 -179.573C724.383 -179.573 676.303 95.5469 1127.56 95.5469C1578.82 95.5469 1672.53 -119.533 2279.14 -119.533" stroke="#F4F4F4" stroke-width="0.4638" stroke-miterlimit="10"/>
<path opacity="0.6585" d="M-359.354 -3.14367C-359.354 -3.14367 20.3952 -184.11 377.94 -184.11C735.485 -184.11 676.303 104.781 1127.56 104.781C1578.82 104.781 1672.53 -110.773 2279.14 -110.773" stroke="#F4F4F4" stroke-width="0.4577" stroke-miterlimit="10"/>
<path opacity="0.6341" d="M-359.354 0.0725669C-359.354 0.0725669 31.4974 -188.609 389.043 -188.609C746.588 -188.609 676.332 114.055 1127.56 114.055C1578.79 114.055 1672.53 -101.992 2279.14 -101.992" stroke="#F4F4F4" stroke-width="0.4516" stroke-miterlimit="10"/>
<path opacity="0.6098" d="M-359.354 3.26925C-359.354 3.26925 42.5705 -193.146 400.145 -193.146C757.719 -193.146 676.332 123.309 1127.59 123.309C1578.85 123.309 1672.56 -93.2121 2279.17 -93.2121" stroke="#F4F4F4" stroke-width="0.4455" stroke-miterlimit="10"/>
<path opacity="0.5854" d="M-359.354 6.46401C-359.354 6.46401 53.6728 -197.666 411.218 -197.666C768.763 -197.666 676.303 132.561 1127.56 132.561C1578.82 132.561 1672.53 -84.4336 2279.14 -84.4336" stroke="#F4F4F4" stroke-width="0.4394" stroke-miterlimit="10"/>
<path opacity="0.561" d="M-359.354 9.68043C-359.354 9.68043 64.7751 -202.184 422.32 -202.184C779.865 -202.184 676.303 141.814 1127.56 141.814C1578.82 141.814 1672.53 -75.6533 2279.14 -75.6533" stroke="#F4F4F4" stroke-width="0.4334" stroke-miterlimit="10"/>
<path opacity="0.5366" d="M-359.354 12.8771C-359.354 12.8771 75.8773 -206.702 433.422 -206.702C790.968 -206.702 676.303 151.068 1127.56 151.068C1578.82 151.068 1672.53 -66.8926 2279.14 -66.8926" stroke="#F4F4F4" stroke-width="0.4273" stroke-miterlimit="10"/>
<path opacity="0.5122" d="M-359.354 16.0935C-359.354 16.0935 86.9796 -211.22 444.525 -211.22C802.07 -211.22 676.332 160.322 1127.56 160.322C1578.79 160.322 1672.53 -58.1123 2279.14 -58.1123" stroke="#F4F4F4" stroke-width="0.4212" stroke-miterlimit="10"/>
<path opacity="0.4878" d="M-359.354 19.2903C-359.354 19.2903 98.0527 -215.737 455.627 -215.737C813.201 -215.737 676.332 169.576 1127.59 169.576C1578.85 169.576 1672.56 -49.3318 2279.17 -49.3318" stroke="#F4F4F4" stroke-width="0.4151" stroke-miterlimit="10"/>
<path opacity="0.4634" d="M-359.354 22.5064C-359.354 22.5064 109.155 -220.256 466.7 -220.256C824.245 -220.256 676.332 178.85 1127.59 178.85C1578.85 178.85 1672.56 -40.532 2279.17 -40.532" stroke="#F4F4F4" stroke-width="0.409" stroke-miterlimit="10"/>
<path opacity="0.439" d="M-359.354 25.7012C-359.354 25.7012 120.257 -224.775 477.802 -224.775C835.348 -224.775 676.332 188.102 1127.59 188.102C1578.85 188.102 1672.56 -31.7732 2279.17 -31.7732" stroke="#F4F4F4" stroke-width="0.403" stroke-miterlimit="10"/>
<path opacity="0.4146" d="M-359.354 28.8979C-359.354 28.8979 131.36 -229.293 488.905 -229.293C846.45 -229.293 676.332 197.355 1127.59 197.355C1578.85 197.355 1672.56 -22.9929 2279.17 -22.9929" stroke="#F4F4F4" stroke-width="0.3969" stroke-miterlimit="10"/>
<path opacity="0.3902" d="M-359.354 32.1143C-359.354 32.1143 142.462 -233.811 500.007 -233.811C857.552 -233.811 676.332 206.609 1127.59 206.609C1578.85 206.609 1672.56 -14.2125 2279.17 -14.2125" stroke="#F4F4F4" stroke-width="0.3908" stroke-miterlimit="10"/>
<path opacity="0.3659" d="M-359.354 35.311C-359.354 35.311 153.535 -238.329 511.109 -238.329C868.684 -238.329 676.332 215.863 1127.59 215.863C1578.85 215.863 1672.56 -5.45186 2279.17 -5.45186" stroke="#F4F4F4" stroke-width="0.3847" stroke-miterlimit="10"/>
<path opacity="0.3415" d="M-359.354 38.5275C-359.354 38.5275 164.637 -242.847 522.182 -242.847C879.727 -242.847 676.332 225.117 1127.59 225.117C1578.85 225.117 1672.56 3.32852 2279.17 3.32852" stroke="#F4F4F4" stroke-width="0.3786" stroke-miterlimit="10"/>
<path opacity="0.3171" d="M-359.354 41.722C-359.354 41.722 175.739 -247.367 533.285 -247.367C890.83 -247.367 676.332 234.389 1127.59 234.389C1578.85 234.389 1672.56 12.1265 2279.17 12.1265" stroke="#F4F4F4" stroke-width="0.3725" stroke-miterlimit="10"/>
<path opacity="0.2927" d="M-359.354 44.9187C-359.354 44.9187 186.842 -251.904 544.387 -251.904C901.932 -251.904 676.332 243.643 1127.59 243.643C1578.85 243.643 1672.56 20.9069 2279.17 20.9069" stroke="#F4F4F4" stroke-width="0.3665" stroke-miterlimit="10"/>
<path opacity="0.2683" d="M-359.354 48.1351C-359.354 48.1351 197.944 -256.403 555.489 -256.403C913.034 -256.403 676.332 252.896 1127.59 252.896C1578.85 252.896 1672.56 29.6675 2279.17 29.6675" stroke="#F4F4F4" stroke-width="0.3604" stroke-miterlimit="10"/>
<path opacity="0.2439" d="M-359.354 51.3318C-359.354 51.3318 209.017 -260.94 566.591 -260.94C924.166 -260.94 676.332 262.15 1127.59 262.15C1578.85 262.15 1672.56 38.4479 2279.17 38.4479" stroke="#F4F4F4" stroke-width="0.3543" stroke-miterlimit="10"/>
<path opacity="0.2195" d="M-359.354 54.548C-359.354 54.548 220.119 -265.438 577.694 -265.438C935.268 -265.438 676.332 271.424 1127.59 271.424C1578.85 271.424 1672.56 47.2478 2279.17 47.2478" stroke="#F4F4F4" stroke-width="0.3482" stroke-miterlimit="10"/>
<path opacity="0.1951" d="M-359.354 57.7429C-359.354 57.7429 231.222 -269.978 588.767 -269.978C946.312 -269.978 676.303 280.656 1127.56 280.656C1578.82 280.656 1672.53 56.0067 2279.14 56.0067" stroke="#F4F4F4" stroke-width="0.3421" stroke-miterlimit="10"/>
<path opacity="0.1707" d="M-359.354 60.9397C-359.354 60.9397 242.324 -274.496 599.869 -274.496C957.414 -274.496 676.332 289.91 1127.59 289.91C1578.85 289.91 1672.56 64.7674 2279.17 64.7674" stroke="#F4F4F4" stroke-width="0.3361" stroke-miterlimit="10"/>
<path opacity="0.1463" d="M-359.354 64.1561C-359.354 64.1561 253.426 -279.014 610.971 -279.014C968.516 -279.014 676.332 299.164 1127.59 299.164C1578.85 299.164 1672.56 73.5477 2279.17 73.5477" stroke="#F4F4F4" stroke-width="0.33" stroke-miterlimit="10"/>
<path opacity="0.122" d="M-359.354 67.3526C-359.354 67.3526 264.499 -283.532 622.073 -283.532C979.648 -283.532 676.332 308.438 1127.59 308.438C1578.85 308.438 1672.53 82.3279 2279.14 82.3279" stroke="#F4F4F4" stroke-width="0.3239" stroke-miterlimit="10"/>
<path opacity="0.0976" d="M-359.354 70.569C-359.354 70.569 275.601 -288.03 633.176 -288.03C990.75 -288.03 676.332 317.691 1127.59 317.691C1578.85 317.691 1672.56 91.1083 2279.17 91.1083" stroke="#F4F4F4" stroke-width="0.3178" stroke-miterlimit="10"/>
<path opacity="0.0732" d="M-359.354 73.7657C-359.354 73.7657 286.704 -292.567 644.249 -292.567C1001.79 -292.567 676.303 326.945 1127.56 326.945C1578.82 326.945 1672.53 99.8886 2279.14 99.8886" stroke="#F4F4F4" stroke-width="0.3117" stroke-miterlimit="10"/>
<path opacity="0.0488" d="M-359.354 76.9802C-359.354 76.9802 297.806 -297.067 655.351 -297.067C1012.9 -297.067 676.332 336.197 1127.59 336.197C1578.85 336.197 1672.56 108.667 2279.17 108.667" stroke="#F4F4F4" stroke-width="0.3056" stroke-miterlimit="10"/>
<path opacity="0.0244" d="M-359.354 80.1769C-359.354 80.1769 308.908 -301.605 666.453 -301.605C1024 -301.605 676.332 345.451 1127.59 345.451C1578.85 345.451 1672.53 117.447 2279.14 117.447" stroke="#F4F4F4" stroke-width="0.2996" stroke-miterlimit="10"/>
</g>
</g>
<defs>
<clipPath id="clip0_89_2259">
<rect width="2638.87" height="661.42" fill="white" transform="matrix(1 0 0 -1 -359.733 355.002)"/>
</clipPath>
</defs>
</svg>
