<svg width="533" height="886" viewBox="0 0 533 886" fill="none" xmlns="http://www.w3.org/2000/svg">
<g opacity="0.8">
<mask id="mask0_111_31" style="mask-type:alpha" maskUnits="userSpaceOnUse" x="-134" y="435" width="2196" height="626">
<rect x="2061.59" y="1060.69" width="2195.02" height="625.351" transform="rotate(-180 2061.59 1060.69)" fill="#E3204A"/>
</mask>
<g mask="url(#mask0_111_31)">
</g>
<g opacity="0.5" clip-path="url(#clip0_111_31)">
<path opacity="0.9024" d="M2472.42 953.354C2472.42 953.354 2165.14 1128.36 1756.38 1128.36C1347.62 1128.36 1288.42 873.357 772.524 873.357C256.628 873.357 149.491 1229 -544 1229" stroke="#F4F4F4" stroke-width="0.5185" stroke-miterlimit="10"/>
<path opacity="0.878" d="M2472.42 947.928C2472.42 947.928 2152.44 1135.99 1743.69 1135.99C1334.93 1135.99 1288.39 857.744 772.524 857.744C256.662 857.744 149.491 1214.15 -544 1214.15" stroke="#F4F4F4" stroke-width="0.5124" stroke-miterlimit="10"/>
<path opacity="0.8537" d="M2472.42 942.535C2472.42 942.535 2139.79 1143.61 1730.99 1143.61C1322.2 1143.61 1288.39 842.097 772.491 842.097C256.595 842.097 149.458 1199.34 -544.033 1199.34" stroke="#F4F4F4" stroke-width="0.5063" stroke-miterlimit="10"/>
<path opacity="0.8293" d="M2472.42 937.142C2472.42 937.142 2127.09 1151.27 1718.33 1151.27C1309.57 1151.27 1288.42 826.517 772.524 826.517C256.628 826.517 149.491 1184.56 -544 1184.56" stroke="#F4F4F4" stroke-width="0.5003" stroke-miterlimit="10"/>
<path opacity="0.8049" d="M2472.42 931.716C2472.42 931.716 2114.4 1158.86 1705.64 1158.86C1296.88 1158.86 1288.42 810.871 772.524 810.871C256.628 810.871 149.491 1169.74 -544 1169.74" stroke="#F4F4F4" stroke-width="0.4942" stroke-miterlimit="10"/>
<path opacity="0.7805" d="M2472.42 926.322C2472.42 926.322 2101.71 1166.48 1692.95 1166.48C1284.19 1166.48 1288.42 795.258 772.524 795.258C256.628 795.258 149.491 1154.93 -544 1154.93" stroke="#F4F4F4" stroke-width="0.4881" stroke-miterlimit="10"/>
<path opacity="0.7561" d="M2472.42 920.896C2472.42 920.896 2089.01 1174.1 1680.26 1174.1C1271.5 1174.1 1288.39 779.644 772.524 779.644C256.662 779.644 149.491 1140.11 -544 1140.11" stroke="#F4F4F4" stroke-width="0.482" stroke-miterlimit="10"/>
<path opacity="0.7317" d="M2472.42 915.503C2472.42 915.503 2076.36 1181.73 1667.56 1181.73C1258.77 1181.73 1288.39 763.998 772.491 763.998C256.595 763.998 149.458 1125.27 -544.033 1125.27" stroke="#F4F4F4" stroke-width="0.4759" stroke-miterlimit="10"/>
<path opacity="0.7073" d="M2472.42 910.11C2472.42 910.11 2063.66 1189.38 1654.9 1189.38C1246.14 1189.38 1288.39 748.418 772.491 748.418C256.595 748.418 149.458 1110.52 -544.033 1110.52" stroke="#F4F4F4" stroke-width="0.4699" stroke-miterlimit="10"/>
<path opacity="0.6829" d="M2472.42 904.684C2472.42 904.684 2050.97 1196.97 1642.21 1196.97C1233.45 1196.97 1288.42 732.771 772.524 732.771C256.628 732.771 149.491 1095.67 -544 1095.67" stroke="#F4F4F4" stroke-width="0.4638" stroke-miterlimit="10"/>
<path opacity="0.6585" d="M2472.42 899.291C2472.42 899.291 2038.28 1204.63 1629.52 1204.63C1220.76 1204.63 1288.42 717.191 772.524 717.191C256.628 717.191 149.491 1080.89 -544 1080.89" stroke="#F4F4F4" stroke-width="0.4577" stroke-miterlimit="10"/>
<path opacity="0.6341" d="M2472.42 893.864C2472.42 893.864 2025.59 1212.22 1616.83 1212.22C1208.07 1212.22 1288.39 701.544 772.524 701.544C256.662 701.544 149.491 1066.08 -544 1066.08" stroke="#F4F4F4" stroke-width="0.4516" stroke-miterlimit="10"/>
<path opacity="0.6098" d="M2472.42 888.471C2472.42 888.471 2012.93 1219.88 1604.13 1219.88C1195.34 1219.88 1288.39 685.931 772.491 685.931C256.595 685.931 149.458 1051.26 -544.033 1051.26" stroke="#F4F4F4" stroke-width="0.4455" stroke-miterlimit="10"/>
<path opacity="0.5854" d="M2472.42 883.078C2472.42 883.078 2000.23 1227.5 1591.47 1227.5C1182.72 1227.5 1288.42 670.318 772.524 670.318C256.628 670.318 149.491 1036.45 -544 1036.45" stroke="#F4F4F4" stroke-width="0.4394" stroke-miterlimit="10"/>
<path opacity="0.561" d="M2472.42 877.652C2472.42 877.652 1987.54 1235.13 1578.78 1235.13C1170.02 1235.13 1288.42 654.705 772.524 654.705C256.628 654.705 149.491 1021.63 -544 1021.63" stroke="#F4F4F4" stroke-width="0.4334" stroke-miterlimit="10"/>
<path opacity="0.5366" d="M2472.42 872.259C2472.42 872.259 1974.85 1242.75 1566.09 1242.75C1157.33 1242.75 1288.42 639.091 772.524 639.091C256.628 639.091 149.491 1006.85 -544 1006.85" stroke="#F4F4F4" stroke-width="0.4273" stroke-miterlimit="10"/>
<path opacity="0.5122" d="M2472.42 866.832C2472.42 866.832 1962.16 1250.37 1553.4 1250.37C1144.64 1250.37 1288.39 623.478 772.524 623.478C256.662 623.478 149.491 992.038 -544 992.038" stroke="#F4F4F4" stroke-width="0.4212" stroke-miterlimit="10"/>
<path opacity="0.4878" d="M2472.42 861.439C2472.42 861.439 1949.5 1258 1540.7 1258C1131.91 1258 1288.39 607.865 772.491 607.865C256.595 607.865 149.458 977.224 -544.033 977.224" stroke="#F4F4F4" stroke-width="0.4151" stroke-miterlimit="10"/>
<path opacity="0.4634" d="M2472.42 856.013C2472.42 856.013 1936.8 1265.62 1528.05 1265.62C1119.29 1265.62 1288.39 592.218 772.491 592.218C256.595 592.218 149.458 962.376 -544.033 962.376" stroke="#F4F4F4" stroke-width="0.409" stroke-miterlimit="10"/>
<path opacity="0.439" d="M2472.42 850.62C2472.42 850.62 1924.11 1273.24 1515.35 1273.24C1106.59 1273.24 1288.39 576.605 772.491 576.605C256.595 576.605 149.458 947.595 -544.033 947.595" stroke="#F4F4F4" stroke-width="0.403" stroke-miterlimit="10"/>
<path opacity="0.4146" d="M2472.42 845.227C2472.42 845.227 1911.42 1280.87 1502.66 1280.87C1093.9 1280.87 1288.39 560.992 772.491 560.992C256.595 560.992 149.458 932.781 -544.033 932.781" stroke="#F4F4F4" stroke-width="0.3969" stroke-miterlimit="10"/>
<path opacity="0.3902" d="M2472.42 839.8C2472.42 839.8 1898.73 1288.49 1489.97 1288.49C1081.21 1288.49 1288.39 545.378 772.491 545.378C256.595 545.378 149.458 917.966 -544.033 917.966" stroke="#F4F4F4" stroke-width="0.3908" stroke-miterlimit="10"/>
<path opacity="0.3659" d="M2472.42 834.407C2472.42 834.407 1886.07 1296.11 1477.28 1296.11C1068.48 1296.11 1288.39 529.765 772.491 529.765C256.595 529.765 149.458 903.185 -544.033 903.185" stroke="#F4F4F4" stroke-width="0.3847" stroke-miterlimit="10"/>
<path opacity="0.3415" d="M2472.42 828.981C2472.42 828.981 1873.38 1303.74 1464.62 1303.74C1055.86 1303.74 1288.39 514.152 772.491 514.152C256.595 514.152 149.458 888.371 -544.033 888.371" stroke="#F4F4F4" stroke-width="0.3786" stroke-miterlimit="10"/>
<path opacity="0.3171" d="M2472.42 823.588C2472.42 823.588 1860.68 1311.36 1451.92 1311.36C1043.16 1311.36 1288.39 498.505 772.491 498.505C256.595 498.505 149.458 873.524 -544.033 873.524" stroke="#F4F4F4" stroke-width="0.3725" stroke-miterlimit="10"/>
<path opacity="0.2927" d="M2472.42 818.195C2472.42 818.195 1847.99 1319.02 1439.23 1319.02C1030.47 1319.02 1288.39 482.892 772.491 482.892C256.595 482.892 149.458 858.709 -544.033 858.709" stroke="#F4F4F4" stroke-width="0.3665" stroke-miterlimit="10"/>
<path opacity="0.2683" d="M2472.42 812.768C2472.42 812.768 1835.3 1326.61 1426.54 1326.61C1017.78 1326.61 1288.39 467.279 772.491 467.279C256.595 467.279 149.458 843.928 -544.033 843.928" stroke="#F4F4F4" stroke-width="0.3604" stroke-miterlimit="10"/>
<path opacity="0.2439" d="M2472.42 807.375C2472.42 807.375 1822.64 1334.27 1413.85 1334.27C1005.05 1334.27 1288.39 451.665 772.491 451.665C256.595 451.665 149.458 829.114 -544.033 829.114" stroke="#F4F4F4" stroke-width="0.3543" stroke-miterlimit="10"/>
<path opacity="0.2195" d="M2472.42 801.949C2472.42 801.949 1809.95 1341.86 1401.15 1341.86C992.361 1341.86 1288.39 436.019 772.491 436.019C256.595 436.019 149.458 814.266 -544.033 814.266" stroke="#F4F4F4" stroke-width="0.3482" stroke-miterlimit="10"/>
<path opacity="0.1951" d="M2472.42 796.556C2472.42 796.556 1797.25 1349.51 1388.49 1349.51C979.735 1349.51 1288.42 420.439 772.524 420.439C256.628 420.439 149.491 799.485 -544 799.485" stroke="#F4F4F4" stroke-width="0.3421" stroke-miterlimit="10"/>
<path opacity="0.1707" d="M2472.42 791.163C2472.42 791.163 1784.56 1357.14 1375.8 1357.14C967.043 1357.14 1288.39 404.826 772.491 404.826C256.595 404.826 149.458 784.704 -544.033 784.704" stroke="#F4F4F4" stroke-width="0.3361" stroke-miterlimit="10"/>
<path opacity="0.1463" d="M2472.42 785.736C2472.42 785.736 1771.87 1364.76 1363.11 1364.76C954.35 1364.76 1288.39 389.212 772.491 389.212C256.595 389.212 149.458 769.89 -544.033 769.89" stroke="#F4F4F4" stroke-width="0.33" stroke-miterlimit="10"/>
<path opacity="0.122" d="M2472.42 780.343C2472.42 780.343 1759.21 1372.38 1350.42 1372.38C941.625 1372.38 1288.39 373.566 772.491 373.566C256.595 373.566 149.491 755.076 -544 755.076" stroke="#F4F4F4" stroke-width="0.3239" stroke-miterlimit="10"/>
<path opacity="0.0976" d="M2472.42 774.917C2472.42 774.917 1746.52 1379.97 1337.72 1379.97C928.932 1379.97 1288.39 357.952 772.491 357.952C256.595 357.952 149.458 740.261 -544.033 740.261" stroke="#F4F4F4" stroke-width="0.3178" stroke-miterlimit="10"/>
<path opacity="0.0732" d="M2472.42 769.524C2472.42 769.524 1733.82 1387.63 1325.07 1387.63C916.306 1387.63 1288.42 342.339 772.524 342.339C256.628 342.339 149.491 725.447 -544 725.447" stroke="#F4F4F4" stroke-width="0.3117" stroke-miterlimit="10"/>
<path opacity="0.0488" d="M2472.42 764.097C2472.42 764.097 1721.13 1395.22 1312.37 1395.22C903.613 1395.22 1288.39 326.726 772.491 326.726C256.595 326.726 149.458 710.633 -544.033 710.633" stroke="#F4F4F4" stroke-width="0.3056" stroke-miterlimit="10"/>
<path opacity="0.0244" d="M2472.42 758.704C2472.42 758.704 1708.44 1402.88 1299.68 1402.88C890.921 1402.88 1288.39 311.113 772.491 311.113C256.595 311.113 149.491 695.818 -544 695.818" stroke="#F4F4F4" stroke-width="0.2996" stroke-miterlimit="10"/>
</g>
</g>
<g opacity="0.8">
<mask id="mask1_111_31" style="mask-type:alpha" maskUnits="userSpaceOnUse" x="-1091" y="-129" width="2196" height="626">
<rect x="-1090.74" y="-128.69" width="2195.02" height="625.351" fill="#E3204A"/>
</mask>
<g mask="url(#mask1_111_31)">
</g>
<g opacity="0.5" clip-path="url(#clip1_111_31)">
<path opacity="0.9756" d="M-1501.57 -37.567C-1501.57 -37.567 -1232.36 -173.492 -823.566 -173.492C-414.807 -173.492 -317.531 11.803 198.365 11.803C714.261 11.803 821.398 -341.41 1514.89 -341.41" stroke="#F4F4F4" stroke-width="0.5368" stroke-miterlimit="10"/>
<path opacity="0.9512" d="M-1501.57 -32.1739C-1501.57 -32.1739 -1219.67 -181.116 -810.907 -181.116C-402.148 -181.116 -317.565 27.4163 198.331 27.4163C714.227 27.4163 821.364 -326.596 1514.86 -326.596" stroke="#F4F4F4" stroke-width="0.5307" stroke-miterlimit="10"/>
<path opacity="0.9268" d="M-1501.57 -26.7475C-1501.57 -26.7475 -1206.97 -188.739 -798.215 -188.739C-389.456 -188.739 -317.565 43.0295 198.331 43.0295C714.227 43.0295 821.364 -311.781 1514.86 -311.781" stroke="#F4F4F4" stroke-width="0.5246" stroke-miterlimit="10"/>
<path opacity="0.9024" d="M-1501.57 -21.3544C-1501.57 -21.3544 -1194.28 -196.363 -785.522 -196.363C-376.763 -196.363 -317.565 58.6428 198.331 58.6428C714.227 58.6428 821.364 -297 1514.86 -297" stroke="#F4F4F4" stroke-width="0.5185" stroke-miterlimit="10"/>
<path opacity="0.878" d="M-1501.57 -15.9281C-1501.57 -15.9281 -1181.59 -203.987 -772.83 -203.987C-364.071 -203.987 -317.531 74.2561 198.331 74.2561C714.194 74.2561 821.364 -282.153 1514.86 -282.153" stroke="#F4F4F4" stroke-width="0.5124" stroke-miterlimit="10"/>
<path opacity="0.8537" d="M-1501.57 -10.535C-1501.57 -10.535 -1168.93 -211.61 -760.137 -211.61C-351.345 -211.61 -317.531 89.9027 198.365 89.9027C714.261 89.9027 821.398 -267.338 1514.89 -267.338" stroke="#F4F4F4" stroke-width="0.5063" stroke-miterlimit="10"/>
<path opacity="0.8293" d="M-1501.57 -5.1419C-1501.57 -5.1419 -1156.24 -219.267 -747.478 -219.267C-338.719 -219.267 -317.565 105.483 198.331 105.483C714.227 105.483 821.364 -252.557 1514.86 -252.557" stroke="#F4F4F4" stroke-width="0.5003" stroke-miterlimit="10"/>
<path opacity="0.8049" d="M-1501.57 0.2844C-1501.57 0.2844 -1143.54 -226.857 -734.785 -226.857C-326.026 -226.857 -317.565 121.129 198.331 121.129C714.227 121.129 821.364 -237.743 1514.86 -237.743" stroke="#F4F4F4" stroke-width="0.4942" stroke-miterlimit="10"/>
<path opacity="0.7805" d="M-1501.57 5.67756C-1501.57 5.67756 -1130.85 -234.481 -722.093 -234.481C-313.334 -234.481 -317.565 136.743 198.331 136.743C714.227 136.743 821.364 -222.929 1514.86 -222.929" stroke="#F4F4F4" stroke-width="0.4881" stroke-miterlimit="10"/>
<path opacity="0.7561" d="M-1501.57 11.1039C-1501.57 11.1039 -1118.16 -242.104 -709.4 -242.104C-300.641 -242.104 -317.531 152.356 198.331 152.356C714.194 152.356 821.364 -208.115 1514.86 -208.115" stroke="#F4F4F4" stroke-width="0.482" stroke-miterlimit="10"/>
<path opacity="0.7317" d="M-1501.57 16.4969C-1501.57 16.4969 -1105.5 -249.728 -696.708 -249.728C-287.915 -249.728 -317.531 168.002 198.365 168.002C714.261 168.002 821.398 -193.267 1514.89 -193.267" stroke="#F4F4F4" stroke-width="0.4759" stroke-miterlimit="10"/>
<path opacity="0.7073" d="M-1501.57 21.8901C-1501.57 21.8901 -1092.81 -257.385 -684.049 -257.385C-275.29 -257.385 -317.531 183.582 198.365 183.582C714.261 183.582 821.398 -178.519 1514.89 -178.519" stroke="#F4F4F4" stroke-width="0.4699" stroke-miterlimit="10"/>
<path opacity="0.6829" d="M-1501.57 27.3165C-1501.57 27.3165 -1080.12 -264.975 -671.356 -264.975C-262.597 -264.975 -317.565 199.229 198.331 199.229C714.227 199.229 821.364 -163.672 1514.86 -163.672" stroke="#F4F4F4" stroke-width="0.4638" stroke-miterlimit="10"/>
<path opacity="0.6585" d="M-1501.57 32.7095C-1501.57 32.7095 -1067.42 -272.632 -658.664 -272.632C-249.905 -272.632 -317.565 214.809 198.331 214.809C714.227 214.809 821.364 -148.891 1514.86 -148.891" stroke="#F4F4F4" stroke-width="0.4577" stroke-miterlimit="10"/>
<path opacity="0.6341" d="M-1501.57 38.1359C-1501.57 38.1359 -1054.73 -280.222 -645.971 -280.222C-237.212 -280.222 -317.531 230.456 198.331 230.456C714.194 230.456 821.364 -134.076 1514.86 -134.076" stroke="#F4F4F4" stroke-width="0.4516" stroke-miterlimit="10"/>
<path opacity="0.6098" d="M-1501.57 43.529C-1501.57 43.529 -1042.07 -287.879 -633.279 -287.879C-224.486 -287.879 -317.531 246.069 198.365 246.069C714.261 246.069 821.398 -119.262 1514.89 -119.262" stroke="#F4F4F4" stroke-width="0.4455" stroke-miterlimit="10"/>
<path opacity="0.5854" d="M-1501.57 48.922C-1501.57 48.922 -1029.38 -295.502 -620.619 -295.502C-211.86 -295.502 -317.565 261.682 198.331 261.682C714.227 261.682 821.364 -104.448 1514.86 -104.448" stroke="#F4F4F4" stroke-width="0.4394" stroke-miterlimit="10"/>
<path opacity="0.561" d="M-1501.57 54.3484C-1501.57 54.3484 -1016.69 -303.126 -607.927 -303.126C-199.168 -303.126 -317.565 277.295 198.331 277.295C714.227 277.295 821.364 -89.6334 1514.86 -89.6334" stroke="#F4F4F4" stroke-width="0.4334" stroke-miterlimit="10"/>
<path opacity="0.5366" d="M-1501.57 59.7415C-1501.57 59.7415 -1003.99 -310.749 -595.234 -310.749C-186.475 -310.749 -317.565 292.909 198.331 292.909C714.227 292.909 821.364 -74.8524 1514.86 -74.8524" stroke="#F4F4F4" stroke-width="0.4273" stroke-miterlimit="10"/>
<path opacity="0.5122" d="M-1501.57 65.1678C-1501.57 65.1678 -991.301 -318.373 -582.542 -318.373C-173.783 -318.373 -317.531 308.522 198.331 308.522C714.194 308.522 821.364 -60.0381 1514.86 -60.0381" stroke="#F4F4F4" stroke-width="0.4212" stroke-miterlimit="10"/>
<path opacity="0.4878" d="M-1501.57 70.5609C-1501.57 70.5609 -978.642 -325.996 -569.849 -325.996C-161.057 -325.996 -317.531 324.135 198.365 324.135C714.261 324.135 821.398 -45.2237 1514.89 -45.2237" stroke="#F4F4F4" stroke-width="0.4151" stroke-miterlimit="10"/>
<path opacity="0.4634" d="M-1501.57 75.9873C-1501.57 75.9873 -965.949 -333.62 -557.19 -333.62C-148.431 -333.62 -317.531 339.782 198.365 339.782C714.261 339.782 821.398 -30.3761 1514.89 -30.3761" stroke="#F4F4F4" stroke-width="0.409" stroke-miterlimit="10"/>
<path opacity="0.439" d="M-1501.57 81.3804C-1501.57 81.3804 -953.257 -341.243 -544.498 -341.243C-135.738 -341.243 -317.531 355.395 198.365 355.395C714.261 355.395 821.398 -15.5951 1514.89 -15.5951" stroke="#F4F4F4" stroke-width="0.403" stroke-miterlimit="10"/>
<path opacity="0.4146" d="M-1501.57 86.7734C-1501.57 86.7734 -940.564 -348.867 -531.805 -348.867C-123.046 -348.867 -317.531 371.008 198.365 371.008C714.261 371.008 821.398 -0.780828 1514.89 -0.780828" stroke="#F4F4F4" stroke-width="0.3969" stroke-miterlimit="10"/>
<path opacity="0.3902" d="M-1501.57 92.1998C-1501.57 92.1998 -927.872 -356.49 -519.112 -356.49C-110.353 -356.49 -317.531 386.622 198.365 386.622C714.261 386.622 821.398 14.0335 1514.89 14.0335" stroke="#F4F4F4" stroke-width="0.3908" stroke-miterlimit="10"/>
<path opacity="0.3659" d="M-1501.57 97.5929C-1501.57 97.5929 -915.212 -364.114 -506.42 -364.114C-97.6275 -364.114 -317.531 402.235 198.365 402.235C714.261 402.235 821.398 28.8145 1514.89 28.8145" stroke="#F4F4F4" stroke-width="0.3847" stroke-miterlimit="10"/>
<path opacity="0.3415" d="M-1501.57 103.019C-1501.57 103.019 -902.52 -371.738 -493.761 -371.738C-85.0017 -371.738 -317.531 417.848 198.365 417.848C714.261 417.848 821.398 43.6289 1514.89 43.6289" stroke="#F4F4F4" stroke-width="0.3786" stroke-miterlimit="10"/>
<path opacity="0.3171" d="M-1501.57 108.412C-1501.57 108.412 -889.827 -379.361 -481.068 -379.361C-72.3092 -379.361 -317.531 433.495 198.365 433.495C714.261 433.495 821.398 58.4765 1514.89 58.4765" stroke="#F4F4F4" stroke-width="0.3725" stroke-miterlimit="10"/>
<path opacity="0.2927" d="M-1501.57 113.805C-1501.57 113.805 -877.135 -387.018 -468.376 -387.018C-59.6166 -387.018 -317.531 449.108 198.365 449.108C714.261 449.108 821.398 73.2907 1514.89 73.2907" stroke="#F4F4F4" stroke-width="0.3665" stroke-miterlimit="10"/>
<path opacity="0.2683" d="M-1501.57 119.232C-1501.57 119.232 -864.442 -394.608 -455.683 -394.608C-46.9241 -394.608 -317.531 464.721 198.365 464.721C714.261 464.721 821.398 88.0717 1514.89 88.0717" stroke="#F4F4F4" stroke-width="0.3604" stroke-miterlimit="10"/>
<path opacity="0.2439" d="M-1501.57 124.625C-1501.57 124.625 -851.783 -402.265 -442.991 -402.265C-34.1982 -402.265 -317.531 480.335 198.365 480.335C714.261 480.335 821.398 102.886 1514.89 102.886" stroke="#F4F4F4" stroke-width="0.3543" stroke-miterlimit="10"/>
<path opacity="0.2195" d="M-1501.57 130.051C-1501.57 130.051 -839.091 -409.855 -430.298 -409.855C-21.5057 -409.855 -317.531 495.981 198.365 495.981C714.261 495.981 821.398 117.734 1514.89 117.734" stroke="#F4F4F4" stroke-width="0.3482" stroke-miterlimit="10"/>
<path opacity="0.1951" d="M-1501.57 135.444C-1501.57 135.444 -826.398 -417.512 -417.639 -417.512C-8.87995 -417.512 -317.565 511.561 198.331 511.561C714.227 511.561 821.364 132.515 1514.86 132.515" stroke="#F4F4F4" stroke-width="0.3421" stroke-miterlimit="10"/>
<path opacity="0.1707" d="M-1501.57 140.837C-1501.57 140.837 -813.706 -425.136 -404.946 -425.136C3.81267 -425.136 -317.531 527.174 198.365 527.174C714.261 527.174 821.398 147.296 1514.89 147.296" stroke="#F4F4F4" stroke-width="0.3361" stroke-miterlimit="10"/>
<path opacity="0.1463" d="M-1501.57 146.264C-1501.57 146.264 -801.013 -432.759 -392.254 -432.759C16.5052 -432.759 -317.531 542.788 198.365 542.788C714.261 542.788 821.398 162.11 1514.89 162.11" stroke="#F4F4F4" stroke-width="0.33" stroke-miterlimit="10"/>
<path opacity="0.122" d="M-1501.57 151.657C-1501.57 151.657 -788.354 -440.383 -379.562 -440.383C29.2309 -440.383 -317.531 558.434 198.365 558.434C714.261 558.434 821.364 176.924 1514.86 176.924" stroke="#F4F4F4" stroke-width="0.3239" stroke-miterlimit="10"/>
<path opacity="0.0976" d="M-1501.57 157.083C-1501.57 157.083 -775.661 -447.973 -366.869 -447.973C41.9235 -447.973 -317.531 574.048 198.365 574.048C714.261 574.048 821.398 191.739 1514.89 191.739" stroke="#F4F4F4" stroke-width="0.3178" stroke-miterlimit="10"/>
<path opacity="0.0732" d="M-1501.57 162.476C-1501.57 162.476 -762.969 -455.63 -354.21 -455.63C54.5494 -455.63 -317.565 589.661 198.331 589.661C714.227 589.661 821.364 206.553 1514.86 206.553" stroke="#F4F4F4" stroke-width="0.3117" stroke-miterlimit="10"/>
<path opacity="0.0488" d="M-1501.57 167.903C-1501.57 167.903 -750.276 -463.22 -341.517 -463.22C67.242 -463.22 -317.531 605.274 198.365 605.274C714.261 605.274 821.398 221.367 1514.89 221.367" stroke="#F4F4F4" stroke-width="0.3056" stroke-miterlimit="10"/>
<path opacity="0.0244" d="M-1501.57 173.296C-1501.57 173.296 -737.584 -470.877 -328.825 -470.877C79.9344 -470.877 -317.531 620.887 198.365 620.887C714.261 620.887 821.364 236.182 1514.86 236.182" stroke="#F4F4F4" stroke-width="0.2996" stroke-miterlimit="10"/>
</g>
</g>
<defs>
<clipPath id="clip0_111_31">
<rect width="3016.86" height="1116" fill="white" transform="matrix(-1 0 0 1 2472.86 295)"/>
</clipPath>
<clipPath id="clip1_111_31">
<rect width="3016.86" height="1116" fill="white" transform="matrix(1 0 0 -1 -1502 637)"/>
</clipPath>
</defs>
</svg>
