<?xml version="1.0" encoding="utf-8"?>
<!-- Generator: Adobe Illustrator 25.2.1, SVG Export Plug-In . SVG Version: 6.00 Build 0)  -->
<svg version="1.1" id="Layer_1" xmlns="http://www.w3.org/2000/svg" xmlns:xlink="http://www.w3.org/1999/xlink" x="0px" y="0px"
	 viewBox="0 0 352 110" style="enable-background:new 0 0 352 110;" xml:space="preserve">
<style type="text/css">
	.st0{display:none;}
	.st1{display:inline;}
	.st2{fill:#FFFFFF;}
	.st3{display:inline;fill:none;stroke:#606060;stroke-miterlimit:10;}
</style>
<g id="Layer_1_1_" class="st0">
	<g class="st1">
		<rect x="315" y="13.5" class="st2" width="2.5" height="41.6"/>
		<rect x="273.4" y="13.5" class="st2" width="2.5" height="41.6"/>
		<rect x="231.8" y="13.5" class="st2" width="2.5" height="41.6"/>
		<polygon class="st2" points="153.7,13.5 153.7,55.1 192.8,55.1 192.8,52.6 156.2,52.6 156.2,16 192.8,16 192.8,13.5 		"/>
		<polygon class="st2" points="34,13.5 34,16 70.6,16 70.6,52.6 34,52.6 34,55.1 73.1,55.1 73.1,13.5 		"/>
		<rect x="112.1" y="13.5" class="st2" width="2.5" height="41.6"/>
		<rect x="114.6" y="61.3" class="st2" width="6.2" height="2.5"/>
		<rect x="105.9" y="61.3" class="st2" width="6.2" height="2.5"/>
		<path class="st2" d="M41.3,86.8c-3.9-0.8-4.6-1.8-4.6-3.3s1.5-2.7,3.6-2.7c1.8,0,3.6,0.7,5,1.8l1.1-1.6c-1.7-1.4-3.9-2.2-6.1-2.1
			c-3.3,0-5.7,2-5.7,4.8s1.6,4.1,5.8,5c3.7,0.8,4.4,1.7,4.4,3.3s-1.6,2.9-3.8,2.9s-4.3-0.8-5.9-2.4L34,93.9c1.9,1.8,4.5,2.8,7.1,2.8
			c3.5,0,5.9-2,5.9-5C47,89.1,45.3,87.6,41.3,86.8"/>
		<path class="st2" d="M308.9,94.4H305V81.1h3.9c3.7,0,6.7,3,6.7,6.7l0,0C315.5,91.4,312.5,94.3,308.9,94.4 M308.9,79.2H303v17.2
			h5.9c4.7,0,8.6-3.9,8.6-8.6S313.6,79.2,308.9,79.2"/>
		<path class="st2" d="M109.6,90.1l3.8-8.5l3.8,8.5H109.6z M112.3,79.2l-7.7,17.2h2.1l1.9-4.3h9.4l1.9,4.3h2.1l-7.7-17.2H112.3z"/>
		<polygon class="st2" points="174.5,96.3 186.4,96.3 186.4,94.4 176.4,94.4 176.4,88.7 185.7,88.7 185.7,86.8 176.4,86.8 
			176.4,81.1 186.4,81.1 186.4,79.2 174.5,79.2 		"/>
		<polygon class="st2" points="238.7,96.3 250.6,96.3 250.6,94.4 240.7,94.4 240.7,88.7 250,88.7 250,86.8 240.7,86.8 240.7,81.1 
			250.6,81.1 250.6,79.2 238.7,79.2 		"/>
	</g>
</g>
<g id="Layer_2_1_">
	<path class="st2" d="M75.9,85.4v-6.6h-0.6v7h4l-0.2-0.5L75.9,85.4L75.9,85.4z M93.6,79.7c-0.3-0.4-0.7-0.6-1.2-0.7
		c-0.4-0.2-1-0.3-1.5-0.2c-0.5,0-1,0.1-1.5,0.2c-0.4,0.2-0.8,0.4-1.2,0.7c-0.3,0.4-0.6,0.7-0.9,1.1c-0.2,0.4-0.3,1-0.2,1.5
		c0,0.5,0.1,1,0.2,1.5c0.1,0.4,0.4,0.8,0.9,1.1c0.3,0.4,0.7,0.6,1.2,0.7c0.4,0.2,1,0.3,1.5,0.2c0.5,0,1-0.1,1.5-0.2
		c0.4-0.2,0.8-0.4,1.2-0.7c0.3-0.4,0.6-0.7,0.8-1.1c0.2-0.4,0.3-1,0.2-1.5c0-0.5-0.1-1-0.2-1.5C94.2,80.4,93.9,80.1,93.6,79.7z
		 M93.9,83.5c-0.1,0.4-0.4,0.7-0.6,1c-0.3,0.3-0.6,0.4-1,0.6c-0.4,0.1-0.8,0.2-1.2,0.2c-0.4,0-0.8-0.1-1.3-0.2
		c-0.4-0.1-0.7-0.4-1-0.6c-0.3-0.3-0.5-0.6-0.7-1c-0.1-0.4-0.2-0.8-0.2-1.2c0-0.4,0.1-0.8,0.2-1.2c0.1-0.4,0.4-0.7,0.7-1
		c0.3-0.3,0.6-0.4,1-0.6s0.8-0.2,1.3-0.2s0.8,0.1,1.2,0.2c0.4,0.1,0.7,0.4,1,0.6c0.3,0.3,0.5,0.6,0.6,1c0.1,0.4,0.2,0.8,0.2,1.2
		S94,83.2,93.9,83.5L93.9,83.5z M109,84.8l-5.5-6.1l-0.4-0.2v7.2h0.6v-6.1l5.5,6.1l0.4,0.2v-7.2H109V84.8z M124.1,79.9
		c-0.3-0.4-0.7-0.7-1.2-0.9c-0.6-0.3-1.2-0.4-1.8-0.4h-2.4v7h2.5c0.6,0,1.3-0.1,1.8-0.4c0.4-0.2,0.9-0.5,1.3-0.9
		c0.2-0.4,0.4-0.7,0.6-1.1c0.1-0.4,0.2-0.8,0.2-1.2c0-0.4-0.1-0.7-0.1-1.2C124.6,80.6,124.3,80.3,124.1,79.9L124.1,79.9z M124,83.5
		c-0.1,0.4-0.4,0.7-0.7,1c-0.3,0.3-0.6,0.4-1,0.6s-0.8,0.2-1.2,0.2H119v-6.1h1.9c0.4,0,0.9,0.1,1.3,0.2c0.4,0.1,0.7,0.4,1,0.6
		c0.3,0.3,0.4,0.6,0.6,1c0.1,0.4,0.2,0.8,0.2,1.2C124.2,82.8,124.1,83.2,124,83.5L124,83.5z M139.5,79.7c-0.3-0.4-0.7-0.6-1.2-0.7
		c-0.4-0.2-1-0.3-1.5-0.2c-0.5,0-1,0.1-1.5,0.2c-0.4,0.2-0.8,0.4-1.2,0.7c-0.3,0.4-0.6,0.7-0.9,1.1c-0.2,0.4-0.3,1-0.2,1.5
		c0,0.5,0.1,1,0.2,1.5c0.2,0.4,0.4,0.8,0.9,1.1c0.3,0.4,0.7,0.6,1.2,0.7c0.4,0.2,1,0.3,1.5,0.2c0.5,0,1-0.1,1.5-0.2
		c0.4-0.2,0.8-0.4,1.2-0.7c0.3-0.4,0.6-0.7,0.9-1.1c0.2-0.4,0.3-1,0.2-1.5c0-0.5-0.1-1-0.2-1.5C140.1,80.3,139.8,80,139.5,79.7
		L139.5,79.7z M139.7,83.5c-0.1,0.4-0.4,0.7-0.6,1c-0.3,0.3-0.6,0.4-1,0.6c-0.4,0.1-0.8,0.2-1.2,0.2c-0.4,0-0.8-0.1-1.2-0.2
		c-0.4-0.1-0.7-0.3-1-0.6c-0.3-0.3-0.5-0.6-0.7-1c-0.1-0.4-0.2-0.8-0.2-1.2c0-0.4,0.1-0.8,0.2-1.2c0.1-0.4,0.4-0.7,0.7-1
		c0.3-0.3,0.6-0.4,1-0.6c0.4-0.1,0.8-0.2,1.2-0.2c0.4,0,0.8,0.1,1.2,0.2c0.4,0.1,0.7,0.4,1,0.6c0.3,0.3,0.4,0.6,0.6,1
		c0.1,0.4,0.2,0.8,0.2,1.2C139.9,82.8,139.9,83.2,139.7,83.5L139.7,83.5z M155,84.8l-5.5-6.1l-0.4-0.3v7.2h0.6v-6.1l5.5,6.1l0.4,0.2
		v-7.2H155V84.8z M21.6,44.1c-0.5-0.7-1.2-1.5-1.9-2.1c-0.7-0.5-1.4-1-2.2-1.5c-1.8-0.9-3.9-1.5-6-1.7c1.4-0.1,2.7-0.4,4-1
		c0.5-0.2,1-0.5,1.5-0.9c0.5-0.4,1-0.7,1.3-1.2c0.4-0.5,0.7-1,1-1.6c0.2-0.7,0.4-1.3,0.4-2.1c0-1-0.2-1.9-0.6-2.8
		c-0.4-0.9-1-1.7-1.8-2.3c-1-0.7-2-1.3-3.2-1.6c-1.3-0.4-2.8-0.6-4.3-0.6H0v0.5l3.3,1.1v34.8L0,62.2v0.5h9.7c1.9,0,3.8-0.3,5.7-1
		c1.6-0.5,3.1-1.4,4.4-2.5c1.3-1,2.2-2.4,2.8-3.9c0.7-1.5,1-3.1,1-4.7c0-1.3-0.1-2.4-0.5-3.6C22.7,45.9,22.2,45,21.6,44.1L21.6,44.1
		z M7.9,26.2h1.9c1.5-0.1,2.9,0.5,3.9,1.6c1,1.3,1.6,3,1.5,4.6c0.1,1.7-0.4,3.3-1.5,4.6c-1,1-2.4,1.6-3.9,1.6H7.9
		C7.9,38.5,7.9,26.2,7.9,26.2z M17.7,55.3c-0.4,1.3-1,2.4-1.8,3.4c-0.7,0.9-1.6,1.6-2.7,2.1c-1,0.5-2.2,0.7-3.4,0.7H7.9V39.7h1.9
		c1.2,0,2.4,0.3,3.4,0.7c1,0.4,1.9,1.2,2.7,2.1c0.7,1,1.4,2.2,1.8,3.4c0.5,1.6,0.8,3.1,0.7,4.7C18.4,52.2,18.1,53.8,17.7,55.3
		L17.7,55.3z M49.3,55.4c0-0.5,0.1-1,0.1-1.5H49c-1,1-1.7,2.1-2.3,3.2c-0.6,1.3-1,2.7-1,4.1H34.9V43.2H40l2.4,4.9H43V37.4h-0.5
		L40,42.2h-5.1V26.2h10.2c0,1.4,0.4,2.8,1,4.1c0.5,1.3,1.3,2.4,2.3,3.2h0.5c-0.1-0.4-0.1-1-0.1-1.5c0-0.5-0.1-0.9-0.1-1.3v-3.2
		c0-0.4,0-0.9,0.1-1.3c0-0.5,0.1-0.9,0.1-1.1H27v0.5l3.2,0.9v34.8L27,62.2v0.5h22.3c0.1-0.4,0.1-0.7,0-1.1c0-0.4-0.1-0.9-0.1-1.3V57
		C49.3,56.4,49.4,55.9,49.3,55.4L49.3,55.4z M75.4,61.4c0-0.4-0.1-0.9-0.1-1.3v-3.2c0-0.4,0-0.9,0.1-1.3c0-0.5,0.1-1,0.1-1.5H75
		c-0.9,1-1.7,2.1-2.2,3.3c-0.6,1.3-0.9,2.7-1,4.1h-9.7V26.6l3.2-0.9v-0.6h-11v0.5l3.2,0.9v34.8l-3.2,0.9v0.5h21.2
		C75.5,62.2,75.5,61.8,75.4,61.4L75.4,61.4z M92,45.5h5.3v2.9c0,2.3-0.1,4.6-0.6,6.8c-0.3,1.6-0.7,3-1.5,4.4c-0.5,1-1.2,1.7-2.1,2.3
		c-0.7,0.4-1.6,0.7-2.4,0.7s-1.8-0.3-2.5-0.9c-1-0.8-1.8-1.8-2.3-3c-0.9-1.8-1.4-3.7-1.7-5.7c-0.5-3-0.8-6.1-0.7-9.1
		c-0.1-3,0.2-6,0.7-9c0.4-2,1-3.9,1.8-5.8c1-2.3,3.2-3.8,5.7-3.8c1.8,0.1,3.5,0.9,4.5,2.3c1.6,2,2.7,4.3,3.2,6.8h0.8
		c-0.1-0.6-0.1-1.1-0.2-1.7c0-0.5-0.1-1.1-0.1-1.6v-3.4c0-0.5,0-1,0.1-1.6c0-0.5,0.1-1.1,0.1-1.6h-0.9c-0.6,0.2-1.1,0.4-1.6,0.9
		s-0.8,1-1.2,1.5c-0.4-0.4-1-1-1.5-1.3c-0.6-0.4-1.2-0.7-1.8-0.9c-0.7-0.3-1.6-0.4-2.3-0.5c-1.6,0-3.2,0.4-4.6,1.2
		c-1.6,1-3,2.1-4.1,3.6c-1.3,1.8-2.3,3.9-2.9,6.1c-0.7,2.8-1.1,5.7-1.1,8.6c-0.1,2.9,0.3,5.8,1.1,8.6c0.6,2.1,1.6,4.2,2.9,6.1
		c1.1,1.5,2.4,2.7,4,3.6c1.3,0.8,2.8,1.2,4.4,1.2c1.4,0,2.8-0.4,4.1-1c1.4-0.7,2.6-1.6,3.5-2.9c1.1-1.4,1.9-3,2.4-4.7
		c0.7-2.1,1-4.3,1-6.4v-4h-10v1.1L92,45.5L92,45.5z M132.9,60.4c-0.1,0.2-0.4,0.5-0.5,0.7c-0.1,0.2-0.4,0.4-0.6,0.5
		s-0.4,0.2-0.6,0.2c-0.4,0-0.7-0.1-0.9-0.5c-0.3-0.4-0.4-1-0.5-1.5l-1-9.3c-0.1-1.5-0.7-2.9-1.7-3.8c-0.9-0.9-2-1.6-3.2-2.2
		c-1.3-0.6-2.8-1-4.2-1.1c1.8-0.1,3.5-0.6,5.2-1.3c0.7-0.3,1.3-0.7,1.9-1.1s1.2-1,1.7-1.6c0.5-0.7,0.9-1.4,1.2-2.2
		c0.4-0.9,0.5-1.8,0.5-2.8c0-1.3-0.3-2.5-0.9-3.6c-0.6-1.2-1.4-2.1-2.4-2.9c-1.3-1-2.7-1.6-4.2-2.1c-1.9-0.5-3.9-0.8-5.9-0.7h-10
		v0.5l3.2,0.9v34.8l-3.2,0.9v0.5h11v-0.5l-3.2-0.9V43.9h2.2c1,0,2.1,0.1,3.2,0.4c0.8,0.2,1.6,0.7,2.2,1.3c0.6,0.6,1,1.3,1.3,2.1
		c0.4,1,0.7,2,0.7,3l1.1,9.3c0.1,1,0.6,1.8,1.3,2.4c0.8,0.7,1.9,1.1,3,1.1c0.6,0,1.3-0.1,1.8-0.4c0.4-0.1,0.9-0.4,1.2-0.9
		c0.4-0.4,0.7-0.7,1-1.2L132.9,60.4z M114.6,42.8V26.2h2.2c2.7,0,4.7,0.7,6.2,2.2c1.5,1.5,2.2,3.5,2.2,6.2s-0.7,4.7-2.2,6.2
		c-1.5,1.5-3.5,2.2-6.2,2.2h-2.2V42.8z M148.6,24.4h-0.9l-10.6,36.4l-3.5,1.3v0.5h8.1v-0.5l-3.5-1.3l2.7-9.1h11l2.9,9.6l-3.2,0.9
		v0.5h11.3v-0.5l-3.2-0.9L148.6,24.4z M141.3,50.6l5.1-17.7l5.3,17.7H141.3z M179,25.8l3.5,1.3l-7.6,27.5l-8.6-28l3.2-0.9v-0.6
		h-11.3v0.5l3.2,0.9l11.3,36.8h0.9l9.9-36.4l3.5-1.3v-0.5H179L179,25.8L179,25.8z M188.3,25.8l3.2,0.9v34.8l-3.2,0.9v0.5h11v-0.5
		l-3.3-0.9V26.6l3.2-0.9v-0.6h-11L188.3,25.8L188.3,25.8z M227.6,61.3l-11.3-36.8h-0.8l-10.6,36.4l-3.5,1.3v0.5h8.1v-0.5l-3.5-1.3
		l2.7-9.1h11l2.9,9.6l-3.2,0.8v0.5h11.3v-0.5L227.6,61.3z M209,50.6l5.1-17.7l5.4,17.7H209z"/>
</g>
<g id="Layer_3" class="st0">
	<rect x="34" y="13.5" class="st3" width="283.5" height="83.2"/>
</g>
</svg>
