<?xml version="1.0" encoding="utf-8"?>
<!-- Generator: Adobe Illustrator 25.2.1, SVG Export Plug-In . SVG Version: 6.00 Build 0)  -->
<svg version="1.1" id="Layer_1" xmlns="http://www.w3.org/2000/svg" xmlns:xlink="http://www.w3.org/1999/xlink" x="0px" y="0px"
	 viewBox="0 0 352 110" style="enable-background:new 0 0 352 110;" xml:space="preserve">
<style type="text/css">
	.st0{fill-rule:evenodd;clip-rule:evenodd;fill:#FFFFFF;}
	.st1{display:none;}
	.st2{display:inline;fill:none;stroke:#606060;stroke-miterlimit:10;}
</style>
<g id="Layer_1_1_">
	<g id="Ui">
		<g id="Group-4">
			<path id="Combined-Shape" class="st0" d="M6,67.1h9.2c3.8,0,5.7-1.6,5.7-4.8s-1.9-4.9-5.7-4.9H6V67.1z M6,52.6h7.9
				c3.5,0,5.2-1.5,5.2-4.5s-1.7-4.5-5.2-4.5H6V52.6z M69.4,48.2h4.7v-7h0.4l5.2,1.8v5.3h5.5v4.3h-5.5v13c0,1.7,0.9,2.5,2.8,2.5
				c0.8,0,1.6-0.1,2.3-0.3l0.1,0.1v4.4c-1.3,0.3-2.7,0.5-4.1,0.5c-1.8,0.1-3.6-0.5-4.9-1.7c-1.3-1.3-1.9-3.1-1.8-5V52.6H63.9v13
				c0,1.7,0.9,2.5,2.8,2.5c0.8,0,1.6-0.1,2.3-0.3l0.2,0.1v4.4c-1.3,0.3-2.7,0.5-4.1,0.5c-1.8,0.1-3.6-0.5-4.9-1.7
				c-1.3-1.3-1.9-3.1-1.8-5V52.6h-4.7v-4.3h4.5v-7h0.4l5.2,1.8v5.3L69.4,48.2z M20.5,54.3c1.7,0.5,3.2,1.5,4.3,2.9
				c1.2,1.4,1.8,3.3,1.8,5.2c0.1,2.8-1.1,5.4-3.3,7.2c-2.6,1.9-5.7,2.9-8.9,2.7H0V38.6h13.8c2.8-0.1,5.6,0.7,7.9,2.4
				c3.4,2.7,4,7.7,1.2,11.1c-0.7,0.8-1.5,1.5-2.4,2V54.3z M53.3,61.7H34.5c0,1.8,0.8,3.5,2.1,4.7c1.3,1.2,3,1.8,4.8,1.7
				c3.3,0,5.4-1.4,6.4-4.2l4.8,0.3l0.2,0.2c-0.7,2.5-2.1,4.7-4.2,6.2c-2.2,1.5-4.7,2.2-7.4,2.2c-3.3,0.1-6.5-1.1-8.9-3.4
				C30,67,28.8,63.7,29,60.3c-0.2-6.7,5-12.3,11.7-12.5l0,0h0.5c3.2-0.1,6.3,1.1,8.6,3.3c2.3,2.4,3.5,5.7,3.3,9L53.3,61.7z
				 M34.7,57.8H48c-0.1-1.6-0.9-3.1-2.1-4.1c-1.3-1-2.9-1.5-4.5-1.5s-3.1,0.5-4.4,1.5C35.8,54.7,35,56.2,34.7,57.8L34.7,57.8z
				 M110.2,61.7H91.6c0,1.8,0.8,3.5,2.1,4.7c1.3,1.2,3.1,1.8,4.8,1.7c3.3,0,5.4-1.4,6.4-4.2l4.8,0.3l0.2,0.2
				c-0.7,2.5-2.1,4.7-4.2,6.2c-2.2,1.5-4.7,2.3-7.4,2.2c-3.3,0.1-6.5-1.1-8.9-3.4c-2.3-2.4-3.5-5.7-3.3-9.1
				c-0.2-6.7,5-12.3,11.7-12.5l0,0h0.5c3.2-0.1,6.3,1.1,8.6,3.3c2.3,2.4,3.5,5.7,3.3,9L110.2,61.7z M91.6,57.8h13.3
				c-0.1-1.6-0.9-3.1-2.1-4.1c-1.3-1-2.9-1.5-4.5-1.5s-3.1,0.5-4.4,1.5C92.7,54.7,91.9,56.2,91.6,57.8L91.6,57.8z M119.9,48.2v3
				c1.7-2.2,4.3-3.5,7-3.5c0.7,0,1.4,0.1,2.1,0.4l-0.7,4.4l-0.2,0.2c-0.5-0.1-1.1-0.2-1.6-0.2c-2.9,0-5.1,1.5-6.6,4.5v15.2h-5.6v-24
				L119.9,48.2z M170.2,47.8c3.5-0.1,6.9,1.1,9.4,3.5c4.8,5,4.8,12.9,0,17.9c-5.3,4.7-13.3,4.7-18.6,0c-4.8-5-4.8-12.9,0-17.9
				C163.5,48.9,166.8,47.6,170.2,47.8L170.2,47.8z M170.2,52.6c-2-0.1-3.9,0.7-5.3,2c-2.7,3.2-2.7,8,0,11.2c3,2.7,7.6,2.7,10.6,0
				c2.7-3.2,2.7-8,0-11.2C174.1,53.3,172.2,52.5,170.2,52.6L170.2,52.6z M192.6,48.2V51c1.8-2.1,4.5-3.3,7.3-3.3
				c2.5-0.2,4.9,1.1,6.1,3.4c2.1-2.2,5-3.4,8-3.4c2-0.1,4.1,0.5,5.6,1.9c1.3,1.4,2,3.3,1.9,5.2v17.4h-5.6v-16c0-2.5-1.2-3.7-3.6-3.7
				c-2.2,0.1-4.3,1.3-5.3,3.2v16.5h-5.6V56.4c0-2.5-1.2-3.8-3.5-3.8c-2,0-3.8,1.2-5.4,3.5v16.1h-5.6v-24L192.6,48.2z M248.8,61.7
				h-18.7c0,1.8,0.8,3.5,2.1,4.7c1.3,1.2,3.1,1.8,4.8,1.7c3.3,0,5.4-1.4,6.4-4.2l4.8,0.3l0.2,0.2c-0.7,2.5-2.1,4.6-4.2,6.2
				c-2.2,1.5-4.7,2.3-7.4,2.2c-3.3,0.1-6.5-1.1-8.9-3.4c-2.3-2.4-3.5-5.7-3.3-9.1c-0.2-6.7,5-12.3,11.6-12.5c0,0,0,0,0.1,0h0.4
				c3.2-0.1,6.3,1.1,8.6,3.3c2.3,2.4,3.5,5.7,3.3,9L248.8,61.7z M230.2,57.8h13.3c-0.1-1.6-0.9-3.1-2.1-4.1c-1.3-1-2.9-1.5-4.6-1.5
				c-1.6,0-3.1,0.5-4.4,1.5C231.2,54.7,230.4,56.2,230.2,57.8L230.2,57.8z M264.8,55.6c-0.2-1.1-0.7-2-1.6-2.7c-0.9-0.6-1.9-1-3-0.9
				c-0.9,0-1.7,0.2-2.4,0.6c-0.6,0.3-1,1-1,1.7c0.1,0.9,0.6,1.6,1.4,1.9c1.6,0.7,3.2,1.3,4.9,1.7c2.1,0.4,4.1,1.3,5.8,2.6
				c1.2,1.1,1.9,2.7,1.9,4.4c0,2.2-0.9,4.3-2.6,5.6c-2,1.5-4.4,2.3-6.9,2.2c-2.5,0.1-5-0.6-7-2c-1.8-1.3-3-3.3-3.3-5.5l0.1-0.3
				l4.7-0.8c0.7,2.7,2.5,4.1,5.7,4.1c1.1,0,2.1-0.2,3-0.8c1.1-0.7,1.5-2.1,0.9-3.3c-0.2-0.4-0.6-0.8-1.1-1c-1.5-0.8-3.2-1.3-4.8-1.7
				c-2-0.4-4-1.3-5.6-2.6c-1.2-1.2-1.9-2.8-1.9-4.5c0-1.8,0.9-3.6,2.3-4.7c1.8-1.4,3.9-2,6.2-1.9c2.2-0.1,4.4,0.5,6.3,1.8
				c1.7,1.2,2.7,3.1,3,5.2l-0.2,0.2L264.8,55.6z M152,49.9c1.6,1.6,2.4,3.7,2.3,5.9v16.4h-5.6V57.1c0.1-1.3-0.4-2.5-1.3-3.4
				c-1-0.8-2.2-1.2-3.5-1.2s-2.6,0.4-3.8,1c-1.2,0.7-2.3,1.7-3.1,2.8v15.9h-5.6v-35h0.4l5.2,1.9v12.2c1.1-1.1,2.4-1.9,3.8-2.5
				c1.5-0.7,3.2-1,4.9-1c2.3-0.1,4.5,0.7,6.2,2.2h0.1V49.9z"/>
			<path id="point" class="st0" d="M274.9,64.7c1.9-1.8,4.8-1.8,6.7,0c0.9,0.8,1.4,2,1.4,3.3s-0.5,2.4-1.4,3.3
				c-1.8,1.8-4.7,1.9-6.6,0.1l-0.1-0.1c-0.9-0.9-1.4-2.1-1.4-3.3C273.4,66.8,273.9,65.6,274.9,64.7"/>
		</g>
	</g>
</g>
<g id="Layer_3" class="st1">
	<rect x="34" y="13.5" class="st2" width="283.5" height="83.2"/>
</g>
</svg>
