<?xml version="1.0" encoding="utf-8"?>
<!-- Generator: Adobe Illustrator 25.2.1, SVG Export Plug-In . SVG Version: 6.00 Build 0)  -->
<svg version="1.1" id="Layer_1" xmlns="http://www.w3.org/2000/svg" xmlns:xlink="http://www.w3.org/1999/xlink" x="0px" y="0px"
	 viewBox="0 0 352 110" style="enable-background:new 0 0 352 110;" xml:space="preserve">
<style type="text/css">
	.st0{fill:#FFFFFF;}
	.st1{display:none;}
	.st2{display:inline;fill:none;stroke:#606060;stroke-miterlimit:10;}
</style>
<g id="Layer_1_1_">
	<g>
		<path class="st0" d="M25.1,26.5c0.2,0.4,0.6,0.5,0.9,0.6c7.6,4.4,15.2,8.8,22.8,13.1c0.6,0.3,0.9,0.8,0.9,1.5c0,8.9,0,17.9,0,26.8
			c0,0.6-0.3,1.1-0.8,1.4c-7.7,4.4-15.4,8.8-23,13.3c-0.6,0.4-1.5,0.4-2.1,0C16.2,78.8,8.6,74.4,0.9,70c-0.3-0.2-0.5-0.5-0.9-0.4
			V40.7c0.2-0.1,0.3-0.1,0.5-0.2c7.8-4.5,15.7-9,23.5-13.6c0.2-0.1,0.5-0.1,0.5-0.5h0.6V26.5z M30.7,71.4l10.8-6.2
			c0.4-0.2,0.4-0.6,0.4-1c0-6,0-12.1,0-18.1c0-0.5-0.3-1-0.7-1.2c-4.5-2.6-8.9-5.2-13.4-7.7c-0.9-0.6-1.9-1.6-3-1.5s-2,1-3,1.6
			l-0.4,0.1c-0.2,0.1-0.4,0.3-0.3,0.6c0,0.7,0,1.3,0,2.2c1.1-0.6,2.1-1.2,3-1.8c0.4-0.3,0.9-0.3,1.3-0.1c4.5,2.6,9.1,5.3,13.7,7.9
			c0.4,0.2,0.6,0.5,0.6,0.9c0,5.3,0,10.5,0,15.8c0,0.3,0,0.6-0.3,0.8c-0.6,0.3-1.2,0.7-1.9,1.1v-1.2c0-4.9,0-9.8,0-14.8
			c0.1-0.7-0.3-1.4-0.9-1.7c-3-1.6-6-3.2-8.8-5.1c-2.2-1.5-4-1.6-6,0.1c-0.1,0.1-0.2,0.1-0.3,0.2c-0.3,0.1-0.4,0.4-0.4,0.7
			c0,0.6,0,1.3,0,2.1c1.1-0.6,2-1.1,2.9-1.7c0.4-0.3,1.1-0.3,1.5,0c2.9,1.7,5.9,3.4,8.9,5.1c0.5,0.2,0.8,0.8,0.8,1.3
			c0,4.8,0,9.7,0,14.6c0,2-0.1,2-2.2,2.8V66c0-5,0-9.9,0-14.9c0.1-0.6-0.2-1.1-0.7-1.3c-1.5-0.8-3-1.7-4.5-2.6c-1-0.6-2-1.6-3-1.5
			c-1.1,0.1-2,1.1-3,1.6c-0.4,0.2-0.7,0.6-0.6,1.1c0,1.7,0,3.5,0,5.2c0,1.1-0.3,2.5,0.2,3.4c0.5,0.8,1.9,1.3,2.9,1.9
			c0.3,0.3,0.8,0.3,1.1,0c0.8-0.7,1-0.3,0.9,0.6c0,0.2,0,0.4,0,0.6c0,0.8-0.6,1.4-1.4,1.5c-0.3,0-0.6-0.1-0.8-0.2
			c-1.5-0.9-2.9-1.7-4.4-2.6c-0.5-0.2-0.9-0.8-0.8-1.4c0-5.8,0-11.6,0-17.4c0.1-0.4,0-0.8-0.1-1.1c-0.3-0.1-0.5,0.2-0.8,0.3
			c-3.1,1.9-6.3,3.7-9.4,5.5C8,45,7.7,45.6,7.8,46.2c0,5.9,0,11.8,0,17.7c-0.1,0.6,0.3,1.2,0.9,1.5c4.7,2.7,9.4,5.3,13.9,8.1
			c1.4,1.1,3.3,1.1,4.7,0c1-0.5,1.6-1.7,1.3-2.8c0-0.6-0.2-0.5-0.6-0.3c-0.8,0.5-1.7,0.9-2.5,1.5c-0.3,0.2-0.7,0.2-1.1,0
			c-4.6-2.6-9.2-5.3-13.8-7.9c-0.4-0.2-0.6-0.5-0.5-0.9c0-5.3,0-10.6,0-15.9c0-0.3,0-0.6,0.3-0.8c0.6-0.3,1.2-0.7,1.9-1.1v1.2
			c0,5,0,10,0,15c-0.1,0.6,0.3,1.2,0.8,1.4c3,1.7,6.1,3.2,8.9,5.2c2.1,1.5,3.9,1.6,5.9-0.1c0.1-0.1,0.2-0.2,0.4-0.2
			c0.3-0.1,0.4-0.4,0.4-0.7c0-0.7,0-1.3,0-2.1c-1.1,0.6-2.1,1.2-3.1,1.8c-0.3,0.3-0.8,0.3-1.1,0c-3.1-1.8-6.2-3.6-9.2-5.3
			c-0.4-0.2-0.6-0.5-0.6-0.9c0-5.3,0-10.5,0-15.8c0-0.3,0-0.6,0.3-0.8c0.6-0.3,1.2-0.7,1.9-1.1V44c0,5,0,10,0,15
			c-0.1,0.6,0.3,1.1,0.8,1.4c1.5,0.7,3,1.6,4.4,2.6c2.1,1.7,4,1.6,6-0.1c0.4-0.3,0.7-0.7,0.7-1.2c0-2.2-0.1-4.5,0-6.7
			c0.1-1.5-0.3-2.4-1.7-3c-1.1-0.4-2-1.7-3.3-0.3c-0.2-0.6-0.2-1.2-0.1-1.8c-0.1-0.8,0.5-1.4,1.3-1.5c0.3,0,0.6,0.1,0.8,0.2
			c1.5,0.8,2.9,1.7,4.5,2.5c0.6,0.3,1,0.9,0.9,1.6C30.7,58.9,30.7,65,30.7,71.4L30.7,71.4z M28.3,75.3c-1,0.6-1.9,1.1-2.8,1.7
			c-0.4,0.3-1,0.3-1.4,0c-5.9-3.4-11.9-6.9-17.8-10.2c-0.5-0.2-0.9-0.8-0.8-1.4c0-6.8,0-13.5,0-20.3c-0.1-0.7,0.3-1.3,0.9-1.6
			c3.9-2.2,7.7-4.4,11.6-6.7c0.4-0.2,0.9-0.3,0.8-0.9c0-0.6,0-1.3,0-2c-0.2,0-0.3,0.1-0.4,0.1c-4.9,2.8-9.7,5.6-14.6,8.4
			c-0.6,0.3-0.5,0.7-0.5,1.2c0,7.7,0,15.4,0,23c0,0.6,0.3,1.1,0.8,1.4c6.3,3.6,12.6,7.2,18.8,10.9c1.1,0.8,2.7,0.8,3.8,0
			c1.5-0.8,2.1-1.8,1.7-3.4C28.4,75.4,28.4,75.4,28.3,75.3L28.3,75.3z M21.2,35c0.9-0.5,1.8-1,2.7-1.6c0.5-0.4,1.2-0.4,1.7,0
			c5.9,3.4,11.8,6.8,17.7,10.2c0.5,0.2,0.9,0.8,0.8,1.4c0,6.8,0,13.5,0,20.3c0.1,0.6-0.3,1.2-0.9,1.5c-3.9,2.2-7.9,4.5-11.8,6.8
			c-0.3,0.2-0.7,0.3-0.7,0.8c0,0.7,0,1.4,0,2.1c0.3-0.1,0.4-0.2,0.5-0.2c4.8-2.8,9.6-5.5,14.4-8.3c0.5-0.3,0.7-0.8,0.6-1.3
			c0-7.6,0-15.3,0-22.9c0.1-0.6-0.3-1.2-0.8-1.5c-6.3-3.6-12.5-7.1-18.8-10.8c-1.1-0.8-2.7-0.8-3.8,0C21.4,32.2,20.7,33.1,21.2,35
			L21.2,35z"/>
		<path class="st0" d="M26.3,55.1c-0.1,0.8-0.7,1.5-1.5,1.7c-0.8-0.2-1.4-0.9-1.4-1.7s0.6-1.4,1.4-1.6
			C25.6,53.6,26.2,54.3,26.3,55.1z"/>
		<path class="st0" d="M81.3,64.2c0.2,0,0.5,0.1,0.6,0.3l1.7,1.9c-1.3,1.5-2.9,2.7-4.7,3.5c-2.1,0.9-4.3,1.3-6.6,1.3
			c-2.1,0-4.2-0.4-6.1-1.2c-1.8-0.8-3.4-1.9-4.7-3.3c-1.3-1.5-2.3-3.2-3-5.1c-0.7-2.1-1.1-4.3-1.1-6.6c0-2.2,0.3-4.5,1.1-6.6
			c0.7-1.9,1.7-3.6,3.1-5.1c1.3-1.4,3-2.6,4.8-3.3c2-0.8,4.1-1.2,6.2-1.2c3.8-0.1,7.6,1.3,10.3,4l-1.3,2c-0.1,0.1-0.2,0.3-0.3,0.4
			c-0.2,0.1-0.4,0.2-0.6,0.2c-0.3,0-0.7-0.2-0.9-0.4c-0.5-0.3-1-0.7-1.5-0.9c-0.7-0.4-1.5-0.7-2.3-0.9c-1.1-0.3-2.2-0.5-3.4-0.4
			c-1.5,0-3,0.3-4.4,0.9c-1.3,0.6-2.5,1.4-3.4,2.5c-1,1.1-1.8,2.5-2.2,3.9c-0.6,1.7-0.8,3.5-0.8,5.2c0,1.8,0.3,3.6,0.8,5.3
			c0.5,1.4,1.3,2.8,2.3,3.9c0.9,1.1,2.1,1.9,3.4,2.4c1.3,0.6,2.8,0.9,4.2,0.8c0.8,0,1.7-0.1,2.5-0.2c0.7-0.1,1.4-0.3,2.1-0.5
			c0.6-0.2,1.2-0.6,1.8-0.9c0.6-0.4,1.1-0.8,1.6-1.3C80.8,64.3,81.1,64.2,81.3,64.2z"/>
		<path class="st0" d="M91.2,52.8c0.6-1.4,1.5-2.6,2.6-3.6c1-0.9,2.4-1.3,3.8-1.3c0.5,0,0.9,0,1.3,0.2c0.4,0.1,0.8,0.3,1.1,0.5
			l-0.3,2.9c0,0.3-0.3,0.6-0.6,0.6S98.5,52,98.2,52c-0.4-0.1-0.9-0.1-1.3-0.1c-0.6,0-1.3,0.1-1.9,0.3c-0.5,0.2-1,0.5-1.5,0.9
			s-0.8,0.9-1.1,1.5c-0.4,0.7-0.7,1.3-0.9,2v14.1h-3.9V48.3h2.2c0.3,0,0.6,0.1,0.9,0.2c0.2,0.2,0.3,0.5,0.3,0.8L91.2,52.8z"/>
		<path class="st0" d="M122.2,48.3l-12.3,29c-0.1,0.3-0.3,0.5-0.5,0.7c-0.3,0.2-0.6,0.3-0.9,0.3h-2.9l4-8.9l-9.1-21.1h3.3
			c0.3,0,0.6,0.1,0.8,0.3c0.2,0.1,0.3,0.3,0.4,0.6l5.9,14.1c0.2,0.6,0.4,1.3,0.6,2c0.2-0.7,0.4-1.4,0.6-2l5.7-14.1
			c0.1-0.2,0.2-0.4,0.5-0.6c0.2-0.1,0.5-0.2,0.7-0.2L122.2,48.3z"/>
		<path class="st0" d="M129.3,51.8c0.9-1.1,2-2.1,3.2-2.8c1.3-0.7,2.7-1.1,4.2-1.1c1.2,0,2.4,0.2,3.5,0.7c1,0.5,2,1.3,2.6,2.2
			c0.8,1.1,1.4,2.3,1.7,3.6c0.4,1.6,0.6,3.3,0.6,4.9c0,1.6-0.2,3.1-0.6,4.6c-0.4,1.3-1,2.6-1.9,3.7c-1.7,2.2-4.2,3.4-7,3.3
			c-1.2,0-2.4-0.2-3.5-0.7c-1-0.4-1.8-1.1-2.6-1.9v9.9h-3.9v-30h2.3c0.5,0,1,0.3,1,0.8L129.3,51.8z M129.5,65.3
			c0.6,0.9,1.4,1.6,2.3,2.1c0.9,0.4,1.8,0.6,2.8,0.6c1.8,0.1,3.6-0.8,4.7-2.2c1.1-1.5,1.6-3.6,1.6-6.4c0-1.3-0.1-2.5-0.4-3.8
			c-0.2-0.9-0.6-1.8-1.1-2.6c-0.4-0.6-1-1.2-1.8-1.5c-0.7-0.3-1.6-0.5-2.4-0.5c-1.2,0-2.3,0.3-3.3,0.9c-1,0.7-1.9,1.5-2.6,2.5
			L129.5,65.3L129.5,65.3z"/>
		<path class="st0" d="M156.4,71.1c-1.5,0.1-2.9-0.4-4-1.5c-1-1.2-1.5-2.7-1.4-4.3V51.6h-2.6c-0.4,0-0.8-0.3-0.8-0.7v-0.1v-1.6
			l3.6-0.5l0.9-6.9c0-0.2,0.1-0.4,0.3-0.5c0.2-0.1,0.4-0.2,0.6-0.2h2v7.7h6.3v2.8h-6.4v13.5c-0.1,0.8,0.2,1.5,0.7,2.1
			c0.5,0.5,1.1,0.7,1.7,0.7c0.4,0,0.7,0,1.1-0.2c0.3-0.1,0.5-0.2,0.8-0.4c0.2-0.1,0.4-0.3,0.5-0.4s0.3-0.2,0.4-0.2
			c0.2,0,0.4,0.2,0.5,0.4l1.1,1.9c-0.7,0.7-1.5,1.2-2.4,1.5C158.4,70.9,157.4,71.1,156.4,71.1z"/>
		<path class="st0" d="M174.3,48c1.5,0,3,0.3,4.3,0.8c1.3,0.5,2.4,1.3,3.3,2.3c0.9,1.1,1.6,2.3,2.1,3.6c1,3.1,1,6.4,0,9.5
			c-0.4,1.3-1.2,2.6-2.1,3.6c-0.9,1-2,1.8-3.3,2.3c-1.4,0.6-2.8,0.8-4.3,0.8s-3-0.3-4.4-0.8c-1.3-0.5-2.4-1.3-3.3-2.3
			s-1.7-2.3-2.1-3.6c-1-3.1-1-6.4,0-9.5c0.4-1.3,1.2-2.6,2.1-3.6c0.9-1,2-1.8,3.3-2.3C171.3,48.2,172.8,48,174.3,48z M174.3,68
			c1.9,0.1,3.7-0.7,4.9-2.2c1.2-1.8,1.7-4,1.6-6.2c0.1-2.2-0.4-4.4-1.6-6.2c-1.1-1.5-3-2.4-4.9-2.2c-1,0-2,0.2-2.9,0.6
			c-0.8,0.4-1.5,0.9-2,1.7c-0.6,0.8-1,1.7-1.2,2.7c-0.3,1.2-0.4,2.4-0.4,3.6c-0.1,2.2,0.4,4.4,1.6,6.2
			C170.6,67.3,172.4,68.1,174.3,68z"/>
		<path class="st0" d="M206.8,44.6c-0.1,0.3-0.3,0.5-0.6,0.7c-0.2,0.1-0.5,0.2-0.7,0.2c-0.4,0-0.7-0.1-1-0.3
			c-0.3-0.2-0.8-0.5-1.3-0.8c-0.6-0.3-1.1-0.6-1.7-0.8c-0.8-0.2-1.5-0.4-2.3-0.3c-0.7,0-1.4,0.1-2.1,0.3c-0.6,0.2-1.1,0.5-1.5,0.8
			s-0.7,0.8-0.9,1.3c-0.2,0.5-0.3,1.1-0.3,1.6c0,0.7,0.2,1.3,0.6,1.9c0.5,0.5,1,1,1.6,1.3c0.7,0.4,1.5,0.7,2.3,0.9
			c0.9,0.3,1.8,0.6,2.7,0.9c0.9,0.3,1.8,0.7,2.7,1.1c0.8,0.4,1.6,0.9,2.3,1.6c0.7,0.7,1.3,1.5,1.6,2.4c0.4,1.1,0.7,2.2,0.6,3.4
			c0,1.4-0.2,2.8-0.7,4.1c-0.5,1.2-1.2,2.4-2.1,3.3c-1,1-2.1,1.7-3.4,2.2c-1.5,0.6-3,0.8-4.6,0.8c-1,0-2-0.1-3-0.3
			c-1-0.2-1.9-0.5-2.8-0.9s-1.7-0.8-2.5-1.3c-0.8-0.5-1.5-1.1-2.1-1.7l1.7-2.8c0.1-0.2,0.3-0.4,0.6-0.5c0.2-0.1,0.5-0.2,0.7-0.2
			c0.4,0,0.8,0.2,1.2,0.5s0.9,0.6,1.5,1s1.3,0.7,2,1c0.9,0.3,1.9,0.5,2.8,0.5c1.4,0.1,2.8-0.3,3.9-1.2c0.9-0.9,1.4-2.2,1.4-3.5
			c0-0.7-0.2-1.5-0.6-2.1s-1-1-1.6-1.3c-0.7-0.4-1.5-0.7-2.3-0.9c-0.9-0.3-1.8-0.5-2.6-0.8c-0.9-0.3-1.8-0.6-2.6-1.1
			c-0.9-0.4-1.6-0.9-2.3-1.6c-0.7-0.7-1.3-1.6-1.6-2.5c-0.4-1.2-0.7-2.4-0.6-3.7c0-2.4,1-4.6,2.7-6.3c0.9-0.9,2-1.6,3.2-2.1
			c1.4-0.5,2.9-0.8,4.4-0.8c1.7,0,3.5,0.3,5.1,0.9c1.5,0.5,2.8,1.4,4,2.5L206.8,44.6z"/>
		<path class="st0" d="M222.8,47.7c1.5,0,3.1,0.3,4.5,0.8c1.3,0.5,2.5,1.3,3.5,2.3c1,1.1,1.8,2.3,2.2,3.7c1,3.2,1,6.6,0,9.7
			c-0.5,1.4-1.2,2.6-2.2,3.7c-1,1-2.2,1.8-3.5,2.3c-2.9,1.1-6.1,1.1-9,0c-1.3-0.5-2.5-1.3-3.5-2.3c-1-1.1-1.8-2.3-2.2-3.7
			c-1.1-3.1-1.1-6.6,0-9.7c0.5-1.4,1.2-2.6,2.2-3.7c1-1,2.2-1.8,3.5-2.3C219.7,48,221.3,47.7,222.8,47.7z M222.8,66.9
			c1.6,0.1,3.1-0.6,4.1-1.9c1-1.7,1.5-3.6,1.3-5.6c0.1-2-0.3-3.9-1.3-5.6c-1-1.3-2.5-2-4.1-1.9c-1.6-0.1-3.2,0.6-4.2,1.9
			c-1,1.7-1.5,3.7-1.4,5.6c-0.1,1.9,0.3,3.9,1.4,5.6C219.6,66.3,221.2,67,222.8,66.9z"/>
		<path class="st0" d="M257.1,48.1v22.7h-3.3c-0.6,0.1-1.2-0.4-1.4-1L252,68c-0.9,0.9-1.9,1.7-3,2.3c-1.2,0.6-2.5,0.9-3.9,0.9
			c-1.1,0-2.2-0.2-3.2-0.6c-0.9-0.4-1.7-1-2.4-1.8c-0.7-0.8-1.1-1.7-1.4-2.7c-0.3-1.1-0.5-2.3-0.5-3.5V48.1h5.4v14.4
			c-0.1,1.1,0.3,2.3,0.9,3.2c0.7,0.8,1.7,1.2,2.8,1.1c0.9,0,1.8-0.2,2.6-0.6c0.8-0.5,1.6-1,2.3-1.7V48.1H257.1z"/>
		<path class="st0" d="M267.7,37.9v18.8h1c0.3,0,0.6,0,0.9-0.1s0.5-0.3,0.6-0.6l5.5-7c0.2-0.3,0.5-0.5,0.8-0.7s0.7-0.3,1.1-0.2h4.9
			l-6.9,8.4c-0.4,0.6-1,1.1-1.6,1.5c0.3,0.2,0.6,0.5,0.8,0.8c0.2,0.3,0.5,0.6,0.7,0.9l7.4,11h-4.8c-0.4,0-0.7-0.1-1.1-0.2
			c-0.3-0.2-0.6-0.4-0.8-0.8l-5.7-8.6c-0.1-0.3-0.4-0.5-0.6-0.7c-0.3-0.1-0.6-0.2-0.9-0.2h-1.3v10.4h-5.4V37.9H267.7L267.7,37.9z"/>
	</g>
</g>
<g id="Layer_3" class="st1">
	<rect x="34" y="13.5" class="st2" width="283.5" height="83.2"/>
</g>
</svg>
