<?xml version="1.0" encoding="utf-8"?>
<!-- Generator: Adobe Illustrator 25.2.1, SVG Export Plug-In . SVG Version: 6.00 Build 0)  -->
<svg version="1.1" id="Layer_1" xmlns="http://www.w3.org/2000/svg" xmlns:xlink="http://www.w3.org/1999/xlink" x="0px" y="0px"
	 viewBox="0 0 352 110" style="enable-background:new 0 0 352 110;" xml:space="preserve">
<style type="text/css">
	.st0{fill:#FFFFFF;}
	.st1{display:none;}
	.st2{display:inline;fill:none;stroke:#606060;stroke-miterlimit:10;}
</style>
<g id="Layer_1_1_">
	<g>
		<path class="st0" d="M21.2,60.8L0,36.8v19.6h0.7C7.7,57.2,14.5,58.7,21.2,60.8"/>
		<polygon class="st0" points="29.1,25.9 13.3,25.9 27.6,57 		"/>
		<polygon class="st0" points="46.2,25.9 34.8,58.5 58.5,36.2 58.5,25.9 		"/>
		<polygon class="st0" points="45.6,25.9 29.9,25.9 31.3,57 		"/>
		<path class="st0" d="M37.9,60.8c6.7-2.1,13.6-3.6,20.6-4.4v-19L37.9,60.8z"/>
		<polygon class="st0" points="0,25.9 0,36.5 23.7,58.8 12.4,25.9 		"/>
		<path class="st0" d="M57.7,58.5c-8.4,1.6-23.7,7.1-23.6,7.1c2.6,1.3,5,2.7,7.4,4.4l-0.2,0.2h-0.1C28.3,65.3,14.8,62.4,1,61.6H0.1
			v22.8h58.4v-26C58.2,58.4,58,58.5,57.7,58.5 M12.5,80.6l-0.1,0.9H5.5c0.2-0.5,0.2-1,0.2-1.5v-6.5c0-0.5-0.1-1-0.2-1.5H12v0.9
			c-0.1,0-0.2-0.1-0.4-0.1c-0.3-0.1-0.6-0.2-0.9-0.2H7.3v3.8h4.3L11.5,77H7.4v3.7h3.8C11.8,80.8,12.5,80.5,12.5,80.6z M22.7,81.5
			c0.1-0.5,0.1-1.1,0-1.6l-0.6-4.5l-3.3,6.2h-0.6l-3.4-6.4L14.2,80c-0.1,0.5-0.1,1.1,0,1.6H13c0.2-0.5,0.3-1,0.3-1.5l1.1-8.1H15
			l4,7.5l3.9-7.5h0.5l1,8.1c0.1,0.5,0.2,1,0.5,1.5L22.7,81.5z M32.6,81.5L31.1,78h-3.2l-1.5,3.5h-1.2c0.3-0.4,0.6-0.8,0.8-1.3
			l3.6-8.3h0.5l3.6,8.1c0.2,0.6,0.7,1.2,1.2,1.5L32.6,81.5z M42.6,81.5L41,78h-3.2l-1.5,3.5h-1.2c0.3-0.4,0.6-0.8,0.8-1.3l3.6-8.3
			H40l3.6,8.1c0.2,0.6,0.7,1.2,1.2,1.6L42.6,81.5z M51.6,81.5c-1.4-1.2-2.6-2.5-3.7-3.9C47.4,77.1,47.2,77,47,77v3
			c0,0.5,0.1,1,0.2,1.5H45c0.2-0.5,0.3-1,0.2-1.5v-6.5c0-0.5-0.1-1-0.2-1.5h2c1.4,0,4.7-0.1,4.7,2.7c-0.1,1.3-1.2,2.3-2.5,2.4h-0.4
			c0,0,4.3,4.3,4.5,4.4H51.6z"/>
		<path class="st0" d="M49.1,76.5L49.1,76.5c0.8-0.3,1.2-1.1,1.2-1.9c0-0.7-0.4-2.2-3.3-2.1v4.1C47.7,76.7,48.4,76.7,49.1,76.5"/>
		<polygon class="st0" points="38.1,77.3 40.7,77.3 39.4,74.5 		"/>
		<polygon class="st0" points="28.3,77.3 30.8,77.3 29.5,74.5 		"/>
		<g id="Page-1">
			<path id="Shape" class="st0" d="M107.2,73.3l-0.6,4H77.4c0.9-2,1.3-4.2,1.1-6.4V43.1c0.2-2.2-0.2-4.4-1.1-6.4h28.5v4.1
				c-0.5-0.2-1-0.4-1.4-0.6c-1.2-0.5-2.5-0.7-3.8-0.7H85.1v15.9h18.4l-0.9,3.1H85.2v15.9h16.5c1.9-0.1,3.9-0.6,5.6-1.5L107.2,73.3
				C107.2,73.2,107.2,73.3,107.2,73.3z M151.2,77.3c0.4-2.4,0.4-4.8,0.1-7.1L148.7,51l-14.2,26.2h-2.7l-14.4-27.4l-2.8,20.7
				c-0.3,2.2-0.4,4.5-0.1,6.7h-5.1c1-2.1,1.2-3,1.7-6.4l4.6-34.2h2.3l16.8,31.9l16.8-31.9h1.8l4.7,34.2c0.2,2.2,0.8,4.4,1.8,6.5
				L151.2,77.3z M193.9,77.3l-6.7-14.9h-13.6l-6.7,14.9h-5.3c1.4-1.7,2.6-3.6,3.4-5.7l15.7-35h1.8l15.5,34c1.1,2.5,2.7,4.8,4.8,6.6
				L193.9,77.3z M236.3,77.3l-6.7-14.9H216l-6.7,14.9H204c1.4-1.7,2.6-3.6,3.4-5.7l15.7-35h1.8l15.5,34c1.1,2.5,2.7,4.8,4.8,6.6
				L236.3,77.3z M274.8,77.3c-5.7-5.1-11-10.5-15.9-16.3c-1.9-2.2-3.2-2.5-4.1-2.5V71c-0.1,2.2,0.3,4.4,1.1,6.4H247
				c0.9-2,1.3-4.2,1.1-6.4V43.1c0.2-2.2-0.2-4.4-1.1-6.4h8.8c6,0,20.1-0.5,20.1,11.1c0,6.2-4.9,9.5-10.7,10.3l-1.7,0.2l19.5,19
				L274.8,77.3z M264.2,55.8L264.2,55.8c3.8-1.4,5-5,4.9-8s-1.5-9.2-14.3-8.7v17.3c0,0,7.2,0.4,9.2-0.5L264.2,55.8z M217.3,59.6h11
				l-5.5-12.1L217.3,59.6z M174.9,59.6h11l-5.5-12.1L174.9,59.6z"/>
		</g>
	</g>
</g>
<g id="Layer_3" class="st1">
	<rect x="34" y="13.5" class="st2" width="283.5" height="83.2"/>
</g>
</svg>
