<?xml version="1.0" encoding="utf-8"?>
<!-- Generator: Adobe Illustrator 25.2.1, SVG Export Plug-In . SVG Version: 6.00 Build 0)  -->
<svg version="1.1" id="Layer_1" xmlns="http://www.w3.org/2000/svg" xmlns:xlink="http://www.w3.org/1999/xlink" x="0px" y="0px"
	 viewBox="0 0 352 110" style="enable-background:new 0 0 352 110;" xml:space="preserve">
<style type="text/css">
	.st0{fill:#FFFFFF;}
	.st1{display:none;}
	.st2{display:inline;fill:#FFFFFF;}
	.st3{display:inline;fill:none;stroke:#606060;stroke-miterlimit:10;}
</style>
<g id="Layer_1_1_">
	<g>
		<rect x="281" y="13.5" class="st0" width="2.5" height="41.6"/>
		<rect x="239.4" y="13.5" class="st0" width="2.5" height="41.6"/>
		<rect x="197.8" y="13.5" class="st0" width="2.5" height="41.6"/>
		<polygon class="st0" points="119.7,13.5 119.7,55.1 158.8,55.1 158.8,52.6 122.2,52.6 122.2,16 158.8,16 158.8,13.5 		"/>
		<polygon class="st0" points="0,13.5 0,16 36.6,16 36.6,52.6 0,52.6 0,55.1 39.1,55.1 39.1,13.5 		"/>
		<rect x="78.1" y="13.5" class="st0" width="2.5" height="41.6"/>
		<rect x="80.6" y="61.3" class="st0" width="6.2" height="2.5"/>
		<rect x="71.9" y="61.3" class="st0" width="6.2" height="2.5"/>
		<path class="st0" d="M7.3,86.8C3.4,86,2.7,85,2.7,83.5s1.5-2.7,3.6-2.7c1.8,0,3.6,0.7,5,1.8l1.1-1.6c-1.7-1.4-3.9-2.2-6.1-2.1
			c-3.3,0-5.7,2-5.7,4.8s1.6,4.1,5.8,5c3.7,0.8,4.4,1.7,4.4,3.3S9.2,94.9,7,94.9s-4.3-0.8-5.9-2.4L0,93.9c1.9,1.8,4.5,2.8,7.1,2.8
			c3.5,0,5.9-2,5.9-5C13,89.1,11.3,87.6,7.3,86.8"/>
		<path class="st0" d="M274.9,94.4H271V81.1h3.9c3.7,0,6.7,3,6.7,6.7l0,0C281.5,91.4,278.5,94.3,274.9,94.4 M274.9,79.2H269v17.2
			h5.9c4.7,0,8.6-3.9,8.6-8.6S279.6,79.2,274.9,79.2"/>
		<path class="st0" d="M75.6,90.1l3.8-8.5l3.8,8.5H75.6z M78.3,79.2l-7.7,17.2h2.1l1.9-4.3H84l1.9,4.3H88l-7.7-17.2H78.3z"/>
		<polygon class="st0" points="140.5,96.3 152.4,96.3 152.4,94.4 142.4,94.4 142.4,88.7 151.7,88.7 151.7,86.8 142.4,86.8 
			142.4,81.1 152.4,81.1 152.4,79.2 140.5,79.2 		"/>
		<polygon class="st0" points="204.7,96.3 216.6,96.3 216.6,94.4 206.7,94.4 206.7,88.7 216,88.7 216,86.8 206.7,86.8 206.7,81.1 
			216.6,81.1 216.6,79.2 204.7,79.2 		"/>
	</g>
</g>
<g id="Layer_2_1_" class="st1">
	<path class="st2" d="M122.4,96.1v-8.9h-0.8v9.5h5.4l-0.3-0.7L122.4,96.1L122.4,96.1z M146.4,88.4c-0.4-0.5-1-0.8-1.6-1
		c-0.6-0.3-1.3-0.4-2-0.3c-0.7,0-1.3,0.1-2,0.3c-0.6,0.3-1.1,0.6-1.6,1c-0.4,0.5-0.8,0.9-1.2,1.5c-0.3,0.6-0.4,1.3-0.3,2
		c0,0.7,0.1,1.3,0.3,2c0.2,0.6,0.6,1.1,1.2,1.5c0.4,0.5,1,0.8,1.6,1c0.6,0.3,1.3,0.4,2,0.3c0.7,0,1.3-0.1,2-0.3
		c0.6-0.3,1.1-0.6,1.6-1c0.4-0.5,0.8-0.9,1.1-1.5s0.4-1.3,0.3-2c0-0.7-0.1-1.3-0.3-2C147.2,89.4,146.7,88.9,146.4,88.4z M146.7,93.6
		c-0.2,0.5-0.5,0.9-0.8,1.3c-0.4,0.4-0.8,0.6-1.3,0.8c-0.5,0.2-1.1,0.3-1.6,0.3c-0.6,0-1.1-0.1-1.7-0.3c-0.5-0.2-0.9-0.5-1.3-0.8
		c-0.4-0.4-0.7-0.8-1-1.3c-0.2-0.5-0.3-1.1-0.3-1.6c0-0.6,0.1-1.1,0.3-1.6s0.5-1,1-1.3c0.4-0.4,0.8-0.6,1.3-0.8
		c0.5-0.2,1.1-0.3,1.7-0.3c0.6,0,1.1,0.1,1.6,0.3c0.5,0.2,0.9,0.5,1.3,0.8c0.4,0.4,0.7,0.8,0.8,1.3c0.2,0.5,0.3,1.1,0.3,1.6
		S146.9,93.1,146.7,93.6L146.7,93.6z M167.2,95.3l-7.4-8.2l-0.5-0.3v9.7h0.8v-8.3l7.4,8.2l0.5,0.3v-9.8h-0.8V95.3z M187.6,88.7
		c-0.4-0.5-1-0.9-1.6-1.2c-0.8-0.4-1.6-0.5-2.5-0.5h-3.3v9.5h3.4c0.8,0,1.7-0.1,2.5-0.5c0.6-0.3,1.2-0.7,1.7-1.2
		c0.3-0.5,0.6-1,0.8-1.5s0.3-1.1,0.3-1.6s-0.2-1-0.2-1.6C188.3,89.7,187.9,89.2,187.6,88.7L187.6,88.7z M187.4,93.6
		c-0.2,0.5-0.5,1-1,1.3c-0.4,0.4-0.8,0.6-1.3,0.8c-0.5,0.2-1.1,0.3-1.6,0.3h-2.6v-8.2h2.6c0.6,0,1.2,0.1,1.8,0.3
		c0.5,0.2,0.9,0.5,1.3,0.8c0.4,0.4,0.6,0.8,0.8,1.3s0.3,1.1,0.3,1.6C187.8,92.6,187.7,93.1,187.4,93.6L187.4,93.6z M208.5,88.4
		c-0.4-0.5-1-0.8-1.6-1c-0.6-0.3-1.3-0.4-2-0.3c-0.7,0-1.3,0.1-2,0.3c-0.6,0.3-1.1,0.6-1.6,1c-0.4,0.5-0.8,0.9-1.2,1.5
		c-0.3,0.6-0.4,1.3-0.3,2c0,0.7,0.1,1.3,0.3,2c0.3,0.6,0.6,1.1,1.2,1.5c0.4,0.5,1,0.8,1.6,1c0.6,0.3,1.3,0.4,2,0.3
		c0.7,0,1.3-0.1,2-0.3c0.6-0.3,1.1-0.6,1.6-1c0.4-0.5,0.8-0.9,1.2-1.5c0.3-0.6,0.4-1.3,0.3-2c0-0.7-0.1-1.3-0.3-2
		C209.3,89.3,208.9,88.8,208.5,88.4L208.5,88.4z M208.8,93.6c-0.2,0.5-0.5,0.9-0.8,1.3c-0.4,0.4-0.8,0.6-1.3,0.8
		c-0.5,0.2-1.1,0.3-1.6,0.3c-0.6,0-1.1-0.1-1.6-0.3c-0.5-0.2-0.9-0.4-1.3-0.8c-0.4-0.4-0.7-0.8-1-1.3c-0.2-0.5-0.3-1.1-0.3-1.6
		c0-0.6,0.1-1.1,0.3-1.6s0.5-1,1-1.3c0.4-0.4,0.8-0.6,1.3-0.8c0.5-0.2,1.1-0.3,1.6-0.3c0.6,0,1.1,0.1,1.6,0.3
		c0.5,0.2,0.9,0.5,1.3,0.8c0.4,0.4,0.6,0.8,0.8,1.3s0.3,1.1,0.3,1.6C209.1,92.6,209,93.1,208.8,93.6L208.8,93.6z M229.5,95.3
		l-7.4-8.2l-0.5-0.4v9.7h0.8v-8.2l7.4,8.2l0.5,0.3v-9.8h-0.8V95.3z M48.9,40.2c-0.7-1-1.6-2-2.6-2.8c-0.9-0.7-1.9-1.4-3-2
		c-2.5-1.2-5.3-2-8.1-2.3c1.9-0.1,3.7-0.6,5.4-1.3c0.7-0.3,1.4-0.7,2-1.2c0.7-0.5,1.3-1,1.8-1.6c0.5-0.7,1-1.4,1.3-2.1
		c0.3-0.9,0.5-1.8,0.5-2.8c0-1.3-0.3-2.6-0.8-3.8c-0.6-1.2-1.4-2.3-2.5-3.1c-1.3-1-2.7-1.7-4.3-2.1c-1.9-0.6-3.9-0.8-5.9-0.8H19.6
		V15l4.5,1.5v47.1l-4.5,1.1v0.7h13.1c2.6,0,5.2-0.4,7.7-1.3c2.2-0.7,4.2-1.9,5.9-3.4c1.7-1.4,3-3.2,3.8-5.3c0.9-2,1.3-4.2,1.3-6.4
		c0-1.7-0.2-3.3-0.7-4.9C50.3,42.7,49.6,41.5,48.9,40.2L48.9,40.2z M30.3,16h2.6c2-0.1,3.9,0.7,5.3,2.1c1.4,1.8,2.1,4,2,6.2
		c0.2,2.3-0.5,4.5-2,6.2c-1.4,1.4-3.3,2.2-5.3,2.1h-2.6C30.3,32.6,30.3,16,30.3,16z M43.5,55.4C43,57,42.2,58.6,41.1,60
		c-1,1.2-2.2,2.2-3.6,2.8c-1.4,0.7-3,1-4.6,1h-2.6V34.2h2.6c1.6,0,3.2,0.4,4.6,1c1.4,0.6,2.6,1.6,3.6,2.8c1,1.4,1.9,3,2.5,4.6
		c0.7,2.1,1.1,4.2,1,6.4S44.1,53.3,43.5,55.4L43.5,55.4z M86.4,55.5c0-0.7,0.2-1.3,0.2-2h-0.7c-1.3,1.3-2.3,2.8-3.1,4.4
		c-0.8,1.7-1.3,3.6-1.3,5.6H66.9V39h6.9l3.3,6.6h0.7V31.1h-0.7l-3.3,6.6h-6.9V16h13.8c0,1.9,0.5,3.8,1.3,5.6
		c0.7,1.7,1.8,3.2,3.1,4.4h0.7c-0.1-0.6-0.2-1.3-0.2-2s-0.2-1.2-0.2-1.8v-4.4c0-0.6,0-1.2,0.2-1.8c0-0.7,0.2-1.2,0.2-1.5H56.2v0.7
		l4.4,1.2v47.1l-4.4,1.2v0.7h30.2c0.1-0.5,0.1-1,0-1.5c0-0.5-0.2-1.2-0.2-1.8v-4.4C86.4,56.9,86.5,56.2,86.4,55.5L86.4,55.5z
		 M121.7,63.7c0-0.5-0.2-1.2-0.2-1.8v-4.4c0-0.6,0-1.2,0.2-1.8c0-0.7,0.2-1.3,0.2-2h-0.7c-1.2,1.3-2.3,2.8-3,4.5
		c-0.8,1.7-1.2,3.6-1.3,5.6h-13.2V16.5l4.4-1.2v-0.8H93.2v0.7l4.4,1.2v47.1l-4.4,1.2v0.7h28.7C121.9,64.7,121.9,64.2,121.7,63.7
		L121.7,63.7z M144.2,42.1h7.2V46c0,3.1-0.2,6.2-0.8,9.2c-0.4,2.1-1,4.1-2,5.9c-0.7,1.3-1.6,2.3-2.8,3.1c-1,0.6-2.1,1-3.3,1
		s-2.4-0.4-3.4-1.2c-1.4-1.1-2.4-2.5-3.1-4.1c-1.2-2.4-1.9-5-2.3-7.7c-0.7-4.1-1.1-8.2-1-12.3c-0.1-4.1,0.3-8.1,1-12.2
		c0.5-2.7,1.3-5.3,2.5-7.8c1.3-3.1,4.4-5.1,7.7-5.1c2.4,0.1,4.7,1.2,6.1,3.1c2.1,2.7,3.6,5.8,4.4,9.2h1.1c-0.2-0.8-0.2-1.5-0.3-2.3
		c0-0.7-0.2-1.5-0.2-2.1v-4.6c0-0.7,0-1.4,0.2-2.1c0-0.7,0.2-1.5,0.2-2.1h-1.2c-0.8,0.3-1.5,0.6-2.1,1.2c-0.6,0.6-1.1,1.3-1.6,2
		c-0.6-0.6-1.3-1.3-2-1.8c-0.8-0.5-1.6-0.9-2.5-1.2c-1-0.4-2.1-0.6-3.1-0.7c-2.2,0-4.3,0.6-6.2,1.6c-2.1,1.3-4,2.9-5.5,4.9
		c-1.8,2.5-3.1,5.3-3.9,8.2c-1,3.8-1.5,7.7-1.5,11.7c-0.1,3.9,0.4,7.9,1.5,11.7c0.8,2.9,2.1,5.7,3.9,8.2c1.5,2,3.3,3.6,5.4,4.9
		c1.8,1.1,3.8,1.6,5.9,1.6c1.9,0,3.8-0.5,5.6-1.3c1.9-0.9,3.5-2.2,4.8-3.9c1.5-1.9,2.6-4.1,3.3-6.4c0.9-2.8,1.3-5.8,1.3-8.7v-5.4
		H144V42L144.2,42.1L144.2,42.1z M199.6,62.3c-0.2,0.3-0.5,0.7-0.7,1s-0.5,0.5-0.8,0.7c-0.3,0.2-0.5,0.3-0.8,0.3
		c-0.5,0-0.9-0.2-1.2-0.7c-0.4-0.6-0.6-1.3-0.7-2L194,49c-0.1-2-0.9-3.9-2.3-5.2c-1.2-1.2-2.7-2.2-4.3-3c-1.8-0.8-3.8-1.3-5.7-1.5
		c2.4-0.2,4.8-0.8,7.1-1.8c0.9-0.4,1.8-0.9,2.6-1.5s1.6-1.3,2.3-2.1c0.7-0.9,1.2-1.9,1.6-3c0.5-1.2,0.7-2.5,0.7-3.8
		c0-1.7-0.4-3.4-1.2-4.9c-0.8-1.6-1.9-2.9-3.3-3.9c-1.7-1.3-3.7-2.2-5.7-2.8c-2.6-0.7-5.3-1.1-8-1h-13.5v0.7l4.4,1.2v47.1l-4.4,1.2
		v0.7h14.9v-0.7l-4.4-1.2V40h3c1.4,0,2.9,0.1,4.3,0.5c1.1,0.3,2.1,0.9,3,1.7c0.8,0.8,1.4,1.7,1.8,2.8c0.5,1.3,0.9,2.7,1,4.1
		l1.5,12.6c0.2,1.3,0.8,2.4,1.8,3.3c1.1,1,2.6,1.5,4.1,1.5c0.8,0,1.7-0.1,2.5-0.5c0.6-0.2,1.2-0.6,1.6-1.2c0.5-0.5,1-1,1.3-1.6
		L199.6,62.3z M174.8,38.5V16h3c3.6,0,6.4,1,8.4,3s3,4.8,3,8.4s-1,6.4-3,8.4c-1.9,2-4.8,3-8.4,3h-3V38.5z M220.7,13.5h-1.2
		l-14.3,49.3l-4.8,1.8v0.7h11v-0.7l-4.8-1.8l3.6-12.3h14.9l3.9,13l-4.4,1.2v0.7h15.3v-0.7l-4.4-1.2L220.7,13.5z M210.9,49l6.9-24
		l7.2,24H210.9z M261.9,15.4l4.8,1.7l-10.3,37.3l-11.7-37.9l4.4-1.2v-0.8h-15.3v0.7l4.4,1.2l15.3,49.9h1.2L268.2,17l4.8-1.8v-0.7
		h-11v0.9H261.9z M274.6,15.4l4.4,1.2v47.1l-4.4,1.2v0.7h14.9v-0.7l-4.5-1.2V16.5l4.4-1.2v-0.8h-14.9v0.9H274.6z M327.8,63.5
		l-15.3-49.9h-1.1l-14.3,49.3l-4.8,1.8v0.7h11v-0.7l-4.8-1.8l3.6-12.3H317l3.9,13l-4.4,1.1v0.7H332v-0.7L327.8,63.5z M302.7,49
		l6.9-24l7.3,24H302.7z"/>
</g>
<g id="Layer_3" class="st1">
	<rect x="34" y="13.5" class="st3" width="283.5" height="83.2"/>
</g>
</svg>
