<?xml version="1.0" encoding="utf-8"?>
<!-- Generator: Adobe Illustrator 25.2.1, SVG Export Plug-In . SVG Version: 6.00 Build 0)  -->
<svg version="1.1" id="Layer_1" xmlns="http://www.w3.org/2000/svg" xmlns:xlink="http://www.w3.org/1999/xlink" x="0px" y="0px"
	 viewBox="0 0 352 110" style="enable-background:new 0 0 352 110;" xml:space="preserve">
<style type="text/css">
	.st0{fill:#FFFFFF;}
	.st1{display:none;}
	.st2{display:inline;fill:none;stroke:#606060;stroke-miterlimit:10;}
</style>
<g id="Layer_1_1_">
	<g>
		<path class="st0" d="M231.4,32.8l-0.1-17.7c0,0-0.3-2.6-3.8-1.3l-17.7,10.4l-14.9,8.5c-1,0.5-1.7,1.5-1.9,2.7
			c-0.1,0.4-0.1,0.8-0.1,1.3c0,2.4,0.3,37.6,0.3,37.6s0.3,3.3,2.6,2.4c2.3-0.8,17-9.5,17-9.5l17.4-10c0.9-0.5,1.5-1.4,1.4-2.4
			C231.5,53.1,231.4,32.8,231.4,32.8z M197.4,70.8l-0.2-34.2L227,19.3l0.1,34L197.4,70.8z"/>
		<path class="st0" d="M242.8,40V22.3c0,0-0.3-2.6-3.8-1.3l-17.7,10.3l-14.9,8.5c-1,0.5-1.7,1.5-1.9,2.7c-0.1,0.4-0.1,0.8-0.1,1.3
			c0,2.4,0.3,37.6,0.3,37.6s0.2,3.4,2.6,2.4c2.2-1,16.9-9.5,16.9-9.5l17.4-10c0.9-0.5,1.5-1.4,1.4-2.4C242.9,60.3,242.8,40,242.8,40
			z M208.8,78l-0.2-34.3l29.7-17.3l0.1,34L208.8,78z"/>
		<path class="st0" d="M254.2,46.1l-0.1-17.7c0,0-0.3-2.6-3.8-1.3l-17.5,10.3l-15,8.5c-1,0.5-1.8,1.5-2,2.7
			c-0.1,0.4-0.1,0.8-0.1,1.3c0,2.4,0.3,37.6,0.3,37.6s0.1,3.4,2.6,2.4c2.3-0.8,17-9.5,17-9.5l17.3-10c0.9-0.5,1.5-1.4,1.4-2.4
			C254.4,66.4,254.2,46.1,254.2,46.1z M220.3,84l-0.2-34.3l29.7-17.3l0.1,34L220.3,84z"/>
		<path class="st0" d="M265.4,52.5l-0.1-17.7c0,0-0.3-2.6-3.8-1.3l-17.7,10.4l-14.9,8.5c-1,0.5-1.7,1.5-1.9,2.7
			c-0.1,0.4-0.1,0.8-0.1,1.3c0,2.4,0.3,37.6,0.3,37.6s0.2,3.4,2.6,2.4c2.3-1,17-9.5,17-9.5l17.4-10c0.9-0.5,1.5-1.4,1.4-2.4
			C265.5,72.9,265.4,52.5,265.4,52.5z M231.5,90.4l-0.2-34.3L261,38.8l0.1,34L231.5,90.4z"/>
		<g id="_1st">
			<path class="st0" d="M174.5,35.4c-0.3-0.7-0.8-1.3-1.4-1.8c-0.9-0.4-2-0.4-2.9,0.1c-0.8,0.5-1.3,1.8-1.8,2.9
				c-0.5,1.2-0.3,0.8-0.3,1c-0.1,0.3-1.7,0.2-1.7,0.2l-1.2-0.4l0.1,0.1v-4h-1.8l-0.1,4.3c0,0-2.1,0.1-2.5,0.1
				c-0.3,0-0.6-0.1-0.8-0.3v-4l-0.2-0.1h-1.7v4.1l-5.8-0.1v-0.4c-0.1-0.8-0.4-1.6-0.8-2.3c-0.5-0.9-1.3-1.7-2.1-2.3l-1.2,1.3
				c0.9,0.8,1.7,1.6,2.3,2.6c0.5,0.8-0.5,1.3-0.5,1.3l-3.6-0.1l0.1,1.6c0,0,3.4,0,4.1-0.1c0.7-0.1,1-0.6,1.2-0.4
				c0.4,0.2,0.8,0.4,1.3,0.6h2.4c1.1,0.1,2.2,0,3.4-0.1c0.2-0.1,0.4-0.3,0.4-0.6l0.3,0.2c0.3,0.3,0.7,0.4,1.1,0.5
				c1.1,0,2.2,0,3.4-0.2c0.2-0.1,0.4-0.2,0.6-0.4c0.2,0.2,0.5,0.3,0.8,0.4c0.7,0.2,1.4,0.2,2.2,0.2c0.3,0,0.6-0.1,0.9-0.3l0.5-0.8
				l0.2,0.2c0.2,0.2,0.5,0.4,0.8,0.5l0.8,0.3c0.3,0.1,0.7,0.2,1,0.2l0.9-0.1l1.2-0.5l0.8-1.2l0.1-1.3
				C174.7,36.4,174.6,35.9,174.5,35.4z M173,37.3c-0.3,0.5-0.8,0.5-1.8,0.5c-0.6,0-1.1-0.2-1.6-0.5c0,0,0.7-1.3,0.9-1.7
				c0.1-0.2,0.3-0.3,0.5-0.4c0.9-0.3,1.1-0.1,1.6,0.4C173.2,36,173.4,36.7,173,37.3L173,37.3z"/>
			<circle class="st0" cx="158" cy="31.1" r="1"/>
			<circle class="st0" cx="160.2" cy="31" r="1"/>
			<circle class="st0" cx="164.3" cy="31.1" r="1"/>
			<path class="st0" d="M145,33.7l-0.3,1.8l-0.9-0.3c0,0-0.8-0.1-1.1-0.1c-0.3,0-0.7,0.3-0.6,0.8c0.1,0.4,0.3,0.7,0.6,0.9
				c0.5,0.3,0.9,0.7,1.3,1.2c0.4,0.4,0.6,0.9,0.6,1.4c0,0.7-0.3,1.4-0.9,1.8c-0.5,0.5-1,0.8-1.7,1c-1,0.2-1.9,0.3-2.9,0.3
				c-1.3,0-2.5-0.7-3.4-1.7c-0.6-0.7-0.9-1.7-0.8-2.6c-0.1-0.7,0.9-2.7,0.9-2.7l1.5,0.8h0.1c-0.3,0.5-0.5,1-0.6,1.6s0,1.2,0.3,1.8
				c0.4,0.5,0.9,0.8,1.5,1c0.8,0.1,1.6,0.1,2.4,0c0.6-0.1,1.1-0.3,1.5-0.7c0.3-0.4,0.7-0.7-0.1-1.4c-0.6-0.5-1.1-1.1-1.6-1.8
				c-0.4-1-0.1-2.2,0.7-2.9C142,33.3,144.2,33.2,145,33.7z"/>
		</g>
		<g id="_2nd">
			<polygon class="st0" points="126.5,28.6 128.2,28.5 128.2,39.4 126.6,39.4 			"/>
			<path class="st0" d="M122.1,28.5h1.6v10.8h-4.2c-0.4,0-0.7-0.1-1-0.3c-0.4-0.4-0.4-0.3-0.4-0.3s-0.6,0.4-0.8,0.5
				c-0.8,0-1.7,0-2.5,0c-0.3-0.2-0.7-0.3-1-0.5c-0.1-0.1-0.3,0.3-0.6,0.4c-0.8,0.1-1.7,0.1-2.5,0.1c-0.3-0.1-0.6-0.2-0.9-0.4
				c-0.1-0.1-0.6,0.3-0.6,0.3l-0.5,0.2h-6.3c-0.9-0.1-1.5-0.8-1.4-1.7v-9h1.6v8.3c0,0,0,0.7,0.4,0.8h4.9c0,0,0.4-0.1,0.4-0.4v-2.5
				h1.8v2.5c0,0,0.1,0.3,0.8,0.3h1.3c0.1,0,0.2-0.1,0.3-0.2c0.1-0.2,0-3.3,0-3.3h1.8l-0.1,2.9c0,0,0,0.6,1.1,0.6h1.4v-4.3h1.8v3.9
				c0,0,0.1,0.4,1,0.4h2.7L122.1,28.5"/>
			<circle class="st0" cx="112.5" cy="31.1" r="1"/>
			<circle class="st0" cx="114.5" cy="31.1" r="1"/>
			<circle class="st0" cx="113.5" cy="29" r="1"/>
			<path class="st0" d="M96.5,33.4h1.8v5.4c0,0-0.3,3.8-4.1,3.7v-1.8c0.6,0,1.1-0.1,1.7-0.3c0.5-0.4,0.7-0.9,0.6-1.5
				C96.6,38.1,96.5,33.4,96.5,33.4z"/>
			<path class="st0" d="M92,33.8c-0.6-0.5-1.3-0.7-2.1-0.7c-0.7,0-1.4,0.3-2,0.8c-0.6,0.6-1,1.5-1.1,2.3c-0.1,0.5,0.1,1.1,0.5,1.4
				c0,0-2.6,0.1-3,0.1S84,37.3,84,37.3v-5.1h-1.8v0.9l-0.3,0.1c-1.4,0.1-2.7,0.8-3.6,1.8c-0.4,0.6-0.6,1.3-0.5,2
				c0.1,0.8,1.1,1.4,1.6,1.7c0.2,0.1,0.5,0.2,0.8,0.2h0.7c0.5-0.1,1.1-0.2,1.6-0.4c0.2,0.6,0.7,0.9,1.3,0.9l9.1,0.1v-3.7
				C92.8,35.1,92.5,34.4,92,33.8z M82.2,36.9c-0.4,0.3-0.8,0.4-1.3,0.5c-0.4,0-0.9-0.1-1.3-0.3c-0.3-0.4-0.3-1,0-1.3
				c0.7-0.7,1.6-1.1,2.5-1.1v2.2H82.2z M90.1,37.7c-0.4,0-0.8-0.2-1.2-0.4c-0.2-0.2-0.3-0.4-0.4-0.7c-0.1-0.7,0.2-1.3,0.8-1.7
				c0.6-0.3,1.3-0.1,1.7,0.3c0.2,0.4,0.3,0.9,0.3,1.4v0.9C91.2,37.6,90.1,37.7,90.1,37.7z"/>
			<circle class="st0" cx="90.9" cy="31.1" r="1"/>
			<circle class="st0" cx="88.7" cy="31.1" r="1"/>
			<circle class="st0" cx="82.9" cy="30.7" r="1"/>
			<circle class="st0" cx="80.8" cy="30.7" r="1"/>
		</g>
		<g id="_3rd">
			<path class="st0" d="M168,60.1h-7.3v-1.7h3l0.1-6.2h1.8v6.2l1.9,0.1v-9.4h1.8v8.5c0,0,0,0.4,0.6,0.5s3,0.1,3,0.1v-9h1.8V60
				l-3.4-0.1c0,0-1.7,0.1-2.3-0.7C168.9,59.4,168.4,60.1,168,60.1"/>
			<path class="st0" d="M156.1,54.2v4.4c0,0,0.1-0.1-1.1,0s-1.3-0.5-1.3-0.5V55h-1.8v3.2c0,0.3-0.4,0.3-0.4,0.3h-0.9
				c-0.8,0-1.1-0.4-1.1-0.4v-2.5h-1.7v2.8c0,0.3-0.3,0.2-0.3,0.2s-4.8,0.1-5.9,0c-1.1-0.1-1.1-0.5-1.1-0.5v-3.8h-1.8v4.2l-0.2,0.1
				c-0.8,0-1.7,0-2.5,0c-0.7-0.1-0.8-0.5-0.8-0.5v-3.7h-1.7v3.3c0,1.3-0.3,1.1-0.3,1.1c-0.7,0-1.5,0-2.2,0c-0.4,0-0.7-0.1-0.9-0.4
				v-1.1c-0.1-1-0.6-1.9-1.3-2.4c-0.7-0.6-2.1-0.4-2.5-0.3c-0.5,0.2-1,0.5-1.3,0.8c-0.6,0.5-1.1,2.3-1.3,2.8s-0.6,0.5-0.6,0.5h-1.3
				c-0.3,0-0.3-0.7-0.3-0.7v-8.4h-1.7v9.2c0,0.8,0.6,1.4,1.3,1.5l2,0.1c0.3,0,0.6-0.1,0.8-0.3L124,60c0.3-0.1,0.5-0.3,0.8-0.6
				c0.5,0.4,1.1,0.7,1.8,0.8h1.3c0.2,0,0.5-0.1,0.7-0.2c0.1,0,0.1,0,0.2-0.1c0.3-0.1,0.5-0.3,0.8-0.6l0.2,0.1
				c0.4,0.4,0.8,0.6,1.3,0.8c1.1,0,2.2,0,3.4-0.2c0.2-0.1,0.4-0.3,0.6-0.5l0.2,0.1c0.4,0.3,0.9,0.5,1.3,0.5c0,0,2.8,0,3.1-0.1
				c0.3-0.1,0.6-0.6,0.6-0.6l0.3,0.3c0.3,0.2,0.6,0.4,0.9,0.4h7c0.4,0,0.9-0.6,0.9-0.6c0.3,0.3,0.7,0.5,1.2,0.6h1.9
				c0.4-0.1,0.7-0.2,1-0.5c0.4,0.3,0.8,0.4,1.3,0.5h3.4v-5.9L156.1,54.2z M128.4,57.9c-0.3,0.7-2.1,0.9-3.2-0.1
				c0.1-0.6,0.4-1.3,0.8-1.8c0.3-0.4,0.8-0.5,1.3-0.5c0.5,0.1,0.9,0.5,1.1,1C128.7,57,128.6,57.5,128.4,57.9L128.4,57.9z"/>
			<circle class="st0" cx="134.4" cy="49.9" r="1"/>
			<circle class="st0" cx="140.6" cy="51.8" r="1"/>
			<circle class="st0" cx="138.6" cy="51.7" r="1"/>
			<circle class="st0" cx="135.5" cy="51.8" r="1"/>
			<circle class="st0" cx="133.4" cy="51.7" r="1"/>
			<path class="st0" d="M115.1,54.2V60c0,0,0.1,1.4-2.2,1.5l0.1,1.8c0.5,0,1-0.1,1.5-0.3s2.2-0.9,2.4-2.4c0.2-2.1,0.3-4.2,0.2-6.4
				L115.1,54.2z"/>
		</g>
		<g id="_4th">
			<polygon class="st0" points="104.7,49.4 106.5,49.4 106.6,60.2 104.7,60.2 			"/>
			<polygon class="st0" points="100.3,49.3 102.1,49.3 102.1,60 92.4,60 92.3,58.5 95.7,58.5 95.7,52.2 97.3,52.2 97.3,58.4 
				100.3,58.4 			"/>
			<path class="st0" d="M97.8,48.8v0.8H97c0,0-0.4,0.2-0.4,0.5s0.2,0.5,0.4,0.5h0.9v1.1h-2.8v-1.1h0.6c0,0-0.3-0.5-0.2-0.8
				c0-0.4,0.2-0.7,0.6-0.9C96.7,48.8,97.3,48.8,97.8,48.8z"/>
			<path class="st0" d="M85.1,54.2l0.1,1.6c0.5-0.3,1-0.4,1.5-0.4c0.7,0.1,1.3,0.2,1.5,0.8c0.3,0.6,0.3,1.6,0.4,1.8
				c0.1,0.2,0.3,0.5,0.4,0.7l-5.9-0.2c0,0-0.7,0-0.7-0.3v-3.9h-1.6l-0.1,4c0,0.2-0.2,0.3-0.4,0.3h-2.5c0,0-0.4-0.2-0.4-0.5v-3.9
				h-1.7l-0.1,4c-0.1,0.1-0.1,0.2-0.3,0.3h-5.7c-0.2-0.1-0.3-0.3-0.3-0.5v-3.8h-2.8c0,0-2.3,0.3-2.4,2.2V60c-0.3,0.8-1,1.3-1.8,1.6
				c-0.9,0.1-1.8,0.1-2.8,0c0,0-1.6-0.5-1.8-1.7c-0.2-1.4,0-1.8,0.3-2.2l0.3-0.4L57,56.5c-0.5,0.4-0.8,0.9-0.9,1.4
				c0,0-0.4,2.3,0.3,3.4c0.6,0.9,1.5,1.5,2.5,1.8c1.1,0.3,2.2,0.4,3.4,0.2c0.9-0.1,1.7-0.5,2.3-1.2c0.5-0.5,0.8-1.1,1-1.8
				c0.1-0.6,0.1-3.4,0.1-3.4s0.3-0.9,0.7-1c0.4-0.1,0.9-0.1,1.3-0.1v2.8c0.1,0.5,0.4,0.9,0.8,1.3c0.2,0.2,0.4,0.3,0.7,0.3
				c0.3,0,4.6,0.1,6.2,0.1c0.4,0,0.9-0.1,1.3-0.3c0.1-0.1,0.2-0.1,0.3-0.2l0.2-0.2c0,0,0,0.3,1,0.3S81,60,81,60
				c0.4-0.1,0.7-0.3,0.9-0.6c0.3-0.4,0-0.1,0-0.1c0.2,0.3,0.5,0.6,0.9,0.6H91l-0.1-1.6c0,0-0.5,0.2-0.8-0.6s-0.2-2-0.3-2.3
				c-0.3-0.6-0.8-1.1-1.4-1.5C87.3,53.7,86.1,53.7,85.1,54.2z"/>
			<circle class="st0" cx="59.9" cy="64.9" r="1"/>
			<circle class="st0" cx="62.1" cy="64.9" r="1"/>
			<circle class="st0" cx="76.2" cy="62.1" r="1"/>
			<circle class="st0" cx="81.5" cy="51.7" r="1"/>
			<circle class="st0" cx="87.6" cy="62.1" r="1"/>
		</g>
		<g id="_5TH">
			<polygon class="st0" points="47.6,49.6 49.3,49.6 49.3,60.3 47.7,60.3 			"/>
			<path class="st0" d="M43.1,49.6v9h-2.5c0,0-0.8-0.1-0.9-0.3c-0.1-0.3,0.2-1.2-0.2-1.8s-0.9-1.8-1.6-1.9c-0.6-0.3-1.3-0.4-2-0.2
				c-0.8,0.3-1.5,0.9-1.9,1.6c-0.3,0.3-0.5,0.7-0.7,1.2c-0.2,0.7-0.1,1.1-0.3,1.2c-0.4,0.2-0.8,0.3-1.3,0.3c-0.6,0.1-1.1,0-1.7-0.2
				l-0.1-0.2v-3.9h-1.8v4.1c0,0.1-0.1,0.2-0.2,0.3h-2.1c0,0-0.2,0.2-0.2-1.1v-8h-1.8v9c0,0,0,1.6,1.5,1.6h3.4c0.3,0,0.5-0.2,0.8-0.3
				l0.3-0.3c0.3,0.4,0.8,0.6,1.3,0.7h1.8c0.4,0,0.7-0.2,1-0.4l0.5-0.4c0.2,0.2,0.5,0.4,0.8,0.6c0.5,0.2,1.1,0.4,1.7,0.3
				c0.7,0.1,1.3-0.1,1.8-0.5l0.4-0.3c0.3,0.2,0.5,0.4,0.8,0.6c0.2,0.2,0.5,0.3,0.8,0.3h4.1v-11H43.1z M38.1,57.8
				c0,0.4-0.3,0.7-0.8,0.8c-0.9,0.2-1.9,0.1-2.6-0.5c0-0.5,0.2-0.9,0.4-1.3c0.3-0.4,0.8-0.7,1.3-0.8s1.1,0.1,1.4,0.6
				C38.1,56.9,38.1,57.3,38.1,57.8z"/>
			<path class="st0" d="M30.2,62.1c0.1,0.6-0.3,1.1-0.8,1.2c-0.1,0-0.2,0-0.4,0c-0.4-0.1-0.7-0.4-0.8-0.8c-0.1-0.6,0.3-1.1,0.8-1.2
				c0.1,0,0.2,0,0.3,0C29.8,61.4,30.2,61.7,30.2,62.1z"/>
			<path class="st0" d="M2.2,54.4v5.7c0,0.5-0.2,0.9-0.6,1.2c-0.5,0.3-1,0.4-1.6,0.4l0.1,1.7c0.7,0,1.5-0.2,2.1-0.6
				c0.8-0.4,1.4-1.2,1.5-2.1c0.1-1.1,0.1-0.3,0.1-0.3h7.8c0.3-0.1,0.6-0.3,0.8-0.5l0.1-0.1c0.3,0.3,0.6,0.4,1,0.5h2.1
				c0.3,0,0.5-0.1,0.8-0.3c0.3-0.3,0.3-0.3,0.3-0.3c0.3,0.3,0.7,0.5,1.1,0.6c0.5,0.1,3.5,0,3.5,0l0.1-5.9h-1.7v4.2l-1.6,0.1
				c0,0-0.8,0.1-0.8-0.3s0-3.3,0-3.3h-1.8v3.4c0,0-0.2,0.3-1.1,0.3s-1.3,0-1.3-0.3S13,55.9,13,55.9h-1.6v2.8H4v-4.1L2.2,54.4z"/>
			<path class="st0" d="M17.1,49.8c0.1,0.6-0.3,1.1-0.8,1.2c-0.1,0-0.2,0-0.3,0c-0.4-0.1-0.7-0.4-0.8-0.8c-0.1-0.6,0.3-1.1,0.8-1.2
				c0.1,0,0.2,0,0.3,0C16.7,49.1,17,49.4,17.1,49.8z"/>
			<path class="st0" d="M16.1,51.7c0.1,0.6-0.3,1.1-0.8,1.2c-0.1,0-0.2,0-0.3,0c-0.4-0.1-0.7-0.4-0.8-0.8c-0.1-0.6,0.3-1.1,0.8-1.2
				c0.1,0,0.2,0,0.3,0C15.7,51.1,16,51.4,16.1,51.7z"/>
			<path class="st0" d="M18.1,51.7c0.1,0.6-0.3,1.1-0.8,1.2c-0.1,0-0.2,0-0.3,0c-0.4-0.1-0.7-0.4-0.8-0.8c-0.1-0.6,0.3-1.1,0.8-1.2
				c0.1,0,0.2,0,0.3,0C17.8,51.1,18.1,51.4,18.1,51.7z"/>
		</g>
		<path class="st0" d="M7.8,73.2l-1.1,1.3c-0.4-0.3-0.8-0.6-1.3-0.8c-0.5-0.2-1-0.2-1.4,0c-0.4,0.1-0.7,0.4-0.8,0.8
			c-0.2,0.3,0.1,0.7,0.2,0.8c0.3,0.3,0.7,0.6,1.2,0.7c0.7,0.1,1.4,0.3,2,0.6c0.5,0.3,1,0.8,1.3,1.3c0.2,0.6,0.3,1.3,0.3,1.9
			c0,0.5-0.3,1.1-0.7,1.4c-0.5,0.4-1,0.7-1.5,0.9c-0.7,0.2-1.4,0.3-2.1,0.3c-0.8,0-1.6-0.2-2.3-0.6c-0.4-0.3-0.9-0.6-1.3-1l1.2-1.3
			c0,0,0.9,0.6,1.3,0.8c0.6,0.3,1.2,0.4,1.8,0.3c0.4-0.2,0.7-0.5,1-0.8c0.2-0.5-0.1-1.1-0.6-1.3H4.9c-0.7-0.2-1.5-0.4-2.3-0.6
			c0,0-1.8-0.9-1.9-2c-0.2-0.8-0.1-1.7,0.3-2.4c0.5-0.7,1.3-1.2,2.1-1.3c1.1-0.2,2.2-0.1,3.2,0.3C6.9,72.6,7.4,72.9,7.8,73.2z"/>
		<polygon class="st0" points="11.6,72.2 11.6,82.2 13.7,82.2 13.7,78 18.4,78 18.4,82.2 20.5,82.2 20.5,72.2 18.3,72.2 18.3,76 
			13.7,76 13.7,72.1 		"/>
		<path class="st0" d="M29.7,72.2h-2.6l-3.7,10h2.5l0.6-2.3h3.8l0.8,2.3l2.4-0.1L29.7,72.2z M26.8,78.2l1.4-4.1l1.3,4.1H26.8z"/>
		<path class="st0" d="M41.8,78.2c0,0,1.4-1.1,1.6-2c0.1-0.6,0.1-1.1,0-1.7c0,0-0.3-2.4-2.3-2.4h-5v10.1h2.3v-3.7h1.4l1.8,3.8
			l2.4-0.1L41.8,78.2z M39.9,76.8h-1.8v-2.9h1.8c0.2,0,0.5,0.1,0.7,0.3c0.7,0.5,0.8,1.4,0.4,2c-0.1,0.2-0.3,0.3-0.4,0.4
			C40.4,76.7,40.2,76.8,39.9,76.8z"/>
		<path class="st0" d="M50.7,72.2h2.4v6.5c0,0.8-0.3,3-1.5,3.4c-1.1,0.5-2.3,0.5-3.4,0.1c-0.7-0.3-1.4-0.7-2-1.2l1.2-1.3
			c0,0,0.8,0.8,1.2,0.8c0.3,0,1.5,0.3,1.9-0.5C50.9,79.4,50.7,72.2,50.7,72.2z"/>
		<path class="st0" d="M62.1,72.2h-2.6l-3.7,10h2.5l0.6-2.3h3.8l0.8,2.3l2.4-0.1L62.1,72.2z M59.2,78.2l1.4-4.1l1.3,4.1H59.2z"/>
		<polygon class="st0" points="68.4,72.2 68.4,82.2 70.7,82.2 70.7,78 75.4,78 75.3,82.2 77.5,82.2 77.5,72.2 75.3,72.2 75.3,76 
			70.6,76 70.6,72.2 		"/>
		<polygon class="st0" points="85.4,72.2 85.4,82.2 87.7,82.2 87.7,78.3 91.1,78.3 91.1,76.5 87.6,76.5 87.6,74.1 92.1,74.1 
			92.1,72.2 		"/>
		<path class="st0" d="M103.4,73.9c-0.7-1.1-1.8-1.7-3.1-1.7c-1.8-0.1-5-0.1-5-0.1l0.1,10.1h4.9c0.9-0.1,1.8-0.4,2.6-0.9
			c0.8-0.6,1.3-1.4,1.5-2.3c0.1-0.9,0.1-1.9,0-2.8C104.2,75.3,103.9,74.6,103.4,73.9z M102,78.6c-0.1,0.4-0.3,0.8-0.7,1
			c-0.6,0.5-1.3,0.8-2.1,0.8h-1.7v-6.3h2.4c0.5,0,0.9,0.2,1.3,0.6c0.7,0.7,1,1.6,1,2.5C102.2,77.7,102.1,78.2,102,78.6z"/>
		<polygon class="st0" points="107.7,72.2 109.9,72.2 109.9,82.2 107.7,82.2 		"/>
		<polygon class="st0" points="117.9,72 117.9,82.1 120.2,82.2 120.2,78.2 123.6,78.2 123.6,76.4 120.1,76.4 120.1,73.9 124.6,73.9 
			124.6,72 		"/>
		<path class="st0" d="M146.8,78.3c0,0,1.4-1.1,1.6-2c0.1-0.6,0.1-1.1,0-1.7c0,0-0.3-2.4-2.3-2.4h-5v10.1h2.3v-3.8h1.4l1.8,3.8
			l2.4-0.1L146.8,78.3z M145.1,76.9h-1.8V74h1.8c0.2,0,0.5,0.1,0.7,0.3c0.7,0.5,0.8,1.4,0.4,2c-0.1,0.2-0.3,0.3-0.4,0.4
			C145.5,76.8,145.3,76.8,145.1,76.9z"/>
		<path class="st0" d="M132.6,71.9c-2.9,0-5.3,2.4-5.3,5.3s2.4,5.3,5.3,5.3c2.9,0,5.3-2.4,5.3-5.3C137.9,74.2,135.6,71.9,132.6,71.9
			L132.6,71.9z M132.6,80.4c-1.7-0.1-3.1-1.5-3-3.3c-0.1-1.7,1.2-3.2,3-3.3c0,0,0,0,0.1,0c1.7,0.1,3.1,1.5,3,3.3
			C135.6,78.8,134.3,80.3,132.6,80.4z"/>
		<path class="st0" d="M158.2,72.2h2.3v7c-0.1,0.5-0.2,0.9-0.5,1.3c-0.6,0.7-1.3,1.3-2.1,1.8c-1.1,0.2-2.2,0.2-3.4,0.1
			c0,0-2.4-1.1-2.5-3c-0.1-2.3,0-7.1,0-7.1h2.2v6.4c0,0,0.2,1.1,0.6,1.3c0.5,0.3,1,0.5,1.6,0.5s1.2-0.3,1.5-0.8
			c0.2-0.1,0.3-0.4,0.3-0.6L158.2,72.2L158.2,72.2z"/>
		<polygon class="st0" points="164.3,72.2 163.9,82.2 166,82.2 166.1,75.4 168.5,79.5 169.7,79.5 171.9,75.5 172.1,82.2 174.3,82.2 
			173.9,72.1 171.8,72.2 169.2,76.9 166.5,72.2 		"/>
	</g>
</g>
<g id="Layer_3" class="st1">
	<rect x="34" y="13.5" class="st2" width="283.5" height="83.2"/>
</g>
</svg>
