<?xml version="1.0" encoding="utf-8"?>
<!-- Generator: Adobe Illustrator 25.2.1, SVG Export Plug-In . SVG Version: 6.00 Build 0)  -->
<svg version="1.1" id="Layer_1" xmlns="http://www.w3.org/2000/svg" xmlns:xlink="http://www.w3.org/1999/xlink" x="0px" y="0px"
	 viewBox="0 0 352 110" style="enable-background:new 0 0 352 110;" xml:space="preserve">
<style type="text/css">
	.st0{fill:#FFFFFF;}
	.st1{opacity:0.2;fill:#FFFFFF;enable-background:new    ;}
	.st2{display:none;}
	.st3{display:inline;fill:none;stroke:#606060;stroke-miterlimit:10;}
</style>
<g id="Layer_1_1_">
	<g>
		<path class="st0" d="M103.6,41.2l-0.6,0.9c-0.8-0.6-1.8-0.9-2.7-0.9c-1.4,0-2.2,0.7-2.2,1.8c0,0.9,0.6,1.4,1.8,1.8l1.2,0.4
			c0.7,0.1,1.4,0.5,2,1c0.5,0.5,0.8,1.2,0.7,2c0,1.1-0.6,2.1-1.5,2.6c-0.7,0.5-1.6,0.7-2.4,0.7c-1.3,0-2.5-0.3-3.6-1l0.6-1
			c0.8,0.6,1.9,0.9,2.9,0.9c0.6,0.1,1.3-0.1,1.8-0.5s0.8-1,0.7-1.6c0-0.9-0.7-1.7-2-2.1l-1.1-0.4c-0.7-0.2-1.4-0.5-2-0.9
			c-0.5-0.5-0.7-1.2-0.7-1.8c0-1.9,1.4-3.2,3.6-3.2C101.4,40.1,102.6,40.5,103.6,41.2z"/>
		<path class="st0" d="M106.1,40.4h1.3V45h4.6v-4.6h1.3v11H112V46h-4.6v5.4h-1.3L106.1,40.4L106.1,40.4z"/>
		<path class="st0" d="M120.2,40.4l3.7,11h-1.5l-1-3.4h-4.1l-1,3.4H115l3.7-11H120.2z M117.6,46.9h3.4c0,0-0.8-2.7-1.1-3.7l-0.6-1.7
			l-0.6,1.6C118.7,43.4,117.6,46.9,117.6,46.9z"/>
		<path class="st0" d="M125.4,40.4h2.5c1-0.1,2,0.2,2.8,0.7c0.7,0.6,1.1,1.4,1.1,2.4c0.1,1.5-1,2.9-2.6,3c-0.1,0-0.2,0-0.3,0h-0.2
			c0.4,0.4,0.8,0.8,1.1,1.2c0.3,0.5,0.6,0.9,0.9,1.3l1.6,2.4h-1.7c-0.3-0.5-0.5-1-0.8-1.5c-0.7-1-1.4-2-2-2.7
			c-0.3-0.4-0.7-0.7-1.2-0.7v5h-1.3L125.4,40.4L125.4,40.4z M126.7,41.5v4.2h1.1c0.7,0.1,1.4-0.1,2-0.6c0.4-0.5,0.6-1.1,0.6-1.7
			c0-0.7-0.4-1.4-1-1.7c-0.4-0.2-0.9-0.2-1.4-0.2H126.7z"/>
		<path class="st0" d="M134.7,40.4h1.3v10.2c0,0.5-0.1,0.9-0.4,1.3c-0.4,0.7-1.1,1.2-1.9,1.4l-0.7-0.9c0.5-0.2,1-0.6,1.3-1
			c0.3-0.6,0.3-1.3,0.3-2L134.7,40.4L134.7,40.4z"/>
		<path class="st0" d="M142.9,40.4l3.7,11H145l-1-3.4h-4.1l-1.1,3.4h-1.3l3.7-11H142.9z M140.2,46.9h3.4c0,0-0.8-2.7-1.1-3.7
			l-0.6-1.7l-0.6,1.6C141.4,43.4,140.2,46.9,140.2,46.9z"/>
		<path class="st0" d="M148,40.4h1.3V45h4.6v-4.6h1.3v11h-1.3V46h-4.6v5.4H148V40.4z"/>
		<path class="st0" d="M163.6,40.4h1.3v11h-1.3V40.4z"/>
		<path class="st0" d="M167.7,40.4h1.5l3.7,7.1c0.4,0.7,1,2.2,1,2.2s-0.1-1.9-0.2-3.4l-0.1-6h1.3v11h-1.4l-3.7-6.7
			c-0.5-1-1-2.1-1.2-2.6c0.1,0.9,0.1,1.9,0.2,3l0.1,6.4h-1.4v-11H167.7z"/>
		<path class="st0" d="M176.6,40.4h1.4l2.4,7c0.3,0.9,0.6,2.2,0.7,2.5c0.1-0.3,0.3-1.1,0.7-2.3l2.4-7.2h1.3l-3.8,11h-1.3L176.6,40.4
			z"/>
		<path class="st0" d="M187.1,40.4h6l-0.2,1.1h-4.5v3.6h3.8v1.1h-3.8v4h4.9v1.1h-6.2V40.4z"/>
		<path class="st0" d="M201.6,41.2l-0.6,0.9c-0.8-0.6-1.8-0.9-2.7-0.9c-1.4,0-2.2,0.7-2.2,1.8c0,0.9,0.6,1.4,1.8,1.8l1.3,0.5
			c0.8,0.2,1.4,0.6,2,1.1c0.5,0.5,0.8,1.2,0.7,2c0,1.1-0.6,2.1-1.5,2.6c-0.7,0.5-1.6,0.7-2.4,0.7c-1.3,0-2.5-0.3-3.6-1l0.6-1
			c0.9,0.6,1.9,0.9,2.9,0.9c0.6,0.1,1.3-0.1,1.8-0.5s0.8-1,0.7-1.6c0-0.9-0.7-1.7-2-2.1l-1.1-0.4c-0.7-0.2-1.4-0.5-2-0.9
			c-0.5-0.5-0.7-1.2-0.7-1.8c0-1.8,1.4-3.2,3.6-3.2C199.5,40.2,200.7,40.5,201.6,41.2z"/>
		<path class="st0" d="M203.1,40.4h7.3l-0.1,1.1h-2.9v9.9h-1.2v-9.9h-2.9v-1.1H203.1z"/>
		<path class="st0" d="M212.8,40.4h2l2,7.2c0.2,0.7,0.3,1,0.5,2c0.2-0.9,0.3-1.2,0.4-1.8l2.1-7.3h2l0.9,11h-1.3l-0.7-8.1
			c-0.1-0.8-0.1-1.9-0.1-1.9c-0.1,0.6-0.2,1.1-0.5,1.7l-2.4,8.2h-1.1l-2.2-7.8c-0.2-0.8-0.4-1.4-0.6-2.2c0,0-0.1,1.5-0.1,2.2
			l-0.6,7.8H212L212.8,40.4z"/>
		<path class="st0" d="M224.6,40.4h6l-0.2,1.1H226v3.6h3.8v1.1H226v4h4.9v1.1h-6.2L224.6,40.4z"/>
		<path class="st0" d="M232.8,40.4h1.5l3.7,7.1c0.4,0.7,1,2.2,1,2.2s-0.1-1.9-0.2-3.4l-0.1-6h1.3v11h-1.3l-3.6-6.8
			c-0.5-1-1-2.1-1.2-2.6c0.1,0.9,0.1,1.9,0.2,3l0.1,6.4h-1.4V40.4z"/>
		<path class="st0" d="M241.9,40.4h7.3l-0.1,1.1h-3v9.9h-1.3v-9.9h-2.9V40.4z"/>
		<path class="st0" d="M259.2,40.4l3.7,11h-1.6l-1-3.4h-4.1l-1,3.4h-1.3l3.7-11H259.2z M256.6,46.9h3.4c0,0-0.8-2.7-1.1-3.7
			l-0.6-1.7l-0.6,1.6C257.6,43.4,256.6,46.9,256.6,46.9z"/>
		<path class="st0" d="M264.3,40.4h1.5l3.7,7.1c0.4,0.7,1,2.2,1,2.2s-0.1-1.9-0.2-3.4l-0.1-6h1.3v11h-1.4l-3.6-6.8
			c-0.5-1-1-2.1-1.2-2.6c0.1,0.9,0.1,1.9,0.2,3l0.1,6.4h-1.4L264.3,40.4L264.3,40.4z"/>
		<path class="st0" d="M274.4,40.4h2.2c1.3-0.1,2.5,0.1,3.6,0.8c1.2,0.9,1.9,2.5,1.9,4.6c0,2-0.5,3.3-1.2,4c-0.9,1-2.2,1.5-3.5,1.4
			h-2.9V40.4H274.4z M275.7,41.6v8.7h1.1c0.4,0,0.9,0,1.3-0.1c0.7-0.1,1.3-0.5,1.6-1c0.5-0.9,0.8-2,0.7-3c0-1.7-0.2-2.7-0.9-3.6
			c-0.7-0.8-1.7-1.2-2.7-1C276.8,41.6,275.7,41.6,275.7,41.6z"/>
		<path class="st0" d="M97.3,57.9h2.2c1.3-0.1,2.5,0.1,3.6,0.8c1.2,0.9,1.9,2.4,1.9,4.6c0,2-0.5,3.3-1.2,4c-0.9,1-2.2,1.5-3.5,1.4
			h-2.9L97.3,57.9z M98.6,59.1v8.7h1.1c0.4,0,0.9,0,1.3-0.1c0.7-0.1,1.3-0.5,1.6-1c0.5-0.9,0.8-2,0.7-3c0-1.7-0.2-2.7-0.9-3.6
			c-0.6-0.8-1.6-1.2-2.6-1H98.6z"/>
		<path class="st0" d="M107.4,57.9h6l-0.2,1.1h-4.6v3.6h3.8v1.1h-3.8v4h4.9v1.1h-6.2L107.4,57.9z"/>
		<path class="st0" d="M114.2,57.8h1.4l2.4,7c0.3,0.9,0.6,2.2,0.7,2.4c0.1-0.3,0.3-1.1,0.7-2.2l2.4-7.2h1.3l-3.8,11H118L114.2,57.8z
			"/>
		<path class="st0" d="M124.6,57.9h6l-0.2,1.1H126v3.6h3.8v1.1H126v4h4.9v1.1h-6.2L124.6,57.9L124.6,57.9z"/>
		<path class="st0" d="M132.9,57.8h1.3v10h4.3l-0.2,1.1h-5.5L132.9,57.8z"/>
		<path class="st0" d="M144.1,57.6c1.4,0,2.7,0.6,3.5,1.8c0.7,1.2,1.1,2.6,1,4c0,2.2-0.5,3.5-1.6,4.5c-0.8,0.7-1.8,1.1-2.8,1
			c-1.2,0-2.3-0.5-3.1-1.4c-0.9-1.2-1.4-2.8-1.3-4.3C139.7,59.8,141.4,57.6,144.1,57.6z M144.1,58.8c-1-0.1-1.9,0.5-2.4,1.3
			c-0.4,0.9-0.6,2-0.6,3c-0.1,1.3,0.2,2.6,0.7,3.8c0.5,0.8,1.4,1.3,2.4,1.2c0.8,0.1,1.6-0.3,2.1-0.9c0.6-0.7,0.9-1.6,0.9-3.4
			c0.1-1.2-0.1-2.4-0.6-3.5C146.2,59.4,145.2,58.8,144.1,58.8z"/>
		<path class="st0" d="M150.9,57.8h3c0.8-0.1,1.7,0.1,2.4,0.5c0.9,0.5,1.5,1.6,1.4,2.6c0.1,1-0.3,2-1,2.6c-0.7,0.7-1.7,1-2.6,0.9h-2
			v4.4h-1.3v-11L150.9,57.8z M152.2,59v4.4h1.8c0.6,0.1,1.2-0.1,1.7-0.6c0.4-0.4,0.6-1,0.6-1.6c0.1-0.7-0.2-1.4-0.7-1.8
			c-0.6-0.4-1.3-0.6-2.1-0.6h-1.4L152.2,59z"/>
		<path class="st0" d="M160.6,57.8h1.9l2,7.2c0.2,0.7,0.3,1,0.5,2c0.2-0.9,0.3-1.2,0.4-1.8l2.1-7.3h2l0.9,11h-1.3l-0.7-8.1
			c-0.1-0.6-0.1-1.2-0.1-1.8c-0.1,0.6-0.2,1.1-0.5,1.7l-2.4,8.2h-1.1l-2.2-7.8c-0.2-0.9-0.4-1.4-0.6-2.2c0,0-0.1,1.5-0.1,2.2
			l-0.6,7.8h-1.3L160.6,57.8z"/>
		<path class="st0" d="M172.4,57.9h6l-0.2,1.1h-4.5v3.6h3.8v1.1h-3.8v4h4.9v1.1h-6.2V57.9L172.4,57.9z"/>
		<path class="st0" d="M180.6,57.9h1.5l3.7,7c0.4,0.8,1,2.3,1,2.3s-0.1-1.8-0.2-3.4l-0.1-6h1.3v11h-1.4l-3.5-6.7
			c-0.5-1-1-2.1-1.2-2.6c0.1,0.9,0.1,1.9,0.2,3l0.1,6.4h-1.4L180.6,57.9L180.6,57.9z"/>
		<path class="st0" d="M189.7,57.8h7.3l-0.1,1.1h-3v9.9h-1.3V59h-2.9V57.8z"/>
		<path class="st0" d="M207,57.8l3.7,11h-1.5l-1-3.4H204l-1,3.4h-1.3l3.7-11C205.4,57.8,207,57.8,207,57.8z M204.3,64.4h3.4
			c0,0-0.9-2.7-1.1-3.7L206,59l-0.6,1.6C205.5,60.8,204.3,64.4,204.3,64.4L204.3,64.4z"/>
		<path class="st0" d="M211.6,57.8h1.3v7c0,0.7,0.1,1.4,0.1,1.7c0.2,0.9,1,1.3,2.3,1.3c0.7,0,1.4-0.2,2-0.7c0.4-0.5,0.4-0.8,0.4-1.8
			v-7.5h1.3v7.7c0,1.6-0.2,2.1-0.9,2.7c-0.8,0.6-1.9,0.9-2.9,0.9c-1.7,0-2.7-0.6-3.3-1.6c-0.3-0.5-0.3-0.7-0.3-2L211.6,57.8
			L211.6,57.8z"/>
		<path class="st0" d="M220.5,57.8h7.3l-0.1,1.1h-3v9.9h-1.2V59h-2.9v-1.1h-0.1V57.8z"/>
		<path class="st0" d="M229.5,57.8h1.3v4.6h4.6v-4.6h1.3v11h-1.3v-5.3h-4.6v5.4h-1.3V57.8z"/>
		<path class="st0" d="M243.5,57.6c1.4,0,2.7,0.6,3.5,1.8c0.7,1.2,1.1,2.6,1,4c0,2.2-0.5,3.5-1.6,4.5c-0.8,0.7-1.8,1.1-2.8,1
			c-1.2,0-2.3-0.5-3.1-1.4c-0.9-1.2-1.4-2.8-1.3-4.3C239.1,59.8,240.8,57.6,243.5,57.6z M243.5,58.8c-1,0-1.9,0.5-2.3,1.3
			c-0.4,0.9-0.6,2-0.6,3c-0.1,1.3,0.2,2.6,0.7,3.8c0.5,0.8,1.4,1.2,2.4,1.2c0.8,0.1,1.6-0.3,2.1-0.9c0.6-0.7,0.9-1.6,0.9-3.4
			c0.1-1.2-0.1-2.4-0.6-3.5C245.7,59.4,244.7,58.7,243.5,58.8z"/>
		<path class="st0" d="M250.3,57.9h2.5c1-0.1,2,0.2,2.8,0.7c0.7,0.6,1.1,1.4,1.1,2.4c0.1,1.5-1,2.9-2.6,3c-0.1,0-0.2,0-0.4,0h-0.2
			c0.4,0.4,0.8,0.8,1.1,1.2c0.3,0.5,0.6,0.9,0.9,1.3l1.6,2.4h-1.7c-0.3-0.5-0.5-1-0.9-1.5c-0.7-1-1.4-2-2-2.7
			c-0.3-0.4-0.7-0.7-1.2-0.7v5H250L250.3,57.9L250.3,57.9z M251.6,59v4.1h1.1c0.7,0.1,1.4-0.1,2-0.6c0.4-0.5,0.6-1.1,0.6-1.7
			c0-0.7-0.4-1.4-1-1.7c-0.4-0.2-0.9-0.2-1.4-0.2h-1.3V59z"/>
		<path class="st0" d="M259.5,57.8h1.3v11h-1.3V57.8z"/>
		<path class="st0" d="M262.7,57.8h7.3l-0.1,1.1h-3v9.9h-1.2V59h-2.9L262.7,57.8L262.7,57.8z"/>
		<path class="st0" d="M270.7,57.8h1.6l2,4.3c0.2,0.4,0.4,0.8,0.6,1.2c0.2-0.4,0.4-0.8,0.6-1.2l2.2-4.2h1.5l-3.6,6.8V69h-1.4v-4.4
			L270.7,57.8z"/>
		<path class="st0" d="M32.3,33.7l0.9-10.2v-5.3c0-0.1-0.1-0.2-0.2-0.2h-1.6c-0.1,0-0.2,0.1-0.2,0.2v5.4L32,33.7
			C32,33.8,32.3,33.8,32.3,33.7z M28.3,33.7l0.9-8.2v-4.2c0-0.1-0.1-0.2-0.2-0.2h-1.6c-0.1,0-0.2,0.1-0.2,0.2v4.2l0.9,8.2
			c0,0.1,0.1,0.1,0.1,0.1C28.3,33.8,28.3,33.8,28.3,33.7L28.3,33.7z M36.1,33.7L37,23.5v-5.3c0-0.1-0.1-0.2-0.2-0.2h-1.6
			c-0.1,0-0.2,0.1-0.2,0.2v5.4l0.9,10.2C35.9,33.8,36.1,33.8,36.1,33.7z M24.5,33.9l0.7-5.7V24c0-0.1-0.1-0.2-0.2-0.2h-1.5
			c-0.1,0-0.2,0.1-0.2,0.2v4.1l0.7,5.7c0,0.1,0,0.2,0.1,0.2C24.3,34.1,24.4,34,24.5,33.9L24.5,33.9z M20.6,34.2l0.7-5.6l0,0
			c0-0.1-0.1-0.2-0.2-0.2h-1.4c-0.1,0-0.2,0.1-0.2,0.2l0,0l0.7,5.6C20.1,34.4,20.5,34.4,20.6,34.2z M40.1,33.7l0.9-8.2v-4.2
			c0-0.1-0.1-0.2-0.2-0.2h-1.6c-0.1,0-0.2,0.1-0.2,0.2v4.2l0.8,8.2C39.8,33.8,39.9,33.8,40.1,33.7C40,33.7,40,33.7,40.1,33.7z
			 M47.9,34.2l0.8-5.6l0,0c0-0.1-0.1-0.2-0.2-0.2H47c-0.1,0-0.2,0.1-0.2,0.2l0,0l0.7,5.6C47.6,34.4,47.9,34.4,47.9,34.2z M44.1,33.9
			l0.7-5.7V24c0-0.1-0.1-0.2-0.2-0.2H43c-0.1,0-0.2,0.1-0.2,0.2v4.1l0.8,5.7C43.6,34.1,44,34.1,44.1,33.9z M48.7,42.4l-0.8-5.6
			c0-0.3-0.4-0.3-0.5,0l-0.7,5.6l0,0c0,0.1,0.1,0.2,0.2,0.2h1.4C48.6,42.7,48.7,42.6,48.7,42.4z M20.6,36.8c0-0.3-0.4-0.3-0.5,0
			l-0.7,5.6l0,0c0,0.1,0.1,0.2,0.2,0.2H21c0.1,0,0.2-0.1,0.2-0.2l0,0L20.6,36.8z M24.1,37.2l-0.7,5.7V47c0,0.1,0.1,0.2,0.2,0.2h1.6
			c0.1,0,0.2-0.1,0.2-0.2v-4.1l-0.8-5.7C24.5,36.9,24.2,36.9,24.1,37.2z M32,37.3l-0.8,10.1v5.4c0,0.1,0.1,0.2,0.2,0.2H33
			c0.1,0,0.2-0.1,0.2-0.2v-5.4l-0.9-10.2C32.3,37.2,32.1,37.2,32,37.3z M39.8,37.3L39,45.5v4.1c0,0.1,0.1,0.2,0.2,0.2h1.6
			c0.1,0,0.2-0.1,0.2-0.2v-4.1l-0.9-8.2C40.1,37.2,39.9,37.2,39.8,37.3z M35.9,37.3L35,47.4v5.4c0,0.1,0.1,0.2,0.2,0.2h1.6
			c0.1,0,0.2-0.1,0.2-0.2v-5.4l-0.8-10.2C36.2,37.2,35.9,37.2,35.9,37.3z M28,37.3l-0.9,8.2v4.1c0,0.1,0.1,0.2,0.2,0.2H29
			c0.1,0,0.2-0.1,0.2-0.2v-4.1l-0.9-8.2C28.4,37.2,28.2,37.2,28,37.3z M43.6,37.2l-0.8,5.7V47c0,0.1,0.1,0.2,0.2,0.2h1.6
			c0.1,0,0.2-0.1,0.2-0.2v-4.1l-0.7-5.7C44.1,36.9,43.7,36.9,43.6,37.2z"/>
		<path class="st0" d="M51.3,35.4l-7.5-0.3H24.2l-7.5,0.3c-0.1,0-0.2,0-0.2,0.1s0,0.2,0.1,0.2h0.1l7.5,0.3h19.6l7.5-0.3
			c0.1,0,0.2,0,0.2-0.1C51.6,35.5,51.5,35.4,51.3,35.4C51.4,35.4,51.4,35.4,51.3,35.4z"/>
		<path class="st1" d="M0.9,91c0.7,0.1,1.4,0.2,2.2,0.2c1.1,0.1,2.1-0.2,3-0.9C6.7,89.8,7,89,7,88.2c0-0.6-0.2-1.1-0.5-1.6
			c-0.6-0.7-1.3-1.3-2.2-1.6l-0.7-0.4c-0.4-0.2-0.9-0.5-1.2-0.9c-0.2-0.2-0.3-0.4-0.3-0.7c0-0.3,0.1-0.6,0.4-0.7
			c0.4-0.3,0.8-0.4,1.3-0.4s1.1,0.1,1.6,0.3l0.8,0.3c0.1,0,0.1,0,0.1-0.1l0,0V81c0-0.1,0-0.1-0.1-0.1l-0.8-0.2l0,0
			c-0.6-0.1-1.2-0.2-1.8-0.2c-0.9,0-1.8,0.3-2.5,0.8c-0.5,0.5-0.8,1.2-0.9,2c0,0.6,0.2,1.2,0.6,1.6c0.6,0.6,1.3,1.1,2,1.5l0.7,0.4
			c0.4,0.2,0.8,0.5,1.2,0.9c0,0.2,0.1,0.5,0.1,0.7c0,0.4-0.2,0.7-0.5,0.9c-0.4,0.3-0.8,0.4-1.3,0.4c-0.3,0-0.7,0-1-0.1
			c-0.4,0-0.7-0.1-1-0.2"/>
		<path class="st0" d="M16.5,81h-2c-0.1,0-0.1,0-0.1,0.1V85c0,0.1,0,0.1-0.1,0.1h-3.9c-0.1,0-0.1,0-0.1-0.1v-4c0-0.1,0-0.1-0.1-0.1
			H8.3c-0.1,0-0.1,0-0.1,0.1v9.9c0,0.1,0,0.1,0.1,0.1h2c0.1,0,0.1,0,0.1-0.1v-4.4c0-0.1,0-0.1,0.1-0.1l0,0h4c0,0,0.1,0,0.1,0.1v4.4
			c0,0.1,0,0.1,0.1,0.1h2c0.1,0,0.1,0,0.1-0.1L16.5,81z M43.4,81.3c-1.7-0.9-3.8-0.9-5.5,0c-0.8,0.4-1.4,1-1.8,1.8
			c-0.4,0.9-0.6,1.8-0.6,2.7c0,0.9,0.2,1.9,0.6,2.7c0.4,0.8,1,1.5,1.8,1.9c1.7,0.9,3.8,0.9,5.5,0c0.8-0.5,1.4-1.1,1.8-1.9
			c0.4-0.9,0.6-1.8,0.6-2.7c0-0.9-0.2-1.9-0.6-2.7C44.8,82.4,44.2,81.7,43.4,81.3z M42.9,88.6c-0.4,0.8-1.3,1.2-2.2,1.2
			c-0.9,0.1-1.7-0.4-2.2-1.2c-1-1.7-1-3.8,0-5.5c0.4-0.8,1.3-1.2,2.2-1.2c0.9-0.1,1.7,0.4,2.2,1.2C43.9,84.8,43.9,86.9,42.9,88.6z
			 M67.6,83.1c-0.4-0.8-1-1.4-1.8-1.8c-1.7-0.9-3.8-0.9-5.5,0c-0.8,0.4-1.4,1-1.8,1.8c-0.4,0.9-0.6,1.8-0.6,2.7
			c0,0.9,0.2,1.9,0.6,2.7c0.4,0.8,1,1.5,1.8,1.9c0.8,0.5,1.8,0.7,2.7,0.7c0.3,0,0.6,0,0.9-0.1l0.6,0.9h2.3l-1-1.4
			c0.1,0,0.1,0,0.1-0.1c0.7-0.5,1.3-1.1,1.7-1.9c0.4-0.9,0.6-1.8,0.6-2.7C68.1,85,68,84,67.6,83.1L67.6,83.1z M65.2,88.8
			c-0.1,0.1-0.2,0.3-0.3,0.4c-0.1,0.1-0.1,0.2-0.2,0.3l-0.7-1h-1.7l0.8,1.3h-0.3c-0.8,0-1.6-0.5-2-1.2c-1-1.7-1-3.8,0-5.5
			c0.4-0.8,1.3-1.2,2.2-1.2c0.9,0,1.7,0.4,2.2,1.2c0.5,0.8,0.8,1.8,0.7,2.7C66,86.9,65.7,87.9,65.2,88.8L65.2,88.8z M54.5,81.3
			c-1.7-0.9-3.8-0.9-5.5,0c-0.8,0.4-1.4,1-1.8,1.8c-0.4,0.9-0.6,1.8-0.6,2.7c0,0.9,0.2,1.9,0.6,2.7c0.4,0.8,1,1.5,1.8,1.9
			c1.7,0.9,3.8,0.9,5.5,0c0.8-0.4,1.4-1.1,1.8-1.9c0.4-0.9,0.6-1.8,0.6-2.7c0-0.9-0.2-1.9-0.6-2.7C56,82.3,55.3,81.7,54.5,81.3z
			 M54.1,88.6c-0.4,0.8-1.2,1.2-2.1,1.3c-0.9,0.1-1.8-0.4-2.2-1.3c-1-1.7-1-3.8,0-5.5c0.5-0.7,1.3-1.2,2.2-1.1
			c0.9-0.1,1.7,0.4,2.2,1.2C54.7,84,55,85,55,85.9C54.8,86.9,54.5,87.8,54.1,88.6z M26,81h-1.7c-0.1,0-0.1,0-0.1,0.1v6.2
			c0.1,0.7-0.1,1.5-0.6,2.1c-0.4,0.4-0.9,0.6-1.4,0.6c-0.6,0-1.1-0.2-1.5-0.6c-0.5-0.7-0.7-1.5-0.6-2.2V81c0,0,0-0.1-0.1-0.1h-1.9
			c-0.1,0-0.1,0-0.1,0.1l0,0v6.1c-0.1,0.9,0.1,1.8,0.6,2.5c0.3,0.5,0.8,0.9,1.4,1.2c0.7,0.3,1.4,0.4,2.2,0.4c0.7,0,1.4-0.2,2.1-0.5
			c0.5-0.2,1-0.7,1.3-1.2c0.4-0.8,0.5-1.7,0.5-2.5L26,81L26,81z M32.6,86.5C32.5,86.5,32.5,86.4,32.6,86.5c1.2-0.4,2-1.6,1.9-2.8
			c0-1.3-0.9-2.7-3.1-2.7h-3.7c-0.1,0-0.1,0-0.1,0.1V91c0,0.1,0,0.1,0.1,0.1h1.8c0,0,0.1,0,0.1-0.1v-4c0-0.1,0-0.1,0.1-0.1h0.7
			c0.1,0,0.1,0,0.1,0.1l2.6,4l0.1,0.1h2.4c0,0,0.1,0,0-0.1L32.6,86.5z M30.2,85.5h-0.4c-0.1,0-0.1,0-0.1-0.1v-3c0-0.1,0-0.1,0.1-0.1
			h0.7c0.4-0.1,0.9,0,1.3,0.2c0.5,0.2,0.9,0.7,0.8,1.3C32.5,85.1,31.5,85.5,30.2,85.5z M4.3,85.1l-0.7-0.4c-0.4-0.2-0.9-0.5-1.2-0.9
			c-0.2-0.2-0.3-0.4-0.3-0.7c0-0.3,0.1-0.6,0.4-0.7C2.9,82.1,3.3,82,3.8,82c0.8,0.1,1.7,0.3,2.4,0.6c0.1,0,0.1,0,0.1-0.1l0,0v-1.4
			c0-0.1,0-0.1-0.1-0.1c-0.9-0.2-1.7-0.3-2.6-0.4c-0.9,0-1.8,0.3-2.5,0.8c-0.5,0.5-0.8,1.2-0.9,2c0,0.6,0.2,1.1,0.5,1.6
			c0.6,0.6,1.3,1.1,2,1.5l0.7,0.4c0.4,0.2,0.8,0.5,1.2,0.9c0,0.2,0.1,0.5,0.1,0.7c0,0.4-0.2,0.7-0.5,0.9c-0.3,0.3-0.9,0.6-2.4,0.3
			c-0.6-0.1-1.2-0.3-1.7-0.6c-0.1,0-0.1,0-0.1,0.1v1.6c0,0.1,0,0.1,0.1,0.1c0.9,0.2,1.8,0.3,2.7,0.3c1.1,0.1,2.1-0.2,3-0.8
			c0.6-0.5,0.9-1.3,0.9-2.1c0-0.6-0.2-1.1-0.4-1.6C6.2,86.2,5.5,85.7,4.3,85.1z"/>
		<path class="st0" d="M6.7,61.1c0.7,0.1,1.3-0.5,1.4-1.2c0,0,0,0,0-0.1c0-0.7-0.5-1.2-1.2-1.2H6.8c-0.7,0-1.2,0.5-1.2,1.2
			C5.5,60.5,6,61.1,6.7,61.1L6.7,61.1z M11.7,63H8.8c-1.3,0-2.6,0.5-3.6,1.4c-0.9,1-1.4,2.3-1.3,3.7c0,2.6,1.4,4.2,3.6,4.2
			c0.8,0,1.5-0.1,2.2-0.3c-0.1,2.1-1.1,3.1-3.2,3.1c-3,0-4.5-1.8-4.5-5.3v-1c0-0.1,0-0.1-0.1-0.1l0,0H0.2c-0.1,0-0.1,0-0.2,0.1v1
			c0,4.2,2.2,6.6,6.4,6.6c3.7,0,5.5-1.5,5.5-4.6V63C11.9,63,11.8,63,11.7,63z M9.7,70.3c-0.5,0.2-1.1,0.3-1.7,0.3
			c-1.3,0-2-0.9-2-2.8c0-2.3,0.8-3.4,2.5-3.4h0.9c0.1,0,0.2,0.1,0.2,0.2L9.7,70.3z M10.1,61.1c0.7,0.1,1.3-0.4,1.3-1.1
			s-0.4-1.3-1.1-1.3c-0.1,0-0.1,0-0.2,0c-0.7,0-1.3,0.5-1.3,1.2S9.3,61.1,10.1,61.1C10,61.1,10,61.1,10.1,61.1z"/>
		<path class="st0" d="M21.3,63.2h-3.1c-1.3-0.1-2.6,0.5-3.4,1.5c-0.8,1-1.2,2.3-1.2,3.6c0,1,0.3,2.1,0.9,2.9C15,72,16,72.5,17,72.5
			c0.8,0,1.6-0.1,2.3-0.3c-0.2,2-1.1,3.2-2.7,3.6c-0.1,0-0.1,0.1-0.1,0.2c0.1,0.2,0.2,0.4,0.3,0.7l0,0c0,0.1,0.1,0.1,0.2,0.1l0,0
			c2.8-0.7,4.3-2.5,4.3-5.5v-7.8C21.4,63.3,21.4,63.2,21.3,63.2z M19.4,70.7c-0.6,0.2-1.2,0.3-1.8,0.4c-1.3,0-2-1-2-3.1
			c0-2.2,0.9-3.5,2.6-3.5h0.9c0.1,0,0.2,0.1,0.2,0.2L19.4,70.7z"/>
		<path class="st0" d="M61.4,59.9c0,0.7,0.5,1.2,1.2,1.2c0,0,0,0,0.1,0c0.7,0,1.3-0.5,1.3-1.2l0,0c0-0.7-0.5-1.2-1.2-1.2h-0.1
			C61.9,58.7,61.4,59.2,61.4,59.9z M61,57.9c0.7,0,1.2-0.5,1.2-1.2c0,0,0,0,0-0.1c0-0.7-0.5-1.2-1.2-1.2s-1.2,0.5-1.2,1.2l0,0
			c-0.1,0.6,0.4,1.1,1,1.2C60.8,57.9,60.9,57.9,61,57.9z M59.3,61.2c0.7,0.1,1.3-0.4,1.3-1.1c0.1-0.7-0.4-1.3-1.1-1.3
			c-0.1,0-0.1,0-0.2,0c-0.7,0-1.3,0.5-1.3,1.2C58.1,60.6,58.7,61.2,59.3,61.2z"/>
		<path class="st0" d="M53.4,71.8c0.8,0,1.6-0.2,2.2-0.8c0.2-0.1,0.3-0.3,0.4-0.5c0.7,0.8,1.8,1.2,2.8,1.2c1,0.1,2-0.4,2.5-1.2
			c0.7,0.8,1.7,1.2,2.8,1.2c1.6,0.1,2.9-1.1,3-2.7c0-0.1,0-0.2,0-0.3v-5.6c0-0.1-0.1-0.1-0.2-0.1l-2.2,0.5c-0.1,0-0.1,0.1-0.1,0.2
			l0.4,2.4v2.3c0,1.1-0.5,1.6-1.5,1.6c-0.7,0-1.3-0.3-1.8-0.7V64c0-0.1-0.1-0.1-0.2-0.1l-1.8,0.4c-0.1,0-0.2,0.1-0.2,0.2v3.8
			c0,1.1-0.5,1.6-1.5,1.6c-0.7,0-1.4-0.3-1.9-0.7V64c0-0.1-0.1-0.1-0.2-0.1l-1.8,0.4c-0.1,0-0.2,0.1-0.2,0.2v3.8
			c0,1.1-0.5,1.6-1.5,1.6H27.8c-1,0-1.5-0.6-1.5-1.7v-5.1c0-0.1-0.1-0.1-0.2-0.1L24,63.6l0,0c-0.1,0-0.1,0.1-0.1,0.2l0,0l0.4,2.6
			v5.2c0.1,1.8-1,3.4-2.7,4c-0.1,0-0.1,0.1-0.1,0.2l0.4,0.6c0,0.1,0.1,0.1,0.2,0.1c2.5-0.7,4-2.3,4.3-4.5v-0.1h0.2
			c0.2,0,0.6,0.1,0.9,0.1L53.4,71.8z"/>
	</g>
</g>
<g id="Layer_3" class="st2">
	<rect x="34" y="13.5" class="st3" width="283.5" height="83.2"/>
</g>
</svg>
