<svg id="Layer_3" data-name="Layer 3" xmlns="http://www.w3.org/2000/svg" viewBox="0 0 321.97 320.37"><defs><style>.cls-1{fill:#d3dbdd;}.cls-2{fill:#30241c;}.cls-3{fill:#e3204a;}.cls-4{fill:#fff;}.cls-5{fill:#bac4c6;}</style></defs><title>branding-comm</title><rect class="cls-1" x="130.97" width="191" height="48.37"/><path class="cls-2" d="M318,52.37v264H135v-264H318m4-4H131v272H322v-272Z"/><path class="cls-3" d="M163.3,24.21a7.84,7.84,0,1,1-7.83-7.84A7.84,7.84,0,0,1,163.3,24.21Z"/><rect class="cls-2" x="257.72" y="14.04" width="48.5" height="4"/><rect class="cls-2" x="258.47" y="29.79" width="31.5" height="4"/><rect class="cls-1" x="33.94" y="0.02" width="73.03" height="73.03"/><circle class="cls-3" cx="70.45" cy="36.54" r="14.83"/><rect class="cls-2" x="47.25" y="34.54" width="46.41" height="4" transform="translate(-5.2 60.52) rotate(-45)"/><path class="cls-2" d="M33.87,70.29a33.88,33.88,0,0,1,0-67.75v4a29.88,29.88,0,0,0,0,59.75Z"/><path class="cls-3" d="M33.87,50.92a14.51,14.51,0,0,1,0-29"/><path class="cls-4" d="M33.87,41a4.63,4.63,0,0,1,0-9.25"/><rect class="cls-3" x="1.97" y="96.04" width="64" height="31.02"/><path class="cls-2" d="M116,145.22H48v-35h68Zm-64-4h60v-27H52Z"/><rect class="cls-1" x="17.97" y="160.53" width="64" height="31.02"/><circle class="cls-3" cx="35.25" cy="176.37" r="6"/><rect class="cls-2" x="54.05" y="174.04" width="11.59" height="4"/><rect class="cls-5" x="31.56" y="208.04" width="146.41" height="81.66"/><polygon class="cls-2" points="104.77 265.2 30.37 209.64 32.76 206.44 104.77 260.21 176.77 206.44 179.16 209.64 104.77 265.2"/><rect class="cls-2" x="24.75" y="267.54" width="68.52" height="4" transform="translate(-149.55 88.89) rotate(-36.75)"/><rect class="cls-2" x="148.51" y="235.27" width="4" height="68.53" transform="translate(-155.51 228.86) rotate(-53.25)"/><rect class="cls-2" x="210.11" y="261.05" width="111.73" height="4" transform="translate(-108.1 265.12) rotate(-45)"/><polygon class="cls-2" points="307.48 240.04 303.48 240.04 303.48 225.55 289.97 225.55 289.97 221.55 307.48 221.55 307.48 240.04"/><polygon class="cls-2" points="241.97 305.53 224.47 305.53 224.47 287.04 228.47 287.04 228.47 301.53 241.97 301.53 241.97 305.53"/><rect class="cls-1" x="172.97" y="91.45" width="112" height="63.18"/><path class="cls-2" d="M274,145.22h-.5a2.26,2.26,0,1,1,2.5-2.5v.5A2,2,0,0,1,274,145.22Z"/><path class="cls-2" d="M252.12,145.22h-1.06a2,2,0,0,1,0-4h1.06a2,2,0,0,1,0,4Zm-22.41,0h-1.07a2,2,0,0,1,0-4h1.07a2,2,0,0,1,0,4Zm-22.41,0h-1.07a2,2,0,0,1,0-4h1.07a2,2,0,0,1,0,4Zm-22.42,0h-1.06a2,2,0,0,1,0-4h1.06a2,2,0,0,1,0,4Z"/><path class="cls-2" d="M162.47,145.22H162a2,2,0,0,1-2-2v-.5a2.26,2.26,0,1,1,2.5,2.5Z"/><path class="cls-2" d="M162,124.66a2,2,0,0,1-2-2v-1a2,2,0,0,1,4,0v1A2,2,0,0,1,162,124.66Zm0-21.06a2,2,0,0,1-2-2v-1a2,2,0,0,1,4,0v1A2,2,0,0,1,162,103.6Z"/><path class="cls-2" d="M162,82.54a2,2,0,0,1-2-2V80a2,2,0,0,1,2-2h.5a2.3,2.3,0,0,1-.5,4.5Z"/><path class="cls-2" d="M252.12,82h-1.07a2,2,0,0,1,0-4h1.07a2,2,0,0,1,0,4Zm-22.41,0h-1.07a2,2,0,0,1,0-4h1.07a2,2,0,0,1,0,4Zm-22.42,0h-1.06a2,2,0,0,1,0-4h1.06a2,2,0,0,1,0,4Zm-22.41,0h-1.07a2,2,0,0,1,0-4h1.07a2,2,0,0,1,0,4Z"/><path class="cls-2" d="M274,82.54a2.26,2.26,0,1,1-.5-4.5h.5a2,2,0,0,1,2,2v.5A2,2,0,0,1,274,82.54Z"/><path class="cls-2" d="M274,124.66a2,2,0,0,1-2-2v-1a2,2,0,1,1,4,0v1A2,2,0,0,1,274,124.66Zm0-21.06a2,2,0,0,1-2-2v-1a2,2,0,0,1,4,0v1A2,2,0,0,1,274,103.6Z"/><rect class="cls-2" x="1.97" y="270.04" width="17.4" height="4"/><rect class="cls-2" x="1.97" y="254.04" width="17.4" height="4"/><rect class="cls-2" x="1.97" y="238.04" width="17.4" height="4"/></svg>