<svg id="Layer_3" data-name="Layer 3" xmlns="http://www.w3.org/2000/svg" viewBox="0 0 303.5 313.08"><defs><style>.cls-1{fill:#d3dbdd;}.cls-2{fill:#eee;}.cls-3{fill:#30241c;}.cls-4{fill:none;}.cls-5{fill:#ef2e61;}.cls-6{fill:#e3204a;}.cls-7{fill:#ce1b4a;}</style></defs><title>digital-marketing</title><path class="cls-1" d="M303.5,151.75a151.69,151.69,0,1,0-83.84,135.73l34.59,25.6-12.71-39A151.55,151.55,0,0,0,303.5,151.75Z"/><circle class="cls-2" cx="151.75" cy="151.75" r="128.25"/><path class="cls-1" d="M151.75,151.75l13.14-21.86a25.5,25.5,0,1,0,12,26.12Z"/><path class="cls-1" d="M176.89,156a26.05,26.05,0,0,0,.36-4.26,25.49,25.49,0,0,0-12.36-21.86l-13.14,21.86Z"/><path class="cls-3" d="M151.75,163A11.25,11.25,0,1,1,163,151.75,11.27,11.27,0,0,1,151.75,163Zm0-18.5a7.25,7.25,0,1,0,7.25,7.25A7.26,7.26,0,0,0,151.75,144.5Z"/><path class="cls-4" d="M123.71,229.62a82.71,82.71,0,0,0,110.28-87l-76.41,11.52Z"/><path class="cls-4" d="M170.11,71.07a82.73,82.73,0,0,0-91.85,118.7l79.32-35.6Z"/><path class="cls-1" d="M69,151.75A82.72,82.72,0,0,1,170.11,71.07l4.78-31.74A114.8,114.8,0,0,0,49,202.9l29.25-13.13A82.42,82.42,0,0,1,69,151.75Z"/><path class="cls-5" d="M234,142.65a82.78,82.78,0,0,1-110.28,87l-13.13,29.26a114.77,114.77,0,0,0,155.08-121Z"/><path class="cls-6" d="M78.26,189.77,49,202.9a115.11,115.11,0,0,0,61.57,56l13.13-29.26A83,83,0,0,1,78.26,189.77Z"/><path class="cls-7" d="M234,142.65l31.67-4.77a114.83,114.83,0,0,0-90.77-98.55l-4.78,31.74A82.79,82.79,0,0,1,234,142.65Z"/><path class="cls-3" d="M152.69,207.06h0c-.55,0-.91,0-1.08,0s-.53,0-1.07,0c-8.11,0-50.84-2.37-96.23-49.13L53,156.54l1.35-1.39C99.7,108.39,142.43,106,150.54,106c.54,0,.91,0,1.07,0s.53,0,1.08,0c8.11,0,50.84,2.37,96.22,49.13l1.35,1.39-1.35,1.39C203.53,204.69,160.8,207.06,152.69,207.06Zm-1.08-4h.11s.36,0,1,0c7.74,0,48.24-2.26,92-46.52-43.75-44.26-84.25-46.52-92-46.52-.61,0-.94,0-1,0h-.21s-.36,0-1,0c-7.75,0-48.25,2.26-92,46.52,43.74,44.26,84.24,46.52,92,46.52.61,0,.94,0,1,0Z"/><rect class="cls-3" x="7.75" y="270" width="111.8" height="4"/><rect class="cls-3" x="7.75" y="286" width="64" height="4"/><rect class="cls-3" x="7.75" y="302" width="64" height="4"/><rect class="cls-3" x="150" y="63.5" width="4" height="16.25"/><rect class="cls-3" x="197.45" y="88.44" width="15.73" height="4" transform="translate(-3.81 171.67) rotate(-45)"/></svg>