<svg id="Layer_3" data-name="Layer 3" xmlns="http://www.w3.org/2000/svg" viewBox="0 0 324 325.81"><defs><style>.cls-1{fill:#d3dbdd;}.cls-2{fill:#30241c;}.cls-3{fill:#e11f48;}.cls-4{fill:#bac4c6;}.cls-5{fill:#fff;}</style></defs><title>ecommerce-solution</title><rect class="cls-1" x="162" y="3.81" width="145.42" height="230.5"/><path class="cls-2" d="M324,325.81H0v-100H324Zm-320-4H320v-92H4Z"/><rect class="cls-3" x="17.05" y="245.81" width="8.76" height="8.76"/><path class="cls-2" d="M46.43,256.58H33.67V243.81H46.43Zm-8.76-4h4.76v-4.77H37.67Z"/><path class="cls-2" d="M63.23,256.58H50.46V243.81H63.23Zm-8.77-4h4.77v-4.77H54.46Z"/><path class="cls-2" d="M81.3,256.58H68.54V243.81H81.3Zm-8.76-4H77.3v-4.77H72.54Z"/><path class="cls-2" d="M98.1,256.58H85.33V243.81H98.1Zm-8.77-4H94.1v-4.77H89.33Z"/><path class="cls-2" d="M116.72,256.58H104V243.81h12.76Zm-8.76-4h4.76v-4.77H108Z"/><path class="cls-2" d="M133.51,256.58H120.75V243.81h12.76Zm-8.76-4h4.76v-4.77h-4.76Z"/><path class="cls-2" d="M151.32,256.58H138.55V243.81h12.77Zm-8.77-4h4.77v-4.77h-4.77Z"/><path class="cls-2" d="M168.11,256.58H155.35V243.81h12.76Zm-8.76-4h4.76v-4.77h-4.76Z"/><path class="cls-2" d="M186.73,256.58H174V243.81h12.76Zm-8.76-4h4.76v-4.77H178Z"/><path class="cls-2" d="M203.53,256.58H190.77V243.81h12.76Zm-8.76-4h4.76v-4.77h-4.76Z"/><path class="cls-2" d="M221.6,256.58H208.84V243.81H221.6Zm-8.76-4h4.76v-4.77h-4.76Z"/><path class="cls-2" d="M238.4,256.58H225.63V243.81H238.4Zm-8.77-4h4.77v-4.77h-4.77Z"/><path class="cls-2" d="M257,256.58H244.26V243.81H257Zm-8.76-4H253v-4.77h-4.76Z"/><path class="cls-2" d="M273.82,256.58H261.05V243.81h12.77Zm-8.77-4h4.77v-4.77h-4.77Z"/><path class="cls-2" d="M290.79,256.58H278V243.81h12.76Zm-8.76-4h4.76v-4.77H282Z"/><path class="cls-2" d="M309.42,256.58H296.65V243.81h12.77Zm-8.77-4h4.77v-4.77h-4.77Z"/><path class="cls-2" d="M37.53,274.29H24.77V261.52H37.53Zm-8.76-4h4.76v-4.77H28.77Z"/><path class="cls-2" d="M54.33,274.29H41.56V261.52H54.33Zm-8.77-4h4.77v-4.77H45.56Z"/><path class="cls-2" d="M72.4,274.29H59.64V261.52H72.4Zm-8.76-4H68.4v-4.77H63.64Z"/><path class="cls-2" d="M89.2,274.29H76.43V261.52H89.2Zm-8.77-4H85.2v-4.77H80.43Z"/><path class="cls-2" d="M107.82,274.29H95.06V261.52h12.76Zm-8.76-4h4.76v-4.77H99.06Z"/><path class="cls-2" d="M124.61,274.29H111.85V261.52h12.76Zm-8.76-4h4.76v-4.77h-4.76Z"/><path class="cls-2" d="M142.41,274.29H129.65V261.52h12.76Zm-8.76-4h4.76v-4.77h-4.76Z"/><path class="cls-2" d="M159.21,274.29H146.45V261.52h12.76Zm-8.76-4h4.76v-4.77h-4.76Z"/><path class="cls-2" d="M177.83,274.29H165.07V261.52h12.76Zm-8.76-4h4.76v-4.77h-4.76Z"/><path class="cls-2" d="M194.63,274.29H181.87V261.52h12.76Zm-8.76-4h4.76v-4.77h-4.76Z"/><path class="cls-2" d="M212.7,274.29H199.94V261.52H212.7Zm-8.76-4h4.76v-4.77h-4.76Z"/><path class="cls-2" d="M229.5,274.29H216.74V261.52H229.5Zm-8.76-4h4.76v-4.77h-4.76Z"/><path class="cls-2" d="M248.12,274.29H235.36V261.52h12.76Zm-8.76-4h4.76v-4.77h-4.76Z"/><path class="cls-2" d="M264.91,274.29H252.15V261.52h12.76Zm-8.76-4h4.76v-4.77h-4.76Z"/><path class="cls-2" d="M281.89,274.29H269.13V261.52h12.76Zm-8.76-4h4.76v-4.77h-4.76Z"/><path class="cls-2" d="M46.43,291.54H33.67V278.77H46.43Zm-8.76-4h4.76v-4.77H37.67Z"/><path class="cls-2" d="M63.23,291.54H50.46V278.77H63.23Zm-8.77-4h4.77v-4.77H54.46Z"/><path class="cls-2" d="M81.3,291.54H68.54V278.77H81.3Zm-8.76-4H77.3v-4.77H72.54Z"/><path class="cls-2" d="M98.1,291.54H85.33V278.77H98.1Zm-8.77-4H94.1v-4.77H89.33Z"/><path class="cls-2" d="M116.72,291.54H104V278.77h12.76Zm-8.76-4h4.76v-4.77H108Z"/><path class="cls-2" d="M133.51,291.54H120.75V278.77h12.76Zm-8.76-4h4.76v-4.77h-4.76Z"/><path class="cls-2" d="M151.32,291.54H138.55V278.77h12.77Zm-8.77-4h4.77v-4.77h-4.77Z"/><path class="cls-2" d="M168.11,291.54H155.35V278.77h12.76Zm-8.76-4h4.76v-4.77h-4.76Z"/><path class="cls-2" d="M186.73,291.54H174V278.77h12.76Zm-8.76-4h4.76v-4.77H178Z"/><path class="cls-2" d="M203.53,291.54H190.77V278.77h12.76Zm-8.76-4h4.76v-4.77h-4.76Z"/><path class="cls-2" d="M221.6,291.54H208.84V278.77H221.6Zm-8.76-4h4.76v-4.77h-4.76Z"/><path class="cls-2" d="M238.4,291.54H225.63V278.77H238.4Zm-8.77-4h4.77v-4.77h-4.77Z"/><path class="cls-2" d="M257,291.54H244.26V278.77H257Zm-8.76-4H253v-4.77h-4.76Z"/><path class="cls-2" d="M273.82,291.54H261.05V278.77h12.77Zm-8.77-4h4.77v-4.77h-4.77Z"/><path class="cls-2" d="M290.79,291.54H278V278.77h12.76Zm-8.76-4h4.76v-4.77H282Z"/><path class="cls-2" d="M309.42,291.54H296.65V274.29h-8.9V261.52h21.67Zm-8.77-4h4.77v-22H291.75v4.77h8.9Z"/><path class="cls-2" d="M37.53,309.25H24.77V296.48H37.53Zm-8.76-4h4.76v-4.77H28.77Z"/><path class="cls-2" d="M54.33,309.25H41.56V296.48H54.33Zm-8.77-4h4.77v-4.77H45.56Z"/><rect class="cls-3" x="61.64" y="298.48" width="165.86" height="8.76"/><path class="cls-2" d="M248.12,309.25H235.36V296.48h12.76Zm-8.76-4h4.76v-4.77h-4.76Z"/><path class="cls-2" d="M264.91,309.25H252.15V296.48h12.76Zm-8.76-4h4.76v-4.77h-4.76Z"/><path class="cls-2" d="M281.89,309.25H269.13V296.48h12.76Zm-8.76-4h4.76v-4.77h-4.76Z"/><path class="cls-2" d="M300.52,309.25H287.75V296.48h12.77Zm-8.77-4h4.77v-4.77h-4.77Z"/><rect class="cls-4" x="162" y="3.81" width="145.42" height="16"/><path class="cls-2" d="M295.58,17.22a5.08,5.08,0,1,1,5.07-5.08A5.09,5.09,0,0,1,295.58,17.22Zm0-6.16a1.08,1.08,0,1,0,1.07,1.08A1.08,1.08,0,0,0,295.58,11.06Z"/><path class="cls-2" d="M280,17.22a5.08,5.08,0,1,1,5.08-5.08A5.09,5.09,0,0,1,280,17.22Zm0-6.16a1.08,1.08,0,1,0,1.08,1.08A1.09,1.09,0,0,0,280,11.06Z"/><path class="cls-2" d="M264.49,17.22a5.08,5.08,0,1,1,5.07-5.08A5.09,5.09,0,0,1,264.49,17.22Zm0-6.16a1.08,1.08,0,1,0,1.07,1.08A1.08,1.08,0,0,0,264.49,11.06Z"/><rect class="cls-2" x="146" y="33.81" width="145" height="4"/><rect class="cls-2" x="170" y="49.81" width="104" height="4"/><rect class="cls-2" x="210" y="65.81" width="81" height="4"/><rect class="cls-2" x="146" y="97.81" width="145" height="4"/><rect class="cls-2" x="178.33" y="113.81" width="112.67" height="4"/><rect class="cls-2" x="194.33" y="129.81" width="96.67" height="4"/><rect class="cls-2" x="146" y="161.81" width="145" height="4"/><rect class="cls-2" x="178.33" y="177.81" width="95" height="4"/><rect class="cls-2" x="194.33" y="193.81" width="96.67" height="4"/><rect class="cls-2" x="210.84" y="209.81" width="47.69" height="4"/><circle class="cls-3" cx="42" cy="91.81" r="40"/><polygon class="cls-5" points="25.64 102.86 15.21 91.77 26.26 80.73 29.09 83.55 20.79 91.86 28.55 100.11 25.64 102.86"/><polygon class="cls-5" points="58.66 102.9 55.83 100.07 64.13 91.77 56.37 83.51 59.28 80.77 69.71 91.86 58.66 102.9"/><rect class="cls-5" x="31.37" y="89.81" width="21.63" height="4" transform="translate(-58.8 88.48) rotate(-63.43)"/><path class="cls-2" d="M148,227.15h-4V211.81c0-.56-.23-14-14-14H50c-6.23,0-18-3.76-18-18s11.77-18,18-18H98c.6,0,14.72-.23,14.72-14s-14.12-14-14.72-14c-6.23,0-18-3.76-18-18s11.77-18,18-18h16c.57,0,14-.23,14-14,0-12.63-9.89-14-14.15-14-8.63,0-17.85-4.73-17.85-18,0-14.24,11.77-18,18-18,.57,0,14-.23,14-14v-16h4v16c0,14.24-11.77,18-18,18-.57,0-14,.24-14,14,0,12.64,9.69,14,13.85,14,8.78,0,18.15,4.73,18.15,18,0,14.24-11.77,18-18,18H98c-.57,0-14,.24-14,14s13.43,14,14,14c6.46,0,18.71,3.76,18.71,18s-12.25,18-18.72,18H50c-.57,0-14,.24-14,14s13.43,14,14,14h80c14.24,0,18,11.78,18,18Z"/><path class="cls-2" d="M9.52,31.06A9.53,9.53,0,0,1,0,21.54V11.34a9.53,9.53,0,1,1,19.05,0v10.2A9.54,9.54,0,0,1,9.52,31.06Zm0-25.25A5.53,5.53,0,0,0,4,11.34v10.2a5.53,5.53,0,0,0,11.05,0V11.34A5.54,5.54,0,0,0,9.52,5.81Z"/><path class="cls-2" d="M57.25,47.06a9.54,9.54,0,0,1-9.53-9.52V27.34a9.53,9.53,0,1,1,19,0v10.2A9.53,9.53,0,0,1,57.25,47.06Zm0-25.25a5.54,5.54,0,0,0-5.53,5.53v10.2a5.53,5.53,0,0,0,11.05,0V27.34A5.53,5.53,0,0,0,57.25,21.81Z"/><path class="cls-2" d="M84.19,47.06a9.53,9.53,0,0,1-9.52-9.52V27.34a9.52,9.52,0,1,1,19,0v10.2A9.53,9.53,0,0,1,84.19,47.06Zm0-25.25a5.53,5.53,0,0,0-5.52,5.53v10.2a5.52,5.52,0,1,0,11,0V27.34A5.53,5.53,0,0,0,84.19,21.81Z"/><polygon class="cls-2" points="36.91 28.81 32.91 28.81 32.91 7.63 28.52 10.66 26.25 7.37 36.91 0 36.91 28.81"/></svg>