<svg id="Layer_3" data-name="Layer 3" xmlns="http://www.w3.org/2000/svg" viewBox="0 0 320 323.58"><defs><style>.cls-1{fill:#d3dbdd;}.cls-2{fill:#e3204a;}.cls-3{fill:#30241c;}</style></defs><title>mobile-application</title><rect class="cls-1" x="64" y="2" width="192" height="32"/><rect class="cls-1" x="64" y="275" width="192" height="46.58"/><rect class="cls-2" y="50" width="96" height="96"/><rect class="cls-2" x="240" y="82" width="80" height="80"/><path class="cls-3" d="M258,323.58H62V0H258Zm-192-4H254V4H66Z"/><rect class="cls-3" x="144" y="16" width="32" height="4"/><rect class="cls-3" x="128" y="296.29" width="64" height="4"/><path class="cls-3" d="M224,304a6,6,0,1,1,6-6A6,6,0,0,1,224,304Zm0-8a2,2,0,1,0,2,2A2,2,0,0,0,224,296Z"/><path class="cls-3" d="M110.5,260H78V227.5h32.5ZM82,256h24.5V231.5H82Z"/><path class="cls-3" d="M153.25,260h-32.5V227.5h32.5Zm-28.5-4h24.5V231.5h-24.5Z"/><rect class="cls-2" x="168.75" y="229.5" width="28.5" height="28.5"/><path class="cls-3" d="M242,260H209.5V227.5H242Zm-28.5-4H238V231.5H213.5Z"/><polygon class="cls-3" points="185 210 181 210 181 179.75 0 179.75 0 175.75 185 175.75 185 210"/><polygon class="cls-3" points="183 212.83 171.59 201.41 174.41 198.59 183 207.17 191.59 198.59 194.41 201.41 183 212.83"/><polygon class="cls-3" points="226 210 222 210 222 64 320 64 320 68 226 68 226 210"/><polygon class="cls-3" points="224 212.83 212.59 201.41 215.41 198.59 224 207.17 232.59 198.59 235.41 201.41 224 212.83"/><rect class="cls-3" x="112" y="48" width="48.5" height="4"/><rect class="cls-3" x="112" y="64" width="48.5" height="4"/><rect class="cls-3" x="112" y="80" width="48.5" height="4"/><rect class="cls-3" x="112" y="112" width="16" height="4"/><rect class="cls-3" x="112" y="126" width="8" height="4"/><rect class="cls-3" x="151.25" y="126" width="8" height="4"/><rect class="cls-3" x="132.25" y="126" width="8" height="4"/><rect class="cls-3" x="16" y="192" width="64" height="4"/><rect class="cls-3" x="16" y="208" width="64" height="4"/></svg>