<svg id="Layer_3" data-name="Layer 3" xmlns="http://www.w3.org/2000/svg" viewBox="0 0 322 322"><defs><style>.cls-1{fill:#e21f49;}.cls-2{fill:#d3dbdd;}.cls-3{fill:#bac4c6;}.cls-4{fill:#30241c;}.cls-5{fill:#fff;}</style></defs><title>resource-outsourcing</title><rect class="cls-1" x="50" y="142.31" width="67.38" height="67.38"/><polygon class="cls-2" points="217.69 124.62 217.69 124.62 184 192 251.38 192 217.69 124.62"/><circle class="cls-3" cx="160.25" cy="239.07" r="33.75"/><path class="cls-2" d="M239.88,64V50s-18.51-3.17-27.34-16c0,0-3-5.83-2.66-11.67h-21.5c.33,5.84-2.67,11.67-2.67,11.67-8.83,12.83-27.33,16-27.33,16V64"/><rect class="cls-1" x="158.38" y="96.13" width="78" height="17"/><polygon class="cls-1" points="208.38 22.33 208.38 9 189.88 0 189.88 22.33 208.38 22.33"/><polygon class="cls-3" points="140 64 140 32 108 0 108 64 140 64"/><path class="cls-4" d="M43.38,322H24.63a20,20,0,0,1-20-20V242a20,20,0,0,1,20-20H43.38a20,20,0,0,1,20,20v60A20,20,0,0,1,43.38,322ZM24.63,226a16,16,0,0,0-16,16v60a16,16,0,0,0,16,16H43.38a16,16,0,0,0,16-16V242a16,16,0,0,0-16-16Z"/><circle class="cls-2" cx="34" cy="246" r="5"/><path class="cls-4" d="M36.38,224h-4V192c0-.52-.57-14-14.38-14C3.76,178,0,166.23,0,160V80c.15-6.26,4.13-18,18.19-18C31.84,62,32,48.57,32,48V0h4V48c0,6.23-3.72,18-17.81,18C4.49,66,4,79.47,4,80.05v80c0,.57.23,14,14,14,14.2,0,18.23,11.74,18.37,17.95Z"/><rect class="cls-3" x="258" width="64" height="320"/><circle class="cls-5" cx="290" cy="289.66" r="8.25"/><rect class="cls-4" x="258" y="13.75" width="15.75" height="4"/><rect class="cls-4" x="258" y="30" width="7.88" height="4"/><rect class="cls-4" x="258" y="46" width="7.88" height="4"/><rect class="cls-4" x="258" y="62" width="7.88" height="4"/><rect class="cls-4" x="258" y="78" width="7.88" height="4"/><rect class="cls-4" x="258" y="93.88" width="15.75" height="4"/><rect class="cls-4" x="258" y="110.13" width="7.88" height="4"/><rect class="cls-4" x="258" y="126.13" width="7.88" height="4"/><rect class="cls-4" x="258" y="142.13" width="7.88" height="4"/><rect class="cls-4" x="258" y="158.13" width="7.88" height="4"/><rect class="cls-4" x="258" y="173.88" width="15.75" height="4"/><rect class="cls-4" x="258" y="190.13" width="7.88" height="4"/><rect class="cls-4" x="258" y="206.13" width="7.88" height="4"/><rect class="cls-4" x="258" y="222.13" width="7.88" height="4"/><rect class="cls-4" x="258" y="238.13" width="7.88" height="4"/><path class="cls-2" d="M108,304a16,16,0,0,0,32,0"/><path class="cls-4" d="M142,306H106V62h36Zm-32-4h28V66H110Z"/><rect class="cls-4" x="107.33" y="94.13" width="33.33" height="4"/><rect class="cls-4" x="107.33" y="110" width="33.33" height="4"/><rect class="cls-4" x="107.33" y="126.13" width="33.33" height="4"/><path class="cls-1" d="M158.38,298.33V308a12,12,0,0,0,12,12h56a12,12,0,0,0,12-12v-9.67Z"/><path class="cls-4" d="M243.88,300.33h-91V111.13h91Zm-87-4h83V115.13h-83Z"/><path class="cls-4" d="M243.88,97.88h-91V62h91Zm-87-4h83V66h-83Z"/><path class="cls-4" d="M92.06,48a2.11,2.11,0,1,1-.46-4.19h.46a1.87,1.87,0,0,1,1.87,1.86v.47A1.87,1.87,0,0,1,92.06,48Z"/><path class="cls-4" d="M73.87,47.53H73a1.86,1.86,0,0,1,0-3.72h.89a1.86,1.86,0,1,1,0,3.72Zm-18.61,0h-.89a1.86,1.86,0,1,1,0-3.72h.89a1.86,1.86,0,1,1,0,3.72Zm-18.62,0h-.88a1.86,1.86,0,1,1,0-3.72h.88a1.86,1.86,0,0,1,0,3.72Z"/><path class="cls-4" d="M17.56,48a1.86,1.86,0,0,1-1.86-1.86v-.47a1.86,1.86,0,0,1,1.86-1.86H18a1.86,1.86,0,0,1,1.06,3.39A1.87,1.87,0,0,1,17.56,48Z"/><path class="cls-4" d="M17.56,103.84A1.86,1.86,0,0,1,15.7,102v-.89a1.86,1.86,0,0,1,3.72,0V102A1.86,1.86,0,0,1,17.56,103.84Zm0-18.61a1.86,1.86,0,0,1-1.86-1.86v-.89a1.86,1.86,0,0,1,3.72,0v.89A1.86,1.86,0,0,1,17.56,85.23Zm0-18.62a1.86,1.86,0,0,1-1.86-1.86v-.88a1.86,1.86,0,1,1,3.72,0v.88A1.86,1.86,0,0,1,17.56,66.61Z"/><path class="cls-4" d="M18,122h-.47a1.87,1.87,0,0,1-1.86-1.87v-.46a1.86,1.86,0,0,1,3.39-1.07A1.87,1.87,0,0,1,18,122Z"/><path class="cls-4" d="M73.87,122H73a1.87,1.87,0,0,1,0-3.73h.89a1.87,1.87,0,0,1,0,3.73Zm-18.61,0h-.89a1.87,1.87,0,0,1,0-3.73h.89a1.87,1.87,0,0,1,0,3.73Zm-18.62,0h-.88a1.87,1.87,0,1,1,0-3.73h.88a1.87,1.87,0,0,1,0,3.73Z"/><path class="cls-4" d="M92.06,122H91.6a2.11,2.11,0,1,1,2.33-2.33v.46A1.87,1.87,0,0,1,92.06,122Z"/><path class="cls-4" d="M92.06,103.84A1.86,1.86,0,0,1,90.2,102v-.89a1.87,1.87,0,0,1,3.73,0V102A1.87,1.87,0,0,1,92.06,103.84Zm0-18.61a1.86,1.86,0,0,1-1.86-1.86v-.89a1.87,1.87,0,0,1,3.73,0v.89A1.87,1.87,0,0,1,92.06,85.23Zm0-18.62a1.86,1.86,0,0,1-1.86-1.86v-.88a1.87,1.87,0,1,1,3.73,0v.88A1.87,1.87,0,0,1,92.06,66.61Z"/><rect class="cls-4" x="85.89" y="113.77" width="12.34" height="12.34"/><rect class="cls-4" x="85.89" y="39.73" width="12.34" height="12.34"/><rect class="cls-4" x="11.63" y="113.77" width="12.34" height="12.34"/><rect class="cls-4" x="11.63" y="39.73" width="12.34" height="12.34"/><rect class="cls-4" x="36.89" y="61.85" width="35.85" height="4"/><rect class="cls-4" x="52.81" y="63.85" width="4" height="34.3"/></svg>