<svg id="Layer_3" data-name="Layer 3" xmlns="http://www.w3.org/2000/svg" viewBox="0 0 322 324.04"><defs><style>.cls-1{fill:#d3dbdd;}.cls-2{fill:#eee;}.cls-3{fill:#e3204a;}.cls-4{fill:#30241c;}.cls-5{fill:#fff;}</style></defs><title>ui-ux-design</title><rect class="cls-1" x="59.01" y="8.04" width="192" height="32.99"/><rect class="cls-1" x="59.01" y="281.95" width="192" height="35.47"/><rect class="cls-2" x="59.01" y="41.03" width="192" height="240.82"/><rect class="cls-3" x="226.5" y="99.29" width="95.5" height="14.75"/><path class="cls-4" d="M260,324H64V0H260ZM68,320H256V4H68Z"/><path class="cls-4" d="M260,36H64V0H260ZM68,32H256V4H68Z"/><path class="cls-4" d="M260,324H64V272.86H260ZM68,320H256V276.86H68Z"/><rect class="cls-4" x="146" y="16.02" width="32" height="4"/><circle class="cls-5" cx="158.78" cy="150.37" r="47" transform="translate(-15.08 283.01) rotate(-80.78)"/><path class="cls-4" d="M162,194.71a49,49,0,1,1,49-49A49.06,49.06,0,0,1,162,194.71Zm0-94a45,45,0,1,0,45,45A45,45,0,0,0,162,100.71Z"/><path class="cls-4" d="M178,133l-2.22-1a23.79,23.79,0,0,1-9.33-7.21c-7.77,6.83-17.57,7.4-20.56,7.4h-.63l-1.48-.08-.36-1.44a24.85,24.85,0,0,1,.59-14.07c3-8.39,9.39-9.89,15.68-10.72a20.77,20.77,0,0,1,2.67-.18,12,12,0,0,1,7.38,2.11,5.52,5.52,0,0,1,.71,0c3.74,0,6.84,4.31,7.43,5.17,1.87,2.78,2.27,5.1,1.75,10.34a64.1,64.1,0,0,1-1.08,7.37Zm-15.64-23.31a18.15,18.15,0,0,0-2.15.14c-6.64.88-10.39,2.37-12.44,8.11a20.8,20.8,0,0,0-.78,10.22c3.41-.17,12.18-1.28,18.37-7.88l2-2.18,1.24,2.72a16.81,16.81,0,0,0,6.48,6.34c.17-1.1.36-2.54.53-4.29.5-5.07-.09-6.23-1.09-7.71-1.25-1.85-3.13-3.41-4.11-3.41a.55.55,0,0,0-.26.06l-1.48.78-1-1.31S166.24,109.69,162.38,109.69Z"/><path class="cls-4" d="M161,155.55l-.66-.23c-4-1.4-13.62-9.6-14.49-12.9-.66-2.47-2.41-11.48-2.48-11.86l3.93-.76c0,.09,1.8,9.25,2.42,11.6.57,1.62,7.61,8.1,11.28,9.87,3.67-1.77,10.7-8.26,11.29-9.9.61-2.32,2.39-11.48,2.41-11.57l3.92.76c-.07.38-1.82,9.39-2.47,11.86-.88,3.3-10.5,11.5-14.49,12.9Z"/><path class="cls-4" d="M146.35,140a10.09,10.09,0,0,1-5.92-5,5.91,5.91,0,0,1-.28-4.95c1.89-4.61,4.94-4,5.28-4l-.92,3.89a.78.78,0,0,0,.39,0s-.5.21-1,1.54a1.87,1.87,0,0,0,.16,1.67,6.2,6.2,0,0,0,3.4,2.88Z"/><path class="cls-4" d="M175.82,140l-1.08-3.85a6.22,6.22,0,0,0,3.41-2.88,1.91,1.91,0,0,0,.16-1.67c-.55-1.33-1-1.54-1-1.54a.78.78,0,0,0,.39,0l-.93-3.89c.35-.08,3.4-.66,5.28,4a5.91,5.91,0,0,1-.27,4.95A10.16,10.16,0,0,1,175.82,140Z"/><path class="cls-4" d="M157,172.46l-10.09-11.07,5.21-7.34,1.62,1.07c.09.07.27.18,8.52,6.81l1.48,1.19Zm-5-11.38,4.61,5,1.63-2.27-5.23-4.2Z"/><path class="cls-4" d="M155.38,158.44l-3.61-1.73c.8-1.67.94-5.38.84-7.33l4-.21C156.63,149.79,156.87,155.31,155.38,158.44Z"/><path class="cls-4" d="M167.26,158.44c-1.49-3.13-1.25-8.65-1.22-9.27l4,.21c-.1,2,0,5.66.84,7.33Z"/><polygon class="cls-4" points="164.65 183.03 135.86 183.03 137.06 166.21 149.2 160.18 150.98 163.76 140.89 168.77 140.16 179.03 159.07 179.03 155.63 168.88 159.42 167.6 164.65 183.03"/><path class="cls-4" d="M166.78,172.46,160,163.12l1.48-1.19c8.25-6.63,8.42-6.74,8.52-6.81l1.61-1.07,5.22,7.34Zm-1.28-8.6,1.64,2.27,4.6-5-1-1.42Z"/><polygon class="cls-4" points="187.87 183.03 159.07 183.03 164.3 167.6 168.09 168.88 164.65 179.03 183.57 179.03 182.84 168.77 172.75 163.76 174.52 160.18 186.66 166.21 187.87 183.03"/><rect class="cls-4" x="139.75" y="208.54" width="44.5" height="4"/><rect class="cls-4" x="129.25" y="296.45" width="65.5" height="4"/><rect class="cls-4" x="139.75" y="222.79" width="44.5" height="4"/><rect class="cls-3" x="120.5" y="241.79" width="25.25" height="14"/><rect class="cls-5" x="178" y="241.79" width="25.25" height="14"/><path class="cls-4" d="M84.5,228H0V112H84.5ZM4,224H80.5V116H4Z"/><path class="cls-4" d="M308,84H224.5V50.54H308Zm-79.5-4H304V54.54H228.5Z"/><rect class="cls-4" x="18" y="128.04" width="32" height="4"/><rect class="cls-4" x="18" y="144.04" width="32" height="4"/><rect class="cls-4" x="18" y="160.04" width="32" height="4"/><rect class="cls-4" x="18" y="176.04" width="32" height="4"/><rect class="cls-4" x="18" y="208.04" width="16" height="4"/></svg>