<svg id="Layer_3" data-name="Layer 3" xmlns="http://www.w3.org/2000/svg" viewBox="0 0 324 322"><defs><style>.cls-1{fill:#e21f49;}.cls-2{fill:#d2dbdd;}.cls-3{fill:#30241c;}.cls-4{fill:#fff;}</style></defs><title>video-animation</title><rect class="cls-1" x="2" y="226" width="159.86" height="96" rx="12"/><path class="cls-2" d="M178,98V2H18V98s0,32,32,32H210S178,130,178,98Z"/><path class="cls-2" d="M242.08,98c0-32,32-32,32-32H114S82,66,82,98s-32,32-32,32l160.38.15C214.28,130,242.08,127.76,242.08,98Z"/><path class="cls-3" d="M50,132H34C.39,132,0,98.34,0,98V0H20V98c0,1.22.42,30,30,30ZM4,4V98c0,1.2.41,29.06,28.56,30C16.24,119,16,98.27,16,98V4Z"/><path class="cls-3" d="M226,132H210c-.34,0-34-.39-34-34V0h20V98c0,29.58,28.78,30,30,30ZM180,4V98c0,28.22,26.19,29.9,29.66,30C201,123.83,192,115.33,192,98V4Z"/><path class="cls-3" d="M50,132v-3.85A42.84,42.84,0,0,1,34,132v-4c1.22,0,30-.42,30-30,0-33.61,33.66-34,34-34h16v4c-1.22,0-30,.42-30,30C84,131.61,50.34,132,50,132ZM97.66,68C94.2,68.1,68,69.78,68,98c0,17.33-9,25.83-17.66,30C53.81,127.9,80,126.22,80,98,80,80.67,89,72.17,97.66,68Z"/><path class="cls-2" d="M274,66H114s32,0,32,32V258H306V98S306,66,274,66Z"/><path class="cls-3" d="M148,260H128V98c0-29.66-28.77-30-30-30V64h16c.34,0,34,.39,34,34Zm-16-4h12V98c0-28.3-26.21-29.91-29.67-30C123.05,72.17,132,80.67,132,98Z"/><path class="cls-3" d="M324,260H304V98c0-1.22-.42-30-30-30V64h16c33.61,0,34,33.66,34,34Zm-16-4h12V98c0-1.2-.41-29.06-28.56-30C307.76,77,308,97.73,308,98Z"/><rect class="cls-3" x="106" y="64" width="168.08" height="4"/><rect class="cls-3" x="18" y="15" width="160.67" height="4"/><rect class="cls-3" x="145.5" y="112" width="161" height="4"/><rect class="cls-3" x="145.5" y="175.75" width="161" height="4"/><rect class="cls-3" x="145.5" y="240" width="161" height="4"/><rect class="cls-3" x="18" y="80" width="66.31" height="4"/><polygon class="cls-4" points="64.62 254.5 64.62 293.75 99.24 273.66 64.62 254.5"/><rect class="cls-3" x="66" y="160" width="112.67" height="4"/><rect class="cls-3" x="34" y="176" width="65.24" height="4"/><rect class="cls-3" x="162.5" y="32" width="79.5" height="4"/><rect class="cls-3" x="226" y="15" width="48.08" height="4"/><rect class="cls-3" x="242" y="288" width="48" height="4"/><rect class="cls-3" x="210" y="303.5" width="32" height="4"/></svg>