<svg id="Layer_3" data-name="Layer 3" xmlns="http://www.w3.org/2000/svg" viewBox="0 0 324 321.17"><defs><style>.cls-1{fill:#e3204a;}.cls-2{fill:#30241c;}.cls-3{fill:#d3dbdd;}.cls-4{fill:#bac4c6;}.cls-5{fill:#fff;}</style></defs><title>web-development</title><rect class="cls-1" x="13.67" y="240" width="100.33" height="46.32"/><path class="cls-2" d="M190.17,321.17H85.83V274.85H190.17Zm-100.34-4h96.34V278.85H89.83Z"/><polygon class="cls-3" points="185.85 246.29 217.41 319.23 232.28 304.36 247.92 320 253.74 314.18 259.55 308.36 243.92 292.72 258.79 277.85 185.85 246.29"/><rect class="cls-3" x="2.33" y="97.37" width="320" height="64"/><rect class="cls-1" x="1.86" width="320" height="32.67"/><path class="cls-2" d="M324,251.37H0V7.37H324Zm-320-4H320v-236H4Z"/><rect class="cls-2" x="97.73" y="55.37" width="128.27" height="4"/><rect class="cls-2" x="129.73" y="71.37" width="64.27" height="4"/><rect class="cls-2" x="33.86" y="219.37" width="47.97" height="4"/><rect class="cls-2" x="33.86" y="231.37" width="29.64" height="4"/><rect class="cls-2" x="137.88" y="219.37" width="47.97" height="4"/><rect class="cls-2" x="137.88" y="231.37" width="29.64" height="4"/><rect class="cls-2" x="242.02" y="219.37" width="47.97" height="4"/><rect class="cls-2" x="242.02" y="231.37" width="29.64" height="4"/><rect class="cls-2" x="2.33" y="95.37" width="239.67" height="4"/><rect class="cls-2" x="81.83" y="159.37" width="239.67" height="4"/><rect class="cls-3" x="34" y="185.37" width="48" height="25.5"/><rect class="cls-4" x="138" y="185.37" width="48" height="25.5"/><rect class="cls-3" x="242" y="185.37" width="48" height="25.5"/><polygon class="cls-5" points="196.75 240 228.31 312.94 243.19 298.07 258.82 313.71 264.64 307.89 270.46 302.07 254.82 286.43 269.69 271.56 196.75 240"/><path class="cls-2" d="M258.82,316.53,243.18,300.9l-15.53,15.54-34.74-80.28,80.28,34.73-15.54,15.54,15.63,15.64Zm-15.64-21.29,15.64,15.64,8.81-8.81L252,286.43l14.21-14.2-65.61-28.39L229,309.45Z"/></svg>