<svg xmlns="http://www.w3.org/2000/svg" xmlns:xlink="http://www.w3.org/1999/xlink"
                                width="44px" height="48px" viewBox="0 0 44 48" version="1.1" class="svg-convert"
                                src="https://d1i2cp4a5c819e.cloudfront.net/wp-content/uploads/2020/02/ic-technology-android2x.svg"
                                alt="ic-technology-android2x">
                                <desc>Created with Sketch.</desc>
                                <g id="Page-1" stroke="none" stroke-width="1" fill="none" fill-rule="evenodd">
                                    <g id="ic-technology-android" fill="#252B33" fill-rule="nonzero">
                                        <path
                                            d="M35.5579238,13.7036238 C35.5677476,13.8168104 35.5720188,13.9321008 35.5720188,14.0482328 L35.5720188,14.0482328 L35.5720188,33.5207431 C35.5720188,35.6146949 33.8893809,37.3019745 31.8003388,37.3019745 L31.8003388,37.3019745 L31.651,37.301 L31.6517011,45.0041321 C31.6517011,46.6588021 30.2900437,48 28.6103957,48 C26.9309613,48 25.5693038,46.6588021 25.5693038,45.0041321 L25.569,37.301 L17.93,37.301 L17.9309097,45.0041321 C17.9309097,46.6588021 16.5692523,48 14.8896043,48 C13.2101699,48 11.8485124,46.6588021 11.8485124,45.0041321 L11.848,37.301 L11.6992341,37.3019745 C9.67568141,37.3019745 8.03332922,35.7186996 7.93265834,33.7158391 L7.92776769,33.5207431 L7.92776769,14.0482328 C7.92776769,13.9321008 7.93652364,13.8172312 7.94656095,13.7036238 L7.94656095,13.7036238 Z M3.04130542,15.4365567 C4.72073985,15.4365567 6.08239727,16.777965 6.08239727,18.432635 L6.08239727,31.2849925 C6.08239727,32.9396626 4.72073985,34.2810708 3.04130542,34.2810708 C1.36165742,34.2810708 0,32.9396626 0,31.2852029 L0,18.4328454 C-0.000213559821,16.7781754 1.36144386,15.4365567 3.04130542,15.4365567 Z M40.4589081,15.4365567 C42.1383426,15.4365567 43.5,16.777965 43.5,18.432635 L43.5,31.2849925 C43.5,32.9396626 42.1383426,34.2810708 40.4589081,34.2810708 C38.7792602,34.2810708 37.4176027,32.9396626 37.4176027,31.2852029 L37.4176027,18.4328454 C37.4176027,16.7781754 38.7792602,15.4365567 40.4589081,15.4365567 Z M34.5672226,0.0423334364 C34.7204378,0.129478841 34.7729316,0.322482595 34.6844707,0.473419387 L32.1083311,4.86815089 C34.1651953,6.89640542 35.4233101,9.53479075 35.464171,12.4244892 L8.03540184,12.4244892 C8.07625612,9.53505804 9.33406752,6.89700545 11.3903916,4.86890271 L8.81573827,0.473411509 C8.72728178,0.322472205 8.7797812,0.129469942 8.93299899,0.0423288883 C9.08621679,-0.0448121655 9.28213251,0.0069065347 9.370589,0.157845838 L11.8680872,4.4214895 C14.0308653,2.49735261 16.9526574,1.20350598 20.2215524,0.892922324 L23.2780205,0.892922324 C26.5471208,1.20360708 29.4689208,2.49755482 31.6316518,4.42172276 L34.1296292,0.157837961 C34.2180901,0.00690116897 34.4140073,-0.0448119681 34.5672226,0.0423334364 Z M16.0866071,5.54618934 C15.2176322,5.54850949 14.5152339,6.22804975 14.5175772,7.06432609 L14.5175772,7.06432609 C14.5201458,7.9088074 15.2266017,8.58456075 16.0953631,8.58246181 C16.9645515,8.58014269 17.6669498,7.90039204 17.664394,7.06432609 L17.664394,7.06432609 C17.6618243,6.21942401 16.9553685,5.54388104 16.0866071,5.54618934 Z M27.831543,5.54618934 C26.9625681,5.54850949 26.2601699,6.22804975 26.2625131,7.06432609 L26.2625131,7.06432609 C26.2650817,7.9088074 26.9715376,8.58456075 27.840299,8.58246181 C28.7094875,8.58014269 29.4118857,7.90039204 29.40933,7.06432609 L29.40933,7.06432609 C29.4067603,6.21942401 28.7003044,5.54388104 27.831543,5.54618934 Z"
                                            id="Combined-Shape-Copy-5"></path>
                                    </g>
                                </g>
                            </svg>