<svg xmlns="http://www.w3.org/2000/svg" xmlns:xlink="http://www.w3.org/1999/xlink" width="46px" height="46px" viewBox="0 0 46 46" version="1.1" class="svg-convert" src="https://d1i2cp4a5c819e.cloudfront.net/wp-content/uploads/2020/02/ic-technology-appium2x.svg" alt="ic-technology-appium2x"><desc>Created with Sketch.</desc><g id="Page-1" stroke="none" stroke-width="1" fill="none" fill-rule="evenodd"><g id="ic-technology-appium" fill="#252B33" fill-rule="nonzero"><path d="M-1.61559655e-12,23.3404788 L0.0396073593,23.4146272 C2.99099036,28.9006445 9.5836536,31.6444244 18.4313813,29.5164575 L19.1094253,29.3533812 L19.53,29.2519788 C23.2807585,28.1513128 27.1342848,26.0271319 29.7644455,24.0714897 L30.042,23.8594788 L30.2790354,24.1245175 C36.2572452,30.9151007 36.1522525,37.7970872 31.6090257,42.4708247 L31.419,42.6589788 L31.0687222,42.8333537 C30.9663251,42.881934 30.8499395,42.9358457 30.7200776,42.9943345 C30.0629482,43.2903008 29.3117871,43.5870568 28.480553,43.8643497 C23.7050349,45.4574236 18.6987689,45.7143228 14.0417005,43.8017924 C13.6872889,43.6562453 13.336554,43.4983632 12.9896172,43.3279188 C5.04779004,39.9190301 0.158659093,31.3594075 0.00485811305,23.7234194 L-1.61559655e-12,23.3404788 Z M35.3775488,4.53456607 L35.67,4.57997881 L35.5514549,4.50086198 C36.7198465,5.25159022 38.4073511,6.64911456 40.101825,8.65758732 C42.8655663,11.9334707 44.6359017,15.7499334 44.9262251,20.0806898 L44.9782891,20.5715784 C45.7884221,29.2394335 40.8129258,37.640469 34.2828893,41.348461 L34.086,41.4559788 L34.1025974,41.4298917 C37.3037131,36.1187189 36.6696661,30.6224235 32.9582007,25.4304267 L32.6052375,24.9506654 C29.5925941,20.9686066 24.8279341,17.4022238 20.5665017,15.516518 L20.115,15.3229788 L20.1915942,15.080011 C22.6532266,7.49082887 27.6741316,3.41494988 35.3775488,4.53456607 Z M32.5562639,2.45863207 L32.853,2.62397881 L32.7055476,2.61823639 C26.5235089,2.48716671 20.9041065,6.82491795 18.3387989,15.4981681 L18.1406503,16.168104 L18.03,16.5019788 C17.0484853,20.2557423 16.9960498,24.175072 17.3292152,27.5076615 L17.3865,28.0219788 L17.135702,28.0789122 C9.32110598,29.7373437 3.28685217,27.4392886 0.416827289,20.2403788 L0.309,19.9624788 L0.333965626,19.682067 L0.399727833,19.0990311 C0.42649734,18.8921266 0.458271499,18.6729817 0.495517951,18.4425531 C0.709222091,17.120453 1.05523742,15.7080904 1.56281306,14.2665721 C3.00769402,10.1631003 5.4447102,6.65446005 9.10634227,4.1998628 C16.0577693,-0.994856384 25.8868484,-1.12441043 32.5562639,2.45863207 Z" id="Combined-Shape"></path></g></g></svg>