       <svg xmlns="http://www.w3.org/2000/svg" xmlns:xlink="http://www.w3.org/1999/xlink"
                                width="39px" height="48px" viewBox="0 0 39 48" version="1.1" class="svg-convert"
                                src="https://d1i2cp4a5c819e.cloudfront.net/wp-content/uploads/2020/02/ic-technology-ios2x.svg"
                                alt="ic-technology-ios2x">
                                <desc>Created with Sketch.</desc>
                                <g id="" stroke="none" stroke-width="1" fill="none" fill-rule="evenodd">
                                    <g id="ic-technology-ios" fill="#252B33" fill-rule="nonzero">
                                        <path
                                            d="M32.5716099,25.5008908 C32.638918,32.7648937 38.9302972,35.1821425 39,35.212912 C38.9468035,35.3833013 37.9947409,38.6576394 35.6853988,42.0397993 C33.6889921,44.9639307 31.6171526,47.8771771 28.3532676,47.9375162 C25.1461711,47.996741 24.1149124,46.0316925 20.4482909,46.0316925 C16.7827812,46.0316925 15.6370048,47.8772628 12.6011291,47.9968267 C9.45065004,48.1163907 7.05150686,44.8349388 5.03867944,41.921521 C0.925532668,35.9621794 -2.21776226,25.0818599 2.00288924,17.7374621 C4.09961655,14.0902045 7.84663142,11.7806061 11.9136803,11.7213812 C15.0073708,11.662242 17.9273604,13.8071936 19.818657,13.8071936 C21.7087562,13.8071936 25.2571824,11.2276978 28.9876054,11.6065312 C30.5492892,11.67167 34.9330367,12.2387203 37.7478306,16.3678335 C37.5210187,16.5087389 32.5172161,19.4279849 32.5716099,25.5008908 M26.5442459,7.66392068 C28.2168554,5.63493329 29.3426191,2.81039566 29.0354993,0 C26.6245537,0.0971082123 23.7091825,1.61004216 21.97987,3.63791533 C20.4300741,5.43368874 19.0727947,8.30793755 19.4390121,11.0627081 C22.1262885,11.2710665 24.8715508,9.6941937 26.5442459,7.66392068">
                                        </path>
                                    </g>
                                </g>
                            </svg>