<svg xmlns="http://www.w3.org/2000/svg" xmlns:xlink="http://www.w3.org/1999/xlink" width="60px" height="48px" viewBox="0 0 60 48" version="1.1" class="svg-convert" src="https://d1i2cp4a5c819e.cloudfront.net/wp-content/uploads/2020/02/ic-technology-aws2x.svg" alt="ic-technology-aws2x"><desc>Created with Sketch.</desc><g id="Page-1" stroke="none" stroke-width="1" fill="none" fill-rule="evenodd"><g id="ic-technology-aws" fill="#252B33" fill-rule="nonzero"><path d="M17.5063775,30.1026993 L12.0118496,32.4628864 L17.1004377,34.6390217 L23.0009054,32.4628864 L17.5063775,30.1026993 Z M9.24566755,33.0529332 L9.06156061,43.6737751 L17.1003825,47.2140557 L17.1003825,36.1873292 L9.24566755,33.0529332 L9.24566755,33.0529332 Z M25.7670323,33.0529332 L18.502309,35.8190601 L18.502309,46.2181243 L25.7670323,43.2678904 L25.7670323,33.0529332 Z M34.433627,0.0102588054 L28.901318,2.37050105 L34.027632,4.54658119 L39.9280997,2.37050105 L34.433627,0.0102588054 L34.433627,0.0102588054 Z M26.7630189,3.14581302 L26.7630189,13.7666549 L33.6217473,15.7586281 L33.8435802,6.09599173 L26.7630189,3.14581302 L26.7630189,3.14581302 Z M42.1043453,3.73580464 L35.6137757,6.50198671 L35.6137757,16.9387768 L42.1043453,13.988543 L42.1043453,3.73580464 L42.1043453,3.73580464 Z M8.45265087,14.9585516 L2.95812297,17.3187387 L8.04671104,19.494874 L13.9471788,17.3187387 L8.45265087,14.9585516 L8.45265087,14.9585516 Z M0.191996057,17.9087855 L0.00788910956,28.5296825 L8.04671104,32.0699632 L8.04671104,21.0431263 L0.191996057,17.9087855 Z M16.7133608,17.9087855 L9.44869262,20.6749124 L9.44869262,31.0739214 L16.7133608,28.1236875 L16.7133608,17.9087855 Z M26.1541092,14.5667314 L20.6595813,16.9269185 L25.7481694,19.1030538 L31.6486371,16.9269185 L26.1541092,14.5667314 Z M17.8933992,17.5170204 L17.7092923,28.1378623 L25.7481142,31.678143 L25.7481142,20.6525195 L17.8933992,17.5170204 Z M34.414764,17.5170204 L27.1500958,20.2831474 L27.1500958,30.6821564 L34.414764,27.7319225 L34.414764,17.5170204 Z M51.7232439,0.0102588054 L46.2287712,2.37044589 L51.3173592,4.54652604 L57.2177718,2.37044589 L51.7232439,0.0102588054 Z M43.4625339,2.96049267 L43.2784821,13.5813346 L51.3173041,17.1216152 L51.3173041,6.09599173 L43.4625339,2.96049267 Z M59.9838987,2.96049267 L52.7192305,5.72661958 L52.7192305,16.1256286 L59.9838987,13.1753947 L59.9838987,2.96049267 Z" id="Shape"></path></g></g></svg>