<svg xmlns="http://www.w3.org/2000/svg" xmlns:xlink="http://www.w3.org/1999/xlink" width="43px" height="48px" viewBox="0 0 43 48" version="1.1" class="svg-convert" src="https://d1i2cp4a5c819e.cloudfront.net/wp-content/uploads/2020/02/ic-technology-dynamodb2x.svg" alt="ic-technology-dynamodb2x"><desc>Created with Sketch.</desc><g id="Page-1" stroke="none" stroke-width="1" fill="none" fill-rule="evenodd"><g id="ic-technology-dynamodb" fill="#252B33" fill-rule="nonzero"><path d="M37.02,36.468 L37.4121169,36.6383265 L37.5,36.5745 L37.5,43.011844 L37.3379908,43.2359541 L29.1036671,48 L28.50731,48 L28.5045,39.075 L37.02,36.468 Z M6,36.8835 L14.1047948,39.2608851 L14.994,39.2595 L14.9926154,48 L14.3956412,48 L6,43.833 L6,36.8835 Z M27,39.2595 L27,48 L16.5,48 L16.5,39.2595 L27,39.2595 Z M42.579,32.9925 L42.5790949,37.3812852 L39.093848,43.2222721 L39.093848,35.9204563 L39.1226221,35.9118074 L40.5555,34.419 L42.579,32.9925 Z M4.5,4.5 L4.5,11.6195142 L14.3201953,8.73976355 L27.6798047,8.73976355 L37.0825547,11.6195142 L37.2234844,11.5742723 L41.8487344,14.8432004 L42,15.1347592 L40.5391875,15.2927003 L40.5391875,16.4602326 L37.0825547,14.6442335 L27.6798047,12.4907851 L14.3201953,12.4907851 L4.5,14.6442335 L4.5,21.7467212 L14.3201953,21.3750568 L27.6798047,21.3750568 L37.0825547,21.7467212 L37.1498203,21.7136411 L41.6825391,22.1313582 L42,22.2009236 L40.5391875,22.2216798 L40.5391875,24.2984277 L42,24.3191839 L41.6900859,24.468855 L37.2966562,24.8427896 L37.0825547,24.7454953 L27.6798047,25.1249432 L14.3201953,25.1249432 L14.3201953,25.1158624 L4.5,24.75 L4.5,31.858361 L14.3201953,34.0109986 L27.6798047,34.0084041 L37.1102812,31.8674419 L37.2234844,31.6339354 L40.3477266,29.9693912 L40.5391875,30.0449565 L40.5391875,31.2261099 L42,31.3853483 L41.8000078,31.7062575 L37.235625,34.9270249 L37.1102812,34.8727022 L27.6798047,37.7608851 L14.3201953,37.7608851 L4.5,34.8811344 L4.5,42 L-2.55795385e-13,36.3053616 L-2.55795385e-13,31.333458 L0.0611953125,31.378862 L1.4608125,31.2261099 L1.4608125,30.020795 L-2.55795385e-13,29.2443861 L-2.55795385e-13,24.2945359 L0.233296875,24.3165893 L1.4608125,24.2984277 L1.4608125,22.2216798 L0.0380625,22.2009236 L-2.55795385e-13,22.2048154 L-2.55795385e-13,17.2569111 L1.4608125,16.4842318 L1.4608125,15.2927003 L0.0380625,15.1392996 L-2.55795385e-13,15.166542 L-2.55795385e-13,10.1938276 L4.5,4.5 Z M6,26.307 L12.819,26.5605 L12.8201953,26.6249432 L14.9955,26.6235 L14.9955,32.508 L14.475,32.5095 L6,30.651 L6,26.307 Z M27,26.6235 L27,32.5065 L16.5,32.508 L16.5,26.6235 L27,26.6235 Z M36.786,26.259 L37.0331116,26.3706438 L37.5,26.3295 L37.5,29.7855 L36.0869044,30.5398744 L36.0735,30.564 L28.5045,32.2815 L28.503,26.5905 L36.786,26.259 Z M42.579,25.704 L42.579,29.937 L42.039,29.88 L42.0391875,29.0243711 L40.2539105,28.3197629 L39.093,28.9365 L39.093,26.1945 L42.0931292,25.9399744 L42.579,25.704 Z M39.093,17.3955 L42.0391875,18.9426915 L42.039,17.4045 L42.5790949,17.8191849 L42.579,20.7915 L42.0036168,20.6661247 L41.8201897,20.6376874 L39.093,20.3865 L39.093,17.3955 Z M28.5015,14.2155 L36.5535,16.062 L37.5,16.5585 L37.5,20.2395 L36.8668814,20.1812105 L36.762,20.232 L28.503,19.905 L28.5015,14.2155 Z M14.9985,13.989 L14.997,19.875 L14.3201953,19.8750568 L6,20.1885 L6,15.8505 L14.4765,13.9905 L14.9985,13.989 Z M27,13.989 L27,19.875 L16.5,19.875 L16.5,13.989 L27,13.989 Z M39.093848,4.75854651 L42.5790949,10.6000324 L42.579,13.5225 L39.093,11.058 L39.093848,4.75854651 Z M29.1036671,0 L37.3379908,4.76005282 L37.5,4.98532761 L37.5,9.933 L37.477835,9.91722198 L37.071,10.047 L28.5015,7.422 L28.5,0 L29.1036671,0 Z M15,0 L14.9985,7.239 L14.1047948,7.23976355 L6,9.615 L6,4.161 L14.3956412,0 L15,0 Z M27,0 L27,7.239 L16.5,7.239 L16.5,0 L27,0 Z" id="Combined-Shape"></path></g></g></svg>