<svg xmlns="http://www.w3.org/2000/svg" xmlns:xlink="http://www.w3.org/1999/xlink" width="37px" height="55px" viewBox="0 0 37 55" version="1.1" class="svg-convert" src="https://d1i2cp4a5c819e.cloudfront.net/wp-content/uploads/2020/02/ic-technology-firebase2x.svg" alt="ic-technology-firebase2x"><desc>Created with Sketch.</desc><g id="Page-1" stroke="none" stroke-width="1" fill="none" fill-rule="evenodd"><g id="ic-technology-firebase" fill="#252B33" fill-rule="nonzero"><path d="M29.8556491,15.3267359 C30.5038352,14.6772659 31.4353176,15.0519985 31.5822436,15.9578044 L31.5822436,15.9578044 L36.2827345,44.9067917 L19.8238839,54.0855301 C18.7891255,54.662393 17.529556,54.6621077 16.4953681,54.0846742 L16.4953681,54.0846742 L0.185440586,44.9695562 Z M19.0858007,10.5357379 L19.1741287,10.6821286 L23.7442406,19.38457 L18.962869,24.5837535 L0.635918564,42.8425189 L0.137226034,43.0450771 L-1.73194792e-12,43.183159 L14.6231314,15.2396877 L17.2565304,10.5965407 C17.6590612,9.82116723 18.6108512,9.84767944 19.0858007,10.5357379 Z M6.25676537,0.982445559 C6.4297957,-0.118072996 7.75883412,-0.36870308 8.28234716,0.614417319 L8.28234716,0.614417319 L14.578483,12.5218426 L0.407683996,39.4131526 L0.178736196,39.8596365 Z" id="Combined-Shape"></path></g></g></svg>