 <svg xmlns="http://www.w3.org/2000/svg" xmlns:xlink="http://www.w3.org/1999/xlink" width="54px" height="39px" viewBox="0 0 54 39" version="1.1" class="svg-convert" src="https://d1i2cp4a5c819e.cloudfront.net/wp-content/uploads/2020/02/ic-technology-gradle2x.svg" alt="ic-technology-gradle2x"><desc>Created with Sketch.</desc><g id="Page-1" stroke="none" stroke-width="1" fill="none" fill-rule="evenodd"><g id="ic-technology-gradle" fill="#252B33" fill-rule="nonzero"><path d="M39.1671866,2.25498574 C42.5405329,-0.828111952 47.8027502,-0.739006587 51.0651801,2.45645501 C54.2454614,5.58838632 57.856016,14.214934 44.118448,24.276187 C40.1524502,27.1822285 38.7618566,32.9821013 38.6745548,38.0310432 C38.6677411,38.4645975 38.3067843,38.8125 37.8638948,38.8125 L37.8638948,38.8125 L34.2034534,38.8125 C33.7943482,38.8125 33.4493807,38.5139993 33.3990293,38.116515 C33.0370573,35.3978755 30.671293,33.3640286 27.8709521,33.3640286 C25.0706113,33.3640286 22.704847,35.3978755 22.342875,38.116515 C22.2925236,38.5139993 21.9475561,38.8125 21.5384509,38.8125 L21.5384509,38.8125 L17.8343586,38.8125 C17.4239223,38.8125 17.0769612,38.5149499 17.0236986,38.116515 C16.6730001,35.390488 14.3051317,33.3459243 11.4987394,33.3459243 C8.69234703,33.3459243 6.32447863,35.390488 5.97378012,38.116515 C5.92342871,38.5139993 5.57846122,38.8125 5.16935603,38.8125 L5.16935603,38.8125 L1.36549017,38.8125 C0.976707493,38.8084175 0.643862381,38.5385581 0.567301929,38.165356 C-1.52170637,27.3287516 2.36946132,18.7876758 8.77991066,14.3553519 L8.77991066,14.3553519 L12.1160881,20.0025965 C12.9241082,21.3527331 14.4026897,22.1822494 16.0010199,22.1821276 C16.7614581,22.1851626 17.5095138,21.9936508 18.1710942,21.6265609 L18.1710942,21.6265609 L19.7362915,20.7718428 L19.7861783,20.7718428 C21.6270076,19.6652932 23.3651546,18.4027988 24.9806377,16.9988729 C25.155553,16.8426027 25.2532551,16.6201515 25.248779,16.38836 C25.2474202,16.1498683 25.1348954,15.9250397 24.9432226,15.777847 L24.9432226,15.777847 L24.8414875,15.7042244 C24.5242205,15.5078973 24.1067508,15.5324382 23.8145345,15.777847 C22.2807424,17.1143337 20.6325847,18.319434 18.8882165,19.3798733 L18.8882165,19.3798733 L17.3230192,20.2406965 L17.3916135,20.1918555 L17.3043117,20.2406965 C15.9697824,20.9687954 14.2854524,20.5151104 13.5191534,19.2211399 L13.5191534,19.2211399 L9.98966472,13.2442184 C9.60272393,12.5792092 9.51736907,11.7861078 9.75424555,11.0567476 C9.99112204,10.3273873 10.5286574,9.72819148 11.2368339,9.4040921 C31.8275962,-0.187065961 40.9007517,18.4579988 47.6978234,11.8034079 C49.1068453,10.4299795 49.5287819,8.35925129 48.7659007,6.56162991 C48.0030195,4.76400854 46.2064902,3.59570388 44.2182215,3.60421931 C43.1585458,3.60110624 42.126971,3.93775649 41.2811382,4.5627246 C40.956441,4.8009761 40.5023362,4.7697771 40.2148086,4.48946305 L40.2148086,4.48946305 L39.148479,3.40885517 C38.9936698,3.25371002 38.9064712,3.04575573 38.905281,2.82886789 C38.9110428,2.61106083 39.0053111,2.40450203 39.1671866,2.25498574 Z M37.5818007,15.7212159 C37.2629516,15.0272238 36.4917645,14.6461178 35.7321016,14.8071297 C34.9724386,14.9681417 34.4313016,15.6273972 34.4341683,16.38836 L34.4341683,16.38836 L37.0532349,17.6765422 C37.6802771,17.2329792 37.9006498,16.4152081 37.5818007,15.7212159 Z" id="Shape"></path></g></g></svg>