         <svg xmlns="http://www.w3.org/2000/svg" xmlns:xlink="http://www.w3.org/1999/xlink"
                                width="48px" height="48px" viewBox="0 0 48 48" version="1.1" class="svg-convert"
                                src="https://d1i2cp4a5c819e.cloudfront.net/wp-content/uploads/2020/02/ic-technology-ionic2x.svg"
                                alt="ic-technology-ionic2x">
                                <desc>Created with Sketch.</desc>
                                <g id="Page-1" stroke="none" stroke-width="1" fill="none" fill-rule="evenodd">
                                    <g id="ic-technology-ionic" fill="#252B33" fill-rule="nonzero">
                                        <path
                                            d="M23.9983513,7.33233041e-05 C27.8278914,-0.00944551888 31.6028605,0.907972769 35.0008646,2.67405237 L35.0008646,2.67405237 L35.4481478,2.90585607 L35.0563669,3.23234014 C34.0910173,4.00302858 33.3307008,4.99996277 32.8428049,6.13478358 L32.8428049,6.13478358 L32.7089464,6.46126765 L32.4020514,6.31434982 C23.8606082,2.25865124 13.6414828,4.87253523 8.09641445,12.5313315 C2.55134608,20.1901278 3.25817171,30.7145427 9.77756097,37.5630833 C16.2969502,44.4116238 26.7738253,45.6355527 34.6962416,40.4741321 C42.6186579,35.3127114 45.7323094,25.2346121 42.1018933,16.5039178 L42.1018933,16.5039178 L41.9712997,16.1774338 L42.2977837,16.0598995 C43.455095,15.6277734 44.4879192,14.9167957 45.3047021,13.9899904 L45.3047021,13.9899904 L45.6311862,13.6112689 L45.840136,14.0683466 L45.8368711,14.0389631 C50.2568293,23.7277324 47.7635813,35.1704194 39.7134793,42.1420864 C31.6633774,49.1137533 19.9818848,49.9468822 11.0238521,44.1882426 C2.06581939,38.4296029 -2.02612679,27.4565746 0.97407382,17.2385965 C3.97427443,7.02061836 13.349019,0.00167701352 23.9983513,7.33233041e-05 Z M24.0016161,13.0725702 C30.0390908,13.0797662 34.9316366,17.972312 34.9388327,24.0097867 C34.9388327,30.0502446 30.042074,34.9470033 24.0016161,34.9470033 C17.9611582,34.9470033 13.0643996,30.0502446 13.0643996,24.0097867 C13.0643996,17.9693288 17.9611582,13.0725702 24.0016161,13.0725702 Z M39.7055002,4.0779339 C42.457064,4.0779339 44.6876472,6.30851709 44.6876472,9.0600809 C44.6876472,11.8116447 42.457064,14.0422279 39.7055002,14.0422279 C36.9539364,14.0422279 34.7233532,11.8116447 34.7233532,9.0600809 C34.7233532,6.30851709 36.9539364,4.0779339 39.7055002,4.0779339 Z"
                                            id="Combined-Shape"></path>
                                    </g>
                                </g>
                            </svg>