 <svg xmlns="http://www.w3.org/2000/svg" xmlns:xlink="http://www.w3.org/1999/xlink" width="40px" height="54px" viewBox="0 0 40 54" version="1.1" class="svg-convert" src="https://d1i2cp4a5c819e.cloudfront.net/wp-content/uploads/2020/02/ic-technology-jenkins2x.svg" alt="ic-technology-jenkins2x"><desc>Created with Sketch.</desc><g id="Page-1" stroke="none" stroke-width="1" fill="none" fill-rule="evenodd"><g id="ic-technology-jenkins" fill="#252B33" fill-rule="nonzero"><path d="M27.8688945,1.81839795 C29.0300856,2.68932978 30.8788139,4.53805811 31.5358624,5.88264381 C32.2942754,7.40618332 32.6997156,9.37385115 32.8172808,11.4649019 C32.9942239,11.6333536 33.1681316,11.8045922 33.3388575,11.9790126 C36.868164,15.584849 39.0531927,20.5810042 39.0531927,26.0968544 C39.0531927,29.7999626 38.062777,33.2746261 36.3385167,36.2503172 C36.7734431,36.4378342 37.1383113,36.7741972 37.387705,37.3116415 C37.8003813,38.1824193 38.2738812,39.6340237 38.4725202,40.5354443 C38.7627795,41.7884097 38.1516182,44.4469383 36.8529196,44.8593066 C35.7069729,45.2260958 34.3777856,45.2108514 33.0027111,44.9358365 C32.8345609,44.7983291 32.6665647,44.5690474 32.5290572,44.3245212 C31.5512607,44.2940325 30.6191974,44.3705624 29.8551302,44.7830847 C29.9315062,45.5163551 29.4426079,45.6233738 28.968954,45.7762796 C28.6328076,47.1359557 29.6564913,48.9083081 29.4121191,50.1306307 C29.2439689,51.016807 28.1591537,51.1543144 27.3647518,51.3070662 C27.3341091,51.7961185 27.3952406,52.2086408 27.4563721,52.6211632 C27.2731315,53.293456 26.4631772,53.6753356 25.6840197,53.7671099 C23.1325097,54.0726135 19.2669029,54.210121 16.8222576,53.3239448 C16.1345664,51.6433666 15.599935,49.6112437 15.0345068,47.7013839 C12.6509931,47.9610004 10.7106444,46.6775462 8.89240486,45.8220128 C8.26599915,45.5317535 7.39506733,45.3636033 7.15054121,44.8594606 C6.92141346,44.3705624 7.01303376,43.438499 6.95190223,42.5675672 C6.92570445,42.1396602 6.89950666,41.7145255 6.87024528,41.2907893 C6.46989442,40.9438102 6.08463079,40.5792058 5.71433521,40.1992978 C2.18502874,36.5934615 -1.54187774e-12,31.5973063 -1.54187774e-12,26.0968544 C-1.54187774e-12,20.5964026 2.18502874,15.6000933 5.71433521,11.9790126 C6.1613429,11.5223319 6.6301627,11.0874633 7.11905661,10.6762071 C7.18494052,8.72795817 7.72130426,7.12074143 9.09104383,6.50904951 C9.73269392,3.95753955 12.0244334,3.11725049 14.1789733,1.84904071 C14.9887736,1.37538684 15.8749498,1.06988317 16.7916148,0.733582765 C20.0765492,-0.473341498 25.1339899,-0.244213748 27.8688945,1.81839795 Z M14.8358678,39.6187793 C15.3401644,44.2176566 16.0581905,48.0678651 17.3873778,52.1475093 C20.3363197,53.0489299 23.8810245,53.1253058 26.49382,52.3155055 C26.0201661,50.0237661 26.2188051,47.22773 25.9437902,44.7676863 C25.7297529,42.918958 25.8367715,41.0702297 25.5465122,39.1908586 C22.383687,38.5339641 17.9223172,39.0381067 14.8358678,39.6187793 Z M26.6313274,46.0970277 C26.5854403,47.2429744 26.7381921,49.0612139 26.7993237,50.2681382 C27.5633908,50.2681382 27.8841388,50.100142 28.449567,49.9167474 C28.5106985,48.5110302 28.0064019,47.2123316 27.8536501,45.9288774 C27.5479924,45.8220128 26.9979626,46.112272 26.6313274,46.0970277 Z M11.9023243,25.8216855 C9.50356617,26.7691472 7.25755988,28.4039922 5.25592573,29.9623073 C7.1657856,34.0724403 7.94509712,39.0992383 8.08260456,43.9426417 C10.2676333,44.9663253 12.1925836,46.4484185 15.1720142,46.6011703 C14.8206234,44.1719234 14.5151198,41.9868947 14.3164808,39.6950012 C13.567812,39.3742532 12.4982412,39.7103996 11.7954596,39.6033809 C11.7954596,38.7630919 12.8648764,39.2367457 12.9564967,38.6714715 C13.0177822,38.2435508 12.3605798,38.2130621 12.5746171,37.5407692 C13.1246469,37.7394082 13.4149062,38.1824193 13.9955788,38.3505695 C14.5303642,37.1893784 13.9955788,35.1267667 14.0719547,34.1488162 C14.087353,33.9655756 14.163575,33.1403769 14.5760973,33.2778844 C14.9428865,33.4001474 14.5608529,35.4934019 14.5914957,36.4100669 C14.6219845,37.2657543 14.484477,38.0755546 14.8358678,38.61034 C17.7084338,38.2130621 20.6267329,37.9685359 23.7435171,37.8769156 C23.0559798,37.5866564 22.2461795,37.3116415 21.3600033,36.8073448 C20.8711051,36.5323299 19.3585232,35.9670558 19.2210157,35.5086463 C18.991734,34.7752219 19.8015343,34.3933423 19.9390417,33.7667826 C18.4875913,34.5613386 18.2125764,33.0030235 17.8611856,31.9180543 C17.555528,30.9248594 17.3722874,30.1763446 17.2959115,29.6109165 C16.0277017,28.9692664 14.683116,28.3733495 13.6135452,27.6094363 C13.4149062,27.4719289 12.0857189,25.7453096 11.9023243,25.8216855 Z M27.8384057,39.0381067 C27.3036203,39.0535051 26.8298124,39.0381067 26.295181,39.2213474 C26.2645383,41.1924927 26.3868013,43.1480858 26.5397071,45.1190772 C27.3034663,45.0122125 27.8077629,44.9358365 28.5106985,44.7676863 C28.2814168,42.8730709 28.3120595,40.7188389 27.8384057,39.0381067 Z M34.713932,37.1587357 C33.6596056,37.8310285 31.8108772,38.0296675 31.0469641,38.8394678 C31.4288437,40.1229219 31.5511067,41.8647856 31.7038586,43.4842322 C33.0179555,43.5607621 34.6221577,43.117751 35.7223713,43.5912509 C34.9583041,43.835777 33.9805076,43.835777 33.3234592,44.2024122 C33.8734889,44.4621827 35.1264543,44.4164495 35.951499,44.2178105 C37.0822013,43.9426417 37.784983,42.5675672 37.4640809,41.1466056 C37.2501976,40.1992978 36.8835624,38.3964567 36.470886,37.7851414 C36.1806268,37.3421302 35.3708265,36.7462133 34.713932,37.1587357 Z M29.0148412,38.9005993 C29.1828374,40.5049555 29.564871,42.2773079 29.7023784,43.9732844 C30.2371638,43.9885288 30.5274231,43.7287583 30.9705882,43.6523824 C31.001077,42.1702892 30.8483251,40.1229219 30.1301451,38.9005993 C29.7635099,38.8242234 29.3509876,38.9005993 29.0148412,38.9005993 Z M35.951499,41.7884097 C34.9278154,41.803654 33.6596056,41.7884097 32.6818091,41.7118798 C33.2623276,41.0854741 35.2944506,41.482752 35.951499,41.7884097 Z M35.630597,40.2756738 C34.713932,40.3674481 33.6443612,40.5201999 32.7276962,40.443824 C33.1707073,39.7715311 34.8514394,40.0159033 35.630597,40.2756738 Z M35.1416987,38.5339641 C34.0263948,38.7630919 33.2470832,39.847907 32.1470237,39.7715311 C32.758185,38.9310881 33.797113,38.5644529 35.1416987,38.5339641 Z M7.21900089,12.1583809 L7.53217295,11.8737011 C7.19556855,12.1716386 6.86949965,12.4819767 6.55462428,12.8040573 C3.23920117,16.2112547 1.17643549,20.9020602 1.17643549,26.0968544 C1.17643549,31.2916486 3.23920117,35.9823002 6.55462428,39.3894976 L6.72556476,39.5605073 C6.60059921,38.3419624 6.41537049,37.1194592 6.09636878,35.8600371 C5.83659827,34.8211091 5.3629444,33.9196885 5.04204237,32.9266476 C4.7365387,32.0098286 4.21699769,30.8638819 4.07949024,29.9470629 C3.88085126,28.5873868 5.16430543,28.5108569 5.97410572,27.91494 C7.2423155,26.998275 8.2353564,26.4939784 9.61043086,25.6689337 C10.0231072,25.4245616 11.2452758,24.8134002 11.3827833,24.522987 C11.6579522,23.9578668 10.9092834,23.1633109 10.7106444,22.7201458 C10.3897424,22.0173642 10.2215922,21.4214472 10.175859,20.733756 C9.0299123,20.5505154 8.14373609,19.8629782 7.62434906,19.099065 C6.75326326,17.8156109 6.14210194,15.4473415 6.90616907,13.6597447 C6.9673006,13.5222373 7.25755988,13.231824 7.30344703,13.0179406 C7.35804352,12.7630347 7.28786247,12.4592457 7.21900089,12.1583809 Z M29.4883411,24.7675131 C29.167593,25.2718097 28.4341686,25.6078022 28.1591537,26.0204785 C30.1607879,25.0579264 30.5274231,29.6415592 29.7328672,31.1236524 C29.8551302,31.5666635 30.2676526,31.7348137 30.4358028,32.1319377 C29.3203448,34.1335718 28.0829318,35.9975445 26.9368311,37.9685359 C27.7772741,37.4337505 28.9995968,37.8769156 29.9926377,37.4796377 C30.3594269,37.3421302 30.6191974,36.5018412 30.8942123,35.8295483 C31.6579714,33.9960644 32.4525273,31.6735282 32.8040721,29.9319725 C32.880448,29.5346946 33.1095758,28.6636087 33.0484443,28.3122179 C32.956824,27.6705678 32.1011365,27.196914 31.6579714,26.8148804 C30.8483251,26.081456 30.3440285,25.4552043 29.4883411,24.7675131 Z M22.7809649,32.0709601 C21.6350182,32.8347193 20.3822068,33.5682977 20.0460604,34.9586165 C21.6961498,35.8906799 23.6061636,36.7921005 25.4701363,37.3573746 C24.6755804,35.4934019 23.9575544,33.5682977 22.7809649,32.0709601 Z M27.4258833,31.5971523 C27.3493534,33.461279 27.1354701,35.9059242 26.6465718,37.3573746 C27.8230073,35.8447927 28.7857134,34.1029291 29.7787543,32.3917082 C29.3509876,31.7041709 28.4648114,31.108254 27.4258833,31.5971523 Z M32.8511837,13.1765502 L32.8412024,13.5882634 C32.774988,15.6891958 32.4517014,17.8058866 31.9331403,19.6338504 C31.7649901,20.214369 31.5358624,21.0546581 31.1997159,21.7575937 C30.9705882,22.2464919 30.2524082,23.209044 30.3287841,23.6368108 C30.4205584,24.0799759 31.9790274,25.2564114 32.3151739,25.5773134 C32.9110908,26.1578319 34.0568835,26.9218991 34.1485038,27.6553235 C34.2555225,28.434481 33.8125114,29.5040518 33.5833836,30.2527206 C32.8498053,32.7584974 32.1165349,35.0656352 31.2760918,37.3116415 C32.2815765,36.8132609 33.7823663,36.1197432 35.0856196,36.0556775 L34.9842688,36.2216149 C36.8124841,33.2992696 37.8766033,29.8281078 37.8766033,26.0968544 C37.8766033,21.0887075 35.9596605,16.549242 32.8511837,13.1765502 Z M25.2103658,30.8179947 L25.2103658,30.8181487 C24.7672007,30.7721076 24.3853211,31.3375357 23.8046486,31.0930096 C23.6671412,31.2457615 23.5448781,31.3986673 23.4073706,31.5514191 C24.6908248,33.1097342 25.2867417,35.3101613 26.2799366,37.1282469 C26.814722,35.3712928 26.7535905,33.461279 26.8758536,31.5514191 C26.1424292,31.5819079 25.7299068,30.8638819 25.2103658,30.8179947 Z M25.9131474,33.8126698 C26.1424292,33.8126698 26.3104254,33.98082 26.3104254,34.2099477 C26.3104254,34.4239851 26.1271848,34.6072257 25.9131474,34.6072257 C25.6992641,34.6072257 25.5158695,34.4239851 25.5158695,34.2099477 C25.5158695,33.9959104 25.6992641,33.8126698 25.9131474,33.8126698 Z M17.9528059,30.0235928 C17.9986931,30.909615 18.4571026,31.8416784 18.6557415,32.4375953 C18.7473618,32.7126102 18.7778506,33.0028695 19.0071323,33.064001 C19.4196547,33.1557753 20.7947292,32.6209899 21.1767627,32.4069526 C22.0018074,31.9639415 22.6434575,31.2459154 23.3463931,30.7568632 L23.3768819,30.0540816 C22.9491151,29.8400442 22.4754613,29.7026908 21.8489016,29.672202 C22.2615779,29.4581647 22.8879836,29.4581647 23.2698632,29.2137925 C23.2698632,29.1220182 23.2698632,29.0303979 23.2852616,28.9386236 C22.582326,28.8622477 22.3225555,28.5567441 21.8489016,28.2969735 C21.1002328,27.8842972 19.9696845,27.4412861 18.991734,27.2580455 C17.7848097,27.0287638 17.9069188,28.9081349 17.9528059,30.0235928 Z M25.5158695,31.9639415 C25.7451512,31.9639415 25.9131474,32.1471821 25.9131474,32.3612194 C25.9131474,32.5751028 25.7299068,32.7584974 25.5158695,32.7584974 C25.3019861,32.7584974 25.1185915,32.5751028 25.1185915,32.3612194 C25.1185915,32.1471821 25.3019861,31.9639415 25.5158695,31.9639415 Z M18.9213975,27.6131428 C19.7969267,27.7773572 20.8883379,28.1830226 21.6669082,28.612021 L22.0588979,28.865582 L22.2541095,28.9869264 L22.4351569,29.0826752 L22.409187,29.0901674 C22.0553441,29.1695823 21.876757,29.2212507 21.6802515,29.3195035 L20.3954651,29.9618966 L21.8301168,30.0334485 L22.1264553,30.0594933 C22.3192864,30.0841068 22.5034631,30.1232134 22.6837935,30.1767664 L22.9887589,30.2818947 L22.9766913,30.53984 L22.7812844,30.6878991 L22.2291848,31.1442011 L22.096149,31.2572435 C21.6306268,31.6504959 21.3309883,31.8746674 20.9936518,32.0620346 C20.5159239,32.3193829 19.5029565,32.6736489 19.1737463,32.6884383 L19.1138917,32.684 C19.1198093,32.6798726 19.120287,32.6767338 19.1200433,32.6722976 L19.0135224,32.3031574 L18.7011677,31.4777631 C18.5320571,31.0252261 18.4247489,30.6681242 18.367796,30.328762 L18.3432437,30.1548328 L18.3216708,29.8045833 C18.3099589,29.5260214 18.303954,29.3328328 18.3031689,29.1500908 L18.3035513,29.0138223 C18.3086937,28.4916696 18.3627002,28.1024005 18.4741556,27.8555738 C18.5737923,27.6349205 18.6871442,27.5686711 18.9213975,27.6131428 Z M25.5465122,28.3428607 C25.6228882,28.5567441 25.7451512,28.7247403 25.7603956,28.9997552 C26.1730719,28.8928905 26.6618162,28.9692664 27.013207,29.1372626 C26.6006847,29.1831498 26.1576736,29.1831498 25.8826587,29.3817887 C25.7908844,29.672048 25.9131474,30.0540816 25.8367715,30.4513595 C26.7993237,30.7263744 27.9147816,30.8638819 29.1371042,30.909615 C29.366232,30.6041114 29.4578523,30.0234388 29.4273635,29.4276759 C29.3968747,28.7247403 29.2133262,27.2732899 28.770315,27.0135194 C27.8536501,26.478734 26.2340495,28.0983346 25.5465122,28.3428607 Z M28.5844089,27.3568692 C28.7808314,27.4720535 29.0110095,28.5265795 29.0505898,29.4589154 L29.0556703,29.6864558 C29.0531963,29.9836092 29.014479,30.2526643 28.9484961,30.4556638 L28.9139594,30.5383316 L28.6398695,30.5278182 C27.807706,30.4819833 27.0381098,30.3754447 26.3461277,30.2101863 L26.2304228,30.17932 L26.2142265,29.7013698 L26.2153383,29.6438194 L26.2930013,29.6219302 C26.3495641,29.6076951 26.4180869,29.5953867 26.5032307,29.5838946 L27.05476,29.5274778 L28.3662843,29.3820792 L27.1759884,28.8124897 L26.974928,28.7290397 C26.6972162,28.6298979 26.3851512,28.5801179 26.0887966,28.5900485 L26.050917,28.5924282 L26.0297986,28.5366155 L26.2487909,28.4016918 L26.8892019,27.9714537 L27.2199566,27.7587281 C27.3216058,27.6961252 27.4161597,27.641023 27.5081389,27.5910074 C28.0200368,27.3126516 28.3778434,27.2398281 28.5844089,27.3568692 Z M23.7894042,28.9386236 C23.7435171,29.473409 23.8657801,29.6415592 23.9726448,30.2527206 C25.7145085,30.8027503 25.4242492,27.8538085 23.7894042,28.9386236 Z M24.8050723,29.4560974 L24.8100316,29.5739903 C24.8012225,29.8356011 24.6500275,29.9992977 24.3623542,29.9893756 L24.3024186,29.9806399 L24.1856696,29.4654978 L24.1633202,29.308555 L24.156301,29.164287 L24.2419563,29.1244404 C24.5850449,28.9834738 24.7690175,29.1314874 24.8050723,29.4560974 Z M14.6678716,26.998275 C14.0414659,27.6399251 16.4248257,28.4956125 17.1736484,28.5414997 C17.1736484,28.1442217 17.4027761,27.7623421 17.356889,27.4719289 C16.4554684,27.319177 15.2790329,27.4260417 14.6678716,26.998275 Z M26.2188051,26.9676322 C25.0269712,27.0746509 23.5296337,27.8080753 22.3684426,27.2885343 C22.3685966,27.3496658 22.2920667,27.3344214 22.2768223,27.3803086 C23.0866226,28.0067143 23.6823855,28.1440677 24.7672007,28.0830902 C25.256253,27.7316994 25.6992641,27.3039326 26.2188051,26.9676322 Z M18.6709859,1.74202204 C16.7457277,2.70457416 14.1484846,4.29353199 13.2621544,6.29532013 C14.0871991,8.23551479 13.0177822,10.0078672 12.9412523,11.9788586 C12.9107636,13.033185 13.4303046,13.9347596 13.4760377,15.0807063 C13.1857785,15.5543602 12.330091,15.6000933 11.7343281,15.5696046 C11.5356891,14.5610113 11.1842983,13.430463 10.1452163,13.3081999 C8.67852149,13.1402037 7.59370631,14.3625263 7.53257478,15.6307361 C7.45619886,17.1280736 8.67852149,19.6032077 10.4202312,19.4352114 C11.092524,19.3740799 11.2606742,18.7017871 11.9939446,18.7017871 C12.3912226,19.496343 11.3829373,19.7407151 11.2759186,20.3059893 C11.2452758,20.4588951 11.3522945,21.0241693 11.4286704,21.2991842 C11.7495725,22.5978827 12.4523541,24.2938592 13.1398913,25.2870541 C14.0260675,26.5551099 15.7526868,26.7385045 17.6166595,26.8607676 C17.9528059,26.1425876 19.1751286,26.2037191 19.9695305,26.3871137 C19.0071323,26.0052341 18.1209561,25.0884151 17.3875318,24.2786148 C16.5470887,23.3465515 15.6915553,22.3535106 15.6456681,21.131188 C17.2500243,23.3465515 18.5639673,25.2870541 21.467022,26.2650046 C23.6671412,26.998275 26.2340495,25.9287042 27.930026,24.7370243 C28.6328076,24.2479721 29.0453299,23.4535702 29.5496266,22.7506346 C31.4135993,20.0616172 32.2845311,16.2417434 32.1011365,12.5290424 C32.0247606,11.0012161 32.0247606,9.47323579 31.5052196,8.44955213 C30.9705882,7.37998133 29.1523486,6.40218482 28.0827778,7.37998133 C27.8841388,6.3258089 28.968954,5.68400483 30.2370098,6.0660384 C29.3357432,4.88960291 28.3884355,3.49913007 27.0895829,2.76570569 C24.8437306,1.4976499 21.0544997,0.550342159 18.6709859,1.74202204 Z M21.3142702,20.6116469 C22.1698036,22.7506346 25.0881028,22.5062624 27.5479924,22.4451309 C27.4411277,22.7201458 27.211846,23.0562922 26.9063423,23.1631569 C26.1117864,23.4840589 23.942156,23.7285851 22.8420965,23.1479125 C22.1545592,22.7812773 21.6961498,21.9408343 21.3142702,21.451936 C21.14612,21.2228083 20.229455,20.6268913 21.3142702,20.6116469 Z M21.5433979,19.4198131 C22.7657206,20.0616172 25.0269712,20.1379931 26.7077033,20.0921059 C26.7993237,20.4588951 26.7993237,20.9171506 26.7993237,21.3603157 C24.6450916,21.451936 22.1086721,20.9171506 21.5433979,19.4198131 Z M30.7719492,18.6100128 C30.1149007,19.8629782 29.1828374,21.2380526 27.2577331,21.2839398 C27.211846,20.8866618 27.1813572,20.2602561 27.2577331,20.01573 C28.7398263,19.8629782 29.6564913,19.1143094 30.7719492,18.6100128 Z M26.4479328,11.2914754 C27.013207,12.6054183 28.4343226,14.3013948 29.4578523,15.4320971 C29.7176228,15.707112 30.1301451,15.9821269 30.1760323,16.1655215 C30.299789,16.6329698 29.9161571,17.1994512 29.882758,17.5643492 L29.885773,17.6779494 C28.4800558,18.579524 26.9061883,19.5727189 24.5839601,19.3434372 C24.0950619,18.9156704 23.8964229,17.9529643 24.3853211,17.3267126 C24.6296933,17.7544793 24.4769414,18.5490352 25.179877,18.6711443 C26.49382,18.900426 28.0216463,17.861344 28.968954,17.5101072 C29.5494726,16.5169123 28.9232209,16.1655215 28.3884355,15.5237174 C27.3036203,14.2250189 25.8674143,12.6054183 25.9131474,10.6650697 C26.3563125,10.3441676 26.3868013,11.1539679 26.4479328,11.2914754 Z M11.303013,16.5790071 L11.2757646,16.7307957 C10.8327535,16.4710252 10.7258888,15.3709656 10.2063478,15.3403228 C9.45767903,15.2945897 9.59518648,16.7766828 9.59518648,17.6474607 C9.09104383,17.1892052 8.99926955,15.7528452 9.36605873,15.0195748 C8.938292,14.8055374 8.75474343,15.2487025 8.51037129,15.4014544 C8.8242972,13.2342509 11.6385062,14.3275687 11.303013,16.5790071 Z M12.6051059,6.58557941 C11.1231668,6.70768849 9.91608851,7.30360542 9.04515669,8.28155591 C8.09784895,9.33572834 8.29648793,11.2914754 8.4035066,12.6970386 C10.1299719,11.6123774 12.4066209,12.7888129 12.3912226,14.6222968 C13.2162672,14.6068985 12.6968802,13.5986132 12.5441284,12.9415647 C12.0550761,10.8178215 13.3691731,8.52592805 12.6051059,6.58557941 Z M21.6504166,9.82478058 C22.0781833,10.6039381 22.2155368,11.4137384 22.8114537,11.994411 C23.0866226,12.2540275 23.6060096,12.5749295 23.3463931,13.3081999 C23.2852616,13.4763501 22.8420965,13.8583837 22.582326,13.9347596 C21.6504166,14.2097745 19.4653878,13.9958911 20.1988122,12.8193017 C20.9779698,12.8499444 22.0170518,13.3235983 22.5977243,12.7581701 C22.1545592,12.0553885 21.3600033,10.6496713 21.6504166,9.82478058 Z M30.3287841,9.79398384 C30.7719492,10.7108028 31.1538288,11.6887533 31.7192569,12.513798 C31.3373774,13.3999742 28.8773337,14.1638873 28.9078225,12.6054183 C29.4426079,12.3762905 30.3594269,12.5595311 30.8330807,12.2540275 C30.5580658,11.5053587 30.1760323,10.8635546 30.2371638,9.79413783 L30.2371638,9.79398384 L30.3287841,9.79398384 Z M19.8626658,6.41742921 C20.3515641,6.47856074 21.0238569,6.93697022 20.6572217,7.56337592 C18.6862303,7.10496644 17.7084338,8.3884206 17.1125169,9.71760793 C16.5777315,9.59549885 16.7916148,8.86207447 16.9292763,8.49543928 C17.2805131,7.53288715 18.7016287,6.23403462 19.8626658,6.41742921 Z M15.8595515,2.18518713 C13.7053195,2.79634845 10.9397722,4.37006189 10.053596,6.31041053 C10.7411332,6.20354584 11.2147871,5.86739942 11.8870799,5.82151228 C12.1468504,5.80626789 12.4829968,5.92853095 12.7732561,5.85215503 C13.3537747,5.6994032 13.8580713,4.38530628 14.3010824,3.89640802 C14.7290031,3.42275415 15.2483902,3.20887079 15.599935,2.78110406 C15.8290627,2.67408539 16.1650551,2.67408539 16.1804535,2.33793897 C16.0888332,2.23092029 15.9818145,2.15469836 15.8595515,2.18518713 Z" id="Combined-Shape"></path></g></g></svg>