<svg xmlns="http://www.w3.org/2000/svg" xmlns:xlink="http://www.w3.org/1999/xlink" width="18px" height="40px" viewBox="0 0 18 40" version="1.1" class="svg-convert" src="https://d1i2cp4a5c819e.cloudfront.net/wp-content/uploads/2020/02/ic-technology-mango-db.svg" alt="ic-technology-mango-db"><desc>Created with Sketch.</desc><defs></defs><g id="Page-1" stroke="none" stroke-width="1" fill="none" fill-rule="evenodd"><g id="ic-technology-mango-db" fill="#252B33" fill-rule="nonzero"><path d="M17.9245337,17.7397594 C17.7998862,16.1281857 17.4205536,14.5741442 16.8929917,13.0517285 C15.8001366,9.65228362 14.0463131,6.64378838 11.575935,4.05517705 C10.9513502,3.4004542 10.2566932,2.80057196 9.82110085,1.98570107 C9.54552889,1.47026663 9.28309544,0.947766843 9.01459806,0.428295063 L8.84447111,0 C8.81583588,0.0982420725 8.79764409,0.1332324 8.79663344,0.168559172 C8.77473591,1.01539238 8.29433784,1.58970477 7.69603,2.12566238 C7.02327057,2.72890908 6.39700128,3.38363193 5.75051888,4.01581294 C5.08752912,4.88653377 4.42487624,5.75725461 3.76256024,6.62763899 C3.22623926,7.61174195 2.69059204,8.5958449 2.15494482,9.57994785 L1.08028154,12.4790983 L1.04794057,12.524182 C0.456370436,14.4647994 0.164627989,16.4599209 0.0211149611,18.4752292 C-0.0327866458,19.2325679 0.028526432,20.0010093 0.0713108324,20.7623854 C0.132287025,21.8507864 0.321616419,22.920683 0.60561051,23.9737573 C1.63715251,27.799815 3.73055617,30.9735049 6.5923946,33.6697788 C7.12433609,34.1707461 7.67008985,34.6262932 8.2252764,35.1030364 C8.32027799,34.7783666 8.39607712,34.4536967 8.48231969,34.1290268 C8.56856226,33.8057028 8.65581549,33.4840609 8.7140966,33.1597275 C8.6554786,33.4840609 8.58978602,33.8057028 8.52476721,34.1290268 L8.24650016,35.1030364 L8.49512132,35.9444865 L8.72555069,37.2512406 L8.83537522,38.6148541 C8.83436456,38.8917487 8.82324736,39.1693162 8.84009161,39.4458743 C8.84413423,39.5165279 8.9371145,39.5817983 8.9889948,39.6497603 L9.45254861,39.8122634 L9.93564177,40 L9.85276805,38.787787 L9.84906231,37.5940786 L10.0158204,35.7755909 L10.1367621,35.3795946 L10.4827431,34.7672639 C10.9099133,34.4240895 11.3684139,34.112541 11.7575161,33.7306754 C12.4616058,33.0396165 13.1640111,32.3398099 13.7939862,31.5831441 C14.6116062,30.6017327 15.3150221,29.5304904 15.8796415,28.3815291 C16.2576265,27.6130877 16.6133771,26.8291698 16.9078146,26.0260745 C17.1672161,25.3181933 17.3279103,24.5743124 17.5323995,23.8462444 C17.5505913,23.7937589 17.574847,23.7422828 17.5863011,23.688788 C18.0087549,21.7236101 18.0798377,19.7385819 17.9245337,17.7397594 Z M9.97438355,34.3517537 L9.70319109,33.7586004 L9.97438355,34.3517537 L10.3729186,34.6915636 L9.97438355,34.3517537 Z" id="Shape-Copy-10"></path></g></g></svg>