 <svg xmlns="http://www.w3.org/2000/svg" xmlns:xlink="http://www.w3.org/1999/xlink" width="50px" height="54px" viewBox="0 0 50 54" version="1.1" class="svg-convert" src="https://d1i2cp4a5c819e.cloudfront.net/wp-content/uploads/2020/02/ic-technology-ms-sql2x1.svg" alt="ic-technology-ms-sql2x1"><desc>Created with Sketch.</desc><g id="Page-1" stroke="none" stroke-width="1" fill="none" fill-rule="evenodd"><g id="ic-technology-ms-sql" fill="#252B33" fill-rule="nonzero"><path d="M20.0665873,0.00056943338 C20.1566706,0.00871118469 20.1730081,0.0413912698 20.3124443,0.59721657 C20.5667349,1.51274897 21.0260387,2.7877623 21.5098488,3.89127115 C22.1330951,5.31355218 23.199232,7.42245423 24.1670035,9.12268561 L24.1670035,9.12268561 L24.332805,9.41725751 C26.1038629,9.68696938 28.2841255,10.0627161 29.2760728,10.2589122 C34.5410293,11.2970232 38.6991185,12.6947659 41.9139426,14.4847827 C44.251381,15.7926646 46.1621151,17.3701666 47.7366062,19.3155929 C48.277938,19.985855 48.7291487,20.6151822 49.3851079,21.6287926 L49.3851079,21.6287926 L49.5,21.8086273 L48.7535793,21.9231395 C43.9240665,22.6593827 36.6371144,24.4226705 30.0473104,26.3735642 C30.0505246,26.4346117 30.0612475,26.5263676 30.0797883,26.6233424 C30.2846502,27.7922491 30.4158799,28.985581 30.4897391,30.4568634 C30.5389408,31.3560746 30.5144345,34.0126225 30.4569128,34.8055386 C30.235562,37.6418081 29.8993569,40.03684 29.4729173,41.8350362 C28.7594742,44.8021392 27.4473289,48.2761038 25.6266781,51.9790175 C25.0935151,53.0660921 24.6342491,53.9406142 24.5685587,53.9816245 C24.5358458,54.0061252 23.7320547,54.0061252 23.1334659,53.9816245 C20.1729324,53.8671123 14.7929325,53.106914 12.0128303,52.4038963 C10.3398602,51.9870839 8.11738954,51.2433199 6.79692421,50.6628431 C4.20545995,49.5266542 1.98291363,47.859216 0.867575006,46.2244956 C-0.00171746978,44.9410766 -0.223257334,43.5515511 0.227839884,42.1782713 C0.482092617,41.4179976 1.07255044,40.4289633 1.81889547,39.4971474 C2.31911872,38.8760373 3.30326551,37.8951824 3.96750692,37.3719995 C4.00884649,37.3392751 4.05104555,37.3056925 4.09406365,37.2712897 L4.00850201,37.2984976 C9.56061322,32.7537419 13.1609575,28.658554 14.8667917,24.9475362 C15.8262431,22.8794937 16.2118012,21.097581 16.1625995,19.0704357 C16.0805715,15.9152432 15.2029968,13.6265064 13.185615,11.305165 C12.7695663,10.8290222 9.52383608,7.66966419 9.13194243,7.28846063 L9.09325411,7.25083667 C8.74067369,6.92380966 8.42908834,6.60507517 8.32236497,6.3435968 C8.27895515,6.23643364 8.25795011,6.13809638 8.25081204,6.05094602 L8.22399946,6.02467385 C8.22399946,5.9265959 8.24048826,5.82851795 8.27327676,5.7467612 L8.27327676,5.7467612 L8.30106827,5.69319939 C8.31708384,5.65361235 8.33049592,5.63232436 8.33049592,5.63232436 C8.33140033,5.63580707 8.33232165,5.63927807 8.33325975,5.64273742 C8.50894788,5.38326234 8.98813042,4.92060703 9.38033317,4.64325235 C10.5941508,3.79334397 12.5622931,2.81241371 15.0965004,1.78236909 C16.9744837,1.02228384 19.8859668,-0.0239689004 20.0663982,0.000418660207 Z M26.1678965,48.3331715 C26.1023195,48.3413509 25.8890618,48.4312494 25.6348469,48.5457239 C24.0193228,49.2976675 22.4200229,49.9107489 20.8043475,50.4011763 C19.5250286,50.7935258 18.2620849,51.1122603 15.6376431,51.7007657 L15.6376431,51.7007657 L14.4158458,51.9788668 L14.6126525,52.0196886 C15.4737005,52.2157691 18.90182,52.812567 20.9437838,53.1231598 C22.1166819,53.2948527 24.043867,53.5646236 24.1833032,53.5726523 C24.2408249,53.5809825 24.2817065,53.5154716 24.3881652,53.2539178 C24.87224,52.0932659 26.2007228,48.4150036 26.1678965,48.3331715 L26.1678965,48.3331715 Z M17.3928681,45.9055349 C17.3928681,45.9137144 17.1631216,46.2488077 16.8925692,46.6576292 C15.916629,48.1453081 14.7437687,49.7146684 13.5628908,51.1206282 C13.3250135,51.3985785 13.1282068,51.6519528 13.1282068,51.6681987 C13.1282068,51.7008787 13.3989483,51.7745691 13.4808629,51.7581349 C13.5136514,51.7500308 14.0713585,51.5946967 14.7192624,51.4067203 C18.2292964,50.4012517 22.5348015,49.1343047 23.9455014,48.6929916 C24.8312449,48.415079 26.0366668,48.0145501 26.0941885,47.9818323 C26.1270148,47.9572939 26.0286115,47.9408597 25.8481802,47.9245762 C24.6589445,47.8265359 22.6415249,47.4832254 21.2473138,47.1316977 C20.1154486,46.845568 19.2708893,46.5922313 18.204601,46.1917778 C17.761786,46.0281135 17.4009234,45.8974309 17.3928681,45.9055349 Z M15.9494267,45.9465075 C15.9411731,45.938215 15.7361977,45.9954711 15.4983203,46.0690484 C14.1942303,46.4777191 12.2014304,47.0416485 8.60929276,48.0144747 C7.25619019,48.3822104 6.13260717,48.6847745 6.11623182,48.6929163 C6.05069263,48.7091621 6.87074562,49.232345 7.52674263,49.5838726 C8.05166126,49.8617853 8.75693557,50.1886615 9.43766578,50.4584324 C9.98716633,50.6790889 12.0619942,51.4066449 12.3573176,51.4884016 L12.3573176,51.4884016 L12.4803029,51.5211194 L12.7181803,51.1041939 C12.8575409,50.8753956 13.1035492,50.4666119 13.2675674,50.2050581 C13.4398299,49.9352872 13.9237157,49.1669471 14.3584754,48.4885055 C15.3752972,46.8864275 15.9575106,45.9546493 15.9494267,45.9465075 Z M10.84829,41.238276 L9.39678415,42.9793292 C7.28912997,45.5132608 6.32124507,46.7311311 5.55039375,47.8428194 L5.55039375,47.8428194 L5.31259199,48.1860545 L5.46012136,48.2923496 C5.5422628,48.3496057 5.61612203,48.3985693 5.62429079,48.3985693 C5.63238392,48.3985693 6.7068031,48.0307582 8.01070399,47.5730485 C10.331578,46.771953 15.3425843,44.9983704 15.3998413,44.9575486 C15.4163301,44.9492184 15.2195613,44.8185357 14.9570641,44.6713057 C13.497276,43.8213974 12.2917406,42.8485335 11.1106359,41.5325098 L11.1106359,41.5325098 L10.84829,41.238276 Z M9.79860407,40.837747 C9.7904353,40.837747 9.40487728,40.9275325 8.92916032,41.0421578 C8.45348117,41.1565946 7.13320494,41.4671874 5.99324656,41.7286657 C3.94284936,42.2028474 1.75312937,42.7178508 1.63014411,42.7505309 C1.54822958,42.7749185 1.54822958,42.9711874 1.63846415,43.3636123 C1.82710205,44.2054543 2.30266774,45.1291285 3.00801769,46.0036506 C3.3442606,46.4287178 4.09866094,47.1970202 4.533345,47.556765 L4.533345,47.556765 L4.90241422,47.8673577 L5.24701498,47.3360331 C5.43565289,47.0417616 5.77185797,46.5512964 5.9933222,46.240666 C6.21471079,45.9300733 6.80516861,45.096373 7.31359844,44.3852136 C8.77346219,42.3499266 9.81501723,40.8540306 9.79860407,40.837747 Z M28.5052971,40.2001273 C28.4806395,40.2001273 28.3575786,40.2491286 28.2018049,40.3472442 C26.8732842,41.1400096 23.0023876,42.9873579 19.2708893,44.6139742 C18.647643,44.8837451 18.1555506,45.112468 18.1718882,45.1289777 C18.2210898,45.1697995 19.0411428,45.5376484 19.6153009,45.7665974 C21.6655847,46.5839388 23.8470981,47.1969448 26.2827886,47.6384841 C26.3319903,47.6547299 26.3811919,47.6628716 26.3893607,47.6628716 C26.3976807,47.6628716 26.569792,47.1480566 26.7665987,46.5266827 C27.2175446,45.1126942 27.4637042,44.3115609 27.7507077,43.2898088 C28.095195,42.0720139 28.5134659,40.3881414 28.5052971,40.2001273 Z M20.4026032,37.3801036 C20.3944345,37.3801036 20.1319374,37.4864364 19.812032,37.6172698 C17.5566215,38.5817658 15.2850248,39.3664647 12.6114191,40.0938699 L12.6114191,40.0938699 L11.8651875,40.2982429 L12.0128682,40.4780776 C13.0215212,41.7450623 14.5632617,43.0528688 16.3019979,44.1155181 C16.5972079,44.2953151 16.8433297,44.4425451 16.851385,44.4425451 C16.8597051,44.4425451 17.1139956,44.0092984 17.4173744,43.4697566 C18.6146654,41.36093 19.5497239,39.4807885 20.263167,37.7560942 C20.3452328,37.5599383 20.4109233,37.3884338 20.4026032,37.3801036 Z M21.7065798,36.9549986 C21.6982597,36.9632535 21.6573781,37.1021532 21.591612,37.2574496 C21.066769,38.8759242 20.0333449,41.2054828 19.0082031,43.1181913 C18.8197164,43.4696059 18.671998,43.7556603 18.671998,43.7639528 C18.671998,43.7720945 18.7622325,43.7475185 18.8606359,43.7066967 C18.9591905,43.6658748 19.4839957,43.4696059 20.0171587,43.2735253 C23.6829665,41.9083873 27.2668598,40.4207838 28.3575408,39.8158442 L28.3575408,39.8158442 L28.620038,39.668878 L28.4312866,39.6279431 C26.3483278,39.1457328 23.9044307,38.2056998 22.149357,37.1920894 C21.9115552,37.0531896 21.7147485,36.9468569 21.7065798,36.9549986 Z M8.91282279,34.6744413 C8.90498622,34.6766185 8.90131045,34.6785443 8.89763515,34.6804703 C8.89337249,34.6836329 8.88920256,34.6852911 8.88394806,34.6875686 C8.49335897,34.8924429 8.11029162,35.0974131 7.73186933,35.3040324 L8.1693639,35.0671595 C7.71228372,35.3175257 7.12696403,35.6437531 6.67393895,35.9004534 C5.50939866,36.5626491 4.82866845,37.0775772 3.9757135,37.9603164 C2.69639453,39.2845572 1.77782475,40.8539929 1.58922466,42.0554666 C1.56464274,42.1945548 1.57288714,42.2026966 1.63018193,42.1862623 C1.66315953,42.1781959 2.10593671,42.055542 2.61436654,41.9166422 C4.32031426,41.4507908 9.74932676,39.8649585 9.80677283,39.8158442 C9.81509286,39.8077401 9.68378757,39.5298275 9.51976941,39.1946587 C8.92931159,37.9849679 8.73235365,37.1021155 8.79811975,35.9086705 C8.81441946,35.6390504 8.85537673,35.2467009 8.88820305,35.0341107 C8.93740472,34.7398392 8.9456113,34.6744413 8.91282279,34.6744413 L8.91282279,34.6744413 Z M29.2516043,32.2550973 L29.1203747,32.3531752 C28.9561674,32.5003675 28.2018049,33.0397586 27.701506,33.3749273 C26.3647031,34.2658837 24.8230383,35.1650195 23.2154183,35.9987198 C22.8136362,36.2112723 22.4691111,36.391107 22.4610558,36.399211 C22.4281916,36.4319288 23.5844497,37.1431635 24.380072,37.5764102 C25.5856831,38.2383799 26.9224859,38.8023846 28.1526032,39.1865923 C28.4314379,39.2684622 28.6692396,39.3337847 28.6692396,39.3337847 C28.6772949,39.3254921 28.7184413,39.0640138 28.767643,38.7452793 C29.0547977,36.9223939 29.2516043,34.4211801 29.2516043,32.5983701 L29.2516043,32.5983701 L29.2516043,32.2550973 Z M15.0895053,31.7397011 L14.6276589,31.9419674 C13.1515823,32.5878468 11.7555217,33.2385586 10.422358,33.9019413 C10.3673519,33.9745098 10.3440907,34.095343 10.2824898,34.3884623 C10.1430157,35.0750456 10.1183582,36.1866208 10.2414191,36.8242406 C10.3644043,37.4700021 10.594113,38.1730197 10.8729476,38.7207032 C11.0041394,38.9740399 11.0206282,38.9904741 11.0615855,38.933218 C11.0862431,38.9005379 11.2748053,38.606191 11.471612,38.2874565 C12.6361523,36.4401836 13.5054448,34.9197116 14.3009915,33.3748519 C14.6524752,32.6882309 15.0099882,31.9476362 15.0895053,31.7397011 Z M16.7780125,31.0277614 C16.671979,31.0715937 16.5663549,31.1154312 16.4611347,31.1592764 C16.4472886,31.1829793 16.4357652,31.2124122 16.4250966,31.2496287 C16.4004391,31.3313854 16.2610407,31.6909795 16.1216044,32.0506489 C15.301438,34.1268708 13.8416877,37.0612937 12.8821985,38.5571897 C12.6689786,38.8922454 12.6443211,38.9331803 12.7182559,38.9086043 C13.1797564,38.7574364 13.6416841,38.6075673 14.1040335,38.4589987 C16.0395386,37.8378132 17.7290732,37.2493079 19.2789068,36.6608025 C20.6157474,36.1539408 20.5993721,36.1621956 20.550057,36.1131189 C20.5255129,36.0885429 20.345195,35.9332842 20.1482749,35.7698084 C19.5415552,35.2548426 18.8115855,34.470219 18.2539162,33.7345213 C17.7452972,33.0642215 17.1549151,32.0179688 16.8925692,31.3068094 C16.8433675,31.1597302 16.7858458,31.0288968 16.7695083,31.0125379 Z M23.3656247,28.5082047 L23.1843753,28.5705998 C23.1726967,28.6708781 23.1706597,28.8747145 23.1663679,29.3042024 C23.1498791,30.9553572 22.8381803,33.0151448 22.2886797,35.0506204 C22.2231406,35.2958906 22.1740902,35.5001129 22.1904277,35.5001129 C22.1985964,35.5001129 22.5348015,35.3612131 22.9365836,35.1813784 C25.2165004,34.1759475 27.0782597,33.1787714 28.5708741,32.1652365 C29.2678284,31.6910548 29.2351155,31.7401692 28.9317368,31.6094112 C27.9476278,31.1843062 25.6512222,29.9091044 23.961839,28.8546722 C23.6608183,28.6691687 23.4767381,28.5601871 23.3656247,28.5082047 Z M22.118841,28.949294 L21.871939,29.0411278 L21.871939,29.0411278 L21.2718957,29.2633806 C20.0046647,29.7374969 18.7930489,30.2083797 17.6303288,30.6791057 C17.6797344,30.8505684 17.9198981,31.424555 18.0816914,31.7400561 C18.4507606,32.4593195 18.9509083,33.1949796 19.5906434,33.9306772 C19.9596748,34.3557068 21.08322,35.4509985 21.1161976,35.4101767 C21.1324217,35.3938932 21.2145631,35.1403304 21.3047977,34.8381056 C21.6819222,33.5873667 21.9115552,32.4757538 22.0591602,31.2823088 C22.1194769,30.8242612 22.1519906,29.2415149 22.118841,28.949294 Z M19.090458,25.4705684 L19.0739692,25.4706061 C19.0577073,25.4787478 18.90182,25.666762 18.7295575,25.8711727 C17.1385775,27.8165236 15.0145858,29.7620252 12.5622931,31.5356831 C12.2506699,31.7646322 11.9964928,31.9526463 11.9964928,31.9607881 C11.9964928,31.9689298 12.3245291,31.8135957 12.7264247,31.6093735 C13.1282068,31.4130668 13.7433222,31.1188707 14.0958648,30.9553195 C15.3507909,30.3832484 17.2041167,29.6148329 19.2135188,28.8383887 L19.2135188,28.8383887 L20.3369128,28.405142 L20.3206887,28.2415908 C20.2303407,27.4896096 19.869478,26.557643 19.4020055,25.8629933 C19.1806925,25.5359662 19.1313396,25.462502 19.090458,25.4705684 L19.090458,25.4705684 Z M17.8193077,25.7812365 C17.7864814,25.748481 15.0063793,27.6285094 13.8008061,28.4949651 C13.349671,28.8138881 13.2922249,28.8711442 12.9806018,29.2715978 C12.5131292,29.8763866 12.1031405,30.3668141 11.5618088,30.9471777 C10.7088538,31.8708519 10.6350702,31.9526463 10.6925163,31.9199662 C10.7171738,31.9035319 10.9385624,31.7646322 11.1845708,31.6093735 C13.1282824,30.3832484 14.6947183,29.1244054 16.2775295,27.5140349 C16.9172268,26.8683111 17.8521341,25.8139166 17.8193077,25.7812365 Z M28.8139345,26.7424998 L28.7143315,26.7736786 C27.1576438,27.2475013 25.6535542,27.7288573 24.2457876,28.2061112 C24.5096595,28.4120497 26.0510048,29.4307107 26.8651533,29.9419353 L27.0092249,30.0315001 C27.9370251,30.606144 29.1318582,31.3068848 29.1941204,31.3068848 C29.210458,31.3068848 29.218778,31.0861906 29.2022892,30.7510972 C29.1439303,29.3397844 28.9297353,27.1970941 28.8139345,26.7424998 Z M26.6928529,20.7787711 C26.6680441,20.7624122 25.0771776,21.5634324 24.0602423,22.1028988 C22.5512903,22.9120607 20.1648015,24.2689439 20.0090277,24.4079568 C19.9678814,24.4487786 20.0007077,24.5387148 20.1893456,24.9147054 C20.6322741,25.8137658 20.8864512,26.868198 20.8864512,27.8573454 C20.8864512,28.0453595 20.8946199,28.1679381 20.9192775,28.1597964 C20.9357663,28.1515792 21.2883467,27.751088 21.6982976,27.2687269 C22.6824065,26.1081127 24.109444,24.3262377 24.9131216,23.2635884 C25.5856831,22.3725943 26.7091904,20.7950546 26.6928529,20.7787711 Z M28.4069316,20.3537415 L28.1198147,20.7950169 C26.6927773,22.9284196 24.7738366,25.1191915 22.6086986,27.1052888 C21.8528034,27.8001032 21.8061754,27.8405614 21.8398686,27.8413802 L21.8540713,27.8410242 C21.8787289,27.8410242 22.1985964,27.7265874 22.5758344,27.5876876 C25.962921,26.3451659 28.8660841,25.4214917 32.6222399,24.3834938 L32.6222399,24.3834938 L33.2863679,24.195555 L33.1881158,24.0891846 C33.0075332,23.8930287 32.1054523,23.0836783 31.638131,22.6995836 C30.8096445,22.0048208 29.7271322,21.2120178 28.8088271,20.6152199 L28.8088271,20.6152199 L28.4069316,20.3537415 Z M16.3265799,23.3127027 C16.3102423,23.3127027 16.2281765,23.4925374 16.1625995,23.7295906 C15.9821682,24.2772741 15.7279911,24.9067144 15.473814,25.4379637 C15.1866593,26.0346108 14.9161447,26.5005376 14.3748129,27.3261338 C14.2928984,27.4487124 14.317329,27.4323912 15.0392056,26.860207 C15.7279911,26.3125235 16.9089067,25.4214917 17.6880403,24.8656664 C17.9668749,24.6614441 18.1800191,24.4897135 18.1636816,24.47343 C17.7454485,24.1300441 17.277976,23.8112719 16.753133,23.5252175 C16.5398753,23.4107053 16.3512374,23.3127027 16.3265799,23.3127027 Z M40.5854976,15.4575712 C40.5690088,15.4411369 39.5110406,15.7435879 38.5186872,16.054143 C36.6240637,16.6345443 34.0984034,17.5336424 32.2449263,18.285699 C31.1868068,18.7106532 29.792747,19.3074888 29.792747,19.3319517 C29.792747,19.3400935 29.8666062,19.4054914 29.9568408,19.4708515 C30.0470754,19.5362494 30.31759,19.7569436 30.5635983,19.9613544 C31.8675749,21.0402872 32.966576,22.241874 33.8851458,23.6151537 C34.0000379,23.7949507 34.1064965,23.9419923 34.1146653,23.9419923 C34.1229853,23.9419923 34.3934999,23.5987571 34.7216875,23.1900865 C35.0414038,22.7814158 36.0092887,21.5633947 36.8702234,20.4845373 C38.5022362,18.4410708 39.2241506,17.5090664 39.7161294,16.8061242 C40.0605411,16.3239139 40.6017216,15.473817 40.5854976,15.4575712 Z M41.2169126,15.620934 L41.207702,15.6376072 C41.1675117,15.7147431 41.0176251,16.0288621 40.8479191,16.3892363 C39.5030609,19.0867192 38.3630269,20.5988987 35.8699659,22.9938552 C35.4680326,23.3779875 35.1483163,23.696722 35.1645404,23.696722 C35.1810292,23.696722 35.4352063,23.6394659 35.7222097,23.5741434 C39.9704578,22.552429 44.3907416,21.8250615 47.8434052,21.5633947 C48.2861824,21.5307523 48.6634204,21.4980722 48.6634204,21.4980722 C48.6799092,21.4899305 47.6055656,20.3782799 47.1709572,19.9531749 C45.6290277,18.4491371 43.6772985,16.9859212 41.6843852,15.8497322 C41.4465456,15.7109078 41.2496255,15.6128299 41.2169126,15.620934 L41.2169126,15.620934 Z M21.8868976,17.680797 C21.8623535,17.6562964 20.2385094,18.9559234 19.4676581,19.6180438 C18.3933146,20.5335385 16.9909347,21.8004855 16.9909347,21.8658834 C16.9909347,21.8821292 17.1630838,21.9803202 17.3846615,22.094644 C17.9422174,22.3808114 18.3769771,22.6995836 18.9099888,23.2145871 L18.9099888,23.2145871 L19.3692548,23.6558625 L19.5742302,23.3289109 C19.6808401,23.1409344 19.877609,22.8057656 20.0089899,22.577005 C20.558377,21.5961125 21.1242151,20.2964854 21.4605714,19.2583744 C21.6327206,18.7106909 21.9115552,17.7053731 21.8868976,17.680797 Z M22.9530724,17.4847165 C22.9285283,17.4847165 22.8956642,17.5663602 22.8629891,17.6889388 C22.5266328,19.2502327 21.9362506,20.8523484 21.1981121,22.1927596 C20.9766479,22.5932508 20.9684791,22.6261194 21.0013055,22.6261194 C21.0094742,22.6261194 21.3375106,22.4298504 21.7311239,22.1927596 C23.1089975,21.358984 24.4293115,20.6315788 25.9712411,19.8632387 C26.4548999,19.6261479 26.8486267,19.4217749 26.8404579,19.4136331 C26.7830875,19.3646695 25.6758798,18.7760134 24.9377792,18.4083153 C24.1341015,18.0078994 23.0679646,17.5091041 22.9530724,17.4847165 Z M16.6473831,15.4317411 L16.6301099,15.4329952 C16.6219033,15.4411369 16.6464474,15.6372175 16.6711428,15.8661665 C16.9336021,17.6562587 16.9744837,19.4217749 16.7858837,20.7950546 C16.7778283,20.8604148 16.7858837,20.9095668 16.8023725,20.9095668 C16.81871,20.9095668 17.1302575,20.6235124 17.4993267,20.2719094 C18.7377641,19.0784643 19.7711882,18.1385821 20.8455317,17.2476257 C21.1078776,17.0186766 21.3292283,16.8306625 21.3292283,16.8225208 C21.3292283,16.7734064 19.344635,16.1113991 18.4097277,15.8497322 C17.7946502,15.6782278 16.654654,15.4084192 16.6301099,15.4329952 Z M30.8671284,11.9345299 C30.8343021,11.9017744 29.0301401,12.8990636 27.9229702,13.569288 C26.5287591,14.403026 23.8879419,16.1440792 23.9454636,16.1931935 C23.9536702,16.2094016 24.2407871,16.3239139 24.5687099,16.4628137 C25.749739,16.9533165 26.8322513,17.476424 27.783534,18.0322493 C28.0378245,18.1793662 28.2592888,18.3020202 28.2755128,18.2938784 C28.2920395,18.2857367 28.4478132,18.0405041 28.6201892,17.7380531 C29.596016,16.0379725 30.3914871,14.2314084 30.6866971,13.0134627 C30.7851004,12.6211886 30.8917859,11.9590305 30.8671284,11.9345299 Z M31.4903747,12.0325701 C31.4657171,12.0325701 31.4412865,12.155111 31.4329286,12.3104451 C31.2936437,13.9616752 30.7277678,15.898922 29.8502309,17.7543743 C29.743621,17.9833234 29.661593,18.1712999 29.6780818,18.1712999 C29.6943059,18.1712999 29.9075635,18.0895431 30.1454031,17.9914652 C33.0568484,16.8144544 36.0749036,15.8824877 39.6012751,15.0733258 L39.6012751,15.0733258 L40.0193948,14.9753232 L39.420806,14.7054769 C37.9773932,14.0515737 35.7631669,13.2424118 33.8358306,12.6701899 C33.0568484,12.4413162 31.5642339,12.0325701 31.4903747,12.0325701 Z M21.5835189,10.1362583 C21.5096597,10.1116822 19.2625692,11.8445183 18.4344231,12.5721119 C17.9998147,12.9562443 16.9828416,13.9697792 16.9828416,14.0188936 C16.9828416,14.0352148 17.5485662,14.2068701 18.2457852,14.3948842 C19.4676959,14.7381193 20.8946199,15.1550825 21.7721568,15.4329952 L21.7721568,15.4329952 L22.1985964,15.571895 L22.2231406,15.4902513 C22.2396294,15.4492787 22.2559669,15.1305442 22.2724557,14.7872337 C22.3216573,13.5529668 22.1822211,12.2288014 21.8787289,11.0434981 C21.7147485,10.4304921 21.6327206,10.1525418 21.5835189,10.1362583 Z M22.1628218,10.2174455 L22.1493948,10.2179019 C22.1411882,10.2261945 22.1903899,10.348773 22.2477603,10.4795688 C22.8219562,11.8037342 23.1336172,13.3731698 23.1336172,14.9261712 C23.1336172,15.212301 23.1418238,15.4492787 23.1499926,15.4492787 C23.1581613,15.4492787 23.5108552,15.2204427 23.9291261,14.9425301 C25.5281614,13.8798054 27.1356679,13.005321 29.3006925,12.0325324 C29.8501931,11.7873376 30.0224556,11.6892596 29.973254,11.6729761 C29.8748885,11.6320412 28.2183315,11.288693 27.0782975,11.0680365 C25.544688,10.7737272 22.1740523,10.1935144 22.1493948,10.2179019 Z M14.4814228,8.78755454 C14.4786495,8.78755454 14.4768006,8.78845918 14.475568,8.78906087 C14.4945396,8.84504527 14.5598526,8.99419994 14.6371966,9.15529031 C15.1948659,10.3404428 15.8100569,12.0243153 16.1051156,13.1605042 C16.1462998,13.3322726 16.1953502,13.4711724 16.1953502,13.4711724 C16.1953502,13.4711724 16.4004769,13.2750165 16.6382787,13.0379257 C17.2288121,12.4494203 18.0488273,11.795517 18.9592283,11.1906527 C19.3199775,10.9453825 20.4108098,10.2996964 20.6813245,10.1607966 C20.8043853,10.0953233 20.9029021,10.038218 20.9029021,10.0217837 C20.9029021,10.0055379 20.6896067,9.95638586 20.4189408,9.91556403 C18.8197921,9.64579313 16.3184111,9.17168689 14.9242,8.86109415 C14.702887,8.81209287 14.5224557,8.78755454 14.4814228,8.78755454 Z M10.446508,7.67590394 C10.446508,7.68404569 10.6187705,7.83120031 10.84829,7.99452534 C12.6033638,9.36780509 14.1205602,11.0761405 15.080125,12.760013 C15.1866971,12.9479895 15.2767804,13.08704 15.2852139,13.0787475 C15.2934205,13.0787475 15.2112412,12.7518713 15.1047826,12.3675881 C14.8259479,11.3539778 13.9976127,8.71397723 13.940091,8.65672112 C13.9319223,8.65672112 13.5219336,8.54224659 13.0298791,8.41970569 C12.6681638,8.3276856 12.3073109,8.23233005 11.9473668,8.13365129 C11.4715742,8.00278018 11.0697543,7.8801262 10.7581311,7.77398189 C10.5857929,7.71672577 10.4546011,7.66783757 10.446508,7.67590394 Z M21.5261485,6.29444474 C21.5179797,6.28630299 21.5014909,6.29444474 21.4933221,6.31076594 C21.4606093,6.33534197 21.2883845,6.48245889 21.0997466,6.63779295 C20.3287818,7.28355445 19.4595272,7.88849411 18.5983656,8.36248727 C18.4917557,8.41974338 18.4097277,8.4769995 18.4097277,8.48514125 L18.8374233,8.5438806 C20.1134471,8.75376908 21.4795508,8.97284696 23.0938145,9.22488254 C23.0904515,9.21313177 23.073902,9.19469613 23.0596445,9.1716492 C22.8466138,8.85291471 21.9771322,7.20168462 21.6982976,6.58867859 C21.5998942,6.36798436 21.5590126,6.29444474 21.5261485,6.29444474 Z M12.0292057,4.07932299 L12.4557966,4.46341765 C12.8904807,4.87220141 14.0222703,5.95113423 15.465683,7.34880154 L15.465683,7.34880154 L16.24577,8.11013678 C16.5093439,8.15494342 16.7719882,8.19940943 17.0352688,8.24377024 C17.1149532,8.2099916 17.3152132,8.09711562 17.5321531,7.96199603 C18.4178965,7.41431248 19.6973289,6.70315312 20.8617558,6.12278949 C21.1570792,5.9838897 21.3865609,5.86127342 21.3783922,5.85313167 C21.3703369,5.85313167 21.1405904,5.82855564 20.870038,5.80401731 C18.4587781,5.60786141 14.087696,4.77408577 12.3491867,4.1854673 L12.3491867,4.1854673 L12.0292057,4.07932299 Z M11.7012828,4.33265961 L11.5946729,4.40631231 C10.4137573,5.23997487 9.71657608,6.05731624 9.70840731,6.60499979 L9.70840731,6.60499979 L9.70843676,6.69303892 C9.79356814,6.72440492 9.87627002,6.7546941 9.95437783,6.78498526 C10.6924785,7.03835958 11.6355167,7.25901612 12.1275712,7.36538659 C12.7934955,7.50839494 13.6965794,7.67142447 14.5075884,7.81246949 C14.4796224,7.77112433 14.3820943,7.65263662 14.2682786,7.51227735 C14.1287289,7.34069748 13.4890316,6.56421564 12.8576165,5.77133722 L12.8576165,5.77133722 L11.7012828,4.33265961 Z M19.9434507,0.417419562 C19.7054977,0.458241398 16.6219033,1.74154726 15.4983581,2.25662611 C14.6208212,2.6652214 12.6280214,3.70340778 12.6608099,3.73608786 C12.6608099,3.74422961 13.0298791,3.80141034 13.4645631,3.85866645 C16.1791261,4.23465705 19.9269997,4.88041855 20.7635037,5.10921684 C21.1160841,5.21554962 21.1160841,5.2645509 20.8127054,4.36537739 C20.4109233,3.17193234 20.1564815,2.06861196 20.0171965,0.924092808 C19.9843324,0.654510376 19.951506,0.425485927 19.9434507,0.417419562 L19.9434507,0.417419562 Z" id="Combined-Shape-Copy-9"></path></g></g></svg>