<svg xmlns="http://www.w3.org/2000/svg" xmlns:xlink="http://www.w3.org/1999/xlink" width="98px" height="51px" viewBox="0 0 98 51" version="1.1" class="svg-convert" src="https://d1i2cp4a5c819e.cloudfront.net/wp-content/uploads/2020/02/ic-technology-my-sql2x.svg" alt="ic-technology-my-sql2x"><desc>Created with Sketch.</desc><g id="Page-1" stroke="none" stroke-width="1" fill="none" fill-rule="evenodd"><g id="ic-technology-my-sql" fill="#252B33" fill-rule="nonzero"><path d="M40.4391196,35.6840096 C40.4640652,35.6840096 40.4391196,47.0858356 40.4391196,47.1357269 C40.4640652,49.95514 36.9517174,50.5488465 35.3441087,50.5981835 L25.154087,50.5981835 L25.154087,48.4218139 L25.4500549,48.4224981 C27.1231115,48.4262838 35.3222063,48.4437163 35.3441087,48.4218139 C37.4218043,48.2239117 37.1745652,47.1850639 37.1745652,46.8385965 L37.1745652,45.9976509 L30.3233804,45.9976509 C27.1325543,45.9483139 25.1041957,44.5629987 25.0798043,42.95539 C25.0798043,42.8073791 25.154087,35.7826835 25.0798043,35.7084009 L28.2950217,35.7084009 L28.2950217,42.7330965 C28.2706304,43.1289009 28.4186413,44.0191835 30.1997609,44.0435748 C31.0900435,44.0685204 37.1496196,44.0435748 37.1989565,44.0435748 L37.1989565,35.6840096 L40.4391196,35.6840096 Z M70.416587,31.2314878 C70.713163,31.2314878 70.9853478,31.2314878 71.3068696,31.2813791 C74.002663,31.6522378 75.3879783,32.8396509 75.3879783,34.7937269 L75.3879783,42.4609117 C75.3879783,44.0435748 74.7942717,44.8845204 73.4582935,45.42889 L76.6491196,48.2981943 L72.8895326,48.2981943 L70.3173587,45.9976509 L67.7202391,46.1462161 L64.2827283,46.1462161 C63.6890217,46.1462161 63.0703696,46.0719335 62.3779891,45.8740313 C60.3252391,45.3302161 59.3357283,44.2414769 59.3357283,42.4609117 L59.3357283,34.7937269 C59.3357283,32.8396509 60.6960978,31.6522378 63.416837,31.2813791 C63.6890217,31.2314878 64.0105435,31.2314878 64.2827283,31.2314878 L70.416587,31.2314878 Z M20.8750761,31.2070965 C21.8326504,31.5107559 22.3269113,32.0571975 22.3788737,33.1588403 L22.3834565,33.3590748 L22.3834565,46.0968791 L19.1682391,46.0968791 L19.1682391,33.3341291 L14.1719022,44.4643248 C13.57875,45.7997487 12.7871413,46.2698356 11.2039239,46.2698356 C9.6932001,46.2698356 8.90325101,45.8415126 8.318188,44.6411015 L8.23594565,44.4643248 L3.24016304,33.3341291 L3.24016304,46.0968791 L-1.42096962e-12,46.0968791 L-1.42096962e-12,33.3590748 C-1.42096962e-12,32.1223248 0.494478261,31.5286182 1.53332609,31.2070965 C3.90026196,30.4659889 5.5507938,31.064966 6.30615733,32.6029349 L6.38109783,32.7653682 L11.1301957,43.7226074 L16.0273043,32.7653682 C16.7690217,31.1078682 18.4265217,30.4404335 20.8750761,31.2070965 Z M57.4065978,31.1821509 L57.4065978,33.3341291 L48.1811413,33.3341291 C48.081913,33.3341291 47.9582935,33.3590748 47.8596196,33.3590748 C46.7215435,33.4577487 46.3756304,33.6556509 46.2270652,34.32364 C46.2104348,34.3894226 46.2048913,34.4443646 46.2030435,34.5030844 L46.2021196,34.5958248 L46.2021196,36.0548682 C46.2021196,36.1535422 46.2021196,36.2527704 46.2270652,36.3514443 C46.3673768,37.1692306 46.9264999,37.5677108 48.0926332,37.6094624 L48.3047609,37.61314 L52.2123587,37.61314 C53.1769239,37.61314 54.1664348,37.7617052 54.9824348,38.0832269 C56.4119519,38.622053 57.197664,39.4494471 57.2764106,40.3132395 L57.2829783,40.4574987 L57.2829783,42.8317704 C57.2829783,43.9698465 56.5900435,44.8351835 55.2052826,45.4782269 C54.4484315,45.8344509 53.5110737,46.05058 52.5378839,46.0902436 L52.2123587,46.0968791 L42.9375652,46.0968791 L42.9375652,43.9449009 L51.8415,43.9449009 C51.9651196,43.9449009 52.0643478,43.9199552 52.1879674,43.9199552 C52.8060652,43.8706182 53.2761522,43.7226074 53.548337,43.4748139 C53.8296685,43.2584797 53.9781557,43.0043718 54.0108818,42.7949344 L54.0178696,42.7081509 L54.0178696,40.8283574 C54.0178696,40.6060639 53.943587,40.432553 53.7706304,40.2346509 C53.4491087,39.8637922 53.0283587,39.6908356 51.9900652,39.5916074 C51.890837,39.5672161 51.7672174,39.5672161 51.6435978,39.5672161 L48.3047609,39.5672161 C47.9832391,39.5672161 47.6861087,39.5422704 47.364587,39.5422704 C44.7109609,39.2555802 43.073665,38.0903497 42.9674604,36.6945369 L42.9619565,36.5493465 L42.9619565,34.669553 C42.9619565,33.0126074 43.8029022,32.0729878 45.7320326,31.4543356 C46.3064953,31.2937332 46.9230206,31.1967025 48.0578508,31.1836604 L48.3291522,31.1821509 L57.4065978,31.1821509 Z M80.6315543,31.1821509 L80.6315543,42.3372922 C80.6315543,43.429313 81.2926421,43.906226 83.0302299,43.9426318 L83.2530652,43.9449009 L91.7118587,43.9449009 L91.7118587,46.0968791 L83.3024022,46.0968791 C83.0058261,46.0968791 82.6843043,46.0719335 82.3877283,46.0469878 C79.1495306,45.8072408 77.5162926,44.6370446 77.4202821,42.5369047 L77.4157826,42.3372922 L77.4157826,31.1821509 L80.6315543,31.1821509 Z M94.3089783,43.9449009 L94.3089783,44.3157596 L93.6659348,44.3157596 L93.6659348,46.0968791 L93.1958478,46.0968791 L93.1958478,44.3157596 L92.5528043,44.3157596 L92.5528043,43.9449009 L94.3089783,43.9449009 Z M95.4465,43.9449009 L96.0158152,45.42889 L96.5845761,43.9449009 L97.2276196,43.9449009 L97.2276196,46.0968791 L96.8068696,46.0968791 L96.8068696,44.4643248 L96.7824783,44.4643248 L96.1638261,46.0968791 L95.8423043,46.0968791 L95.2242065,44.4643248 L95.2242065,46.0968791 L94.7790652,46.0968791 L94.7790652,43.9449009 L95.4465,43.9449009 Z M70.0701196,33.3834661 L65.1730109,33.3834661 C63.7383587,33.3834661 62.8231304,34.0021182 62.8231304,34.9666835 L62.8231304,42.2630096 C62.8231304,42.3866291 62.8480761,42.4858574 62.8724674,42.6094769 C63.0703696,43.4997596 63.9113152,43.9942378 65.1730109,43.9942378 L68.1160435,43.9942378 L65.42025,41.5706291 L69.179837,41.5706291 L71.529163,43.6727161 C71.949913,43.4504226 72.2464891,43.1039552 72.3457174,42.6588139 C72.3701087,42.5351943 72.3701087,42.4359661 72.3701087,42.3372922 L72.3701087,34.9666835 C72.3701087,34.8924009 72.3701087,34.7937269 72.3457174,34.6944987 C72.1478152,33.853553 71.3068696,33.3834661 70.0701196,33.3834661 Z M67.3000435,1.5517052 C67.6709022,1.77399868 68.0667065,2.24408564 68.4375652,2.39265086 C69.0562174,2.44198781 69.6743152,2.46637912 70.2929674,2.51627042 C71.4554348,2.7884552 72.5436196,3.01074868 73.4582935,3.5301726 C77.7373043,6.0280639 80.4829891,8.57584651 83.055163,12.7805748 C83.574587,13.6708574 83.8717174,14.6354226 84.291913,15.5999878 C84.9100109,17.03464 85.6029457,18.5186291 86.3202717,19.9039443 C86.6661848,20.5469878 86.8890326,21.2643139 87.3341739,21.8081291 C87.5320761,22.0559226 88.0265543,22.1296509 88.2987391,22.2532704 C89.1396848,22.6740204 90.10425,22.9955422 90.8958587,23.5149661 C92.3055652,24.4052487 93.6908804,25.4690422 94.9520217,26.5572269 C95.3758602,26.8964878 95.6547085,27.3990663 96.0060519,27.8160587 L96.1887717,28.0162704 L96.1887717,28.2391182 L95.0013587,28.5850313 C94.1360217,28.8078791 93.3688043,28.7585422 92.528413,28.9808356 C92.0333804,29.1050096 91.390337,29.3023574 90.8459674,29.37664 C90.8459674,29.4015856 90.870913,29.4015856 90.8958587,29.4259769 C91.2173804,30.3168139 92.9486087,31.0834769 93.7152717,31.6278465 C94.572663,32.2432958 95.3910721,32.9761299 96.0661567,33.7913087 L96.3123913,34.1007922 L97.054663,34.8430639 C97.1730717,35.0408552 97.2283291,35.2861874 97.3345333,35.4905067 L97.4255217,35.6346726 L97.4255217,35.6840096 C97.104,35.56039 96.9060978,35.2632596 96.6588587,35.0653574 C96.1144891,34.669553 95.5701196,34.2244117 95.0013587,33.8784987 C94.0861304,33.2847922 92.9979457,32.9632704 92.0089891,32.3695639 C91.4646196,32.0230965 90.9451957,31.6278465 90.4507174,31.2314878 C89.9806304,30.8855748 89.4612065,30.2175856 89.1396848,29.7231074 C88.9911196,29.4509226 88.9417826,29.1294009 88.7438804,28.9314987 C88.818163,28.4614117 89.3869239,28.4614117 89.7577826,28.3134009 C91.0688152,27.74464 92.57775,27.5711291 94.5562174,27.6204661 C94.5068804,27.1010422 93.2701304,26.4829443 92.8743261,26.2107596 C92.0583261,25.6419987 91.2417717,25.0239009 90.3764348,24.5288682 C89.9312935,24.2566835 89.1640761,24.03439 88.6945435,23.8364878 C88.0265543,23.564303 86.5425652,23.2921182 86.1467609,22.7726943 C85.4294348,21.8081291 84.9100109,20.6212704 84.4155326,19.4338574 C83.8961087,18.27139 83.2281196,17.03464 82.70925,15.8228356 C82.4614565,15.2291291 82.337837,14.7097052 82.0412609,14.1409443 C80.2108043,10.6535422 77.5643478,7.73490086 74.2997935,5.68215086 C73.236,4.98921607 72.048587,4.37111825 70.7381087,3.9753139 C70.1018758,3.78430148 69.3569002,3.8482438 68.6585286,3.76114493 L68.3139457,3.70312912 L67.8194674,3.70312912 C67.3743261,3.57950955 67.002913,3.10997694 66.6320543,2.86218347 C65.8653913,2.34275955 65.0987283,1.99684651 64.2078913,1.60104216 C63.8619783,1.4774226 62.94675,1.1309552 62.6252283,1.37819433 C62.4273261,1.45247694 62.3530435,1.52675955 62.2787609,1.72466173 C62.1058043,2.02123781 62.2787609,2.46637912 62.4023804,2.7385639 C62.7737935,3.5301726 63.2932174,4.00025955 63.76275,4.66769433 C64.1835,5.23700955 64.6779783,5.90444433 64.9995,6.57243347 C65.6430978,7.95719433 65.9147283,9.49107477 66.5084348,10.8758356 C66.7556739,11.3952596 67.0771957,11.9889661 67.423663,12.4341074 C67.6958478,12.8055204 68.1653804,13.1020965 68.3139457,13.5721835 C68.6354674,14.0666617 67.8688043,15.6992161 67.6958478,16.21864 C67.05225,18.2464443 67.2008152,21.0664117 67.9181413,22.8225856 C68.2152717,23.5149661 68.4874565,24.3309661 69.2785109,24.5288682 C69.3278478,24.4795313 69.3034565,24.5044769 69.4021304,24.4545856 C69.5506957,23.1191617 69.6249783,21.8081291 70.0701196,20.74489 C70.3666957,20.0769009 70.8861196,19.6068139 71.2569783,19.038053 C71.529163,19.2115639 71.529163,19.6567052 71.653337,19.9532813 C71.9743043,20.7199443 72.3207717,21.56089 72.7165761,22.327553 C73.5575217,23.9107704 74.47275,25.4440965 75.4866522,26.8294117 C75.8575109,27.32389 76.3525435,27.8682596 76.7976848,28.3134009 C76.93605,28.4517661 77.1063457,28.5425904 77.2449947,28.6874836 L77.3420543,28.8078791 L77.4157826,28.8078791 L77.4157826,28.8572161 C76.6491196,28.6099769 76.1790326,27.8433139 75.6102717,27.3981726 C74.47275,26.5572269 73.1373261,25.27114 72.3950543,24.0587813 C72.1640761,23.6138248 71.9333442,23.1686219 71.7099215,22.7161098 L71.3811522,22.0309769 L71.3811522,21.98164 C71.232587,22.1795422 71.2819239,22.3774443 71.2076413,22.6490748 C70.8861196,23.9107704 71.1333587,25.2955313 70.0207826,25.7656182 C68.7346957,26.2850422 67.8194674,24.9246726 67.423663,24.3065748 C66.1375761,22.2288791 65.8160543,18.7908139 66.6813913,15.9957922 C66.8792935,15.3776943 66.9042391,14.6354226 67.2507065,14.1409443 C67.2008152,13.695803 66.8299565,13.5721835 66.6320543,13.2999987 C66.285587,12.8299117 65.9890109,12.2855422 65.7168261,11.7666726 C65.1974022,10.7522161 64.8514891,9.54041173 64.4307391,8.42728129 C64.2577826,7.98213999 64.232837,7.56194433 64.0349348,7.14119433 C63.7383587,6.49815086 63.2189348,5.85510738 62.7981848,5.28634651 C62.2050326,4.46979216 60.5475326,2.88712912 61.2155217,1.27952042 C62.2543696,-1.29265349 65.890337,0.660868248 67.3000435,1.5517052 Z M69.3278478,6.12729216 C69.5506957,6.32519433 69.8472717,6.4488139 70.0207826,6.69605303 C70.1444022,6.86900955 70.1687935,7.04252042 70.2929674,7.19053129 C70.2929674,7.74731825 70.1726296,8.12359847 69.8959873,8.35533858 L69.7979348,8.42728129 L69.7236522,8.5015639 C69.5506957,8.10575955 69.3527935,7.7099552 69.179837,7.31415086 C68.9820457,7.03742042 68.7207483,6.80787607 68.522815,6.52447573 L68.3882283,6.30024868 L68.3139457,6.30024868 L68.3139457,6.25091173 C68.6354674,6.17662912 68.9325978,6.12729216 69.3278478,6.12729216 Z" id="Combined-Shape"></path></g></g></svg>