<svg xmlns="http://www.w3.org/2000/svg" xmlns:xlink="http://www.w3.org/1999/xlink" width="60px" height="29px" viewBox="0 0 60 29" version="1.1" class="svg-convert" src="https://d1i2cp4a5c819e.cloudfront.net/wp-content/uploads/2020/02/ic-technology-php2x.svg" alt="ic-technology-php2x"><desc>Created with Sketch.</desc><g id="Page-1" stroke="none" stroke-width="1" fill="none" fill-rule="evenodd"><g id="ic-technology-php" fill="#252B33" fill-rule="nonzero"><path d="M15.0707888,5.86738459 C19.6204058,6.1468901 21.8953764,8.38197799 21.8953764,12.2940989 C21.8953764,19 16.4927265,22.9118022 11.6583327,22.6322967 L6.5404596,22.6322967 L5.40297426,28.5 L0,28.5 L4.54994135,5.86738459 L15.0707888,5.86738459 Z M12.7961424,10.0586923 L9.09955835,10.0586923 L7.67794494,18.4413077 L11.0900766,18.4413077 C13.6491753,18.1618022 15.924146,17.3236044 16.2082741,12.5732857 C16.2082741,10.8968901 14.7866607,10.0586923 12.7961424,10.0586923 L12.7961424,10.0586923 Z M20.8383292,22.6322967 L25.3879462,0 L30.7909204,0 L29.6534351,5.86738459 L34.7716326,5.86738459 C39.3215739,6.1468901 41.0276398,8.38197799 40.4590593,11.1763956 L38.468541,22.6322967 L32.7814387,22.6322967 L34.7719569,12.2940989 C35.056085,10.8968901 35.056085,10.0586923 33.0658911,10.0586923 L28.8004022,10.0586923 L26.2413034,22.6322967 L20.8383292,22.6322967 L20.8383292,22.6322967 Z M53.175088,5.86738459 C57.7250293,6.1468901 60,8.38197799 60,12.2940989 C60,19 54.5970257,22.9118022 49.7629563,22.6322967 L44.6444345,22.6322967 L43.5069491,28.5 L38.1042992,28.5 L42.6539162,5.86738459 L53.175088,5.86738459 Z M50.9004417,10.0586923 L47.2035332,10.0586923 L45.7819198,18.4413077 L49.1943758,18.4413077 C51.7534746,18.1618022 54.0284452,17.3236044 54.3125733,12.5732857 C54.3125733,10.8968901 52.8909599,10.0586923 50.9004417,10.0586923 L50.9004417,10.0586923 Z" id="Shape-Copy"></path></g></g></svg>