  <svg xmlns="http://www.w3.org/2000/svg" xmlns:xlink="http://www.w3.org/1999/xlink"
                                width="48px" height="43px" viewBox="0 0 48 43" version="1.1" class="svg-convert"
                                src="https://d1i2cp4a5c819e.cloudfront.net/wp-content/uploads/2020/02/ic-technology-react-native2x.svg"
                                alt="ic-technology-react-native2x">
                                <desc>Created with Sketch.</desc>
                                <g id="Page-1" stroke="none" stroke-width="1" fill="none" fill-rule="evenodd">
                                    <g id="ic-technology-react-native" fill="#252B33" fill-rule="nonzero">
                                        <path
                                            d="M25.2177312,4.20429955 C29.3535481,0.605090062 33.4486979,-0.9005081 35.9526945,0.543430621 C38.5641082,2.04934443 39.3288119,6.62328535 38.1592242,12.3005857 C38.0880216,12.646558 38.0086543,12.9980418 37.9213387,13.3545517 C38.4520569,13.5075203 38.9676509,13.6701068 39.4657953,13.8415997 C44.6499945,15.6263928 48,18.4216587 48,21.3122463 C48,24.3266959 44.4197907,27.2741295 38.9171726,29.0972779 C38.6263423,29.1936332 38.3288625,29.2867445 38.0250783,29.3765757 C38.1337997,29.8128134 38.2295952,30.2402257 38.3124936,30.6589769 C39.3987025,36.1463175 38.562086,40.656205 35.9875191,42.1465783 C33.494824,43.5896323 29.4657134,42.1720307 25.3864398,38.661625 C24.9557352,38.2910058 24.5227928,37.895998 24.0891554,37.4784701 C23.7546049,37.8018192 23.4203329,38.1096583 23.0872021,38.4008416 C18.8757737,42.0823005 14.55061,43.6098443 11.9739227,42.1238481 C9.47859461,40.685899 8.69455461,36.4867384 9.69854676,31.1990041 C9.80435954,30.6417197 9.93011488,30.0703597 10.0749686,29.4871825 C9.62847908,29.358404 9.19523548,29.2227804 8.77694494,29.0798428 C3.48389697,27.2706721 0,24.2870631 0,21.3122463 C0,18.4320406 3.24538223,15.6554196 8.32716999,13.8836624 C8.89522093,13.6856153 9.48818011,13.4990941 10.1032137,13.3245723 C9.96990283,12.7857066 9.8514539,12.2549497 9.74961112,11.7349249 C8.69679948,6.35413083 9.4375866,2.05425624 11.9392493,0.606163081 C14.5481032,-0.904180674 18.8927455,0.717611379 23.2273028,4.56638459 C23.491637,4.80108335 23.7566673,5.04560517 24.0220801,5.29951962 C24.3086788,5.02460406 24.5946526,4.75858234 24.8802632,4.50245917 L24.8802632,4.50245917 Z M36.0415294,29.8961188 L35.8242092,29.945917 C33.8939104,30.3802447 31.7763758,30.7002024 29.540027,30.8985887 C28.2210363,32.8085925 26.8696083,34.5275899 25.5175606,36.0064556 C25.9213263,36.3959337 26.3240403,36.7632638 26.7239193,37.1073577 C30.2125535,40.1094906 33.447526,41.2476828 34.9602039,40.3719738 C36.5543643,39.4491412 37.2354399,35.7777167 36.3010151,31.0571631 C36.2260354,30.6784127 36.1394331,30.2911745 36.0415294,29.8961188 Z M12.0640824,29.988568 L12.0313731,30.1178777 C11.9452324,30.4713498 11.8667374,30.8196901 11.796104,31.1623008 L11.796104,31.1623008 L11.7130668,31.5815051 C10.8544798,36.1034329 11.4839799,39.474909 12.9980218,40.3473856 C14.5936684,41.2676078 18.1147312,40.0240531 21.7377003,36.8570012 C22.0407489,36.5921123 22.3454805,36.3116687 22.6514199,36.0163647 C21.2504037,34.5110755 19.8599013,32.7935775 18.532119,30.9253711 C16.2063502,30.7361503 14.0304109,30.4231988 12.0640824,29.988568 Z M26.8976733,31.073697 L26.6730115,31.0833345 C25.7938064,31.1193912 24.9016956,31.1376146 24.0003845,31.1376146 C23.0479292,31.1376146 22.1104762,31.119494 21.1912711,31.0834028 C22.1384552,32.330947 23.1083103,33.4915544 24.080467,34.5404355 C25.0191263,33.5058834 25.9629227,32.3438916 26.8976733,31.073697 Z M24.0003845,13.6228276 C22.521233,13.6228276 21.0572836,13.6786342 19.6300054,13.7864045 C18.8233128,14.9667453 18.0434363,16.206859 17.3021469,17.4922306 L17.3021469,17.4922306 L17.0239065,17.97847 C16.3906858,19.1013808 15.8008816,20.2335502 15.2594384,21.3612712 C15.8800731,22.6497029 16.5650495,23.9448202 17.3084641,25.2287718 C18.0540605,26.51662 18.8408521,27.7628828 19.6544886,28.9505829 C21.0534267,29.0411685 22.5068437,29.0871029 24.0003845,29.0871029 C25.5004385,29.0871029 26.9724233,29.034942 28.3971202,28.9330058 C29.178216,27.7606338 29.9482457,26.5183112 30.6983593,25.2176257 C31.4479286,23.9178591 32.1382202,22.6165521 32.7617058,21.3314946 C32.1364792,20.068838 31.444524,18.7808599 30.6920372,17.4810537 C29.9479147,16.1956859 29.1733595,14.9597866 28.3797058,13.7883212 C26.9526772,13.6790545 25.4865128,13.6228276 24.0003845,13.6228276 Z M14.1725462,23.7726728 L14.1106548,23.9193808 C13.5272978,25.3155437 13.025949,26.6883121 12.6163676,28.0106326 C13.9865453,28.3086863 15.4688244,28.5462264 17.0406269,28.7215534 C16.5235349,27.9192365 16.0201515,27.0960458 15.5339197,26.2561909 C15.0566053,25.431821 14.6022908,24.6025521 14.1725462,23.7726728 Z M33.8676541,23.6989615 L33.7632855,23.8988895 C33.3551635,24.6787335 32.9251152,25.460908 32.4746538,26.2420162 C31.9912188,27.0802851 31.4993333,27.8957785 31.0008327,28.6856274 C32.5848956,28.4948588 34.087749,28.2391502 35.4796157,27.9215996 C35.0501166,26.5765075 34.5092518,25.1613944 33.8676541,23.6989615 Z M10.6549236,15.3001778 L10.440807,15.3610218 C9.94399085,15.5058657 9.46386313,15.6589227 9.00222105,15.8198711 C4.65624592,17.3350884 2.05051165,19.5644518 2.05051165,21.3122463 C2.05051165,23.1542517 4.88671232,25.5831736 9.44007032,27.1395174 C9.82086864,27.2696432 10.2159602,27.3934629 10.6245071,27.5109115 C11.2313913,25.5338598 12.0307388,23.458206 12.9937744,21.3617486 C12.0432696,19.2968856 11.2555557,17.2541049 10.6549236,15.3001778 Z M37.3723771,15.3300442 L37.3498491,15.4030948 C36.762059,17.2917611 35.9814701,19.2856869 35.0360177,21.3221597 C36.0393323,23.4351682 36.8585794,25.4797979 37.4660455,27.4028065 L37.812303,27.2984547 L37.812303,27.2984547 L38.2722766,27.1508178 C43.0233786,25.5766645 45.9494884,23.1677232 45.9494884,21.3122463 C45.9494884,19.5703437 43.2401336,17.3096409 38.7983148,15.7804312 C38.3391321,15.6223515 37.8633231,15.4721293 37.3723771,15.3300442 Z M24.000299,17.0260788 C26.3674839,17.0260788 28.2864664,18.9450614 28.2864664,21.3122463 C28.2864664,23.6794312 26.3674839,25.5984137 24.000299,25.5984137 C21.6331141,25.5984137 19.7141316,23.6794312 19.7141316,21.3122463 C19.7141316,18.9450614 21.6331141,17.0260788 24.000299,17.0260788 Z M31.0078622,14.0532331 L31.0805586,14.1678029 C31.5522711,14.9106594 32.0150236,15.673631 32.4666248,16.4537092 C32.951765,17.2917149 33.412927,18.1256904 33.8485372,18.9526012 C34.4547658,17.5310018 34.9706173,16.1445011 35.3843146,14.8185719 C34.0069544,14.5034276 32.5391451,14.2468767 31.0078622,14.0532331 Z M16.9974669,14.0484674 L16.4902822,14.1148588 C15.1508165,14.2955961 13.8625224,14.5239294 12.6459014,14.796189 C13.0622434,16.1403262 13.5736723,17.5331769 14.170456,18.9489803 C14.598369,18.1193177 15.0506009,17.2904693 15.5248476,16.4678674 L15.5248476,16.4678674 L15.8525227,15.8995003 L15.8575673,15.8995476 L16.1082033,15.4796797 C16.3996769,14.995598 16.696305,14.5182796 16.9974669,14.0484674 Z M34.8296176,2.26705386 C33.278379,1.50228269 30.0320126,2.73290957 26.5638355,5.75110313 C26.1972098,6.07015708 25.829082,6.4075708 25.4604403,6.76219118 C26.8322058,8.24121246 28.198866,9.94870142 29.5175584,11.826493 C31.7818066,12.0391523 33.9450054,12.3812808 35.9368747,12.8409195 C36.0146856,12.5184801 36.0864158,12.2001113 36.1508463,11.8870448 C37.1607313,6.98495792 36.5357394,3.24667864 34.9283586,2.31975659 L34.9283586,2.31975659 Z M21.6369591,5.89872982 C17.979164,2.72340888 14.5396534,1.47005935 12.9665553,2.38077303 C11.4590371,3.25340338 10.8599215,6.73095023 11.7619305,11.3410102 C11.8564498,11.8236403 11.9664511,12.3169576 12.0914111,12.8194766 C14.0779395,12.3692921 16.2393829,12.0330938 18.4972219,11.8238964 C19.8136938,9.96520189 21.1922665,8.25994688 22.5870739,6.76229938 C22.3455364,6.5337433 22.1052232,6.31223235 21.8658582,6.09970342 L21.8658582,6.09970342 Z M24.0242489,8.22984548 L23.8712963,8.39378086 C22.9619965,9.38609494 22.0582251,10.4733084 21.174881,11.6380367 C22.1080394,11.5944919 23.0514177,11.5723159 24.0003845,11.5723159 C24.9585031,11.5723159 25.9091438,11.5948849 26.8477492,11.6392264 C25.9169971,10.398561 24.969918,9.25447954 24.0242489,8.22984548 Z"
                                            id="Combined-Shape-Copy-22"></path>
                                    </g>
                                </g>
                            </svg>