 <svg xmlns="http://www.w3.org/2000/svg" xmlns:xlink="http://www.w3.org/1999/xlink" width="48px" height="39px" viewBox="0 0 48 39" version="1.1" class="svg-convert" src="https://d1i2cp4a5c819e.cloudfront.net/wp-content/uploads/2020/02/ic-technology-redis2x.svg" alt="ic-technology-redis2x"><desc>Created with Sketch.</desc><g id="Page-1" stroke="none" stroke-width="1" fill="none" fill-rule="evenodd"><g id="ic-technology-redis" fill="#252B33" fill-rule="nonzero"><path d="M47.9999645,22.5727736 C47.998778,22.5741776 47.9993894,22.5744014 48,22.574625 L47.998875,27.35775 C47.99925,27.837375 47.42325,28.3635 46.119375,29.043 C43.55775,30.3781875 30.288,35.83425 27.4629375,37.3070625 C24.637875,38.7800625 23.0685,38.7658125 20.8366875,37.6989375 C18.6050625,36.6320625 4.4836875,30.9279375 1.939875,29.712 C0.668625,29.1045 0,28.5915 0,28.107 L0,23.25525 L0.00297914188,23.3197205 C0.0514458284,23.7928712 0.699644817,24.2957973 1.9404375,24.8889375 C4.4840625,26.104125 18.604875,31.8091875 20.8366875,32.8753125 C23.0683125,33.9421875 24.6376875,33.956625 27.4625625,32.4834375 C30.287625,31.0108125 43.557,25.5545625 46.1184375,24.2199375 C47.3881314,23.5581836 48.0049008,23.0392972 47.9999645,22.5727736 Z M47.9999645,14.7222664 C47.9987781,14.723365 47.9993894,14.7235888 48,14.7238125 L47.998875,19.5075 C47.99925,19.9869375 47.42325,20.5130625 46.119375,21.1925625 C43.55775,22.5279375 30.288,27.9838125 27.4629375,29.4571875 C24.637875,30.929625 23.0685,30.915375 20.8366875,29.8485 C18.604875,28.7821875 4.4836875,23.0775 1.939875,21.8615625 C0.668625,21.2540625 0,20.7418125 0,20.257125 L0,15.4048125 L0.00297914188,15.4694737 C0.0514458284,15.9426657 0.699644817,16.4455427 1.9404375,17.0385 C4.4840625,18.253875 18.604875,23.95875 20.8366875,25.024875 C23.0683125,26.09175 24.6376875,26.1061875 27.4625625,24.6335625 C30.287625,23.160375 43.557,17.7045 46.1184375,16.3695 C47.3881314,15.7077461 48.0049008,15.1888136 47.9999645,14.7222664 Z M47.9999742,6.58184045 C47.9987781,6.58230252 47.9993894,6.58252631 48,6.58275 L47.998875,11.36625 C47.99925,11.8453125 47.42325,12.3714375 46.119375,13.051125 C43.55775,14.386125 30.288,19.842375 27.4629375,21.31575 C24.637875,22.788375 23.0685,22.7739375 20.8366875,21.7070625 C18.604875,20.64075 4.4836875,14.935875 1.939875,13.7205 C0.668625,13.1124375 0,12.6 0,12.115875 L0,7.263375 L0.00307289324,7.32794249 C0.0515396341,7.80113437 0.699740854,8.30400915 1.940625,8.896875 C4.4840625,10.1124375 18.6050625,15.8169375 20.8366875,16.8838125 C23.0683125,17.950125 24.6376875,17.9645625 27.4625625,16.4919375 C30.287625,15.0193125 43.557,9.5630625 46.1184375,8.2280625 C47.3872127,7.56678739 48.0040079,7.04808114 47.9999742,6.58184045 Z M27.9028125,9.40425 L24.5685,14.29275 L16.8665625,11.0983125 L27.9028125,9.40425 Z M34.7428125,4.1158125 L41.2745625,6.6969375 L34.7484375,9.275625 L34.039875,9.55275 L27.5165625,6.97425 L34.7428125,4.1158125 Z M13.890375,4.74375 C17.1481875,4.74375 19.789125,5.7675 19.789125,7.030125 C19.789125,8.293125 17.1481875,9.3166875 13.890375,9.3166875 C10.6325625,9.3166875 7.991625,8.2929375 7.991625,7.030125 C7.991625,5.7675 10.6325625,4.74375 13.890375,4.74375 Z M21.0463125,6.79456491e-13 L24.375375,1.302 L27.51375,0.2745 L26.6655,2.3098125 L29.8655625,3.508125 L25.7386875,3.9365625 L24.814875,6.1595625 L23.32275,3.6789375 L18.5574375,3.2506875 L22.1131875,1.968375 L21.0463125,6.79456491e-13 Z" id="Combined-Shape"></path></g></g></svg>