<svg xmlns="http://www.w3.org/2000/svg" xmlns:xlink="http://www.w3.org/1999/xlink" width="44px" height="45px" viewBox="0 0 44 45" version="1.1" class="svg-convert" src="https://d1i2cp4a5c819e.cloudfront.net/wp-content/uploads/2020/02/ic-technology-selenium2x-1.svg" alt="ic-technology-selenium2x"><desc>Created with Sketch.</desc><g id="Page-1" stroke="none" stroke-width="1" fill="none" fill-rule="evenodd"><g id="ic-technology-selenium" fill="#252B33" fill-rule="nonzero"><path d="M0.223997,0.0263110881 C0.132461016,0.0523957012 0.0580539352,0.140027067 0.0253235476,0.259886941 C-0.0242084389,0.441832507 0.00590351768,44.742883 0.0557628081,44.8328857 C0.0790013832,44.8749229 0.12689685,44.9280622 0.162245669,44.9509132 C0.266655605,45.0184961 43.2373995,45.0152624 43.3384273,44.9475718 C43.3753036,44.9229962 43.4236354,44.8698569 43.4460012,44.8295443 C43.5065524,44.7203554 43.5221539,6.75355435 43.4618209,6.59521429 C43.4094523,6.45810839 43.2533283,6.37920782 43.1152061,6.42016713 C43.0185423,6.44873086 43.0603281,6.40259774 31.5639977,19.1493505 C28.5186533,22.5259067 28.7184178,22.332859 28.4004966,22.2067474 C28.3105972,22.1710697 21.1287864,14.8927081 21.0251402,14.7322123 C20.9728807,14.6512638 20.9642617,14.4392455 21.0097569,14.3544166 C21.0794726,14.224748 23.4304964,11.2125142 23.5073037,11.15474 C23.6160777,11.0727136 23.7710015,11.0548208 23.9118513,11.1078523 C24.0054602,11.1432067 24.2573751,11.411598 26.0872219,13.424748 C27.2481688,14.7020318 28.1897129,15.7185772 28.231826,15.7400269 C28.3294717,15.7899326 28.5080705,15.7888547 28.6171718,15.7377634 C28.689506,15.7038103 39.455185,1.27600119 39.978653,0.511463334 C40.114375,0.313241832 40.0709527,0.113942454 39.8745704,0.0327783476 C39.7797614,-0.00634857201 0.360700919,-0.0128158314 0.223997,0.0263110881 M13.5058792,20.9525302 C15.4871586,21.2041066 17.2159777,21.8908218 18.7260487,23.0260414 C19.0843373,23.2954028 19.1626721,23.4387603 19.0755001,23.6651144 C19.0501886,23.7308649 17.3867212,25.9176609 17.2594,26.052611 C17.0250504,26.3010616 16.8774364,26.2781028 16.3834257,25.9167986 C14.0049085,24.176998 10.2458235,23.8156938 9.18623172,25.2249096 C8.77677457,25.7695606 8.75320869,26.4799891 9.12960815,26.9323739 C9.5564124,27.4454431 10.3524154,27.7415358 12.9311336,28.3466557 C15.7703856,29.0128912 17.1944847,29.6230772 18.2448029,30.6231311 C19.2152589,31.5473024 19.6350806,32.6100887 19.6347535,34.1428292 C19.6342078,38.1143732 16.3868079,40.3595901 11.0669198,40.0667311 C8.66843699,39.9346912 6.30530301,38.9939205 4.57211989,37.4812285 C4.33820672,37.2770787 4.28103764,37.0857556 4.3963577,36.8927079 C4.5309887,36.6672162 6.17241763,34.4284665 6.23078683,34.390633 C6.42367791,34.2658149 6.61395056,34.3186309 6.92259812,34.5828184 C8.89285835,36.268833 11.7483665,37.0118133 13.8989711,36.3979626 C15.6046607,35.9110857 16.1980626,34.3215412 15.0054764,33.4336942 C14.4551695,33.0241011 13.8364561,32.8139152 11.5687857,32.2662461 C10.1213389,31.9166907 9.78628883,31.8259335 9.10713328,31.5995794 C6.16630796,30.6193585 4.82861702,29.0471677 4.82239825,26.5634167 C4.81465206,23.4744381 7.38322377,21.1845971 11.1506005,20.9221341 C11.6134082,20.8899056 13.1706109,20.9099541 13.5058792,20.9525302 M29.2349033,25.5951602 C32.9251454,25.8314308 35.4454944,28.5215951 35.7055918,32.5018699 C35.7793443,33.6307301 35.7554511,33.8403771 35.5404125,33.9480569 L35.4342569,34.0011962 L30.447346,34.0011962 C25.930007,34.0011962 25.4573802,34.0046454 25.4289047,34.0384908 C25.3576616,34.1233197 25.5237138,34.706882 25.7416982,35.1377093 C26.1808309,36.0058311 26.941376,36.6605333 27.8882661,36.9857287 C29.2445042,37.4513714 31.3271388,37.0730367 32.7199259,36.1077982 C32.9209996,35.9684288 33.0772326,35.9462245 33.2164459,36.0373051 C33.3047088,36.0949715 34.4657648,37.7335594 34.5654833,37.9411585 C34.6920408,38.2048071 34.5558824,38.3596979 33.8042836,38.8066934 C32.19013,39.7666502 30.3487184,40.1773212 28.1551278,40.0665155 C25.0043916,39.9073131 22.30348,37.6093881 21.6449446,34.5276312 C21.4390705,33.5642251 21.4377613,32.1722553 21.6417807,31.188154 C22.2575484,28.2182806 24.8236108,25.9104391 27.8324062,25.6204903 C27.9770745,25.6064779 28.1276343,25.5914954 28.1670199,25.5869683 C28.3218346,25.569399 28.901708,25.573926 29.2349033,25.5951602 M28.3342722,28.5005765 C26.8708965,28.6218376 25.6129586,29.7690217 25.3671534,31.2063701 C25.3060567,31.5639017 24.857214,31.5219723 28.7459113,31.5219723 C31.1306474,31.5219723 32.0917206,31.514535 32.1270695,31.4958877 C32.2540634,31.428736 32.0725188,30.6704498 31.8126395,30.1828185 C31.1524676,28.9439071 29.9575903,28.3660575 28.3342722,28.5005765" id="path1"></path></g></g></svg>