      <svg xmlns="http://www.w3.org/2000/svg" xmlns:xlink="http://www.w3.org/1999/xlink"
                                width="48px" height="48px" viewBox="0 0 48 48" version="1.1" class="svg-convert"
                                src="https://d1i2cp4a5c819e.cloudfront.net/wp-content/uploads/2020/02/ic-technology-swift2x.svg"
                                alt="ic-technology-swift2x">
                                <desc>Created with Sketch.</desc>
                                <g id="Page-1" stroke="none" stroke-width="1" fill="none" fill-rule="evenodd">
                                    <g id="ic-technology-swift" fill="#252B33" fill-rule="nonzero">
                                        <path
                                            d="M36.101829,0 C37.1171333,0.0958641924 38.2399403,0.0958641924 39.2552445,0.306232837 C40.2787113,0.488897098 41.2737004,0.832740481 42.210377,1.32745278 C43.1707353,1.79079637 44.0427025,2.42989099 44.7952221,3.21544479 C46.2727884,4.71731713 47.2701754,6.67321295 47.6440463,8.80752268 C47.8459127,9.84738287 47.9474431,10.9058833 47.9474431,11.9670467 L47.9474431,11.9670467 L48,11.9670467 L48,36.0902055 C47.949195,37.1486314 47.8479197,38.2032959 47.6966032,39.2497295 C47.5269877,40.3255388 47.1829787,41.3614047 46.681299,42.3120579 C46.2178425,43.2667055 45.5967152,44.1294832 44.847779,44.8551219 C44.0455625,45.5943708 43.1581429,46.2105377 42.2091825,46.6871931 C41.2930198,47.1705084 40.3147443,47.5073646 39.3066069,47.6937672 C38.2674132,47.8961471 37.2103024,47.9986686 36.1531915,48 L36.1531915,48 L11.8050019,48 C10.7896976,47.9041358 9.66689063,47.9041358 8.65158641,47.6937672 C7.62811965,47.5111029 6.6331305,47.1672595 5.6964539,46.6725472 C4.75640164,46.2211867 3.89518477,45.5994008 3.15222098,44.840476 C1.67465472,43.3386036 0.677267637,41.3827078 0.30339679,39.2483981 C0.101530422,38.2085379 0,37.1500374 0,36.0888741 L0,36.0888741 L0,11.7167346 C0.0512261281,10.6627626 0.152500262,9.61255493 0.30339679,8.57052509 C0.473012318,7.49471582 0.817021277,6.45884996 1.31870101,5.50819672 C1.79550487,4.54168687 2.42563815,3.67959977 3.17849944,2.96380128 C3.37678238,2.76674711 3.58701008,2.67088292 3.78529302,2.46051427 C4.39570873,1.95575338 5.04436589,1.51114884 5.72392684,1.13173005 L5.72392684,1.13173005 L6.43583427,0.825497212 C7.1525196,0.51260714 7.90742814,0.303569943 8.67786487,0.210368644 C9.45150353,0.0853994928 10.2314626,0.0151361565 11.0130646,0 L11.0130646,0 Z M28.2178383,8.84210526 C31.7077895,13.4842105 33.2988139,19.0964211 31.9021309,24.0315789 C31.7753152,24.4828778 31.6240301,24.9257463 31.4490578,25.3578947 L31.4490578,25.3578947 L30.8028139,24.9865263 C24.7548139,21.1604211 19.1235944,16.6875789 13.9957895,11.6412632 C17.0677895,16.0307368 20.4699358,20.1688421 24.169448,24.0176842 C19.0931553,20.8698947 14.2580334,17.3204211 9.71559435,13.4046316 C10.2892529,14.3545263 10.95657,15.2437895 11.7058383,16.0572632 C16.0328626,21.6631579 21.0272041,26.6905263 26.5741309,31.0206316 C22.3723748,33.5545263 16.3864236,33.6732632 10.4133504,31.0206316 C8.95578947,30.3915789 7.58017972,29.5894737 6.31578947,28.6206316 C9.02720411,32.7574737 12.8882773,35.9658947 17.3955944,37.8265263 C23.1766675,40.2277895 28.9296431,39.9903158 33.1185212,37.6408421 L33.1185212,37.6408421 L33.1161797,37.6547368 C35.1462285,36.8058947 39.193448,35.5591579 41.3780334,39.6050526 C41.8826187,40.5738947 42.9807651,35.4530526 38.9862285,30.6113684 L38.9862285,30.6113684 L38.9218383,30.5317895 C38.9873992,30.3322105 39.0904236,30.1338947 39.0904236,29.9343158 C41.0818383,22.4791579 36.2982285,13.5789474 28.2178383,8.84210526 Z"
                                            id="Combined-Shape"></path>
                                    </g>
                                </g>
                            </svg>