 <svg xmlns="http://www.w3.org/2000/svg" xmlns:xlink="http://www.w3.org/1999/xlink" width="45px" height="45px" viewBox="0 0 45 45" version="1.1" class="svg-convert" src="https://d1i2cp4a5c819e.cloudfront.net/wp-content/uploads/2020/02/ic-technology-typescript2x-2.svg" alt="ic-technology-typescript2x-2"><desc>Created with Sketch.</desc><g id="Page-1" stroke="none" stroke-width="1" fill="none" fill-rule="evenodd"><g id="ic-technology-typescript" fill="#252B33" fill-rule="nonzero"><path d="M45,0 L45,45 L0,45 L0,0 L45,0 Z M36.18,20.6775 C35.40375,20.475 33.5475,20.4075 32.76,20.565 C30.33,21.015 28.63125,22.59 28.1475,24.84 C27.99,25.48125 28.04625,27.07875 28.215,27.73125 C28.44,28.485 28.92375,29.39625 29.4525,29.98125 C30.375,30.94875 31.365,31.57875 33.69375,32.56875 C35.71875,33.46875 36.43875,33.87375 36.79875,34.36875 C37.0575,34.7625 37.13625,34.99875 37.13625,35.51625 C37.13625,36.07875 36.95625,36.48375 36.54,36.86625 C35.5725,37.74375 33.615,37.845 32.1525,37.09125 C31.66875,36.82125 30.83625,36.03375 30.465,35.44875 L30.465,35.44875 L30.1725,35.055 L28.90125,35.7975 L27.21375,36.77625 L26.78625,37.04625 C26.74125,37.125 27.54,38.32875 27.95625,38.77875 C29.01375,39.9375 30.735,40.8375 32.535,41.175 C33.37875,41.32125 35.17875,41.34375 35.96625,41.20875 C38.475,40.7925 40.23,39.52125 40.95,37.6425 C41.59125,35.92125 41.3775,33.62625 40.42125,32.16375 C39.5775,30.85875 38.1825,29.9475 34.965,28.56375 C33.22125,27.79875 32.65875,27.4275 32.355,26.80875 C32.22,26.51625 32.1525,26.31375 32.1525,25.95375 C32.1525,24.7725 33.0525,24.06375 34.4025,24.15375 C35.33625,24.22125 35.9325,24.58125 36.5175,25.41375 C36.6975,25.70625 36.8775,25.8975 36.9225,25.86375 C38.10375,25.1325 40.05,23.81625 40.05,23.74875 C40.005,23.54625 39.38625,22.75875 38.97,22.30875 C38.1825,21.4875 37.305,20.97 36.1575,20.7 L36.1575,20.7 Z M17.775,20.71125 L9.9,20.745 L9.9,22.59 L9.86625,22.57875 L9.86625,24.4125 L15.71625,24.4125 L15.71625,41.0625 L19.8675,41.0625 L19.8675,24.4125 L25.7175,24.4125 L25.7172034,22.0671442 C25.715918,21.3201123 25.7090625,20.7745313 25.6725,20.75625 C25.6725,20.7225 22.10625,20.71125 17.775,20.71125 Z" id="Combined-Shape"></path></g></g></svg>