<svg xmlns="http://www.w3.org/2000/svg" xmlns:xlink="http://www.w3.org/1999/xlink" width="48px" height="48px" viewBox="0 0 48 48" version="1.1" class="svg-convert" src="https://d1i2cp4a5c819e.cloudfront.net/wp-content/uploads/2020/02/ic-technology-wordpress2x.svg" alt="ic-technology-wordpress2x"><desc>Created with Sketch.</desc><g id="Page-1" stroke="none" stroke-width="1" fill="none" fill-rule="evenodd"><g id="ic-technology-wordpress" fill="#252B33" fill-rule="nonzero"><path d="M24,0 C10.766,0 0,10.766 0,24 C0,37.234 10.766,48 24,48 C37.234,48 48,37.234 48,24 C48,10.766 37.234,0 24,0 Z M24,1.126 C36.626,1.126 46.876,11.376 46.876,24 C46.876,36.626 36.626,46.876 24,46.876 C11.374,46.876 1.124,36.626 1.124,24 C1.126,11.374 11.376,1.124 24,1.124 L24,1.126 Z M24,3.43793174 C17.0760333,3.42016254 10.6111177,6.89936132 6.812,12.688 C7.296,12.704 7.734,12.688 8.126,12.688 C10.282,12.688 13.626,12.438 13.626,12.438 C14.734,12.376 14.86,13.992 13.75,14.126 C13.75,14.126 12.618,14.312 11.374,14.374 L18.874,36.626 L23.374,23.126 L20.188,14.374 C19.078,14.314 18,14.126 18,14.126 C16.89,14.062 17.016,12.374 18.126,12.438 C18.126,12.438 21.54,12.688 23.562,12.688 C25.718,12.688 29.062,12.438 29.062,12.438 C30.172,12.376 30.296,13.992 29.188,14.126 C29.188,14.126 28.048,14.312 26.812,14.374 L34.25,36.5 L36.312,29.624 C37.352,26.954 37.876,24.704 37.876,22.938 C37.876,20.39 36.976,18.678 36.188,17.312 C35.148,15.618 34.188,14.132 34.188,12.438 C34.188,10.546 35.602,8.812 37.624,8.812 L37.874,8.812 C34.0902625,5.33900879 29.1359483,3.42070293 24,3.44 L24,3.43793174 Z M42.062,14.124 C42.156,14.782 42.188,15.492 42.188,16.25 C42.188,18.336 41.796,20.688 40.624,23.626 L34.374,41.812 C40.7032794,38.1159358 44.5857596,31.3294061 44.564091,24 C44.564091,20.42 43.674,17.054 42.064,14.124 L42.062,14.124 Z M5.188,15.624 C4.02139694,18.2616319 3.42504898,21.1159236 3.438,24 C3.438,32.148 8.132,39.164 15,42.5 L5.188,15.624 Z M24.374,25.812 L18.188,43.75 C20.032,44.29 21.976,44.562 24,44.562 C26.4,44.562 28.672,44.188 30.812,43.438 C30.758,43.352 30.726,43.226 30.688,43.124 L24.374,25.812 Z" id="surface1-copy"></path></g></g></svg>