 <svg xmlns="http://www.w3.org/2000/svg" xmlns:xlink="http://www.w3.org/1999/xlink" width="42px" height="48px" viewBox="0 0 57 18" version="1.1" class="svg-convert" src="https://d1i2cp4a5c819e.cloudfront.net/wp-content/uploads/2020/02/ic-technology-wpf2x.svg" alt="ic-technology-wpf2x"><desc>Created with Sketch.</desc><g id="Page-1" stroke="none" stroke-width="1" fill="none" fill-rule="evenodd"><g id="ic-technology-wpf" fill="#252B33" fill-rule="nonzero"><path d="M4.66502683,17.8125 L11.4713775,4.78726126 L11.8919946,17.8125 L15.779517,17.8125 L24.8164132,0 L21.0945886,0 L14.9382826,12.3326654 L14.5049195,0 L10.3369857,0 L3.92576029,12.4663199 L3.76006261,0 L0,0 L0.701028623,17.8125 L4.66502683,17.8125 Z M26.486136,17.8125 L27.977415,11.0204212 L30.5576902,11.0203489 C32.1491805,11.0184214 33.2392229,10.9779442 33.8278175,10.8989171 C34.8644902,10.7612125 35.6887299,10.5607307 36.3005367,10.2974719 C36.9123435,10.034213 37.483788,9.64742497 38.0148703,9.13710778 C38.5459526,8.62679059 38.994186,7.94636767 39.3595707,7.09583902 C39.7249553,6.24531037 39.9076476,5.3704809 39.9076476,4.47135061 C39.9076476,3.49931787 39.67822,2.6629647 39.2193649,1.9622911 C38.7605098,1.2616175 38.1380814,0.75940058 37.3520796,0.455640348 C36.5660778,0.151880116 35.4975403,0 34.1464669,0 L34.1464669,0 L26.5498658,0 L22.6368515,17.8125 L26.486136,17.8125 Z M29.9235837,8.06771994 L28.6147138,8.06787176 L29.7491055,2.92824864 L32.5022361,2.92824864 C33.7513417,2.92824864 34.5564624,2.99102575 34.9175984,3.11657998 C35.2787343,3.24213421 35.5591458,3.44261596 35.7588327,3.71802524 C35.9585197,3.99343452 36.0583631,4.34579638 36.0583631,4.77511085 C36.0583631,5.4150324 35.8629249,6.00230218 35.4720483,6.53692019 C35.0811717,7.0715382 34.5458408,7.4603513 33.8660555,7.70335948 C33.1862701,7.94636767 31.8309481,8.06787176 29.8000894,8.06787176 L29.9235837,8.06771994 Z M43.8588998,17.8125 L45.5158766,10.2306446 L54.5655188,10.2306446 L55.2155635,7.25379434 L46.1659213,7.25379434 L47.1091234,2.97685027 L56.3372093,2.97685027 L57,0 L43.9226297,0 L40.0096154,17.8125 L43.8588998,17.8125 Z" id="WPF"></path></g></g></svg>