<svg width="66" height="66" viewBox="0 0 66 66" fill="none" xmlns="http://www.w3.org/2000/svg">
<mask id="path-1-outside-1_1731_745" maskUnits="userSpaceOnUse" x="0.189453" y="-0.046875" width="33" height="66" fill="black">
<rect fill="white" x="0.189453" y="-0.046875" width="33" height="66"/>
<path d="M10.0774 41.6435C12.4821 41.6435 14.8406 41.6435 17.243 41.6435C17.0583 41.0891 16.8483 40.5884 16.7283 40.069C16.3914 38.6138 16.5668 37.2148 17.2107 35.8649C17.3076 35.6637 17.3099 35.308 17.1945 35.1279C15.4822 32.4187 15.7268 29.5574 17.8891 27.2226C18.0091 27.0939 18.1245 26.9021 18.1337 26.7336C18.1637 26.1698 18.1453 25.6036 18.1453 24.9907C15.4498 24.9907 12.789 24.9907 10.0636 24.9907C9.66664 26.4318 8.83816 27.5758 7.41659 28.1935C6.45427 28.6123 5.46194 28.6801 4.44884 28.383C2.39033 27.777 1.04722 25.8259 1.21107 23.6711C1.368 21.596 3.03188 19.8015 5.02116 19.5582C7.3889 19.2681 9.25356 20.5572 10.0613 23.1097C10.239 23.1097 10.4467 23.1097 10.6544 23.1097C13.1975 23.1097 15.7383 23.1026 18.2814 23.1167C18.6761 23.119 18.9068 22.9693 19.1999 22.6909C19.8969 22.0311 20.7046 21.4954 21.4546 20.8894C21.6669 20.7163 21.9231 20.5174 22.0084 20.2765C22.5415 18.73 23.4993 17.5837 24.9854 16.9309C25.3201 16.7835 25.4193 16.601 25.417 16.2478C25.4031 13.9995 25.4239 11.7488 25.4031 9.50053C25.387 7.65229 24.1754 6.42403 22.35 6.41467C18.4291 6.39362 14.5083 6.40999 10.5874 6.38192C10.1005 6.37724 9.99204 6.6112 9.85819 6.99254C9.07586 9.21277 6.82582 10.4223 4.57115 9.86082C2.4111 9.32273 0.922607 7.12122 1.22954 4.91737C1.55493 2.58016 3.48651 0.905048 5.79656 0.954178C7.61506 0.99395 9.26048 2.18478 9.85357 3.97219C10.0174 4.46583 10.2482 4.57345 10.7236 4.57345C14.5798 4.55942 18.4361 4.56175 22.2923 4.58047C24.7431 4.59217 26.6101 6.07778 27.1109 8.40095C27.2055 8.84312 27.2124 9.31103 27.2147 9.76724C27.2262 11.7325 27.2193 13.6977 27.2193 15.6629C27.2193 15.8992 27.2193 16.1355 27.2193 16.4162C27.6001 16.4771 27.9417 16.5121 28.2717 16.587C30.6856 17.1345 32.4833 19.2845 32.4925 21.7948C32.5202 29.4802 32.5248 37.168 32.4902 44.8534C32.4787 47.5813 30.4779 49.7641 27.8263 50.1127C27.6393 50.1384 27.4524 50.1782 27.217 50.2226C27.217 51.6732 27.217 53.0886 27.217 54.504C27.217 55.4211 27.2332 56.3382 27.2101 57.2553C27.1363 60.0066 25.1585 62.0186 22.4192 62.0467C18.563 62.0865 14.7068 62.0771 10.8505 62.0584C10.2851 62.056 10.0151 62.1777 9.80281 62.7813C9.09664 64.8097 6.93428 66.0052 4.89192 65.6051C2.70649 65.1747 1.18569 63.3311 1.19492 61.1249C1.20415 58.9328 2.77342 57.0752 4.945 56.6845C6.99428 56.3148 9.12201 57.5407 9.82357 59.5808C10.0105 60.1236 10.2574 60.2499 10.7767 60.2476C14.5683 60.2242 18.3599 60.2312 22.1515 60.2218C24.217 60.2172 25.3962 59.024 25.4031 56.9348C25.4101 54.773 25.4124 52.6113 25.3939 50.4496C25.3916 50.2273 25.2993 49.8764 25.1493 49.8085C23.0262 48.8212 21.9254 47.1391 21.7592 44.9563C20.7923 44.4837 19.913 44.0486 19.0292 43.6251C18.8999 43.562 18.7453 43.5269 18.6022 43.5269C15.8237 43.5222 13.0452 43.5269 10.2644 43.5292C10.202 43.5292 10.1397 43.5526 10.082 43.5643C8.9697 46.2992 7.07274 47.5345 4.76269 47.0362C2.65111 46.58 1.16031 44.6896 1.19492 42.5068C1.22723 40.3638 2.7988 38.5085 4.87808 38.1529C7.26659 37.7365 9.11048 38.9718 10.0774 41.6435ZM18.6668 33.9792C18.8745 33.8294 19.0476 33.7008 19.2253 33.5815C20.2361 32.8936 21.3461 32.5287 22.5646 32.5287C23.1277 32.5287 23.4508 32.8445 23.5085 33.399C23.5592 33.8879 23.1785 34.2833 22.6408 34.3512C22.5346 34.3652 22.4262 34.3582 22.3177 34.3652C19.8946 34.5383 18.1337 36.7141 18.4014 39.2057C18.6553 41.5663 20.8915 43.2625 23.2639 42.9045C24.1962 42.7642 24.9577 42.315 25.6501 41.6927C26.0701 41.316 26.5339 41.3324 26.9124 41.7535C27.2932 42.1769 27.2609 42.6636 26.8432 43.0285C26.3747 43.4403 25.8739 43.8333 25.3293 44.1281C24.7893 44.4206 24.18 44.582 23.5962 44.8019C23.6493 45.8758 24.0393 46.7765 24.8447 47.4503C25.9501 48.3767 27.2055 48.6107 28.5278 48.0188C29.8848 47.4128 30.674 46.325 30.6879 44.8019C30.7202 41.1546 30.7017 37.5096 30.7017 33.8622C30.7017 29.8452 30.7132 25.8259 30.6902 21.8089C30.6809 20.2297 29.5317 18.8143 28.0317 18.4072C26.5386 18.0001 24.9416 18.6505 24.1223 20.0098C24.0416 20.1455 24 20.3069 23.9262 20.494C24.1593 20.5385 24.3254 20.5666 24.4916 20.6017C25.5554 20.8146 26.4808 21.3035 27.2447 22.0826C27.6324 22.478 27.6832 22.9506 27.2955 23.367C26.9124 23.7788 26.4578 23.7601 26.0216 23.4185C25.8855 23.3109 25.7654 23.1845 25.627 23.0816C24.6208 22.3353 23.52 22.1247 22.3292 22.5318C19.6846 23.4395 19.0915 26.6938 21.1961 28.7199C21.6992 29.2042 21.7731 29.7329 21.3923 30.1447C21.0277 30.54 20.5223 30.5284 20.0146 30.1049C19.5853 29.7493 19.163 29.3843 18.7499 29.0357C17.6399 30.4067 17.5499 32.4304 18.6668 33.9792ZM8.31662 42.6144C8.32585 41.1241 7.13505 39.8959 5.67655 39.8889C4.22268 39.8818 3.00881 41.1148 3.01111 42.5934C3.01342 44.0626 4.17191 45.2464 5.62348 45.2651C7.11659 45.2839 8.30508 44.1117 8.31662 42.6144ZM5.6581 21.3527C4.17652 21.3573 2.99958 22.5599 3.01342 24.0572C3.02727 25.51 4.21344 26.7149 5.64655 26.7313C7.09812 26.7476 8.3143 25.5194 8.31892 24.0361C8.31892 22.5341 7.14659 21.3503 5.6581 21.3527ZM5.66963 8.15763C7.14659 8.15529 8.32354 6.95277 8.31662 5.45312C8.3097 3.99091 7.13505 2.7954 5.69502 2.78136C4.2296 2.76732 3.01804 3.97687 3.01111 5.46014C3.0065 6.94575 4.20191 8.15997 5.66963 8.15763ZM5.67655 58.4625C4.20421 58.4578 3.00881 59.665 3.01111 61.153C3.01342 62.6339 4.22499 63.8505 5.6881 63.8388C7.12582 63.8294 8.30508 62.6316 8.31431 61.174C8.32585 59.672 7.15351 58.4672 5.67655 58.4625Z"/>
</mask>
<path d="M10.0774 41.6435C12.4821 41.6435 14.8406 41.6435 17.243 41.6435C17.0583 41.0891 16.8483 40.5884 16.7283 40.069C16.3914 38.6138 16.5668 37.2148 17.2107 35.8649C17.3076 35.6637 17.3099 35.308 17.1945 35.1279C15.4822 32.4187 15.7268 29.5574 17.8891 27.2226C18.0091 27.0939 18.1245 26.9021 18.1337 26.7336C18.1637 26.1698 18.1453 25.6036 18.1453 24.9907C15.4498 24.9907 12.789 24.9907 10.0636 24.9907C9.66664 26.4318 8.83816 27.5758 7.41659 28.1935C6.45427 28.6123 5.46194 28.6801 4.44884 28.383C2.39033 27.777 1.04722 25.8259 1.21107 23.6711C1.368 21.596 3.03188 19.8015 5.02116 19.5582C7.3889 19.2681 9.25356 20.5572 10.0613 23.1097C10.239 23.1097 10.4467 23.1097 10.6544 23.1097C13.1975 23.1097 15.7383 23.1026 18.2814 23.1167C18.6761 23.119 18.9068 22.9693 19.1999 22.6909C19.8969 22.0311 20.7046 21.4954 21.4546 20.8894C21.6669 20.7163 21.9231 20.5174 22.0084 20.2765C22.5415 18.73 23.4993 17.5837 24.9854 16.9309C25.3201 16.7835 25.4193 16.601 25.417 16.2478C25.4031 13.9995 25.4239 11.7488 25.4031 9.50053C25.387 7.65229 24.1754 6.42403 22.35 6.41467C18.4291 6.39362 14.5083 6.40999 10.5874 6.38192C10.1005 6.37724 9.99204 6.6112 9.85819 6.99254C9.07586 9.21277 6.82582 10.4223 4.57115 9.86082C2.4111 9.32273 0.922607 7.12122 1.22954 4.91737C1.55493 2.58016 3.48651 0.905048 5.79656 0.954178C7.61506 0.99395 9.26048 2.18478 9.85357 3.97219C10.0174 4.46583 10.2482 4.57345 10.7236 4.57345C14.5798 4.55942 18.4361 4.56175 22.2923 4.58047C24.7431 4.59217 26.6101 6.07778 27.1109 8.40095C27.2055 8.84312 27.2124 9.31103 27.2147 9.76724C27.2262 11.7325 27.2193 13.6977 27.2193 15.6629C27.2193 15.8992 27.2193 16.1355 27.2193 16.4162C27.6001 16.4771 27.9417 16.5121 28.2717 16.587C30.6856 17.1345 32.4833 19.2845 32.4925 21.7948C32.5202 29.4802 32.5248 37.168 32.4902 44.8534C32.4787 47.5813 30.4779 49.7641 27.8263 50.1127C27.6393 50.1384 27.4524 50.1782 27.217 50.2226C27.217 51.6732 27.217 53.0886 27.217 54.504C27.217 55.4211 27.2332 56.3382 27.2101 57.2553C27.1363 60.0066 25.1585 62.0186 22.4192 62.0467C18.563 62.0865 14.7068 62.0771 10.8505 62.0584C10.2851 62.056 10.0151 62.1777 9.80281 62.7813C9.09664 64.8097 6.93428 66.0052 4.89192 65.6051C2.70649 65.1747 1.18569 63.3311 1.19492 61.1249C1.20415 58.9328 2.77342 57.0752 4.945 56.6845C6.99428 56.3148 9.12201 57.5407 9.82357 59.5808C10.0105 60.1236 10.2574 60.2499 10.7767 60.2476C14.5683 60.2242 18.3599 60.2312 22.1515 60.2218C24.217 60.2172 25.3962 59.024 25.4031 56.9348C25.4101 54.773 25.4124 52.6113 25.3939 50.4496C25.3916 50.2273 25.2993 49.8764 25.1493 49.8085C23.0262 48.8212 21.9254 47.1391 21.7592 44.9563C20.7923 44.4837 19.913 44.0486 19.0292 43.6251C18.8999 43.562 18.7453 43.5269 18.6022 43.5269C15.8237 43.5222 13.0452 43.5269 10.2644 43.5292C10.202 43.5292 10.1397 43.5526 10.082 43.5643C8.9697 46.2992 7.07274 47.5345 4.76269 47.0362C2.65111 46.58 1.16031 44.6896 1.19492 42.5068C1.22723 40.3638 2.7988 38.5085 4.87808 38.1529C7.26659 37.7365 9.11048 38.9718 10.0774 41.6435ZM18.6668 33.9792C18.8745 33.8294 19.0476 33.7008 19.2253 33.5815C20.2361 32.8936 21.3461 32.5287 22.5646 32.5287C23.1277 32.5287 23.4508 32.8445 23.5085 33.399C23.5592 33.8879 23.1785 34.2833 22.6408 34.3512C22.5346 34.3652 22.4262 34.3582 22.3177 34.3652C19.8946 34.5383 18.1337 36.7141 18.4014 39.2057C18.6553 41.5663 20.8915 43.2625 23.2639 42.9045C24.1962 42.7642 24.9577 42.315 25.6501 41.6927C26.0701 41.316 26.5339 41.3324 26.9124 41.7535C27.2932 42.1769 27.2609 42.6636 26.8432 43.0285C26.3747 43.4403 25.8739 43.8333 25.3293 44.1281C24.7893 44.4206 24.18 44.582 23.5962 44.8019C23.6493 45.8758 24.0393 46.7765 24.8447 47.4503C25.9501 48.3767 27.2055 48.6107 28.5278 48.0188C29.8848 47.4128 30.674 46.325 30.6879 44.8019C30.7202 41.1546 30.7017 37.5096 30.7017 33.8622C30.7017 29.8452 30.7132 25.8259 30.6902 21.8089C30.6809 20.2297 29.5317 18.8143 28.0317 18.4072C26.5386 18.0001 24.9416 18.6505 24.1223 20.0098C24.0416 20.1455 24 20.3069 23.9262 20.494C24.1593 20.5385 24.3254 20.5666 24.4916 20.6017C25.5554 20.8146 26.4808 21.3035 27.2447 22.0826C27.6324 22.478 27.6832 22.9506 27.2955 23.367C26.9124 23.7788 26.4578 23.7601 26.0216 23.4185C25.8855 23.3109 25.7654 23.1845 25.627 23.0816C24.6208 22.3353 23.52 22.1247 22.3292 22.5318C19.6846 23.4395 19.0915 26.6938 21.1961 28.7199C21.6992 29.2042 21.7731 29.7329 21.3923 30.1447C21.0277 30.54 20.5223 30.5284 20.0146 30.1049C19.5853 29.7493 19.163 29.3843 18.7499 29.0357C17.6399 30.4067 17.5499 32.4304 18.6668 33.9792ZM8.31662 42.6144C8.32585 41.1241 7.13505 39.8959 5.67655 39.8889C4.22268 39.8818 3.00881 41.1148 3.01111 42.5934C3.01342 44.0626 4.17191 45.2464 5.62348 45.2651C7.11659 45.2839 8.30508 44.1117 8.31662 42.6144ZM5.6581 21.3527C4.17652 21.3573 2.99958 22.5599 3.01342 24.0572C3.02727 25.51 4.21344 26.7149 5.64655 26.7313C7.09812 26.7476 8.3143 25.5194 8.31892 24.0361C8.31892 22.5341 7.14659 21.3503 5.6581 21.3527ZM5.66963 8.15763C7.14659 8.15529 8.32354 6.95277 8.31662 5.45312C8.3097 3.99091 7.13505 2.7954 5.69502 2.78136C4.2296 2.76732 3.01804 3.97687 3.01111 5.46014C3.0065 6.94575 4.20191 8.15997 5.66963 8.15763ZM5.67655 58.4625C4.20421 58.4578 3.00881 59.665 3.01111 61.153C3.01342 62.6339 4.22499 63.8505 5.6881 63.8388C7.12582 63.8294 8.30508 62.6316 8.31431 61.174C8.32585 59.672 7.15351 58.4672 5.67655 58.4625Z" fill="white"/>
<path d="M10.0774 41.6435C12.4821 41.6435 14.8406 41.6435 17.243 41.6435C17.0583 41.0891 16.8483 40.5884 16.7283 40.069C16.3914 38.6138 16.5668 37.2148 17.2107 35.8649C17.3076 35.6637 17.3099 35.308 17.1945 35.1279C15.4822 32.4187 15.7268 29.5574 17.8891 27.2226C18.0091 27.0939 18.1245 26.9021 18.1337 26.7336C18.1637 26.1698 18.1453 25.6036 18.1453 24.9907C15.4498 24.9907 12.789 24.9907 10.0636 24.9907C9.66664 26.4318 8.83816 27.5758 7.41659 28.1935C6.45427 28.6123 5.46194 28.6801 4.44884 28.383C2.39033 27.777 1.04722 25.8259 1.21107 23.6711C1.368 21.596 3.03188 19.8015 5.02116 19.5582C7.3889 19.2681 9.25356 20.5572 10.0613 23.1097C10.239 23.1097 10.4467 23.1097 10.6544 23.1097C13.1975 23.1097 15.7383 23.1026 18.2814 23.1167C18.6761 23.119 18.9068 22.9693 19.1999 22.6909C19.8969 22.0311 20.7046 21.4954 21.4546 20.8894C21.6669 20.7163 21.9231 20.5174 22.0084 20.2765C22.5415 18.73 23.4993 17.5837 24.9854 16.9309C25.3201 16.7835 25.4193 16.601 25.417 16.2478C25.4031 13.9995 25.4239 11.7488 25.4031 9.50053C25.387 7.65229 24.1754 6.42403 22.35 6.41467C18.4291 6.39362 14.5083 6.40999 10.5874 6.38192C10.1005 6.37724 9.99204 6.6112 9.85819 6.99254C9.07586 9.21277 6.82582 10.4223 4.57115 9.86082C2.4111 9.32273 0.922607 7.12122 1.22954 4.91737C1.55493 2.58016 3.48651 0.905048 5.79656 0.954178C7.61506 0.99395 9.26048 2.18478 9.85357 3.97219C10.0174 4.46583 10.2482 4.57345 10.7236 4.57345C14.5798 4.55942 18.4361 4.56175 22.2923 4.58047C24.7431 4.59217 26.6101 6.07778 27.1109 8.40095C27.2055 8.84312 27.2124 9.31103 27.2147 9.76724C27.2262 11.7325 27.2193 13.6977 27.2193 15.6629C27.2193 15.8992 27.2193 16.1355 27.2193 16.4162C27.6001 16.4771 27.9417 16.5121 28.2717 16.587C30.6856 17.1345 32.4833 19.2845 32.4925 21.7948C32.5202 29.4802 32.5248 37.168 32.4902 44.8534C32.4787 47.5813 30.4779 49.7641 27.8263 50.1127C27.6393 50.1384 27.4524 50.1782 27.217 50.2226C27.217 51.6732 27.217 53.0886 27.217 54.504C27.217 55.4211 27.2332 56.3382 27.2101 57.2553C27.1363 60.0066 25.1585 62.0186 22.4192 62.0467C18.563 62.0865 14.7068 62.0771 10.8505 62.0584C10.2851 62.056 10.0151 62.1777 9.80281 62.7813C9.09664 64.8097 6.93428 66.0052 4.89192 65.6051C2.70649 65.1747 1.18569 63.3311 1.19492 61.1249C1.20415 58.9328 2.77342 57.0752 4.945 56.6845C6.99428 56.3148 9.12201 57.5407 9.82357 59.5808C10.0105 60.1236 10.2574 60.2499 10.7767 60.2476C14.5683 60.2242 18.3599 60.2312 22.1515 60.2218C24.217 60.2172 25.3962 59.024 25.4031 56.9348C25.4101 54.773 25.4124 52.6113 25.3939 50.4496C25.3916 50.2273 25.2993 49.8764 25.1493 49.8085C23.0262 48.8212 21.9254 47.1391 21.7592 44.9563C20.7923 44.4837 19.913 44.0486 19.0292 43.6251C18.8999 43.562 18.7453 43.5269 18.6022 43.5269C15.8237 43.5222 13.0452 43.5269 10.2644 43.5292C10.202 43.5292 10.1397 43.5526 10.082 43.5643C8.9697 46.2992 7.07274 47.5345 4.76269 47.0362C2.65111 46.58 1.16031 44.6896 1.19492 42.5068C1.22723 40.3638 2.7988 38.5085 4.87808 38.1529C7.26659 37.7365 9.11048 38.9718 10.0774 41.6435ZM18.6668 33.9792C18.8745 33.8294 19.0476 33.7008 19.2253 33.5815C20.2361 32.8936 21.3461 32.5287 22.5646 32.5287C23.1277 32.5287 23.4508 32.8445 23.5085 33.399C23.5592 33.8879 23.1785 34.2833 22.6408 34.3512C22.5346 34.3652 22.4262 34.3582 22.3177 34.3652C19.8946 34.5383 18.1337 36.7141 18.4014 39.2057C18.6553 41.5663 20.8915 43.2625 23.2639 42.9045C24.1962 42.7642 24.9577 42.315 25.6501 41.6927C26.0701 41.316 26.5339 41.3324 26.9124 41.7535C27.2932 42.1769 27.2609 42.6636 26.8432 43.0285C26.3747 43.4403 25.8739 43.8333 25.3293 44.1281C24.7893 44.4206 24.18 44.582 23.5962 44.8019C23.6493 45.8758 24.0393 46.7765 24.8447 47.4503C25.9501 48.3767 27.2055 48.6107 28.5278 48.0188C29.8848 47.4128 30.674 46.325 30.6879 44.8019C30.7202 41.1546 30.7017 37.5096 30.7017 33.8622C30.7017 29.8452 30.7132 25.8259 30.6902 21.8089C30.6809 20.2297 29.5317 18.8143 28.0317 18.4072C26.5386 18.0001 24.9416 18.6505 24.1223 20.0098C24.0416 20.1455 24 20.3069 23.9262 20.494C24.1593 20.5385 24.3254 20.5666 24.4916 20.6017C25.5554 20.8146 26.4808 21.3035 27.2447 22.0826C27.6324 22.478 27.6832 22.9506 27.2955 23.367C26.9124 23.7788 26.4578 23.7601 26.0216 23.4185C25.8855 23.3109 25.7654 23.1845 25.627 23.0816C24.6208 22.3353 23.52 22.1247 22.3292 22.5318C19.6846 23.4395 19.0915 26.6938 21.1961 28.7199C21.6992 29.2042 21.7731 29.7329 21.3923 30.1447C21.0277 30.54 20.5223 30.5284 20.0146 30.1049C19.5853 29.7493 19.163 29.3843 18.7499 29.0357C17.6399 30.4067 17.5499 32.4304 18.6668 33.9792ZM8.31662 42.6144C8.32585 41.1241 7.13505 39.8959 5.67655 39.8889C4.22268 39.8818 3.00881 41.1148 3.01111 42.5934C3.01342 44.0626 4.17191 45.2464 5.62348 45.2651C7.11659 45.2839 8.30508 44.1117 8.31662 42.6144ZM5.6581 21.3527C4.17652 21.3573 2.99958 22.5599 3.01342 24.0572C3.02727 25.51 4.21344 26.7149 5.64655 26.7313C7.09812 26.7476 8.3143 25.5194 8.31892 24.0361C8.31892 22.5341 7.14659 21.3503 5.6581 21.3527ZM5.66963 8.15763C7.14659 8.15529 8.32354 6.95277 8.31662 5.45312C8.3097 3.99091 7.13505 2.7954 5.69502 2.78136C4.2296 2.76732 3.01804 3.97687 3.01111 5.46014C3.0065 6.94575 4.20191 8.15997 5.66963 8.15763ZM5.67655 58.4625C4.20421 58.4578 3.00881 59.665 3.01111 61.153C3.01342 62.6339 4.22499 63.8505 5.6881 63.8388C7.12582 63.8294 8.30508 62.6316 8.31431 61.174C8.32585 59.672 7.15351 58.4672 5.67655 58.4625Z" stroke="white" stroke-width="0.4" mask="url(#path-1-outside-1_1731_745)"/>
<mask id="path-2-outside-2_1731_745" maskUnits="userSpaceOnUse" x="32.748" y="-0.0654297" width="33" height="66" fill="black">
<rect fill="white" x="32.748" y="-0.0654297" width="33" height="66"/>
<path d="M48.1182 24.9717C48.1182 25.601 48.0975 26.1859 48.1321 26.7684C48.1413 26.9345 48.2798 27.117 48.4021 27.248C50.5252 29.5174 50.7768 32.4512 49.0806 35.1019C48.9744 35.2657 48.9075 35.5675 48.986 35.7242C49.9206 37.6075 49.9506 39.4909 49.076 41.3976C49.0506 41.4514 49.0552 41.5193 49.0367 41.6316C51.4299 41.6316 53.8045 41.6316 56.1746 41.6316C57.2962 38.8498 59.1331 37.666 61.547 38.1667C63.5917 38.5901 65.094 40.5133 65.064 42.6703C65.034 44.8016 63.4578 46.6967 61.3901 47.0429C59.4747 47.3634 57.1069 46.5586 56.1815 43.5149C55.2123 43.5149 54.2245 43.5149 53.2368 43.5149C51.4483 43.5149 49.6598 43.5102 47.8736 43.5196C47.6475 43.5219 47.4005 43.5523 47.1975 43.6459C46.3251 44.046 45.4643 44.4718 44.4951 44.9397C44.4259 45.9246 44.1905 47.064 43.4151 47.9226C42.8035 48.6011 42.0327 49.1415 41.2827 49.6702C41.0081 49.8644 40.8419 49.9884 40.8442 50.3534C40.8604 52.6251 40.835 54.8944 40.8604 57.1661C40.8789 58.9418 42.0812 60.1935 43.8259 60.2052C47.7906 60.2356 51.7529 60.2146 55.7176 60.2403C56.1838 60.2426 56.2738 59.9993 56.3961 59.6507C57.1277 57.5685 59.2093 56.3099 61.2908 56.6701C63.4832 57.0491 65.0686 58.9372 65.064 61.1597C65.0594 63.3566 63.5201 65.1884 61.3255 65.6072C59.29 65.9956 57.1415 64.7696 56.4377 62.7342C56.2392 62.1634 55.9784 62.0464 55.4315 62.0488C51.6399 62.0698 47.8482 62.0581 44.0566 62.0464C41.5458 62.0371 39.6719 60.5865 39.1573 58.2447C39.0511 57.7604 39.0488 57.248 39.0465 56.7473C39.035 54.588 39.0419 52.4262 39.0419 50.2083C38.6565 50.1475 38.2965 50.1101 37.9457 50.0305C35.5087 49.469 33.7802 47.3634 33.7664 44.8063C33.7341 39.3248 33.7549 33.8456 33.7526 28.364C33.7526 26.2678 33.741 24.1715 33.7549 22.0753C33.7733 19.1111 35.6426 16.9307 38.5388 16.5119C38.968 16.4487 39.0511 16.2709 39.0488 15.8802C39.0327 13.8284 39.0373 11.7743 39.0442 9.72252C39.0557 6.57115 41.0242 4.57786 44.1374 4.57084C47.9498 4.56149 51.7645 4.55447 55.5769 4.56383C56.0177 4.56383 56.2415 4.46791 56.4007 3.99298C57.1023 1.89675 59.2139 0.628714 61.2747 0.998362C63.4947 1.39842 65.064 3.249 65.0617 5.47157C65.0617 7.6918 63.467 9.57513 61.2747 9.94712C59.1931 10.3004 57.1046 9.04405 56.4007 6.94782C56.2392 6.46588 56.0038 6.38165 55.5699 6.38399C51.7345 6.40037 47.9013 6.39569 44.0659 6.40739C42.042 6.41207 40.8604 7.61225 40.8535 9.66637C40.8442 11.8281 40.8627 13.9898 40.8419 16.1516C40.8373 16.5867 40.9666 16.7879 41.3681 16.9704C42.8012 17.6208 43.722 18.7532 44.2436 20.2481C44.3289 20.4938 44.5528 20.7628 44.7836 20.8681C45.7228 21.3079 46.5167 21.9092 47.149 22.7444C47.2736 22.9105 47.509 23.0907 47.6959 23.0907C50.516 23.1117 53.3361 23.107 56.1861 23.107C56.2646 22.8848 56.3315 22.6836 56.4031 22.4847C57.1531 20.4096 59.26 19.186 61.4062 19.5767C63.497 19.958 65.064 21.8671 65.064 24.0335C65.064 26.2116 63.4994 28.109 61.4016 28.474C59.2231 28.853 57.1277 27.6645 56.4215 25.5706C56.2484 25.0559 56.0315 24.9202 55.5238 24.9272C53.283 24.9553 51.0422 24.9389 48.8013 24.9413C48.5913 24.9413 48.3813 24.9576 48.1182 24.9717ZM42.2543 20.3347C41.9197 19.1415 40.3112 18.1402 38.8365 18.304C36.9026 18.5192 35.5664 20.0563 35.5664 22.1057C35.5595 29.5735 35.5641 37.0414 35.5641 44.5092C35.5641 44.6847 35.5664 44.8578 35.5803 45.0333C35.7049 46.8675 37.3942 48.3999 39.2127 48.3273C41.1373 48.2501 42.6304 46.7084 42.6374 44.7478C42.4481 44.6917 42.245 44.6332 42.042 44.5747C41.0266 44.2846 40.1335 43.7769 39.395 43.0095C39.0304 42.6282 38.998 42.1954 39.3304 41.7719C39.6488 41.3672 40.1427 41.3344 40.5973 41.669C40.7358 41.7719 40.8581 41.8983 40.9919 42.0082C42.3535 43.1265 44.2505 43.2739 45.7736 42.3802C47.2967 41.4865 48.1206 39.7506 47.8552 37.9912C47.5967 36.281 46.2974 34.8586 44.6174 34.4772C44.262 34.3977 43.8905 34.4024 43.5328 34.3345C43.0481 34.2433 42.7574 33.9228 42.7666 33.4268C42.7781 32.9027 43.0805 32.5705 43.6112 32.5331C43.9089 32.512 44.2343 32.5003 44.5089 32.5939C45.5705 32.9612 46.6159 33.3753 47.7259 33.7917C48.7367 32.5377 48.6352 30.252 47.4559 28.9816C46.9828 29.4145 46.5305 29.88 46.0228 30.2754C45.6282 30.5819 45.1897 30.493 44.8666 30.1163C44.5413 29.7373 44.5528 29.3162 44.8736 28.9278C44.9982 28.7781 45.1574 28.6611 45.2959 28.5231C46.7821 27.0398 46.7128 24.6184 45.1413 23.224C43.7451 21.9841 41.9196 22.0332 40.325 23.355C39.8334 23.7621 39.2981 23.7598 38.9519 23.348C38.6057 22.9363 38.6542 22.459 39.1019 22.0145C39.2704 21.846 39.4411 21.6589 39.6465 21.5559C40.4958 21.1348 41.3681 20.7441 42.2543 20.3347ZM57.9469 24.0148C57.9423 25.5027 59.1423 26.7333 60.5962 26.731C62.0501 26.7287 63.2593 25.491 63.2501 24.0125C63.2409 22.5432 62.0801 21.3664 60.6262 21.3524C59.1354 21.3384 57.9539 22.5128 57.9469 24.0148ZM60.5824 45.2649C62.0662 45.2719 63.2524 44.0787 63.2524 42.5837C63.2501 41.1052 62.0293 39.8746 60.5777 39.8886C59.1423 39.9026 57.9608 41.1005 57.9492 42.558C57.9354 44.0647 59.0962 45.2579 60.5824 45.2649ZM57.9469 61.1667C57.9562 62.6547 59.1631 63.8572 60.6331 63.8362C62.0662 63.8175 63.2478 62.6079 63.2524 61.1551C63.257 59.6671 62.0616 58.4576 60.5916 58.4599C59.1123 58.4646 57.94 59.6648 57.9469 61.1667ZM57.9492 5.4201C57.9285 6.92676 59.0893 8.14099 60.5616 8.15737C62.0362 8.17374 63.2432 6.9759 63.2524 5.49029C63.2617 4.03275 62.0962 2.81385 60.6631 2.78109C59.1908 2.74834 57.9677 3.93449 57.9492 5.4201Z"/>
</mask>
<path d="M48.1182 24.9717C48.1182 25.601 48.0975 26.1859 48.1321 26.7684C48.1413 26.9345 48.2798 27.117 48.4021 27.248C50.5252 29.5174 50.7768 32.4512 49.0806 35.1019C48.9744 35.2657 48.9075 35.5675 48.986 35.7242C49.9206 37.6075 49.9506 39.4909 49.076 41.3976C49.0506 41.4514 49.0552 41.5193 49.0367 41.6316C51.4299 41.6316 53.8045 41.6316 56.1746 41.6316C57.2962 38.8498 59.1331 37.666 61.547 38.1667C63.5917 38.5901 65.094 40.5133 65.064 42.6703C65.034 44.8016 63.4578 46.6967 61.3901 47.0429C59.4747 47.3634 57.1069 46.5586 56.1815 43.5149C55.2123 43.5149 54.2245 43.5149 53.2368 43.5149C51.4483 43.5149 49.6598 43.5102 47.8736 43.5196C47.6475 43.5219 47.4005 43.5523 47.1975 43.6459C46.3251 44.046 45.4643 44.4718 44.4951 44.9397C44.4259 45.9246 44.1905 47.064 43.4151 47.9226C42.8035 48.6011 42.0327 49.1415 41.2827 49.6702C41.0081 49.8644 40.8419 49.9884 40.8442 50.3534C40.8604 52.6251 40.835 54.8944 40.8604 57.1661C40.8789 58.9418 42.0812 60.1935 43.8259 60.2052C47.7906 60.2356 51.7529 60.2146 55.7176 60.2403C56.1838 60.2426 56.2738 59.9993 56.3961 59.6507C57.1277 57.5685 59.2093 56.3099 61.2908 56.6701C63.4832 57.0491 65.0686 58.9372 65.064 61.1597C65.0594 63.3566 63.5201 65.1884 61.3255 65.6072C59.29 65.9956 57.1415 64.7696 56.4377 62.7342C56.2392 62.1634 55.9784 62.0464 55.4315 62.0488C51.6399 62.0698 47.8482 62.0581 44.0566 62.0464C41.5458 62.0371 39.6719 60.5865 39.1573 58.2447C39.0511 57.7604 39.0488 57.248 39.0465 56.7473C39.035 54.588 39.0419 52.4262 39.0419 50.2083C38.6565 50.1475 38.2965 50.1101 37.9457 50.0305C35.5087 49.469 33.7802 47.3634 33.7664 44.8063C33.7341 39.3248 33.7549 33.8456 33.7526 28.364C33.7526 26.2678 33.741 24.1715 33.7549 22.0753C33.7733 19.1111 35.6426 16.9307 38.5388 16.5119C38.968 16.4487 39.0511 16.2709 39.0488 15.8802C39.0327 13.8284 39.0373 11.7743 39.0442 9.72252C39.0557 6.57115 41.0242 4.57786 44.1374 4.57084C47.9498 4.56149 51.7645 4.55447 55.5769 4.56383C56.0177 4.56383 56.2415 4.46791 56.4007 3.99298C57.1023 1.89675 59.2139 0.628714 61.2747 0.998362C63.4947 1.39842 65.064 3.249 65.0617 5.47157C65.0617 7.6918 63.467 9.57513 61.2747 9.94712C59.1931 10.3004 57.1046 9.04405 56.4007 6.94782C56.2392 6.46588 56.0038 6.38165 55.5699 6.38399C51.7345 6.40037 47.9013 6.39569 44.0659 6.40739C42.042 6.41207 40.8604 7.61225 40.8535 9.66637C40.8442 11.8281 40.8627 13.9898 40.8419 16.1516C40.8373 16.5867 40.9666 16.7879 41.3681 16.9704C42.8012 17.6208 43.722 18.7532 44.2436 20.2481C44.3289 20.4938 44.5528 20.7628 44.7836 20.8681C45.7228 21.3079 46.5167 21.9092 47.149 22.7444C47.2736 22.9105 47.509 23.0907 47.6959 23.0907C50.516 23.1117 53.3361 23.107 56.1861 23.107C56.2646 22.8848 56.3315 22.6836 56.4031 22.4847C57.1531 20.4096 59.26 19.186 61.4062 19.5767C63.497 19.958 65.064 21.8671 65.064 24.0335C65.064 26.2116 63.4994 28.109 61.4016 28.474C59.2231 28.853 57.1277 27.6645 56.4215 25.5706C56.2484 25.0559 56.0315 24.9202 55.5238 24.9272C53.283 24.9553 51.0422 24.9389 48.8013 24.9413C48.5913 24.9413 48.3813 24.9576 48.1182 24.9717ZM42.2543 20.3347C41.9197 19.1415 40.3112 18.1402 38.8365 18.304C36.9026 18.5192 35.5664 20.0563 35.5664 22.1057C35.5595 29.5735 35.5641 37.0414 35.5641 44.5092C35.5641 44.6847 35.5664 44.8578 35.5803 45.0333C35.7049 46.8675 37.3942 48.3999 39.2127 48.3273C41.1373 48.2501 42.6304 46.7084 42.6374 44.7478C42.4481 44.6917 42.245 44.6332 42.042 44.5747C41.0266 44.2846 40.1335 43.7769 39.395 43.0095C39.0304 42.6282 38.998 42.1954 39.3304 41.7719C39.6488 41.3672 40.1427 41.3344 40.5973 41.669C40.7358 41.7719 40.8581 41.8983 40.9919 42.0082C42.3535 43.1265 44.2505 43.2739 45.7736 42.3802C47.2967 41.4865 48.1206 39.7506 47.8552 37.9912C47.5967 36.281 46.2974 34.8586 44.6174 34.4772C44.262 34.3977 43.8905 34.4024 43.5328 34.3345C43.0481 34.2433 42.7574 33.9228 42.7666 33.4268C42.7781 32.9027 43.0805 32.5705 43.6112 32.5331C43.9089 32.512 44.2343 32.5003 44.5089 32.5939C45.5705 32.9612 46.6159 33.3753 47.7259 33.7917C48.7367 32.5377 48.6352 30.252 47.4559 28.9816C46.9828 29.4145 46.5305 29.88 46.0228 30.2754C45.6282 30.5819 45.1897 30.493 44.8666 30.1163C44.5413 29.7373 44.5528 29.3162 44.8736 28.9278C44.9982 28.7781 45.1574 28.6611 45.2959 28.5231C46.7821 27.0398 46.7128 24.6184 45.1413 23.224C43.7451 21.9841 41.9196 22.0332 40.325 23.355C39.8334 23.7621 39.2981 23.7598 38.9519 23.348C38.6057 22.9363 38.6542 22.459 39.1019 22.0145C39.2704 21.846 39.4411 21.6589 39.6465 21.5559C40.4958 21.1348 41.3681 20.7441 42.2543 20.3347ZM57.9469 24.0148C57.9423 25.5027 59.1423 26.7333 60.5962 26.731C62.0501 26.7287 63.2593 25.491 63.2501 24.0125C63.2409 22.5432 62.0801 21.3664 60.6262 21.3524C59.1354 21.3384 57.9539 22.5128 57.9469 24.0148ZM60.5824 45.2649C62.0662 45.2719 63.2524 44.0787 63.2524 42.5837C63.2501 41.1052 62.0293 39.8746 60.5777 39.8886C59.1423 39.9026 57.9608 41.1005 57.9492 42.558C57.9354 44.0647 59.0962 45.2579 60.5824 45.2649ZM57.9469 61.1667C57.9562 62.6547 59.1631 63.8572 60.6331 63.8362C62.0662 63.8175 63.2478 62.6079 63.2524 61.1551C63.257 59.6671 62.0616 58.4576 60.5916 58.4599C59.1123 58.4646 57.94 59.6648 57.9469 61.1667ZM57.9492 5.4201C57.9285 6.92676 59.0893 8.14099 60.5616 8.15737C62.0362 8.17374 63.2432 6.9759 63.2524 5.49029C63.2617 4.03275 62.0962 2.81385 60.6631 2.78109C59.1908 2.74834 57.9677 3.93449 57.9492 5.4201Z" fill="white"/>
<path d="M48.1182 24.9717C48.1182 25.601 48.0975 26.1859 48.1321 26.7684C48.1413 26.9345 48.2798 27.117 48.4021 27.248C50.5252 29.5174 50.7768 32.4512 49.0806 35.1019C48.9744 35.2657 48.9075 35.5675 48.986 35.7242C49.9206 37.6075 49.9506 39.4909 49.076 41.3976C49.0506 41.4514 49.0552 41.5193 49.0367 41.6316C51.4299 41.6316 53.8045 41.6316 56.1746 41.6316C57.2962 38.8498 59.1331 37.666 61.547 38.1667C63.5917 38.5901 65.094 40.5133 65.064 42.6703C65.034 44.8016 63.4578 46.6967 61.3901 47.0429C59.4747 47.3634 57.1069 46.5586 56.1815 43.5149C55.2123 43.5149 54.2245 43.5149 53.2368 43.5149C51.4483 43.5149 49.6598 43.5102 47.8736 43.5196C47.6475 43.5219 47.4005 43.5523 47.1975 43.6459C46.3251 44.046 45.4643 44.4718 44.4951 44.9397C44.4259 45.9246 44.1905 47.064 43.4151 47.9226C42.8035 48.6011 42.0327 49.1415 41.2827 49.6702C41.0081 49.8644 40.8419 49.9884 40.8442 50.3534C40.8604 52.6251 40.835 54.8944 40.8604 57.1661C40.8789 58.9418 42.0812 60.1935 43.8259 60.2052C47.7906 60.2356 51.7529 60.2146 55.7176 60.2403C56.1838 60.2426 56.2738 59.9993 56.3961 59.6507C57.1277 57.5685 59.2093 56.3099 61.2908 56.6701C63.4832 57.0491 65.0686 58.9372 65.064 61.1597C65.0594 63.3566 63.5201 65.1884 61.3255 65.6072C59.29 65.9956 57.1415 64.7696 56.4377 62.7342C56.2392 62.1634 55.9784 62.0464 55.4315 62.0488C51.6399 62.0698 47.8482 62.0581 44.0566 62.0464C41.5458 62.0371 39.6719 60.5865 39.1573 58.2447C39.0511 57.7604 39.0488 57.248 39.0465 56.7473C39.035 54.588 39.0419 52.4262 39.0419 50.2083C38.6565 50.1475 38.2965 50.1101 37.9457 50.0305C35.5087 49.469 33.7802 47.3634 33.7664 44.8063C33.7341 39.3248 33.7549 33.8456 33.7526 28.364C33.7526 26.2678 33.741 24.1715 33.7549 22.0753C33.7733 19.1111 35.6426 16.9307 38.5388 16.5119C38.968 16.4487 39.0511 16.2709 39.0488 15.8802C39.0327 13.8284 39.0373 11.7743 39.0442 9.72252C39.0557 6.57115 41.0242 4.57786 44.1374 4.57084C47.9498 4.56149 51.7645 4.55447 55.5769 4.56383C56.0177 4.56383 56.2415 4.46791 56.4007 3.99298C57.1023 1.89675 59.2139 0.628714 61.2747 0.998362C63.4947 1.39842 65.064 3.249 65.0617 5.47157C65.0617 7.6918 63.467 9.57513 61.2747 9.94712C59.1931 10.3004 57.1046 9.04405 56.4007 6.94782C56.2392 6.46588 56.0038 6.38165 55.5699 6.38399C51.7345 6.40037 47.9013 6.39569 44.0659 6.40739C42.042 6.41207 40.8604 7.61225 40.8535 9.66637C40.8442 11.8281 40.8627 13.9898 40.8419 16.1516C40.8373 16.5867 40.9666 16.7879 41.3681 16.9704C42.8012 17.6208 43.722 18.7532 44.2436 20.2481C44.3289 20.4938 44.5528 20.7628 44.7836 20.8681C45.7228 21.3079 46.5167 21.9092 47.149 22.7444C47.2736 22.9105 47.509 23.0907 47.6959 23.0907C50.516 23.1117 53.3361 23.107 56.1861 23.107C56.2646 22.8848 56.3315 22.6836 56.4031 22.4847C57.1531 20.4096 59.26 19.186 61.4062 19.5767C63.497 19.958 65.064 21.8671 65.064 24.0335C65.064 26.2116 63.4994 28.109 61.4016 28.474C59.2231 28.853 57.1277 27.6645 56.4215 25.5706C56.2484 25.0559 56.0315 24.9202 55.5238 24.9272C53.283 24.9553 51.0422 24.9389 48.8013 24.9413C48.5913 24.9413 48.3813 24.9576 48.1182 24.9717ZM42.2543 20.3347C41.9197 19.1415 40.3112 18.1402 38.8365 18.304C36.9026 18.5192 35.5664 20.0563 35.5664 22.1057C35.5595 29.5735 35.5641 37.0414 35.5641 44.5092C35.5641 44.6847 35.5664 44.8578 35.5803 45.0333C35.7049 46.8675 37.3942 48.3999 39.2127 48.3273C41.1373 48.2501 42.6304 46.7084 42.6374 44.7478C42.4481 44.6917 42.245 44.6332 42.042 44.5747C41.0266 44.2846 40.1335 43.7769 39.395 43.0095C39.0304 42.6282 38.998 42.1954 39.3304 41.7719C39.6488 41.3672 40.1427 41.3344 40.5973 41.669C40.7358 41.7719 40.8581 41.8983 40.9919 42.0082C42.3535 43.1265 44.2505 43.2739 45.7736 42.3802C47.2967 41.4865 48.1206 39.7506 47.8552 37.9912C47.5967 36.281 46.2974 34.8586 44.6174 34.4772C44.262 34.3977 43.8905 34.4024 43.5328 34.3345C43.0481 34.2433 42.7574 33.9228 42.7666 33.4268C42.7781 32.9027 43.0805 32.5705 43.6112 32.5331C43.9089 32.512 44.2343 32.5003 44.5089 32.5939C45.5705 32.9612 46.6159 33.3753 47.7259 33.7917C48.7367 32.5377 48.6352 30.252 47.4559 28.9816C46.9828 29.4145 46.5305 29.88 46.0228 30.2754C45.6282 30.5819 45.1897 30.493 44.8666 30.1163C44.5413 29.7373 44.5528 29.3162 44.8736 28.9278C44.9982 28.7781 45.1574 28.6611 45.2959 28.5231C46.7821 27.0398 46.7128 24.6184 45.1413 23.224C43.7451 21.9841 41.9196 22.0332 40.325 23.355C39.8334 23.7621 39.2981 23.7598 38.9519 23.348C38.6057 22.9363 38.6542 22.459 39.1019 22.0145C39.2704 21.846 39.4411 21.6589 39.6465 21.5559C40.4958 21.1348 41.3681 20.7441 42.2543 20.3347ZM57.9469 24.0148C57.9423 25.5027 59.1423 26.7333 60.5962 26.731C62.0501 26.7287 63.2593 25.491 63.2501 24.0125C63.2409 22.5432 62.0801 21.3664 60.6262 21.3524C59.1354 21.3384 57.9539 22.5128 57.9469 24.0148ZM60.5824 45.2649C62.0662 45.2719 63.2524 44.0787 63.2524 42.5837C63.2501 41.1052 62.0293 39.8746 60.5777 39.8886C59.1423 39.9026 57.9608 41.1005 57.9492 42.558C57.9354 44.0647 59.0962 45.2579 60.5824 45.2649ZM57.9469 61.1667C57.9562 62.6547 59.1631 63.8572 60.6331 63.8362C62.0662 63.8175 63.2478 62.6079 63.2524 61.1551C63.257 59.6671 62.0616 58.4576 60.5916 58.4599C59.1123 58.4646 57.94 59.6648 57.9469 61.1667ZM57.9492 5.4201C57.9285 6.92676 59.0893 8.14099 60.5616 8.15737C62.0362 8.17374 63.2432 6.9759 63.2524 5.49029C63.2617 4.03275 62.0962 2.81385 60.6631 2.78109C59.1908 2.74834 57.9677 3.93449 57.9492 5.4201Z" stroke="white" stroke-width="0.4" mask="url(#path-2-outside-2_1731_745)"/>
</svg>
