<svg width="70" height="71" viewBox="0 0 70 71" fill="none" xmlns="http://www.w3.org/2000/svg">
<path d="M0.585938 0.711914C23.5162 0.711914 46.4486 0.711914 69.4132 0.711914C69.4132 21.6987 69.4132 42.6875 69.4132 63.6742C62.0443 63.6763 54.6775 63.6844 47.3086 63.666C46.707 63.664 46.2649 63.8298 45.8167 64.2371C42.7783 66.998 39.3038 69.014 35.4397 70.3362C35.1893 70.4221 34.8623 70.4201 34.614 70.3341C30.7054 68.9956 27.2007 66.9469 24.134 64.1449C23.7545 63.7991 23.381 63.6681 22.8803 63.6701C15.7577 63.6844 8.63718 63.6804 1.51462 63.6804C1.25015 63.6804 0.985673 63.6804 0.636409 63.6804C0.636409 63.314 0.636409 63.0009 0.636409 62.6898C0.636409 42.3477 0.636409 22.0036 0.63439 1.66158C0.63439 1.34229 0.602088 1.0271 0.585938 0.711914ZM2.91571 11.9851C2.91571 28.4875 2.91571 44.9368 2.91571 61.4003C9.0672 61.4003 15.1682 61.4003 21.3561 61.4003C21.2168 61.1916 21.1279 61.0442 21.027 60.905C20.2013 59.7487 19.3008 58.6373 18.5559 57.4277C15.8122 52.9741 14.2072 48.1194 14.0518 42.8614C13.9105 38.0292 13.9751 33.1888 13.9529 28.3525C13.9529 28.1539 13.9751 27.9533 13.9912 27.6975C14.2718 27.6975 14.5161 27.7139 14.7564 27.6955C16.6077 27.5542 18.4812 27.5358 20.3062 27.2329C25.5169 26.3692 30.2472 24.2898 34.4747 21.0744C34.8784 20.7674 35.1348 20.7347 35.5588 21.056C40.8321 25.0348 46.7474 27.2616 53.3228 27.6238C54.2313 27.673 55.1438 27.63 56.1028 27.63C56.1028 27.9349 56.1028 28.0884 56.1028 28.244C56.1028 32.5584 56.1492 36.8749 56.0806 41.1893C56.0523 42.9986 55.9029 44.8242 55.5981 46.6048C54.7138 51.7768 52.6142 56.4167 49.3497 60.5018C49.1357 60.77 48.9257 61.0463 48.6512 61.4003C54.9036 61.4003 61.0066 61.4003 67.1359 61.4003C67.1359 44.9102 67.1359 28.463 67.1359 11.9871C45.7117 11.9851 24.346 11.9851 2.91571 11.9851ZM2.90158 9.65185C24.3541 9.65185 45.7541 9.65185 67.1379 9.65185C67.1379 7.40663 67.1379 5.21463 67.1379 2.99807C45.7016 2.99807 24.3198 2.99807 2.90158 2.99807C2.90158 5.22896 2.90158 7.42301 2.90158 9.65185ZM16.2039 30C16.1938 30.1228 16.1797 30.2354 16.1797 30.348C16.1797 34.0729 16.1676 37.7979 16.1878 41.5229C16.2039 44.4722 16.646 47.3641 17.601 50.1497C20.5243 58.6721 26.1428 64.5911 34.4424 67.8658C34.7916 68.003 35.2862 67.9927 35.6395 67.8576C41.6497 65.5613 46.3678 61.6398 49.7353 56.0994C52.2609 51.9467 53.6862 47.4112 53.8114 42.5217C53.9143 38.5265 53.8679 34.5294 53.882 30.5322C53.882 30.3398 53.8437 30.1454 53.8275 30C52.1579 29.7933 50.5489 29.6685 48.9681 29.3819C44.2177 28.5182 39.8105 26.7499 35.8233 23.9787C35.2398 23.5734 34.8562 23.5468 34.2586 23.9623C30.2714 26.7356 25.8682 28.5121 21.1178 29.3758C19.5169 29.6644 17.8856 29.7913 16.2039 30Z" fill="white"/>
<path d="M36.1047 14.2529C36.1047 14.9877 36.1047 15.6631 36.1047 16.3958C25.7701 16.3958 15.4679 16.3958 5.11914 16.3958C5.11914 15.6836 5.11914 14.9938 5.11914 14.2529C15.4356 14.2529 25.7419 14.2529 36.1047 14.2529Z" fill="white"/>
<path d="M5.11523 20.9185C5.11523 20.1448 5.11523 19.451 5.11523 18.7285C12.4922 18.7285 19.8287 18.7285 27.2138 18.7285C27.2138 19.4612 27.2138 20.1714 27.2138 20.9185C19.8429 20.9185 12.5083 20.9185 5.11523 20.9185Z" fill="white"/>
<path d="M5.11523 25.4184C5.11523 24.6468 5.11523 23.9529 5.11523 23.2305C9.53454 23.2305 13.9114 23.2305 18.3388 23.2305C18.3388 23.9632 18.3388 24.6713 18.3388 25.4184C13.9276 25.4184 9.55069 25.4184 5.11523 25.4184Z" fill="white"/>
<path d="M5.13086 5.24316C5.83544 5.24316 6.51984 5.24316 7.25471 5.24316C7.25471 5.95541 7.25471 6.66766 7.25471 7.41879C6.5582 7.41879 5.8738 7.41879 5.13086 7.41879C5.13086 6.69631 5.13086 5.98611 5.13086 5.24316Z" fill="white"/>
<path d="M9.5625 5.24121C10.3095 5.24121 10.9919 5.24121 11.7065 5.24121C11.7065 5.96369 11.7065 6.65547 11.7065 7.40251C11.01 7.40251 10.3135 7.40251 9.5625 7.40251C9.5625 6.69436 9.5625 5.9903 9.5625 5.24121Z" fill="white"/>
<path d="M13.9785 7.40479C13.9785 6.65775 13.9785 5.98234 13.9785 5.25781C14.7033 5.25781 15.4038 5.25781 16.1387 5.25781C16.1387 5.96187 16.1387 6.6557 16.1387 7.40479C15.4402 7.40479 14.7416 7.40479 13.9785 7.40479Z" fill="white"/>
<path d="M18.4476 32.1588C20.4544 31.7494 22.4429 31.426 24.3912 30.9328C27.9948 30.02 31.3623 28.5034 34.5138 26.5099C34.8792 26.2786 35.1356 26.25 35.5232 26.4935C40.2473 29.4714 45.3753 31.2991 50.9049 31.952C51.0826 31.9725 51.2582 32.0073 51.4359 32.04C51.4985 32.0523 51.557 32.0789 51.6661 32.1137C51.6661 32.4003 51.6701 32.6929 51.6661 32.9836C51.6216 36.5694 51.8296 40.1797 51.4844 43.7348C50.6041 52.7525 46.1505 59.5455 38.4082 64.0932C37.5017 64.6254 36.5367 65.0613 35.5696 65.4727C35.2668 65.6017 34.8206 65.616 34.5198 65.4911C28.5359 62.9778 24.0318 58.8189 21.1105 52.9429C19.4893 49.6805 18.5445 46.2134 18.4638 42.5559C18.3891 39.0909 18.4476 35.6177 18.4476 32.1588ZM20.6219 34.185C20.6219 36.6717 20.5533 39.2382 20.6462 41.8007C20.7047 43.4033 20.8501 45.0345 21.2215 46.5859C23.0506 54.2343 27.5224 59.7379 34.5642 63.0658C34.8206 63.1866 35.2244 63.1825 35.4848 63.0658C39.0098 61.4837 41.9856 59.1607 44.3679 56.0886C47.1155 52.5479 48.8699 48.5405 49.2252 44.0418C49.4756 40.8817 49.3746 37.691 49.4453 34.5145C49.4554 34.0929 49.2676 33.9987 48.8982 33.9373C44.1498 33.1473 39.674 31.5632 35.5111 29.1051C35.1558 28.8943 34.8832 28.9025 34.5319 29.1112C32.2304 30.4866 29.8138 31.6246 27.2579 32.4084C25.1038 33.0695 22.9053 33.5812 20.6219 34.185Z" fill="white"/>
<path d="M27.2607 50.1314C27.2607 48.7704 27.2708 47.4073 27.2587 46.0462C27.2466 44.5317 27.8078 43.3712 29.1746 42.6487C29.3341 42.5648 29.4653 42.2721 29.4714 42.0716C29.5017 41.1198 29.4795 40.1661 29.4855 39.2123C29.5097 35.8987 31.6215 33.5164 34.8638 33.3527C37.7326 33.2073 40.1633 35.3564 40.4843 38.2013C40.6236 39.4354 40.559 40.6941 40.5631 41.9406C40.5651 42.3131 40.6378 42.5402 41.0052 42.7388C42.1923 43.3794 42.7858 44.4232 42.7899 45.7883C42.7979 48.6926 42.804 51.5968 42.7878 54.5031C42.7757 56.5764 41.4473 58.0173 39.4163 58.0521C36.4849 58.1033 33.5515 58.1053 30.6201 58.0501C28.571 58.0112 27.3112 56.5846 27.2587 54.4192C27.2567 54.3742 27.2587 54.3292 27.2587 54.2821C27.2607 52.8985 27.2607 51.515 27.2607 50.1314ZM35.0253 55.7967C36.4123 55.7967 37.7992 55.8028 39.1862 55.7946C40.1653 55.7885 40.557 55.4282 40.5631 54.4622C40.5792 51.605 40.5792 48.7479 40.5631 45.8907C40.557 44.9635 40.1532 44.5849 39.2266 44.5808C36.4304 44.5726 33.6343 44.5726 30.8382 44.5808C29.8913 44.5828 29.4936 44.9901 29.4896 45.9521C29.4815 48.7867 29.4815 51.6214 29.4896 54.4561C29.4916 55.3812 29.8893 55.7864 30.7978 55.7946C32.2049 55.8048 33.6141 55.7967 35.0253 55.7967ZM38.3564 42.2803C38.3564 41.2549 38.3584 40.2848 38.3544 39.3147C38.3524 39.0425 38.3524 38.7682 38.314 38.5001C38.096 36.9651 36.8887 35.7555 35.4371 35.6061C33.8725 35.4464 32.3907 36.3101 31.9324 37.7633C31.466 39.2348 31.7709 40.7555 31.6921 42.2803C33.9573 42.2803 36.1034 42.2803 38.3564 42.2803Z" fill="white"/>
<path d="M36.1342 54.6504C35.365 54.6504 34.6806 54.6504 33.9215 54.6504C33.9215 54.0241 33.8932 53.4183 33.9316 52.8145C33.9578 52.3949 33.8125 52.1861 33.443 51.9835C32.0561 51.2283 31.4221 49.6769 31.832 48.1746C32.2357 46.6887 33.6247 45.6449 35.1268 45.694C36.651 45.7432 37.933 46.8341 38.2722 48.367C38.5831 49.7792 37.9734 51.2324 36.6833 51.9405C36.2331 52.1882 36.0918 52.4624 36.1261 52.9475C36.1645 53.4878 36.1342 54.0323 36.1342 54.6504ZM36.1079 49.0834C36.118 48.4775 35.6719 47.9925 35.0803 47.9679C34.4626 47.9413 33.9437 48.4305 33.9316 49.0445C33.9195 49.6401 34.4545 50.1824 35.044 50.1742C35.6295 50.1661 36.0978 49.6871 36.1079 49.0834Z" fill="white"/>
</svg>
