<svg width="63" height="64" viewBox="0 0 63 64" fill="none" xmlns="http://www.w3.org/2000/svg">
<path d="M62.826 21.2662C62.5939 22.5042 62.4362 23.7628 62.1163 24.9757C60.147 32.4587 53.5521 37.9796 45.9365 38.5529C40.1617 38.9869 35.1439 37.2852 31.0094 33.0983C29.7905 31.8648 28.4161 30.8346 26.8636 30.074C22.1546 27.7692 17.414 27.7281 12.6553 29.9164C12.5089 29.9826 12.3669 30.0626 12.2182 30.122C11.5558 30.3915 10.9137 30.1745 10.614 29.5852C10.3031 28.9707 10.5216 28.2695 11.1773 27.9269C12.8131 27.068 14.539 26.4558 16.3595 26.1703C22.7607 25.1721 28.2561 26.9949 32.9359 31.5496C37.5954 36.086 43.1741 37.2966 49.2373 35.3733C55.2397 33.4706 58.9191 29.1398 60.12 22.8742C61.8437 13.8905 56.2423 5.5395 47.4078 3.69388C40.3464 2.21829 33.1161 5.74508 29.8355 12.2596C29.7544 12.4195 29.6891 12.5862 29.5877 12.8078C29.8175 12.7918 29.9887 12.769 30.1577 12.769C30.7255 12.7667 31.1716 13.1025 31.3203 13.6507C31.4736 14.2103 31.3226 14.7265 30.8337 14.9755C29.813 15.4963 28.7608 15.9623 27.6928 16.378C27.1137 16.6041 26.5685 16.2843 26.2778 15.6493C25.8813 14.7813 25.5027 13.9019 25.1332 13.0225C24.8471 12.3395 25.0048 11.7411 25.5253 11.3962C26.0345 11.0581 26.6338 11.1655 27.1475 11.6863C27.1881 11.7274 27.2309 11.7639 27.3075 11.8347C27.4021 11.6611 27.49 11.5081 27.5711 11.3528C30.7503 5.29281 35.6464 1.77058 42.4261 1.03508C42.5838 1.01909 42.737 0.968833 42.8947 0.93457C43.8208 0.93457 44.7468 0.93457 45.6729 0.93457C46.1663 1.01452 46.6575 1.10132 47.1509 1.16985C54.21 2.16119 60.2777 7.57243 62.105 14.5575C62.4272 15.7909 62.5894 17.0678 62.8283 18.3241C62.826 19.3086 62.826 20.2885 62.826 21.2662Z" fill="white"/>
<path d="M34.5054 19.8028C34.8727 18.8663 34.3207 18.414 33.647 17.9343C32.0788 16.8196 32.0675 16.6438 33.0206 14.9694C33.6245 13.9096 34.2238 12.8497 34.8321 11.7921C35.3413 10.9059 35.8483 10.746 36.7946 11.1617C38.5273 11.9201 38.5318 11.9269 40.1338 10.9013C40.2735 10.8122 40.3794 10.5929 40.4087 10.4193C40.4965 9.89626 40.5393 9.36861 40.5957 8.84096C40.6903 7.95926 41.1094 7.55268 41.9633 7.54811C43.4729 7.54126 44.9825 7.54126 46.4921 7.54811C47.3348 7.55039 47.7539 7.93186 47.862 8.76559C47.8733 8.84553 47.8981 8.93005 47.8868 9.00771C47.6998 10.4993 48.5921 11.2325 49.775 11.7465C49.9327 11.815 50.1625 11.8058 50.327 11.7442C50.852 11.5432 51.3589 11.2896 51.8816 11.0772C52.5981 10.7848 53.1457 10.9538 53.5332 11.6208C54.3195 12.9731 55.0946 14.3322 55.8539 15.7004C56.246 16.4062 56.113 16.9635 55.4799 17.4661C55.4168 17.5163 55.3492 17.562 55.2839 17.61C53.7856 18.7406 53.7788 18.7406 53.8869 20.6411C53.896 20.8101 54.0266 21.0111 54.1618 21.123C54.5989 21.484 55.0698 21.7992 55.5137 22.1487C56.1153 22.6238 56.2415 23.1948 55.863 23.8732C55.1014 25.2392 54.3263 26.5983 53.54 27.9505C53.1457 28.6266 52.6139 28.7934 51.8952 28.5147C51.8208 28.485 51.7465 28.453 51.6721 28.421C49.9485 27.6673 49.9462 27.6627 48.3307 28.6837C48.2068 28.7637 48.1009 28.951 48.0761 29.104C47.9837 29.6865 47.9319 30.2781 47.8553 30.8628C47.7561 31.6212 47.3258 32.0324 46.5665 32.0392C45.0163 32.0529 43.4662 32.0529 41.916 32.0392C41.1364 32.0324 40.6925 31.6029 40.6002 30.8172C40.5957 30.776 40.5957 30.7349 40.5912 30.6961C40.3974 28.7477 40.3996 28.7431 38.685 27.8363C38.5408 27.7586 38.2997 27.7769 38.1375 27.8409C37.6125 28.0419 37.1056 28.2977 36.5851 28.5101C35.8731 28.8002 35.3188 28.6266 34.9335 27.9619C34.1472 26.6097 33.3744 25.2506 32.6128 23.8824C32.214 23.1651 32.3447 22.6283 32.9913 22.1212C33.1986 21.9591 33.4014 21.7855 33.6244 21.653C34.3319 21.2373 34.8817 20.7484 34.5054 19.8028ZM51.9447 13.7291C51.3927 13.9713 50.8948 14.186 50.4036 14.4052C49.8741 14.6428 49.419 14.5377 48.9345 14.2179C48.1842 13.72 47.3979 13.27 46.6003 12.8497C46.1316 12.603 45.8297 12.2901 45.7711 11.7465C45.7103 11.1686 45.6269 10.5929 45.5548 10.0379C44.6243 10.0379 43.7681 10.0379 42.8984 10.0379C42.8375 10.5838 42.7722 11.0886 42.7294 11.5957C42.6731 12.2558 42.3238 12.635 41.7358 12.9182C40.981 13.2814 40.2509 13.7223 39.5592 14.1974C39.0568 14.5423 38.5881 14.6428 38.0383 14.3938C37.5494 14.17 37.056 13.9575 36.5288 13.7223C36.0691 14.5286 35.641 15.2801 35.1971 16.0567C35.641 16.3902 36.0308 16.71 36.4476 16.9909C36.9929 17.3633 37.1574 17.8521 37.1123 18.5122C37.0537 19.3597 37.0537 20.2162 37.1123 21.0637C37.1574 21.7215 36.9997 22.2149 36.4544 22.5895C36.0285 22.8796 35.6252 23.204 35.1949 23.526C35.6635 24.3438 36.0916 25.093 36.531 25.8605C37.0943 25.6138 37.59 25.3968 38.0857 25.1775C38.5926 24.9514 39.0365 25.0404 39.5029 25.3465C40.2577 25.8399 41.035 26.3082 41.8349 26.7193C42.3306 26.9751 42.6438 27.2995 42.7069 27.8614C42.7699 28.4233 42.8398 28.9852 42.9096 29.5677C43.8064 29.5677 44.6648 29.5677 45.5593 29.5677C45.6269 29.0286 45.7148 28.5056 45.7486 27.9825C45.7937 27.3064 46.1632 26.95 46.7445 26.6668C47.4813 26.3104 48.2023 25.8947 48.8692 25.4173C49.4099 25.0313 49.9102 24.9445 50.4982 25.2186C50.9646 25.4379 51.4423 25.6343 51.947 25.8559C52.4044 25.0496 52.8325 24.2981 53.2741 23.5214C52.8212 23.1834 52.4089 22.8567 51.9785 22.5575C51.4535 22.192 51.3139 21.7078 51.3522 21.0774C51.404 20.2094 51.3972 19.3345 51.3499 18.4643C51.3161 17.8567 51.4626 17.3907 51.965 17.0389C52.4066 16.7283 52.8302 16.3971 53.2786 16.0613C52.8257 15.2755 52.4044 14.5377 51.9447 13.7291Z" fill="white"/>
<path d="M27.8871 53.7647C27.1436 53.4381 26.5127 53.1845 25.9044 52.8807C25.5168 52.6866 25.1992 52.6751 24.8657 52.9767C24.7035 53.1228 24.5052 53.2667 24.3001 53.3238C23.4778 53.5454 23.3674 54.1713 23.3178 54.8976C23.1826 56.8529 22.9798 57.0265 21.0534 57.0265C19.8254 57.0265 18.5974 57.0334 17.3695 57.0242C16.4772 57.0174 16.0424 56.6039 15.9523 55.7063C15.95 55.6857 15.95 55.6651 15.9478 55.6446C15.7607 53.6573 15.763 53.6505 14.0213 52.7939C13.8749 52.7231 13.6383 52.7619 13.4716 52.8259C12.9466 53.0292 12.4419 53.285 11.9169 53.4952C11.2319 53.7715 10.6799 53.6002 10.3104 52.9652C9.51278 51.597 8.72869 50.2196 7.96037 48.8331C7.58184 48.1502 7.71703 47.6019 8.32763 47.1154C8.35917 47.0903 8.38846 47.0606 8.42451 47.0446C9.78541 46.4484 10.1617 45.3474 9.94089 43.9587C9.9116 43.7668 9.79442 43.5498 9.65022 43.4265C9.21762 43.0633 8.74221 42.7503 8.29834 42.3986C7.71027 41.9303 7.58409 41.3844 7.9491 40.7265C8.72644 39.3218 9.5218 37.9261 10.3307 36.5419C10.6686 35.964 11.2207 35.7927 11.8448 36.0051C11.9394 36.0371 12.0431 36.0668 12.1219 36.1262C13.3026 37.0239 14.4089 36.752 15.4633 35.8978C15.6143 35.7767 15.7427 35.562 15.7765 35.3724C15.8666 34.8722 15.9004 34.3605 15.9523 33.8534C16.0446 32.9352 16.4615 32.5309 17.3515 32.5286C18.8611 32.5217 20.3707 32.5217 21.8803 32.5286C22.6959 32.5331 23.106 32.9055 23.2186 33.7095C23.2299 33.7894 23.2569 33.874 23.2479 33.9516C23.0744 35.4226 23.9013 36.2061 25.1113 36.7064C25.287 36.7794 25.5349 36.7772 25.7129 36.7109C26.2221 36.5236 26.7088 36.2769 27.2112 36.0668C27.9615 35.7561 28.5023 35.9229 28.9078 36.6218C29.6829 37.9558 30.449 39.2989 31.2015 40.6466C31.6116 41.3798 31.4787 41.9417 30.8185 42.4602C30.7712 42.4968 30.7216 42.531 30.672 42.5676C29.1759 43.6983 29.1692 43.6983 29.2503 45.585C29.2593 45.77 29.4013 45.9939 29.55 46.1172C29.9826 46.4804 30.4602 46.7911 30.8996 47.1451C31.4741 47.6042 31.6003 48.1776 31.2398 48.8263C30.4692 50.2128 29.6987 51.597 28.8718 52.947C28.6645 53.285 28.2364 53.4837 27.8871 53.7647ZM27.3081 38.705C26.7628 38.9449 26.2649 39.155 25.7737 39.3766C25.2442 39.6141 24.7891 39.5205 24.3047 39.1938C23.5724 38.7027 22.8086 38.2505 22.0222 37.8485C21.5085 37.5858 21.1795 37.2614 21.1232 36.663C21.0714 36.1033 20.9835 35.5483 20.9159 35.0138C19.9809 35.0138 19.1247 35.0138 18.2572 35.0138C18.1986 35.562 18.1401 36.0668 18.0905 36.5739C18.0297 37.1998 17.7165 37.5858 17.1397 37.8644C16.3668 38.239 15.6211 38.689 14.9091 39.1756C14.4066 39.5182 13.9357 39.6164 13.3859 39.3606C12.8993 39.1345 12.4058 38.9243 11.8876 38.6936C11.4234 39.5091 10.9954 40.2606 10.5582 41.0281C11.0337 41.389 11.4437 41.7156 11.8718 42.0171C12.3517 42.3552 12.5027 42.8006 12.4734 43.3876C12.4284 44.299 12.4216 45.215 12.4734 46.1264C12.5072 46.7431 12.3315 47.1931 11.8358 47.5426C11.4099 47.8441 10.9999 48.1707 10.5582 48.5065C11.0066 49.2945 11.437 50.0483 11.8853 50.8364C12.39 50.6125 12.8519 50.4206 13.3026 50.2059C13.9132 49.9136 14.4291 50.0095 14.9857 50.4115C15.6346 50.8798 16.3353 51.2978 17.0608 51.629C17.7097 51.9236 18.0499 52.3485 18.104 53.052C18.1423 53.5523 18.2099 54.0479 18.264 54.5322C19.1923 54.5322 20.0462 54.5322 20.9249 54.5322C20.9903 53.9908 21.0782 53.486 21.1075 52.9789C21.1458 52.3028 21.5017 51.9351 22.0853 51.6495C22.8401 51.2795 23.5701 50.8455 24.2641 50.3681C24.7643 50.0232 25.2352 49.9181 25.785 50.1671C26.2761 50.3887 26.7719 50.5988 27.3036 50.8318C27.7565 50.0346 28.1868 49.2831 28.6329 48.4996C28.1913 48.1684 27.7812 47.8418 27.3509 47.5426C26.8304 47.1794 26.6682 46.7043 26.7065 46.0693C26.7606 45.2013 26.7561 44.3241 26.7065 43.4539C26.6727 42.8463 26.8101 42.3757 27.3103 42.0217C27.752 41.7087 28.1801 41.3752 28.6352 41.0349C28.1868 40.2446 27.7587 39.4931 27.3081 38.705Z" fill="white"/>
<path d="M34.2097 51.7882C33.9912 51.7882 33.8177 51.7882 33.6442 51.7882C33.0629 51.7859 32.6889 51.4684 32.5266 50.9339C32.3644 50.3994 32.4681 49.8558 32.9795 49.5977C34.0205 49.0723 35.0862 48.5881 36.1745 48.1701C36.7242 47.9599 37.2244 48.2477 37.479 48.78C37.9342 49.7325 38.36 50.7032 38.7566 51.6809C38.9931 52.2656 38.7678 52.8755 38.2789 53.1816C37.8035 53.4785 37.2312 53.4077 36.7873 52.9829C36.7062 52.9052 36.6589 52.7887 36.6634 52.7978C35.6675 54.2597 34.8158 55.781 33.714 57.083C30.447 60.9455 26.2404 63.0904 21.2497 63.5198C11.3922 64.3673 3.06456 57.9053 1.27331 48.0285C0.534281 43.9535 1.09081 40.0269 2.93839 36.3128C3.24932 35.687 3.736 35.4289 4.30153 35.5476C4.86031 35.6641 5.21631 36.0227 5.25462 36.5847C5.27715 36.9067 5.15773 37.2676 5.01803 37.5691C1.66761 44.7278 3.59179 53.0194 9.76089 57.8528C16.8763 63.4285 28.8878 62.2818 34.0295 52.2496C34.0971 52.1149 34.1421 51.9618 34.2097 51.7882Z" fill="white"/>
<path d="M48.4556 19.8595C48.451 22.1643 46.5426 24.0761 44.2444 24.0807C41.9282 24.0853 39.986 22.1346 40.004 19.8184C40.0221 17.3743 41.8606 15.515 44.2535 15.5264C46.6508 15.5378 48.4601 17.404 48.4556 19.8595ZM46.0379 19.759C46.0267 18.7631 45.1998 17.9522 44.2106 17.9614C43.2305 17.9728 42.4081 18.8157 42.4194 19.8001C42.4307 20.8166 43.2215 21.6161 44.2219 21.6206C45.2516 21.6275 46.0515 20.8075 46.0379 19.759Z" fill="white"/>
<path d="M19.597 40.4912C21.9042 40.4889 23.8059 42.3825 23.8172 44.6941C23.8284 47.177 21.9876 49.0615 19.5677 49.0386C17.1749 49.0158 15.3476 47.1291 15.3634 44.6964C15.3814 42.3939 17.2943 40.4912 19.597 40.4912ZM21.3995 44.7741C21.3973 43.7439 20.629 42.9581 19.6151 42.9467C18.5854 42.9376 17.772 43.7576 17.781 44.7969C17.79 45.7745 18.6394 46.6174 19.6083 46.6106C20.5907 46.6037 21.404 45.77 21.3995 44.7741Z" fill="white"/>
</svg>
