<svg width="68" height="61" viewBox="0 0 68 61" fill="none" xmlns="http://www.w3.org/2000/svg">
<g clip-path="url(#clip0_1731_707)">
<path d="M67.0005 47.7153C66.6491 48.3526 66.3824 49.0696 65.9204 49.6139C65.1721 50.5035 64.1049 50.6894 62.9857 50.6894C56.3031 50.6761 49.627 50.6828 42.9443 50.6828C42.671 50.6828 42.3912 50.6828 42.0659 50.6828C42.0659 53.2519 42.0659 55.7547 42.0659 58.3769C42.7491 58.3769 43.4454 58.3769 44.1416 58.3769C44.4604 58.3769 44.7923 58.3437 45.1046 58.4101C45.6317 58.523 45.9245 58.8815 45.879 59.4458C45.8399 59.9768 45.5211 60.2689 45.0135 60.3353C44.8444 60.3552 44.6687 60.3486 44.4995 60.3486C37.4134 60.3486 30.3208 60.3486 23.2348 60.3486C23.1502 60.3486 23.0656 60.3486 22.9745 60.3486C22.2652 60.3287 21.8618 59.9636 21.8683 59.3528C21.8748 58.7553 22.2913 58.3836 23.0005 58.3769C23.879 58.3637 24.7574 58.3769 25.6944 58.3769C25.6944 55.8211 25.6944 53.2984 25.6944 50.6828C25.4146 50.6828 25.1413 50.6828 24.868 50.6828C18.2765 50.6828 11.6784 50.6894 5.08689 50.6695C4.45571 50.6695 3.77899 50.6031 3.19987 50.3707C1.76834 49.7799 1.03306 48.6181 1.01353 47.0381C0.987507 44.8474 1.00703 42.6566 1.00703 40.4659C1.00703 30.0764 1.00703 19.6936 1.00703 9.30413C1.00703 6.69515 2.43205 5.24792 5.0023 5.24792C8.52255 5.24792 12.0493 5.24792 15.5696 5.24792C15.7388 5.24792 15.9145 5.24129 16.0836 5.25456C16.6758 5.30767 17.0467 5.72591 17.0206 6.29019C16.9946 6.82792 16.6237 7.19968 16.0446 7.21296C15.0165 7.23288 13.9819 7.2196 12.9538 7.2196C10.2469 7.2196 7.54001 7.2196 4.83311 7.2196C3.55775 7.2196 2.93959 7.85691 2.93959 9.15808C2.93959 19.1957 2.93959 29.2333 2.93959 39.2709C2.93959 39.4635 2.95911 39.656 2.97213 39.9149C3.27795 39.9149 3.55125 39.9149 3.82454 39.9149C19.8251 39.9149 35.8322 39.9149 51.8328 39.9149C52.1126 39.9149 52.3924 39.9016 52.6722 39.9414C53.1928 40.0078 53.4791 40.3331 53.4921 40.8708C53.5116 41.4086 53.2318 41.7472 52.7243 41.8467C52.451 41.8998 52.1712 41.8866 51.8914 41.8866C35.9103 41.8866 19.9292 41.8866 3.94817 41.8866C3.64885 41.8866 3.34953 41.8866 2.9461 41.8866C2.9461 42.2982 2.9461 42.6832 2.9461 43.0682C2.9461 44.3163 2.93959 45.5644 2.9461 46.8124C2.95261 48.0472 3.54474 48.6646 4.75503 48.7111C4.92421 48.7177 5.0999 48.7111 5.26908 48.7111C24.432 48.7111 43.5885 48.7111 62.7515 48.7111C63.0703 48.7111 63.3957 48.7111 63.7145 48.658C64.4108 48.5518 65.0029 48.0339 65.0289 47.3236C65.081 45.5378 65.0484 43.7454 65.0484 41.8866C64.4108 41.8866 63.8121 41.8866 63.2135 41.8866C61.3265 41.8866 59.4329 41.8932 57.5459 41.8799C56.8952 41.8733 56.4723 41.4683 56.4593 40.9107C56.4462 40.353 56.8692 39.9547 57.5199 39.9215C57.6891 39.9149 57.8648 39.9149 58.0339 39.9149C60.1162 39.9149 62.1984 39.9149 64.2871 39.9149C64.5214 39.9149 64.7556 39.9149 65.0419 39.9149C65.0549 39.6294 65.0745 39.4037 65.0745 39.1714C65.0745 29.2001 65.0745 19.2289 65.0745 9.25766C65.0745 7.83035 64.4823 7.22624 63.0768 7.2196C58.2226 7.2196 53.3685 7.2196 48.5143 7.2196C48.3256 7.2196 48.1369 7.2196 47.8115 7.2196C48.0067 7.49178 48.1369 7.67767 48.267 7.86355C56.1014 18.9302 49.4318 34.6504 36.1706 36.3831C26.6574 37.6246 17.8405 30.8863 16.3699 21.2537C14.8538 11.3156 21.6276 1.95516 31.3685 0.54113C34.0233 0.156089 36.6391 0.368525 39.1963 1.19172C39.4566 1.27802 39.8145 1.3776 39.9056 1.57676C40.0552 1.90869 40.1463 2.37339 40.0422 2.70533C39.8991 3.16339 39.4436 3.28289 38.9686 3.17003C37.9014 2.9244 36.8473 2.59911 35.7672 2.46633C26.9828 1.42407 19.246 7.69758 18.1789 16.6996C17.1898 24.9979 23.0981 32.9908 31.2058 34.3185C40.2309 35.7923 48.5013 29.5852 49.5424 20.3508C50.2256 14.3163 48.0523 9.36388 43.3803 5.57986C43.2306 5.46036 43.068 5.3475 42.9183 5.22801C42.4173 4.80313 42.3131 4.23885 42.645 3.78742C42.9834 3.32936 43.5299 3.26297 44.07 3.65465C44.5906 4.03969 45.0656 4.49112 45.5992 4.85624C45.879 5.04876 46.2368 5.22801 46.5622 5.22801C51.8653 5.24792 57.175 5.30103 62.4782 5.21473C64.6971 5.18154 66.2587 5.91179 67.0005 8.12909C67.0005 21.3267 67.0005 34.5243 67.0005 47.7153ZM27.7181 58.3371C31.8565 58.3371 35.9494 58.3371 40.0292 58.3371C40.0292 55.7679 40.0292 53.2453 40.0292 50.7226C35.8973 50.7226 31.8239 50.7226 27.7181 50.7226C27.7181 53.2652 27.7181 55.7746 27.7181 58.3371Z" fill="white"/>
<path d="M36.0924 27.2287C34.8561 27.2287 33.6263 27.2287 32.3834 27.2287C32.8584 28.5299 32.7283 29.3265 31.9605 29.9041C31.3293 30.382 30.4313 30.3688 29.8002 29.8642C29.0519 29.2734 28.9348 28.4635 29.4293 27.2619C28.0823 27.0428 28.0628 27.0096 27.809 25.6354C26.9436 20.9021 26.0522 16.1754 25.2063 11.442C25.0891 10.7981 24.8354 10.506 24.1912 10.6188C24.048 10.6454 23.8919 10.6321 23.7422 10.6188C23.1045 10.5724 22.7076 10.1608 22.7336 9.58319C22.7597 9.02555 23.1436 8.6737 23.7747 8.65378C24.1196 8.64051 24.4645 8.64051 24.8028 8.66042C25.8309 8.70689 26.6313 9.3442 26.9241 10.3599C27.0412 10.7582 27.1063 11.1698 27.2169 11.6611C27.4577 11.6611 27.7049 11.6611 27.9522 11.6611C32.3769 11.6611 36.7951 11.6611 41.2199 11.6611C42.5473 11.6611 42.9442 12.1723 42.6904 13.5133C42.1569 16.328 41.6428 19.1428 41.1158 21.9576C40.9466 22.8737 40.6798 23.0928 39.7688 23.0995C36.5479 23.0995 33.3269 23.0995 30.106 23.0995C29.8718 23.0995 29.6375 23.0995 29.3187 23.0995C29.4553 23.843 29.5789 24.5201 29.7156 25.2238C31.056 25.2238 32.3444 25.2238 33.6263 25.2238C35.5588 25.2238 37.4914 25.2238 39.424 25.2238C40.2894 25.2238 40.7319 25.5624 40.7253 26.213C40.7188 26.8437 40.2959 27.1756 39.4695 27.1955C39.3654 27.1955 39.2548 27.1955 39.1507 27.2021C39.1116 27.2021 39.0791 27.2353 39.04 27.2552C39.5216 28.4701 39.4109 29.2734 38.6691 29.8576C38.0445 30.3555 37.1595 30.3688 36.5088 29.8974C35.741 29.3398 35.6174 28.5498 36.0924 27.2287ZM30.9324 16.3745C30.8608 15.4252 30.7957 14.5489 30.7307 13.6925C29.6375 13.6925 28.6224 13.6925 27.5748 13.6925C27.7505 14.6219 27.9132 15.4916 28.0823 16.3745C29.0324 16.3745 29.9303 16.3745 30.9324 16.3745ZM37.6215 13.6726C37.563 14.5821 37.5044 15.4584 37.4393 16.3944C38.3178 16.3944 39.0856 16.4144 39.8534 16.3745C39.9966 16.3679 40.2243 16.1621 40.2568 16.016C40.426 15.2526 40.5497 14.4825 40.6993 13.6726C39.6712 13.6726 38.6952 13.6726 37.6215 13.6726ZM35.6694 13.6726C34.6479 13.6726 33.6978 13.6726 32.6828 13.6726C32.7478 14.5954 32.8129 15.4717 32.8845 16.3944C33.6718 16.3944 34.4006 16.4144 35.1164 16.3745C35.253 16.3679 35.4873 16.1488 35.5003 16.0094C35.5849 15.2592 35.6174 14.5024 35.6694 13.6726ZM31.0755 18.4259C30.1711 18.4259 29.3317 18.4259 28.4467 18.4259C28.6224 19.3619 28.7916 20.2316 28.9543 21.0747C29.7611 21.0747 30.5029 21.0747 31.2707 21.0747C31.2057 20.1519 31.1406 19.2889 31.0755 18.4259ZM39.8209 18.4126C38.9294 18.4126 38.1291 18.4126 37.2702 18.4126C37.2116 19.3287 37.153 20.205 37.088 21.1079C37.8753 21.1079 38.5585 21.1079 39.3003 21.1079C39.476 20.2249 39.6452 19.3486 39.8209 18.4126ZM35.3311 18.4126C34.5112 18.4126 33.7954 18.4126 33.0211 18.4126C33.0927 19.3354 33.1578 20.2183 33.2228 21.1012C33.8996 21.1012 34.4917 21.1012 35.1359 21.1012C35.2009 20.1984 35.266 19.3354 35.3311 18.4126Z" fill="white"/>
<path d="M57.3836 14.4161C57.3836 13.5664 57.3641 12.8029 57.3901 12.0395C57.4226 11.2096 58.0993 10.6852 58.7175 11.0636C59.0038 11.2362 59.2446 11.6943 59.2901 12.0461C59.3747 12.7963 59.3162 13.5664 59.3162 14.4161C60.1165 14.4161 60.8388 14.4095 61.561 14.4161C62.2703 14.4227 62.6998 14.7879 62.7128 15.3721C62.7193 15.9496 62.2833 16.3612 61.5936 16.3811C60.8648 16.4011 60.136 16.3878 59.3227 16.3878C59.3227 17.1645 59.3292 17.8815 59.3227 18.5984C59.3161 19.3685 58.9583 19.8266 58.3726 19.8266C57.787 19.8332 57.4096 19.3752 57.3966 18.6117C57.3836 17.8947 57.3966 17.1778 57.3966 16.3878C56.5767 16.3878 55.8219 16.4542 55.0866 16.3612C54.7418 16.3148 54.3448 16.0359 54.1366 15.7438C54 15.5579 54.065 15.06 54.2277 14.8543C54.4099 14.6219 54.7938 14.4626 55.0996 14.436C55.8024 14.3763 56.5312 14.4161 57.3836 14.4161Z" fill="white"/>
<path d="M12.6037 35.3545C14.3215 35.3545 16.0394 35.3479 17.7572 35.3545C18.512 35.3545 18.9415 35.7263 18.9285 36.3503C18.9155 36.9411 18.4925 37.3195 17.7898 37.3195C14.3541 37.3262 10.9184 37.3262 7.48925 37.3195C6.79301 37.3195 6.35053 36.9279 6.34403 36.3503C6.33101 35.7396 6.77999 35.3545 7.52178 35.3545C9.21359 35.3479 10.9119 35.3545 12.6037 35.3545Z" fill="white"/>
<path d="M10.1633 32.8645C9.26537 32.8645 8.36741 32.8712 7.46945 32.8645C6.77321 32.8579 6.34375 32.4662 6.34375 31.882C6.34375 31.2978 6.77972 30.8995 7.46945 30.8995C9.26537 30.8929 11.0678 30.8929 12.8637 30.8995C13.5535 30.9061 13.9894 31.3045 13.9894 31.8887C13.9894 32.4729 13.5535 32.8579 12.8572 32.8645C11.9592 32.8778 11.0613 32.8645 10.1633 32.8645Z" fill="white"/>
</g>
<rect x="0.9" y="0.255469" width="66.2" height="60.2" stroke="white" stroke-width="0.2"/>
<defs>
<clipPath id="clip0_1731_707">
<rect x="1" y="0.355469" width="66" height="60" fill="white"/>
</clipPath>
</defs>
</svg>
