<svg width="72" height="64" viewBox="0 0 72 64" fill="none" xmlns="http://www.w3.org/2000/svg">
<g clip-path="url(#clip0_1731_697)">
<path d="M0 4.26308C0.159481 3.85311 0.281873 3.42835 0.48586 3.04054C1.45016 1.21595 2.99675 0.355362 5.05888 0.359056C11.783 0.362749 18.5072 0.359056 25.235 0.359056C27.7905 0.359056 30.3421 0.336895 32.8975 0.381217C33.2944 0.388604 33.7951 0.580666 34.051 0.861372C34.5665 1.42648 34.1437 2.32769 33.3686 2.44219C33.1164 2.47912 32.853 2.46066 32.5971 2.46066C23.4363 2.46066 14.2754 2.46066 5.1108 2.46066C3.55308 2.46066 2.5146 3.16981 2.19564 4.46253C2.11776 4.77279 2.11405 5.10889 2.11405 5.43392C2.11034 19.3917 2.11034 33.3494 2.11034 47.3034C2.11034 49.1982 3.10802 50.1991 5.01066 50.1991C18.6963 50.2028 32.3783 50.1991 46.064 50.1991C46.2754 50.1991 46.4868 50.1917 46.6982 50.1991C47.414 50.225 47.8479 50.6202 47.8442 51.2444C47.8405 51.8612 47.4066 52.2823 46.6908 52.2933C45.3778 52.3118 44.0649 52.3007 42.7557 52.3007C42.4812 52.3007 42.2105 52.3007 41.8359 52.3007C42.3292 53.8077 42.7742 55.226 43.2712 56.6258C43.3231 56.7662 43.6829 56.8696 43.9017 56.8696C45.5188 56.8917 47.1358 56.877 48.7529 56.8844C49.8433 56.888 50.1697 57.2242 50.1771 58.3174C50.1808 59.5547 50.1882 60.7921 50.1734 62.0294C50.1623 62.9638 49.7765 63.3517 48.8382 63.3554C40.2856 63.3591 31.733 63.3591 23.1803 63.3554C22.2309 63.3554 21.8489 62.9712 21.8377 62.0405C21.8229 60.7588 21.8266 59.4735 21.8377 58.1882C21.8452 57.25 22.2123 56.8954 23.1766 56.888C24.8159 56.877 26.459 56.8696 28.0983 56.8954C28.5545 56.9028 28.7473 56.7514 28.8771 56.3156C29.2703 55.0044 29.7153 53.7079 30.1752 52.3044C29.8044 52.3044 29.5336 52.3044 29.2629 52.3044C21.4149 52.3044 13.5633 52.2416 5.71535 52.334C2.6407 52.3709 0.634214 51.056 0.00370885 48.3856C0 33.6781 0 18.9706 0 4.26308ZM23.974 61.2021C32.0371 61.2021 40.0185 61.2021 48.0223 61.2021C48.0223 60.4597 48.0223 59.769 48.0223 59.0377C39.9889 59.0377 31.9963 59.0377 23.974 59.0377C23.974 59.7837 23.974 60.4744 23.974 61.2021ZM30.9133 56.84C34.3403 56.84 37.6708 56.84 41.0867 56.84C40.5786 55.2888 40.0927 53.8003 39.5994 52.3044C39.3435 52.3044 39.1581 52.3044 38.9726 52.3044C36.9142 52.3044 34.8558 52.297 32.7974 52.3192C32.6268 52.3229 32.3598 52.4928 32.3078 52.6442C31.8294 54.0034 31.3917 55.3737 30.9133 56.84Z" fill="white"/>
<path d="M65.5282 6.804C45.8193 6.804 26.192 6.804 6.52028 6.804C6.52028 18.3203 6.52028 29.8145 6.52028 41.3678C26.1624 41.3678 45.8045 41.3678 65.5282 41.3678C65.5282 41.1092 65.5282 40.8581 65.5282 40.6069C65.5282 36.1008 65.5282 31.5985 65.5282 27.0924C65.5282 26.8819 65.5133 26.6713 65.5393 26.4645C65.6098 25.8698 65.951 25.5226 66.5481 25.5005C67.1526 25.482 67.5013 25.8292 67.62 26.4017C67.657 26.5827 67.6385 26.7747 67.6385 26.9594C67.6385 31.9789 67.6385 36.9947 67.6385 42.0141C67.6385 43.2034 67.3307 43.5211 66.1587 43.5211C46.053 43.5211 25.9473 43.5211 5.84156 43.5211C4.69552 43.5211 4.36914 43.196 4.36914 42.0769C4.36914 30.0804 4.36914 18.0839 4.36914 6.08746C4.36914 5.00527 4.70294 4.67285 5.79705 4.67285C25.925 4.67285 46.0567 4.67285 66.1846 4.67285C67.3158 4.67285 67.6385 4.99788 67.6385 6.13548C67.6385 11.2694 67.6385 16.4071 67.6385 21.5411C67.6385 21.7516 67.657 21.9695 67.6051 22.169C67.4642 22.7082 67.0933 23.0222 66.537 22.9963C65.9881 22.9667 65.632 22.638 65.5467 22.0803C65.517 21.8735 65.5319 21.6593 65.5319 21.4524C65.5319 16.854 65.5319 12.2556 65.5319 7.6572C65.5282 7.39865 65.5282 7.1438 65.5282 6.804Z" fill="white"/>
<path d="M48.5257 15.5913C48.2958 16.0272 48.0955 16.4409 47.8619 16.8361C46.8456 18.5646 46.8308 18.6902 47.7803 20.4187C47.873 20.5887 48.1215 20.7105 48.3218 20.7733C48.9708 20.9654 49.631 21.1279 50.2912 21.2867C50.9291 21.4382 51.248 21.826 51.2443 22.4834C51.2406 23.6506 51.2369 24.8177 51.248 25.9849C51.2555 26.6792 50.9068 27.0707 50.2504 27.2222C50.0909 27.2591 49.9351 27.3034 49.7756 27.3441C47.7728 27.8611 47.7654 27.8575 47.0719 29.7855C47.0051 29.9664 47.057 30.2398 47.1535 30.417C47.4836 31.0339 47.8581 31.6248 48.2142 32.2306C48.5406 32.7846 48.4924 33.2906 48.0288 33.7523C47.198 34.5759 46.3709 35.3996 45.5438 36.2269C45.0839 36.6886 44.5795 36.7514 44.0195 36.4116C43.4594 36.0718 42.8734 35.7689 42.332 35.407C41.9722 35.1632 41.6866 35.2703 41.3009 35.3553C39.8248 35.6766 39.2907 36.6517 39.0645 38.033C38.8568 39.3184 38.6083 39.4292 37.3213 39.4292C36.3125 39.4292 35.3037 39.4144 34.2986 39.4329C33.6124 39.444 33.1859 39.1559 33.0339 38.48C32.9968 38.3211 32.9486 38.166 32.9078 38.0072C32.4034 36.0201 32.4071 36.009 30.4785 35.2851C30.2819 35.2112 29.9778 35.2703 29.7812 35.3737C29.1581 35.6987 28.5647 36.0718 27.9601 36.4301C27.4261 36.744 26.9365 36.6997 26.4914 36.2565C25.6458 35.4144 24.8002 34.5722 23.9546 33.7301C23.5132 33.2906 23.4613 32.7994 23.7691 32.2675C23.8619 32.105 23.9583 31.9462 24.0547 31.7836C25.0969 30.0218 25.1043 30.0182 24.2513 28.1492C24.166 27.9609 23.9101 27.791 23.695 27.7245C23.0719 27.5287 22.4302 27.381 21.7923 27.2369C21.1025 27.0781 20.7427 26.6903 20.7501 25.9627C20.765 24.8177 20.7613 23.6764 20.7501 22.5314C20.7427 21.8444 21.058 21.4308 21.7293 21.2867C21.8442 21.2609 21.9555 21.2165 22.0705 21.2092C23.6097 21.0984 24.6036 20.3486 24.8929 18.7936C24.9337 18.5683 24.9523 18.2876 24.8521 18.0992C24.5295 17.4787 24.1511 16.8878 23.7914 16.2857C23.4465 15.7058 23.5058 15.1925 24.0065 14.7123C24.8299 13.9145 25.6384 13.1019 26.4432 12.2857C26.8994 11.824 27.3927 11.7243 27.9564 12.0751C28.1159 12.1749 28.2791 12.2635 28.4423 12.3558C30.2151 13.3974 30.2151 13.4048 32.0844 12.5405C32.2587 12.4593 32.4219 12.2377 32.4812 12.0456C32.6926 11.3549 32.8632 10.6531 33.0413 9.95138C33.197 9.34564 33.5976 9.05386 34.2133 9.05016C35.4075 9.04647 36.6055 9.04278 37.7997 9.05016C38.4191 9.05386 38.8085 9.36411 38.9532 9.96984C38.9903 10.1287 39.0422 10.2838 39.083 10.4426C39.6022 12.4666 39.5985 12.474 41.5457 13.2164C41.7237 13.2829 41.9982 13.2386 42.1725 13.1463C42.8141 12.8065 43.4335 12.4297 44.0529 12.0567C44.5944 11.7316 45.0728 11.8092 45.5142 12.245C46.3598 13.0872 47.2165 13.9182 48.0436 14.7751C48.2439 14.9819 48.344 15.2774 48.5257 15.5913ZM44.6203 14.1694C43.8155 14.6384 43.1776 15.089 42.4729 15.3919C42.1131 15.547 41.605 15.5433 41.2267 15.4214C40.3218 15.1223 39.4279 14.7603 38.5823 14.3245C38.2151 14.1361 37.8665 13.752 37.6959 13.3716C37.44 12.8065 37.3732 12.1601 37.1766 11.5617C37.121 11.3955 36.9022 11.1776 36.7427 11.1665C36.1419 11.1185 35.5336 11.1481 34.9217 11.1481C34.714 11.9311 34.5063 12.6476 34.3357 13.3716C34.2096 13.9034 33.8906 14.1915 33.3788 14.3725C32.5443 14.668 31.7135 14.9856 30.9235 15.3808C30.3524 15.6652 29.8739 15.6578 29.3473 15.3254C28.7427 14.9413 28.1122 14.5941 27.4186 14.1878C27.0107 14.6273 26.599 15.0152 26.2652 15.4621C26.1428 15.6246 26.1131 15.9681 26.2021 16.1565C26.4618 16.7031 26.7993 17.2091 27.1182 17.7299C27.4001 18.1916 27.3816 18.6385 27.1405 19.1223C26.8178 19.7687 26.4247 20.4114 26.2763 21.0984C26.0464 22.1621 25.4196 22.5758 24.4182 22.7789C22.764 23.115 22.7603 23.163 22.8901 24.8694C22.905 25.0689 23.1312 25.3496 23.3241 25.4197C23.8693 25.6192 24.4479 25.7411 25.0153 25.8704C25.5939 26.0033 25.924 26.3394 26.1205 26.9119C26.4098 27.7467 26.7585 28.5592 27.1368 29.357C27.3816 29.8704 27.3927 30.3284 27.0886 30.8086C26.7659 31.322 26.4432 31.839 26.1725 32.3783C26.0946 32.5334 26.1094 32.8326 26.2096 32.9656C26.5804 33.442 27.007 33.8742 27.4001 34.31C28.179 33.8557 28.8317 33.4937 29.4659 33.0985C29.9333 32.8104 30.3746 32.803 30.8493 33.0727C31.2647 33.3091 31.7061 33.5011 32.2402 33.7634C32.2402 32.382 32.2587 31.1484 32.2216 29.9147C32.2142 29.719 32.0102 29.4715 31.8285 29.3459C29.5661 27.8057 28.7316 25.6007 28.943 22.9857C29.1581 20.3043 30.6416 18.4538 33.0524 17.3273C34.0723 16.8508 34.7622 17.3088 34.777 18.4353C34.7956 19.6468 34.7807 20.862 34.7844 22.0771C34.7844 22.4908 35.6115 23.4253 35.9898 23.4474C36.3644 23.4733 37.2397 22.5056 37.2397 22.0513C37.2434 20.862 37.236 19.6727 37.2434 18.4797C37.2508 17.2534 37.8962 16.8213 39.0088 17.3458C41.4196 18.4834 42.8809 20.3486 43.0774 23.0301C43.2703 25.6451 42.4321 27.8501 40.1511 29.3718C39.9954 29.4752 39.8062 29.671 39.8025 29.8298C39.7728 31.1003 39.7877 32.3709 39.7877 33.756C40.2439 33.5381 40.6036 33.4199 40.904 33.2167C41.5791 32.755 42.191 32.8215 42.8475 33.2684C43.3816 33.6341 43.9639 33.9296 44.5906 34.2952C44.9986 33.8594 45.4103 33.4753 45.7478 33.032C45.8702 32.8695 45.9036 32.526 45.8146 32.3414C45.5549 31.7947 45.2174 31.285 44.9022 30.7679C44.6166 30.3062 44.6352 29.8593 44.8799 29.3792C45.1952 28.755 45.5809 28.1345 45.7181 27.4659C45.9444 26.3838 46.5712 25.9331 47.5985 25.7115C49.2082 25.368 49.1859 25.32 49.1562 23.7023C49.1488 23.3145 49.0524 23.1076 48.6407 23.0301C48.0658 22.9229 47.5058 22.7457 46.9384 22.609C46.4154 22.4797 46.1113 22.1732 45.9258 21.6561C45.6217 20.8029 45.2694 19.9644 44.8836 19.1445C44.6426 18.6274 44.6277 18.1768 44.9319 17.6929C45.2545 17.1796 45.5735 16.6625 45.8479 16.1195C45.9258 15.9644 45.9184 15.6652 45.8183 15.5323C45.4326 15.041 45.0097 14.6052 44.6203 14.1694ZM32.6593 20.0494C30.0705 22.3504 30.6157 26.4502 33.5568 27.8722C34.1168 28.1419 34.3616 28.5186 34.3542 29.128C34.332 30.7605 34.2689 32.3931 34.3431 34.0219C34.3913 35.1189 34.6361 36.2085 34.7919 37.298C35.6523 37.298 36.3496 37.298 37.2063 37.298C37.3621 36.2048 37.6106 35.1189 37.6588 34.0219C37.733 32.3931 37.6773 30.7569 37.6588 29.128C37.6514 28.5888 37.8034 28.164 38.3301 27.9387C40.14 27.1705 40.9003 25.7078 40.9931 23.85C41.0672 22.3948 40.5851 21.1427 39.3426 20.0457C39.3426 21.0614 39.3315 21.9183 39.3463 22.7752C39.3575 23.3329 39.1683 23.7577 38.7084 24.0938C38.0482 24.5739 37.4103 25.0873 36.765 25.5896C36.2494 25.9922 35.745 25.9849 35.2332 25.5823C34.7028 25.1612 34.1836 24.718 33.6161 24.3486C32.8929 23.8796 32.5851 23.2738 32.6518 22.4095C32.7075 21.6782 32.6593 20.9358 32.6593 20.0494Z" fill="white"/>
<path d="M71.9993 26.4501C71.9993 33.3828 71.9993 40.3118 71.9993 47.2445C71.9993 47.6397 72.0068 48.0423 71.9548 48.4338C71.6285 50.8493 70.0782 52.2639 67.5673 52.2824C62.2488 52.323 56.9303 52.3009 51.6118 52.2972C50.8181 52.2972 50.3285 51.8466 50.3545 51.2002C50.3804 50.5797 50.8515 50.203 51.6303 50.203C56.6447 50.1993 61.6591 50.203 66.6734 50.1993C66.9293 50.1993 67.189 50.203 67.4449 50.1919C69.125 50.1254 69.8779 49.3867 69.8853 47.6988C69.9038 43.6618 69.8927 39.6248 69.8927 35.5878C69.8927 25.5747 69.8927 15.5653 69.8927 5.55227C69.8927 3.46545 68.8876 2.46451 66.7958 2.46082C57.3531 2.46082 47.9103 2.46082 38.4676 2.46082C38.2339 2.46082 37.9966 2.4682 37.7666 2.45343C37.1584 2.4128 36.8134 2.05453 36.7764 1.47465C36.7393 0.916934 37.0582 0.547584 37.5997 0.407231C37.8222 0.351828 38.0633 0.359215 38.297 0.359215C47.8324 0.355522 57.3716 0.355522 66.9071 0.359215C70.0077 0.359215 72.0031 2.36109 72.0031 5.44516C71.9993 12.448 71.9993 19.4509 71.9993 26.4501Z" fill="white"/>
<path d="M32.6599 47.1258C32.6266 47.6909 32.1555 48.1193 31.5955 48.1008C31.0095 48.0824 30.5496 47.5764 30.5904 46.9891C30.6275 46.4314 31.1059 45.9919 31.6623 46.0103C32.2483 46.0325 32.697 46.5274 32.6599 47.1258Z" fill="white"/>
<path d="M35.9982 48.1015C35.4085 48.1015 34.9449 47.6176 34.9634 47.023C34.982 46.4616 35.4419 46.0146 36.0019 46.0146C36.5879 46.0146 37.0552 46.5059 37.0367 47.0968C37.0144 47.6619 36.5582 48.1015 35.9982 48.1015Z" fill="white"/>
<path d="M40.3752 46.0147C40.9575 46.0184 41.4359 46.517 41.41 47.1006C41.3877 47.662 40.9241 48.1052 40.3641 48.1052C39.7744 48.1015 39.3145 47.6213 39.3367 47.023C39.3553 46.4542 39.8152 46.011 40.3752 46.0147Z" fill="white"/>
</g>
<defs>
<clipPath id="clip0_1731_697">
<rect width="72" height="63" fill="white" transform="translate(0 0.355469)"/>
</clipPath>
</defs>
</svg>
